<svg id="my-svg" width="100%" xmlns="http://www.w3.org/2000/svg" xmlns:xlink="http://www.w3.org/1999/xlink" class="flowchart" style="max-width: 720.828px; background-color: transparent;" viewBox="0 -49 720.8277587890625 1216.36083984375" role="graphics-document document" aria-roledescription="flowchart-v2"><style>#my-svg{font-family:"trebuchet ms",verdana,arial,sans-serif;font-size:16px;fill:#000000;}@keyframes edge-animation-frame{from{stroke-dashoffset:0;}}@keyframes dash{to{stroke-dashoffset:0;}}#my-svg .edge-animation-slow{stroke-dasharray:9,5!important;stroke-dashoffset:900;animation:dash 50s linear infinite;stroke-linecap:round;}#my-svg .edge-animation-fast{stroke-dasharray:9,5!important;stroke-dashoffset:900;animation:dash 20s linear infinite;stroke-linecap:round;}#my-svg .error-icon{fill:#552222;}#my-svg .error-text{fill:#552222;stroke:#552222;}#my-svg .edge-thickness-normal{stroke-width:1px;}#my-svg .edge-thickness-thick{stroke-width:3.5px;}#my-svg .edge-pattern-solid{stroke-dasharray:0;}#my-svg .edge-thickness-invisible{stroke-width:0;fill:none;}#my-svg .edge-pattern-dashed{stroke-dasharray:3;}#my-svg .edge-pattern-dotted{stroke-dasharray:2;}#my-svg .marker{fill:#666;stroke:#666;}#my-svg .marker.cross{stroke:#666;}#my-svg svg{font-family:"trebuchet ms",verdana,arial,sans-serif;font-size:16px;}#my-svg p{margin:0;}#my-svg .label{font-family:"trebuchet ms",verdana,arial,sans-serif;color:#000000;}#my-svg .cluster-label text{fill:#333;}#my-svg .cluster-label span{color:#333;}#my-svg .cluster-label span p{background-color:transparent;}#my-svg .label text,#my-svg span{fill:#000000;color:#000000;}#my-svg .node rect,#my-svg .node circle,#my-svg .node ellipse,#my-svg .node polygon,#my-svg .node path{fill:#eee;stroke:#999;stroke-width:1px;}#my-svg .rough-node .label text,#my-svg .node .label text,#my-svg .image-shape .label,#my-svg .icon-shape .label{text-anchor:middle;}#my-svg .node .katex path{fill:#000;stroke:#000;stroke-width:1px;}#my-svg .rough-node .label,#my-svg .node .label,#my-svg .image-shape .label,#my-svg .icon-shape .label{text-align:center;}#my-svg .node.clickable{cursor:pointer;}#my-svg .root .anchor path{fill:#666!important;stroke-width:0;stroke:#666;}#my-svg .arrowheadPath{fill:#333333;}#my-svg .edgePath .path{stroke:#666;stroke-width:1px;}#my-svg .flowchart-link{stroke:#666;fill:none;}#my-svg .edgeLabel{background-color:white;text-align:center;}#my-svg .edgeLabel p{background-color:white;}#my-svg .edgeLabel rect{opacity:0.5;background-color:white;fill:white;}#my-svg .labelBkg{background-color:rgba(255, 255, 255, 0.5);}#my-svg .cluster rect{fill:hsl(0, 0%, 98.9215686275%);stroke:#707070;stroke-width:1px;}#my-svg .cluster text{fill:#333;}#my-svg .cluster span{color:#333;}#my-svg div.mermaidTooltip{position:absolute;text-align:center;max-width:200px;padding:2px;font-family:"trebuchet ms",verdana,arial,sans-serif;font-size:12px;background:hsl(-160, 0%, 93.3333333333%);border:1px solid #707070;border-radius:2px;pointer-events:none;z-index:100;}#my-svg .flowchartTitleText{text-anchor:middle;font-size:18px;fill:#000000;}#my-svg rect.text{fill:none;stroke-width:0;}#my-svg .icon-shape,#my-svg .image-shape{background-color:white;text-align:center;}#my-svg .icon-shape p,#my-svg .image-shape p{background-color:white;padding:2px;}#my-svg .icon-shape .label rect,#my-svg .image-shape .label rect{opacity:0.5;background-color:white;fill:white;}#my-svg .label-icon{display:inline-block;height:1em;overflow:visible;vertical-align:-0.125em;}#my-svg .node .label-icon path{fill:currentColor;stroke:revert;stroke-width:revert;}#my-svg .node .neo-node{stroke:#999;}#my-svg [data-look="neo"].node rect,#my-svg [data-look="neo"].cluster rect,#my-svg [data-look="neo"].node polygon{stroke:url(#my-svg-gradient);filter:drop-shadow( 1px 2px 2px rgba(185,185,185,1));}#my-svg [data-look="neo"].node path{stroke:url(#my-svg-gradient);stroke-width:1px;}#my-svg [data-look="neo"].node .outer-path{filter:drop-shadow( 1px 2px 2px rgba(185,185,185,1));}#my-svg [data-look="neo"].node .neo-line path{stroke:#999;filter:none;}#my-svg [data-look="neo"].node circle{stroke:url(#my-svg-gradient);filter:drop-shadow( 1px 2px 2px rgba(185,185,185,1));}#my-svg [data-look="neo"].node circle .state-start{fill:#000000;}#my-svg [data-look="neo"].icon-shape .icon{fill:url(#my-svg-gradient);filter:drop-shadow( 1px 2px 2px rgba(185,185,185,1));}#my-svg [data-look="neo"].icon-shape .icon-neo path{stroke:url(#my-svg-gradient);filter:drop-shadow( 1px 2px 2px rgba(185,185,185,1));}#my-svg :root{--mermaid-font-family:"trebuchet ms",verdana,arial,sans-serif;}</style><g><marker id="my-svg_flowchart-v2-pointEnd" class="marker flowchart-v2" viewBox="0 0 10 10" refX="5" refY="5" markerUnits="userSpaceOnUse" markerWidth="8" markerHeight="8" orient="auto"><path d="M 0 0 L 10 5 L 0 10 z" class="arrowMarkerPath" style="stroke-width: 1; stroke-dasharray: 1, 0;"/></marker><marker id="my-svg_flowchart-v2-pointStart" class="marker flowchart-v2" viewBox="0 0 10 10" refX="4.5" refY="5" markerUnits="userSpaceOnUse" markerWidth="8" markerHeight="8" orient="auto"><path d="M 0 5 L 10 10 L 10 0 z" class="arrowMarkerPath" style="stroke-width: 1; stroke-dasharray: 1, 0;"/></marker><marker id="my-svg_flowchart-v2-pointEnd-margin" class="marker flowchart-v2" viewBox="0 0 11.5 14" refX="11.5" refY="7" markerUnits="userSpaceOnUse" markerWidth="10.5" markerHeight="14" orient="auto"><path d="M 0 0 L 11.5 7 L 0 14 z" class="arrowMarkerPath" style="stroke-width: 0; stroke-dasharray: 1, 0;"/></marker><marker id="my-svg_flowchart-v2-pointStart-margin" class="marker flowchart-v2" viewBox="0 0 11.5 14" refX="1" refY="7" markerUnits="userSpaceOnUse" markerWidth="11.5" markerHeight="14" orient="auto"><polygon points="0,7 11.5,14 11.5,0" class="arrowMarkerPath" style="stroke-width: 0; stroke-dasharray: 1, 0;"/></marker><marker id="my-svg_flowchart-v2-circleEnd" class="marker flowchart-v2" viewBox="0 0 10 10" refX="11" refY="5" markerUnits="userSpaceOnUse" markerWidth="11" markerHeight="11" orient="auto"><circle cx="5" cy="5" r="5" class="arrowMarkerPath" style="stroke-width: 1; stroke-dasharray: 1, 0;"/></marker><marker id="my-svg_flowchart-v2-circleStart" class="marker flowchart-v2" viewBox="0 0 10 10" refX="-1" refY="5" markerUnits="userSpaceOnUse" markerWidth="11" markerHeight="11" orient="auto"><circle cx="5" cy="5" r="5" class="arrowMarkerPath" style="stroke-width: 1; stroke-dasharray: 1, 0;"/></marker><marker id="my-svg_flowchart-v2-circleEnd-margin" class="marker flowchart-v2" viewBox="0 0 10 10" refY="5" refX="12.25" markerUnits="userSpaceOnUse" markerWidth="14" markerHeight="14" orient="auto"><circle cx="5" cy="5" r="5" class="arrowMarkerPath" style="stroke-width: 0; stroke-dasharray: 1, 0;"/></marker><marker id="my-svg_flowchart-v2-circleStart-margin" class="marker flowchart-v2" viewBox="0 0 10 10" refX="-2" refY="5" markerUnits="userSpaceOnUse" markerWidth="14" markerHeight="14" orient="auto"><circle cx="5" cy="5" r="5" class="arrowMarkerPath" style="stroke-width: 0; stroke-dasharray: 1, 0;"/></marker><marker id="my-svg_flowchart-v2-crossEnd" class="marker cross flowchart-v2" viewBox="0 0 11 11" refX="12" refY="5.2" markerUnits="userSpaceOnUse" markerWidth="11" markerHeight="11" orient="auto"><path d="M 1,1 l 9,9 M 10,1 l -9,9" class="arrowMarkerPath" style="stroke-width: 2; stroke-dasharray: 1, 0;"/></marker><marker id="my-svg_flowchart-v2-crossStart" class="marker cross flowchart-v2" viewBox="0 0 11 11" refX="-1" refY="5.2" markerUnits="userSpaceOnUse" markerWidth="11" markerHeight="11" orient="auto"><path d="M 1,1 l 9,9 M 10,1 l -9,9" class="arrowMarkerPath" style="stroke-width: 2; stroke-dasharray: 1, 0;"/></marker><marker id="my-svg_flowchart-v2-crossEnd-margin" class="marker cross flowchart-v2" viewBox="0 0 15 15" refX="17.7" refY="7.5" markerUnits="userSpaceOnUse" markerWidth="12" markerHeight="12" orient="auto"><path d="M 1,1 L 14,14 M 1,14 L 14,1" class="arrowMarkerPath" style="stroke-width: 2.5;"/></marker><marker id="my-svg_flowchart-v2-crossStart-margin" class="marker cross flowchart-v2" viewBox="0 0 15 15" refX="-3.5" refY="7.5" markerUnits="userSpaceOnUse" markerWidth="12" markerHeight="12" orient="auto"><path d="M 1,1 L 14,14 M 1,14 L 14,1" class="arrowMarkerPath" style="stroke-width: 2.5; stroke-dasharray: 1, 0;"/></marker><g class="root"><g class="clusters"/><g class="edgePaths"><path d="M191.738,40.5L191.655,44.583C191.572,48.667,191.405,56.833,191.322,64.417C191.238,72,191.238,79,191.238,82.5L191.238,86" id="my-svg-L_A_B_0" class="edge-thickness-normal edge-pattern-solid edge-thickness-normal edge-pattern-solid flowchart-link" style=";" data-edge="true" data-et="edge" data-id="L_A_B_0" data-points="W3sieCI6MTkxLjczODI4MTI1LCJ5Ijo0MC41MDAwMDAwMDAwMDAwMX0seyJ4IjoxOTEuMjM4MjgxMjUsInkiOjY1fSx7IngiOjE5MS4yMzgyODEyNSwieSI6OTB9XQ==" data-look="classic" marker-end="url(#my-svg_flowchart-v2-pointEnd)"/><path d="M191.238,137L191.238,141.167C191.238,145.333,191.238,153.667,191.238,161.333C191.238,169,191.238,176,191.238,179.5L191.238,183" id="my-svg-L_B_C_0" class="edge-thickness-normal edge-pattern-solid edge-thickness-normal edge-pattern-solid flowchart-link" style=";" data-edge="true" data-et="edge" data-id="L_B_C_0" data-points="W3sieCI6MTkxLjIzODI4MTI1LCJ5IjoxMzd9LHsieCI6MTkxLjIzODI4MTI1LCJ5IjoxNjJ9LHsieCI6MTkxLjIzODI4MTI1LCJ5IjoxODd9XQ==" data-look="classic" marker-end="url(#my-svg_flowchart-v2-pointEnd)"/><path d="M223.123,324.045L229.933,335.276C236.743,346.507,250.364,368.968,257.174,390.032C263.984,411.096,263.984,430.763,263.984,448.68C263.984,466.596,263.984,482.763,263.984,508.106C263.984,533.449,263.984,567.968,263.984,604.238C263.984,640.507,263.984,678.526,263.984,708.836C263.984,739.145,263.984,761.745,263.984,782.595C263.984,803.445,263.984,822.545,263.984,844.772C263.984,866.998,263.984,892.351,263.984,905.027L263.984,917.703" id="my-svg-L_C_D_0" class="edge-thickness-normal edge-pattern-solid edge-thickness-normal edge-pattern-solid flowchart-link" style=";" data-edge="true" data-et="edge" data-id="L_C_D_0" data-points="W3sieCI6MjIzLjEyMjc1ODE4NTkxMTM1LCJ5IjozMjQuMDQ1MjEwNTY0MDg4N30seyJ4IjoyNjMuOTg0Mzc1LCJ5IjozOTEuNDI5Njg3NX0seyJ4IjoyNjMuOTg0Mzc1LCJ5Ijo0NTAuNDI5Njg3NX0seyJ4IjoyNjMuOTg0Mzc1LCJ5Ijo0OTguOTI5Njg3NX0seyJ4IjoyNjMuOTg0Mzc1LCJ5Ijo2MDIuNDg3NTAzMDUxNzU3OH0seyJ4IjoyNjMuOTg0Mzc1LCJ5Ijo3MTYuNTQ1MzE4NjAzNTE1Nn0seyJ4IjoyNjMuOTg0Mzc1LCJ5Ijo3ODQuMzQ1MzE3ODQwNTc2Mn0seyJ4IjoyNjMuOTg0Mzc1LCJ5Ijo4NDEuNjQ1MzE3MDc3NjM2N30seyJ4IjoyNjMuOTg0Mzc1LCJ5Ijo5MjEuNzAzMTMyNjI5Mzk0NX1d" data-look="classic" marker-end="url(#my-svg_flowchart-v2-pointEnd)"/><path d="M263.984,968.703L263.984,983.796C263.984,998.889,263.984,1029.075,267.167,1049.512C270.349,1069.949,276.714,1080.636,279.896,1085.98L283.078,1091.324" id="my-svg-L_D_E_0" class="edge-thickness-normal edge-pattern-solid edge-thickness-normal edge-pattern-solid flowchart-link" style=";" data-edge="true" data-et="edge" data-id="L_D_E_0" data-points="W3sieCI6MjYzLjk4NDM3NSwieSI6OTY4LjcwMzEzMjYyOTM5NDV9LHsieCI6MjYzLjk4NDM3NSwieSI6MTA1OS4yNjA5NDgxODExNTIzfSx7IngiOjI4NS4xMjQ2Nzc1OTc3Njk1LCJ5IjoxMDk0Ljc2MDk0ODE4MTE1MjN9XQ==" data-look="classic" marker-end="url(#my-svg_flowchart-v2-pointEnd)"/><path d="M159.354,324.045L152.544,335.276C145.733,346.507,132.113,368.968,125.302,385.449C118.492,401.93,118.492,412.43,118.492,417.68L118.492,422.93" id="my-svg-L_C_F_0" class="edge-thickness-normal edge-pattern-solid edge-thickness-normal edge-pattern-solid flowchart-link" style=";" data-edge="true" data-et="edge" data-id="L_C_F_0" data-points="W3sieCI6MTU5LjM1MzgwNDMxNDA4ODY1LCJ5IjozMjQuMDQ1MjEwNTY0MDg4N30seyJ4IjoxMTguNDkyMTg3NSwieSI6MzkxLjQyOTY4NzV9LHsieCI6MTE4LjQ5MjE4NzUsInkiOjQyNi45Mjk2ODc1fV0=" data-look="classic" marker-end="url(#my-svg_flowchart-v2-pointEnd)"/><path d="M118.492,473.93L118.492,478.096C118.492,482.263,118.492,490.596,118.492,498.263C118.492,505.93,118.492,512.93,118.492,516.43L118.492,519.93" id="my-svg-L_F_G_0" class="edge-thickness-normal edge-pattern-solid edge-thickness-normal edge-pattern-solid flowchart-link" style=";" data-edge="true" data-et="edge" data-id="L_F_G_0" data-points="W3sieCI6MTE4LjQ5MjE4NzUsInkiOjQ3My45Mjk2ODc1fSx7IngiOjExOC40OTIxODc1LCJ5Ijo0OTguOTI5Njg3NX0seyJ4IjoxMTguNDkyMTg3NSwieSI6NTIzLjkyOTY4NzV9XQ==" data-look="classic" marker-end="url(#my-svg_flowchart-v2-pointEnd)"/><path d="M118.492,681.045L118.492,686.962C118.492,692.879,118.492,704.712,118.492,715.879C118.492,727.045,118.492,737.545,118.492,742.795L118.492,748.045" id="my-svg-L_G_H_0" class="edge-thickness-normal edge-pattern-solid edge-thickness-normal edge-pattern-solid flowchart-link" style=";" data-edge="true" data-et="edge" data-id="L_G_H_0" data-points="W3sieCI6MTE4LjQ5MjE4NzQ5OTk5OTk5LCJ5Ijo2ODEuMDQ1MzE4NjAzNTE1NX0seyJ4IjoxMTguNDkyMTg3NSwieSI6NzE2LjU0NTMxODYwMzUxNTZ9LHsieCI6MTE4LjQ5MjE4NzUsInkiOjc1Mi4wNDUzMTg2MDM1MTU2fV0=" data-look="classic" marker-end="url(#my-svg_flowchart-v2-pointEnd)"/><path d="M180.639,618.898L242.27,635.173C303.901,651.447,427.163,683.996,488.794,705.521C550.425,727.045,550.425,737.545,550.425,742.795L550.425,748.045" id="my-svg-L_G_I_0" class="edge-thickness-normal edge-pattern-solid edge-thickness-normal edge-pattern-solid flowchart-link" style=";" data-edge="true" data-et="edge" data-id="L_G_I_0" data-points="W3sieCI6MTgwLjYzOTIzMzQ1MTUwNjkzLCJ5Ijo2MTguODk4MjcyNjUyMDA4N30seyJ4Ijo1NTAuNDI1MzkyMTUwODc4OSwieSI6NzE2LjU0NTMxODYwMzUxNTZ9LHsieCI6NTUwLjQyNTM5MjE1MDg3ODksInkiOjc1Mi4wNDUzMTg2MDM1MTU2fV0=" data-look="classic" marker-end="url(#my-svg_flowchart-v2-pointEnd)"/><path d="M550.425,816.645L550.425,820.812C550.425,824.979,550.425,833.312,550.425,840.979C550.425,848.645,550.425,855.645,550.425,859.145L550.425,862.645" id="my-svg-L_I_J_0" class="edge-thickness-normal edge-pattern-solid edge-thickness-normal edge-pattern-solid flowchart-link" style=";" data-edge="true" data-et="edge" data-id="L_I_J_0" data-points="W3sieCI6NTUwLjQyNTM5MjE1MDg3ODksInkiOjgxNi42NDUzMTcwNzc2MzY3fSx7IngiOjU1MC40MjUzOTIxNTA4Nzg5LCJ5Ijo4NDEuNjQ1MzE3MDc3NjM2N30seyJ4Ijo1NTAuNDI1MzkyMTUwODc4OSwieSI6ODY2LjY0NTMxNzA3NzYzNTl9XQ==" data-look="classic" marker-end="url(#my-svg_flowchart-v2-pointEnd)"/><path d="M573.66,1000.526L577.771,1010.315C581.883,1020.104,590.105,1039.683,594.216,1054.722C598.328,1069.761,598.328,1080.261,598.328,1085.511L598.328,1090.761" id="my-svg-L_J_K_0" class="edge-thickness-normal edge-pattern-solid edge-thickness-normal edge-pattern-solid flowchart-link" style=";" data-edge="true" data-et="edge" data-id="L_J_K_0" data-points="W3sieCI6NTczLjY2MDE0MDEzNDc4NCwieSI6MTAwMC41MjYyMDAxOTcyNDY2fSx7IngiOjU5OC4zMjc3MzU5MDA4Nzg5LCJ5IjoxMDU5LjI2MDk0ODE4MTE1MjN9LHsieCI6NTk4LjMyNzczNTkwMDg3ODksInkiOjEwOTQuNzYwOTQ4MTgxMTUyM31d" data-look="classic" marker-end="url(#my-svg_flowchart-v2-pointEnd)"/><path d="M508.725,982.061L494.168,994.928C479.611,1007.794,450.497,1033.528,426.304,1051.977C402.112,1070.426,382.841,1081.591,373.206,1087.173L363.57,1092.756" id="my-svg-L_J_E_0" class="edge-thickness-normal edge-pattern-solid edge-thickness-normal edge-pattern-solid flowchart-link" style=";" data-edge="true" data-et="edge" data-id="L_J_E_0" data-points="W3sieCI6NTA4LjcyNTI2NDUwMDQwNDc2LCJ5Ijo5ODIuMDYwODIwNTMwNjc4MX0seyJ4Ijo0MjEuMzgyNDIzNDAwODc4OSwieSI6MTA1OS4yNjA5NDgxODExNTIzfSx7IngiOjM2MC4xMDkyOTI2NDg5Nzc5LCJ5IjoxMDk0Ljc2MDk0ODE4MTE1MjN9XQ==" data-look="classic" marker-end="url(#my-svg_flowchart-v2-pointEnd)"/></g><g class="edgeLabels"><g class="edgeLabel"><g class="label" data-id="L_A_B_0" transform="translate(0, 0)"><text y="-10.1" text-anchor="middle"><tspan class="text-outer-tspan row" x="0" y="-0.1em" dy="1.1em" text-anchor="middle"/></text></g></g><g><rect class="background" style="stroke: none"/></g><g class="edgeLabel"><g class="label" data-id="L_B_C_0" transform="translate(0, 0)"><text y="-10.1" text-anchor="middle"><tspan class="text-outer-tspan row" x="0" y="-0.1em" dy="1.1em" text-anchor="middle"/></text></g></g><g><rect class="background" style="stroke: none"/></g><g class="edgeLabel" transform="translate(263.984375, 602.4875030517578)"><g class="label" data-id="L_C_D_0" transform="translate(-0.05078125, -10.5)"><g><rect class="background" style="" x="-12.2265625" y="0" width="24.5546875" height="21"/><text y="-10.1" text-anchor="middle" style=""><tspan class="text-outer-tspan row" x="0" y="-0.1em" dy="1.1em" text-anchor="middle"><tspan font-style="normal" class="text-inner-tspan" font-weight="normal">No</tspan></tspan></text></g></g></g><g class="edgeLabel"><g class="label" data-id="L_D_E_0" transform="translate(0, 0)"><text y="-10.1" text-anchor="middle"><tspan class="text-outer-tspan row" x="0" y="-0.1em" dy="1.1em" text-anchor="middle"/></text></g></g><g><rect class="background" style="stroke: none"/></g><g class="edgeLabel" transform="translate(118.4921875, 391.4296875)"><g class="label" data-id="L_C_F_0" transform="translate(0, -10.5)"><g><rect class="background" style="" x="-15.0546875" y="0" width="30.109375" height="21"/><text y="-10.1" text-anchor="middle" style=""><tspan class="text-outer-tspan row" x="0" y="-0.1em" dy="1.1em" text-anchor="middle"><tspan font-style="normal" class="text-inner-tspan" font-weight="normal">Yes</tspan></tspan></text></g></g></g><g class="edgeLabel"><g class="label" data-id="L_F_G_0" transform="translate(0, 0)"><text y="-10.1" text-anchor="middle"><tspan class="text-outer-tspan row" x="0" y="-0.1em" dy="1.1em" text-anchor="middle"/></text></g></g><g><rect class="background" style="stroke: none"/></g><g class="edgeLabel" transform="translate(118.4921875, 716.5453186035156)"><g class="label" data-id="L_G_H_0" transform="translate(0, -10.5)"><g><rect class="background" style="" x="-15.0546875" y="0" width="30.109375" height="21"/><text y="-10.1" text-anchor="middle" style=""><tspan class="text-outer-tspan row" x="0" y="-0.1em" dy="1.1em" text-anchor="middle"><tspan font-style="normal" class="text-inner-tspan" font-weight="normal">Yes</tspan></tspan></text></g></g></g><g class="edgeLabel" transform="translate(550.4253921508789, 716.5453186035156)"><g class="label" data-id="L_G_I_0" transform="translate(-0.046875, -10.5)"><g><rect class="background" style="" x="-60.703125" y="0" width="121.5" height="21"/><text y="-10.1" text-anchor="middle" style=""><tspan class="text-outer-tspan row" x="0" y="-0.1em" dy="1.1em" text-anchor="middle"><tspan font-style="normal" class="text-inner-tspan" font-weight="normal">No</tspan><tspan font-style="normal" class="text-inner-tspan" font-weight="normal"> /</tspan><tspan font-style="normal" class="text-inner-tspan" font-weight="normal"> Unavailable</tspan></tspan></text></g></g></g><g class="edgeLabel"><g class="label" data-id="L_I_J_0" transform="translate(0, 0)"><text y="-10.1" text-anchor="middle"><tspan class="text-outer-tspan row" x="0" y="-0.1em" dy="1.1em" text-anchor="middle"/></text></g></g><g><rect class="background" style="stroke: none"/></g><g class="edgeLabel" transform="translate(598.3277359008789, 1059.2609481811523)"><g class="label" data-id="L_J_K_0" transform="translate(0, -10.5)"><g><rect class="background" style="" x="-15.0546875" y="0" width="30.109375" height="21"/><text y="-10.1" text-anchor="middle" style=""><tspan class="text-outer-tspan row" x="0" y="-0.1em" dy="1.1em" text-anchor="middle"><tspan font-style="normal" class="text-inner-tspan" font-weight="normal">Yes</tspan></tspan></text></g></g></g><g class="edgeLabel" transform="translate(438.52431, 1044.10967)"><g class="label" data-id="L_J_E_0" transform="translate(-0.046875, -10.5)"><g><rect class="background" style="" x="-60.703125" y="0" width="121.5" height="21"/><text y="-10.1" text-anchor="middle" style=""><tspan class="text-outer-tspan row" x="0" y="-0.1em" dy="1.1em" text-anchor="middle"><tspan font-style="normal" class="text-inner-tspan" font-weight="normal">No</tspan><tspan font-style="normal" class="text-inner-tspan" font-weight="normal"> /</tspan><tspan font-style="normal" class="text-inner-tspan" font-weight="normal"> Unavailable</tspan></tspan></text></g></g></g></g><g class="nodes"><g class="node default" id="my-svg-flowchart-A-0" data-look="classic" transform="translate(191.23828125, 24)"><g class="basic label-container outer-path"><path d="M-43.53125 -16 C-8.770374876502785 -16, 25.99050024699443 -16, 43.53125 -16 C43.53125 -16, 43.53125 -16, 43.53125 -16 C43.9209454476432 -15.987503225490256, 44.3106408952864 -15.975006450980512, 44.556373519691405 -15.967126284005381 C44.82342579965726 -15.941364071734432, 45.09047807962311 -15.915601859463484, 45.577284586952096 -15.868640221171939 C45.84040397509723 -15.826101119017965, 46.10352336324236 -15.78356201686399, 46.58978805922195 -15.704946511857047 C46.90872862976791 -15.632150407911661, 47.22766920031387 -15.559354303966273, 47.58972334255211 -15.476717808624471 C47.93704927680963 -15.373633294487872, 48.28437521106715 -15.270548780351273, 48.572981488377934 -15.184891952170698 C48.895634122539185 -15.066152800231103, 49.21828675670044 -14.947413648291509, 49.53552207806999 -14.830668117536348 C49.73352713140549 -14.743017154035938, 49.931532184740995 -14.65536619053553, 50.47338982588093 -14.415501886438706 C50.83014422316042 -14.229383345890096, 51.186898620439905 -14.043264805341485, 51.382730832063004 -13.941099265974232 C51.65047678007174 -13.778790098841494, 51.91822272808049 -13.616480931708754, 52.25980841936878 -13.409409678269451 C52.42810023399744 -13.292016593619739, 52.59639204862609 -13.174623508970024, 53.101018487859456 -12.822617949887306 C53.379465954092545 -12.600563505364688, 53.65791342032563 -12.37850906084207, 53.90290432492461 -12.183135333906153 C54.11725189407806 -11.988470542926894, 54.331599463231505 -11.793805751947634, 54.662170809655784 -11.493589601563642 C54.900437418500054 -11.247559765879542, 55.138704027344325 -11.001529930195444, 55.37569795320505 -10.756814244181072 C55.583171549722366 -10.513103952129752, 55.79064514623968 -10.269393660078434, 56.04055371948848 -9.975836829739738 C56.174275268943056 -9.79666213575437, 56.30799681839763 -9.617487441769006, 56.65400607355129 -9.153866561954718 C56.80257208671535 -8.925629270174271, 56.95113809987942 -8.697391978393824, 57.213534208085534 -8.294281092968403 C57.408006989320974 -7.948974977380405, 57.60247977055641 -7.603668861792406, 57.716838901968 -7.400612643853364 C57.85407269980606 -7.115643726309759, 57.99130649764411 -6.8306748087661555, 58.161851968252996 -6.476533489958305 C58.272437982390066 -6.203383897004609, 58.383023996527136 -5.930234304050912, 58.546744752796165 -5.52584087074093 C58.64797887696172 -5.22093981822152, 58.74921300112729 -4.916038765702112, 58.86993564858657 -4.552441386096524 C58.929809620233655 -4.324115982662718, 58.98968359188074 -4.095790579228913, 59.130096594909176 -3.560334943301032 C59.19574021160283 -3.223268845362417, 59.26138382829649 -2.886202747423802, 59.326158534631205 -2.5535983205340735 C59.355499595259424 -2.3260348483493676, 59.38484065588764 -2.098471376164661, 59.45731580718717 -1.536368414522911 C59.483206806863414 -1.1330951957265971, 59.50909780653966 -0.729821976930283, 59.523029459211 -0.5128252411464826 C59.523029459211 -0.17732381317916351, 59.523029459211 0.15817761478815562, 59.523029459211 0.5128252411464788 C59.50084949248995 0.8582961261738205, 59.47866952576889 1.2037670112011623, 59.45731580718717 1.5363684145229002 C59.42195200488292 1.810643081822041, 59.38658820257867 2.084917749121182, 59.326158534631205 2.5535983205340624 C59.280430512572835 2.7884020491829022, 59.234702490514465 3.0232057778317416, 59.130096594909176 3.5603349433010285 C59.028952517256236 3.9460411475122372, 58.9278084396033 4.331747351723446, 58.86993564858657 4.552441386096513 C58.75171033298122 4.908517200053851, 58.63348501737587 5.264593014011188, 58.546744752796165 5.525840870740919 C58.42649274295034 5.8228656599745605, 58.30624073310452 6.119890449208202, 58.161851968253 6.4765334899583005 C57.98890786673152 6.8356556171786345, 57.815963765210036 7.194777744398968, 57.716838901968 7.400612643853361 C57.61161300575879 7.5874518778502225, 57.506387109549586 7.774291111847083, 57.21353420808554 8.294281092968399 C57.012143996947 8.60367053812092, 56.810753785808465 8.91305998327344, 56.6540060735513 9.15386656195471 C56.51221428763927 9.3438546375794, 56.370422501727234 9.53384271320409, 56.04055371948848 9.975836829739734 C55.90519711544846 10.1348343988541, 55.76984051140844 10.293831967968464, 55.375697953205055 10.756814244181063 C55.204926558152124 10.933149730165498, 55.034155163099186 11.109485216149931, 54.662170809655784 11.493589601563638 C54.375201778200974 11.754207283146394, 54.08823274674617 12.01482496472915, 53.90290432492463 12.183135333906142 C53.622718872722515 12.40657577598931, 53.3425334205204 12.63001621807248, 53.10101848785946 12.822617949887304 C52.92186951173215 12.947584520399534, 52.74272053560484 13.072551090911762, 52.25980841936879 13.409409678269446 C52.00028362467919 13.566735133947262, 51.74075882998959 13.724060589625077, 51.382730832063004 13.94109926597423 C51.185182813858006 14.044159940536233, 50.98763479565301 14.147220615098234, 50.47338982588093 14.415501886438705 C50.27282665209132 14.504285253980203, 50.0722634783017 14.5930686215217, 49.535522078069995 14.830668117536346 C49.242277969165585 14.938584660331998, 48.94903386026117 15.046501203127649, 48.57298148837794 15.184891952170695 C48.300556177173625 15.265746354546497, 48.02813086596932 15.346600756922298, 47.58972334255213 15.476717808624468 C47.20545554183325 15.564424426556807, 46.821187741114365 15.652131044489147, 46.58978805922196 15.704946511857045 C46.25659691714545 15.758814271772076, 45.92340577506895 15.812682031687109, 45.5772845869521 15.868640221171937 C45.273541649636066 15.897941937030486, 44.96979871232003 15.927243652889038, 44.556373519691405 15.967126284005381 C44.280933091149876 15.975959122436437, 44.00549266260834 15.984791960867495, 43.53125 16 C43.53125 16, 43.53125 16, 43.53125 16 C10.219018710749602 16, -23.093212578500797 16, -43.53125 16 C-43.86036827070457 15.989445817648356, -44.18948654140914 15.978891635296712, -44.5563735196914 15.967126284005381 C-44.791654677422706 15.944428993686033, -45.026935835154006 15.921731703366687, -45.577284586952096 15.868640221171937 C-45.924331434871156 15.812532378188886, -46.271378282790224 15.756424535205833, -46.58978805922196 15.704946511857045 C-46.831551219464274 15.649765648183797, -47.073314379706595 15.594584784510547, -47.58972334255211 15.476717808624471 C-47.89667676325494 15.385615644591258, -48.20363018395776 15.294513480558043, -48.57298148837792 15.184891952170702 C-48.850783551563445 15.082658224944307, -49.12858561474897 14.980424497717912, -49.53552207806999 14.830668117536348 C-49.7449593924167 14.737956431212249, -49.95439670676342 14.64524474488815, -50.47338982588093 14.415501886438708 C-50.78454969361751 14.253169982747941, -51.095709561354084 14.090838079057175, -51.382730832063 13.941099265974234 C-51.5812326704299 13.820766285029935, -51.77973450879679 13.700433304085635, -52.25980841936877 13.409409678269457 C-52.47588872161264 13.258681413389656, -52.691969023856515 13.107953148509853, -53.101018487859456 12.822617949887308 C-53.29789653232287 12.665612948572527, -53.49477457678629 12.508607947257744, -53.90290432492461 12.183135333906154 C-54.10329053941733 12.00114987583257, -54.30367675391004 11.819164417758987, -54.66217080965578 11.493589601563649 C-54.877461741662174 11.271284038552805, -55.09275267366856 11.048978475541961, -55.37569795320505 10.756814244181069 C-55.57282481755098 10.525257812483991, -55.76995168189692 10.293701380786914, -56.04055371948847 9.97583682973974 C-56.24490590504173 9.702023517965454, -56.449258090595 9.428210206191167, -56.65400607355129 9.15386656195472 C-56.78370598502138 8.954612668633873, -56.91340589649146 8.755358775313026, -57.213534208085534 8.29428109296841 C-57.40029090944273 7.962675658542045, -57.58704761079992 7.63107022411568, -57.716838901968 7.400612643853366 C-57.849225921798 7.125708164547919, -57.98161294162801 6.850803685242472, -58.161851968252996 6.476533489958307 C-58.24531935477585 6.270367431514711, -58.328786741298714 6.064201373071116, -58.546744752796165 5.525840870740931 C-58.62533816350537 5.289130039844267, -58.70393157421457 5.052419208947602, -58.86993564858657 4.552441386096519 C-58.927443711622324 4.333138217589018, -58.98495177465807 4.113835049081516, -59.130096594909176 3.5603349433010343 C-59.19482117628493 3.227987897481636, -59.259545757660696 2.895640851662237, -59.326158534631205 2.5535983205340753 C-59.35311626265376 2.3445195053966605, -59.38007399067631 2.135440690259246, -59.45731580718717 1.5363684145229202 C-59.47619237305404 1.2423506642566502, -59.495068938920916 0.9483329139903801, -59.523029459211 0.5128252411464846 C-59.523029459211 0.24958236627784058, -59.523029459211 -0.013660508590803477, -59.523029459211 -0.5128252411464769 C-59.50835726599717 -0.7413564936331944, -59.49368507278333 -0.9698877461199121, -59.45731580718717 -1.5363684145228982 C-59.41791023891336 -1.8419902205450336, -59.378504670639536 -2.147612026567169, -59.326158534631205 -2.5535983205340678 C-59.25635294907948 -2.9120352489264496, -59.18654736352775 -3.2704721773188314, -59.130096594909176 -3.5603349433010267 C-59.04485614260422 -3.885393731385561, -58.95961569029926 -4.2104525194700955, -58.869935648586576 -4.552441386096511 C-58.76869422452142 -4.8573644247504335, -58.66745280045625 -5.162287463404357, -58.54674475279617 -5.525840870740911 C-58.44336365903231 -5.78119417107514, -58.339982565268436 -6.036547471409368, -58.161851968253 -6.476533489958299 C-58.007672624193155 -6.796690196808063, -57.85349328013331 -7.1168469036578275, -57.716838901968 -7.400612643853359 C-57.566131018502745 -7.668209751773954, -57.415423135037486 -7.935806859694551, -57.213534208085534 -8.294281092968404 C-57.02208800440112 -8.588393872331508, -56.8306418007167 -8.882506651694612, -56.654006073551294 -9.153866561954715 C-56.46547574256305 -9.406480030012478, -56.2769454115748 -9.659093498070241, -56.04055371948848 -9.975836829739734 C-55.88372666111171 -10.160054816221512, -55.72689960273493 -10.344272802703289, -55.375697953205055 -10.756814244181063 C-55.17635096476858 -10.962656376433854, -54.9770039763321 -11.168498508686644, -54.66217080965579 -11.493589601563633 C-54.418089954100495 -11.715257376553401, -54.174009098545206 -11.936925151543171, -53.90290432492463 -12.18313533390614 C-53.707658934203536 -12.338838337308156, -53.51241354348245 -12.494541340710171, -53.10101848785946 -12.822617949887302 C-52.89565007806201 -12.965874062306828, -52.69028166826457 -13.109130174726355, -52.25980841936879 -13.409409678269444 C-52.06351189903679 -13.528405782461101, -51.867215378704785 -13.647401886652757, -51.382730832063004 -13.941099265974229 C-51.05241900230819 -14.113422735982493, -50.72210717255337 -14.285746205990757, -50.473389825880936 -14.415501886438705 C-50.15247745666771 -14.557560272762194, -49.83156508745449 -14.699618659085683, -49.535522078069995 -14.830668117536344 C-49.15273712312203 -14.97153651938253, -48.769952168174065 -15.112404921228718, -48.57298148837794 -15.184891952170695 C-48.362485855477885 -15.247365951101306, -48.15199022257783 -15.309839950031918, -47.58972334255213 -15.476717808624466 C-47.305459411579044 -15.541599195873566, -47.021195480605954 -15.606480583122666, -46.589788059221966 -15.704946511857043 C-46.209179023568815 -15.76648042907429, -45.828569987915664 -15.828014346291537, -45.5772845869521 -15.868640221171937 C-45.217137911948164 -15.90338313776982, -44.856991236944225 -15.938126054367702, -44.556373519691405 -15.967126284005381 C-44.31652347934892 -15.974817807959383, -44.07667343900644 -15.982509331913384, -43.53125000000001 -16 C-43.53125000000001 -16, -43.53125 -16, -43.53125 -16" stroke="none" stroke-width="0" fill="#eee" style=""/><path d="M-43.53125 -16 C-20.46400176245168 -16, 2.6032464750966398 -16, 43.53125 -16 M-43.53125 -16 C-8.910207489239248 -16, 25.710835021521504 -16, 43.53125 -16 M43.53125 -16 C43.53125 -16, 43.53125 -16, 43.53125 -16 M43.53125 -16 C43.53125 -16, 43.53125 -16, 43.53125 -16 M43.53125 -16 C43.76270950018616 -15.992577544337616, 43.99416900037232 -15.985155088675233, 44.556373519691405 -15.967126284005381 M43.53125 -16 C43.85300499967715 -15.989681943418468, 44.174759999354286 -15.979363886836936, 44.556373519691405 -15.967126284005381 M44.556373519691405 -15.967126284005381 C44.7790115331815 -15.945648662605377, 45.0016495466716 -15.924171041205375, 45.577284586952096 -15.868640221171939 M44.556373519691405 -15.967126284005381 C44.887945585036555 -15.935139925635287, 45.219517650381704 -15.903153567265191, 45.577284586952096 -15.868640221171939 M45.577284586952096 -15.868640221171939 C45.83033740311994 -15.82772860430782, 46.08339021928778 -15.786816987443704, 46.58978805922195 -15.704946511857047 M45.577284586952096 -15.868640221171939 C45.81115134948332 -15.830830456669721, 46.04501811201454 -15.793020692167504, 46.58978805922195 -15.704946511857047 M46.58978805922195 -15.704946511857047 C46.889295171346184 -15.636585967981253, 47.188802283470416 -15.568225424105457, 47.58972334255211 -15.476717808624471 M46.58978805922195 -15.704946511857047 C46.81041559024425 -15.654589717630397, 47.03104312126654 -15.604232923403748, 47.58972334255211 -15.476717808624471 M47.58972334255211 -15.476717808624471 C47.950174140830875 -15.369737903740186, 48.31062493910963 -15.2627579988559, 48.572981488377934 -15.184891952170698 M47.58972334255211 -15.476717808624471 C47.816254914919426 -15.40948442703434, 48.04278648728675 -15.34225104544421, 48.572981488377934 -15.184891952170698 M48.572981488377934 -15.184891952170698 C48.90953602775775 -15.061036770602866, 49.24609056713758 -14.937181589035035, 49.53552207806999 -14.830668117536348 M48.572981488377934 -15.184891952170698 C48.87334221520835 -15.07435642819298, 49.17370294203878 -14.963820904215263, 49.53552207806999 -14.830668117536348 M49.53552207806999 -14.830668117536348 C49.78827615289196 -14.718781386295896, 50.04103022771393 -14.606894655055445, 50.47338982588093 -14.415501886438706 M49.53552207806999 -14.830668117536348 C49.76644099480174 -14.728447163065487, 49.997359911533486 -14.626226208594627, 50.47338982588093 -14.415501886438706 M50.47338982588093 -14.415501886438706 C50.80509706205567 -14.24245043379497, 51.13680429823041 -14.069398981151233, 51.382730832063004 -13.941099265974232 M50.47338982588093 -14.415501886438706 C50.731479311446414 -14.280856767133399, 50.9895687970119 -14.14621164782809, 51.382730832063004 -13.941099265974232 M51.382730832063004 -13.941099265974232 C51.61407212428835 -13.800858815114893, 51.845413416513686 -13.660618364255553, 52.25980841936878 -13.409409678269451 M51.382730832063004 -13.941099265974232 C51.730787387155026 -13.730105336870093, 52.07884394224705 -13.519111407765955, 52.25980841936878 -13.409409678269451 M52.25980841936878 -13.409409678269451 C52.57604488544664 -13.188816809189511, 52.8922813515245 -12.968223940109572, 53.101018487859456 -12.822617949887306 M52.25980841936878 -13.409409678269451 C52.49933272071843 -13.242327894487824, 52.73885702206808 -13.075246110706198, 53.101018487859456 -12.822617949887306 M53.101018487859456 -12.822617949887306 C53.305211623828285 -12.659779357759716, 53.50940475979712 -12.496940765632127, 53.90290432492461 -12.183135333906153 M53.101018487859456 -12.822617949887306 C53.35693524471537 -12.618531146525626, 53.612852001571284 -12.414444343163947, 53.90290432492461 -12.183135333906153 M53.90290432492461 -12.183135333906153 C54.171350358296074 -11.939339749091019, 54.439796391667535 -11.695544164275885, 54.662170809655784 -11.493589601563642 M53.90290432492461 -12.183135333906153 C54.17872562102799 -11.932641730616648, 54.454546917131374 -11.682148127327146, 54.662170809655784 -11.493589601563642 M54.662170809655784 -11.493589601563642 C54.82991703875525 -11.32037784779691, 54.997663267854705 -11.147166094030181, 55.37569795320505 -10.756814244181072 M54.662170809655784 -11.493589601563642 C54.81941034514249 -11.33122687156767, 54.97664988062919 -11.1688641415717, 55.37569795320505 -10.756814244181072 M55.37569795320505 -10.756814244181072 C55.555190139141594 -10.54597250918529, 55.73468232507814 -10.33513077418951, 56.04055371948848 -9.975836829739738 M55.37569795320505 -10.756814244181072 C55.55904500634076 -10.541444362824999, 55.742392059476465 -10.326074481468924, 56.04055371948848 -9.975836829739738 M56.04055371948848 -9.975836829739738 C56.209146690476096 -9.749937607751953, 56.377739661463714 -9.52403838576417, 56.65400607355129 -9.153866561954718 M56.04055371948848 -9.975836829739738 C56.22544092230843 -9.72810482153168, 56.41032812512839 -9.480372813323623, 56.65400607355129 -9.153866561954718 M56.65400607355129 -9.153866561954718 C56.86095969779776 -8.835930220282815, 57.067913322044234 -8.517993878610913, 57.213534208085534 -8.294281092968403 M56.65400607355129 -9.153866561954718 C56.782657822213906 -8.956222928177263, 56.91130957087653 -8.758579294399809, 57.213534208085534 -8.294281092968403 M57.213534208085534 -8.294281092968403 C57.34925521821469 -8.053294696241556, 57.48497622834383 -7.8123082995147115, 57.716838901968 -7.400612643853364 M57.213534208085534 -8.294281092968403 C57.401919456758264 -7.95978400787501, 57.59030470543099 -7.625286922781618, 57.716838901968 -7.400612643853364 M57.716838901968 -7.400612643853364 C57.82100938406007 -7.184300408897931, 57.925179866152135 -6.967988173942498, 58.161851968252996 -6.476533489958305 M57.716838901968 -7.400612643853364 C57.81177024491309 -7.203485679022539, 57.90670158785818 -7.006358714191715, 58.161851968252996 -6.476533489958305 M58.161851968252996 -6.476533489958305 C58.30677245207847 -6.1185770930624495, 58.451692935903935 -5.760620696166593, 58.546744752796165 -5.52584087074093 M58.161851968252996 -6.476533489958305 C58.240782866986336 -6.281572644061843, 58.319713765719676 -6.086611798165381, 58.546744752796165 -5.52584087074093 M58.546744752796165 -5.52584087074093 C58.611433829939855 -5.331007677188893, 58.67612290708354 -5.136174483636856, 58.86993564858657 -4.552441386096524 M58.546744752796165 -5.52584087074093 C58.673341449010266 -5.144551792188401, 58.79993814522437 -4.763262713635872, 58.86993564858657 -4.552441386096524 M58.86993564858657 -4.552441386096524 C58.93869440035478 -4.2902344653728335, 59.00745315212298 -4.0280275446491425, 59.130096594909176 -3.560334943301032 M58.86993564858657 -4.552441386096524 C58.97370356415684 -4.156729350727963, 59.07747147972712 -3.761017315359402, 59.130096594909176 -3.560334943301032 M59.130096594909176 -3.560334943301032 C59.200844768227434 -3.1970580259435253, 59.271592941545684 -2.833781108586018, 59.326158534631205 -2.5535983205340735 M59.130096594909176 -3.560334943301032 C59.191136516963255 -3.2469078443454342, 59.25217643901733 -2.9334807453898364, 59.326158534631205 -2.5535983205340735 M59.326158534631205 -2.5535983205340735 C59.3667728430144 -2.238601764916292, 59.40738715139761 -1.9236052092985112, 59.45731580718717 -1.536368414522911 M59.326158534631205 -2.5535983205340735 C59.370804619179346 -2.2073321051452464, 59.415450703727494 -1.8610658897564194, 59.45731580718717 -1.536368414522911 M59.45731580718717 -1.536368414522911 C59.479016681090776 -1.198359786844078, 59.50071755499439 -0.8603511591652451, 59.523029459211 -0.5128252411464826 M59.45731580718717 -1.536368414522911 C59.48196295122981 -1.152469251242234, 59.50661009527244 -0.7685700879615572, 59.523029459211 -0.5128252411464826 M59.523029459211 -0.5128252411464826 C59.523029459211 -0.17793835444065698, 59.523029459211 0.1569485322651687, 59.523029459211 0.5128252411464788 M59.523029459211 -0.5128252411464826 C59.523029459211 -0.12961622697925007, 59.523029459211 0.2535927871879825, 59.523029459211 0.5128252411464788 M59.523029459211 0.5128252411464788 C59.49991799299717 0.8728049826667692, 59.47680652678333 1.2327847241870595, 59.45731580718717 1.5363684145229002 M59.523029459211 0.5128252411464788 C59.499896371023766 0.8731417623554527, 59.47676328283652 1.2334582835644268, 59.45731580718717 1.5363684145229002 M59.45731580718717 1.5363684145229002 C59.41518253068476 1.8631457869190702, 59.373049254182355 2.18992315931524, 59.326158534631205 2.5535983205340624 M59.45731580718717 1.5363684145229002 C59.424676778055485 1.7895102791629662, 59.3920377489238 2.042652143803032, 59.326158534631205 2.5535983205340624 M59.326158534631205 2.5535983205340624 C59.26805668228993 2.8519390524756627, 59.20995482994866 3.150279784417263, 59.130096594909176 3.5603349433010285 M59.326158534631205 2.5535983205340624 C59.27697822743755 2.806128803711867, 59.227797920243894 3.058659286889672, 59.130096594909176 3.5603349433010285 M59.130096594909176 3.5603349433010285 C59.02676780610685 3.9543723979846623, 58.92343901730452 4.348409852668296, 58.86993564858657 4.552441386096513 M59.130096594909176 3.5603349433010285 C59.0508540163089 3.8625212394547113, 58.97161143770862 4.164707535608394, 58.86993564858657 4.552441386096513 M58.86993564858657 4.552441386096513 C58.77062071307846 4.851562148160877, 58.67130577757034 5.150682910225242, 58.546744752796165 5.525840870740919 M58.86993564858657 4.552441386096513 C58.75432803288451 4.900633105018976, 58.638720417182455 5.248824823941439, 58.546744752796165 5.525840870740919 M58.546744752796165 5.525840870740919 C58.448275019411334 5.769063015984243, 58.3498052860265 6.012285161227568, 58.161851968253 6.4765334899583005 M58.546744752796165 5.525840870740919 C58.40798287164876 5.868585399953481, 58.26922099050135 6.211329929166043, 58.161851968253 6.4765334899583005 M58.161851968253 6.4765334899583005 C58.05057818432838 6.7075958831553475, 57.939304400403756 6.9386582763523945, 57.716838901968 7.400612643853361 M58.161851968253 6.4765334899583005 C58.06202052751346 6.683835612704605, 57.96218908677392 6.891137735450908, 57.716838901968 7.400612643853361 M57.716838901968 7.400612643853361 C57.52875857098718 7.734568316708521, 57.34067824000635 8.068523989563682, 57.21353420808554 8.294281092968399 M57.716838901968 7.400612643853361 C57.51825065507183 7.753226185458081, 57.31966240817567 8.1058397270628, 57.21353420808554 8.294281092968399 M57.21353420808554 8.294281092968399 C57.06476871115386 8.52282484538479, 56.91600321422219 8.751368597801182, 56.6540060735513 9.15386656195471 M57.21353420808554 8.294281092968399 C57.03791003394664 8.564086986139774, 56.86228585980773 8.83389287931115, 56.6540060735513 9.15386656195471 M56.6540060735513 9.15386656195471 C56.51137171326594 9.344983610479554, 56.36873735298058 9.536100659004397, 56.04055371948848 9.975836829739734 M56.6540060735513 9.15386656195471 C56.499749980686 9.360555673375055, 56.345493887820695 9.5672447847954, 56.04055371948848 9.975836829739734 M56.04055371948848 9.975836829739734 C55.78572300176223 10.275175491059603, 55.53089228403598 10.574514152379473, 55.375697953205055 10.756814244181063 M56.04055371948848 9.975836829739734 C55.85030994621206 10.199307991007581, 55.66006617293564 10.422779152275426, 55.375697953205055 10.756814244181063 M55.375697953205055 10.756814244181063 C55.20389640016383 10.934213452865952, 55.03209484712261 11.111612661550842, 54.662170809655784 11.493589601563638 M55.375697953205055 10.756814244181063 C55.15056248156164 10.989285102618862, 54.92542700991823 11.22175596105666, 54.662170809655784 11.493589601563638 M54.662170809655784 11.493589601563638 C54.449064595480486 11.687127026796196, 54.23595838130519 11.880664452028753, 53.90290432492463 12.183135333906142 M54.662170809655784 11.493589601563638 C54.38520378382568 11.745123726276608, 54.10823675799558 11.996657850989576, 53.90290432492463 12.183135333906142 M53.90290432492463 12.183135333906142 C53.63719815892722 12.395028930551046, 53.37149199292981 12.60692252719595, 53.10101848785946 12.822617949887304 M53.90290432492463 12.183135333906142 C53.702877410014715 12.34265147560704, 53.50285049510481 12.502167617307938, 53.10101848785946 12.822617949887304 M53.10101848785946 12.822617949887304 C52.89130156144964 12.968907399251371, 52.68158463503982 13.11519684861544, 52.25980841936879 13.409409678269446 M53.10101848785946 12.822617949887304 C52.83257819251604 13.009870279325783, 52.56413789717261 13.197122608764262, 52.25980841936879 13.409409678269446 M52.25980841936879 13.409409678269446 C52.06315464498822 13.528622351964804, 51.86650087060764 13.647835025660164, 51.382730832063004 13.94109926597423 M52.25980841936879 13.409409678269446 C51.969163424980735 13.585600381887058, 51.678518430592675 13.761791085504672, 51.382730832063004 13.94109926597423 M51.382730832063004 13.94109926597423 C51.11133048838586 14.08268865143038, 50.83993014470871 14.224278036886531, 50.47338982588093 14.415501886438705 M51.382730832063004 13.94109926597423 C51.03000920188265 14.125113914510333, 50.677287571702294 14.309128563046437, 50.47338982588093 14.415501886438705 M50.47338982588093 14.415501886438705 C50.12312851925088 14.570552176751328, 49.77286721262084 14.725602467063952, 49.535522078069995 14.830668117536346 M50.47338982588093 14.415501886438705 C50.24757906586179 14.515461611460976, 50.02176830584266 14.615421336483246, 49.535522078069995 14.830668117536346 M49.535522078069995 14.830668117536346 C49.24456416111789 14.93774332056022, 48.9536062441658 15.044818523584091, 48.57298148837794 15.184891952170695 M49.535522078069995 14.830668117536346 C49.24398527817413 14.937956354834661, 48.95244847827826 15.045244592132976, 48.57298148837794 15.184891952170695 M48.57298148837794 15.184891952170695 C48.27322732138986 15.273857415491026, 47.97347315440178 15.36282287881136, 47.58972334255213 15.476717808624468 M48.57298148837794 15.184891952170695 C48.3557570221573 15.24936303351049, 48.138532555936656 15.313834114850286, 47.58972334255213 15.476717808624468 M47.58972334255213 15.476717808624468 C47.34137164989023 15.533402461828295, 47.09301995722832 15.590087115032123, 46.58978805922196 15.704946511857045 M47.58972334255213 15.476717808624468 C47.355182678101315 15.530250184764496, 47.1206420136505 15.583782560904524, 46.58978805922196 15.704946511857045 M46.58978805922196 15.704946511857045 C46.30774100643923 15.750545692043396, 46.0256939536565 15.796144872229744, 45.5772845869521 15.868640221171937 M46.58978805922196 15.704946511857045 C46.3767633825367 15.739386689552477, 46.163738705851436 15.773826867247909, 45.5772845869521 15.868640221171937 M45.5772845869521 15.868640221171937 C45.26885767477154 15.898393794452364, 44.960430762590974 15.928147367732791, 44.556373519691405 15.967126284005381 M45.5772845869521 15.868640221171937 C45.19199337031726 15.905808801460218, 44.80670215368242 15.942977381748499, 44.556373519691405 15.967126284005381 M44.556373519691405 15.967126284005381 C44.22686176362666 15.977693084666653, 43.89735000756192 15.988259885327926, 43.53125 16 M44.556373519691405 15.967126284005381 C44.18685819195366 15.978975921347978, 43.81734286421591 15.990825558690574, 43.53125 16 M43.53125 16 C43.53125 16, 43.53125 16, 43.53125 16 M43.53125 16 C43.53125 16, 43.53125 16, 43.53125 16 M43.53125 16 C23.017823579670505 16, 2.5043971593410106 16, -43.53125 16 M43.53125 16 C11.465887870343181 16, -20.599474259313638 16, -43.53125 16 M-43.53125 16 C-43.87301637458412 15.98904021757498, -44.21478274916823 15.978080435149959, -44.5563735196914 15.967126284005381 M-43.53125 16 C-43.748295043554045 15.99303978790577, -43.96534008710809 15.98607957581154, -44.5563735196914 15.967126284005381 M-44.5563735196914 15.967126284005381 C-44.87130344437136 15.936745372930154, -45.186233369051315 15.906364461854928, -45.577284586952096 15.868640221171937 M-44.5563735196914 15.967126284005381 C-44.84824712675415 15.938969588161408, -45.14012073381691 15.910812892317432, -45.577284586952096 15.868640221171937 M-45.577284586952096 15.868640221171937 C-45.97316840026227 15.804636796360773, -46.36905221357244 15.74063337154961, -46.58978805922196 15.704946511857045 M-45.577284586952096 15.868640221171937 C-45.92348964941902 15.812668471532644, -46.26969471188593 15.75669672189335, -46.58978805922196 15.704946511857045 M-46.58978805922196 15.704946511857045 C-46.867619876769176 15.641533212523937, -47.1454516943164 15.57811991319083, -47.58972334255211 15.476717808624471 M-46.58978805922196 15.704946511857045 C-46.97531204770288 15.616953177265412, -47.3608360361838 15.528959842673778, -47.58972334255211 15.476717808624471 M-47.58972334255211 15.476717808624471 C-47.91726962842478 15.379503790303003, -48.24481591429745 15.282289771981535, -48.57298148837792 15.184891952170702 M-47.58972334255211 15.476717808624471 C-47.95607395864099 15.367986868782918, -48.32242457472987 15.259255928941363, -48.57298148837792 15.184891952170702 M-48.57298148837792 15.184891952170702 C-48.83986519497499 15.086676281097041, -49.10674890157206 14.98846061002338, -49.53552207806999 14.830668117536348 M-48.57298148837792 15.184891952170702 C-48.90112169500435 15.064133322837357, -49.229261901630785 14.943374693504012, -49.53552207806999 14.830668117536348 M-49.53552207806999 14.830668117536348 C-49.85772411845363 14.688038832042448, -50.179926158837276 14.545409546548548, -50.47338982588093 14.415501886438708 M-49.53552207806999 14.830668117536348 C-49.737088254861774 14.741440750318816, -49.93865443165356 14.652213383101284, -50.47338982588093 14.415501886438708 M-50.47338982588093 14.415501886438708 C-50.693766464974615 14.300531534981506, -50.9141431040683 14.185561183524305, -51.382730832063 13.941099265974234 M-50.47338982588093 14.415501886438708 C-50.69521053054273 14.299778166899586, -50.91703123520454 14.184054447360465, -51.382730832063 13.941099265974234 M-51.382730832063 13.941099265974234 C-51.60265010310431 13.8077829114799, -51.82256937414563 13.674466556985564, -52.25980841936877 13.409409678269457 M-51.382730832063 13.941099265974234 C-51.70710146682278 13.74446388096942, -52.03147210158256 13.547828495964605, -52.25980841936877 13.409409678269457 M-52.25980841936877 13.409409678269457 C-52.43754343565625 13.285429424932156, -52.615278451943745 13.161449171594855, -53.101018487859456 12.822617949887308 M-52.25980841936877 13.409409678269457 C-52.53845562168415 13.215037452377224, -52.81710282399953 13.020665226484992, -53.101018487859456 12.822617949887308 M-53.101018487859456 12.822617949887308 C-53.300013369426324 12.663924827313922, -53.4990082509932 12.505231704740536, -53.90290432492461 12.183135333906154 M-53.101018487859456 12.822617949887308 C-53.32634765651116 12.642923934148577, -53.55167682516287 12.463229918409844, -53.90290432492461 12.183135333906154 M-53.90290432492461 12.183135333906154 C-54.10237084072171 12.001985121854037, -54.3018373565188 11.820834909801919, -54.66217080965578 11.493589601563649 M-53.90290432492461 12.183135333906154 C-54.06271188418235 12.038002336864594, -54.222519443440085 11.892869339823033, -54.66217080965578 11.493589601563649 M-54.66217080965578 11.493589601563649 C-54.894020380596615 11.254185884363451, -55.12586995153745 11.014782167163256, -55.37569795320505 10.756814244181069 M-54.66217080965578 11.493589601563649 C-54.82098455043812 11.329601375355274, -54.97979829122046 11.165613149146898, -55.37569795320505 10.756814244181069 M-55.37569795320505 10.756814244181069 C-55.515347717482804 10.59277368476372, -55.65499748176056 10.428733125346374, -56.04055371948847 9.97583682973974 M-55.37569795320505 10.756814244181069 C-55.55555893638013 10.545539298963744, -55.73541991955522 10.334264353746418, -56.04055371948847 9.97583682973974 M-56.04055371948847 9.97583682973974 C-56.166571839368245 9.806984029587737, -56.292589959248026 9.638131229435734, -56.65400607355129 9.15386656195472 M-56.04055371948847 9.97583682973974 C-56.165550290387195 9.808352812157317, -56.290546861285925 9.640868794574894, -56.65400607355129 9.15386656195472 M-56.65400607355129 9.15386656195472 C-56.79256901629799 8.94099667253586, -56.93113195904469 8.728126783116998, -57.213534208085534 8.29428109296841 M-56.65400607355129 9.15386656195472 C-56.85718500444489 8.841729162919927, -57.06036393533848 8.529591763885133, -57.213534208085534 8.29428109296841 M-57.213534208085534 8.29428109296841 C-57.34234469301175 8.065565033505921, -57.47115517793797 7.8368489740434315, -57.716838901968 7.400612643853366 M-57.213534208085534 8.29428109296841 C-57.400652524628114 7.9620335741628825, -57.587770841170695 7.629786055357355, -57.716838901968 7.400612643853366 M-57.716838901968 7.400612643853366 C-57.842256499466785 7.140180319140454, -57.96767409696556 6.87974799442754, -58.161851968252996 6.476533489958307 M-57.716838901968 7.400612643853366 C-57.89025746471187 7.0405052877528975, -58.06367602745574 6.680397931652429, -58.161851968252996 6.476533489958307 M-58.161851968252996 6.476533489958307 C-58.3040378604709 6.125331587202875, -58.4462237526888 5.774129684447443, -58.546744752796165 5.525840870740931 M-58.161851968252996 6.476533489958307 C-58.308421171779095 6.114504723526079, -58.45499037530519 5.752475957093852, -58.546744752796165 5.525840870740931 M-58.546744752796165 5.525840870740931 C-58.61475534107234 5.321003814868768, -58.68276592934852 5.116166758996605, -58.86993564858657 4.552441386096519 M-58.546744752796165 5.525840870740931 C-58.64315551022446 5.235467030335033, -58.73956626765276 4.945093189929135, -58.86993564858657 4.552441386096519 M-58.86993564858657 4.552441386096519 C-58.96807581493858 4.178190397579148, -59.06621598129059 3.803939409061776, -59.130096594909176 3.5603349433010343 M-58.86993564858657 4.552441386096519 C-58.95631699529957 4.2230318731673835, -59.04269834201256 3.893622360238248, -59.130096594909176 3.5603349433010343 M-59.130096594909176 3.5603349433010343 C-59.170522174685914 3.352758135096808, -59.21094775446265 3.1451813268925823, -59.326158534631205 2.5535983205340753 M-59.130096594909176 3.5603349433010343 C-59.200223619133276 3.2002474952621136, -59.270350643357375 2.8401600472231934, -59.326158534631205 2.5535983205340753 M-59.326158534631205 2.5535983205340753 C-59.36980334170919 2.215097815479186, -59.41344814878718 1.8765973104242966, -59.45731580718717 1.5363684145229202 M-59.326158534631205 2.5535983205340753 C-59.3639035681507 2.260855294156841, -59.40164860167018 1.9681122677796066, -59.45731580718717 1.5363684145229202 M-59.45731580718717 1.5363684145229202 C-59.475685183912766 1.25025054452779, -59.494054560638354 0.9641326745326598, -59.523029459211 0.5128252411464846 M-59.45731580718717 1.5363684145229202 C-59.471991800687206 1.307777969511098, -59.48666779418725 1.0791875244992761, -59.523029459211 0.5128252411464846 M-59.523029459211 0.5128252411464846 C-59.523029459211 0.1881810641892353, -59.523029459211 -0.13646311276801404, -59.523029459211 -0.5128252411464769 M-59.523029459211 0.5128252411464846 C-59.523029459211 0.1647485181833035, -59.523029459211 -0.18332820477987766, -59.523029459211 -0.5128252411464769 M-59.523029459211 -0.5128252411464769 C-59.5071143276869 -0.7607162610973085, -59.4911991961628 -1.0086072810481401, -59.45731580718717 -1.5363684145228982 M-59.523029459211 -0.5128252411464769 C-59.498346531308194 -0.8972817669335121, -59.47366360340539 -1.2817382927205474, -59.45731580718717 -1.5363684145228982 M-59.45731580718717 -1.5363684145228982 C-59.41801027299641 -1.84121437595079, -59.37870473880565 -2.1460603373786817, -59.326158534631205 -2.5535983205340678 M-59.45731580718717 -1.5363684145228982 C-59.40709919851837 -1.925838514967158, -59.35688258984956 -2.3153086154114177, -59.326158534631205 -2.5535983205340678 M-59.326158534631205 -2.5535983205340678 C-59.26121219916656 -2.8870840267321687, -59.19626586370191 -3.2205697329302696, -59.130096594909176 -3.5603349433010267 M-59.326158534631205 -2.5535983205340678 C-59.2527169772221 -2.930705195951173, -59.17927541981299 -3.307812071368279, -59.130096594909176 -3.5603349433010267 M-59.130096594909176 -3.5603349433010267 C-59.05407953645505 -3.8502209331881656, -58.97806247800092 -4.1401069230753045, -58.869935648586576 -4.552441386096511 M-59.130096594909176 -3.5603349433010267 C-59.03990030834037 -3.904292475305761, -58.949704021771566 -4.248250007310496, -58.869935648586576 -4.552441386096511 M-58.869935648586576 -4.552441386096511 C-58.7805523191568 -4.821649733039466, -58.69116898972702 -5.0908580799824215, -58.54674475279617 -5.525840870740911 M-58.869935648586576 -4.552441386096511 C-58.78348294678164 -4.812823149565548, -58.6970302449767 -5.073204913034585, -58.54674475279617 -5.525840870740911 M-58.54674475279617 -5.525840870740911 C-58.418964133498015 -5.841461470877565, -58.291183514199865 -6.15708207101422, -58.161851968253 -6.476533489958299 M-58.54674475279617 -5.525840870740911 C-58.39949173304109 -5.889558676479435, -58.252238713286005 -6.253276482217959, -58.161851968253 -6.476533489958299 M-58.161851968253 -6.476533489958299 C-58.03395972812305 -6.7421044630437175, -57.90606748799309 -7.007675436129137, -57.716838901968 -7.400612643853359 M-58.161851968253 -6.476533489958299 C-58.03998811946848 -6.729586379428007, -57.91812427068397 -6.982639268897715, -57.716838901968 -7.400612643853359 M-57.716838901968 -7.400612643853359 C-57.530951941837095 -7.730673764661604, -57.34506498170619 -8.060734885469849, -57.213534208085534 -8.294281092968404 M-57.716838901968 -7.400612643853359 C-57.54512159375936 -7.705514112840779, -57.37340428555071 -8.0104155818282, -57.213534208085534 -8.294281092968404 M-57.213534208085534 -8.294281092968404 C-57.06526601893401 -8.522060847088635, -56.91699782978249 -8.749840601208868, -56.654006073551294 -9.153866561954715 M-57.213534208085534 -8.294281092968404 C-57.05392775082811 -8.53947947165059, -56.89432129357069 -8.784677850332779, -56.654006073551294 -9.153866561954715 M-56.654006073551294 -9.153866561954715 C-56.52940175826838 -9.320824992747173, -56.40479744298546 -9.487783423539632, -56.04055371948848 -9.975836829739734 M-56.654006073551294 -9.153866561954715 C-56.47846075185321 -9.389081300522342, -56.302915430155124 -9.624296039089971, -56.04055371948848 -9.975836829739734 M-56.04055371948848 -9.975836829739734 C-55.786791498948205 -10.27392037346574, -55.53302927840794 -10.572003917191745, -55.375697953205055 -10.756814244181063 M-56.04055371948848 -9.975836829739734 C-55.808964714043384 -10.247874453323266, -55.57737570859828 -10.519912076906797, -55.375697953205055 -10.756814244181063 M-55.375697953205055 -10.756814244181063 C-55.09646114163168 -11.045149177899164, -54.81722433005831 -11.333484111617263, -54.66217080965579 -11.493589601563633 M-55.375697953205055 -10.756814244181063 C-55.12602268953169 -11.014624452644187, -54.87634742585832 -11.272434661107308, -54.66217080965579 -11.493589601563633 M-54.66217080965579 -11.493589601563633 C-54.43251011527735 -11.702161367709138, -54.202849420898914 -11.910733133854642, -53.90290432492463 -12.18313533390614 M-54.66217080965579 -11.493589601563633 C-54.49434539791075 -11.646004200093413, -54.32651998616571 -11.798418798623196, -53.90290432492463 -12.18313533390614 M-53.90290432492463 -12.18313533390614 C-53.72657379371028 -12.323754240197077, -53.55024326249594 -12.464373146488015, -53.10101848785946 -12.822617949887302 M-53.90290432492463 -12.18313533390614 C-53.66562290240804 -12.372360954039285, -53.428341479891444 -12.561586574172429, -53.10101848785946 -12.822617949887302 M-53.10101848785946 -12.822617949887302 C-52.921151279310855 -12.948085528244848, -52.74128407076224 -13.073553106602395, -52.25980841936879 -13.409409678269444 M-53.10101848785946 -12.822617949887302 C-52.86818551820067 -12.985032150344468, -52.635352548541874 -13.147446350801632, -52.25980841936879 -13.409409678269444 M-52.25980841936879 -13.409409678269444 C-51.9463204948323 -13.599447900382994, -51.63283257029581 -13.789486122496545, -51.382730832063004 -13.941099265974229 M-52.25980841936879 -13.409409678269444 C-52.0465408289572 -13.538693744876428, -51.8332732385456 -13.667977811483409, -51.382730832063004 -13.941099265974229 M-51.382730832063004 -13.941099265974229 C-51.066680130044475 -14.105982714777161, -50.750629428025945 -14.270866163580093, -50.473389825880936 -14.415501886438705 M-51.382730832063004 -13.941099265974229 C-51.1059455432945 -14.085497973835318, -50.829160254526 -14.229896681696406, -50.473389825880936 -14.415501886438705 M-50.473389825880936 -14.415501886438705 C-50.16567197733432 -14.551719449864638, -49.857954128787696 -14.68793701329057, -49.535522078069995 -14.830668117536344 M-50.473389825880936 -14.415501886438705 C-50.28177346790541 -14.500324764017167, -50.09015710992988 -14.585147641595627, -49.535522078069995 -14.830668117536344 M-49.535522078069995 -14.830668117536344 C-49.30461217180957 -14.915645097547953, -49.07370226554915 -15.000622077559564, -48.57298148837794 -15.184891952170695 M-49.535522078069995 -14.830668117536344 C-49.21274929994356 -14.949451483565724, -48.88997652181713 -15.068234849595106, -48.57298148837794 -15.184891952170695 M-48.57298148837794 -15.184891952170695 C-48.362754476302925 -15.247286225850456, -48.1525274642279 -15.309680499530216, -47.58972334255213 -15.476717808624466 M-48.57298148837794 -15.184891952170695 C-48.20717063473443 -15.293462693351733, -47.84135978109092 -15.402033434532772, -47.58972334255213 -15.476717808624466 M-47.58972334255213 -15.476717808624466 C-47.26119132636672 -15.551703097447026, -46.93265931018131 -15.626688386269587, -46.589788059221966 -15.704946511857043 M-47.58972334255213 -15.476717808624466 C-47.32164421526803 -15.537905120047268, -47.05356508798393 -15.599092431470073, -46.589788059221966 -15.704946511857043 M-46.589788059221966 -15.704946511857043 C-46.33624615927155 -15.745937199994227, -46.08270425932114 -15.786927888131409, -45.5772845869521 -15.868640221171937 M-46.589788059221966 -15.704946511857043 C-46.32845888272673 -15.747196186474762, -46.06712970623149 -15.789445861092481, -45.5772845869521 -15.868640221171937 M-45.5772845869521 -15.868640221171937 C-45.3632519805244 -15.889287689302147, -45.1492193740967 -15.909935157432358, -44.556373519691405 -15.967126284005381 M-45.5772845869521 -15.868640221171937 C-45.24984822013095 -15.900227613679327, -44.922411853309804 -15.931815006186717, -44.556373519691405 -15.967126284005381 M-44.556373519691405 -15.967126284005381 C-44.20096271403746 -15.978523616777537, -43.84555190838351 -15.989920949549694, -43.53125000000001 -16 M-44.556373519691405 -15.967126284005381 C-44.21801939410908 -15.977976642246453, -43.87966526852675 -15.988827000487527, -43.53125000000001 -16 M-43.53125000000001 -16 C-43.53125000000001 -16, -43.53125 -16, -43.53125 -16 M-43.53125000000001 -16 C-43.53125000000001 -16, -43.53125000000001 -16, -43.53125 -16" stroke="#999" stroke-width="1.3" fill="none" stroke-dasharray="0 0" style=""/></g><g class="label" style="" transform="translate(0, -8.5)"><rect/><g><rect class="background" style="stroke: none"/><text y="-10.1" style=""><tspan class="text-outer-tspan row" x="0" y="-0.1em" dy="1.1em"><tspan font-style="normal" class="text-inner-tspan" font-weight="normal">ISBN</tspan><tspan font-style="normal" class="text-inner-tspan" font-weight="normal"> entered</tspan></tspan></text></g></g></g><g class="node default" id="my-svg-flowchart-B-1" data-look="classic" transform="translate(191.23828125, 113.5)"><rect class="basic label-container" style="" x="-103.41796875" y="-23.5" width="206.8359375" height="47"/><g class="label" style="" transform="translate(0, -8.5)"><rect/><g><rect class="background" style="stroke: none"/><text y="-10.1" style=""><tspan class="text-outer-tspan row" x="0" y="-0.1em" dy="1.1em"><tspan font-style="normal" class="text-inner-tspan" font-weight="normal">Normalize</tspan><tspan font-style="normal" class="text-inner-tspan" font-weight="normal"> &amp;</tspan><tspan font-style="normal" class="text-inner-tspan" font-weight="normal"> validate</tspan></tspan></text></g></g></g><g class="node default" id="my-svg-flowchart-C-3" data-look="classic" transform="translate(191.23828125, 271.46484375)"><polygon points="84.46484375,0 168.9296875,-84.46484375 84.46484375,-168.9296875 0,-84.46484375" class="label-container" transform="translate(-83.96484375, 84.46484375)"/><g class="label" style="" transform="translate(0, -8.5)"><rect/><g><rect class="background" style="stroke: none"/><text y="-10.1" style=""><tspan class="text-outer-tspan row" x="0" y="-0.1em" dy="1.1em"><tspan font-style="normal" class="text-inner-tspan" font-weight="normal">Checksum</tspan><tspan font-style="normal" class="text-inner-tspan" font-weight="normal"> valid?</tspan></tspan></text></g></g></g><g class="node default" id="my-svg-flowchart-D-5" data-look="classic" transform="translate(263.984375, 945.2031326293945)"><rect class="basic label-container" style="fill:#ffebee !important;stroke:#c62828 !important" x="-105.48828125" y="-23.5" width="210.9765625" height="47"/><g class="label" style="" transform="translate(0, -8.5)"><rect/><g><rect class="background" style="stroke: none"/><text y="-10.1" style=""><tspan class="text-outer-tspan row" x="0" y="-0.1em" dy="1.1em"><tspan font-style="normal" class="text-inner-tspan" font-weight="normal">Show</tspan><tspan font-style="normal" class="text-inner-tspan" font-weight="normal"> validation</tspan><tspan font-style="normal" class="text-inner-tspan" font-weight="normal"> error</tspan></tspan></text></g></g></g><g class="node default" id="my-svg-flowchart-E-7" data-look="classic" transform="translate(304.359375, 1127.060947418213)"><rect class="basic label-container" style="fill:#fff3e0 !important;stroke:#e65100 !important" x="-93.5859375" y="-32.29999923706055" width="187.171875" height="64.5999984741211"/><g class="label" style="" transform="translate(0, -17.299999237060547)"><rect/><g><rect class="background" style="stroke: none"/><text y="-10.1" style=""><tspan class="text-outer-tspan row" x="0" y="-0.1em" dy="1.1em"><tspan font-style="normal" class="text-inner-tspan" font-weight="normal">Manual</tspan><tspan font-style="normal" class="text-inner-tspan" font-weight="normal"> entry</tspan></tspan><tspan class="text-outer-tspan row" x="0" y="1em" dy="1.1em"><tspan font-style="normal" class="text-inner-tspan" font-weight="normal">(always</tspan><tspan font-style="normal" class="text-inner-tspan" font-weight="normal"> available)</tspan></tspan></text></g></g></g><g class="node default" id="my-svg-flowchart-F-9" data-look="classic" transform="translate(118.4921875, 450.4296875)"><rect class="basic label-container" style="" x="-100.265625" y="-23.5" width="200.53125" height="47"/><g class="label" style="" transform="translate(0, -8.5)"><rect/><g><rect class="background" style="stroke: none"/><text y="-10.1" style=""><tspan class="text-outer-tspan row" x="0" y="-0.1em" dy="1.1em"><tspan font-style="normal" class="text-inner-tspan" font-weight="normal">Query</tspan><tspan font-style="normal" class="text-inner-tspan" font-weight="normal"> Open</tspan><tspan font-style="normal" class="text-inner-tspan" font-weight="normal"> Library</tspan></tspan></text></g></g></g><g class="node default" id="my-svg-flowchart-G-11" data-look="classic" transform="translate(118.4921875, 602.4875030517578)"><polygon points="78.55781173706055,0 157.1156234741211,-78.55781173706055 78.55781173706055,-157.1156234741211 0,-78.55781173706055" class="label-container" transform="translate(-78.05781173706055, 78.55781173706055)"/><g class="label" style="" transform="translate(0, -17.299999237060547)"><rect/><g><rect class="background" style="stroke: none"/><text y="-10.1" style=""><tspan class="text-outer-tspan row" x="0" y="-0.1em" dy="1.1em"><tspan font-style="normal" class="text-inner-tspan" font-weight="normal">Found</tspan><tspan font-style="normal" class="text-inner-tspan" font-weight="normal"> useful</tspan></tspan><tspan class="text-outer-tspan row" x="0" y="1em" dy="1.1em"><tspan font-style="normal" class="text-inner-tspan" font-weight="normal">metadata?</tspan></tspan></text></g></g></g><g class="node default" id="my-svg-flowchart-H-13" data-look="classic" transform="translate(118.4921875, 784.3453178405762)"><rect class="basic label-container" style="fill:#e8f5e9 !important;stroke:#2e7d32 !important" x="-110.4921875" y="-32.29999923706055" width="220.984375" height="64.5999984741211"/><g class="label" style="" transform="translate(0, -17.299999237060547)"><rect/><g><rect class="background" style="stroke: none"/><text y="-10.1" style=""><tspan class="text-outer-tspan row" x="0" y="-0.1em" dy="1.1em"><tspan font-style="normal" class="text-inner-tspan" font-weight="normal">Return</tspan><tspan font-style="normal" class="text-inner-tspan" font-weight="normal"> metadata</tspan></tspan><tspan class="text-outer-tspan row" x="0" y="1em" dy="1.1em"><tspan font-style="normal" class="text-inner-tspan" font-weight="normal">Provider:</tspan><tspan font-style="normal" class="text-inner-tspan" font-weight="normal"> Open</tspan><tspan font-style="normal" class="text-inner-tspan" font-weight="normal"> Library</tspan></tspan></text></g></g></g><g class="node default" id="my-svg-flowchart-I-15" data-look="classic" transform="translate(550.4253921508789, 784.3453178405762)"><rect class="basic label-container" style="" x="-89.59375" y="-32.29999923706055" width="179.1875" height="64.5999984741211"/><g class="label" style="" transform="translate(0, -17.299999237060547)"><rect/><g><rect class="background" style="stroke: none"/><text y="-10.1" style=""><tspan class="text-outer-tspan row" x="0" y="-0.1em" dy="1.1em"><tspan font-style="normal" class="text-inner-tspan" font-weight="normal">Query</tspan><tspan font-style="normal" class="text-inner-tspan" font-weight="normal"> Let</tspan><tspan font-style="normal" class="text-inner-tspan" font-weight="normal"> Books</tspan></tspan><tspan class="text-outer-tspan row" x="0" y="1em" dy="1.1em"><tspan font-style="normal" class="text-inner-tspan" font-weight="normal">metadata</tspan><tspan font-style="normal" class="text-inner-tspan" font-weight="normal"> API</tspan></tspan></text></g></g></g><g class="node default" id="my-svg-flowchart-J-17" data-look="classic" transform="translate(550.4253921508789, 945.2031326293945)"><polygon points="78.55781173706055,0 157.1156234741211,-78.55781173706055 78.55781173706055,-157.1156234741211 0,-78.55781173706055" class="label-container" transform="translate(-78.05781173706055, 78.55781173706055)"/><g class="label" style="" transform="translate(0, -17.299999237060547)"><rect/><g><rect class="background" style="stroke: none"/><text y="-10.1" style=""><tspan class="text-outer-tspan row" x="0" y="-0.1em" dy="1.1em"><tspan font-style="normal" class="text-inner-tspan" font-weight="normal">Found</tspan><tspan font-style="normal" class="text-inner-tspan" font-weight="normal"> useful</tspan></tspan><tspan class="text-outer-tspan row" x="0" y="1em" dy="1.1em"><tspan font-style="normal" class="text-inner-tspan" font-weight="normal">metadata?</tspan></tspan></text></g></g></g><g class="node default" id="my-svg-flowchart-K-19" data-look="classic" transform="translate(598.3277359008789, 1127.060947418213)"><rect class="basic label-container" style="fill:#e8f5e9 !important;stroke:#2e7d32 !important" x="-114.5" y="-32.29999923706055" width="229" height="64.5999984741211"/><g class="label" style="" transform="translate(0, -17.299999237060547)"><rect/><g><rect class="background" style="stroke: none"/><text y="-10.1" style=""><tspan class="text-outer-tspan row" x="0" y="-0.1em" dy="1.1em"><tspan font-style="normal" class="text-inner-tspan" font-weight="normal">Return</tspan><tspan font-style="normal" class="text-inner-tspan" font-weight="normal"> metadata</tspan></tspan><tspan class="text-outer-tspan row" x="0" y="1em" dy="1.1em"><tspan font-style="normal" class="text-inner-tspan" font-weight="normal">Provider:</tspan><tspan font-style="normal" class="text-inner-tspan" font-weight="normal"> Let</tspan><tspan font-style="normal" class="text-inner-tspan" font-weight="normal"> Books</tspan><tspan font-style="normal" class="text-inner-tspan" font-weight="normal"> API</tspan></tspan></text></g></g></g></g></g></g><defs><filter id="my-svg-drop-shadow" height="130%" width="130%"><feDropShadow dx="4" dy="4" stdDeviation="0" flood-opacity="0.06" flood-color="#000000"/></filter></defs><defs><filter id="my-svg-drop-shadow-small" height="150%" width="150%"><feDropShadow dx="2" dy="2" stdDeviation="0" flood-opacity="0.06" flood-color="#000000"/></filter></defs><linearGradient id="my-svg-gradient" gradientUnits="objectBoundingBox" x1="0%" y1="0%" x2="100%" y2="0%"><stop offset="0%" stop-color="hsl(0, 0%, 83.3333333333%)" stop-opacity="1"/><stop offset="100%" stop-color="hsl(0, 0%, 88.9215686275%)" stop-opacity="1"/></linearGradient><text text-anchor="middle" x="360.41387939453125" y="-25" class="flowchartTitleText">ISBN Metadata Lookup Chain</text></svg>