<svg id="my-svg" width="100%" xmlns="http://www.w3.org/2000/svg" xmlns:xlink="http://www.w3.org/1999/xlink" class="flowchart" style="max-width: 735.097px; background-color: transparent;" viewBox="0 -49 735.0972900390625 1277.5546875" role="graphics-document document" aria-roledescription="flowchart-v2"><style>#my-svg{font-family:"trebuchet ms",verdana,arial,sans-serif;font-size:16px;fill:#000000;}@keyframes edge-animation-frame{from{stroke-dashoffset:0;}}@keyframes dash{to{stroke-dashoffset:0;}}#my-svg .edge-animation-slow{stroke-dasharray:9,5!important;stroke-dashoffset:900;animation:dash 50s linear infinite;stroke-linecap:round;}#my-svg .edge-animation-fast{stroke-dasharray:9,5!important;stroke-dashoffset:900;animation:dash 20s linear infinite;stroke-linecap:round;}#my-svg .error-icon{fill:#552222;}#my-svg .error-text{fill:#552222;stroke:#552222;}#my-svg .edge-thickness-normal{stroke-width:1px;}#my-svg .edge-thickness-thick{stroke-width:3.5px;}#my-svg .edge-pattern-solid{stroke-dasharray:0;}#my-svg .edge-thickness-invisible{stroke-width:0;fill:none;}#my-svg .edge-pattern-dashed{stroke-dasharray:3;}#my-svg .edge-pattern-dotted{stroke-dasharray:2;}#my-svg .marker{fill:#666;stroke:#666;}#my-svg .marker.cross{stroke:#666;}#my-svg svg{font-family:"trebuchet ms",verdana,arial,sans-serif;font-size:16px;}#my-svg p{margin:0;}#my-svg .label{font-family:"trebuchet ms",verdana,arial,sans-serif;color:#000000;}#my-svg .cluster-label text{fill:#333;}#my-svg .cluster-label span{color:#333;}#my-svg .cluster-label span p{background-color:transparent;}#my-svg .label text,#my-svg span{fill:#000000;color:#000000;}#my-svg .node rect,#my-svg .node circle,#my-svg .node ellipse,#my-svg .node polygon,#my-svg .node path{fill:#eee;stroke:#999;stroke-width:1px;}#my-svg .rough-node .label text,#my-svg .node .label text,#my-svg .image-shape .label,#my-svg .icon-shape .label{text-anchor:middle;}#my-svg .node .katex path{fill:#000;stroke:#000;stroke-width:1px;}#my-svg .rough-node .label,#my-svg .node .label,#my-svg .image-shape .label,#my-svg .icon-shape .label{text-align:center;}#my-svg .node.clickable{cursor:pointer;}#my-svg .root .anchor path{fill:#666!important;stroke-width:0;stroke:#666;}#my-svg .arrowheadPath{fill:#333333;}#my-svg .edgePath .path{stroke:#666;stroke-width:1px;}#my-svg .flowchart-link{stroke:#666;fill:none;}#my-svg .edgeLabel{background-color:white;text-align:center;}#my-svg .edgeLabel p{background-color:white;}#my-svg .edgeLabel rect{opacity:0.5;background-color:white;fill:white;}#my-svg .labelBkg{background-color:rgba(255, 255, 255, 0.5);}#my-svg .cluster rect{fill:hsl(0, 0%, 98.9215686275%);stroke:#707070;stroke-width:1px;}#my-svg .cluster text{fill:#333;}#my-svg .cluster span{color:#333;}#my-svg div.mermaidTooltip{position:absolute;text-align:center;max-width:200px;padding:2px;font-family:"trebuchet ms",verdana,arial,sans-serif;font-size:12px;background:hsl(-160, 0%, 93.3333333333%);border:1px solid #707070;border-radius:2px;pointer-events:none;z-index:100;}#my-svg .flowchartTitleText{text-anchor:middle;font-size:18px;fill:#000000;}#my-svg rect.text{fill:none;stroke-width:0;}#my-svg .icon-shape,#my-svg .image-shape{background-color:white;text-align:center;}#my-svg .icon-shape p,#my-svg .image-shape p{background-color:white;padding:2px;}#my-svg .icon-shape .label rect,#my-svg .image-shape .label rect{opacity:0.5;background-color:white;fill:white;}#my-svg .label-icon{display:inline-block;height:1em;overflow:visible;vertical-align:-0.125em;}#my-svg .node .label-icon path{fill:currentColor;stroke:revert;stroke-width:revert;}#my-svg .node .neo-node{stroke:#999;}#my-svg [data-look="neo"].node rect,#my-svg [data-look="neo"].cluster rect,#my-svg [data-look="neo"].node polygon{stroke:url(#my-svg-gradient);filter:drop-shadow( 1px 2px 2px rgba(185,185,185,1));}#my-svg [data-look="neo"].node path{stroke:url(#my-svg-gradient);stroke-width:1px;}#my-svg [data-look="neo"].node .outer-path{filter:drop-shadow( 1px 2px 2px rgba(185,185,185,1));}#my-svg [data-look="neo"].node .neo-line path{stroke:#999;filter:none;}#my-svg [data-look="neo"].node circle{stroke:url(#my-svg-gradient);filter:drop-shadow( 1px 2px 2px rgba(185,185,185,1));}#my-svg [data-look="neo"].node circle .state-start{fill:#000000;}#my-svg [data-look="neo"].icon-shape .icon{fill:url(#my-svg-gradient);filter:drop-shadow( 1px 2px 2px rgba(185,185,185,1));}#my-svg [data-look="neo"].icon-shape .icon-neo path{stroke:url(#my-svg-gradient);filter:drop-shadow( 1px 2px 2px rgba(185,185,185,1));}#my-svg :root{--mermaid-font-family:"trebuchet ms",verdana,arial,sans-serif;}</style><g><marker id="my-svg_flowchart-v2-pointEnd" class="marker flowchart-v2" viewBox="0 0 10 10" refX="5" refY="5" markerUnits="userSpaceOnUse" markerWidth="8" markerHeight="8" orient="auto"><path d="M 0 0 L 10 5 L 0 10 z" class="arrowMarkerPath" style="stroke-width: 1; stroke-dasharray: 1, 0;"/></marker><marker id="my-svg_flowchart-v2-pointStart" class="marker flowchart-v2" viewBox="0 0 10 10" refX="4.5" refY="5" markerUnits="userSpaceOnUse" markerWidth="8" markerHeight="8" orient="auto"><path d="M 0 5 L 10 10 L 10 0 z" class="arrowMarkerPath" style="stroke-width: 1; stroke-dasharray: 1, 0;"/></marker><marker id="my-svg_flowchart-v2-pointEnd-margin" class="marker flowchart-v2" viewBox="0 0 11.5 14" refX="11.5" refY="7" markerUnits="userSpaceOnUse" markerWidth="10.5" markerHeight="14" orient="auto"><path d="M 0 0 L 11.5 7 L 0 14 z" class="arrowMarkerPath" style="stroke-width: 0; stroke-dasharray: 1, 0;"/></marker><marker id="my-svg_flowchart-v2-pointStart-margin" class="marker flowchart-v2" viewBox="0 0 11.5 14" refX="1" refY="7" markerUnits="userSpaceOnUse" markerWidth="11.5" markerHeight="14" orient="auto"><polygon points="0,7 11.5,14 11.5,0" class="arrowMarkerPath" style="stroke-width: 0; stroke-dasharray: 1, 0;"/></marker><marker id="my-svg_flowchart-v2-circleEnd" class="marker flowchart-v2" viewBox="0 0 10 10" refX="11" refY="5" markerUnits="userSpaceOnUse" markerWidth="11" markerHeight="11" orient="auto"><circle cx="5" cy="5" r="5" class="arrowMarkerPath" style="stroke-width: 1; stroke-dasharray: 1, 0;"/></marker><marker id="my-svg_flowchart-v2-circleStart" class="marker flowchart-v2" viewBox="0 0 10 10" refX="-1" refY="5" markerUnits="userSpaceOnUse" markerWidth="11" markerHeight="11" orient="auto"><circle cx="5" cy="5" r="5" class="arrowMarkerPath" style="stroke-width: 1; stroke-dasharray: 1, 0;"/></marker><marker id="my-svg_flowchart-v2-circleEnd-margin" class="marker flowchart-v2" viewBox="0 0 10 10" refY="5" refX="12.25" markerUnits="userSpaceOnUse" markerWidth="14" markerHeight="14" orient="auto"><circle cx="5" cy="5" r="5" class="arrowMarkerPath" style="stroke-width: 0; stroke-dasharray: 1, 0;"/></marker><marker id="my-svg_flowchart-v2-circleStart-margin" class="marker flowchart-v2" viewBox="0 0 10 10" refX="-2" refY="5" markerUnits="userSpaceOnUse" markerWidth="14" markerHeight="14" orient="auto"><circle cx="5" cy="5" r="5" class="arrowMarkerPath" style="stroke-width: 0; stroke-dasharray: 1, 0;"/></marker><marker id="my-svg_flowchart-v2-crossEnd" class="marker cross flowchart-v2" viewBox="0 0 11 11" refX="12" refY="5.2" markerUnits="userSpaceOnUse" markerWidth="11" markerHeight="11" orient="auto"><path d="M 1,1 l 9,9 M 10,1 l -9,9" class="arrowMarkerPath" style="stroke-width: 2; stroke-dasharray: 1, 0;"/></marker><marker id="my-svg_flowchart-v2-crossStart" class="marker cross flowchart-v2" viewBox="0 0 11 11" refX="-1" refY="5.2" markerUnits="userSpaceOnUse" markerWidth="11" markerHeight="11" orient="auto"><path d="M 1,1 l 9,9 M 10,1 l -9,9" class="arrowMarkerPath" style="stroke-width: 2; stroke-dasharray: 1, 0;"/></marker><marker id="my-svg_flowchart-v2-crossEnd-margin" class="marker cross flowchart-v2" viewBox="0 0 15 15" refX="17.7" refY="7.5" markerUnits="userSpaceOnUse" markerWidth="12" markerHeight="12" orient="auto"><path d="M 1,1 L 14,14 M 1,14 L 14,1" class="arrowMarkerPath" style="stroke-width: 2.5;"/></marker><marker id="my-svg_flowchart-v2-crossStart-margin" class="marker cross flowchart-v2" viewBox="0 0 15 15" refX="-3.5" refY="7.5" markerUnits="userSpaceOnUse" markerWidth="12" markerHeight="12" orient="auto"><path d="M 1,1 L 14,14 M 1,14 L 14,1" class="arrowMarkerPath" style="stroke-width: 2.5; stroke-dasharray: 1, 0;"/></marker><g class="root"><g class="clusters"/><g class="edgePaths"><path d="M193.742,40.5L193.659,44.583C193.576,48.667,193.409,56.833,193.326,64.417C193.242,72,193.242,79,193.242,82.5L193.242,86" id="my-svg-L_A_B_0" class="edge-thickness-normal edge-pattern-solid edge-thickness-normal edge-pattern-solid flowchart-link" style=";" data-edge="true" data-et="edge" data-id="L_A_B_0" data-points="W3sieCI6MTkzLjc0MjE4NzUsInkiOjQwLjUwMDAwMDAwMDAwMDAxNH0seyJ4IjoxOTMuMjQyMTg3NSwieSI6NjV9LHsieCI6MTkzLjI0MjE4NzUsInkiOjkwfV0=" data-look="classic" marker-end="url(#my-svg_flowchart-v2-pointEnd)"/><path d="M193.242,137L193.242,141.167C193.242,145.333,193.242,153.667,193.242,161.333C193.242,169,193.242,176,193.242,179.5L193.242,183" id="my-svg-L_B_C_0" class="edge-thickness-normal edge-pattern-solid edge-thickness-normal edge-pattern-solid flowchart-link" style=";" data-edge="true" data-et="edge" data-id="L_B_C_0" data-points="W3sieCI6MTkzLjI0MjE4NzUsInkiOjEzN30seyJ4IjoxOTMuMjQyMTg3NSwieSI6MTYyfSx7IngiOjE5My4yNDIxODc1MDAwMDAwMywieSI6MTg3fV0=" data-look="classic" marker-end="url(#my-svg_flowchart-v2-pointEnd)"/><path d="M225.195,322.921L232.105,334.163C239.015,345.405,252.836,367.889,259.746,388.965C266.656,410.04,266.656,429.707,266.656,447.623C266.656,465.54,266.656,481.707,266.656,509.643C266.656,537.58,266.656,577.287,266.656,618.744C266.656,660.201,266.656,703.407,266.656,736.311C266.656,769.214,266.656,791.814,266.656,812.664C266.656,833.514,266.656,852.614,266.656,877.434C266.656,902.254,266.656,932.794,266.656,948.064L266.656,963.334" id="my-svg-L_C_D_0" class="edge-thickness-normal edge-pattern-solid edge-thickness-normal edge-pattern-solid flowchart-link" style=";" data-edge="true" data-et="edge" data-id="L_C_D_0" data-points="W3sieCI6MjI1LjE5NTA1NTk0NTQ2NzgsInkiOjMyMi45MjA1NzUxNTgwNDc3N30seyJ4IjoyNjYuNjU2MjUsInkiOjM5MC4zNzM0NDM2MDM1MTU2fSx7IngiOjI2Ni42NTYyNSwieSI6NDQ5LjM3MzQ0MzYwMzUxNTZ9LHsieCI6MjY2LjY1NjI1LCJ5Ijo0OTcuODczNDQzNjAzNTE1Nn0seyJ4IjoyNjYuNjU2MjUsInkiOjYxNi45OTM3NTkxNTUyNzM0fSx7IngiOjI2Ni42NTYyNSwieSI6NzQ2LjYxNDA3NDcwNzAzMTJ9LHsieCI6MjY2LjY1NjI1LCJ5Ijo4MTQuNDE0MDczOTQ0MDkxOH0seyJ4IjoyNjYuNjU2MjUsInkiOjg3MS43MTQwNzMxODExNTIzfSx7IngiOjI2Ni42NTYyNSwieSI6OTY3LjMzNDM4ODczMjkxMDJ9XQ==" data-look="classic" marker-end="url(#my-svg_flowchart-v2-pointEnd)"/><path d="M266.656,1014.334L266.656,1032.021C266.656,1049.708,266.656,1085.081,269.893,1108.114C273.129,1131.147,279.603,1141.84,282.839,1147.187L286.076,1152.533" id="my-svg-L_D_E_0" class="edge-thickness-normal edge-pattern-solid edge-thickness-normal edge-pattern-solid flowchart-link" style=";" data-edge="true" data-et="edge" data-id="L_D_E_0" data-points="W3sieCI6MjY2LjY1NjI1LCJ5IjoxMDE0LjMzNDM4ODczMjkxMDJ9LHsieCI6MjY2LjY1NjI1LCJ5IjoxMTIwLjQ1NDcwNDI4NDY2OH0seyJ4IjoyODguMTQ3MzIyOTA0OTk4MzYsInkiOjExNTUuOTU0NzA0Mjg0NjY4fV0=" data-look="classic" marker-end="url(#my-svg_flowchart-v2-pointEnd)"/><path d="M161.289,322.921L154.379,334.163C147.469,345.405,133.649,367.889,126.738,384.381C119.828,400.873,119.828,411.373,119.828,416.623L119.828,421.873" id="my-svg-L_C_F_0" class="edge-thickness-normal edge-pattern-solid edge-thickness-normal edge-pattern-solid flowchart-link" style=";" data-edge="true" data-et="edge" data-id="L_C_F_0" data-points="W3sieCI6MTYxLjI4OTMxOTA1NDUzMjE0LCJ5IjozMjIuOTIwNTc1MTU4MDQ3Nzd9LHsieCI6MTE5LjgyODEyNSwieSI6MzkwLjM3MzQ0MzYwMzUxNTZ9LHsieCI6MTE5LjgyODEyNSwieSI6NDI1Ljg3MzQ0MzYwMzUxNTZ9XQ==" data-look="classic" marker-end="url(#my-svg_flowchart-v2-pointEnd)"/><path d="M119.828,472.873L119.828,477.04C119.828,481.207,119.828,489.54,119.828,497.207C119.828,504.873,119.828,511.873,119.828,515.373L119.828,518.873" id="my-svg-L_F_G_0" class="edge-thickness-normal edge-pattern-solid edge-thickness-normal edge-pattern-solid flowchart-link" style=";" data-edge="true" data-et="edge" data-id="L_F_G_0" data-points="W3sieCI6MTE5LjgyODEyNSwieSI6NDcyLjg3MzQ0MzYwMzUxNTZ9LHsieCI6MTE5LjgyODEyNSwieSI6NDk3Ljg3MzQ0MzYwMzUxNTZ9LHsieCI6MTE5LjgyODEyNTAwMDAwMDAxLCJ5Ijo1MjIuODczNDQzNjAzNTE1Nn1d" data-look="classic" marker-end="url(#my-svg_flowchart-v2-pointEnd)"/><path d="M119.828,711.114L119.828,717.031C119.828,722.947,119.828,734.781,119.828,745.947C119.828,757.114,119.828,767.614,119.828,772.864L119.828,778.114" id="my-svg-L_G_H_0" class="edge-thickness-normal edge-pattern-solid edge-thickness-normal edge-pattern-solid flowchart-link" style=";" data-edge="true" data-et="edge" data-id="L_G_H_0" data-points="W3sieCI6MTE5LjgyODEyNTAwMDAwMDAxLCJ5Ijo3MTEuMTE0MDc0NzA3MDMxNH0seyJ4IjoxMTkuODI4MTI1LCJ5Ijo3NDYuNjE0MDc0NzA3MDMxMn0seyJ4IjoxMTkuODI4MTI1LCJ5Ijo3ODIuMTE0MDc0NzA3MDMxMn1d" data-look="classic" marker-end="url(#my-svg_flowchart-v2-pointEnd)"/><path d="M192.689,638.253L254.587,656.313C316.486,674.373,440.282,710.494,502.18,733.804C564.078,757.114,564.078,767.614,564.078,772.864L564.078,778.114" id="my-svg-L_G_I_0" class="edge-thickness-normal edge-pattern-solid edge-thickness-normal edge-pattern-solid flowchart-link" style=";" data-edge="true" data-et="edge" data-id="L_G_I_0" data-points="W3sieCI6MTkyLjY4OTQzMzE3MTY5OTk2LCJ5Ijo2MzguMjUyNzY2NTM1MzMxM30seyJ4Ijo1NjQuMDc3NzM1OTAwODc4OSwieSI6NzQ2LjYxNDA3NDcwNzAzMTJ9LHsieCI6NTY0LjA3NzczNTkwMDg3ODksInkiOjc4Mi4xMTQwNzQ3MDcwMzEyfV0=" data-look="classic" marker-end="url(#my-svg_flowchart-v2-pointEnd)"/><path d="M564.078,846.714L564.078,850.881C564.078,855.047,564.078,863.381,564.078,871.047C564.078,878.714,564.078,885.714,564.078,889.214L564.078,892.714" id="my-svg-L_I_J_0" class="edge-thickness-normal edge-pattern-solid edge-thickness-normal edge-pattern-solid flowchart-link" style=";" data-edge="true" data-et="edge" data-id="L_I_J_0" data-points="W3sieCI6NTY0LjA3NzczNTkwMDg3ODksInkiOjg0Ni43MTQwNzMxODExNTIzfSx7IngiOjU2NC4wNzc3MzU5MDA4Nzg5LCJ5Ijo4NzEuNzE0MDczMTgxMTUyM30seyJ4Ijo1NjQuMDc3NzM1OTAwODc4NSwieSI6ODk2LjcxNDA3MzE4MTE1MjN9XQ==" data-look="classic" marker-end="url(#my-svg_flowchart-v2-pointEnd)"/><path d="M589.196,1059.837L592.873,1069.94C596.551,1080.043,603.906,1100.249,607.584,1115.602C611.261,1130.955,611.261,1141.455,611.261,1146.705L611.261,1151.955" id="my-svg-L_J_K_0" class="edge-thickness-normal edge-pattern-solid edge-thickness-normal edge-pattern-solid flowchart-link" style=";" data-edge="true" data-et="edge" data-id="L_J_K_0" data-points="W3sieCI6NTg5LjE5NTU4OTYzMDIxMzQsInkiOjEwNTkuODM2ODUwNTU1MzMzNX0seyJ4Ijo2MTEuMjYxMzI5NjUwODc4OSwieSI6MTEyMC40NTQ3MDQyODQ2Njh9LHsieCI6NjExLjI2MTMyOTY1MDg3ODksInkiOjExNTUuOTU0NzA0Mjg0NjY4fV0=" data-look="classic" marker-end="url(#my-svg_flowchart-v2-pointEnd)"/><path d="M517.572,1038.449L504.223,1052.117C490.873,1065.784,464.175,1093.119,440.091,1112.395C416.008,1131.671,394.54,1142.887,383.806,1148.495L373.071,1154.102" id="my-svg-L_J_E_0" class="edge-thickness-normal edge-pattern-solid edge-thickness-normal edge-pattern-solid flowchart-link" style=";" data-edge="true" data-et="edge" data-id="L_J_E_0" data-points="W3sieCI6NTE3LjU3MjAzMTE0ODIyNTQsInkiOjEwMzguNDQ4OTk5NTMyMDEzOX0seyJ4Ijo0MzcuNDc2MTczNDAwODc4OSwieSI6MTEyMC40NTQ3MDQyODQ2Njh9LHsieCI6MzY5LjUyNjEzNDk2NDE0NjM3LCJ5IjoxMTU1Ljk1NDcwNDI4NDY2OH1d" data-look="classic" marker-end="url(#my-svg_flowchart-v2-pointEnd)"/></g><g class="edgeLabels"><g class="edgeLabel"><g class="label" data-id="L_A_B_0" transform="translate(0, 0)"><text y="-10.1" text-anchor="middle"><tspan class="text-outer-tspan row" x="0" y="-0.1em" dy="1.1em" text-anchor="middle"/></text></g></g><g><rect class="background" style="stroke: none"/></g><g class="edgeLabel"><g class="label" data-id="L_B_C_0" transform="translate(0, 0)"><text y="-10.1" text-anchor="middle"><tspan class="text-outer-tspan row" x="0" y="-0.1em" dy="1.1em" text-anchor="middle"/></text></g></g><g><rect class="background" style="stroke: none"/></g><g class="edgeLabel" transform="translate(266.65625, 616.9937591552734)"><g class="label" data-id="L_C_D_0" transform="translate(-0.05078125, -10.5)"><g><rect class="background" style="" x="-12.2265625" y="0" width="24.5546875" height="21"/><text y="-10.1" text-anchor="middle" style=""><tspan class="text-outer-tspan row" x="0" y="-0.1em" dy="1.1em" text-anchor="middle"><tspan font-style="normal" class="text-inner-tspan" font-weight="normal">Ne</tspan></tspan></text></g></g></g><g class="edgeLabel"><g class="label" data-id="L_D_E_0" transform="translate(0, 0)"><text y="-10.1" text-anchor="middle"><tspan class="text-outer-tspan row" x="0" y="-0.1em" dy="1.1em" text-anchor="middle"/></text></g></g><g><rect class="background" style="stroke: none"/></g><g class="edgeLabel" transform="translate(119.828125, 390.3734436035156)"><g class="label" data-id="L_C_F_0" transform="translate(-0.05078125, -10.5)"><g><rect class="background" style="" x="-12.2265625" y="0" width="24.5546875" height="21"/><text y="-10.1" text-anchor="middle" style=""><tspan class="text-outer-tspan row" x="0" y="-0.1em" dy="1.1em" text-anchor="middle"><tspan font-style="normal" class="text-inner-tspan" font-weight="normal">Da</tspan></tspan></text></g></g></g><g class="edgeLabel"><g class="label" data-id="L_F_G_0" transform="translate(0, 0)"><text y="-10.1" text-anchor="middle"><tspan class="text-outer-tspan row" x="0" y="-0.1em" dy="1.1em" text-anchor="middle"/></text></g></g><g><rect class="background" style="stroke: none"/></g><g class="edgeLabel" transform="translate(119.828125, 746.6140747070312)"><g class="label" data-id="L_G_H_0" transform="translate(-0.05078125, -10.5)"><g><rect class="background" style="" x="-12.2265625" y="0" width="24.5546875" height="21"/><text y="-10.1" text-anchor="middle" style=""><tspan class="text-outer-tspan row" x="0" y="-0.1em" dy="1.1em" text-anchor="middle"><tspan font-style="normal" class="text-inner-tspan" font-weight="normal">Da</tspan></tspan></text></g></g></g><g class="edgeLabel" transform="translate(564.0777359008789, 746.6140747070312)"><g class="label" data-id="L_G_I_0" transform="translate(-0.05078125, -10.5)"><g><rect class="background" style="" x="-62.0390625" y="0" width="124.1796875" height="21"/><text y="-10.1" text-anchor="middle" style=""><tspan class="text-outer-tspan row" x="0" y="-0.1em" dy="1.1em" text-anchor="middle"><tspan font-style="normal" class="text-inner-tspan" font-weight="normal">Ne</tspan><tspan font-style="normal" class="text-inner-tspan" font-weight="normal"> /</tspan><tspan font-style="normal" class="text-inner-tspan" font-weight="normal"> Nedostupno</tspan></tspan></text></g></g></g><g class="edgeLabel"><g class="label" data-id="L_I_J_0" transform="translate(0, 0)"><text y="-10.1" text-anchor="middle"><tspan class="text-outer-tspan row" x="0" y="-0.1em" dy="1.1em" text-anchor="middle"/></text></g></g><g><rect class="background" style="stroke: none"/></g><g class="edgeLabel" transform="translate(611.2613296508789, 1120.454704284668)"><g class="label" data-id="L_J_K_0" transform="translate(-0.05078125, -10.5)"><g><rect class="background" style="" x="-12.2265625" y="0" width="24.5546875" height="21"/><text y="-10.1" text-anchor="middle" style=""><tspan class="text-outer-tspan row" x="0" y="-0.1em" dy="1.1em" text-anchor="middle"><tspan font-style="normal" class="text-inner-tspan" font-weight="normal">Da</tspan></tspan></text></g></g></g><g class="edgeLabel" transform="translate(450.74028, 1106.87432)"><g class="label" data-id="L_J_E_0" transform="translate(-0.05078125, -10.5)"><g><rect class="background" style="" x="-62.0390625" y="0" width="124.1796875" height="21"/><text y="-10.1" text-anchor="middle" style=""><tspan class="text-outer-tspan row" x="0" y="-0.1em" dy="1.1em" text-anchor="middle"><tspan font-style="normal" class="text-inner-tspan" font-weight="normal">Ne</tspan><tspan font-style="normal" class="text-inner-tspan" font-weight="normal"> /</tspan><tspan font-style="normal" class="text-inner-tspan" font-weight="normal"> Nedostupno</tspan></tspan></text></g></g></g></g><g class="nodes"><g class="node default" id="my-svg-flowchart-A-0" data-look="classic" transform="translate(193.2421875, 24)"><g class="basic label-container outer-path"><path d="M-35.078125 -16 C-17.789014098479065 -16, -0.49990319695812957 -16, 35.078125 -16 C35.078125 -16, 35.078125 -16, 35.078125 -16 C35.31667946164824 -15.992350022733032, 35.555233923296484 -15.984700045466065, 36.103248519691405 -15.967126284005381 C36.48083236358857 -15.930701224695634, 36.85841620748573 -15.894276165385886, 37.124159586952096 -15.868640221171939 C37.508512289513625 -15.806501056921515, 37.892864992075154 -15.744361892671092, 38.13666305922195 -15.704946511857047 C38.47955055836904 -15.626684677726765, 38.82243805751613 -15.548422843596484, 39.13659834255211 -15.476717808624471 C39.492607115099716 -15.371056273660525, 39.84861588764732 -15.265394738696578, 40.119856488377934 -15.184891952170698 C40.488048101344454 -15.049394035073059, 40.85623971431097 -14.913896117975419, 41.08239707806999 -14.830668117536348 C41.371629116776745 -14.702633673764456, 41.660861155483495 -14.574599229992565, 42.02026482588093 -14.415501886438706 C42.37906644083488 -14.22831531374063, 42.737868055788844 -14.041128741042554, 42.929605832063004 -13.941099265974232 C43.157774300256975 -13.802782199688295, 43.38594276845094 -13.66446513340236, 43.80668341936878 -13.409409678269451 C44.109267725409005 -13.198339965039287, 44.41185203144922 -12.987270251809122, 44.647893487859456 -12.822617949887306 C44.87437380345008 -12.642005925098097, 45.1008541190407 -12.461393900308888, 45.44977932492461 -12.183135333906153 C45.649860257188905 -12.0014271250751, 45.84994118945319 -11.819718916244046, 46.209045809655784 -11.493589601563642 C46.400930716241966 -11.295452681469591, 46.59281562282815 -11.097315761375542, 46.92257295320505 -10.756814244181072 C47.1621295060058 -10.475417486107304, 47.40168605880655 -10.194020728033536, 47.58742871948848 -9.975836829739738 C47.752902079629436 -9.754117602084085, 47.91837543977039 -9.532398374428432, 48.20088107355129 -9.153866561954718 C48.389703137458326 -8.863785165969867, 48.57852520136536 -8.573703769985016, 48.760409208085534 -8.294281092968403 C48.940989619041765 -7.9736422875661725, 49.12157002999799 -7.6530034821639426, 49.263713901968 -7.400612643853364 C49.42000836495271 -7.076063847299848, 49.576302827937404 -6.751515050746331, 49.708726968252996 -6.476533489958305 C49.852252043042746 -6.122023780359074, 49.995777117832496 -5.767514070759843, 50.093619752796165 -5.52584087074093 C50.220311357589495 -5.144265942669392, 50.347002962382824 -4.762691014597856, 50.41681064858657 -4.552441386096524 C50.518319202170645 -4.165345277195014, 50.61982775575473 -3.7782491682935038, 50.676971594909176 -3.560334943301032 C50.718922286182206 -3.344927009895751, 50.76087297745524 -3.12951907649047, 50.873033534631205 -2.5535983205340735 C50.901081806175974 -2.336061465190529, 50.92913007772074 -2.118524609846985, 51.00419080718717 -1.536368414522911 C51.02943150893319 -1.1432241109008288, 51.05467221067922 -0.7500798072787466, 51.069904459211 -0.5128252411464826 C51.069904459211 -0.1518451294869395, 51.069904459211 0.20913498217260362, 51.069904459211 0.5128252411464788 C51.05240404568005 0.7854083079706367, 51.034903632149096 1.0579913747947947, 51.00419080718717 1.5363684145229002 C50.9707693078583 1.795578963496103, 50.93734780852943 2.0547895124693056, 50.873033534631205 2.5535983205340624 C50.82587104759769 2.795767723656015, 50.77870856056417 3.037937126777967, 50.676971594909176 3.5603349433010285 C50.59844219694444 3.8598015725969352, 50.5199127989797 4.159268201892842, 50.41681064858657 4.552441386096513 C50.3333206161563 4.8039000614463125, 50.24983058372603 5.055358736796112, 50.093619752796165 5.525840870740919 C49.99602229994737 5.766908466195827, 49.89842484709858 6.007976061650734, 49.708726968253 6.4765334899583005 C49.5774688158501 6.749093851897487, 49.44621066344719 7.021654213836674, 49.263713901968 7.400612643853361 C49.0626179304334 7.757678904488282, 48.86152195889879 8.114745165123203, 48.76040920808554 8.294281092968399 C48.56196376167131 8.599146588724341, 48.36351831525707 8.904012084480284, 48.2008810735513 9.15386656195471 C47.98912459205175 9.43760095575178, 47.777368110552196 9.72133534954885, 47.58742871948848 9.975836829739734 C47.4534347195254 10.13323380657096, 47.319440719562316 10.290630783402186, 46.922572953205055 10.756814244181063 C46.77334962209819 10.910899585012237, 46.62412629099131 11.064984925843408, 46.209045809655784 11.493589601563638 C45.98868984030334 11.693711062630072, 45.76833387095089 11.893832523696506, 45.44977932492463 12.183135333906142 C45.16800176692044 12.40784543799875, 44.88622420891625 12.63255554209136, 44.64789348785946 12.822617949887304 C44.36854563515598 13.017478919159608, 44.08919778245251 13.212339888431911, 43.80668341936879 13.409409678269446 C43.49973914812398 13.595481099302804, 43.19279487687918 13.781552520336163, 42.929605832063004 13.94109926597423 C42.718047152621295 14.05146929352917, 42.50648847317958 14.161839321084107, 42.02026482588093 14.415501886438705 C41.730551865542274 14.543749219951005, 41.44083890520362 14.671996553463307, 41.082397078069995 14.830668117536346 C40.77779111643371 14.942765927165139, 40.473185154797434 15.054863736793934, 40.11985648837794 15.184891952170695 C39.849982037122714 15.264989272703346, 39.58010758586748 15.345086593235996, 39.13659834255213 15.476717808624468 C38.83454531363711 15.545659441394102, 38.53249228472208 15.614601074163737, 38.13666305922196 15.704946511857045 C37.870712656403015 15.747943310508635, 37.60476225358407 15.790940109160225, 37.1241595869521 15.868640221171937 C36.82161800684934 15.897826043544965, 36.51907642674659 15.927011865917994, 36.103248519691405 15.967126284005381 C35.80769356584678 15.97660415611236, 35.51213861200216 15.986082028219338, 35.078125 16 C35.078125 16, 35.078125 16, 35.078125 16 C13.497668776771317 16, -8.082787446457367 16, -35.078125 16 C-35.455505272383874 15.987898149190789, -35.83288554476775 15.975796298381576, -36.1032485196914 15.967126284005381 C-36.48806192852266 15.930003797261264, -36.872875337353925 15.892881310517147, -37.124159586952096 15.868640221171937 C-37.428162353591134 15.819491411438403, -37.73216512023017 15.77034260170487, -38.13666305922196 15.704946511857045 C-38.448460600527035 15.633780757723267, -38.76025814183212 15.56261500358949, -39.13659834255211 15.476717808624471 C-39.34597919747048 15.414574669947237, -39.555360052388835 15.352431531270001, -40.11985648837792 15.184891952170702 C-40.33359298678379 15.106234944998807, -40.54732948518967 15.027577937826912, -41.08239707806999 14.830668117536348 C-41.33628684964349 14.718278647033241, -41.590176621217 14.605889176530136, -42.02026482588093 14.415501886438708 C-42.34190146481619 14.247704257924283, -42.66353810375145 14.079906629409857, -42.929605832063 13.941099265974234 C-43.271021726286335 13.734130944513545, -43.61243762050968 13.527162623052858, -43.80668341936877 13.409409678269457 C-44.0079276553344 13.269030410982399, -44.20917189130003 13.128651143695341, -44.647893487859456 12.822617949887308 C-44.90557366135273 12.617124868683817, -45.16325383484602 12.411631787480324, -45.44977932492461 12.183135333906154 C-45.749021127491126 11.911371846319478, -46.04826293005764 11.6396083587328, -46.20904580965578 11.493589601563649 C-46.48801761477746 11.205528308764348, -46.766989419899154 10.917467015965048, -46.92257295320505 10.756814244181069 C-47.066104500758584 10.58821392124826, -47.20963604831213 10.419613598315452, -47.58742871948847 9.97583682973974 C-47.80720980894335 9.681350192339359, -48.02699089839822 9.38686355493898, -48.20088107355129 9.15386656195472 C-48.38490276474774 8.871159827533887, -48.56892445594419 8.588453093113053, -48.760409208085534 8.29428109296841 C-48.88673052704568 8.069984799734074, -49.01305184600582 7.84568850649974, -49.263713901968 7.400612643853366 C-49.43020826806243 7.054883530249544, -49.59670263415685 6.709154416645723, -49.708726968252996 6.476533489958307 C-49.82277273755062 6.194838234868224, -49.93681850684825 5.913142979778141, -50.093619752796165 5.525840870740931 C-50.20059452652496 5.203649896385349, -50.30756930025376 4.881458922029767, -50.41681064858657 4.552441386096519 C-50.506694029969196 4.209677097180646, -50.596577411351824 3.8669128082647735, -50.676971594909176 3.5603349433010343 C-50.720035574442 3.3392105099752896, -50.763099553974826 3.118086076649545, -50.873033534631205 2.5535983205340753 C-50.924895292711966 2.151368766122168, -50.97675705079273 1.7491392117102609, -51.00419080718717 1.5363684145229202 C-51.01974256704011 1.2941372016587886, -51.035294326893045 1.0519059887946571, -51.069904459211 0.5128252411464846 C-51.069904459211 0.13364070157081837, -51.069904459211 -0.24554383800484791, -51.069904459211 -0.5128252411464769 C-51.04727260001384 -0.865334716250225, -51.02464074081668 -1.217844191353973, -51.00419080718717 -1.5363684145228982 C-50.96941610959586 -1.8060741020003568, -50.93464141200455 -2.0757797894778154, -50.873033534631205 -2.5535983205340678 C-50.80409520201324 -2.9075820884055568, -50.735156869395276 -3.2615658562770458, -50.676971594909176 -3.5603349433010267 C-50.60398256463598 -3.838673749378553, -50.530993534362786 -4.117012555456079, -50.416810648586576 -4.552441386096511 C-50.32544894335082 -4.827608285755694, -50.23408723811506 -5.102775185414877, -50.09361975279617 -5.525840870740911 C-49.982937258869995 -5.799228770639013, -49.87225476494382 -6.0726166705371165, -49.708726968253 -6.476533489958299 C-49.53291570174283 -6.841609346625156, -49.35710443523266 -7.206685203292015, -49.263713901968 -7.400612643853359 C-49.11617287409329 -7.662586678994039, -48.96863184621858 -7.924560714134718, -48.760409208085534 -8.294281092968404 C-48.60474098026002 -8.53342929368051, -48.4490727524345 -8.772577494392614, -48.200881073551294 -9.153866561954715 C-48.06747491706417 -9.332618658096584, -47.93406876057705 -9.511370754238452, -47.58742871948848 -9.975836829739734 C-47.413569500083725 -10.180061761722392, -47.23971028067898 -10.38428669370505, -46.922572953205055 -10.756814244181063 C-46.68010109007742 -11.007186350170533, -46.43762922694979 -11.257558456160004, -46.20904580965579 -11.493589601563633 C-46.03827003126159 -11.648683645021759, -45.86749425286738 -11.803777688479885, -45.44977932492463 -12.18313533390614 C-45.1908521413453 -12.38962287246892, -44.93192495776598 -12.5961104110317, -44.64789348785946 -12.822617949887302 C-44.316347527971004 -13.053890059112208, -43.984801568082545 -13.285162168337113, -43.80668341936879 -13.409409678269444 C-43.53004803672144 -13.577107672920226, -43.25341265407408 -13.744805667571008, -42.929605832063004 -13.941099265974229 C-42.5831756577651 -14.12183166600633, -42.2367454834672 -14.302564066038428, -42.020264825880936 -14.415501886438705 C-41.77504230182769 -14.524054623569354, -41.52981977777445 -14.632607360700005, -41.082397078069995 -14.830668117536344 C-40.88217199646727 -14.904352798426514, -40.68194691486454 -14.978037479316681, -40.11985648837794 -15.184891952170695 C-39.74121762119829 -15.297269980433644, -39.36257875401864 -15.409648008696593, -39.13659834255213 -15.476717808624466 C-38.835108618746844 -15.545530870678713, -38.53361889494155 -15.614343932732961, -38.136663059221966 -15.704946511857043 C-37.8864550298919 -15.745398205646882, -37.63624700056182 -15.785849899436721, -37.1241595869521 -15.868640221171937 C-36.76139092332374 -15.903636077859016, -36.39862225969538 -15.938631934546093, -36.103248519691405 -15.967126284005381 C-35.884126401889716 -15.974153103827954, -35.66500428408802 -15.981179923650526, -35.07812500000001 -16 C-35.07812500000001 -16, -35.078125 -16, -35.078125 -16" stroke="none" stroke-width="0" fill="#eee" style=""/><path d="M-35.078125 -16 C-19.032687183259917 -16, -2.9872493665198334 -16, 35.078125 -16 M-35.078125 -16 C-9.347232159868678 -16, 16.383660680262643 -16, 35.078125 -16 M35.078125 -16 C35.078125 -16, 35.078125 -16, 35.078125 -16 M35.078125 -16 C35.078125 -16, 35.078125 -16, 35.078125 -16 M35.078125 -16 C35.378438155113926 -15.990369541639591, 35.678751310227845 -15.980739083279184, 36.103248519691405 -15.967126284005381 M35.078125 -16 C35.38613151723336 -15.990122830490643, 35.69413803446671 -15.980245660981286, 36.103248519691405 -15.967126284005381 M36.103248519691405 -15.967126284005381 C36.51108555800327 -15.927782735415237, 36.91892259631515 -15.88843918682509, 37.124159586952096 -15.868640221171939 M36.103248519691405 -15.967126284005381 C36.33935135063775 -15.944349727859187, 36.57545418158409 -15.921573171712991, 37.124159586952096 -15.868640221171939 M37.124159586952096 -15.868640221171939 C37.379982841532225 -15.827280701310393, 37.63580609611235 -15.785921181448847, 38.13666305922195 -15.704946511857047 M37.124159586952096 -15.868640221171939 C37.40627093864512 -15.823030645636418, 37.68838229033815 -15.777421070100898, 38.13666305922195 -15.704946511857047 M38.13666305922195 -15.704946511857047 C38.42127439520884 -15.639985831680578, 38.70588573119572 -15.575025151504109, 39.13659834255211 -15.476717808624471 M38.13666305922195 -15.704946511857047 C38.38408965794186 -15.648473005308679, 38.63151625666176 -15.591999498760309, 39.13659834255211 -15.476717808624471 M39.13659834255211 -15.476717808624471 C39.45498764549732 -15.38222153476989, 39.773376948442525 -15.287725260915309, 40.119856488377934 -15.184891952170698 M39.13659834255211 -15.476717808624471 C39.33716907611883 -15.417189467719133, 39.53773980968556 -15.357661126813793, 40.119856488377934 -15.184891952170698 M40.119856488377934 -15.184891952170698 C40.488557813905814 -15.049206456138748, 40.85725913943369 -14.913520960106798, 41.08239707806999 -14.830668117536348 M40.119856488377934 -15.184891952170698 C40.49953513337406 -15.045166701101202, 40.87921377837019 -14.905441450031706, 41.08239707806999 -14.830668117536348 M41.08239707806999 -14.830668117536348 C41.38060856815896 -14.698658737003507, 41.67882005824794 -14.566649356470668, 42.02026482588093 -14.415501886438706 M41.08239707806999 -14.830668117536348 C41.28058601576191 -14.742935753886087, 41.47877495345383 -14.655203390235826, 42.02026482588093 -14.415501886438706 M42.02026482588093 -14.415501886438706 C42.355902651092634 -14.240399848012046, 42.69154047630435 -14.065297809585386, 42.929605832063004 -13.941099265974232 M42.02026482588093 -14.415501886438706 C42.26701376573431 -14.286773122567437, 42.51376270558769 -14.15804435869617, 42.929605832063004 -13.941099265974232 M42.929605832063004 -13.941099265974232 C43.23463349376393 -13.756189704909623, 43.53966115546485 -13.571280143845016, 43.80668341936878 -13.409409678269451 M42.929605832063004 -13.941099265974232 C43.14531798395605 -13.810333291831355, 43.36103013584909 -13.679567317688479, 43.80668341936878 -13.409409678269451 M43.80668341936878 -13.409409678269451 C44.085925240502114 -13.214622672030448, 44.36516706163545 -13.019835665791444, 44.647893487859456 -12.822617949887306 M43.80668341936878 -13.409409678269451 C44.07418714006761 -13.222810662759379, 44.34169086076644 -13.036211647249306, 44.647893487859456 -12.822617949887306 M44.647893487859456 -12.822617949887306 C44.89023001893805 -12.629361015198052, 45.13256655001665 -12.4361040805088, 45.44977932492461 -12.183135333906153 M44.647893487859456 -12.822617949887306 C44.83121086181539 -12.676427222437644, 45.01452823577132 -12.530236494987982, 45.44977932492461 -12.183135333906153 M45.44977932492461 -12.183135333906153 C45.64494754459888 -12.005888720666107, 45.84011576427314 -11.828642107426061, 46.209045809655784 -11.493589601563642 M45.44977932492461 -12.183135333906153 C45.6439116301904 -12.00682951072309, 45.83804393545619 -11.830523687540028, 46.209045809655784 -11.493589601563642 M46.209045809655784 -11.493589601563642 C46.4028911889019 -11.293428332490418, 46.596736568148 -11.093267063417194, 46.92257295320505 -10.756814244181072 M46.209045809655784 -11.493589601563642 C46.38676082200832 -11.310084260635788, 46.56447583436085 -11.126578919707935, 46.92257295320505 -10.756814244181072 M46.92257295320505 -10.756814244181072 C47.10010450584659 -10.548275580616803, 47.27763605848813 -10.339736917052534, 47.58742871948848 -9.975836829739738 M46.92257295320505 -10.756814244181072 C47.156774316451425 -10.481707996476786, 47.3909756796978 -10.2066017487725, 47.58742871948848 -9.975836829739738 M47.58742871948848 -9.975836829739738 C47.7427901018174 -9.767666731132081, 47.89815148414632 -9.559496632524425, 48.20088107355129 -9.153866561954718 M47.58742871948848 -9.975836829739738 C47.77115819417383 -9.729656071760848, 47.95488766885917 -9.483475313781959, 48.20088107355129 -9.153866561954718 M48.20088107355129 -9.153866561954718 C48.38342932199126 -8.873423431282625, 48.56597757043122 -8.592980300610531, 48.760409208085534 -8.294281092968403 M48.20088107355129 -9.153866561954718 C48.32252856877899 -8.966983342358688, 48.444176064006705 -8.78010012276266, 48.760409208085534 -8.294281092968403 M48.760409208085534 -8.294281092968403 C48.92520814632884 -8.001663890415363, 49.09000708457215 -7.709046687862324, 49.263713901968 -7.400612643853364 M48.760409208085534 -8.294281092968403 C48.883497825524934 -8.07572478863068, 49.00658644296433 -7.8571684842929574, 49.263713901968 -7.400612643853364 M49.263713901968 -7.400612643853364 C49.361468507142774 -7.197623114594468, 49.459223112317545 -6.994633585335572, 49.708726968252996 -6.476533489958305 M49.263713901968 -7.400612643853364 C49.43263851928377 -7.049837061589375, 49.60156313659954 -6.699061479325385, 49.708726968252996 -6.476533489958305 M49.708726968252996 -6.476533489958305 C49.80184877987761 -6.2465208148577585, 49.89497059150223 -6.016508139757212, 50.093619752796165 -5.52584087074093 M49.708726968252996 -6.476533489958305 C49.82441587946273 -6.190779642577328, 49.940104790672464 -5.9050257951963525, 50.093619752796165 -5.52584087074093 M50.093619752796165 -5.52584087074093 C50.169537545788145 -5.297188574106743, 50.24545533878013 -5.068536277472556, 50.41681064858657 -4.552441386096524 M50.093619752796165 -5.52584087074093 C50.178669552645125 -5.269684424441224, 50.263719352494086 -5.013527978141518, 50.41681064858657 -4.552441386096524 M50.41681064858657 -4.552441386096524 C50.473818912070776 -4.335044169893566, 50.530827175554975 -4.117646953690608, 50.676971594909176 -3.560334943301032 M50.41681064858657 -4.552441386096524 C50.49091713737899 -4.269841226375588, 50.565023626171424 -3.9872410666546534, 50.676971594909176 -3.560334943301032 M50.676971594909176 -3.560334943301032 C50.73649180015825 -3.254711268946888, 50.79601200540732 -2.949087594592743, 50.873033534631205 -2.5535983205340735 M50.676971594909176 -3.560334943301032 C50.73002464924367 -3.287918722060439, 50.78307770357816 -3.0155025008198457, 50.873033534631205 -2.5535983205340735 M50.873033534631205 -2.5535983205340735 C50.91715031249536 -2.211437303262854, 50.96126709035951 -1.8692762859916345, 51.00419080718717 -1.536368414522911 M50.873033534631205 -2.5535983205340735 C50.91215100611693 -2.250210936309248, 50.95126847760265 -1.946823552084422, 51.00419080718717 -1.536368414522911 M51.00419080718717 -1.536368414522911 C51.026722951675154 -1.1854120765028697, 51.04925509616314 -0.8344557384828286, 51.069904459211 -0.5128252411464826 M51.00419080718717 -1.536368414522911 C51.02261826301205 -1.2493459156757962, 51.041045718836926 -0.9623234168286813, 51.069904459211 -0.5128252411464826 M51.069904459211 -0.5128252411464826 C51.069904459211 -0.2811369605508803, 51.069904459211 -0.04944867995527791, 51.069904459211 0.5128252411464788 M51.069904459211 -0.5128252411464826 C51.069904459211 -0.3021039819982932, 51.069904459211 -0.09138272285010374, 51.069904459211 0.5128252411464788 M51.069904459211 0.5128252411464788 C51.053367381403305 0.7704035764902848, 51.036830303595615 1.027981911834091, 51.00419080718717 1.5363684145229002 M51.069904459211 0.5128252411464788 C51.05435560926475 0.7550111298651044, 51.038806759318504 0.99719701858373, 51.00419080718717 1.5363684145229002 M51.00419080718717 1.5363684145229002 C50.956477256857966 1.9064252887699995, 50.90876370652876 2.2764821630170986, 50.873033534631205 2.5535983205340624 M51.00419080718717 1.5363684145229002 C50.95624751238171 1.9082071415596609, 50.90830421757625 2.2800458685964218, 50.873033534631205 2.5535983205340624 M50.873033534631205 2.5535983205340624 C50.82185584157851 2.8163849579503983, 50.77067814852581 3.0791715953667342, 50.676971594909176 3.5603349433010285 M50.873033534631205 2.5535983205340624 C50.796441266294615 2.9468834306607885, 50.71984899795803 3.3401685407875146, 50.676971594909176 3.5603349433010285 M50.676971594909176 3.5603349433010285 C50.59481103784615 3.873648755993029, 50.51265048078312 4.186962568685029, 50.41681064858657 4.552441386096513 M50.676971594909176 3.5603349433010285 C50.60394142854184 3.8388306191340207, 50.53091126217449 4.117326294967013, 50.41681064858657 4.552441386096513 M50.41681064858657 4.552441386096513 C50.35068743165229 4.751593980198678, 50.284564214718 4.950746574300843, 50.093619752796165 5.525840870740919 M50.41681064858657 4.552441386096513 C50.29160146008655 4.9295515124835765, 50.166392271586524 5.30666163887064, 50.093619752796165 5.525840870740919 M50.093619752796165 5.525840870740919 C50.01091413198979 5.730125353137059, 49.92820851118342 5.9344098355332, 49.708726968253 6.4765334899583005 M50.093619752796165 5.525840870740919 C49.970728435156055 5.829384801253989, 49.847837117515944 6.132928731767058, 49.708726968253 6.4765334899583005 M49.708726968253 6.4765334899583005 C49.53408820205178 6.839174624646132, 49.35944943585056 7.201815759333964, 49.263713901968 7.400612643853361 M49.708726968253 6.4765334899583005 C49.53116217457672 6.845250583305047, 49.35359738090044 7.213967676651794, 49.263713901968 7.400612643853361 M49.263713901968 7.400612643853361 C49.08000320056827 7.726809596914318, 48.89629249916853 8.053006549975276, 48.76040920808554 8.294281092968399 M49.263713901968 7.400612643853361 C49.06344489203166 7.756210550431622, 48.86317588209531 8.111808457009884, 48.76040920808554 8.294281092968399 M48.76040920808554 8.294281092968399 C48.61659212593981 8.515222751438149, 48.47277504379408 8.736164409907897, 48.2008810735513 9.15386656195471 M48.76040920808554 8.294281092968399 C48.564469091502446 8.59529772932845, 48.36852897491935 8.896314365688504, 48.2008810735513 9.15386656195471 M48.2008810735513 9.15386656195471 C47.999096097042184 9.424240047487391, 47.79731112053307 9.694613533020073, 47.58742871948848 9.975836829739734 M48.2008810735513 9.15386656195471 C48.046262084431106 9.361041921296078, 47.89164309531092 9.568217280637446, 47.58742871948848 9.975836829739734 M47.58742871948848 9.975836829739734 C47.35160276178382 10.252851418536755, 47.115776804079175 10.529866007333775, 46.922572953205055 10.756814244181063 M47.58742871948848 9.975836829739734 C47.32714602819705 10.281579689435345, 47.06686333690562 10.587322549130954, 46.922572953205055 10.756814244181063 M46.922572953205055 10.756814244181063 C46.704967790872935 10.981509440005057, 46.48736262854082 11.206204635829051, 46.209045809655784 11.493589601563638 M46.922572953205055 10.756814244181063 C46.75016647271661 10.934838090120676, 46.57775999222816 11.112861936060291, 46.209045809655784 11.493589601563638 M46.209045809655784 11.493589601563638 C45.962076357230316 11.717880723802818, 45.71510690480485 11.942171846041996, 45.44977932492463 12.183135333906142 M46.209045809655784 11.493589601563638 C45.927555138168714 11.74923198157316, 45.646064466681636 12.004874361582683, 45.44977932492463 12.183135333906142 M45.44977932492463 12.183135333906142 C45.271661372069495 12.325179661390319, 45.09354341921437 12.467223988874494, 44.64789348785946 12.822617949887304 M45.44977932492463 12.183135333906142 C45.24374555062811 12.347441786118614, 45.037711776331605 12.511748238331087, 44.64789348785946 12.822617949887304 M44.64789348785946 12.822617949887304 C44.32028327106503 13.051144655105388, 43.992673054270604 13.279671360323471, 43.80668341936879 13.409409678269446 M44.64789348785946 12.822617949887304 C44.47663373928277 12.94208133677938, 44.30537399070607 13.061544723671455, 43.80668341936879 13.409409678269446 M43.80668341936879 13.409409678269446 C43.46885469733726 13.614203434866896, 43.131025975305725 13.818997191464348, 42.929605832063004 13.94109926597423 M43.80668341936879 13.409409678269446 C43.55468075447698 13.562175174658899, 43.30267808958517 13.714940671048351, 42.929605832063004 13.94109926597423 M42.929605832063004 13.94109926597423 C42.7162131404888 14.05242609648395, 42.5028204489146 14.16375292699367, 42.02026482588093 14.415501886438705 M42.929605832063004 13.94109926597423 C42.71562201470825 14.05273448642503, 42.5016381973535 14.164369706875826, 42.02026482588093 14.415501886438705 M42.02026482588093 14.415501886438705 C41.653618196167095 14.57780547322718, 41.28697156645327 14.740109060015657, 41.082397078069995 14.830668117536346 M42.02026482588093 14.415501886438705 C41.6573858776401 14.57613763240338, 41.294506929399276 14.736773378368056, 41.082397078069995 14.830668117536346 M41.082397078069995 14.830668117536346 C40.76381524096064 14.947909178530807, 40.44523340385129 15.065150239525268, 40.11985648837794 15.184891952170695 M41.082397078069995 14.830668117536346 C40.872289951100015 14.90798948247029, 40.662182824130035 14.985310847404234, 40.11985648837794 15.184891952170695 M40.11985648837794 15.184891952170695 C39.80531522888278 15.278246146928096, 39.49077396938762 15.371600341685497, 39.13659834255213 15.476717808624468 M40.11985648837794 15.184891952170695 C39.89659024685682 15.251156200705747, 39.673324005335694 15.3174204492408, 39.13659834255213 15.476717808624468 M39.13659834255213 15.476717808624468 C38.875660448955585 15.53627518005899, 38.614722555359045 15.595832551493514, 38.13666305922196 15.704946511857045 M39.13659834255213 15.476717808624468 C38.9139948956868 15.527525592748235, 38.69139144882146 15.578333376872003, 38.13666305922196 15.704946511857045 M38.13666305922196 15.704946511857045 C37.75547664914143 15.766573774494105, 37.37429023906089 15.828201037131166, 37.1241595869521 15.868640221171937 M38.13666305922196 15.704946511857045 C37.73773158313047 15.769442659151716, 37.33880010703898 15.833938806446385, 37.1241595869521 15.868640221171937 M37.1241595869521 15.868640221171937 C36.91868844428381 15.888461775189944, 36.713217301615515 15.90828332920795, 36.103248519691405 15.967126284005381 M37.1241595869521 15.868640221171937 C36.83195018852439 15.89682931040504, 36.53974079009667 15.925018399638144, 36.103248519691405 15.967126284005381 M36.103248519691405 15.967126284005381 C35.85591257125378 15.975057866461558, 35.60857662281616 15.982989448917735, 35.078125 16 M36.103248519691405 15.967126284005381 C35.75947116783735 15.978150554557319, 35.41569381598329 15.989174825109256, 35.078125 16 M35.078125 16 C35.078125 16, 35.078125 16, 35.078125 16 M35.078125 16 C35.078125 16, 35.078125 16, 35.078125 16 M35.078125 16 C12.485246379048672 16, -10.107632241902657 16, -35.078125 16 M35.078125 16 C18.999650390634923 16, 2.921175781269845 16, -35.078125 16 M-35.078125 16 C-35.284715157923884 15.99337505573873, -35.49130531584777 15.986750111477459, -36.1032485196914 15.967126284005381 M-35.078125 16 C-35.29549685296391 15.993029307764091, -35.51286870592781 15.986058615528185, -36.1032485196914 15.967126284005381 M-36.1032485196914 15.967126284005381 C-36.309687230227475 15.94721138987884, -36.51612594076355 15.927296495752298, -37.124159586952096 15.868640221171937 M-36.1032485196914 15.967126284005381 C-36.401779431665055 15.938327365963232, -36.70031034363871 15.909528447921085, -37.124159586952096 15.868640221171937 M-37.124159586952096 15.868640221171937 C-37.46474606569008 15.81357684057717, -37.80533254442807 15.758513459982403, -38.13666305922196 15.704946511857045 M-37.124159586952096 15.868640221171937 C-37.51810322252481 15.804950469251063, -37.91204685809752 15.741260717330189, -38.13666305922196 15.704946511857045 M-38.13666305922196 15.704946511857045 C-38.509805248645655 15.619779242101433, -38.882947438069344 15.534611972345822, -39.13659834255211 15.476717808624471 M-38.13666305922196 15.704946511857045 C-38.44025004467568 15.635654763517456, -38.74383703012939 15.566363015177869, -39.13659834255211 15.476717808624471 M-39.13659834255211 15.476717808624471 C-39.427756020053884 15.390303738259783, -39.71891369755565 15.303889667895096, -40.11985648837792 15.184891952170702 M-39.13659834255211 15.476717808624471 C-39.444650543126365 15.385289532493031, -39.75270274370062 15.293861256361591, -40.11985648837792 15.184891952170702 M-40.11985648837792 15.184891952170702 C-40.36049775436667 15.096333741823363, -40.60113902035542 15.007775531476026, -41.08239707806999 14.830668117536348 M-40.11985648837792 15.184891952170702 C-40.50376458232601 15.043610224790287, -40.8876726762741 14.902328497409872, -41.08239707806999 14.830668117536348 M-41.08239707806999 14.830668117536348 C-41.27497104151821 14.745421336421481, -41.46754500496643 14.660174555306615, -42.02026482588093 14.415501886438708 M-41.08239707806999 14.830668117536348 C-41.41948986100341 14.681447142033845, -41.75658264393684 14.53222616653134, -42.02026482588093 14.415501886438708 M-42.02026482588093 14.415501886438708 C-42.26322730088297 14.288748518855039, -42.506189775885 14.161995151271368, -42.929605832063 13.941099265974234 M-42.02026482588093 14.415501886438708 C-42.34997524130051 14.24349217390391, -42.679685656720096 14.071482461369113, -42.929605832063 13.941099265974234 M-42.929605832063 13.941099265974234 C-43.208034675124814 13.77231406508066, -43.486463518186625 13.603528864187089, -43.80668341936877 13.409409678269457 M-42.929605832063 13.941099265974234 C-43.11901275649506 13.82627967530488, -43.30841968092712 13.711460084635526, -43.80668341936877 13.409409678269457 M-43.80668341936877 13.409409678269457 C-44.03536902979623 13.249888496075782, -44.26405464022369 13.090367313882107, -44.647893487859456 12.822617949887308 M-43.80668341936877 13.409409678269457 C-44.12299313051964 13.188765716597313, -44.43930284167052 12.968121754925171, -44.647893487859456 12.822617949887308 M-44.647893487859456 12.822617949887308 C-44.938138073883835 12.591155616265675, -45.22838265990821 12.359693282644043, -45.44977932492461 12.183135333906154 M-44.647893487859456 12.822617949887308 C-44.82054074674749 12.684936355260612, -44.99318800563552 12.547254760633916, -45.44977932492461 12.183135333906154 M-45.44977932492461 12.183135333906154 C-45.60358529676376 12.04345281976485, -45.757391268602916 11.903770305623548, -46.20904580965578 11.493589601563649 M-45.44977932492461 12.183135333906154 C-45.678389341814295 11.975517765256532, -45.906999358703985 11.767900196606908, -46.20904580965578 11.493589601563649 M-46.20904580965578 11.493589601563649 C-46.412369273664595 11.283641431807697, -46.61569273767341 11.073693262051744, -46.92257295320505 10.756814244181069 M-46.20904580965578 11.493589601563649 C-46.4054212708958 11.290815815108113, -46.60179673213583 11.088042028652575, -46.92257295320505 10.756814244181069 M-46.92257295320505 10.756814244181069 C-47.17475086595663 10.460591718533319, -47.42692877870822 10.16436919288557, -47.58742871948847 9.97583682973974 M-46.92257295320505 10.756814244181069 C-47.11944728579205 10.525554450657504, -47.31632161837904 10.294294657133937, -47.58742871948847 9.97583682973974 M-47.58742871948847 9.97583682973974 C-47.75087484856554 9.756833907025154, -47.9143209776426 9.537830984310567, -48.20088107355129 9.15386656195472 M-47.58742871948847 9.97583682973974 C-47.77867946693862 9.719578251458065, -47.96993021438877 9.46331967317639, -48.20088107355129 9.15386656195472 M-48.20088107355129 9.15386656195472 C-48.39345677898348 8.858018564593351, -48.58603248441567 8.562170567231982, -48.760409208085534 8.29428109296841 M-48.20088107355129 9.15386656195472 C-48.33542635285432 8.94716888247903, -48.46997163215735 8.740471203003338, -48.760409208085534 8.29428109296841 M-48.760409208085534 8.29428109296841 C-48.89847601484526 8.049129496786309, -49.03654282160499 7.803977900604206, -49.263713901968 7.400612643853366 M-48.760409208085534 8.29428109296841 C-48.92330605454755 8.005041246980733, -49.086202901009564 7.715801400993056, -49.263713901968 7.400612643853366 M-49.263713901968 7.400612643853366 C-49.36472335494841 7.1908643534834855, -49.465732807928816 6.981116063113605, -49.708726968252996 6.476533489958307 M-49.263713901968 7.400612643853366 C-49.357308272950036 7.206261929910443, -49.45090264393207 7.01191121596752, -49.708726968252996 6.476533489958307 M-49.708726968252996 6.476533489958307 C-49.85810333765018 6.107570969551642, -50.00747970704736 5.738608449144976, -50.093619752796165 5.525840870740931 M-49.708726968252996 6.476533489958307 C-49.82374641880261 6.192433223350972, -49.93876586935222 5.908332956743637, -50.093619752796165 5.525840870740931 M-50.093619752796165 5.525840870740931 C-50.20208291673013 5.199167102230173, -50.31054608066408 4.872493333719415, -50.41681064858657 4.552441386096519 M-50.093619752796165 5.525840870740931 C-50.18454988774325 5.25197379202984, -50.27548002269033 4.978106713318749, -50.41681064858657 4.552441386096519 M-50.41681064858657 4.552441386096519 C-50.509068644375425 4.200621663285294, -50.60132664016429 3.8488019404740683, -50.676971594909176 3.5603349433010343 M-50.41681064858657 4.552441386096519 C-50.48694619971994 4.284984132684851, -50.5570817508533 4.017526879273183, -50.676971594909176 3.5603349433010343 M-50.676971594909176 3.5603349433010343 C-50.71857297059727 3.346720671596541, -50.76017434628537 3.1331063998920476, -50.873033534631205 2.5535983205340753 M-50.676971594909176 3.5603349433010343 C-50.71808478846716 3.3492273836573196, -50.75919798202515 3.138119824013605, -50.873033534631205 2.5535983205340753 M-50.873033534631205 2.5535983205340753 C-50.914541664086 2.2316694651899476, -50.95604979354079 1.9097406098458198, -51.00419080718717 1.5363684145229202 M-50.873033534631205 2.5535983205340753 C-50.910249797679434 2.2649563335144087, -50.947466060727656 1.9763143464947421, -51.00419080718717 1.5363684145229202 M-51.00419080718717 1.5363684145229202 C-51.02678804285536 1.1843982288305124, -51.04938527852355 0.8324280431381046, -51.069904459211 0.5128252411464846 M-51.00419080718717 1.5363684145229202 C-51.02219108904463 1.2559994950269107, -51.0401913709021 0.9756305755309013, -51.069904459211 0.5128252411464846 M-51.069904459211 0.5128252411464846 C-51.069904459211 0.17762184198039255, -51.069904459211 -0.15758155718569955, -51.069904459211 -0.5128252411464769 M-51.069904459211 0.5128252411464846 C-51.069904459211 0.1734003326605671, -51.069904459211 -0.16602457582535046, -51.069904459211 -0.5128252411464769 M-51.069904459211 -0.5128252411464769 C-51.05659945594502 -0.7200614066194724, -51.04329445267904 -0.9272975720924679, -51.00419080718717 -1.5363684145228982 M-51.069904459211 -0.5128252411464769 C-51.050894394802654 -0.8089223389543622, -51.0318843303943 -1.1050194367622475, -51.00419080718717 -1.5363684145228982 M-51.00419080718717 -1.5363684145228982 C-50.9597355546205 -1.8811545747474405, -50.91528030205383 -2.225940734971983, -50.873033534631205 -2.5535983205340678 M-51.00419080718717 -1.5363684145228982 C-50.968927828923626 -1.8098611104722844, -50.93366485066008 -2.0833538064216706, -50.873033534631205 -2.5535983205340678 M-50.873033534631205 -2.5535983205340678 C-50.82589099402462 -2.795665302969393, -50.77874845341803 -3.0377322854047186, -50.676971594909176 -3.5603349433010267 M-50.873033534631205 -2.5535983205340678 C-50.80145615734853 -2.9211330249965357, -50.72987878006586 -3.2886677294590037, -50.676971594909176 -3.5603349433010267 M-50.676971594909176 -3.5603349433010267 C-50.57435063769183 -3.9516731293749934, -50.471729680474475 -4.34301131544896, -50.416810648586576 -4.552441386096511 M-50.676971594909176 -3.5603349433010267 C-50.61444394766642 -3.7987799618913947, -50.55191630042367 -4.037224980481763, -50.416810648586576 -4.552441386096511 M-50.416810648586576 -4.552441386096511 C-50.293186313473356 -4.92477818659461, -50.169561978360136 -5.2971149870927094, -50.09361975279617 -5.525840870740911 M-50.416810648586576 -4.552441386096511 C-50.32653387611418 -4.82434064113301, -50.23625710364178 -5.096239896169509, -50.09361975279617 -5.525840870740911 M-50.09361975279617 -5.525840870740911 C-49.97915323287959 -5.808575387994474, -49.864686712963014 -6.091309905248037, -49.708726968253 -6.476533489958299 M-50.09361975279617 -5.525840870740911 C-49.963863657274395 -5.846340935343141, -49.834107561752624 -6.166840999945372, -49.708726968253 -6.476533489958299 M-49.708726968253 -6.476533489958299 C-49.587572885711296 -6.728112534638239, -49.466418803169596 -6.979691579318179, -49.263713901968 -7.400612643853359 M-49.708726968253 -6.476533489958299 C-49.55652382908931 -6.792586565057187, -49.40432068992561 -7.108639640156076, -49.263713901968 -7.400612643853359 M-49.263713901968 -7.400612643853359 C-49.08205387804806 -7.72316841139534, -48.900393854128104 -8.045724178937322, -48.760409208085534 -8.294281092968404 M-49.263713901968 -7.400612643853359 C-49.12283335252202 -7.650760325097246, -48.98195280307604 -7.900908006341133, -48.760409208085534 -8.294281092968404 M-48.760409208085534 -8.294281092968404 C-48.61793027574439 -8.513166993994766, -48.47545134340326 -8.732052895021127, -48.200881073551294 -9.153866561954715 M-48.760409208085534 -8.294281092968404 C-48.538521504143496 -8.635160191414595, -48.31663380020146 -8.976039289860786, -48.200881073551294 -9.153866561954715 M-48.200881073551294 -9.153866561954715 C-48.06991122194649 -9.329354231506208, -47.938941370341695 -9.504841901057704, -47.58742871948848 -9.975836829739734 M-48.200881073551294 -9.153866561954715 C-48.06590278633752 -9.334725170046244, -47.93092449912373 -9.515583778137774, -47.58742871948848 -9.975836829739734 M-47.58742871948848 -9.975836829739734 C-47.33977836945054 -10.266741022598417, -47.0921280194126 -10.557645215457098, -46.922572953205055 -10.756814244181063 M-47.58742871948848 -9.975836829739734 C-47.3224421593341 -10.287105121459488, -47.05745559917972 -10.598373413179242, -46.922572953205055 -10.756814244181063 M-46.922572953205055 -10.756814244181063 C-46.77272212400636 -10.911547528310601, -46.62287129480766 -11.066280812440139, -46.20904580965579 -11.493589601563633 M-46.922572953205055 -10.756814244181063 C-46.72633577200534 -10.959445245141973, -46.53009859080563 -11.162076246102883, -46.20904580965579 -11.493589601563633 M-46.20904580965579 -11.493589601563633 C-46.03601624204185 -11.650730476759126, -45.862986674427916 -11.807871351954617, -45.44977932492463 -12.18313533390614 M-46.20904580965579 -11.493589601563633 C-45.90991560183122 -11.765251741758311, -45.610785394006655 -12.03691388195299, -45.44977932492463 -12.18313533390614 M-45.44977932492463 -12.18313533390614 C-45.25180252100749 -12.341016566646045, -45.053825717090355 -12.498897799385952, -44.64789348785946 -12.822617949887302 M-45.44977932492463 -12.18313533390614 C-45.199452737424004 -12.382764125967629, -44.94912614992338 -12.58239291802912, -44.64789348785946 -12.822617949887302 M-44.64789348785946 -12.822617949887302 C-44.4051766758708 -12.991926690889144, -44.16245986388214 -13.161235431890988, -43.80668341936879 -13.409409678269444 M-44.64789348785946 -12.822617949887302 C-44.38929502787354 -13.003005041026576, -44.13069656788761 -13.18339213216585, -43.80668341936879 -13.409409678269444 M-43.80668341936879 -13.409409678269444 C-43.50248076878949 -13.593819112743821, -43.19827811821018 -13.7782285472182, -42.929605832063004 -13.941099265974229 M-43.80668341936879 -13.409409678269444 C-43.53343488513719 -13.575054545507268, -43.260186350905585 -13.74069941274509, -42.929605832063004 -13.941099265974229 M-42.929605832063004 -13.941099265974229 C-42.620884446739865 -14.102159014951829, -42.31216306141672 -14.263218763929427, -42.020264825880936 -14.415501886438705 M-42.929605832063004 -13.941099265974229 C-42.5950261714367 -14.11564926061447, -42.260446510810404 -14.290199255254713, -42.020264825880936 -14.415501886438705 M-42.020264825880936 -14.415501886438705 C-41.72356415351143 -14.546842472783949, -41.42686348114193 -14.678183059129193, -41.082397078069995 -14.830668117536344 M-42.020264825880936 -14.415501886438705 C-41.64684387156509 -14.58080426577529, -41.27342291724924 -14.746106645111878, -41.082397078069995 -14.830668117536344 M-41.082397078069995 -14.830668117536344 C-40.700648033223594 -14.971155294889307, -40.31889898837719 -15.11164247224227, -40.11985648837794 -15.184891952170695 M-41.082397078069995 -14.830668117536344 C-40.774704265850545 -14.943901916714278, -40.4670114536311 -15.057135715892212, -40.11985648837794 -15.184891952170695 M-40.11985648837794 -15.184891952170695 C-39.824768999903945 -15.272472369803943, -39.52968151142995 -15.360052787437189, -39.13659834255213 -15.476717808624466 M-40.11985648837794 -15.184891952170695 C-39.73148442118597 -15.300158743106692, -39.343112353993995 -15.415425534042688, -39.13659834255213 -15.476717808624466 M-39.13659834255213 -15.476717808624466 C-38.93525666838887 -15.522672731875021, -38.73391499422559 -15.568627655125574, -38.136663059221966 -15.704946511857043 M-39.13659834255213 -15.476717808624466 C-38.87369013676733 -15.536724890958471, -38.61078193098252 -15.596731973292476, -38.136663059221966 -15.704946511857043 M-38.136663059221966 -15.704946511857043 C-37.78280377273774 -15.76215573707606, -37.42894448625353 -15.819364962295078, -37.1241595869521 -15.868640221171937 M-38.136663059221966 -15.704946511857043 C-37.931740653746196 -15.738076777177376, -37.72681824827043 -15.771207042497709, -37.1241595869521 -15.868640221171937 M-37.1241595869521 -15.868640221171937 C-36.90926870369818 -15.889370486235345, -36.69437782044426 -15.910100751298751, -36.103248519691405 -15.967126284005381 M-37.1241595869521 -15.868640221171937 C-36.738941908573565 -15.905801707313074, -36.35372423019503 -15.942963193454212, -36.103248519691405 -15.967126284005381 M-36.103248519691405 -15.967126284005381 C-35.73392350018344 -15.97896981853346, -35.364598480675475 -15.990813353061542, -35.07812500000001 -16 M-36.103248519691405 -15.967126284005381 C-35.88675941429299 -15.974068668245028, -35.67027030889458 -15.981011052484675, -35.07812500000001 -16 M-35.07812500000001 -16 C-35.07812500000001 -16, -35.078125 -16, -35.078125 -16 M-35.07812500000001 -16 C-35.07812500000001 -16, -35.078125 -16, -35.078125 -16" stroke="#999" stroke-width="1.3" fill="none" stroke-dasharray="0 0" style=""/></g><g class="label" style="" transform="translate(0, -8.5)"><rect/><g><rect class="background" style="stroke: none"/><text y="-10.1" style=""><tspan class="text-outer-tspan row" x="0" y="-0.1em" dy="1.1em"><tspan font-style="normal" class="text-inner-tspan" font-weight="normal">Unos</tspan><tspan font-style="normal" class="text-inner-tspan" font-weight="normal"> ISBN</tspan></tspan></text></g></g></g><g class="node default" id="my-svg-flowchart-B-1" data-look="classic" transform="translate(193.2421875, 113.5)"><rect class="basic label-container" style="" x="-98.0234375" y="-23.5" width="196.046875" height="47"/><g class="label" style="" transform="translate(0, -8.5)"><rect/><g><rect class="background" style="stroke: none"/><text y="-10.1" style=""><tspan class="text-outer-tspan row" x="0" y="-0.1em" dy="1.1em"><tspan font-style="normal" class="text-inner-tspan" font-weight="normal">Normalizuj</tspan><tspan font-style="normal" class="text-inner-tspan" font-weight="normal"> i</tspan><tspan font-style="normal" class="text-inner-tspan" font-weight="normal"> potvrdi</tspan></tspan></text></g></g></g><g class="node default" id="my-svg-flowchart-C-3" data-look="classic" transform="translate(193.2421875, 270.9367218017578)"><polygon points="83.93671798706055,0 167.8734359741211,-83.93671798706055 83.93671798706055,-167.8734359741211 0,-83.93671798706055" class="label-container" transform="translate(-83.43671798706055, 83.93671798706055)"/><g class="label" style="" transform="translate(0, -17.299999237060547)"><rect/><g><rect class="background" style="stroke: none"/><text y="-10.1" style=""><tspan class="text-outer-tspan row" x="0" y="-0.1em" dy="1.1em"><tspan font-style="normal" class="text-inner-tspan" font-weight="normal">Kontrolna</tspan><tspan font-style="normal" class="text-inner-tspan" font-weight="normal"> cifra</tspan></tspan><tspan class="text-outer-tspan row" x="0" y="1em" dy="1.1em"><tspan font-style="normal" class="text-inner-tspan" font-weight="normal">ispravna?</tspan></tspan></text></g></g></g><g class="node default" id="my-svg-flowchart-D-5" data-look="classic" transform="translate(266.65625, 990.8343887329102)"><rect class="basic label-container" style="fill:#ffebee !important;stroke:#c62828 !important" x="-115.4296875" y="-23.5" width="230.859375" height="47"/><g class="label" style="" transform="translate(0, -8.5)"><rect/><g><rect class="background" style="stroke: none"/><text y="-10.1" style=""><tspan class="text-outer-tspan row" x="0" y="-0.1em" dy="1.1em"><tspan font-style="normal" class="text-inner-tspan" font-weight="normal">Pokaži</tspan><tspan font-style="normal" class="text-inner-tspan" font-weight="normal"> grešku</tspan><tspan font-style="normal" class="text-inner-tspan" font-weight="normal"> validacije</tspan></tspan></text></g></g></g><g class="node default" id="my-svg-flowchart-E-7" data-look="classic" transform="translate(307.701171875, 1188.2547035217285)"><rect class="basic label-container" style="fill:#fff3e0 !important;stroke:#e65100 !important" x="-87.3671875" y="-32.29999923706055" width="174.734375" height="64.5999984741211"/><g class="label" style="" transform="translate(0, -17.299999237060547)"><rect/><g><rect class="background" style="stroke: none"/><text y="-10.1" style=""><tspan class="text-outer-tspan row" x="0" y="-0.1em" dy="1.1em"><tspan font-style="normal" class="text-inner-tspan" font-weight="normal">Ručni</tspan><tspan font-style="normal" class="text-inner-tspan" font-weight="normal"> unos</tspan></tspan><tspan class="text-outer-tspan row" x="0" y="1em" dy="1.1em"><tspan font-style="normal" class="text-inner-tspan" font-weight="normal">(uvek</tspan><tspan font-style="normal" class="text-inner-tspan" font-weight="normal"> dostupan)</tspan></tspan></text></g></g></g><g class="node default" id="my-svg-flowchart-F-9" data-look="classic" transform="translate(119.828125, 449.3734436035156)"><rect class="basic label-container" style="" x="-98.9296875" y="-23.5" width="197.859375" height="47"/><g class="label" style="" transform="translate(0, -8.5)"><rect/><g><rect class="background" style="stroke: none"/><text y="-10.1" style=""><tspan class="text-outer-tspan row" x="0" y="-0.1em" dy="1.1em"><tspan font-style="normal" class="text-inner-tspan" font-weight="normal">Upitaj</tspan><tspan font-style="normal" class="text-inner-tspan" font-weight="normal"> Open</tspan><tspan font-style="normal" class="text-inner-tspan" font-weight="normal"> Library</tspan></tspan></text></g></g></g><g class="node default" id="my-svg-flowchart-G-11" data-look="classic" transform="translate(119.828125, 616.9937591552734)"><polygon points="94.12031173706055,0 188.2406234741211,-94.12031173706055 94.12031173706055,-188.2406234741211 0,-94.12031173706055" class="label-container" transform="translate(-93.62031173706055, 94.12031173706055)"/><g class="label" style="" transform="translate(0, -17.299999237060547)"><rect/><g><rect class="background" style="stroke: none"/><text y="-10.1" style=""><tspan class="text-outer-tspan row" x="0" y="-0.1em" dy="1.1em"><tspan font-style="normal" class="text-inner-tspan" font-weight="normal">Pronađeni</tspan><tspan font-style="normal" class="text-inner-tspan" font-weight="normal"> korisni</tspan></tspan><tspan class="text-outer-tspan row" x="0" y="1em" dy="1.1em"><tspan font-style="normal" class="text-inner-tspan" font-weight="normal">metapodaci?</tspan></tspan></text></g></g></g><g class="node default" id="my-svg-flowchart-H-13" data-look="classic" transform="translate(119.828125, 814.4140739440918)"><rect class="basic label-container" style="fill:#e8f5e9 !important;stroke:#2e7d32 !important" x="-111.828125" y="-32.29999923706055" width="223.65625" height="64.5999984741211"/><g class="label" style="" transform="translate(0, -17.299999237060547)"><rect/><g><rect class="background" style="stroke: none"/><text y="-10.1" style=""><tspan class="text-outer-tspan row" x="0" y="-0.1em" dy="1.1em"><tspan font-style="normal" class="text-inner-tspan" font-weight="normal">Vrati</tspan><tspan font-style="normal" class="text-inner-tspan" font-weight="normal"> metapodatke</tspan></tspan><tspan class="text-outer-tspan row" x="0" y="1em" dy="1.1em"><tspan font-style="normal" class="text-inner-tspan" font-weight="normal">Pružalac:</tspan><tspan font-style="normal" class="text-inner-tspan" font-weight="normal"> Open</tspan><tspan font-style="normal" class="text-inner-tspan" font-weight="normal"> Library</tspan></tspan></text></g></g></g><g class="node default" id="my-svg-flowchart-I-15" data-look="classic" transform="translate(564.0777359008789, 814.4140739440918)"><rect class="basic label-container" style="" x="-101.1640625" y="-32.29999923706055" width="202.328125" height="64.5999984741211"/><g class="label" style="" transform="translate(0, -17.299999237060547)"><rect/><g><rect class="background" style="stroke: none"/><text y="-10.1" style=""><tspan class="text-outer-tspan row" x="0" y="-0.1em" dy="1.1em"><tspan font-style="normal" class="text-inner-tspan" font-weight="normal">Upitaj</tspan><tspan font-style="normal" class="text-inner-tspan" font-weight="normal"> Let</tspan><tspan font-style="normal" class="text-inner-tspan" font-weight="normal"> Books</tspan></tspan><tspan class="text-outer-tspan row" x="0" y="1em" dy="1.1em"><tspan font-style="normal" class="text-inner-tspan" font-weight="normal">metapodatkovni</tspan><tspan font-style="normal" class="text-inner-tspan" font-weight="normal"> API</tspan></tspan></text></g></g></g><g class="node default" id="my-svg-flowchart-J-17" data-look="classic" transform="translate(564.0777359008789, 990.8343887329102)"><polygon points="94.12031173706055,0 188.2406234741211,-94.12031173706055 94.12031173706055,-188.2406234741211 0,-94.12031173706055" class="label-container" transform="translate(-93.62031173706055, 94.12031173706055)"/><g class="label" style="" transform="translate(0, -17.299999237060547)"><rect/><g><rect class="background" style="stroke: none"/><text y="-10.1" style=""><tspan class="text-outer-tspan row" x="0" y="-0.1em" dy="1.1em"><tspan font-style="normal" class="text-inner-tspan" font-weight="normal">Pronađeni</tspan><tspan font-style="normal" class="text-inner-tspan" font-weight="normal"> korisni</tspan></tspan><tspan class="text-outer-tspan row" x="0" y="1em" dy="1.1em"><tspan font-style="normal" class="text-inner-tspan" font-weight="normal">metapodaci?</tspan></tspan></text></g></g></g><g class="node default" id="my-svg-flowchart-K-19" data-look="classic" transform="translate(611.2613296508789, 1188.2547035217285)"><rect class="basic label-container" style="fill:#e8f5e9 !important;stroke:#2e7d32 !important" x="-115.8359375" y="-32.29999923706055" width="231.671875" height="64.5999984741211"/><g class="label" style="" transform="translate(0, -17.299999237060547)"><rect/><g><rect class="background" style="stroke: none"/><text y="-10.1" style=""><tspan class="text-outer-tspan row" x="0" y="-0.1em" dy="1.1em"><tspan font-style="normal" class="text-inner-tspan" font-weight="normal">Vrati</tspan><tspan font-style="normal" class="text-inner-tspan" font-weight="normal"> metapodatke</tspan></tspan><tspan class="text-outer-tspan row" x="0" y="1em" dy="1.1em"><tspan font-style="normal" class="text-inner-tspan" font-weight="normal">Pružalac:</tspan><tspan font-style="normal" class="text-inner-tspan" font-weight="normal"> Let</tspan><tspan font-style="normal" class="text-inner-tspan" font-weight="normal"> Books</tspan><tspan font-style="normal" class="text-inner-tspan" font-weight="normal"> API</tspan></tspan></text></g></g></g></g></g></g><defs><filter id="my-svg-drop-shadow" height="130%" width="130%"><feDropShadow dx="4" dy="4" stdDeviation="0" flood-opacity="0.06" flood-color="#000000"/></filter></defs><defs><filter id="my-svg-drop-shadow-small" height="150%" width="150%"><feDropShadow dx="2" dy="2" stdDeviation="0" flood-opacity="0.06" flood-color="#000000"/></filter></defs><linearGradient id="my-svg-gradient" gradientUnits="objectBoundingBox" x1="0%" y1="0%" x2="100%" y2="0%"><stop offset="0%" stop-color="hsl(0, 0%, 83.3333333333%)" stop-opacity="1"/><stop offset="100%" stop-color="hsl(0, 0%, 88.9215686275%)" stop-opacity="1"/></linearGradient><text text-anchor="middle" x="367.54864501953125" y="-25" class="flowchartTitleText">Lanac pretraživanja metapodataka ISBN</text></svg>