<svg id="my-svg" width="100%" xmlns="http://www.w3.org/2000/svg" xmlns:xlink="http://www.w3.org/1999/xlink" class="flowchart" style="max-width: 665.027px; background-color: transparent;" viewBox="0 -49 665.0269775390625 1230.6171875" role="graphics-document document" aria-roledescription="flowchart-v2"><style>#my-svg{font-family:"trebuchet ms",verdana,arial,sans-serif;font-size:16px;fill:#000000;}@keyframes edge-animation-frame{from{stroke-dashoffset:0;}}@keyframes dash{to{stroke-dashoffset:0;}}#my-svg .edge-animation-slow{stroke-dasharray:9,5!important;stroke-dashoffset:900;animation:dash 50s linear infinite;stroke-linecap:round;}#my-svg .edge-animation-fast{stroke-dasharray:9,5!important;stroke-dashoffset:900;animation:dash 20s linear infinite;stroke-linecap:round;}#my-svg .error-icon{fill:#552222;}#my-svg .error-text{fill:#552222;stroke:#552222;}#my-svg .edge-thickness-normal{stroke-width:1px;}#my-svg .edge-thickness-thick{stroke-width:3.5px;}#my-svg .edge-pattern-solid{stroke-dasharray:0;}#my-svg .edge-thickness-invisible{stroke-width:0;fill:none;}#my-svg .edge-pattern-dashed{stroke-dasharray:3;}#my-svg .edge-pattern-dotted{stroke-dasharray:2;}#my-svg .marker{fill:#666;stroke:#666;}#my-svg .marker.cross{stroke:#666;}#my-svg svg{font-family:"trebuchet ms",verdana,arial,sans-serif;font-size:16px;}#my-svg p{margin:0;}#my-svg .label{font-family:"trebuchet ms",verdana,arial,sans-serif;color:#000000;}#my-svg .cluster-label text{fill:#333;}#my-svg .cluster-label span{color:#333;}#my-svg .cluster-label span p{background-color:transparent;}#my-svg .label text,#my-svg span{fill:#000000;color:#000000;}#my-svg .node rect,#my-svg .node circle,#my-svg .node ellipse,#my-svg .node polygon,#my-svg .node path{fill:#eee;stroke:#999;stroke-width:1px;}#my-svg .rough-node .label text,#my-svg .node .label text,#my-svg .image-shape .label,#my-svg .icon-shape .label{text-anchor:middle;}#my-svg .node .katex path{fill:#000;stroke:#000;stroke-width:1px;}#my-svg .rough-node .label,#my-svg .node .label,#my-svg .image-shape .label,#my-svg .icon-shape .label{text-align:center;}#my-svg .node.clickable{cursor:pointer;}#my-svg .root .anchor path{fill:#666!important;stroke-width:0;stroke:#666;}#my-svg .arrowheadPath{fill:#333333;}#my-svg .edgePath .path{stroke:#666;stroke-width:1px;}#my-svg .flowchart-link{stroke:#666;fill:none;}#my-svg .edgeLabel{background-color:white;text-align:center;}#my-svg .edgeLabel p{background-color:white;}#my-svg .edgeLabel rect{opacity:0.5;background-color:white;fill:white;}#my-svg .labelBkg{background-color:rgba(255, 255, 255, 0.5);}#my-svg .cluster rect{fill:hsl(0, 0%, 98.9215686275%);stroke:#707070;stroke-width:1px;}#my-svg .cluster text{fill:#333;}#my-svg .cluster span{color:#333;}#my-svg div.mermaidTooltip{position:absolute;text-align:center;max-width:200px;padding:2px;font-family:"trebuchet ms",verdana,arial,sans-serif;font-size:12px;background:hsl(-160, 0%, 93.3333333333%);border:1px solid #707070;border-radius:2px;pointer-events:none;z-index:100;}#my-svg .flowchartTitleText{text-anchor:middle;font-size:18px;fill:#000000;}#my-svg rect.text{fill:none;stroke-width:0;}#my-svg .icon-shape,#my-svg .image-shape{background-color:white;text-align:center;}#my-svg .icon-shape p,#my-svg .image-shape p{background-color:white;padding:2px;}#my-svg .icon-shape .label rect,#my-svg .image-shape .label rect{opacity:0.5;background-color:white;fill:white;}#my-svg .label-icon{display:inline-block;height:1em;overflow:visible;vertical-align:-0.125em;}#my-svg .node .label-icon path{fill:currentColor;stroke:revert;stroke-width:revert;}#my-svg .node .neo-node{stroke:#999;}#my-svg [data-look="neo"].node rect,#my-svg [data-look="neo"].cluster rect,#my-svg [data-look="neo"].node polygon{stroke:url(#my-svg-gradient);filter:drop-shadow( 1px 2px 2px rgba(185,185,185,1));}#my-svg [data-look="neo"].node path{stroke:url(#my-svg-gradient);stroke-width:1px;}#my-svg [data-look="neo"].node .outer-path{filter:drop-shadow( 1px 2px 2px rgba(185,185,185,1));}#my-svg [data-look="neo"].node .neo-line path{stroke:#999;filter:none;}#my-svg [data-look="neo"].node circle{stroke:url(#my-svg-gradient);filter:drop-shadow( 1px 2px 2px rgba(185,185,185,1));}#my-svg [data-look="neo"].node circle .state-start{fill:#000000;}#my-svg [data-look="neo"].icon-shape .icon{fill:url(#my-svg-gradient);filter:drop-shadow( 1px 2px 2px rgba(185,185,185,1));}#my-svg [data-look="neo"].icon-shape .icon-neo path{stroke:url(#my-svg-gradient);filter:drop-shadow( 1px 2px 2px rgba(185,185,185,1));}#my-svg :root{--mermaid-font-family:"trebuchet ms",verdana,arial,sans-serif;}</style><g><marker id="my-svg_flowchart-v2-pointEnd" class="marker flowchart-v2" viewBox="0 0 10 10" refX="5" refY="5" markerUnits="userSpaceOnUse" markerWidth="8" markerHeight="8" orient="auto"><path d="M 0 0 L 10 5 L 0 10 z" class="arrowMarkerPath" style="stroke-width: 1; stroke-dasharray: 1, 0;"/></marker><marker id="my-svg_flowchart-v2-pointStart" class="marker flowchart-v2" viewBox="0 0 10 10" refX="4.5" refY="5" markerUnits="userSpaceOnUse" markerWidth="8" markerHeight="8" orient="auto"><path d="M 0 5 L 10 10 L 10 0 z" class="arrowMarkerPath" style="stroke-width: 1; stroke-dasharray: 1, 0;"/></marker><marker id="my-svg_flowchart-v2-pointEnd-margin" class="marker flowchart-v2" viewBox="0 0 11.5 14" refX="11.5" refY="7" markerUnits="userSpaceOnUse" markerWidth="10.5" markerHeight="14" orient="auto"><path d="M 0 0 L 11.5 7 L 0 14 z" class="arrowMarkerPath" style="stroke-width: 0; stroke-dasharray: 1, 0;"/></marker><marker id="my-svg_flowchart-v2-pointStart-margin" class="marker flowchart-v2" viewBox="0 0 11.5 14" refX="1" refY="7" markerUnits="userSpaceOnUse" markerWidth="11.5" markerHeight="14" orient="auto"><polygon points="0,7 11.5,14 11.5,0" class="arrowMarkerPath" style="stroke-width: 0; stroke-dasharray: 1, 0;"/></marker><marker id="my-svg_flowchart-v2-circleEnd" class="marker flowchart-v2" viewBox="0 0 10 10" refX="11" refY="5" markerUnits="userSpaceOnUse" markerWidth="11" markerHeight="11" orient="auto"><circle cx="5" cy="5" r="5" class="arrowMarkerPath" style="stroke-width: 1; stroke-dasharray: 1, 0;"/></marker><marker id="my-svg_flowchart-v2-circleStart" class="marker flowchart-v2" viewBox="0 0 10 10" refX="-1" refY="5" markerUnits="userSpaceOnUse" markerWidth="11" markerHeight="11" orient="auto"><circle cx="5" cy="5" r="5" class="arrowMarkerPath" style="stroke-width: 1; stroke-dasharray: 1, 0;"/></marker><marker id="my-svg_flowchart-v2-circleEnd-margin" class="marker flowchart-v2" viewBox="0 0 10 10" refY="5" refX="12.25" markerUnits="userSpaceOnUse" markerWidth="14" markerHeight="14" orient="auto"><circle cx="5" cy="5" r="5" class="arrowMarkerPath" style="stroke-width: 0; stroke-dasharray: 1, 0;"/></marker><marker id="my-svg_flowchart-v2-circleStart-margin" class="marker flowchart-v2" viewBox="0 0 10 10" refX="-2" refY="5" markerUnits="userSpaceOnUse" markerWidth="14" markerHeight="14" orient="auto"><circle cx="5" cy="5" r="5" class="arrowMarkerPath" style="stroke-width: 0; stroke-dasharray: 1, 0;"/></marker><marker id="my-svg_flowchart-v2-crossEnd" class="marker cross flowchart-v2" viewBox="0 0 11 11" refX="12" refY="5.2" markerUnits="userSpaceOnUse" markerWidth="11" markerHeight="11" orient="auto"><path d="M 1,1 l 9,9 M 10,1 l -9,9" class="arrowMarkerPath" style="stroke-width: 2; stroke-dasharray: 1, 0;"/></marker><marker id="my-svg_flowchart-v2-crossStart" class="marker cross flowchart-v2" viewBox="0 0 11 11" refX="-1" refY="5.2" markerUnits="userSpaceOnUse" markerWidth="11" markerHeight="11" orient="auto"><path d="M 1,1 l 9,9 M 10,1 l -9,9" class="arrowMarkerPath" style="stroke-width: 2; stroke-dasharray: 1, 0;"/></marker><marker id="my-svg_flowchart-v2-crossEnd-margin" class="marker cross flowchart-v2" viewBox="0 0 15 15" refX="17.7" refY="7.5" markerUnits="userSpaceOnUse" markerWidth="12" markerHeight="12" orient="auto"><path d="M 1,1 L 14,14 M 1,14 L 14,1" class="arrowMarkerPath" style="stroke-width: 2.5;"/></marker><marker id="my-svg_flowchart-v2-crossStart-margin" class="marker cross flowchart-v2" viewBox="0 0 15 15" refX="-3.5" refY="7.5" markerUnits="userSpaceOnUse" markerWidth="12" markerHeight="12" orient="auto"><path d="M 1,1 L 14,14 M 1,14 L 14,1" class="arrowMarkerPath" style="stroke-width: 2.5; stroke-dasharray: 1, 0;"/></marker><g class="root"><g class="clusters"/><g class="edgePaths"><path d="M184.402,40.5L184.319,44.583C184.236,48.667,184.069,56.833,183.986,64.417C183.902,72,183.902,79,183.902,82.5L183.902,86" id="my-svg-L_A_B_0" class="edge-thickness-normal edge-pattern-solid edge-thickness-normal edge-pattern-solid flowchart-link" style=";" data-edge="true" data-et="edge" data-id="L_A_B_0" data-points="W3sieCI6MTg0LjQwMjM0Mzc1LCJ5Ijo0MC41MDAwMDAwMDAwMDAwMTR9LHsieCI6MTgzLjkwMjM0Mzc1LCJ5Ijo2NX0seyJ4IjoxODMuOTAyMzQzNzUsInkiOjkwfV0=" data-look="classic" marker-end="url(#my-svg_flowchart-v2-pointEnd)"/><path d="M183.902,137L183.902,141.167C183.902,145.333,183.902,153.667,183.902,161.333C183.902,169,183.902,176,183.902,179.5L183.902,183" id="my-svg-L_B_C_0" class="edge-thickness-normal edge-pattern-solid edge-thickness-normal edge-pattern-solid flowchart-link" style=";" data-edge="true" data-et="edge" data-id="L_B_C_0" data-points="W3sieCI6MTgzLjkwMjM0Mzc1LCJ5IjoxMzd9LHsieCI6MTgzLjkwMjM0Mzc1LCJ5IjoxNjJ9LHsieCI6MTgzLjkwMjM0Mzc1LCJ5IjoxODYuOTk5OTk5OTk5OTk5OTd9XQ==" data-look="classic" marker-end="url(#my-svg_flowchart-v2-pointEnd)"/><path d="M215.813,330.978L222.211,342.213C228.61,353.449,241.406,375.919,247.805,396.987C254.203,418.056,254.203,437.722,254.203,455.639C254.203,473.556,254.203,489.722,254.203,515.369C254.203,541.016,254.203,576.144,254.203,613.021C254.203,649.898,254.203,688.526,254.203,719.139C254.203,749.753,254.203,772.353,254.203,793.203C254.203,814.053,254.203,833.153,254.203,855.683C254.203,878.214,254.203,904.174,254.203,917.155L254.203,930.135" id="my-svg-L_C_D_0" class="edge-thickness-normal edge-pattern-solid edge-thickness-normal edge-pattern-solid flowchart-link" style=";" data-edge="true" data-et="edge" data-id="L_C_D_0" data-points="W3sieCI6MjE1LjgxMzE1MTI0NzMyNjg5LCJ5IjozMzAuOTc4MjYxMTA2MTg4Nzd9LHsieCI6MjU0LjIwMzEyNSwieSI6Mzk4LjM4OTA2ODYwMzUxNTZ9LHsieCI6MjU0LjIwMzEyNSwieSI6NDU3LjM4OTA2ODYwMzUxNTZ9LHsieCI6MjU0LjIwMzEyNSwieSI6NTA1Ljg4OTA2ODYwMzUxNTZ9LHsieCI6MjU0LjIwMzEyNSwieSI6NjExLjI3MTEwMjkwNTI3MzR9LHsieCI6MjU0LjIwMzEyNSwieSI6NzI3LjE1MzEzNzIwNzAzMTJ9LHsieCI6MjU0LjIwMzEyNSwieSI6Nzk0Ljk1MzEzNjQ0NDA5MTh9LHsieCI6MjU0LjIwMzEyNSwieSI6ODUyLjI1MzEzNTY4MTE1MjN9LHsieCI6MjU0LjIwMzEyNSwieSI6OTM0LjEzNTE2OTk4MjkxMDJ9XQ==" data-look="classic" marker-end="url(#my-svg_flowchart-v2-pointEnd)"/><path d="M254.203,981.135L254.203,996.532C254.203,1011.929,254.203,1042.723,257.365,1063.463C260.527,1084.203,266.851,1094.889,270.013,1100.232L273.175,1105.575" id="my-svg-L_D_E_0" class="edge-thickness-normal edge-pattern-solid edge-thickness-normal edge-pattern-solid flowchart-link" style=";" data-edge="true" data-et="edge" data-id="L_D_E_0" data-points="W3sieCI6MjU0LjIwMzEyNSwieSI6OTgxLjEzNTE2OTk4MjkxMDJ9LHsieCI6MjU0LjIwMzEyNSwieSI6MTA3My41MTcyMDQyODQ2Njh9LHsieCI6Mjc1LjIxMjUyNzg5MTI4MTc1LCJ5IjoxMTA5LjAxNzIwNDI4NDY2OH1d" data-look="classic" marker-end="url(#my-svg_flowchart-v2-pointEnd)"/><path d="M151.992,330.978L145.593,342.213C139.195,353.449,126.398,375.919,120,392.404C113.602,408.889,113.602,419.389,113.602,424.639L113.602,429.889" id="my-svg-L_C_F_0" class="edge-thickness-normal edge-pattern-solid edge-thickness-normal edge-pattern-solid flowchart-link" style=";" data-edge="true" data-et="edge" data-id="L_C_F_0" data-points="W3sieCI6MTUxLjk5MTUzNjI1MjY3MzEsInkiOjMzMC45NzgyNjExMDYxODg3fSx7IngiOjExMy42MDE1NjI1LCJ5IjozOTguMzg5MDY4NjAzNTE1Nn0seyJ4IjoxMTMuNjAxNTYyNSwieSI6NDMzLjg4OTA2ODYwMzUxNTZ9XQ==" data-look="classic" marker-end="url(#my-svg_flowchart-v2-pointEnd)"/><path d="M113.602,480.889L113.602,485.056C113.602,489.222,113.602,497.556,113.602,505.222C113.602,512.889,113.602,519.889,113.602,523.389L113.602,526.889" id="my-svg-L_F_G_0" class="edge-thickness-normal edge-pattern-solid edge-thickness-normal edge-pattern-solid flowchart-link" style=";" data-edge="true" data-et="edge" data-id="L_F_G_0" data-points="W3sieCI6MTEzLjYwMTU2MjUsInkiOjQ4MC44ODkwNjg2MDM1MTU2fSx7IngiOjExMy42MDE1NjI1LCJ5Ijo1MDUuODg5MDY4NjAzNTE1Nn0seyJ4IjoxMTMuNjAxNTYyNSwieSI6NTMwLjg4OTA2ODYwMzUxNTZ9XQ==" data-look="classic" marker-end="url(#my-svg_flowchart-v2-pointEnd)"/><path d="M113.602,691.653L113.602,697.57C113.602,703.486,113.602,715.32,113.602,726.486C113.602,737.653,113.602,748.153,113.602,753.403L113.602,758.653" id="my-svg-L_G_H_0" class="edge-thickness-normal edge-pattern-solid edge-thickness-normal edge-pattern-solid flowchart-link" style=";" data-edge="true" data-et="edge" data-id="L_G_H_0" data-points="W3sieCI6MTEzLjYwMTU2MjUsInkiOjY5MS42NTMxMzcyMDcwMzEyfSx7IngiOjExMy42MDE1NjI1LCJ5Ijo3MjcuMTUzMTM3MjA3MDMxMn0seyJ4IjoxMTMuNjAxNTYyNSwieSI6NzYyLjY1MzEzNzIwNzAzMTJ9XQ==" data-look="classic" marker-end="url(#my-svg_flowchart-v2-pointEnd)"/><path d="M176.026,629.229L232.758,645.55C289.49,661.87,402.955,694.512,459.687,716.082C516.42,737.653,516.42,748.153,516.42,753.403L516.42,758.653" id="my-svg-L_G_I_0" class="edge-thickness-normal edge-pattern-solid edge-thickness-normal edge-pattern-solid flowchart-link" style=";" data-edge="true" data-et="edge" data-id="L_G_I_0" data-points="W3sieCI6MTc2LjAyNTU2MDIyMTg1NDIsInkiOjYyOS4yMjkxMzk0ODUxNzcxfSx7IngiOjUxNi40MTk1MzI3NzU4Nzg5LCJ5Ijo3MjcuMTUzMTM3MjA3MDMxMn0seyJ4Ijo1MTYuNDE5NTMyNzc1ODc4OSwieSI6NzYyLjY1MzEzNzIwNzAzMTJ9XQ==" data-look="classic" marker-end="url(#my-svg_flowchart-v2-pointEnd)"/><path d="M516.42,827.253L516.42,831.42C516.42,835.586,516.42,843.92,516.42,851.586C516.42,859.253,516.42,866.253,516.42,869.753L516.42,873.253" id="my-svg-L_I_J_0" class="edge-thickness-normal edge-pattern-solid edge-thickness-normal edge-pattern-solid flowchart-link" style=";" data-edge="true" data-et="edge" data-id="L_I_J_0" data-points="W3sieCI6NTE2LjQxOTUzMjc3NTg3ODksInkiOjgyNy4yNTMxMzU2ODExNTIzfSx7IngiOjUxNi40MTk1MzI3NzU4Nzg5LCJ5Ijo4NTIuMjUzMTM1NjgxMTUyM30seyJ4Ijo1MTYuNDE5NTMyNzc1ODc4OSwieSI6ODc3LjI1MzEzNTY4MTE1MjN9XQ==" data-look="classic" marker-end="url(#my-svg_flowchart-v2-pointEnd)"/><path d="M539.354,1015.082L543.242,1024.822C547.131,1034.561,554.907,1054.039,558.795,1069.028C562.683,1084.017,562.683,1094.517,562.683,1099.767L562.683,1105.017" id="my-svg-L_J_K_0" class="edge-thickness-normal edge-pattern-solid edge-thickness-normal edge-pattern-solid flowchart-link" style=";" data-edge="true" data-et="edge" data-id="L_J_K_0" data-points="W3sieCI6NTM5LjM1NDI2MzE5Mzc2NDQsInkiOjEwMTUuMDgyNDczODY2NzgxOH0seyJ4Ijo1NjIuNjgzMjA0NjUwODc4OSwieSI6MTA3My41MTcyMDQyODQ2Njh9LHsieCI6NTYyLjY4MzIwNDY1MDg3ODksInkiOjExMDkuMDE3MjA0Mjg0NjY4fV0=" data-look="classic" marker-end="url(#my-svg_flowchart-v2-pointEnd)"/><path d="M476.271,997.869L463.69,1010.477C451.108,1023.085,425.946,1048.301,404.637,1066.468C383.328,1084.634,365.872,1095.751,357.145,1101.31L348.417,1106.868" id="my-svg-L_J_E_0" class="edge-thickness-normal edge-pattern-solid edge-thickness-normal edge-pattern-solid flowchart-link" style=";" data-edge="true" data-et="edge" data-id="L_J_E_0" data-points="W3sieCI6NDc2LjI3MTEwMTcyODM2MzksInkiOjk5Ny44Njg3NzMyMzcxNTI5fSx7IngiOjQwMC43ODI4MTQwMjU4Nzg5LCJ5IjoxMDczLjUxNzIwNDI4NDY2OH0seyJ4IjozNDUuMDQzMjYzODM0OTU1NTUsInkiOjExMDkuMDE3MjA0Mjg0NjY4fV0=" data-look="classic" marker-end="url(#my-svg_flowchart-v2-pointEnd)"/></g><g class="edgeLabels"><g class="edgeLabel"><g class="label" data-id="L_A_B_0" transform="translate(0, 0)"><text y="-10.1" text-anchor="middle"><tspan class="text-outer-tspan row" x="0" y="-0.1em" dy="1.1em" text-anchor="middle"/></text></g></g><g><rect class="background" style="stroke: none"/></g><g class="edgeLabel"><g class="label" data-id="L_B_C_0" transform="translate(0, 0)"><text y="-10.1" text-anchor="middle"><tspan class="text-outer-tspan row" x="0" y="-0.1em" dy="1.1em" text-anchor="middle"/></text></g></g><g><rect class="background" style="stroke: none"/></g><g class="edgeLabel" transform="translate(254.203125, 611.2711029052734)"><g class="label" data-id="L_C_D_0" transform="translate(-0.05078125, -10.5)"><g><rect class="background" style="" x="-12.2265625" y="0" width="24.5546875" height="21"/><text y="-10.1" text-anchor="middle" style=""><tspan class="text-outer-tspan row" x="0" y="-0.1em" dy="1.1em" text-anchor="middle"><tspan font-style="normal" class="text-inner-tspan" font-weight="normal">Ne</tspan></tspan></text></g></g></g><g class="edgeLabel"><g class="label" data-id="L_D_E_0" transform="translate(0, 0)"><text y="-10.1" text-anchor="middle"><tspan class="text-outer-tspan row" x="0" y="-0.1em" dy="1.1em" text-anchor="middle"/></text></g></g><g><rect class="background" style="stroke: none"/></g><g class="edgeLabel" transform="translate(113.6015625, 398.3890686035156)"><g class="label" data-id="L_C_F_0" transform="translate(-0.05078125, -10.5)"><g><rect class="background" style="" x="-12.2265625" y="0" width="24.5546875" height="21"/><text y="-10.1" text-anchor="middle" style=""><tspan class="text-outer-tspan row" x="0" y="-0.1em" dy="1.1em" text-anchor="middle"><tspan font-style="normal" class="text-inner-tspan" font-weight="normal">Da</tspan></tspan></text></g></g></g><g class="edgeLabel"><g class="label" data-id="L_F_G_0" transform="translate(0, 0)"><text y="-10.1" text-anchor="middle"><tspan class="text-outer-tspan row" x="0" y="-0.1em" dy="1.1em" text-anchor="middle"/></text></g></g><g><rect class="background" style="stroke: none"/></g><g class="edgeLabel" transform="translate(113.6015625, 727.1531372070312)"><g class="label" data-id="L_G_H_0" transform="translate(-0.05078125, -10.5)"><g><rect class="background" style="" x="-12.2265625" y="0" width="24.5546875" height="21"/><text y="-10.1" text-anchor="middle" style=""><tspan class="text-outer-tspan row" x="0" y="-0.1em" dy="1.1em" text-anchor="middle"><tspan font-style="normal" class="text-inner-tspan" font-weight="normal">Da</tspan></tspan></text></g></g></g><g class="edgeLabel" transform="translate(516.4195327758789, 727.1531372070312)"><g class="label" data-id="L_G_I_0" transform="translate(0, -10.5)"><g><rect class="background" style="" x="-60.25" y="0" width="120.5" height="21"/><text y="-10.1" text-anchor="middle" style=""><tspan class="text-outer-tspan row" x="0" y="-0.1em" dy="1.1em" text-anchor="middle"><tspan font-style="normal" class="text-inner-tspan" font-weight="normal">Ne</tspan><tspan font-style="normal" class="text-inner-tspan" font-weight="normal"> /</tspan><tspan font-style="normal" class="text-inner-tspan" font-weight="normal"> Nedosegljiv</tspan></tspan></text></g></g></g><g class="edgeLabel"><g class="label" data-id="L_I_J_0" transform="translate(0, 0)"><text y="-10.1" text-anchor="middle"><tspan class="text-outer-tspan row" x="0" y="-0.1em" dy="1.1em" text-anchor="middle"/></text></g></g><g><rect class="background" style="stroke: none"/></g><g class="edgeLabel" transform="translate(562.6832046508789, 1073.517204284668)"><g class="label" data-id="L_J_K_0" transform="translate(-0.05078125, -10.5)"><g><rect class="background" style="" x="-12.2265625" y="0" width="24.5546875" height="21"/><text y="-10.1" text-anchor="middle" style=""><tspan class="text-outer-tspan row" x="0" y="-0.1em" dy="1.1em" text-anchor="middle"><tspan font-style="normal" class="text-inner-tspan" font-weight="normal">Da</tspan></tspan></text></g></g></g><g class="edgeLabel" transform="translate(415.18737, 1059.08209)"><g class="label" data-id="L_J_E_0" transform="translate(0, -10.5)"><g><rect class="background" style="" x="-60.25" y="0" width="120.5" height="21"/><text y="-10.1" text-anchor="middle" style=""><tspan class="text-outer-tspan row" x="0" y="-0.1em" dy="1.1em" text-anchor="middle"><tspan font-style="normal" class="text-inner-tspan" font-weight="normal">Ne</tspan><tspan font-style="normal" class="text-inner-tspan" font-weight="normal"> /</tspan><tspan font-style="normal" class="text-inner-tspan" font-weight="normal"> Nedosegljiv</tspan></tspan></text></g></g></g></g><g class="nodes"><g class="node default" id="my-svg-flowchart-A-0" data-look="classic" transform="translate(183.90234375, 24)"><g class="basic label-container outer-path"><path d="M-34.6328125 -16 C-8.811086067313461 -16, 17.010640365373078 -16, 34.6328125 -16 C34.6328125 -16, 34.6328125 -16, 34.6328125 -16 C35.02436744352653 -15.987443595076567, 35.41592238705306 -15.974887190153135, 35.657936019691405 -15.967126284005381 C35.87266076215877 -15.94641204634384, 36.087385504626134 -15.9256978086823, 36.678847086952096 -15.868640221171939 C36.935550386850245 -15.827138422408229, 37.192253686748394 -15.785636623644518, 37.69135055922195 -15.704946511857047 C38.0592822051204 -15.620968514659099, 38.42721385101884 -15.53699051746115, 38.69128584255211 -15.476717808624471 C38.89763767123602 -15.41547366903394, 39.103989499919926 -15.354229529443408, 39.674543988377934 -15.184891952170698 C39.91891321276332 -15.094961818672527, 40.163282437148716 -15.005031685174355, 40.63708457806999 -14.830668117536348 C40.82658807084633 -14.746780542705647, 41.016091563622666 -14.662892967874946, 41.57495232588093 -14.415501886438706 C41.82112552736028 -14.28707348490839, 42.06729872883963 -14.158645083378074, 42.484293332063004 -13.941099265974232 C42.71155553035019 -13.803331585831621, 42.93881772863737 -13.665563905689012, 43.36137091936878 -13.409409678269451 C43.640169882230985 -13.21493159078936, 43.91896884509319 -13.02045350330927, 44.202580987859456 -12.822617949887306 C44.490119690637 -12.593313486148444, 44.77765839341455 -12.364009022409585, 45.00446682492461 -12.183135333906153 C45.172118223683626 -12.030878769366156, 45.33976962244263 -11.878622204826161, 45.763733309655784 -11.493589601563642 C45.98037513693632 -11.269889128271682, 46.19701696421686 -11.046188654979725, 46.47726045320505 -10.756814244181072 C46.65968076127182 -10.542532970316257, 46.8421010693386 -10.328251696451442, 47.14211621948848 -9.975836829739738 C47.352764424856105 -9.693587424993408, 47.56341263022373 -9.411338020247081, 47.75556857355129 -9.153866561954718 C47.89153941495258 -8.944978836279075, 48.02751025635387 -8.736091110603432, 48.315096708085534 -8.294281092968403 C48.43545717419098 -8.080568897579392, 48.555817640296425 -7.866856702190382, 48.818401401968 -7.400612643853364 C48.98106633359268 -7.062835432862746, 49.143731265217355 -6.725058221872128, 49.263414468252996 -6.476533489958305 C49.384739926074744 -6.176857263470435, 49.50606538389649 -5.877181036982566, 49.648307252796165 -5.52584087074093 C49.7554179389915 -5.203240549690845, 49.86252862518684 -4.88064022864076, 49.97149814858657 -4.552441386096524 C50.046145024342756 -4.267780496677589, 50.120791900098936 -3.9831196072586543, 50.231659094909176 -3.560334943301032 C50.27889902978976 -3.3177678618530138, 50.32613896467034 -3.0752007804049954, 50.427721034631205 -2.5535983205340735 C50.47157088855309 -2.2135075126490036, 50.51542074247497 -1.8734167047639334, 50.55887830718717 -1.536368414522911 C50.57841198894055 -1.2321155539099324, 50.597945670693925 -0.9278626932969539, 50.624591959211 -0.5128252411464826 C50.624591959211 -0.12674300293167123, 50.624591959211 0.2593392352831402, 50.624591959211 0.5128252411464788 C50.59846176737654 0.9198240708794598, 50.57233157554208 1.326822900612441, 50.55887830718717 1.5363684145229002 C50.516651014022834 1.863874961583325, 50.47442372085849 2.19138150864375, 50.427721034631205 2.5535983205340624 C50.37748960264938 2.8115261073437914, 50.32725817066757 3.0694538941535208, 50.231659094909176 3.5603349433010285 C50.17040035883475 3.7939410536569724, 50.109141622760326 4.027547164012916, 49.97149814858657 4.552441386096513 C49.87577743200473 4.840736933415949, 49.780056715422894 5.129032480735384, 49.648307252796165 5.525840870740919 C49.56521219149635 5.731087278685187, 49.482117130196535 5.936333686629457, 49.263414468253 6.4765334899583005 C49.09307605043764 6.8302448592101825, 48.92273763262227 7.183956228462065, 48.818401401968 7.400612643853361 C48.68753833589601 7.632973268986559, 48.556675269824005 7.8653338941197575, 48.31509670808554 8.294281092968399 C48.10527781524545 8.616619256632452, 47.89545892240535 8.938957420296504, 47.7555685735513 9.15386656195471 C47.59700793565545 9.366323371563874, 47.438447297759595 9.57878018117304, 47.14211621948848 9.975836829739734 C46.87884890771223 10.285085594486532, 46.61558159593598 10.594334359233331, 46.477260453205055 10.756814244181063 C46.30886651115362 10.930694814748929, 46.14047256910219 11.104575385316794, 45.763733309655784 11.493589601563638 C45.57712762234106 11.663059949466945, 45.39052193502633 11.832530297370251, 45.00446682492463 12.183135333906142 C44.77389067143664 12.367013680423675, 44.54331451794866 12.550892026941208, 44.20258098785946 12.822617949887304 C43.946017266045004 13.001585695760559, 43.689453544230545 13.180553441633812, 43.36137091936879 13.409409678269446 C43.0552816793164 13.59496277436924, 42.74919243926401 13.780515870469033, 42.484293332063004 13.94109926597423 C42.296060653397724 14.039300133865122, 42.10782797473244 14.137501001756016, 41.57495232588093 14.415501886438705 C41.249912856675536 14.559387217502657, 40.92487338747014 14.703272548566611, 40.637084578069995 14.830668117536346 C40.336099654161245 14.941433351808902, 40.035114730252495 15.05219858608146, 39.67454398837794 15.184891952170695 C39.30896258941496 15.293394592406987, 38.94338119045198 15.401897232643277, 38.69128584255213 15.476717808624468 C38.40138338317249 15.542886153187528, 38.11148092379284 15.609054497750588, 37.69135055922196 15.704946511857045 C37.30007276313577 15.768205271523632, 36.90879496704958 15.83146403119022, 36.6788470869521 15.868640221171937 C36.46121097943205 15.889635314718682, 36.243574871912 15.910630408265428, 35.657936019691405 15.967126284005381 C35.43806359165404 15.97417716481682, 35.21819116361668 15.98122804562826, 34.6328125 16 C34.6328125 16, 34.6328125 16, 34.6328125 16 C16.12963115345728 16, -2.3735501930854426 16, -34.6328125 16 C-34.89022736022879 15.991745206460093, -35.147642220457584 15.983490412920185, -35.6579360196914 15.967126284005381 C-36.022351689781544 15.93197154258575, -36.38676735987169 15.896816801166118, -36.678847086952096 15.868640221171937 C-37.04840150714351 15.808893528452721, -37.417955927334916 15.749146835733505, -37.69135055922196 15.704946511857045 C-38.08966241191035 15.614034430708667, -38.48797426459875 15.52312234956029, -38.69128584255211 15.476717808624471 C-38.955261794524965 15.398371131716978, -39.21923774649781 15.320024454809483, -39.67454398837792 15.184891952170702 C-39.934608811713254 15.089185693170426, -40.19467363504859 14.99347943417015, -40.63708457806999 14.830668117536348 C-40.86409061040429 14.730179280916646, -41.09109664273859 14.629690444296944, -41.57495232588093 14.415501886438708 C-41.77619066184791 14.310515975464037, -41.977428997814904 14.205530064489365, -42.484293332063 13.941099265974234 C-42.76603166766422 13.770307831254534, -43.04777000326544 13.599516396534835, -43.36137091936877 13.409409678269457 C-43.536450014014086 13.287282080896738, -43.711529108659406 13.165154483524018, -44.202580987859456 12.822617949887308 C-44.40997808458199 12.65722428431962, -44.61737518130452 12.491830618751932, -45.00446682492461 12.183135333906154 C-45.22564530639388 11.982266889097701, -45.44682378786315 11.781398444289247, -45.76373330965578 11.493589601563649 C-45.96090806368093 11.289990479684308, -46.15808281770609 11.086391357804969, -46.47726045320505 10.756814244181069 C-46.7078919855461 10.485901322987312, -46.93852351788715 10.214988401793555, -47.14211621948847 9.97583682973974 C-47.31731439291054 9.741087238236108, -47.492512566332614 9.50633764673248, -47.75556857355129 9.15386656195472 C-47.92933616705762 8.886912875196678, -48.10310376056396 8.619959188438635, -48.315096708085534 8.29428109296841 C-48.478975297140586 8.003298063594578, -48.64285388619564 7.712315034220745, -48.818401401968 7.400612643853366 C-48.99019183951577 7.043886124558909, -49.16198227706353 6.687159605264451, -49.263414468252996 6.476533489958307 C-49.41129827993537 6.11125761596385, -49.55918209161775 5.745981741969393, -49.648307252796165 5.525840870740931 C-49.73196492852322 5.273877280491544, -49.81562260425028 5.021913690242157, -49.97149814858657 4.552441386096519 C-50.034043633923794 4.313928343120861, -50.09658911926102 4.0754153001452025, -50.231659094909176 3.5603349433010343 C-50.286704657298536 3.2776876143153992, -50.3417502196879 2.9950402853297646, -50.427721034631205 2.5535983205340753 C-50.45998146756058 2.3033927732768547, -50.49224190048996 2.0531872260196344, -50.55887830718717 1.5363684145229202 C-50.5760445584376 1.2689901949488536, -50.59321080968803 1.0016119753747867, -50.624591959211 0.5128252411464846 C-50.624591959211 0.2540766754692221, -50.624591959211 -0.004671890208040486, -50.624591959211 -0.5128252411464769 C-50.598899401261825 -0.9130075698643987, -50.573206843312654 -1.3131898985823205, -50.55887830718717 -1.5363684145228982 C-50.52905506190918 -1.7676716156330972, -50.499231816631195 -1.9989748167432961, -50.427721034631205 -2.5535983205340678 C-50.37121337109483 -2.8437532298944252, -50.31470570755845 -3.1339081392547827, -50.231659094909176 -3.5603349433010267 C-50.157604261873715 -3.842738117232925, -50.083549428838246 -4.125141291164823, -49.971498148586576 -4.552441386096511 C-49.896208041150324 -4.779203193844941, -49.82091793371408 -5.005965001593371, -49.64830725279617 -5.525840870740911 C-49.49682168132267 -5.90001316105474, -49.34533610984917 -6.274185451368568, -49.263414468253 -6.476533489958299 C-49.11253962683725 -6.789828326362573, -48.96166478542149 -7.103123162766848, -48.818401401968 -7.400612643853359 C-48.65174281681758 -7.696531837799657, -48.48508423166715 -7.992451031745955, -48.315096708085534 -8.294281092968404 C-48.131440582957076 -8.576426219740563, -47.94778445782862 -8.858571346512724, -47.755568573551294 -9.153866561954715 C-47.51641536395317 -9.474310075510594, -47.27726215435505 -9.794753589066474, -47.14211621948848 -9.975836829739734 C-46.94935124004648 -10.202269543230361, -46.756586260604486 -10.42870225672099, -46.477260453205055 -10.756814244181063 C-46.2075352518953 -11.035327659384247, -45.937810050585554 -11.313841074587431, -45.76373330965579 -11.493589601563633 C-45.47519045490284 -11.755636587824684, -45.18664760014988 -12.017683574085737, -45.00446682492463 -12.18313533390614 C-44.82188844827254 -12.328736730671528, -44.63931007162046 -12.474338127436914, -44.20258098785946 -12.822617949887302 C-43.90071853931879 -13.033184126574492, -43.598856090778106 -13.24375030326168, -43.36137091936879 -13.409409678269444 C-43.014662471523856 -13.619586376838038, -42.667954023678924 -13.829763075406632, -42.484293332063004 -13.941099265974229 C-42.12364892046898 -14.129247224499062, -41.76300450887496 -14.317395183023896, -41.574952325880936 -14.415501886438705 C-41.225544984894505 -14.570174151492887, -40.87613764390807 -14.724846416547072, -40.637084578069995 -14.830668117536344 C-40.404203450620464 -14.916370525167316, -40.171322323170926 -15.002072932798288, -39.67454398837794 -15.184891952170695 C-39.30877776703909 -15.293449446717991, -38.94301154570024 -15.402006941265288, -38.69128584255213 -15.476717808624466 C-38.41290670922585 -15.540256029212575, -38.13452757589957 -15.603794249800686, -37.691350559221966 -15.704946511857043 C-37.409309231482844 -15.750544766462742, -37.12726790374372 -15.796143021068438, -36.6788470869521 -15.868640221171937 C-36.27339653626503 -15.90775354817109, -35.867945985577954 -15.946866875170242, -35.657936019691405 -15.967126284005381 C-35.27483179537588 -15.979411690812045, -34.891727571060365 -15.991697097618708, -34.63281250000001 -16 C-34.63281250000001 -16, -34.6328125 -16, -34.6328125 -16" stroke="none" stroke-width="0" fill="#eee" style=""/><path d="M-34.6328125 -16 C-19.307414465565316 -16, -3.982016431130628 -16, 34.6328125 -16 M-34.6328125 -16 C-13.750756447828696 -16, 7.131299604342608 -16, 34.6328125 -16 M34.6328125 -16 C34.6328125 -16, 34.6328125 -16, 34.6328125 -16 M34.6328125 -16 C34.6328125 -16, 34.6328125 -16, 34.6328125 -16 M34.6328125 -16 C34.98334361471266 -15.98875914941859, 35.33387472942532 -15.977518298837179, 35.657936019691405 -15.967126284005381 M34.6328125 -16 C34.89904212028793 -15.991462534261885, 35.16527174057586 -15.982925068523771, 35.657936019691405 -15.967126284005381 M35.657936019691405 -15.967126284005381 C36.030273192448874 -15.931207364750435, 36.402610365206336 -15.895288445495488, 36.678847086952096 -15.868640221171939 M35.657936019691405 -15.967126284005381 C36.05514702093695 -15.928807816431345, 36.452358022182494 -15.89048934885731, 36.678847086952096 -15.868640221171939 M36.678847086952096 -15.868640221171939 C37.042025617101686 -15.809924332908919, 37.40520414725127 -15.7512084446459, 37.69135055922195 -15.704946511857047 M36.678847086952096 -15.868640221171939 C37.04107898017928 -15.810077377825255, 37.40331087340646 -15.75151453447857, 37.69135055922195 -15.704946511857047 M37.69135055922195 -15.704946511857047 C37.95721410058531 -15.644264893462605, 38.22307764194867 -15.583583275068161, 38.69128584255211 -15.476717808624471 M37.69135055922195 -15.704946511857047 C38.06788958890116 -15.619003935479569, 38.44442861858037 -15.53306135910209, 38.69128584255211 -15.476717808624471 M38.69128584255211 -15.476717808624471 C39.00144951761651 -15.384662857947712, 39.31161319268091 -15.292607907270954, 39.674543988377934 -15.184891952170698 M38.69128584255211 -15.476717808624471 C39.018890604913494 -15.379486434788104, 39.34649536727487 -15.282255060951735, 39.674543988377934 -15.184891952170698 M39.674543988377934 -15.184891952170698 C40.058723802307355 -15.0435102293254, 40.44290361623678 -14.902128506480103, 40.63708457806999 -14.830668117536348 M39.674543988377934 -15.184891952170698 C39.91285084045732 -15.097192827721093, 40.1511576925367 -15.009493703271488, 40.63708457806999 -14.830668117536348 M40.63708457806999 -14.830668117536348 C40.88007132347799 -14.723105093289929, 41.12305806888599 -14.615542069043512, 41.57495232588093 -14.415501886438706 M40.63708457806999 -14.830668117536348 C40.88297159482693 -14.721821229197246, 41.12885861158387 -14.612974340858145, 41.57495232588093 -14.415501886438706 M41.57495232588093 -14.415501886438706 C41.85679375191475 -14.26846539500491, 42.13863517794858 -14.121428903571115, 42.484293332063004 -13.941099265974232 M41.57495232588093 -14.415501886438706 C41.89819841093174 -14.246864610916697, 42.22144449598256 -14.078227335394686, 42.484293332063004 -13.941099265974232 M42.484293332063004 -13.941099265974232 C42.72796504168953 -13.793384043624721, 42.97163675131605 -13.645668821275212, 43.36137091936878 -13.409409678269451 M42.484293332063004 -13.941099265974232 C42.801866976512436 -13.748584256439102, 43.11944062096186 -13.55606924690397, 43.36137091936878 -13.409409678269451 M43.36137091936878 -13.409409678269451 C43.69512739246965 -13.17659561071914, 44.02888386557053 -12.943781543168829, 44.202580987859456 -12.822617949887306 M43.36137091936878 -13.409409678269451 C43.61198050035194 -13.23459528328951, 43.8625900813351 -13.059780888309568, 44.202580987859456 -12.822617949887306 M44.202580987859456 -12.822617949887306 C44.39334589333446 -12.67048801423832, 44.58411079880947 -12.518358078589333, 45.00446682492461 -12.183135333906153 M44.202580987859456 -12.822617949887306 C44.38610525019437 -12.676262234460937, 44.56962951252929 -12.529906519034567, 45.00446682492461 -12.183135333906153 M45.00446682492461 -12.183135333906153 C45.28897102990981 -11.924756142507363, 45.57347523489501 -11.666376951108575, 45.763733309655784 -11.493589601563642 M45.00446682492461 -12.183135333906153 C45.19701800978866 -12.008265442437803, 45.3895691946527 -11.833395550969454, 45.763733309655784 -11.493589601563642 M45.763733309655784 -11.493589601563642 C45.98665227581199 -11.263407467019867, 46.2095712419682 -11.033225332476091, 46.47726045320505 -10.756814244181072 M45.763733309655784 -11.493589601563642 C45.9130769305481 -11.339380051653022, 46.06242055144042 -11.1851705017424, 46.47726045320505 -10.756814244181072 M46.47726045320505 -10.756814244181072 C46.65473461042732 -10.548343000542168, 46.83220876764959 -10.339871756903264, 47.14211621948848 -9.975836829739738 M46.47726045320505 -10.756814244181072 C46.626681850688115 -10.581295368379083, 46.77610324817119 -10.405776492577091, 47.14211621948848 -9.975836829739738 M47.14211621948848 -9.975836829739738 C47.32428634185878 -9.731745461803095, 47.506456464229075 -9.487654093866455, 47.75556857355129 -9.153866561954718 M47.14211621948848 -9.975836829739738 C47.37030740893512 -9.67008142452626, 47.59849859838176 -9.36432601931278, 47.75556857355129 -9.153866561954718 M47.75556857355129 -9.153866561954718 C47.88743005039734 -8.951291923754814, 48.01929152724339 -8.74871728555491, 48.315096708085534 -8.294281092968403 M47.75556857355129 -9.153866561954718 C47.917571089534825 -8.90498719363736, 48.07957360551836 -8.656107825320001, 48.315096708085534 -8.294281092968403 M48.315096708085534 -8.294281092968403 C48.44334905354918 -8.066556066639476, 48.57160139901281 -7.8388310403105494, 48.818401401968 -7.400612643853364 M48.315096708085534 -8.294281092968403 C48.46707455500898 -8.024429036330059, 48.61905240193242 -7.7545769796917146, 48.818401401968 -7.400612643853364 M48.818401401968 -7.400612643853364 C48.995144590868435 -7.0336016304031945, 49.17188777976886 -6.666590616953025, 49.263414468252996 -6.476533489958305 M48.818401401968 -7.400612643853364 C48.930685303824355 -7.167452719158019, 49.042969205680706 -6.934292794462674, 49.263414468252996 -6.476533489958305 M49.263414468252996 -6.476533489958305 C49.398265487038664 -6.143448866390626, 49.53311650582433 -5.810364242822948, 49.648307252796165 -5.52584087074093 M49.263414468252996 -6.476533489958305 C49.41296181066469 -6.10714866290026, 49.56250915307638 -5.737763835842214, 49.648307252796165 -5.52584087074093 M49.648307252796165 -5.52584087074093 C49.76435340368477 -5.17632835370767, 49.88039955457338 -4.8268158366744105, 49.97149814858657 -4.552441386096524 M49.648307252796165 -5.52584087074093 C49.7320223314495 -5.273704392023498, 49.81573741010284 -5.0215679133060656, 49.97149814858657 -4.552441386096524 M49.97149814858657 -4.552441386096524 C50.070810105880604 -4.173721850859803, 50.17012206317464 -3.7950023156230808, 50.231659094909176 -3.560334943301032 M49.97149814858657 -4.552441386096524 C50.044902076392525 -4.272520395908863, 50.11830600419848 -3.9925994057212018, 50.231659094909176 -3.560334943301032 M50.231659094909176 -3.560334943301032 C50.288392092320976 -3.2690229921146803, 50.34512508973278 -2.977711040928328, 50.427721034631205 -2.5535983205340735 M50.231659094909176 -3.560334943301032 C50.27813309728577 -3.3217007633811115, 50.324607099662366 -3.0830665834611914, 50.427721034631205 -2.5535983205340735 M50.427721034631205 -2.5535983205340735 C50.47074596185179 -2.219905481244079, 50.513770889072376 -1.886212641954085, 50.55887830718717 -1.536368414522911 M50.427721034631205 -2.5535983205340735 C50.464624102691914 -2.2673854119902472, 50.501527170752624 -1.981172503446421, 50.55887830718717 -1.536368414522911 M50.55887830718717 -1.536368414522911 C50.572037155115396 -1.3314087364098923, 50.58519600304363 -1.1264490582968736, 50.624591959211 -0.5128252411464826 M50.55887830718717 -1.536368414522911 C50.575775906385445 -1.2731746675132352, 50.59267350558372 -1.0099809205035593, 50.624591959211 -0.5128252411464826 M50.624591959211 -0.5128252411464826 C50.624591959211 -0.240160125207815, 50.624591959211 0.03250499073085267, 50.624591959211 0.5128252411464788 M50.624591959211 -0.5128252411464826 C50.624591959211 -0.11730744483376243, 50.624591959211 0.2782103514789578, 50.624591959211 0.5128252411464788 M50.624591959211 0.5128252411464788 C50.6087080034027 0.7602306741592153, 50.59282404759439 1.0076361071719517, 50.55887830718717 1.5363684145229002 M50.624591959211 0.5128252411464788 C50.604575273228 0.8246012825098675, 50.584558587245 1.1363773238732562, 50.55887830718717 1.5363684145229002 M50.55887830718717 1.5363684145229002 C50.51032461603002 1.9129412551269969, 50.461770924872866 2.2895140957310938, 50.427721034631205 2.5535983205340624 M50.55887830718717 1.5363684145229002 C50.50997255036518 1.9156718069002603, 50.46106679354319 2.29497519927762, 50.427721034631205 2.5535983205340624 M50.427721034631205 2.5535983205340624 C50.381018203392436 2.7934074882982705, 50.33431537215366 3.0332166560624785, 50.231659094909176 3.5603349433010285 M50.427721034631205 2.5535983205340624 C50.38491390407773 2.7734038886359054, 50.34210677352426 2.9932094567377487, 50.231659094909176 3.5603349433010285 M50.231659094909176 3.5603349433010285 C50.167645406522475 3.8044468808275793, 50.103631718135766 4.04855881835413, 49.97149814858657 4.552441386096513 M50.231659094909176 3.5603349433010285 C50.148465890400026 3.877586688257332, 50.065272685890875 4.1948384332136355, 49.97149814858657 4.552441386096513 M49.97149814858657 4.552441386096513 C49.863458160057704 4.877840617710963, 49.755418171528845 5.2032398493254135, 49.648307252796165 5.525840870740919 M49.97149814858657 4.552441386096513 C49.895339537598545 4.781818988165643, 49.81918092661052 5.011196590234774, 49.648307252796165 5.525840870740919 M49.648307252796165 5.525840870740919 C49.56458794074832 5.732629190101899, 49.48086862870046 5.93941750946288, 49.263414468253 6.4765334899583005 M49.648307252796165 5.525840870740919 C49.5409101939957 5.791113682358946, 49.433513135195234 6.056386493976974, 49.263414468253 6.4765334899583005 M49.263414468253 6.4765334899583005 C49.13683100487957 6.739386760105469, 49.01024754150613 7.002240030252638, 48.818401401968 7.400612643853361 M49.263414468253 6.4765334899583005 C49.166337431201654 6.6781160345112776, 49.0692603941503 6.879698579064255, 48.818401401968 7.400612643853361 M48.818401401968 7.400612643853361 C48.71241038933833 7.588810419531195, 48.60641937670866 7.77700819520903, 48.31509670808554 8.294281092968399 M48.818401401968 7.400612643853361 C48.666919413768156 7.669584253116823, 48.51543742556831 7.938555862380286, 48.31509670808554 8.294281092968399 M48.31509670808554 8.294281092968399 C48.11083296120908 8.60808506066676, 47.90656921433261 8.92188902836512, 47.7555685735513 9.15386656195471 M48.31509670808554 8.294281092968399 C48.151386508127125 8.545783922448525, 47.98767630816871 8.79728675192865, 47.7555685735513 9.15386656195471 M47.7555685735513 9.15386656195471 C47.554592306660716 9.423156450273519, 47.35361603977013 9.692446338592326, 47.14211621948848 9.975836829739734 M47.7555685735513 9.15386656195471 C47.55381578068356 9.424196924339943, 47.352062987815806 9.69452728672518, 47.14211621948848 9.975836829739734 M47.14211621948848 9.975836829739734 C46.96127291317997 10.188265667605352, 46.78042960687146 10.40069450547097, 46.477260453205055 10.756814244181063 M47.14211621948848 9.975836829739734 C46.88260757440414 10.280670450716022, 46.6230989293198 10.585504071692307, 46.477260453205055 10.756814244181063 M46.477260453205055 10.756814244181063 C46.27492781377548 10.965739306210734, 46.072595174345906 11.174664368240403, 45.763733309655784 11.493589601563638 M46.477260453205055 10.756814244181063 C46.25601958279942 10.985263607088148, 46.03477871239379 11.213712969995235, 45.763733309655784 11.493589601563638 M45.763733309655784 11.493589601563638 C45.53889769818195 11.697779355079883, 45.31406208670811 11.901969108596125, 45.00446682492463 12.183135333906142 M45.763733309655784 11.493589601563638 C45.487794477527274 11.744189947961331, 45.21185564539877 11.994790294359024, 45.00446682492463 12.183135333906142 M45.00446682492463 12.183135333906142 C44.82577767422742 12.325635176469167, 44.64708852353021 12.46813501903219, 44.20258098785946 12.822617949887304 M45.00446682492463 12.183135333906142 C44.757880852857 12.379781084701776, 44.51129488078937 12.57642683549741, 44.20258098785946 12.822617949887304 M44.20258098785946 12.822617949887304 C44.006090148558535 12.959681453432289, 43.80959930925761 13.096744956977274, 43.36137091936879 13.409409678269446 M44.20258098785946 12.822617949887304 C43.87097177541653 13.053934181356052, 43.539362562973594 13.2852504128248, 43.36137091936879 13.409409678269446 M43.36137091936879 13.409409678269446 C43.18051002768991 13.519048613661756, 42.99964913601104 13.628687549054066, 42.484293332063004 13.94109926597423 M43.36137091936879 13.409409678269446 C43.12452865898713 13.55298484835242, 42.887686398605474 13.696560018435394, 42.484293332063004 13.94109926597423 M42.484293332063004 13.94109926597423 C42.16939013528873 14.105384062026243, 41.85448693851446 14.269668858078257, 41.57495232588093 14.415501886438705 M42.484293332063004 13.94109926597423 C42.12982495315764 14.126025192201327, 41.77535657425227 14.310951118428424, 41.57495232588093 14.415501886438705 M41.57495232588093 14.415501886438705 C41.22799341541541 14.569090303931393, 40.88103450494989 14.722678721424083, 40.637084578069995 14.830668117536346 M41.57495232588093 14.415501886438705 C41.382946623670016 14.50049711516069, 41.190940921459095 14.585492343882672, 40.637084578069995 14.830668117536346 M40.637084578069995 14.830668117536346 C40.428406410048346 14.907463612368153, 40.2197282420267 14.984259107199959, 39.67454398837794 15.184891952170695 M40.637084578069995 14.830668117536346 C40.282474543287556 14.961167888315511, 39.92786450850511 15.091667659094679, 39.67454398837794 15.184891952170695 M39.67454398837794 15.184891952170695 C39.29652341998679 15.297086472598735, 38.91850285159563 15.409280993026774, 38.69128584255213 15.476717808624468 M39.67454398837794 15.184891952170695 C39.407093724422246 15.26426978663766, 39.13964346046656 15.343647621104628, 38.69128584255213 15.476717808624468 M38.69128584255213 15.476717808624468 C38.488932929134776 15.522903540635815, 38.28658001571742 15.56908927264716, 37.69135055922196 15.704946511857045 M38.69128584255213 15.476717808624468 C38.449192990558025 15.531973922288623, 38.207100138563916 15.587230035952778, 37.69135055922196 15.704946511857045 M37.69135055922196 15.704946511857045 C37.3751833893881 15.756061967962761, 37.059016219554245 15.80717742406848, 36.6788470869521 15.868640221171937 M37.69135055922196 15.704946511857045 C37.41146403111784 15.750196395168476, 37.13157750301372 15.795446278479908, 36.6788470869521 15.868640221171937 M36.6788470869521 15.868640221171937 C36.45723263108952 15.890019101198623, 36.23561817522693 15.911397981225308, 35.657936019691405 15.967126284005381 M36.6788470869521 15.868640221171937 C36.432741544961814 15.89238172682252, 36.18663600297153 15.916123232473106, 35.657936019691405 15.967126284005381 M35.657936019691405 15.967126284005381 C35.3993833902293 15.975417563590067, 35.1408307607672 15.983708843174753, 34.6328125 16 M35.657936019691405 15.967126284005381 C35.42854365833354 15.974482450548983, 35.199151296975664 15.981838617092585, 34.6328125 16 M34.6328125 16 C34.6328125 16, 34.6328125 16, 34.6328125 16 M34.6328125 16 C34.6328125 16, 34.6328125 16, 34.6328125 16 M34.6328125 16 C15.059535224237791 16, -4.513742051524417 16, -34.6328125 16 M34.6328125 16 C18.973751094795382 16, 3.314689689590761 16, -34.6328125 16 M-34.6328125 16 C-35.02828169480422 15.98731807265672, -35.423750889608435 15.974636145313438, -35.6579360196914 15.967126284005381 M-34.6328125 16 C-34.92727141396388 15.990557275758684, -35.22173032792776 15.98111455151737, -35.6579360196914 15.967126284005381 M-35.6579360196914 15.967126284005381 C-35.885990882823435 15.945126105635135, -36.11404574595548 15.923125927264888, -36.678847086952096 15.868640221171937 M-35.6579360196914 15.967126284005381 C-35.993704995023414 15.934735054776375, -36.32947397035544 15.90234382554737, -36.678847086952096 15.868640221171937 M-36.678847086952096 15.868640221171937 C-37.01077738964396 15.81497630399066, -37.34270769233583 15.761312386809381, -37.69135055922196 15.704946511857045 M-36.678847086952096 15.868640221171937 C-36.89375897393539 15.833894933951052, -37.10867086091869 15.799149646730168, -37.69135055922196 15.704946511857045 M-37.69135055922196 15.704946511857045 C-38.063713255049485 15.619957156428088, -38.43607595087701 15.53496780099913, -38.69128584255211 15.476717808624471 M-37.69135055922196 15.704946511857045 C-37.968246657276346 15.641746784392035, -38.24514275533074 15.578547056927025, -38.69128584255211 15.476717808624471 M-38.69128584255211 15.476717808624471 C-38.903749979616165 15.413659567990875, -39.11621411668021 15.350601327357278, -39.67454398837792 15.184891952170702 M-38.69128584255211 15.476717808624471 C-38.96432449393308 15.395681370103729, -39.23736314531405 15.314644931582984, -39.67454398837792 15.184891952170702 M-39.67454398837792 15.184891952170702 C-39.98967207566592 15.068921903036612, -40.304800162953924 14.95295185390252, -40.63708457806999 14.830668117536348 M-39.67454398837792 15.184891952170702 C-39.97686440135617 15.073635245575444, -40.27918481433442 14.962378538980186, -40.63708457806999 14.830668117536348 M-40.63708457806999 14.830668117536348 C-40.830748987956035 14.744938628130399, -41.02441339784208 14.659209138724451, -41.57495232588093 14.415501886438708 M-40.63708457806999 14.830668117536348 C-40.9657769010987 14.685165776442872, -41.29446922412741 14.539663435349397, -41.57495232588093 14.415501886438708 M-41.57495232588093 14.415501886438708 C-41.880202436733605 14.256253099128894, -42.18545254758628 14.09700431181908, -42.484293332063 13.941099265974234 M-41.57495232588093 14.415501886438708 C-41.8286334066446 14.283156629094789, -42.08231448740827 14.15081137175087, -42.484293332063 13.941099265974234 M-42.484293332063 13.941099265974234 C-42.68793084845867 13.817653006828296, -42.89156836485435 13.694206747682358, -43.36137091936877 13.409409678269457 M-42.484293332063 13.941099265974234 C-42.74850090005897 13.78093508559906, -43.01270846805495 13.620770905223887, -43.36137091936877 13.409409678269457 M-43.36137091936877 13.409409678269457 C-43.568994351845525 13.264580559647206, -43.776617784322276 13.119751441024954, -44.202580987859456 12.822617949887308 M-43.36137091936877 13.409409678269457 C-43.5481420364052 13.279126232216186, -43.73491315344164 13.148842786162914, -44.202580987859456 12.822617949887308 M-44.202580987859456 12.822617949887308 C-44.49445639543795 12.589855079474251, -44.78633180301645 12.357092209061193, -45.00446682492461 12.183135333906154 M-44.202580987859456 12.822617949887308 C-44.39883808297946 12.66610813914974, -44.59509517809947 12.509598328412173, -45.00446682492461 12.183135333906154 M-45.00446682492461 12.183135333906154 C-45.257185911788405 11.953622545797082, -45.5099049986522 11.724109757688009, -45.76373330965578 11.493589601563649 M-45.00446682492461 12.183135333906154 C-45.239426641845824 11.9697510448744, -45.47438645876704 11.756366755842643, -45.76373330965578 11.493589601563649 M-45.76373330965578 11.493589601563649 C-45.96676870853606 11.2839388827035, -46.16980410741633 11.074288163843354, -46.47726045320505 10.756814244181069 M-45.76373330965578 11.493589601563649 C-46.03679713440465 11.21162878355349, -46.30986095915352 10.92966796554333, -46.47726045320505 10.756814244181069 M-46.47726045320505 10.756814244181069 C-46.70380368815009 10.490703669739375, -46.930346923095136 10.224593095297681, -47.14211621948847 9.97583682973974 M-46.47726045320505 10.756814244181069 C-46.62103677122453 10.587926399931126, -46.764813089244015 10.419038555681185, -47.14211621948847 9.97583682973974 M-47.14211621948847 9.97583682973974 C-47.26927926777206 9.805449929831745, -47.396442316055655 9.63506302992375, -47.75556857355129 9.15386656195472 M-47.14211621948847 9.97583682973974 C-47.26737573361989 9.808000492180128, -47.392635247751315 9.640164154620516, -47.75556857355129 9.15386656195472 M-47.75556857355129 9.15386656195472 C-47.86942944563578 8.978945686507746, -47.98329031772028 8.80402481106077, -48.315096708085534 8.29428109296841 M-47.75556857355129 9.15386656195472 C-47.94287744189403 8.86610984070652, -48.13018631023679 8.578353119458319, -48.315096708085534 8.29428109296841 M-48.315096708085534 8.29428109296841 C-48.44893857549267 8.056631304428333, -48.58278044289981 7.818981515888255, -48.818401401968 7.400612643853366 M-48.315096708085534 8.29428109296841 C-48.44727018987963 8.059593692026645, -48.57944367167373 7.824906291084881, -48.818401401968 7.400612643853366 M-48.818401401968 7.400612643853366 C-48.9398793392452 7.148361107885795, -49.06135727652239 6.896109571918224, -49.263414468252996 6.476533489958307 M-48.818401401968 7.400612643853366 C-48.9861630441345 7.052252004370517, -49.153924686301 6.703891364887666, -49.263414468252996 6.476533489958307 M-49.263414468252996 6.476533489958307 C-49.341746852261174 6.283050987004485, -49.42007923626936 6.0895684840506625, -49.648307252796165 5.525840870740931 M-49.263414468252996 6.476533489958307 C-49.38403057969147 6.178609362751405, -49.50464669112994 5.880685235544504, -49.648307252796165 5.525840870740931 M-49.648307252796165 5.525840870740931 C-49.75234539554626 5.212494561004599, -49.85638353829635 4.899148251268266, -49.97149814858657 4.552441386096519 M-49.648307252796165 5.525840870740931 C-49.71712706289952 5.318566567657288, -49.78594687300288 5.111292264573644, -49.97149814858657 4.552441386096519 M-49.97149814858657 4.552441386096519 C-50.02432570170793 4.350987030438414, -50.07715325482929 4.149532674780309, -50.231659094909176 3.5603349433010343 M-49.97149814858657 4.552441386096519 C-50.043035151657165 4.279639789055073, -50.11457215472777 4.006838192013627, -50.231659094909176 3.5603349433010343 M-50.231659094909176 3.5603349433010343 C-50.298963757216285 3.214739727199448, -50.366268419523394 2.869144511097862, -50.427721034631205 2.5535983205340753 M-50.231659094909176 3.5603349433010343 C-50.28719262186546 3.275182019395607, -50.34272614882174 2.99002909549018, -50.427721034631205 2.5535983205340753 M-50.427721034631205 2.5535983205340753 C-50.46992248048202 2.2262922401332297, -50.51212392633283 1.898986159732384, -50.55887830718717 1.5363684145229202 M-50.427721034631205 2.5535983205340753 C-50.46592405565232 2.2573032335340835, -50.504127076673434 1.961008146534092, -50.55887830718717 1.5363684145229202 M-50.55887830718717 1.5363684145229202 C-50.572130037463424 1.329962018866078, -50.58538176773968 1.1235556232092359, -50.624591959211 0.5128252411464846 M-50.55887830718717 1.5363684145229202 C-50.57519827958049 1.2821716712523463, -50.59151825197381 1.0279749279817727, -50.624591959211 0.5128252411464846 M-50.624591959211 0.5128252411464846 C-50.624591959211 0.10952292476383252, -50.624591959211 -0.2937793916188196, -50.624591959211 -0.5128252411464769 M-50.624591959211 0.5128252411464846 C-50.624591959211 0.23480971336172363, -50.624591959211 -0.04320581442303739, -50.624591959211 -0.5128252411464769 M-50.624591959211 -0.5128252411464769 C-50.60397263808489 -0.8339878113021788, -50.58335331695877 -1.1551503814578807, -50.55887830718717 -1.5363684145228982 M-50.624591959211 -0.5128252411464769 C-50.60228795926362 -0.8602280437916954, -50.57998395931624 -1.2076308464369139, -50.55887830718717 -1.5363684145228982 M-50.55887830718717 -1.5363684145228982 C-50.51499945810936 -1.8766841031116461, -50.47112060903154 -2.216999791700394, -50.427721034631205 -2.5535983205340678 M-50.55887830718717 -1.5363684145228982 C-50.525922267486955 -1.7919689505316592, -50.49296622778674 -2.04756948654042, -50.427721034631205 -2.5535983205340678 M-50.427721034631205 -2.5535983205340678 C-50.371918126940564 -2.840134457576781, -50.31611521924992 -3.1266705946194935, -50.231659094909176 -3.5603349433010267 M-50.427721034631205 -2.5535983205340678 C-50.37149906116617 -2.8422862717587303, -50.315277087701126 -3.130974222983393, -50.231659094909176 -3.5603349433010267 M-50.231659094909176 -3.5603349433010267 C-50.165959148722244 -3.8108773126485946, -50.10025920253532 -4.0614196819961625, -49.971498148586576 -4.552441386096511 M-50.231659094909176 -3.5603349433010267 C-50.17708525604864 -3.7684486433276203, -50.122511417188115 -3.976562343354214, -49.971498148586576 -4.552441386096511 M-49.971498148586576 -4.552441386096511 C-49.848154014301016 -4.923934266345637, -49.72480988001546 -5.295427146594762, -49.64830725279617 -5.525840870740911 M-49.971498148586576 -4.552441386096511 C-49.8716095412425 -4.853289956328594, -49.77172093389843 -5.154138526560677, -49.64830725279617 -5.525840870740911 M-49.64830725279617 -5.525840870740911 C-49.539819033141285 -5.793808870765529, -49.43133081348639 -6.061776870790147, -49.263414468253 -6.476533489958299 M-49.64830725279617 -5.525840870740911 C-49.49757757289795 -5.898146094249625, -49.34684789299973 -6.270451317758339, -49.263414468253 -6.476533489958299 M-49.263414468253 -6.476533489958299 C-49.16256067052097 -6.6859585588744475, -49.06170687278893 -6.895383627790595, -48.818401401968 -7.400612643853359 M-49.263414468253 -6.476533489958299 C-49.168735013032745 -6.673137404538978, -49.074055557812486 -6.869741319119657, -48.818401401968 -7.400612643853359 M-48.818401401968 -7.400612643853359 C-48.659457410943084 -7.6828337947424545, -48.500513419918164 -7.965054945631549, -48.315096708085534 -8.294281092968404 M-48.818401401968 -7.400612643853359 C-48.646291548732805 -7.706211116284918, -48.47418169549761 -8.011809588716478, -48.315096708085534 -8.294281092968404 M-48.315096708085534 -8.294281092968404 C-48.171702445441255 -8.514573187140986, -48.028308182796984 -8.734865281313567, -47.755568573551294 -9.153866561954715 M-48.315096708085534 -8.294281092968404 C-48.15812247103128 -8.535435674568442, -48.00114823397701 -8.77659025616848, -47.755568573551294 -9.153866561954715 M-47.755568573551294 -9.153866561954715 C-47.519126269865446 -9.470677708556757, -47.2826839661796 -9.787488855158799, -47.14211621948848 -9.975836829739734 M-47.755568573551294 -9.153866561954715 C-47.549362650222825 -9.430163713468785, -47.343156726894364 -9.706460864982855, -47.14211621948848 -9.975836829739734 M-47.14211621948848 -9.975836829739734 C-46.92401872727554 -10.232026554191924, -46.7059212350626 -10.488216278644115, -46.477260453205055 -10.756814244181063 M-47.14211621948848 -9.975836829739734 C-46.925162781030274 -10.230682683553109, -46.70820934257207 -10.485528537366484, -46.477260453205055 -10.756814244181063 M-46.477260453205055 -10.756814244181063 C-46.28471324483668 -10.955635045241213, -46.092166036468306 -11.15445584630136, -45.76373330965579 -11.493589601563633 M-46.477260453205055 -10.756814244181063 C-46.20553474818198 -11.037393343712658, -45.93380904315892 -11.317972443244251, -45.76373330965579 -11.493589601563633 M-45.76373330965579 -11.493589601563633 C-45.5453197433167 -11.691947023606504, -45.32690617697761 -11.890304445649376, -45.00446682492463 -12.18313533390614 M-45.76373330965579 -11.493589601563633 C-45.568733796960835 -11.670682999588811, -45.37373428426588 -11.847776397613991, -45.00446682492463 -12.18313533390614 M-45.00446682492463 -12.18313533390614 C-44.83941358360003 -12.314760901611296, -44.67436034227542 -12.446386469316453, -44.20258098785946 -12.822617949887302 M-45.00446682492463 -12.18313533390614 C-44.83879831758115 -12.31525155988843, -44.67312981023768 -12.447367785870721, -44.20258098785946 -12.822617949887302 M-44.20258098785946 -12.822617949887302 C-43.92014165710105 -13.019635400422802, -43.637702326342634 -13.216652850958301, -43.36137091936879 -13.409409678269444 M-44.20258098785946 -12.822617949887302 C-43.87284829204948 -13.052625204585995, -43.54311559623951 -13.282632459284688, -43.36137091936879 -13.409409678269444 M-43.36137091936879 -13.409409678269444 C-43.10445151970873 -13.565155728169351, -42.847532120048676 -13.720901778069257, -42.484293332063004 -13.941099265974229 M-43.36137091936879 -13.409409678269444 C-43.097756775621235 -13.569214121377874, -42.83414263187368 -13.729018564486305, -42.484293332063004 -13.941099265974229 M-42.484293332063004 -13.941099265974229 C-42.18600903582328 -14.096713992262282, -41.88772473958356 -14.252328718550338, -41.574952325880936 -14.415501886438705 M-42.484293332063004 -13.941099265974229 C-42.1476656798167 -14.116717696530825, -41.81103802757039 -14.292336127087422, -41.574952325880936 -14.415501886438705 M-41.574952325880936 -14.415501886438705 C-41.229629368896745 -14.568366115854042, -40.88430641191256 -14.721230345269381, -40.637084578069995 -14.830668117536344 M-41.574952325880936 -14.415501886438705 C-41.26531085610257 -14.552570979921734, -40.95566938632421 -14.689640073404766, -40.637084578069995 -14.830668117536344 M-40.637084578069995 -14.830668117536344 C-40.380564469781426 -14.925069888632427, -40.12404436149285 -15.019471659728508, -39.67454398837794 -15.184891952170695 M-40.637084578069995 -14.830668117536344 C-40.397263913388414 -14.918924339017089, -40.157443248706834 -15.007180560497835, -39.67454398837794 -15.184891952170695 M-39.67454398837794 -15.184891952170695 C-39.34588216587342 -15.282437055908927, -39.0172203433689 -15.379982159647158, -38.69128584255213 -15.476717808624466 M-39.67454398837794 -15.184891952170695 C-39.361113320801195 -15.277916529076327, -39.04768265322444 -15.37094110598196, -38.69128584255213 -15.476717808624466 M-38.69128584255213 -15.476717808624466 C-38.299932932571664 -15.566041556511104, -37.9085800225912 -15.655365304397742, -37.691350559221966 -15.704946511857043 M-38.69128584255213 -15.476717808624466 C-38.414276169311044 -15.539943458884693, -38.137266496069955 -15.603169109144918, -37.691350559221966 -15.704946511857043 M-37.691350559221966 -15.704946511857043 C-37.33869390848413 -15.761961304255165, -36.98603725774629 -15.818976096653287, -36.6788470869521 -15.868640221171937 M-37.691350559221966 -15.704946511857043 C-37.35457981847179 -15.75939299352543, -37.017809077721616 -15.81383947519382, -36.6788470869521 -15.868640221171937 M-36.6788470869521 -15.868640221171937 C-36.35675647170837 -15.89971191545386, -36.03466585646464 -15.930783609735784, -35.657936019691405 -15.967126284005381 M-36.6788470869521 -15.868640221171937 C-36.272381717016785 -15.90785144656347, -35.865916347081466 -15.947062671955, -35.657936019691405 -15.967126284005381 M-35.657936019691405 -15.967126284005381 C-35.27330017304704 -15.979460806959008, -34.888664326402676 -15.991795329912636, -34.63281250000001 -16 M-35.657936019691405 -15.967126284005381 C-35.286557702369244 -15.97903566379786, -34.91517938504708 -15.99094504359034, -34.63281250000001 -16 M-34.63281250000001 -16 C-34.63281250000001 -16, -34.63281250000001 -16, -34.6328125 -16 M-34.63281250000001 -16 C-34.63281250000001 -16, -34.6328125 -16, -34.6328125 -16" stroke="#999" stroke-width="1.3" fill="none" stroke-dasharray="0 0" style=""/></g><g class="label" style="" transform="translate(0, -8.5)"><rect/><g><rect class="background" style="stroke: none"/><text y="-10.1" style=""><tspan class="text-outer-tspan row" x="0" y="-0.1em" dy="1.1em"><tspan font-style="normal" class="text-inner-tspan" font-weight="normal">Vnos</tspan><tspan font-style="normal" class="text-inner-tspan" font-weight="normal"> ISBN</tspan></tspan></text></g></g></g><g class="node default" id="my-svg-flowchart-B-1" data-look="classic" transform="translate(183.90234375, 113.5)"><rect class="basic label-container" style="" x="-102.9140625" y="-23.5" width="205.828125" height="47"/><g class="label" style="" transform="translate(0, -8.5)"><rect/><g><rect class="background" style="stroke: none"/><text y="-10.1" style=""><tspan class="text-outer-tspan row" x="0" y="-0.1em" dy="1.1em"><tspan font-style="normal" class="text-inner-tspan" font-weight="normal">Normaliziraj</tspan><tspan font-style="normal" class="text-inner-tspan" font-weight="normal"> in</tspan><tspan font-style="normal" class="text-inner-tspan" font-weight="normal"> potrdi</tspan></tspan></text></g></g></g><g class="node default" id="my-svg-flowchart-C-3" data-look="classic" transform="translate(183.90234375, 274.9445343017578)"><polygon points="87.94453048706055,0 175.8890609741211,-87.94453048706055 87.94453048706055,-175.8890609741211 0,-87.94453048706055" class="label-container" transform="translate(-87.44453048706055, 87.94453048706055)"/><g class="label" style="" transform="translate(0, -17.299999237060547)"><rect/><g><rect class="background" style="stroke: none"/><text y="-10.1" style=""><tspan class="text-outer-tspan row" x="0" y="-0.1em" dy="1.1em"><tspan font-style="normal" class="text-inner-tspan" font-weight="normal">Kontrolna</tspan><tspan font-style="normal" class="text-inner-tspan" font-weight="normal"> vsota</tspan></tspan><tspan class="text-outer-tspan row" x="0" y="1em" dy="1.1em"><tspan font-style="normal" class="text-inner-tspan" font-weight="normal">veljavna?</tspan></tspan></text></g></g></g><g class="node default" id="my-svg-flowchart-D-5" data-look="classic" transform="translate(254.203125, 957.6351699829102)"><rect class="basic label-container" style="fill:#ffebee !important;stroke:#c62828 !important" x="-82.52734375" y="-23.5" width="165.0546875" height="47"/><g class="label" style="" transform="translate(0, -8.5)"><rect/><g><rect class="background" style="stroke: none"/><text y="-10.1" style=""><tspan class="text-outer-tspan row" x="0" y="-0.1em" dy="1.1em"><tspan font-style="normal" class="text-inner-tspan" font-weight="normal">Prikaži</tspan><tspan font-style="normal" class="text-inner-tspan" font-weight="normal"> napako</tspan></tspan></text></g></g></g><g class="node default" id="my-svg-flowchart-E-7" data-look="classic" transform="translate(294.328125, 1141.3172035217285)"><rect class="basic label-container" style="fill:#fff3e0 !important;stroke:#e65100 !important" x="-86.9296875" y="-32.29999923706055" width="173.859375" height="64.5999984741211"/><g class="label" style="" transform="translate(0, -17.299999237060547)"><rect/><g><rect class="background" style="stroke: none"/><text y="-10.1" style=""><tspan class="text-outer-tspan row" x="0" y="-0.1em" dy="1.1em"><tspan font-style="normal" class="text-inner-tspan" font-weight="normal">Ročni</tspan><tspan font-style="normal" class="text-inner-tspan" font-weight="normal"> vnos</tspan></tspan><tspan class="text-outer-tspan row" x="0" y="1em" dy="1.1em"><tspan font-style="normal" class="text-inner-tspan" font-weight="normal">(vedno</tspan><tspan font-style="normal" class="text-inner-tspan" font-weight="normal"> na</tspan><tspan font-style="normal" class="text-inner-tspan" font-weight="normal"> voljo)</tspan></tspan></text></g></g></g><g class="node default" id="my-svg-flowchart-F-9" data-look="classic" transform="translate(113.6015625, 457.3890686035156)"><rect class="basic label-container" style="" x="-105.6015625" y="-23.5" width="211.203125" height="47"/><g class="label" style="" transform="translate(0, -8.5)"><rect/><g><rect class="background" style="stroke: none"/><text y="-10.1" style=""><tspan class="text-outer-tspan row" x="0" y="-0.1em" dy="1.1em"><tspan font-style="normal" class="text-inner-tspan" font-weight="normal">Vprašaj</tspan><tspan font-style="normal" class="text-inner-tspan" font-weight="normal"> Open</tspan><tspan font-style="normal" class="text-inner-tspan" font-weight="normal"> Library</tspan></tspan></text></g></g></g><g class="node default" id="my-svg-flowchart-G-11" data-look="classic" transform="translate(113.6015625, 611.2711029052734)"><polygon points="80.38203048706055,0 160.7640609741211,-80.38203048706055 80.38203048706055,-160.7640609741211 0,-80.38203048706055" class="label-container" transform="translate(-79.88203048706055, 80.38203048706055)"/><g class="label" style="" transform="translate(0, -17.299999237060547)"><rect/><g><rect class="background" style="stroke: none"/><text y="-10.1" style=""><tspan class="text-outer-tspan row" x="0" y="-0.1em" dy="1.1em"><tspan font-style="normal" class="text-inner-tspan" font-weight="normal">Uporabni</tspan></tspan><tspan class="text-outer-tspan row" x="0" y="1em" dy="1.1em"><tspan font-style="normal" class="text-inner-tspan" font-weight="normal">metapodatki?</tspan></tspan></text></g></g></g><g class="node default" id="my-svg-flowchart-H-13" data-look="classic" transform="translate(113.6015625, 794.9531364440918)"><rect class="basic label-container" style="fill:#e8f5e9 !important;stroke:#2e7d32 !important" x="-92.45703125" y="-32.29999923706055" width="184.9140625" height="64.5999984741211"/><g class="label" style="" transform="translate(0, -17.299999237060547)"><rect/><g><rect class="background" style="stroke: none"/><text y="-10.1" style=""><tspan class="text-outer-tspan row" x="0" y="-0.1em" dy="1.1em"><tspan font-style="normal" class="text-inner-tspan" font-weight="normal">Vrni</tspan><tspan font-style="normal" class="text-inner-tspan" font-weight="normal"> metapodatke</tspan></tspan><tspan class="text-outer-tspan row" x="0" y="1em" dy="1.1em"><tspan font-style="normal" class="text-inner-tspan" font-weight="normal">Vir:</tspan><tspan font-style="normal" class="text-inner-tspan" font-weight="normal"> Open</tspan><tspan font-style="normal" class="text-inner-tspan" font-weight="normal"> Library</tspan></tspan></text></g></g></g><g class="node default" id="my-svg-flowchart-I-15" data-look="classic" transform="translate(516.4195327758789, 794.9531364440918)"><rect class="basic label-container" style="" x="-110.5" y="-32.29999923706055" width="221" height="64.5999984741211"/><g class="label" style="" transform="translate(0, -17.299999237060547)"><rect/><g><rect class="background" style="stroke: none"/><text y="-10.1" style=""><tspan class="text-outer-tspan row" x="0" y="-0.1em" dy="1.1em"><tspan font-style="normal" class="text-inner-tspan" font-weight="normal">Poizvedi</tspan><tspan font-style="normal" class="text-inner-tspan" font-weight="normal"> pri</tspan><tspan font-style="normal" class="text-inner-tspan" font-weight="normal"> Let</tspan><tspan font-style="normal" class="text-inner-tspan" font-weight="normal"> Books</tspan></tspan><tspan class="text-outer-tspan row" x="0" y="1em" dy="1.1em"><tspan font-style="normal" class="text-inner-tspan" font-weight="normal">metapodatkovnem</tspan><tspan font-style="normal" class="text-inner-tspan" font-weight="normal"> API</tspan></tspan></text></g></g></g><g class="node default" id="my-svg-flowchart-J-17" data-look="classic" transform="translate(516.4195327758789, 957.6351699829102)"><polygon points="80.38203048706055,0 160.7640609741211,-80.38203048706055 80.38203048706055,-160.7640609741211 0,-80.38203048706055" class="label-container" transform="translate(-79.88203048706055, 80.38203048706055)"/><g class="label" style="" transform="translate(0, -17.299999237060547)"><rect/><g><rect class="background" style="stroke: none"/><text y="-10.1" style=""><tspan class="text-outer-tspan row" x="0" y="-0.1em" dy="1.1em"><tspan font-style="normal" class="text-inner-tspan" font-weight="normal">Uporabni</tspan></tspan><tspan class="text-outer-tspan row" x="0" y="1em" dy="1.1em"><tspan font-style="normal" class="text-inner-tspan" font-weight="normal">metapodatki?</tspan></tspan></text></g></g></g><g class="node default" id="my-svg-flowchart-K-19" data-look="classic" transform="translate(562.6832046508789, 1141.3172035217285)"><rect class="basic label-container" style="fill:#e8f5e9 !important;stroke:#2e7d32 !important" x="-94.34375" y="-32.29999923706055" width="188.6875" height="64.5999984741211"/><g class="label" style="" transform="translate(0, -17.299999237060547)"><rect/><g><rect class="background" style="stroke: none"/><text y="-10.1" style=""><tspan class="text-outer-tspan row" x="0" y="-0.1em" dy="1.1em"><tspan font-style="normal" class="text-inner-tspan" font-weight="normal">Vrni</tspan><tspan font-style="normal" class="text-inner-tspan" font-weight="normal"> metapodatke</tspan></tspan><tspan class="text-outer-tspan row" x="0" y="1em" dy="1.1em"><tspan font-style="normal" class="text-inner-tspan" font-weight="normal">Vir:</tspan><tspan font-style="normal" class="text-inner-tspan" font-weight="normal"> Let</tspan><tspan font-style="normal" class="text-inner-tspan" font-weight="normal"> Books</tspan><tspan font-style="normal" class="text-inner-tspan" font-weight="normal"> API</tspan></tspan></text></g></g></g></g></g></g><defs><filter id="my-svg-drop-shadow" height="130%" width="130%"><feDropShadow dx="4" dy="4" stdDeviation="0" flood-opacity="0.06" flood-color="#000000"/></filter></defs><defs><filter id="my-svg-drop-shadow-small" height="150%" width="150%"><feDropShadow dx="2" dy="2" stdDeviation="0" flood-opacity="0.06" flood-color="#000000"/></filter></defs><linearGradient id="my-svg-gradient" gradientUnits="objectBoundingBox" x1="0%" y1="0%" x2="100%" y2="0%"><stop offset="0%" stop-color="hsl(0, 0%, 83.3333333333%)" stop-opacity="1"/><stop offset="100%" stop-color="hsl(0, 0%, 88.9215686275%)" stop-opacity="1"/></linearGradient><text text-anchor="middle" x="332.51348876953125" y="-25" class="flowchartTitleText">Veriga iskanja metapodatkov ISBN</text></svg>