<svg id="my-svg" width="100%" xmlns="http://www.w3.org/2000/svg" xmlns:xlink="http://www.w3.org/1999/xlink" class="flowchart" style="max-width: 715.508px; background-color: transparent;" viewBox="0 -49 715.5078125 1327.3125" role="graphics-document document" aria-roledescription="flowchart-v2"><style>#my-svg{font-family:"trebuchet ms",verdana,arial,sans-serif;font-size:16px;fill:#000000;}@keyframes edge-animation-frame{from{stroke-dashoffset:0;}}@keyframes dash{to{stroke-dashoffset:0;}}#my-svg .edge-animation-slow{stroke-dasharray:9,5!important;stroke-dashoffset:900;animation:dash 50s linear infinite;stroke-linecap:round;}#my-svg .edge-animation-fast{stroke-dasharray:9,5!important;stroke-dashoffset:900;animation:dash 20s linear infinite;stroke-linecap:round;}#my-svg .error-icon{fill:#552222;}#my-svg .error-text{fill:#552222;stroke:#552222;}#my-svg .edge-thickness-normal{stroke-width:1px;}#my-svg .edge-thickness-thick{stroke-width:3.5px;}#my-svg .edge-pattern-solid{stroke-dasharray:0;}#my-svg .edge-thickness-invisible{stroke-width:0;fill:none;}#my-svg .edge-pattern-dashed{stroke-dasharray:3;}#my-svg .edge-pattern-dotted{stroke-dasharray:2;}#my-svg .marker{fill:#666;stroke:#666;}#my-svg .marker.cross{stroke:#666;}#my-svg svg{font-family:"trebuchet ms",verdana,arial,sans-serif;font-size:16px;}#my-svg p{margin:0;}#my-svg .label{font-family:"trebuchet ms",verdana,arial,sans-serif;color:#000000;}#my-svg .cluster-label text{fill:#333;}#my-svg .cluster-label span{color:#333;}#my-svg .cluster-label span p{background-color:transparent;}#my-svg .label text,#my-svg span{fill:#000000;color:#000000;}#my-svg .node rect,#my-svg .node circle,#my-svg .node ellipse,#my-svg .node polygon,#my-svg .node path{fill:#eee;stroke:#999;stroke-width:1px;}#my-svg .rough-node .label text,#my-svg .node .label text,#my-svg .image-shape .label,#my-svg .icon-shape .label{text-anchor:middle;}#my-svg .node .katex path{fill:#000;stroke:#000;stroke-width:1px;}#my-svg .rough-node .label,#my-svg .node .label,#my-svg .image-shape .label,#my-svg .icon-shape .label{text-align:center;}#my-svg .node.clickable{cursor:pointer;}#my-svg .root .anchor path{fill:#666!important;stroke-width:0;stroke:#666;}#my-svg .arrowheadPath{fill:#333333;}#my-svg .edgePath .path{stroke:#666;stroke-width:1px;}#my-svg .flowchart-link{stroke:#666;fill:none;}#my-svg .edgeLabel{background-color:white;text-align:center;}#my-svg .edgeLabel p{background-color:white;}#my-svg .edgeLabel rect{opacity:0.5;background-color:white;fill:white;}#my-svg .labelBkg{background-color:rgba(255, 255, 255, 0.5);}#my-svg .cluster rect{fill:hsl(0, 0%, 98.9215686275%);stroke:#707070;stroke-width:1px;}#my-svg .cluster text{fill:#333;}#my-svg .cluster span{color:#333;}#my-svg div.mermaidTooltip{position:absolute;text-align:center;max-width:200px;padding:2px;font-family:"trebuchet ms",verdana,arial,sans-serif;font-size:12px;background:hsl(-160, 0%, 93.3333333333%);border:1px solid #707070;border-radius:2px;pointer-events:none;z-index:100;}#my-svg .flowchartTitleText{text-anchor:middle;font-size:18px;fill:#000000;}#my-svg rect.text{fill:none;stroke-width:0;}#my-svg .icon-shape,#my-svg .image-shape{background-color:white;text-align:center;}#my-svg .icon-shape p,#my-svg .image-shape p{background-color:white;padding:2px;}#my-svg .icon-shape .label rect,#my-svg .image-shape .label rect{opacity:0.5;background-color:white;fill:white;}#my-svg .label-icon{display:inline-block;height:1em;overflow:visible;vertical-align:-0.125em;}#my-svg .node .label-icon path{fill:currentColor;stroke:revert;stroke-width:revert;}#my-svg .node .neo-node{stroke:#999;}#my-svg [data-look="neo"].node rect,#my-svg [data-look="neo"].cluster rect,#my-svg [data-look="neo"].node polygon{stroke:url(#my-svg-gradient);filter:drop-shadow( 1px 2px 2px rgba(185,185,185,1));}#my-svg [data-look="neo"].node path{stroke:url(#my-svg-gradient);stroke-width:1px;}#my-svg [data-look="neo"].node .outer-path{filter:drop-shadow( 1px 2px 2px rgba(185,185,185,1));}#my-svg [data-look="neo"].node .neo-line path{stroke:#999;filter:none;}#my-svg [data-look="neo"].node circle{stroke:url(#my-svg-gradient);filter:drop-shadow( 1px 2px 2px rgba(185,185,185,1));}#my-svg [data-look="neo"].node circle .state-start{fill:#000000;}#my-svg [data-look="neo"].icon-shape .icon{fill:url(#my-svg-gradient);filter:drop-shadow( 1px 2px 2px rgba(185,185,185,1));}#my-svg [data-look="neo"].icon-shape .icon-neo path{stroke:url(#my-svg-gradient);filter:drop-shadow( 1px 2px 2px rgba(185,185,185,1));}#my-svg :root{--mermaid-font-family:"trebuchet ms",verdana,arial,sans-serif;}</style><g><marker id="my-svg_flowchart-v2-pointEnd" class="marker flowchart-v2" viewBox="0 0 10 10" refX="5" refY="5" markerUnits="userSpaceOnUse" markerWidth="8" markerHeight="8" orient="auto"><path d="M 0 0 L 10 5 L 0 10 z" class="arrowMarkerPath" style="stroke-width: 1; stroke-dasharray: 1, 0;"/></marker><marker id="my-svg_flowchart-v2-pointStart" class="marker flowchart-v2" viewBox="0 0 10 10" refX="4.5" refY="5" markerUnits="userSpaceOnUse" markerWidth="8" markerHeight="8" orient="auto"><path d="M 0 5 L 10 10 L 10 0 z" class="arrowMarkerPath" style="stroke-width: 1; stroke-dasharray: 1, 0;"/></marker><marker id="my-svg_flowchart-v2-pointEnd-margin" class="marker flowchart-v2" viewBox="0 0 11.5 14" refX="11.5" refY="7" markerUnits="userSpaceOnUse" markerWidth="10.5" markerHeight="14" orient="auto"><path d="M 0 0 L 11.5 7 L 0 14 z" class="arrowMarkerPath" style="stroke-width: 0; stroke-dasharray: 1, 0;"/></marker><marker id="my-svg_flowchart-v2-pointStart-margin" class="marker flowchart-v2" viewBox="0 0 11.5 14" refX="1" refY="7" markerUnits="userSpaceOnUse" markerWidth="11.5" markerHeight="14" orient="auto"><polygon points="0,7 11.5,14 11.5,0" class="arrowMarkerPath" style="stroke-width: 0; stroke-dasharray: 1, 0;"/></marker><marker id="my-svg_flowchart-v2-circleEnd" class="marker flowchart-v2" viewBox="0 0 10 10" refX="11" refY="5" markerUnits="userSpaceOnUse" markerWidth="11" markerHeight="11" orient="auto"><circle cx="5" cy="5" r="5" class="arrowMarkerPath" style="stroke-width: 1; stroke-dasharray: 1, 0;"/></marker><marker id="my-svg_flowchart-v2-circleStart" class="marker flowchart-v2" viewBox="0 0 10 10" refX="-1" refY="5" markerUnits="userSpaceOnUse" markerWidth="11" markerHeight="11" orient="auto"><circle cx="5" cy="5" r="5" class="arrowMarkerPath" style="stroke-width: 1; stroke-dasharray: 1, 0;"/></marker><marker id="my-svg_flowchart-v2-circleEnd-margin" class="marker flowchart-v2" viewBox="0 0 10 10" refY="5" refX="12.25" markerUnits="userSpaceOnUse" markerWidth="14" markerHeight="14" orient="auto"><circle cx="5" cy="5" r="5" class="arrowMarkerPath" style="stroke-width: 0; stroke-dasharray: 1, 0;"/></marker><marker id="my-svg_flowchart-v2-circleStart-margin" class="marker flowchart-v2" viewBox="0 0 10 10" refX="-2" refY="5" markerUnits="userSpaceOnUse" markerWidth="14" markerHeight="14" orient="auto"><circle cx="5" cy="5" r="5" class="arrowMarkerPath" style="stroke-width: 0; stroke-dasharray: 1, 0;"/></marker><marker id="my-svg_flowchart-v2-crossEnd" class="marker cross flowchart-v2" viewBox="0 0 11 11" refX="12" refY="5.2" markerUnits="userSpaceOnUse" markerWidth="11" markerHeight="11" orient="auto"><path d="M 1,1 l 9,9 M 10,1 l -9,9" class="arrowMarkerPath" style="stroke-width: 2; stroke-dasharray: 1, 0;"/></marker><marker id="my-svg_flowchart-v2-crossStart" class="marker cross flowchart-v2" viewBox="0 0 11 11" refX="-1" refY="5.2" markerUnits="userSpaceOnUse" markerWidth="11" markerHeight="11" orient="auto"><path d="M 1,1 l 9,9 M 10,1 l -9,9" class="arrowMarkerPath" style="stroke-width: 2; stroke-dasharray: 1, 0;"/></marker><marker id="my-svg_flowchart-v2-crossEnd-margin" class="marker cross flowchart-v2" viewBox="0 0 15 15" refX="17.7" refY="7.5" markerUnits="userSpaceOnUse" markerWidth="12" markerHeight="12" orient="auto"><path d="M 1,1 L 14,14 M 1,14 L 14,1" class="arrowMarkerPath" style="stroke-width: 2.5;"/></marker><marker id="my-svg_flowchart-v2-crossStart-margin" class="marker cross flowchart-v2" viewBox="0 0 15 15" refX="-3.5" refY="7.5" markerUnits="userSpaceOnUse" markerWidth="12" markerHeight="12" orient="auto"><path d="M 1,1 L 14,14 M 1,14 L 14,1" class="arrowMarkerPath" style="stroke-width: 2.5; stroke-dasharray: 1, 0;"/></marker><g class="root"><g class="clusters"/><g class="edgePaths"><path d="M205.73,47.5L205.647,51.583C205.564,55.667,205.397,63.833,205.314,71.417C205.23,79,205.23,86,205.23,89.5L205.23,93" id="my-svg-L_A_B_0" class="edge-thickness-normal edge-pattern-solid edge-thickness-normal edge-pattern-solid flowchart-link" style=";" data-edge="true" data-et="edge" data-id="L_A_B_0" data-points="W3sieCI6MjA1LjczMDQ2ODc1LCJ5Ijo0Ny41MDAwMDAwMDAwMDAwMX0seyJ4IjoyMDUuMjMwNDY4NzUsInkiOjcyfSx7IngiOjIwNS4yMzA0Njg3NSwieSI6OTd9XQ==" data-look="classic" marker-end="url(#my-svg_flowchart-v2-pointEnd)"/><path d="M205.23,151L205.23,155.167C205.23,159.333,205.23,167.667,205.23,175.333C205.23,183,205.23,190,205.23,193.5L205.23,197" id="my-svg-L_B_C_0" class="edge-thickness-normal edge-pattern-solid edge-thickness-normal edge-pattern-solid flowchart-link" style=";" data-edge="true" data-et="edge" data-id="L_B_C_0" data-points="W3sieCI6MjA1LjIzMDQ2ODc1LCJ5IjoxNTF9LHsieCI6MjA1LjIzMDQ2ODc1LCJ5IjoxNzZ9LHsieCI6MjA1LjIzMDQ2ODc1LCJ5IjoyMDF9XQ==" data-look="classic" marker-end="url(#my-svg_flowchart-v2-pointEnd)"/><path d="M240.266,355.152L247.328,367.158C254.391,379.164,268.516,403.176,275.578,425.848C282.641,448.521,282.641,469.854,282.641,489.188C282.641,508.521,282.641,525.854,282.641,553.193C282.641,580.531,282.641,617.875,282.641,657.219C282.641,696.563,282.641,737.906,282.641,771.245C282.641,804.583,282.641,829.917,282.641,853.25C282.641,876.583,282.641,897.917,282.641,922.089C282.641,946.26,282.641,973.271,282.641,986.776L282.641,1000.281" id="my-svg-L_C_D_0" class="edge-thickness-normal edge-pattern-solid edge-thickness-normal edge-pattern-solid flowchart-link" style=";" data-edge="true" data-et="edge" data-id="L_C_D_0" data-points="W3sieCI6MjQwLjI2NTc4MDI4NjMwNTAyLCJ5IjozNTUuMTUyMTg4NDYzNjk1fSx7IngiOjI4Mi42NDA2MjUsInkiOjQyNy4xODc1fSx7IngiOjI4Mi42NDA2MjUsInkiOjQ5MS4xODc1fSx7IngiOjI4Mi42NDA2MjUsInkiOjU0My4xODc1fSx7IngiOjI4Mi42NDA2MjUsInkiOjY1NS4yMTg3NX0seyJ4IjoyODIuNjQwNjI1LCJ5Ijo3NzkuMjV9LHsieCI6MjgyLjY0MDYyNSwieSI6ODU1LjI1fSx7IngiOjI4Mi42NDA2MjUsInkiOjkxOS4yNX0seyJ4IjoyODIuNjQwNjI1LCJ5IjoxMDA0LjI4MTI1fV0=" data-look="classic" marker-end="url(#my-svg_flowchart-v2-pointEnd)"/><path d="M282.641,1058.281L282.641,1074.453C282.641,1090.625,282.641,1122.969,285.51,1144.715C288.38,1166.46,294.119,1177.608,296.988,1183.182L299.857,1188.756" id="my-svg-L_D_E_0" class="edge-thickness-normal edge-pattern-solid edge-thickness-normal edge-pattern-solid flowchart-link" style=";" data-edge="true" data-et="edge" data-id="L_D_E_0" data-points="W3sieCI6MjgyLjY0MDYyNSwieSI6MTA1OC4yODEyNX0seyJ4IjoyODIuNjQwNjI1LCJ5IjoxMTU1LjMxMjV9LHsieCI6MzAxLjY4ODMyMjM2ODQyMTA0LCJ5IjoxMTkyLjMxMjV9XQ==" data-look="classic" marker-end="url(#my-svg_flowchart-v2-pointEnd)"/><path d="M170.195,355.152L163.133,367.158C156.07,379.164,141.945,403.176,134.883,420.682C127.82,438.188,127.82,449.188,127.82,454.688L127.82,460.188" id="my-svg-L_C_F_0" class="edge-thickness-normal edge-pattern-solid edge-thickness-normal edge-pattern-solid flowchart-link" style=";" data-edge="true" data-et="edge" data-id="L_C_F_0" data-points="W3sieCI6MTcwLjE5NTE1NzIxMzY5NDk4LCJ5IjozNTUuMTUyMTg4NDYzNjk1fSx7IngiOjEyNy44MjAzMTI1LCJ5Ijo0MjcuMTg3NX0seyJ4IjoxMjcuODIwMzEyNSwieSI6NDY0LjE4NzV9XQ==" data-look="classic" marker-end="url(#my-svg_flowchart-v2-pointEnd)"/><path d="M127.82,518.188L127.82,522.354C127.82,526.521,127.82,534.854,127.82,542.521C127.82,550.188,127.82,557.188,127.82,560.688L127.82,564.188" id="my-svg-L_F_G_0" class="edge-thickness-normal edge-pattern-solid edge-thickness-normal edge-pattern-solid flowchart-link" style=";" data-edge="true" data-et="edge" data-id="L_F_G_0" data-points="W3sieCI6MTI3LjgyMDMxMjUsInkiOjUxOC4xODc1fSx7IngiOjEyNy44MjAzMTI1LCJ5Ijo1NDMuMTg3NX0seyJ4IjoxMjcuODIwMzEyNSwieSI6NTY4LjE4NzV9XQ==" data-look="classic" marker-end="url(#my-svg_flowchart-v2-pointEnd)"/><path d="M127.82,742.25L127.82,748.417C127.82,754.583,127.82,766.917,127.82,778.583C127.82,790.25,127.82,801.25,127.82,806.75L127.82,812.25" id="my-svg-L_G_H_0" class="edge-thickness-normal edge-pattern-solid edge-thickness-normal edge-pattern-solid flowchart-link" style=";" data-edge="true" data-et="edge" data-id="L_G_H_0" data-points="W3sieCI6MTI3LjgyMDMxMjUsInkiOjc0Mi4yNX0seyJ4IjoxMjcuODIwMzEyNSwieSI6Nzc5LjI1fSx7IngiOjEyNy44MjAzMTI1LCJ5Ijo4MTYuMjV9XQ==" data-look="classic" marker-end="url(#my-svg_flowchart-v2-pointEnd)"/><path d="M195.751,674.319L257.948,691.808C320.145,709.296,444.539,744.273,506.736,767.262C568.934,790.25,568.934,801.25,568.934,806.75L568.934,812.25" id="my-svg-L_G_I_0" class="edge-thickness-normal edge-pattern-solid edge-thickness-normal edge-pattern-solid flowchart-link" style=";" data-edge="true" data-et="edge" data-id="L_G_I_0" data-points="W3sieCI6MTk1Ljc1MDk3MTE4Mjc4OTkzLCJ5Ijo2NzQuMzE5MzQxMzE3MjF9LHsieCI6NTY4LjkzMzU5Mzc1LCJ5Ijo3NzkuMjV9LHsieCI6NTY4LjkzMzU5Mzc1LCJ5Ijo4MTYuMjV9XQ==" data-look="classic" marker-end="url(#my-svg_flowchart-v2-pointEnd)"/><path d="M568.934,894.25L568.934,898.417C568.934,902.583,568.934,910.917,568.934,918.583C568.934,926.25,568.934,933.25,568.934,936.75L568.934,940.25" id="my-svg-L_I_J_0" class="edge-thickness-normal edge-pattern-solid edge-thickness-normal edge-pattern-solid flowchart-link" style=";" data-edge="true" data-et="edge" data-id="L_I_J_0" data-points="W3sieCI6NTY4LjkzMzU5Mzc1LCJ5Ijo4OTQuMjV9LHsieCI6NTY4LjkzMzU5Mzc1LCJ5Ijo5MTkuMjV9LHsieCI6NTY4LjkzMzU5Mzc1LCJ5Ijo5NDQuMjV9XQ==" data-look="classic" marker-end="url(#my-svg_flowchart-v2-pointEnd)"/><path d="M591.814,1095.432L595.374,1105.412C598.933,1115.392,606.053,1135.352,609.612,1150.832C613.172,1166.313,613.172,1177.313,613.172,1182.813L613.172,1188.313" id="my-svg-L_J_K_0" class="edge-thickness-normal edge-pattern-solid edge-thickness-normal edge-pattern-solid flowchart-link" style=";" data-edge="true" data-et="edge" data-id="L_J_K_0" data-points="W3sieCI6NTkxLjgxNDIyMzkyOTY3ODMsInkiOjEwOTUuNDMxODY5ODIwMzIxN30seyJ4Ijo2MTMuMTcxODc1LCJ5IjoxMTU1LjMxMjV9LHsieCI6NjEzLjE3MTg3NSwieSI6MTE5Mi4zMTI1fV0=" data-look="classic" marker-end="url(#my-svg_flowchart-v2-pointEnd)"/><path d="M526.944,1076.323L514.67,1089.488C502.397,1102.653,477.851,1128.983,455.482,1147.981C433.113,1166.979,412.921,1178.645,402.825,1184.478L392.729,1190.311" id="my-svg-L_J_E_0" class="edge-thickness-normal edge-pattern-solid edge-thickness-normal edge-pattern-solid flowchart-link" style=";" data-edge="true" data-et="edge" data-id="L_J_E_0" data-points="W3sieCI6NTI2Ljk0MzYwMDkwMTIzOTUsInkiOjEwNzYuMzIyNTA3MTUxMjM5NX0seyJ4Ijo0NTMuMzA0Njg3NSwieSI6MTE1NS4zMTI1fSx7IngiOjM4OS4yNjU5MzMzODgxNTc5LCJ5IjoxMTkyLjMxMjV9XQ==" data-look="classic" marker-end="url(#my-svg_flowchart-v2-pointEnd)"/></g><g class="edgeLabels"><g class="edgeLabel"><g class="label" data-id="L_A_B_0" transform="translate(0, 0)"><foreignObject width="0" height="0"><div xmlns="http://www.w3.org/1999/xhtml" class="labelBkg" style="display: table-cell; white-space: nowrap; line-height: 1.5; max-width: 200px; text-align: center;"><span class="edgeLabel"></span></div></foreignObject></g></g><g class="edgeLabel"><g class="label" data-id="L_B_C_0" transform="translate(0, 0)"><foreignObject width="0" height="0"><div xmlns="http://www.w3.org/1999/xhtml" class="labelBkg" style="display: table-cell; white-space: nowrap; line-height: 1.5; max-width: 200px; text-align: center;"><span class="edgeLabel"></span></div></foreignObject></g></g><g class="edgeLabel" transform="translate(282.640625, 655.21875)"><g class="label" data-id="L_C_D_0" transform="translate(-10.2265625, -12)"><foreignObject width="20.453125" height="24"><div xmlns="http://www.w3.org/1999/xhtml" class="labelBkg" style="display: table-cell; white-space: nowrap; line-height: 1.5; max-width: 200px; text-align: center;"><span class="edgeLabel"><p>Ne</p></span></div></foreignObject></g></g><g class="edgeLabel"><g class="label" data-id="L_D_E_0" transform="translate(0, 0)"><foreignObject width="0" height="0"><div xmlns="http://www.w3.org/1999/xhtml" class="labelBkg" style="display: table-cell; white-space: nowrap; line-height: 1.5; max-width: 200px; text-align: center;"><span class="edgeLabel"></span></div></foreignObject></g></g><g class="edgeLabel" transform="translate(127.8203125, 427.1875)"><g class="label" data-id="L_C_F_0" transform="translate(-10.2265625, -12)"><foreignObject width="20.453125" height="24"><div xmlns="http://www.w3.org/1999/xhtml" class="labelBkg" style="display: table-cell; white-space: nowrap; line-height: 1.5; max-width: 200px; text-align: center;"><span class="edgeLabel"><p>Da</p></span></div></foreignObject></g></g><g class="edgeLabel"><g class="label" data-id="L_F_G_0" transform="translate(0, 0)"><foreignObject width="0" height="0"><div xmlns="http://www.w3.org/1999/xhtml" class="labelBkg" style="display: table-cell; white-space: nowrap; line-height: 1.5; max-width: 200px; text-align: center;"><span class="edgeLabel"></span></div></foreignObject></g></g><g class="edgeLabel" transform="translate(127.8203125, 779.25)"><g class="label" data-id="L_G_H_0" transform="translate(-10.2265625, -12)"><foreignObject width="20.453125" height="24"><div xmlns="http://www.w3.org/1999/xhtml" class="labelBkg" style="display: table-cell; white-space: nowrap; line-height: 1.5; max-width: 200px; text-align: center;"><span class="edgeLabel"><p>Da</p></span></div></foreignObject></g></g><g class="edgeLabel" transform="translate(568.93359375, 779.25)"><g class="label" data-id="L_G_I_0" transform="translate(-58.25, -12)"><foreignObject width="116.5" height="24"><div xmlns="http://www.w3.org/1999/xhtml" class="labelBkg" style="display: table-cell; white-space: nowrap; line-height: 1.5; max-width: 200px; text-align: center;"><span class="edgeLabel"><p>Ne / Nedosegljiv</p></span></div></foreignObject></g></g><g class="edgeLabel"><g class="label" data-id="L_I_J_0" transform="translate(0, 0)"><foreignObject width="0" height="0"><div xmlns="http://www.w3.org/1999/xhtml" class="labelBkg" style="display: table-cell; white-space: nowrap; line-height: 1.5; max-width: 200px; text-align: center;"><span class="edgeLabel"></span></div></foreignObject></g></g><g class="edgeLabel" transform="translate(613.171875, 1155.3125)"><g class="label" data-id="L_J_K_0" transform="translate(-10.2265625, -12)"><foreignObject width="20.453125" height="24"><div xmlns="http://www.w3.org/1999/xhtml" class="labelBkg" style="display: table-cell; white-space: nowrap; line-height: 1.5; max-width: 200px; text-align: center;"><span class="edgeLabel"><p>Da</p></span></div></foreignObject></g></g><g class="edgeLabel" transform="translate(464.90787, 1142.86616)"><g class="label" data-id="L_J_E_0" transform="translate(-58.25, -12)"><foreignObject width="116.5" height="24"><div xmlns="http://www.w3.org/1999/xhtml" class="labelBkg" style="display: table-cell; white-space: nowrap; line-height: 1.5; max-width: 200px; text-align: center;"><span class="edgeLabel"><p>Ne / Nedosegljiv</p></span></div></foreignObject></g></g></g><g class="nodes"><g class="node default" id="my-svg-flowchart-A-0" data-look="classic" transform="translate(205.23046875, 27.5)"><g class="basic label-container outer-path"><path d="M-32.0078125 -19.5 C-9.473535216758915 -19.5, 13.06074206648217 -19.5, 32.0078125 -19.5 C32.0078125 -19.5, 32.0078125 -19.5, 32.0078125 -19.5 C32.45802379853441 -19.485562599939133, 32.90823509706883 -19.471125199878266, 33.2571817896239 -19.45993515863156 C33.64930479106317 -19.422107524279618, 34.041427792502446 -19.384279889927676, 34.501417152847864 -19.3399052695533 C34.80845774125743 -19.290265328354568, 35.11549832966699 -19.240625387155834, 35.73540575967676 -19.140403561325776 C36.15165618285345 -19.045397118523557, 36.56790660603014 -18.950390675721337, 36.95407688623539 -18.862249829261074 C37.34711446559674 -18.74559833880298, 37.74015204495809 -18.62894684834489, 38.152422751460605 -18.50658706670804 C38.4596553353888 -18.39352263579559, 38.766887919317 -18.28045820488314, 39.3255190951478 -18.074876768247425 C39.58790003967748 -17.958728507358312, 39.85028098420717 -17.8425802464692, 40.46854541279238 -17.568892924097174 C40.85242195231962 -17.368624779310473, 41.23629849184686 -17.16835663452377, 41.57680476407678 -16.990714730406097 C41.980098797443674 -16.74623551736028, 42.383392830810564 -16.501756304314462, 42.6457430736057 -16.342718045390892 C42.923658962583595 -16.148855952024842, 43.201574851561496 -15.954993858658792, 43.67096784457871 -15.627565626425154 C44.05971330191669 -15.317551469149196, 44.44845875925467 -15.007537311873236, 44.648266208501866 -14.848196188198123 C44.94538619357652 -14.578359679117344, 45.24250617865116 -14.308523170036565, 45.57362223676799 -14.007812326905688 C45.83880270801047 -13.733991718626237, 46.10398317925295 -13.460171110346787, 46.44323344296865 -13.10986736009568 C46.68354598535622 -12.827582573636208, 46.92385852774379 -12.545297787176734, 47.25352640812658 -12.158051136245305 C47.4528451487361 -11.89098218213937, 47.65216388934562 -11.623913228033434, 48.001171464640635 -11.156274872382312 C48.20828529081472 -10.838092417529355, 48.41539911698881 -10.519909962676397, 48.68309637860425 -10.108655082055241 C48.872006443565944 -9.77322613249737, 49.06091650852764 -9.437797182939498, 49.296498974273504 -9.019496659696287 C49.44646272755498 -8.708093717297006, 49.596426480836456 -8.396690774897724, 49.83885864880834 -7.893275190886684 C49.964921901497334 -7.58189651947769, 50.09098515418633 -7.270517848068696, 50.307946729970325 -6.734618561215508 C50.4158304533543 -6.409689975319976, 50.52371417673829 -6.084761389424443, 50.70183563421488 -5.548287939305138 C50.7963274314166 -5.187949763571009, 50.89081922861833 -4.827611587836879, 51.01890678754556 -4.339158212148133 C51.110817957338114 -3.867213780695975, 51.20272912713067 -3.3952693492438173, 51.257857276581774 -3.1121979531509023 C51.29246057053084 -2.84382163847523, 51.3270638644799 -2.575445323799558, 51.41770520250937 -1.872449005199798 C51.4360440261253 -1.5868070245496577, 51.454382849741236 -1.3011650438995173, 51.49779371591342 -0.6250057626472757 C51.49779371591342 -0.22691437130550407, 51.49779371591342 0.17117702003626756, 51.49779371591342 0.625005762647271 C51.46896759881007 1.073995804554892, 51.44014148170671 1.5229858464625132, 51.41770520250937 1.8724490051997846 C51.36412807737045 2.287982607777174, 51.31055095223154 2.703516210354563, 51.257857276581774 3.1121979531508885 C51.19916345430901 3.4135783255778, 51.14046963203625 3.714958698004712, 51.01890678754556 4.339158212148129 C50.95239974249235 4.59277839927171, 50.885892697439125 4.846398586395291, 50.70183563421489 5.548287939305125 C50.58293678251935 5.906392336652708, 50.46403793082381 6.26449673400029, 50.307946729970325 6.734618561215495 C50.12119499943878 7.1958989462275085, 49.93444326890722 7.657179331239522, 49.83885864880834 7.893275190886679 C49.625814227423305 8.335666490313086, 49.41276980603826 8.778057789739494, 49.296498974273504 9.019496659696284 C49.10621194239742 9.357370553443662, 48.91592491052134 9.69524444719104, 48.68309637860425 10.108655082055236 C48.527071990777266 10.348350440171943, 48.371047602950284 10.58804579828865, 48.00117146464064 11.156274872382301 C47.84231765141314 11.369124510227056, 47.68346383818564 11.58197414807181, 47.25352640812658 12.158051136245302 C47.05529968959482 12.390899519252532, 46.85707297106305 12.623747902259764, 46.44323344296866 13.10986736009567 C46.20310366739545 13.357821068396232, 45.962973891822244 13.605774776696794, 45.57362223676799 14.007812326905684 C45.28937111362973 14.265961676067269, 45.00511999049146 14.524111025228855, 44.64826620850189 14.848196188198111 C44.43351079973849 15.01945791180548, 44.218755390975105 15.190719635412847, 43.67096784457871 15.627565626425152 C43.335955227505075 15.86125592563327, 43.00094261043144 16.094946224841387, 42.64574307360571 16.34271804539089 C42.262764375539184 16.57488198279146, 41.87978567747266 16.80704592019203, 41.57680476407678 16.990714730406093 C41.184125186759914 17.19557541436903, 40.791445609443045 17.40043609833197, 40.46854541279239 17.56889292409717 C40.17129192275626 17.700478226424675, 39.87403843272014 17.83206352875218, 39.325519095147804 18.07487676824742 C38.89823228828336 18.232122262969483, 38.470945481418916 18.38936775769154, 38.15242275146062 18.506587066708033 C37.870878445596176 18.59014793883238, 37.589334139731726 18.673708810956732, 36.95407688623541 18.86224982926107 C36.68031941982311 18.92473318453526, 36.40656195341081 18.98721653980945, 35.735405759676766 19.140403561325773 C35.41661027030826 19.19194394375093, 35.09781478093976 19.243484326176084, 34.50141715284788 19.3399052695533 C34.018891558704794 19.386453933298352, 33.53636596456172 19.4330025970434, 33.2571817896239 19.45993515863156 C32.898573728522585 19.471435021162833, 32.539965667421264 19.482934883694103, 32.00781250000001 19.5 C32.00781250000001 19.5, 32.0078125 19.5, 32.0078125 19.5 C14.928950488847192 19.5, -2.149911522305615 19.5, -32.00781249999999 19.5 C-32.35784907333471 19.488775008398015, -32.70788564666944 19.477550016796027, -33.25718178962389 19.45993515863156 C-33.5358632297949 19.43305109526173, -33.814544669965905 19.4061670318919, -34.50141715284787 19.3399052695533 C-34.833799209213296 19.28616831634148, -35.16618126557872 19.232431363129663, -35.73540575967676 19.140403561325773 C-36.12904677530851 19.050557568255513, -36.52268779094026 18.960711575185258, -36.954076886235384 18.862249829261074 C-37.33438189636522 18.749377298516272, -37.71468690649507 18.63650476777147, -38.15242275146059 18.506587066708043 C-38.621472914279984 18.333972270938332, -39.09052307709937 18.16135747516862, -39.3255190951478 18.074876768247425 C-39.772335957654114 17.877084197567175, -40.21915282016044 17.679291626886926, -40.46854541279238 17.568892924097174 C-40.81189082075113 17.389769844688324, -41.15523622870988 17.210646765279474, -41.57680476407678 16.990714730406097 C-41.850374751025264 16.824874996642237, -42.12394473797374 16.659035262878376, -42.645743073605686 16.3427180453909 C-42.95070410289683 16.129990432907586, -43.25566513218797 15.917262820424275, -43.67096784457871 15.627565626425156 C-43.955883926969626 15.400352632653773, -44.24080000936054 15.173139638882391, -44.648266208501866 14.848196188198125 C-44.94776149867245 14.576202489876348, -45.24725678884303 14.30420879155457, -45.573622236767974 14.007812326905697 C-45.844909250140894 13.727686212520133, -46.11619626351382 13.447560098134572, -46.443233442968655 13.109867360095677 C-46.73773589893481 12.76392801765336, -47.03223835490097 12.417988675211042, -47.253526408126575 12.158051136245307 C-47.51645179243801 11.805755074263258, -47.77937717674944 11.45345901228121, -48.001171464640635 11.156274872382316 C-48.175202147020954 10.888917010464576, -48.34923282940128 10.621559148546837, -48.68309637860425 10.108655082055249 C-48.89033000346896 9.740690796427934, -49.097563628333674 9.372726510800618, -49.296498974273504 9.019496659696289 C-49.47993967025784 8.638578129482687, -49.66338036624218 8.257659599269084, -49.83885864880834 7.893275190886686 C-49.98065665070063 7.543031384734871, -50.122454652592914 7.192787578583055, -50.307946729970325 6.73461856121551 C-50.409985311894665 6.427294610099589, -50.512023893819006 6.11997065898367, -50.70183563421488 5.5482879393051325 C-50.77598057208915 5.265541156571197, -50.85012550996342 4.982794373837261, -51.01890678754556 4.339158212148136 C-51.09035814355012 3.972270600314146, -51.161809499554685 3.605382988480156, -51.257857276581774 3.112197953150904 C-51.311473918048726 2.696357869736678, -51.36509055951567 2.2805177863224526, -51.41770520250937 1.872449005199809 C-51.4382017225443 1.5531991611625657, -51.45869824257923 1.2339493171253224, -51.49779371591342 0.6250057626472781 C-51.49779371591342 0.3657927861961003, -51.49779371591342 0.10657980974492243, -51.49779371591342 -0.6250057626472687 C-51.46954808758558 -1.0649542233141833, -51.44130245925774 -1.504902683981098, -51.41770520250937 -1.8724490051997822 C-51.37436916988098 -2.2085547165979578, -51.3310331372526 -2.544660427996133, -51.257857276581774 -3.112197953150895 C-51.17231684006231 -3.551430015700712, -51.086776403542835 -3.990662078250529, -51.01890678754556 -4.339158212148126 C-50.89658048632379 -4.805641415261051, -50.77425418510202 -5.272124618373976, -50.70183563421489 -5.548287939305123 C-50.585289289552364 -5.8993069602903505, -50.46874294488985 -6.250325981275578, -50.30794672997033 -6.734618561215485 C-50.15968858570021 -7.10081904393891, -50.011430441430086 -7.467019526662335, -49.83885864880834 -7.893275190886676 C-49.67177669330805 -8.24022444646419, -49.50469473780775 -8.587173702041701, -49.296498974273504 -9.019496659696282 C-49.138866620808 -9.299388865280923, -48.98123426734251 -9.579281070865564, -48.68309637860425 -10.108655082055243 C-48.428959673779474 -10.499077305926583, -48.17482296895469 -10.889499529797925, -48.00117146464064 -11.156274872382308 C-47.715234481209926 -11.539404380784392, -47.42929749777921 -11.922533889186475, -47.25352640812659 -12.158051136245302 C-47.00895444493981 -12.445339280743433, -46.76438248175303 -12.732627425241565, -46.44323344296866 -13.10986736009567 C-46.207686528489454 -13.353088888056785, -45.97213961401024 -13.5963104160179, -45.573622236767996 -14.007812326905677 C-45.22341521742889 -14.325861075899482, -44.873208198089785 -14.643909824893287, -44.64826620850189 -14.848196188198107 C-44.38796047133854 -15.055783086559298, -44.12765473417519 -15.263369984920487, -43.67096784457872 -15.627565626425149 C-43.34912903870991 -15.852066445221872, -43.0272902328411 -16.076567264018596, -42.645743073605715 -16.342718045390885 C-42.34182428271201 -16.52695540245571, -42.03790549181831 -16.711192759520532, -41.57680476407679 -16.99071473040609 C-41.344728393790334 -17.111788824132525, -41.11265202350388 -17.23286291785896, -40.46854541279239 -17.56889292409717 C-40.1022523393358 -17.73104000201844, -39.7359592658792 -17.893187079939707, -39.325519095147804 -18.07487676824742 C-38.8982623313264 -18.232111206851926, -38.471005567505 -18.38934564545643, -38.15242275146062 -18.506587066708033 C-37.683297558640916 -18.645820961448532, -37.21417236582121 -18.785054856189035, -36.95407688623541 -18.862249829261067 C-36.506316948675625 -18.96444811310243, -36.05855701111584 -19.066646396943792, -35.735405759676766 -19.140403561325773 C-35.259477685783295 -19.217347921435532, -34.783549611889825 -19.294292281545292, -34.50141715284788 -19.3399052695533 C-34.17953468959439 -19.370956883663062, -33.8576522263409 -19.402008497772826, -33.2571817896239 -19.45993515863156 C-32.89200353692951 -19.471645714419118, -32.52682528423511 -19.48335627020668, -32.00781250000001 -19.5 C-32.00781250000001 -19.5, -32.0078125 -19.5, -32.0078125 -19.5" stroke="none" stroke-width="0" fill="#eee" style=""/><path d="M-32.0078125 -19.5 C-15.327599957378425 -19.5, 1.3526125852431505 -19.5, 32.0078125 -19.5 M-32.0078125 -19.5 C-17.918546623367302 -19.5, -3.8292807467346037 -19.5, 32.0078125 -19.5 M32.0078125 -19.5 C32.0078125 -19.5, 32.0078125 -19.5, 32.0078125 -19.5 M32.0078125 -19.5 C32.0078125 -19.5, 32.0078125 -19.5, 32.0078125 -19.5 M32.0078125 -19.5 C32.45155454325098 -19.48577005636443, 32.895296586501956 -19.471540112728864, 33.2571817896239 -19.45993515863156 M32.0078125 -19.5 C32.360950692833434 -19.488675545497625, 32.71408888566687 -19.477351090995253, 33.2571817896239 -19.45993515863156 M33.2571817896239 -19.45993515863156 C33.57857293108634 -19.428930941744074, 33.89996407254879 -19.397926724856593, 34.501417152847864 -19.3399052695533 M33.2571817896239 -19.45993515863156 C33.57231441919208 -19.429534692859555, 33.88744704876026 -19.399134227087547, 34.501417152847864 -19.3399052695533 M34.501417152847864 -19.3399052695533 C34.8899072234537 -19.27709720772324, 35.27839729405954 -19.214289145893186, 35.73540575967676 -19.140403561325776 M34.501417152847864 -19.3399052695533 C34.75347492808582 -19.29915452319007, 35.00553270332377 -19.258403776826835, 35.73540575967676 -19.140403561325776 M35.73540575967676 -19.140403561325776 C36.047300332452416 -19.06921566039203, 36.35919490522807 -18.99802775945828, 36.95407688623539 -18.862249829261074 M35.73540575967676 -19.140403561325776 C36.10334298900072 -19.05642428974739, 36.47128021832468 -18.972445018169005, 36.95407688623539 -18.862249829261074 M36.95407688623539 -18.862249829261074 C37.377048558378455 -18.736714057192625, 37.800020230521525 -18.61117828512418, 38.152422751460605 -18.50658706670804 M36.95407688623539 -18.862249829261074 C37.308781564052666 -18.756975342767756, 37.66348624186993 -18.651700856274438, 38.152422751460605 -18.50658706670804 M38.152422751460605 -18.50658706670804 C38.59065308099612 -18.34531425448221, 39.028883410531634 -18.184041442256383, 39.3255190951478 -18.074876768247425 M38.152422751460605 -18.50658706670804 C38.44216157134853 -18.399960502672993, 38.73190039123645 -18.293333938637947, 39.3255190951478 -18.074876768247425 M39.3255190951478 -18.074876768247425 C39.62174676177344 -17.943745567513773, 39.91797442839908 -17.812614366780117, 40.46854541279238 -17.568892924097174 M39.3255190951478 -18.074876768247425 C39.73805686158926 -17.892258536541835, 40.15059462803071 -17.709640304836242, 40.46854541279238 -17.568892924097174 M40.46854541279238 -17.568892924097174 C40.854106968549665 -17.36774570742256, 41.23966852430696 -17.166598490747948, 41.57680476407678 -16.990714730406097 M40.46854541279238 -17.568892924097174 C40.76138669789646 -17.41611781323217, 41.054227983000544 -17.263342702367165, 41.57680476407678 -16.990714730406097 M41.57680476407678 -16.990714730406097 C41.8268808853158 -16.839117116100592, 42.07695700655482 -16.687519501795087, 42.6457430736057 -16.342718045390892 M41.57680476407678 -16.990714730406097 C41.84875834475321 -16.825854871623413, 42.12071192542964 -16.660995012840726, 42.6457430736057 -16.342718045390892 M42.6457430736057 -16.342718045390892 C42.972262228857666 -16.114952417473543, 43.298781384109624 -15.887186789556191, 43.67096784457871 -15.627565626425154 M42.6457430736057 -16.342718045390892 C42.95051837068961 -16.130119991655125, 43.25529366777352 -15.917521937919357, 43.67096784457871 -15.627565626425154 M43.67096784457871 -15.627565626425154 C44.02186818076267 -15.347731946168558, 44.37276851694662 -15.067898265911964, 44.648266208501866 -14.848196188198123 M43.67096784457871 -15.627565626425154 C43.9767255380681 -15.383732002421304, 44.282483231557485 -15.139898378417453, 44.648266208501866 -14.848196188198123 M44.648266208501866 -14.848196188198123 C44.90276642363873 -14.617065826517521, 45.157266638775596 -14.38593546483692, 45.57362223676799 -14.007812326905688 M44.648266208501866 -14.848196188198123 C44.8576085390675 -14.65807702247296, 45.06695086963313 -14.4679578567478, 45.57362223676799 -14.007812326905688 M45.57362223676799 -14.007812326905688 C45.818986197538216 -13.754453892654604, 46.06435015830844 -13.501095458403523, 46.44323344296865 -13.10986736009568 M45.57362223676799 -14.007812326905688 C45.779746300712034 -13.794972307783084, 45.98587036465608 -13.58213228866048, 46.44323344296865 -13.10986736009568 M46.44323344296865 -13.10986736009568 C46.74064070387611 -12.760515868481225, 47.03804796478357 -12.411164376866767, 47.25352640812658 -12.158051136245305 M46.44323344296865 -13.10986736009568 C46.73873727439241 -12.762751745060982, 47.03424110581618 -12.41563613002628, 47.25352640812658 -12.158051136245305 M47.25352640812658 -12.158051136245305 C47.43343808217629 -11.916985883309387, 47.61334975622599 -11.675920630373467, 48.001171464640635 -11.156274872382312 M47.25352640812658 -12.158051136245305 C47.424599887599015 -11.92882825886684, 47.59567336707145 -11.699605381488373, 48.001171464640635 -11.156274872382312 M48.001171464640635 -11.156274872382312 C48.13820258568682 -10.945758272447161, 48.275233706733005 -10.735241672512013, 48.68309637860425 -10.108655082055241 M48.001171464640635 -11.156274872382312 C48.208175996561806 -10.838260322851443, 48.415180528482985 -10.520245773320575, 48.68309637860425 -10.108655082055241 M48.68309637860425 -10.108655082055241 C48.869305489461006 -9.778021950011954, 49.05551460031776 -9.447388817968667, 49.296498974273504 -9.019496659696287 M48.68309637860425 -10.108655082055241 C48.911708044486275 -9.70273191984029, 49.14031971036831 -9.296808757625337, 49.296498974273504 -9.019496659696287 M49.296498974273504 -9.019496659696287 C49.458590375997005 -8.68291039581703, 49.620681777720506 -8.346324131937775, 49.83885864880834 -7.893275190886684 M49.296498974273504 -9.019496659696287 C49.45956955908912 -8.680877101175094, 49.62264014390474 -8.342257542653899, 49.83885864880834 -7.893275190886684 M49.83885864880834 -7.893275190886684 C49.948847201474365 -7.6216013393176025, 50.05883575414039 -7.34992748774852, 50.307946729970325 -6.734618561215508 M49.83885864880834 -7.893275190886684 C49.940601553322786 -7.641968249670766, 50.04234445783723 -7.390661308454849, 50.307946729970325 -6.734618561215508 M50.307946729970325 -6.734618561215508 C50.41876713824413 -6.400845148329034, 50.529587546517924 -6.067071735442559, 50.70183563421488 -5.548287939305138 M50.307946729970325 -6.734618561215508 C50.460749256070244 -6.274401698378873, 50.613551782170155 -5.814184835542238, 50.70183563421488 -5.548287939305138 M50.70183563421488 -5.548287939305138 C50.82552754840278 -5.076597062091955, 50.94921946259068 -4.6049061848787725, 51.01890678754556 -4.339158212148133 M50.70183563421488 -5.548287939305138 C50.79933887522117 -5.176465823176193, 50.89684211622746 -4.804643707047249, 51.01890678754556 -4.339158212148133 M51.01890678754556 -4.339158212148133 C51.07368864081455 -4.057864973760661, 51.12847049408354 -3.7765717353731887, 51.257857276581774 -3.1121979531509023 M51.01890678754556 -4.339158212148133 C51.070473108067276 -4.07437605481482, 51.12203942858899 -3.8095938974815082, 51.257857276581774 -3.1121979531509023 M51.257857276581774 -3.1121979531509023 C51.29406833041952 -2.831352170266697, 51.330279384257274 -2.550506387382492, 51.41770520250937 -1.872449005199798 M51.257857276581774 -3.1121979531509023 C51.30047465675859 -2.7816659682531206, 51.34309203693541 -2.451133983355339, 51.41770520250937 -1.872449005199798 M51.41770520250937 -1.872449005199798 C51.437953226981094 -1.5570696801414963, 51.45820125145282 -1.2416903550831946, 51.49779371591342 -0.6250057626472757 M51.41770520250937 -1.872449005199798 C51.44314136507798 -1.476260241492842, 51.46857752764659 -1.0800714777858862, 51.49779371591342 -0.6250057626472757 M51.49779371591342 -0.6250057626472757 C51.49779371591342 -0.21305100023394802, 51.49779371591342 0.19890376217937966, 51.49779371591342 0.625005762647271 M51.49779371591342 -0.6250057626472757 C51.49779371591342 -0.17192003415947538, 51.49779371591342 0.28116569432832494, 51.49779371591342 0.625005762647271 M51.49779371591342 0.625005762647271 C51.480982920175826 0.8868474756903824, 51.46417212443823 1.1486891887334936, 51.41770520250937 1.8724490051997846 M51.49779371591342 0.625005762647271 C51.48151622608993 0.8785408056013598, 51.46523873626644 1.1320758485554485, 51.41770520250937 1.8724490051997846 M51.41770520250937 1.8724490051997846 C51.378685262178614 2.1750799570463464, 51.33966532184786 2.477710908892908, 51.257857276581774 3.1121979531508885 M51.41770520250937 1.8724490051997846 C51.35485787159359 2.3598804931733484, 51.29201054067781 2.8473119811469116, 51.257857276581774 3.1121979531508885 M51.257857276581774 3.1121979531508885 C51.205540196971356 3.380835099731685, 51.153223117360945 3.649472246312482, 51.01890678754556 4.339158212148129 M51.257857276581774 3.1121979531508885 C51.165497856391696 3.586444055656592, 51.07313843620161 4.060690158162295, 51.01890678754556 4.339158212148129 M51.01890678754556 4.339158212148129 C50.90725119169181 4.764949390979835, 50.79559559583806 5.190740569811541, 50.70183563421489 5.548287939305125 M51.01890678754556 4.339158212148129 C50.92203087481038 4.708588053693539, 50.8251549620752 5.078017895238949, 50.70183563421489 5.548287939305125 M50.70183563421489 5.548287939305125 C50.61682706652734 5.804320200904095, 50.5318184988398 6.060352462503064, 50.307946729970325 6.734618561215495 M50.70183563421489 5.548287939305125 C50.55349183820434 5.995075817514759, 50.40514804219378 6.441863695724392, 50.307946729970325 6.734618561215495 M50.307946729970325 6.734618561215495 C50.20835456361666 6.980613137592604, 50.108762397262986 7.226607713969713, 49.83885864880834 7.893275190886679 M50.307946729970325 6.734618561215495 C50.19182714777306 7.021436174262129, 50.0757075655758 7.308253787308763, 49.83885864880834 7.893275190886679 M49.83885864880834 7.893275190886679 C49.66130096690221 8.261977516490544, 49.48374328499608 8.630679842094409, 49.296498974273504 9.019496659696284 M49.83885864880834 7.893275190886679 C49.653377623699235 8.278430508183913, 49.46789659859013 8.663585825481148, 49.296498974273504 9.019496659696284 M49.296498974273504 9.019496659696284 C49.05844959124521 9.44217744437692, 48.82040020821692 9.864858229057555, 48.68309637860425 10.108655082055236 M49.296498974273504 9.019496659696284 C49.11022502529818 9.350244918384668, 48.923951076322844 9.680993177073052, 48.68309637860425 10.108655082055236 M48.68309637860425 10.108655082055236 C48.48041821758812 10.420023164082703, 48.277740056571986 10.731391246110169, 48.00117146464064 11.156274872382301 M48.68309637860425 10.108655082055236 C48.48031068295271 10.420188366159778, 48.27752498730118 10.73172165026432, 48.00117146464064 11.156274872382301 M48.00117146464064 11.156274872382301 C47.73510439412333 11.512780507666728, 47.46903732360602 11.869286142951154, 47.25352640812658 12.158051136245302 M48.00117146464064 11.156274872382301 C47.73921590162541 11.507271462179983, 47.47726033861017 11.858268051977664, 47.25352640812658 12.158051136245302 M47.25352640812658 12.158051136245302 C46.93003670224699 12.538040551857186, 46.6065469963674 12.918029967469073, 46.44323344296866 13.10986736009567 M47.25352640812658 12.158051136245302 C47.083939109249265 12.357258027297274, 46.91435181037195 12.556464918349246, 46.44323344296866 13.10986736009567 M46.44323344296866 13.10986736009567 C46.141316224801116 13.42162167571826, 45.83939900663358 13.73337599134085, 45.57362223676799 14.007812326905684 M46.44323344296866 13.10986736009567 C46.1237789767701 13.439730324145133, 45.804324510571526 13.769593288194596, 45.57362223676799 14.007812326905684 M45.57362223676799 14.007812326905684 C45.33810848567122 14.221699684299386, 45.102594734574446 14.435587041693088, 44.64826620850189 14.848196188198111 M45.57362223676799 14.007812326905684 C45.29420838594498 14.261568593337769, 45.014794535121965 14.515324859769851, 44.64826620850189 14.848196188198111 M44.64826620850189 14.848196188198111 C44.31648135589059 15.112785778989892, 43.98469650327929 15.377375369781674, 43.67096784457871 15.627565626425152 M44.64826620850189 14.848196188198111 C44.28988984447196 15.133991801716414, 43.93151348044203 15.419787415234715, 43.67096784457871 15.627565626425152 M43.67096784457871 15.627565626425152 C43.366245229551915 15.840126931438446, 43.06152261452512 16.05268823645174, 42.64574307360571 16.34271804539089 M43.67096784457871 15.627565626425152 C43.42507094789783 15.79909265684464, 43.17917405121695 15.970619687264131, 42.64574307360571 16.34271804539089 M42.64574307360571 16.34271804539089 C42.28343705927974 16.56235008042176, 41.921131044953775 16.78198211545263, 41.57680476407678 16.990714730406093 M42.64574307360571 16.34271804539089 C42.22288333646855 16.59905810304308, 41.80002359933138 16.855398160695273, 41.57680476407678 16.990714730406093 M41.57680476407678 16.990714730406093 C41.33903228887468 17.114760478418493, 41.10125981367257 17.238806226430896, 40.46854541279239 17.56889292409717 M41.57680476407678 16.990714730406093 C41.254782218445726 17.15871368619653, 40.93275967281467 17.326712641986973, 40.46854541279239 17.56889292409717 M40.46854541279239 17.56889292409717 C40.14058077996826 17.714073138323243, 39.812616147144126 17.859253352549313, 39.325519095147804 18.07487676824742 M40.46854541279239 17.56889292409717 C40.17168318827097 17.70030502478779, 39.874820963749556 17.831717125478413, 39.325519095147804 18.07487676824742 M39.325519095147804 18.07487676824742 C38.93736405290967 18.21772141185693, 38.54920901067153 18.360566055466442, 38.15242275146062 18.506587066708033 M39.325519095147804 18.07487676824742 C39.02541239736762 18.185318807186434, 38.72530569958742 18.295760846125447, 38.15242275146062 18.506587066708033 M38.15242275146062 18.506587066708033 C37.84230417908517 18.598628631143463, 37.53218560670972 18.690670195578893, 36.95407688623541 18.86224982926107 M38.15242275146062 18.506587066708033 C37.76539195979539 18.621455774108192, 37.378361168130155 18.73632448150835, 36.95407688623541 18.86224982926107 M36.95407688623541 18.86224982926107 C36.686578137624146 18.923304673039123, 36.41907938901287 18.984359516817175, 35.735405759676766 19.140403561325773 M36.95407688623541 18.86224982926107 C36.538710036547116 18.957054602180417, 36.123343186858826 19.051859375099763, 35.735405759676766 19.140403561325773 M35.735405759676766 19.140403561325773 C35.273799859912536 19.215032423392437, 34.812193960148306 19.2896612854591, 34.50141715284788 19.3399052695533 M35.735405759676766 19.140403561325773 C35.4598936460916 19.18494622322187, 35.184381532506436 19.22948888511797, 34.50141715284788 19.3399052695533 M34.50141715284788 19.3399052695533 C34.065732838250874 19.381935211395422, 33.63004852365386 19.423965153237546, 33.2571817896239 19.45993515863156 M34.50141715284788 19.3399052695533 C34.240671028076015 19.365059134616946, 33.97992490330415 19.390212999680593, 33.2571817896239 19.45993515863156 M33.2571817896239 19.45993515863156 C33.006523903910775 19.467973269150402, 32.75586601819765 19.476011379669245, 32.00781250000001 19.5 M33.2571817896239 19.45993515863156 C32.889425888896845 19.47172837457444, 32.52166998816978 19.48352159051732, 32.00781250000001 19.5 M32.00781250000001 19.5 C32.00781250000001 19.5, 32.0078125 19.5, 32.0078125 19.5 M32.00781250000001 19.5 C32.00781250000001 19.5, 32.0078125 19.5, 32.0078125 19.5 M32.0078125 19.5 C16.23564606637177 19.5, 0.463479632743546 19.5, -32.00781249999999 19.5 M32.0078125 19.5 C9.071622988690592 19.5, -13.864566522618816 19.5, -32.00781249999999 19.5 M-32.00781249999999 19.5 C-32.457988541814125 19.48556373055353, -32.90816458362826 19.47112746110706, -33.25718178962389 19.45993515863156 M-32.00781249999999 19.5 C-32.49166820255624 19.484483689387012, -32.975523905112496 19.468967378774025, -33.25718178962389 19.45993515863156 M-33.25718178962389 19.45993515863156 C-33.740952245566795 19.413266404565842, -34.2247227015097 19.36659765050013, -34.50141715284787 19.3399052695533 M-33.25718178962389 19.45993515863156 C-33.655690469350915 19.4214915055751, -34.05419914907794 19.383047852518644, -34.50141715284787 19.3399052695533 M-34.50141715284787 19.3399052695533 C-34.77065706607881 19.29637664836883, -35.03989697930975 19.252848027184363, -35.73540575967676 19.140403561325773 M-34.50141715284787 19.3399052695533 C-34.784464554379056 19.294144360739118, -35.06751195591024 19.248383451924937, -35.73540575967676 19.140403561325773 M-35.73540575967676 19.140403561325773 C-36.01490789823559 19.076609022121627, -36.29441003679442 19.012814482917484, -36.954076886235384 18.862249829261074 M-35.73540575967676 19.140403561325773 C-36.105836179572805 19.055855235268897, -36.47626659946886 18.97130690921202, -36.954076886235384 18.862249829261074 M-36.954076886235384 18.862249829261074 C-37.2788885250182 18.76584743984142, -37.60370016380103 18.66944505042176, -38.15242275146059 18.506587066708043 M-36.954076886235384 18.862249829261074 C-37.35422941238612 18.74348665994301, -37.75438193853685 18.624723490624945, -38.15242275146059 18.506587066708043 M-38.15242275146059 18.506587066708043 C-38.457203452640336 18.394424951311983, -38.76198415382007 18.28226283591592, -39.3255190951478 18.074876768247425 M-38.15242275146059 18.506587066708043 C-38.579829749720396 18.349297340441453, -39.0072367479802 18.192007614174862, -39.3255190951478 18.074876768247425 M-39.3255190951478 18.074876768247425 C-39.70846302254779 17.905358851215446, -40.091406949947775 17.735840934183468, -40.46854541279238 17.568892924097174 M-39.3255190951478 18.074876768247425 C-39.685378419736864 17.91557772009943, -40.04523774432593 17.756278671951435, -40.46854541279238 17.568892924097174 M-40.46854541279238 17.568892924097174 C-40.89694196325114 17.345398718123928, -41.3253385137099 17.121904512150678, -41.57680476407678 16.990714730406097 M-40.46854541279238 17.568892924097174 C-40.69855913341149 17.448894913381004, -40.928572854030605 17.328896902664834, -41.57680476407678 16.990714730406097 M-41.57680476407678 16.990714730406097 C-41.791685155347565 16.860452974440403, -42.00656554661835 16.730191218474708, -42.645743073605686 16.3427180453909 M-41.57680476407678 16.990714730406097 C-41.9754276340474 16.7490672040619, -42.374050504018015 16.507419677717706, -42.645743073605686 16.3427180453909 M-42.645743073605686 16.3427180453909 C-43.023658444504036 16.079100642344944, -43.401573815402394 15.81548323929899, -43.67096784457871 15.627565626425156 M-42.645743073605686 16.3427180453909 C-42.98434705971738 16.106522562609698, -43.32295104582907 15.870327079828497, -43.67096784457871 15.627565626425156 M-43.67096784457871 15.627565626425156 C-43.90841840184726 15.43820512582819, -44.14586895911581 15.248844625231225, -44.648266208501866 14.848196188198125 M-43.67096784457871 15.627565626425156 C-43.96530751387961 15.392837572865245, -44.2596471831805 15.158109519305333, -44.648266208501866 14.848196188198125 M-44.648266208501866 14.848196188198125 C-44.881622965382 14.636267755881036, -45.114979722262134 14.424339323563945, -45.573622236767974 14.007812326905697 M-44.648266208501866 14.848196188198125 C-44.85406472372891 14.661295421799254, -45.05986323895595 14.474394655400385, -45.573622236767974 14.007812326905697 M-45.573622236767974 14.007812326905697 C-45.766513981307455 13.808635763961933, -45.95940572584694 13.609459201018169, -46.443233442968655 13.109867360095677 M-45.573622236767974 14.007812326905697 C-45.80724752455589 13.76657503627183, -46.04087281234381 13.52533774563796, -46.443233442968655 13.109867360095677 M-46.443233442968655 13.109867360095677 C-46.7619184683175 12.735521795629268, -47.08060349366635 12.36117623116286, -47.253526408126575 12.158051136245307 M-46.443233442968655 13.109867360095677 C-46.7650930516319 12.731792749429273, -47.08695266029515 12.353718138762869, -47.253526408126575 12.158051136245307 M-47.253526408126575 12.158051136245307 C-47.420208707419455 11.934712040262706, -47.58689100671233 11.711372944280104, -48.001171464640635 11.156274872382316 M-47.253526408126575 12.158051136245307 C-47.47714455826907 11.858423187086943, -47.70076270841155 11.558795237928582, -48.001171464640635 11.156274872382316 M-48.001171464640635 11.156274872382316 C-48.14555864484521 10.934457390201414, -48.28994582504979 10.712639908020511, -48.68309637860425 10.108655082055249 M-48.001171464640635 11.156274872382316 C-48.19697847073046 10.855462729485106, -48.39278547682028 10.554650586587897, -48.68309637860425 10.108655082055249 M-48.68309637860425 10.108655082055249 C-48.862666070753846 9.789810910240565, -49.042235762903445 9.47096673842588, -49.296498974273504 9.019496659696289 M-48.68309637860425 10.108655082055249 C-48.858811087989885 9.796655822497318, -49.034525797375515 9.484656562939389, -49.296498974273504 9.019496659696289 M-49.296498974273504 9.019496659696289 C-49.41743376065432 8.768372988186625, -49.53836854703513 8.517249316676963, -49.83885864880834 7.893275190886686 M-49.296498974273504 9.019496659696289 C-49.43957658055959 8.722392948872875, -49.58265418684568 8.42528923804946, -49.83885864880834 7.893275190886686 M-49.83885864880834 7.893275190886686 C-49.9526461887379 7.612217767328248, -50.06643372866746 7.3311603437698105, -50.307946729970325 6.73461856121551 M-49.83885864880834 7.893275190886686 C-49.93465255310385 7.65666239522762, -50.03044645739937 7.420049599568555, -50.307946729970325 6.73461856121551 M-50.307946729970325 6.73461856121551 C-50.4645318863394 6.263009018688456, -50.62111704270847 5.791399476161404, -50.70183563421488 5.5482879393051325 M-50.307946729970325 6.73461856121551 C-50.435915419943825 6.349197256057182, -50.563884109917325 5.963775950898854, -50.70183563421488 5.5482879393051325 M-50.70183563421488 5.5482879393051325 C-50.80378488481608 5.159511261678039, -50.90573413541728 4.770734584050946, -51.01890678754556 4.339158212148136 M-50.70183563421488 5.5482879393051325 C-50.76616592807578 5.302968647887804, -50.83049622193668 5.057649356470476, -51.01890678754556 4.339158212148136 M-51.01890678754556 4.339158212148136 C-51.104472076146735 3.899798539411248, -51.19003736474791 3.4604388666743606, -51.257857276581774 3.112197953150904 M-51.01890678754556 4.339158212148136 C-51.06800608285187 4.087043707889971, -51.11710537815818 3.834929203631807, -51.257857276581774 3.112197953150904 M-51.257857276581774 3.112197953150904 C-51.30215056024387 2.7686679917658816, -51.346443843905966 2.425138030380859, -51.41770520250937 1.872449005199809 M-51.257857276581774 3.112197953150904 C-51.29907106767434 2.792551928020542, -51.34028485876691 2.4729059028901803, -51.41770520250937 1.872449005199809 M-51.41770520250937 1.872449005199809 C-51.43668535015837 1.576817885067196, -51.45566549780737 1.2811867649345827, -51.49779371591342 0.6250057626472781 M-51.41770520250937 1.872449005199809 C-51.438411300610625 1.5499348136111253, -51.45911739871189 1.2274206220224415, -51.49779371591342 0.6250057626472781 M-51.49779371591342 0.6250057626472781 C-51.49779371591342 0.22729863701055608, -51.49779371591342 -0.17040848862616598, -51.49779371591342 -0.6250057626472687 M-51.49779371591342 0.6250057626472781 C-51.49779371591342 0.3206860041504706, -51.49779371591342 0.01636624565366307, -51.49779371591342 -0.6250057626472687 M-51.49779371591342 -0.6250057626472687 C-51.4753403807068 -0.9747345824962887, -51.452887045500184 -1.3244634023453088, -51.41770520250937 -1.8724490051997822 M-51.49779371591342 -0.6250057626472687 C-51.46679542679019 -1.1078291371101066, -51.43579713766697 -1.5906525115729444, -51.41770520250937 -1.8724490051997822 M-51.41770520250937 -1.8724490051997822 C-51.375928386763924 -2.1964617383560325, -51.33415157101849 -2.520474471512283, -51.257857276581774 -3.112197953150895 M-51.41770520250937 -1.8724490051997822 C-51.37813736917943 -2.179329306954354, -51.33856953584948 -2.4862096087089256, -51.257857276581774 -3.112197953150895 M-51.257857276581774 -3.112197953150895 C-51.17670317268287 -3.528907124745855, -51.09554906878396 -3.9456162963408152, -51.01890678754556 -4.339158212148126 M-51.257857276581774 -3.112197953150895 C-51.18519901885013 -3.4852827502747035, -51.11254076111848 -3.8583675473985113, -51.01890678754556 -4.339158212148126 M-51.01890678754556 -4.339158212148126 C-50.946473623245794 -4.615377260355118, -50.874040458946034 -4.89159630856211, -50.70183563421489 -5.548287939305123 M-51.01890678754556 -4.339158212148126 C-50.935502074927996 -4.657216529190016, -50.85209736231043 -4.9752748462319065, -50.70183563421489 -5.548287939305123 M-50.70183563421489 -5.548287939305123 C-50.57561825421055 -5.928434577869655, -50.449400874206226 -6.308581216434189, -50.30794672997033 -6.734618561215485 M-50.70183563421489 -5.548287939305123 C-50.56453742634304 -5.961808265916462, -50.427239218471186 -6.3753285925278, -50.30794672997033 -6.734618561215485 M-50.30794672997033 -6.734618561215485 C-50.20554554394177 -6.987551470498296, -50.103144357913195 -7.2404843797811065, -49.83885864880834 -7.893275190886676 M-50.30794672997033 -6.734618561215485 C-50.162943948839505 -7.09277823404669, -50.01794116770867 -7.450937906877894, -49.83885864880834 -7.893275190886676 M-49.83885864880834 -7.893275190886676 C-49.65553557762444 -8.2739494706854, -49.47221250644054 -8.654623750484124, -49.296498974273504 -9.019496659696282 M-49.83885864880834 -7.893275190886676 C-49.631321391563496 -8.324230746141536, -49.42378413431865 -8.755186301396398, -49.296498974273504 -9.019496659696282 M-49.296498974273504 -9.019496659696282 C-49.15066274503923 -9.278443652221284, -49.00482651580495 -9.537390644746287, -48.68309637860425 -10.108655082055243 M-49.296498974273504 -9.019496659696282 C-49.16987505223994 -9.244330255329366, -49.043251130206365 -9.46916385096245, -48.68309637860425 -10.108655082055243 M-48.68309637860425 -10.108655082055243 C-48.422904234093025 -10.508380087398196, -48.1627120895818 -10.90810509274115, -48.00117146464064 -11.156274872382308 M-48.68309637860425 -10.108655082055243 C-48.51769582167242 -10.362754753770933, -48.35229526474059 -10.616854425486624, -48.00117146464064 -11.156274872382308 M-48.00117146464064 -11.156274872382308 C-47.75939132181791 -11.480238237140629, -47.51761117899518 -11.80420160189895, -47.25352640812659 -12.158051136245302 M-48.00117146464064 -11.156274872382308 C-47.814679391246784 -11.406157260952678, -47.62818731785293 -11.656039649523048, -47.25352640812659 -12.158051136245302 M-47.25352640812659 -12.158051136245302 C-47.04674382849457 -12.400949720543172, -46.83996124886256 -12.643848304841043, -46.44323344296866 -13.10986736009567 M-47.25352640812659 -12.158051136245302 C-47.06442932357006 -12.380175331694328, -46.875332239013524 -12.602299527143357, -46.44323344296866 -13.10986736009567 M-46.44323344296866 -13.10986736009567 C-46.102934035404516 -13.46125443750661, -45.76263462784036 -13.812641514917551, -45.573622236767996 -14.007812326905677 M-46.44323344296866 -13.10986736009567 C-46.14015707343871 -13.422818594668048, -45.837080703908754 -13.735769829240427, -45.573622236767996 -14.007812326905677 M-45.573622236767996 -14.007812326905677 C-45.386073306453724 -14.178139303144329, -45.198524376139446 -14.34846627938298, -44.64826620850189 -14.848196188198107 M-45.573622236767996 -14.007812326905677 C-45.355947098248535 -14.205499128340492, -45.138271959729074 -14.403185929775304, -44.64826620850189 -14.848196188198107 M-44.64826620850189 -14.848196188198107 C-44.37240960324008 -15.06818449004184, -44.096552997978264 -15.288172791885572, -43.67096784457872 -15.627565626425149 M-44.64826620850189 -14.848196188198107 C-44.36103782561864 -15.077253180079229, -44.07380944273538 -15.306310171960348, -43.67096784457872 -15.627565626425149 M-43.67096784457872 -15.627565626425149 C-43.267401068524876 -15.909076339276144, -42.86383429247104 -16.19058705212714, -42.645743073605715 -16.342718045390885 M-43.67096784457872 -15.627565626425149 C-43.45883372251708 -15.775541206837213, -43.246699600455436 -15.923516787249277, -42.645743073605715 -16.342718045390885 M-42.645743073605715 -16.342718045390885 C-42.30708125426966 -16.54801683047016, -41.9684194349336 -16.753315615549436, -41.57680476407679 -16.99071473040609 M-42.645743073605715 -16.342718045390885 C-42.411966398608975 -16.484434839598144, -42.17818972361223 -16.626151633805403, -41.57680476407679 -16.99071473040609 M-41.57680476407679 -16.99071473040609 C-41.33203525093509 -17.11841082862976, -41.087265737793395 -17.24610692685343, -40.46854541279239 -17.56889292409717 M-41.57680476407679 -16.99071473040609 C-41.13664584628024 -17.220345355885307, -40.696486928483694 -17.449975981364524, -40.46854541279239 -17.56889292409717 M-40.46854541279239 -17.56889292409717 C-40.15567727685173 -17.707390366974597, -39.842809140911086 -17.84588780985202, -39.325519095147804 -18.07487676824742 M-40.46854541279239 -17.56889292409717 C-40.14908874495728 -17.710306914602416, -39.82963207712218 -17.851720905107662, -39.325519095147804 -18.07487676824742 M-39.325519095147804 -18.07487676824742 C-38.86228127151575 -18.245352569467517, -38.3990434478837 -18.415828370687613, -38.15242275146062 -18.506587066708033 M-39.325519095147804 -18.07487676824742 C-38.86282702697967 -18.245151726411887, -38.400134958811535 -18.415426684576353, -38.15242275146062 -18.506587066708033 M-38.15242275146062 -18.506587066708033 C-37.71967346932453 -18.63502478209869, -37.28692418718844 -18.763462497489343, -36.95407688623541 -18.862249829261067 M-38.15242275146062 -18.506587066708033 C-37.73529161361387 -18.630389398854923, -37.31816047576712 -18.754191731001818, -36.95407688623541 -18.862249829261067 M-36.95407688623541 -18.862249829261067 C-36.518318601024426 -18.96170881427192, -36.08256031581344 -19.061167799282767, -35.735405759676766 -19.140403561325773 M-36.95407688623541 -18.862249829261067 C-36.67153898398192 -18.92673726171831, -36.38900108172842 -18.991224694175553, -35.735405759676766 -19.140403561325773 M-35.735405759676766 -19.140403561325773 C-35.259903527202844 -19.21727907469727, -34.78440129472892 -19.294154588068768, -34.50141715284788 -19.3399052695533 M-35.735405759676766 -19.140403561325773 C-35.402398120012364 -19.1942416539939, -35.06939048034796 -19.24807974666202, -34.50141715284788 -19.3399052695533 M-34.50141715284788 -19.3399052695533 C-34.186940863786624 -19.370242418945967, -33.87246457472538 -19.40057956833863, -33.2571817896239 -19.45993515863156 M-34.50141715284788 -19.3399052695533 C-34.04875570554434 -19.38357297496963, -33.5960942582408 -19.427240680385964, -33.2571817896239 -19.45993515863156 M-33.2571817896239 -19.45993515863156 C-32.866604973259186 -19.47246019692072, -32.47602815689447 -19.484985235209884, -32.00781250000001 -19.5 M-33.2571817896239 -19.45993515863156 C-32.84366756582017 -19.473195754932334, -32.43015334201644 -19.486456351233112, -32.00781250000001 -19.5 M-32.00781250000001 -19.5 C-32.00781250000001 -19.5, -32.00781250000001 -19.5, -32.0078125 -19.5 M-32.00781250000001 -19.5 C-32.00781250000001 -19.5, -32.0078125 -19.5, -32.0078125 -19.5" stroke="#999" stroke-width="1.3" fill="none" stroke-dasharray="0 0" style=""/></g><g class="label" style="" transform="translate(-39.1328125, -12)"><rect/><foreignObject width="78.265625" height="24"><div xmlns="http://www.w3.org/1999/xhtml" style="display: table-cell; white-space: nowrap; line-height: 1.5; max-width: 200px; text-align: center;"><span class="nodeLabel"><p>Vnos ISBN</p></span></div></foreignObject></g></g><g class="node default" id="my-svg-flowchart-B-1" data-look="classic" transform="translate(205.23046875, 124)"><rect class="basic label-container" style="" x="-102.9140625" y="-27" width="205.828125" height="54"/><g class="label" style="" transform="translate(-72.9140625, -12)"><rect/><foreignObject width="145.828125" height="24"><div xmlns="http://www.w3.org/1999/xhtml" style="display: table-cell; white-space: nowrap; line-height: 1.5; max-width: 200px; text-align: center;"><span class="nodeLabel"><p>Normaliziraj in potrdi</p></span></div></foreignObject></g></g><g class="node default" id="my-svg-flowchart-C-3" data-look="classic" transform="translate(205.23046875, 295.59375)"><polygon points="94.59375,0 189.1875,-94.59375 94.59375,-189.1875 0,-94.59375" class="label-container" transform="translate(-94.09375, 94.59375)"/><g class="label" style="" transform="translate(-55.59375, -24)"><rect/><foreignObject width="111.1875" height="48"><div xmlns="http://www.w3.org/1999/xhtml" style="display: table-cell; white-space: nowrap; line-height: 1.5; max-width: 200px; text-align: center;"><span class="nodeLabel"><p>Kontrolna vsota<br />veljavna?</p></span></div></foreignObject></g></g><g class="node default" id="my-svg-flowchart-D-5" data-look="classic" transform="translate(282.640625, 1031.28125)"><rect class="basic label-container" style="fill:#ffebee !important;stroke:#c62828 !important" x="-126.046875" y="-27" width="252.09375" height="54"/><g class="label" style="" transform="translate(-96.046875, -12)"><rect/><foreignObject width="192.09375" height="24"><div xmlns="http://www.w3.org/1999/xhtml" style="display: table-cell; white-space: nowrap; line-height: 1.5; max-width: 200px; text-align: center;"><span class="nodeLabel"><p>Prikaži napako pri validaciji</p></span></div></foreignObject></g></g><g class="node default" id="my-svg-flowchart-E-7" data-look="classic" transform="translate(321.765625, 1231.3125)"><rect class="basic label-container" style="fill:#fff3e0 !important;stroke:#e65100 !important" x="-86.921875" y="-39" width="173.84375" height="78"/><g class="label" style="" transform="translate(-56.921875, -24)"><rect/><foreignObject width="113.84375" height="48"><div xmlns="http://www.w3.org/1999/xhtml" style="display: table-cell; white-space: nowrap; line-height: 1.5; max-width: 200px; text-align: center;"><span class="nodeLabel"><p>Ročni vnos<br />(vedno na voljo)</p></span></div></foreignObject></g></g><g class="node default" id="my-svg-flowchart-F-9" data-look="classic" transform="translate(127.8203125, 491.1875)"><rect class="basic label-container" style="" x="-119.8203125" y="-27" width="239.640625" height="54"/><g class="label" style="" transform="translate(-89.8203125, -12)"><rect/><foreignObject width="179.640625" height="24"><div xmlns="http://www.w3.org/1999/xhtml" style="display: table-cell; white-space: nowrap; line-height: 1.5; max-width: 200px; text-align: center;"><span class="nodeLabel"><p>Poizvedi pri Open Library</p></span></div></foreignObject></g></g><g class="node default" id="my-svg-flowchart-G-11" data-look="classic" transform="translate(127.8203125, 655.21875)"><polygon points="87.03125,0 174.0625,-87.03125 87.03125,-174.0625 0,-87.03125" class="label-container" transform="translate(-86.53125, 87.03125)"/><g class="label" style="" transform="translate(-48.03125, -24)"><rect/><foreignObject width="96.0625" height="48"><div xmlns="http://www.w3.org/1999/xhtml" style="display: table-cell; white-space: nowrap; line-height: 1.5; max-width: 200px; text-align: center;"><span class="nodeLabel"><p>Uporabni<br />metapodatki?</p></span></div></foreignObject></g></g><g class="node default" id="my-svg-flowchart-H-13" data-look="classic" transform="translate(127.8203125, 855.25)"><rect class="basic label-container" style="fill:#e8f5e9 !important;stroke:#2e7d32 !important" x="-92.40625" y="-39" width="184.8125" height="78"/><g class="label" style="" transform="translate(-62.40625, -24)"><rect/><foreignObject width="124.8125" height="48"><div xmlns="http://www.w3.org/1999/xhtml" style="display: table-cell; white-space: nowrap; line-height: 1.5; max-width: 200px; text-align: center;"><span class="nodeLabel"><p>Vrni metapodatke<br />Vir: Open Library</p></span></div></foreignObject></g></g><g class="node default" id="my-svg-flowchart-I-15" data-look="classic" transform="translate(568.93359375, 855.25)"><rect class="basic label-container" style="" x="-110.4921875" y="-39" width="220.984375" height="78"/><g class="label" style="" transform="translate(-80.4921875, -24)"><rect/><foreignObject width="160.984375" height="48"><div xmlns="http://www.w3.org/1999/xhtml" style="display: table-cell; white-space: nowrap; line-height: 1.5; max-width: 200px; text-align: center;"><span class="nodeLabel"><p>Poizvedi pri Let Books<br />metapodatkovnem API</p></span></div></foreignObject></g></g><g class="node default" id="my-svg-flowchart-J-17" data-look="classic" transform="translate(568.93359375, 1031.28125)"><polygon points="87.03125,0 174.0625,-87.03125 87.03125,-174.0625 0,-87.03125" class="label-container" transform="translate(-86.53125, 87.03125)"/><g class="label" style="" transform="translate(-48.03125, -24)"><rect/><foreignObject width="96.0625" height="48"><div xmlns="http://www.w3.org/1999/xhtml" style="display: table-cell; white-space: nowrap; line-height: 1.5; max-width: 200px; text-align: center;"><span class="nodeLabel"><p>Uporabni<br />metapodatki?</p></span></div></foreignObject></g></g><g class="node default" id="my-svg-flowchart-K-19" data-look="classic" transform="translate(613.171875, 1231.3125)"><rect class="basic label-container" style="fill:#e8f5e9 !important;stroke:#2e7d32 !important" x="-94.3359375" y="-39" width="188.671875" height="78"/><g class="label" style="" transform="translate(-64.3359375, -24)"><rect/><foreignObject width="128.671875" height="48"><div xmlns="http://www.w3.org/1999/xhtml" style="display: table-cell; white-space: nowrap; line-height: 1.5; max-width: 200px; text-align: center;"><span class="nodeLabel"><p>Vrni metapodatke<br />Vir: Let Books API</p></span></div></foreignObject></g></g></g></g></g><defs><filter id="my-svg-drop-shadow" height="130%" width="130%"><feDropShadow dx="4" dy="4" stdDeviation="0" flood-opacity="0.06" flood-color="#000000"/></filter></defs><defs><filter id="my-svg-drop-shadow-small" height="150%" width="150%"><feDropShadow dx="2" dy="2" stdDeviation="0" flood-opacity="0.06" flood-color="#000000"/></filter></defs><linearGradient id="my-svg-gradient" gradientUnits="objectBoundingBox" x1="0%" y1="0%" x2="100%" y2="0%"><stop offset="0%" stop-color="hsl(0, 0%, 83.3333333333%)" stop-opacity="1"/><stop offset="100%" stop-color="hsl(0, 0%, 88.9215686275%)" stop-opacity="1"/></linearGradient><text text-anchor="middle" x="357.75390625" y="-25" class="flowchartTitleText">Veriga iskanja metapodatkov ISBN</text></svg>