<svg xmlns="http://www.w3.org/2000/svg" viewBox="0 0 80 88" role="img" aria-labelledby="title desc">
  <title id="title">Let Books mark</title>
  <desc id="desc">Open book with a leaf flame above it.</desc>
  <path d="M40 4c4.9 6.2 7.4 12 7.4 17.5 0 4.9-2.4 9.6-7.4 14.4-5-4.8-7.4-9.5-7.4-14.4C32.6 16 35.1 10.2 40 4Z" fill="#d8b244"/>
  <path d="M11 21.5c8.6 0 16.3 2.1 22.8 6.2v47.7c-6-3.6-13.4-5.4-22.1-5.4H4V30.1c0-4.8 2.1-8.6 7-8.6Z" fill="#0f5b45"/>
  <path d="M69 21.5c-8.6 0-16.3 2.1-22.8 6.2v47.7c6-3.6 13.4-5.4 22.1-5.4H76V30.1c0-4.8-2.1-8.6-7-8.6Z" fill="#0f5b45"/>
  <path d="M17 21.6H11c-4 0-7 2.8-7 8.5V70h7.7c8.6 0 16 1.8 22.1 5.4V27.7C28 23.6 22.8 21.6 17 21.6Z" fill="#0b4536" opacity=".18"/>
  <path d="M63 21.6h6c4 0 7 2.8 7 8.5V70h-7.7c-8.6 0-16 1.8-22.1 5.4V27.7c5.8-4.1 11-6.1 16.8-6.1Z" fill="#0b4536" opacity=".1"/>
  <path d="M40 30.3c-7.6-5.6-16-8.5-25.2-8.7v48.2c9.7 0 18 2.1 25.2 6.1 7.2-4 15.5-6.1 25.2-6.1V21.6c-9.2.2-17.6 3.1-25.2 8.7Z" fill="none" stroke="#ffffff" stroke-width="4" stroke-linejoin="round"/>
  <path d="M40 29.7v46.1" stroke="#ffffff" stroke-width="4" stroke-linecap="round"/>
</svg>
