<svg xmlns="http://www.w3.org/2000/svg" viewBox="0 0 96 96" role="img" aria-labelledby="title desc">
  <title id="title">Let Books small favicon</title>
  <desc id="desc">Simplified Let Books open book mark for small favicon sizes.</desc>
  <g transform="translate(8 4)">
    <path d="M40 4c4.9 6.2 7.4 12 7.4 17.5 0 4.9-2.4 9.6-7.4 14.4-5-4.8-7.4-9.5-7.4-14.4C32.6 16 35.1 10.2 40 4Z" fill="#ddb84f"/>
    <path d="M11 21.5c8.6 0 16.3 2.1 22.8 6.2v47.7c-6-3.6-13.4-5.4-22.1-5.4H4V30.1c0-4.8 2.1-8.6 7-8.6Z" fill="#0f5b45"/>
    <path d="M69 21.5c-8.6 0-16.3 2.1-22.8 6.2v47.7c6-3.6 13.4-5.4 22.1-5.4H76V30.1c0-4.8-2.1-8.6-7-8.6Z" fill="#0f5b45"/>
    <path d="M40 30.3c-7.6-5.6-16-8.5-25.2-8.7v48.2c9.7 0 18 2.1 25.2 6.1 7.2-4 15.5-6.1 25.2-6.1V21.6c-9.2.2-17.6 3.1-25.2 8.7Z" fill="none" stroke="#ffffff" stroke-width="5.25" stroke-linejoin="round"/>
    <path d="M40 29.7v46.1" stroke="#ffffff" stroke-width="5.25" stroke-linecap="round"/>
  </g>
</svg>
