<svg id="my-svg" width="100%" xmlns="http://www.w3.org/2000/svg" xmlns:xlink="http://www.w3.org/1999/xlink" class="flowchart" style="max-width: 737.09px; background-color: transparent;" viewBox="0 -49 737.08984375 1374.421875" role="graphics-document document" aria-roledescription="flowchart-v2"><style>#my-svg{font-family:"trebuchet ms",verdana,arial,sans-serif;font-size:16px;fill:#000000;}@keyframes edge-animation-frame{from{stroke-dashoffset:0;}}@keyframes dash{to{stroke-dashoffset:0;}}#my-svg .edge-animation-slow{stroke-dasharray:9,5!important;stroke-dashoffset:900;animation:dash 50s linear infinite;stroke-linecap:round;}#my-svg .edge-animation-fast{stroke-dasharray:9,5!important;stroke-dashoffset:900;animation:dash 20s linear infinite;stroke-linecap:round;}#my-svg .error-icon{fill:#552222;}#my-svg .error-text{fill:#552222;stroke:#552222;}#my-svg .edge-thickness-normal{stroke-width:1px;}#my-svg .edge-thickness-thick{stroke-width:3.5px;}#my-svg .edge-pattern-solid{stroke-dasharray:0;}#my-svg .edge-thickness-invisible{stroke-width:0;fill:none;}#my-svg .edge-pattern-dashed{stroke-dasharray:3;}#my-svg .edge-pattern-dotted{stroke-dasharray:2;}#my-svg .marker{fill:#666;stroke:#666;}#my-svg .marker.cross{stroke:#666;}#my-svg svg{font-family:"trebuchet ms",verdana,arial,sans-serif;font-size:16px;}#my-svg p{margin:0;}#my-svg .label{font-family:"trebuchet ms",verdana,arial,sans-serif;color:#000000;}#my-svg .cluster-label text{fill:#333;}#my-svg .cluster-label span{color:#333;}#my-svg .cluster-label span p{background-color:transparent;}#my-svg .label text,#my-svg span{fill:#000000;color:#000000;}#my-svg .node rect,#my-svg .node circle,#my-svg .node ellipse,#my-svg .node polygon,#my-svg .node path{fill:#eee;stroke:#999;stroke-width:1px;}#my-svg .rough-node .label text,#my-svg .node .label text,#my-svg .image-shape .label,#my-svg .icon-shape .label{text-anchor:middle;}#my-svg .node .katex path{fill:#000;stroke:#000;stroke-width:1px;}#my-svg .rough-node .label,#my-svg .node .label,#my-svg .image-shape .label,#my-svg .icon-shape .label{text-align:center;}#my-svg .node.clickable{cursor:pointer;}#my-svg .root .anchor path{fill:#666!important;stroke-width:0;stroke:#666;}#my-svg .arrowheadPath{fill:#333333;}#my-svg .edgePath .path{stroke:#666;stroke-width:1px;}#my-svg .flowchart-link{stroke:#666;fill:none;}#my-svg .edgeLabel{background-color:white;text-align:center;}#my-svg .edgeLabel p{background-color:white;}#my-svg .edgeLabel rect{opacity:0.5;background-color:white;fill:white;}#my-svg .labelBkg{background-color:rgba(255, 255, 255, 0.5);}#my-svg .cluster rect{fill:hsl(0, 0%, 98.9215686275%);stroke:#707070;stroke-width:1px;}#my-svg .cluster text{fill:#333;}#my-svg .cluster span{color:#333;}#my-svg div.mermaidTooltip{position:absolute;text-align:center;max-width:200px;padding:2px;font-family:"trebuchet ms",verdana,arial,sans-serif;font-size:12px;background:hsl(-160, 0%, 93.3333333333%);border:1px solid #707070;border-radius:2px;pointer-events:none;z-index:100;}#my-svg .flowchartTitleText{text-anchor:middle;font-size:18px;fill:#000000;}#my-svg rect.text{fill:none;stroke-width:0;}#my-svg .icon-shape,#my-svg .image-shape{background-color:white;text-align:center;}#my-svg .icon-shape p,#my-svg .image-shape p{background-color:white;padding:2px;}#my-svg .icon-shape .label rect,#my-svg .image-shape .label rect{opacity:0.5;background-color:white;fill:white;}#my-svg .label-icon{display:inline-block;height:1em;overflow:visible;vertical-align:-0.125em;}#my-svg .node .label-icon path{fill:currentColor;stroke:revert;stroke-width:revert;}#my-svg .node .neo-node{stroke:#999;}#my-svg [data-look="neo"].node rect,#my-svg [data-look="neo"].cluster rect,#my-svg [data-look="neo"].node polygon{stroke:url(#my-svg-gradient);filter:drop-shadow( 1px 2px 2px rgba(185,185,185,1));}#my-svg [data-look="neo"].node path{stroke:url(#my-svg-gradient);stroke-width:1px;}#my-svg [data-look="neo"].node .outer-path{filter:drop-shadow( 1px 2px 2px rgba(185,185,185,1));}#my-svg [data-look="neo"].node .neo-line path{stroke:#999;filter:none;}#my-svg [data-look="neo"].node circle{stroke:url(#my-svg-gradient);filter:drop-shadow( 1px 2px 2px rgba(185,185,185,1));}#my-svg [data-look="neo"].node circle .state-start{fill:#000000;}#my-svg [data-look="neo"].icon-shape .icon{fill:url(#my-svg-gradient);filter:drop-shadow( 1px 2px 2px rgba(185,185,185,1));}#my-svg [data-look="neo"].icon-shape .icon-neo path{stroke:url(#my-svg-gradient);filter:drop-shadow( 1px 2px 2px rgba(185,185,185,1));}#my-svg :root{--mermaid-font-family:"trebuchet ms",verdana,arial,sans-serif;}</style><g><marker id="my-svg_flowchart-v2-pointEnd" class="marker flowchart-v2" viewBox="0 0 10 10" refX="5" refY="5" markerUnits="userSpaceOnUse" markerWidth="8" markerHeight="8" orient="auto"><path d="M 0 0 L 10 5 L 0 10 z" class="arrowMarkerPath" style="stroke-width: 1; stroke-dasharray: 1, 0;"/></marker><marker id="my-svg_flowchart-v2-pointStart" class="marker flowchart-v2" viewBox="0 0 10 10" refX="4.5" refY="5" markerUnits="userSpaceOnUse" markerWidth="8" markerHeight="8" orient="auto"><path d="M 0 5 L 10 10 L 10 0 z" class="arrowMarkerPath" style="stroke-width: 1; stroke-dasharray: 1, 0;"/></marker><marker id="my-svg_flowchart-v2-pointEnd-margin" class="marker flowchart-v2" viewBox="0 0 11.5 14" refX="11.5" refY="7" markerUnits="userSpaceOnUse" markerWidth="10.5" markerHeight="14" orient="auto"><path d="M 0 0 L 11.5 7 L 0 14 z" class="arrowMarkerPath" style="stroke-width: 0; stroke-dasharray: 1, 0;"/></marker><marker id="my-svg_flowchart-v2-pointStart-margin" class="marker flowchart-v2" viewBox="0 0 11.5 14" refX="1" refY="7" markerUnits="userSpaceOnUse" markerWidth="11.5" markerHeight="14" orient="auto"><polygon points="0,7 11.5,14 11.5,0" class="arrowMarkerPath" style="stroke-width: 0; stroke-dasharray: 1, 0;"/></marker><marker id="my-svg_flowchart-v2-circleEnd" class="marker flowchart-v2" viewBox="0 0 10 10" refX="11" refY="5" markerUnits="userSpaceOnUse" markerWidth="11" markerHeight="11" orient="auto"><circle cx="5" cy="5" r="5" class="arrowMarkerPath" style="stroke-width: 1; stroke-dasharray: 1, 0;"/></marker><marker id="my-svg_flowchart-v2-circleStart" class="marker flowchart-v2" viewBox="0 0 10 10" refX="-1" refY="5" markerUnits="userSpaceOnUse" markerWidth="11" markerHeight="11" orient="auto"><circle cx="5" cy="5" r="5" class="arrowMarkerPath" style="stroke-width: 1; stroke-dasharray: 1, 0;"/></marker><marker id="my-svg_flowchart-v2-circleEnd-margin" class="marker flowchart-v2" viewBox="0 0 10 10" refY="5" refX="12.25" markerUnits="userSpaceOnUse" markerWidth="14" markerHeight="14" orient="auto"><circle cx="5" cy="5" r="5" class="arrowMarkerPath" style="stroke-width: 0; stroke-dasharray: 1, 0;"/></marker><marker id="my-svg_flowchart-v2-circleStart-margin" class="marker flowchart-v2" viewBox="0 0 10 10" refX="-2" refY="5" markerUnits="userSpaceOnUse" markerWidth="14" markerHeight="14" orient="auto"><circle cx="5" cy="5" r="5" class="arrowMarkerPath" style="stroke-width: 0; stroke-dasharray: 1, 0;"/></marker><marker id="my-svg_flowchart-v2-crossEnd" class="marker cross flowchart-v2" viewBox="0 0 11 11" refX="12" refY="5.2" markerUnits="userSpaceOnUse" markerWidth="11" markerHeight="11" orient="auto"><path d="M 1,1 l 9,9 M 10,1 l -9,9" class="arrowMarkerPath" style="stroke-width: 2; stroke-dasharray: 1, 0;"/></marker><marker id="my-svg_flowchart-v2-crossStart" class="marker cross flowchart-v2" viewBox="0 0 11 11" refX="-1" refY="5.2" markerUnits="userSpaceOnUse" markerWidth="11" markerHeight="11" orient="auto"><path d="M 1,1 l 9,9 M 10,1 l -9,9" class="arrowMarkerPath" style="stroke-width: 2; stroke-dasharray: 1, 0;"/></marker><marker id="my-svg_flowchart-v2-crossEnd-margin" class="marker cross flowchart-v2" viewBox="0 0 15 15" refX="17.7" refY="7.5" markerUnits="userSpaceOnUse" markerWidth="12" markerHeight="12" orient="auto"><path d="M 1,1 L 14,14 M 1,14 L 14,1" class="arrowMarkerPath" style="stroke-width: 2.5;"/></marker><marker id="my-svg_flowchart-v2-crossStart-margin" class="marker cross flowchart-v2" viewBox="0 0 15 15" refX="-3.5" refY="7.5" markerUnits="userSpaceOnUse" markerWidth="12" markerHeight="12" orient="auto"><path d="M 1,1 L 14,14 M 1,14 L 14,1" class="arrowMarkerPath" style="stroke-width: 2.5; stroke-dasharray: 1, 0;"/></marker><g class="root"><g class="clusters"/><g class="edgePaths"><path d="M193.73,47.5L193.647,51.583C193.564,55.667,193.397,63.833,193.314,71.417C193.23,79,193.23,86,193.23,89.5L193.23,93" id="my-svg-L_A_B_0" class="edge-thickness-normal edge-pattern-solid edge-thickness-normal edge-pattern-solid flowchart-link" style=";" data-edge="true" data-et="edge" data-id="L_A_B_0" data-points="W3sieCI6MTkzLjczMDQ2ODc1LCJ5Ijo0Ny41MDAwMDAwMDAwMDAwMX0seyJ4IjoxOTMuMjMwNDY4NzUsInkiOjcyfSx7IngiOjE5My4yMzA0Njg3NSwieSI6OTd9XQ==" data-look="classic" marker-end="url(#my-svg_flowchart-v2-pointEnd)"/><path d="M193.23,151L193.23,155.167C193.23,159.333,193.23,167.667,193.23,175.333C193.23,183,193.23,190,193.23,193.5L193.23,197" id="my-svg-L_B_C_0" class="edge-thickness-normal edge-pattern-solid edge-thickness-normal edge-pattern-solid flowchart-link" style=";" data-edge="true" data-et="edge" data-id="L_B_C_0" data-points="W3sieCI6MTkzLjIzMDQ2ODc1LCJ5IjoxNTF9LHsieCI6MTkzLjIzMDQ2ODc1LCJ5IjoxNzZ9LHsieCI6MTkzLjIzMDQ2ODc1LCJ5IjoyMDF9XQ==" data-look="classic" marker-end="url(#my-svg_flowchart-v2-pointEnd)"/><path d="M226.315,349.087L233.036,360.768C239.757,372.449,253.199,395.81,259.92,418.158C266.641,440.505,266.641,461.839,266.641,481.172C266.641,500.505,266.641,517.839,266.641,547.474C266.641,577.109,266.641,619.047,266.641,662.984C266.641,706.922,266.641,752.859,266.641,788.495C266.641,824.13,266.641,849.464,266.641,872.797C266.641,896.13,266.641,917.464,266.641,943.932C266.641,970.401,266.641,1002.005,266.641,1017.807L266.641,1033.609" id="my-svg-L_C_D_0" class="edge-thickness-normal edge-pattern-solid edge-thickness-normal edge-pattern-solid flowchart-link" style=";" data-edge="true" data-et="edge" data-id="L_C_D_0" data-points="W3sieCI6MjI2LjMxNTMyOTc2MzI2NCwieSI6MzQ5LjA4NzAxMzk4NjczNn0seyJ4IjoyNjYuNjQwNjI1LCJ5Ijo0MTkuMTcxODc1fSx7IngiOjI2Ni42NDA2MjUsInkiOjQ4My4xNzE4NzV9LHsieCI6MjY2LjY0MDYyNSwieSI6NTM1LjE3MTg3NX0seyJ4IjoyNjYuNjQwNjI1LCJ5Ijo2NjAuOTg0Mzc1fSx7IngiOjI2Ni42NDA2MjUsInkiOjc5OC43OTY4NzV9LHsieCI6MjY2LjY0MDYyNSwieSI6ODc0Ljc5Njg3NX0seyJ4IjoyNjYuNjQwNjI1LCJ5Ijo5MzguNzk2ODc1fSx7IngiOjI2Ni42NDA2MjUsInkiOjEwMzcuNjA5Mzc1fV0=" data-look="classic" marker-end="url(#my-svg_flowchart-v2-pointEnd)"/><path d="M266.641,1091.609L266.641,1110.078C266.641,1128.547,266.641,1165.484,269.577,1189.53C272.514,1213.575,278.387,1224.729,281.324,1230.306L284.26,1235.883" id="my-svg-L_D_E_0" class="edge-thickness-normal edge-pattern-solid edge-thickness-normal edge-pattern-solid flowchart-link" style=";" data-edge="true" data-et="edge" data-id="L_D_E_0" data-points="W3sieCI6MjY2LjY0MDYyNSwieSI6MTA5MS42MDkzNzV9LHsieCI6MjY2LjY0MDYyNSwieSI6MTIwMi40MjE4NzV9LHsieCI6Mjg2LjEyMzgxNzg0NTM5NDc0LCJ5IjoxMjM5LjQyMTg3NX1d" data-look="classic" marker-end="url(#my-svg_flowchart-v2-pointEnd)"/><path d="M160.146,349.087L153.425,360.768C146.704,372.449,133.262,395.81,126.541,412.991C119.82,430.172,119.82,441.172,119.82,446.672L119.82,452.172" id="my-svg-L_C_F_0" class="edge-thickness-normal edge-pattern-solid edge-thickness-normal edge-pattern-solid flowchart-link" style=";" data-edge="true" data-et="edge" data-id="L_C_F_0" data-points="W3sieCI6MTYwLjE0NTYwNzczNjczNiwieSI6MzQ5LjA4NzAxMzk4NjczNn0seyJ4IjoxMTkuODIwMzEyNSwieSI6NDE5LjE3MTg3NX0seyJ4IjoxMTkuODIwMzEyNSwieSI6NDU2LjE3MTg3NX1d" data-look="classic" marker-end="url(#my-svg_flowchart-v2-pointEnd)"/><path d="M119.82,510.172L119.82,514.339C119.82,518.505,119.82,526.839,119.82,534.505C119.82,542.172,119.82,549.172,119.82,552.672L119.82,556.172" id="my-svg-L_F_G_0" class="edge-thickness-normal edge-pattern-solid edge-thickness-normal edge-pattern-solid flowchart-link" style=";" data-edge="true" data-et="edge" data-id="L_F_G_0" data-points="W3sieCI6MTE5LjgyMDMxMjUsInkiOjUxMC4xNzE4NzV9LHsieCI6MTE5LjgyMDMxMjUsInkiOjUzNS4xNzE4NzV9LHsieCI6MTE5LjgyMDMxMjUsInkiOjU2MC4xNzE4NzV9XQ==" data-look="classic" marker-end="url(#my-svg_flowchart-v2-pointEnd)"/><path d="M119.82,761.797L119.82,767.964C119.82,774.13,119.82,786.464,119.82,798.13C119.82,809.797,119.82,820.797,119.82,826.297L119.82,831.797" id="my-svg-L_G_H_0" class="edge-thickness-normal edge-pattern-solid edge-thickness-normal edge-pattern-solid flowchart-link" style=";" data-edge="true" data-et="edge" data-id="L_G_H_0" data-points="W3sieCI6MTE5LjgyMDMxMjUsInkiOjc2MS43OTY4NzV9LHsieCI6MTE5LjgyMDMxMjUsInkiOjc5OC43OTY4NzV9LHsieCI6MTE5LjgyMDMxMjUsInkiOjgzNS43OTY4NzV9XQ==" data-look="classic" marker-end="url(#my-svg_flowchart-v2-pointEnd)"/><path d="M196.929,684.688L258.796,703.706C320.662,722.724,444.396,760.761,506.262,785.279C568.129,809.797,568.129,820.797,568.129,826.297L568.129,831.797" id="my-svg-L_G_I_0" class="edge-thickness-normal edge-pattern-solid edge-thickness-normal edge-pattern-solid flowchart-link" style=";" data-edge="true" data-et="edge" data-id="L_G_I_0" data-points="W3sieCI6MTk2LjkyOTEzOTY1MDgyNjA3LCJ5Ijo2ODQuNjg4MDQ3ODQ5MTczOX0seyJ4Ijo1NjguMTI4OTA2MjUsInkiOjc5OC43OTY4NzV9LHsieCI6NTY4LjEyODkwNjI1LCJ5Ijo4MzUuNzk2ODc1fV0=" data-look="classic" marker-end="url(#my-svg_flowchart-v2-pointEnd)"/><path d="M568.129,913.797L568.129,917.964C568.129,922.13,568.129,930.464,568.129,938.13C568.129,945.797,568.129,952.797,568.129,956.297L568.129,959.797" id="my-svg-L_I_J_0" class="edge-thickness-normal edge-pattern-solid edge-thickness-normal edge-pattern-solid flowchart-link" style=";" data-edge="true" data-et="edge" data-id="L_I_J_0" data-points="W3sieCI6NTY4LjEyODkwNjI1LCJ5Ijo5MTMuNzk2ODc1fSx7IngiOjU2OC4xMjg5MDYyNSwieSI6OTM4Ljc5Njg3NX0seyJ4Ijo1NjguMTI4OTA2MjUsInkiOjk2My43OTY4NzV9XQ==" data-look="classic" marker-end="url(#my-svg_flowchart-v2-pointEnd)"/><path d="M592.999,1140.551L596.377,1150.863C599.754,1161.175,606.508,1181.798,609.885,1197.61C613.262,1213.422,613.262,1224.422,613.262,1229.922L613.262,1235.422" id="my-svg-L_J_K_0" class="edge-thickness-normal edge-pattern-solid edge-thickness-normal edge-pattern-solid flowchart-link" style=";" data-edge="true" data-et="edge" data-id="L_J_K_0" data-points="W3sieCI6NTkyLjk5OTQ2MjM2MzA4MDMsInkiOjExNDAuNTUxMzE4ODg2OTE5N30seyJ4Ijo2MTMuMjYxNzE4NzUsInkiOjEyMDIuNDIxODc1fSx7IngiOjYxMy4yNjE3MTg3NSwieSI6MTIzOS40MjE4NzV9XQ==" data-look="classic" marker-end="url(#my-svg_flowchart-v2-pointEnd)"/><path d="M519.51,1116.803L506.217,1131.073C492.924,1145.342,466.339,1173.882,442.826,1193.988C419.313,1214.094,398.873,1225.766,388.652,1231.602L378.432,1237.438" id="my-svg-L_J_E_0" class="edge-thickness-normal edge-pattern-solid edge-thickness-normal edge-pattern-solid flowchart-link" style=";" data-edge="true" data-et="edge" data-id="L_J_E_0" data-points="W3sieCI6NTE5LjUwOTc3NjE3MjUxNywieSI6MTExNi44MDI3NDQ5MjI1MTd9LHsieCI6NDM5Ljc1MzkwNjI1LCJ5IjoxMjAyLjQyMTg3NX0seyJ4IjozNzQuOTU4MjY0ODAyNjMxNTYsInkiOjEyMzkuNDIxODc1fV0=" data-look="classic" marker-end="url(#my-svg_flowchart-v2-pointEnd)"/></g><g class="edgeLabels"><g class="edgeLabel"><g class="label" data-id="L_A_B_0" transform="translate(0, 0)"><foreignObject width="0" height="0"><div xmlns="http://www.w3.org/1999/xhtml" class="labelBkg" style="display: table-cell; white-space: nowrap; line-height: 1.5; max-width: 200px; text-align: center;"><span class="edgeLabel"></span></div></foreignObject></g></g><g class="edgeLabel"><g class="label" data-id="L_B_C_0" transform="translate(0, 0)"><foreignObject width="0" height="0"><div xmlns="http://www.w3.org/1999/xhtml" class="labelBkg" style="display: table-cell; white-space: nowrap; line-height: 1.5; max-width: 200px; text-align: center;"><span class="edgeLabel"></span></div></foreignObject></g></g><g class="edgeLabel" transform="translate(266.640625, 660.984375)"><g class="label" data-id="L_C_D_0" transform="translate(-10.2265625, -12)"><foreignObject width="20.453125" height="24"><div xmlns="http://www.w3.org/1999/xhtml" class="labelBkg" style="display: table-cell; white-space: nowrap; line-height: 1.5; max-width: 200px; text-align: center;"><span class="edgeLabel"><p>Ne</p></span></div></foreignObject></g></g><g class="edgeLabel"><g class="label" data-id="L_D_E_0" transform="translate(0, 0)"><foreignObject width="0" height="0"><div xmlns="http://www.w3.org/1999/xhtml" class="labelBkg" style="display: table-cell; white-space: nowrap; line-height: 1.5; max-width: 200px; text-align: center;"><span class="edgeLabel"></span></div></foreignObject></g></g><g class="edgeLabel" transform="translate(119.8203125, 419.171875)"><g class="label" data-id="L_C_F_0" transform="translate(-10.2265625, -12)"><foreignObject width="20.453125" height="24"><div xmlns="http://www.w3.org/1999/xhtml" class="labelBkg" style="display: table-cell; white-space: nowrap; line-height: 1.5; max-width: 200px; text-align: center;"><span class="edgeLabel"><p>Da</p></span></div></foreignObject></g></g><g class="edgeLabel"><g class="label" data-id="L_F_G_0" transform="translate(0, 0)"><foreignObject width="0" height="0"><div xmlns="http://www.w3.org/1999/xhtml" class="labelBkg" style="display: table-cell; white-space: nowrap; line-height: 1.5; max-width: 200px; text-align: center;"><span class="edgeLabel"></span></div></foreignObject></g></g><g class="edgeLabel" transform="translate(119.8203125, 798.796875)"><g class="label" data-id="L_G_H_0" transform="translate(-10.2265625, -12)"><foreignObject width="20.453125" height="24"><div xmlns="http://www.w3.org/1999/xhtml" class="labelBkg" style="display: table-cell; white-space: nowrap; line-height: 1.5; max-width: 200px; text-align: center;"><span class="edgeLabel"><p>Da</p></span></div></foreignObject></g></g><g class="edgeLabel" transform="translate(568.12890625, 798.796875)"><g class="label" data-id="L_G_I_0" transform="translate(-60.0390625, -12)"><foreignObject width="120.078125" height="24"><div xmlns="http://www.w3.org/1999/xhtml" class="labelBkg" style="display: table-cell; white-space: nowrap; line-height: 1.5; max-width: 200px; text-align: center;"><span class="edgeLabel"><p>Ne / Nedostupno</p></span></div></foreignObject></g></g><g class="edgeLabel"><g class="label" data-id="L_I_J_0" transform="translate(0, 0)"><foreignObject width="0" height="0"><div xmlns="http://www.w3.org/1999/xhtml" class="labelBkg" style="display: table-cell; white-space: nowrap; line-height: 1.5; max-width: 200px; text-align: center;"><span class="edgeLabel"></span></div></foreignObject></g></g><g class="edgeLabel" transform="translate(613.26171875, 1202.421875)"><g class="label" data-id="L_J_K_0" transform="translate(-10.2265625, -12)"><foreignObject width="20.453125" height="24"><div xmlns="http://www.w3.org/1999/xhtml" class="labelBkg" style="display: table-cell; white-space: nowrap; line-height: 1.5; max-width: 200px; text-align: center;"><span class="edgeLabel"><p>Da</p></span></div></foreignObject></g></g><g class="edgeLabel" transform="translate(454.20256, 1186.91103)"><g class="label" data-id="L_J_E_0" transform="translate(-60.0390625, -12)"><foreignObject width="120.078125" height="24"><div xmlns="http://www.w3.org/1999/xhtml" class="labelBkg" style="display: table-cell; white-space: nowrap; line-height: 1.5; max-width: 200px; text-align: center;"><span class="edgeLabel"><p>Ne / Nedostupno</p></span></div></foreignObject></g></g></g><g class="nodes"><g class="node default" id="my-svg-flowchart-A-0" data-look="classic" transform="translate(193.23046875, 27.5)"><g class="basic label-container outer-path"><path d="M-32.4453125 -19.5 C-17.330229616961475 -19.5, -2.21514673392295 -19.5, 32.4453125 -19.5 C32.4453125 -19.5, 32.4453125 -19.5, 32.4453125 -19.5 C32.79790534641065 -19.488693033695952, 33.150498192821296 -19.477386067391905, 33.6946817896239 -19.45993515863156 C34.18297419211356 -19.412830177820915, 34.671266594603225 -19.365725197010267, 34.938917152847864 -19.3399052695533 C35.273090381414995 -19.285878733510657, 35.60726360998212 -19.23185219746802, 36.17290575967676 -19.140403561325776 C36.59750241625539 -19.04349214521383, 37.02209907283402 -18.94658072910188, 37.39157688623539 -18.862249829261074 C37.650802536442306 -18.78531301698287, 37.91002818664922 -18.70837620470466, 38.589922751460605 -18.50658706670804 C38.969645535232 -18.366845572161232, 39.34936831900339 -18.227104077614424, 39.7630190951478 -18.074876768247425 C40.19326346079525 -17.884420350320944, 40.623507826442705 -17.69396393239446, 40.90604541279238 -17.568892924097174 C41.16017051040259 -17.43631602344882, 41.4142956080128 -17.30373912280047, 42.01430476407678 -16.990714730406097 C42.310896096120764 -16.810919321956902, 42.60748742816474 -16.63112391350771, 43.0832430736057 -16.342718045390892 C43.31272247241897 -16.18264315078182, 43.542201871232244 -16.02256825617275, 44.10846784457871 -15.627565626425154 C44.31213514947526 -15.46514637058476, 44.5158024543718 -15.302727114744364, 45.085766208501866 -14.848196188198123 C45.35694315807982 -14.601920457540338, 45.62812010765778 -14.35564472688255, 46.01112223676799 -14.007812326905688 C46.27365806334879 -13.736722531368788, 46.536193889929585 -13.465632735831887, 46.88073344296865 -13.10986736009568 C47.073737052845615 -12.883154337717677, 47.26674066272259 -12.656441315339675, 47.69102640812658 -12.158051136245305 C47.91651381361244 -11.855918555219485, 48.142001219098304 -11.553785974193666, 48.438671464640635 -11.156274872382312 C48.63319882758158 -10.857428604994077, 48.82772619052252 -10.558582337605843, 49.12059637860425 -10.108655082055241 C49.26256422221523 -9.85657679992091, 49.404532065826224 -9.604498517786578, 49.733998974273504 -9.019496659696287 C49.93507954829593 -8.601948545303665, 50.13616012231836 -8.184400430911042, 50.27635864880834 -7.893275190886684 C50.37884808801098 -7.640124294557651, 50.481337527213626 -7.386973398228617, 50.745446729970325 -6.734618561215508 C50.834209674673495 -6.4672787142242125, 50.922972619376665 -6.199938867232917, 51.13933563421488 -5.548287939305138 C51.241992793205405 -5.156811700180135, 51.34464995219592 -4.76533546105513, 51.45640678754556 -4.339158212148133 C51.54791063644902 -3.8693052873741904, 51.639414485352475 -3.3994523626002477, 51.695357276581774 -3.1121979531509023 C51.748427448331746 -2.70059618094891, 51.80149762008171 -2.288994408746918, 51.85520520250937 -1.872449005199798 C51.87384974716721 -1.582045172548257, 51.89249429182506 -1.291641339896716, 51.93529371591342 -0.6250057626472757 C51.93529371591342 -0.2668806088203615, 51.93529371591342 0.09124454500655266, 51.93529371591342 0.625005762647271 C51.905927426747205 1.0824094204529489, 51.876561137581 1.5398130782586266, 51.85520520250937 1.8724490051997846 C51.79921220822891 2.3067196117716424, 51.74321921394845 2.7409902183434998, 51.695357276581774 3.1121979531508885 C51.616121083800536 3.51905905650729, 51.53688489101929 3.925920159863691, 51.45640678754556 4.339158212148129 C51.38856900941011 4.597853061257613, 51.32073123127467 4.856547910367097, 51.13933563421489 5.548287939305125 C51.0283425701129 5.8825813640371365, 50.9173495060109 6.216874788769148, 50.745446729970325 6.734618561215495 C50.611383112948964 7.065758287201969, 50.4773194959276 7.3968980131884425, 50.27635864880834 7.893275190886679 C50.090388504053195 8.279446175594398, 49.90441835929805 8.665617160302116, 49.733998974273504 9.019496659696284 C49.50650732722982 9.423431115049553, 49.27901568018613 9.827365570402822, 49.12059637860425 10.108655082055236 C48.892592097747446 10.458930885173388, 48.66458781689064 10.809206688291537, 48.43867146464064 11.156274872382301 C48.21587358169581 11.454803738223683, 47.993075698750985 11.753332604065065, 47.69102640812658 12.158051136245302 C47.41216164105448 12.485621559502954, 47.13329687398238 12.813191982760607, 46.88073344296866 13.10986736009567 C46.56629903017716 13.434546706848284, 46.25186461738567 13.759226053600898, 46.01112223676799 14.007812326905684 C45.69564689787433 14.29431868266884, 45.38017155898068 14.580825038431994, 45.08576620850189 14.848196188198111 C44.78311347666112 15.089553687913682, 44.48046074482036 15.330911187629251, 44.10846784457871 15.627565626425152 C43.735019015234805 15.888067363436194, 43.361570185890905 16.148569100447236, 43.08324307360571 16.34271804539089 C42.74014596919354 16.55070552634793, 42.39704886478138 16.758693007304966, 42.01430476407678 16.990714730406093 C41.73531789924136 17.136261999091122, 41.45633103440593 17.281809267776147, 40.90604541279239 17.56889292409717 C40.62232728881245 17.69448652138397, 40.33860916483251 17.820080118670766, 39.763019095147804 18.07487676824742 C39.30858206538184 18.24211379597115, 38.85414503561587 18.40935082369488, 38.58992275146062 18.506587066708033 C38.313063403797955 18.58875746782994, 38.03620405613529 18.67092786895185, 37.39157688623541 18.86224982926107 C37.08788205846013 18.931566191906818, 36.78418723068485 19.000882554552568, 36.172905759676766 19.140403561325773 C35.83720389988124 19.194677234610708, 35.50150204008572 19.248950907895644, 34.93891715284788 19.3399052695533 C34.47837759737561 19.384332966589856, 34.017838041903346 19.428760663626417, 33.6946817896239 19.45993515863156 C33.236988693854315 19.474612485367324, 32.77929559808474 19.489289812103088, 32.44531250000001 19.5 C32.44531250000001 19.5, 32.4453125 19.5, 32.4453125 19.5 C13.586995340654472 19.5, -5.271321818691057 19.5, -32.44531249999999 19.5 C-32.69898117675272 19.491865339272668, -32.952649853505434 19.48373067854533, -33.69468178962389 19.45993515863156 C-34.11993662867644 19.41891133575193, -34.54519146772899 19.377887512872302, -34.93891715284787 19.3399052695533 C-35.23957475245331 19.291297280483597, -35.54023235205875 19.2426892914139, -36.17290575967676 19.140403561325773 C-36.5759306188866 19.048415767194115, -36.97895547809645 18.95642797306246, -37.391576886235384 18.862249829261074 C-37.739525083349356 18.758980630775003, -38.087473280463335 18.655711432288935, -38.58992275146059 18.506587066708043 C-38.87372063893191 18.402146820719686, -39.15751852640322 18.29770657473133, -39.7630190951478 18.074876768247425 C-40.104385608430505 17.923763939094997, -40.44575212171321 17.772651109942572, -40.90604541279238 17.568892924097174 C-41.253960670569946 17.387385756964978, -41.60187592834751 17.205878589832782, -42.01430476407678 16.990714730406097 C-42.422574712099546 16.74321908865417, -42.83084466012231 16.49572344690224, -43.083243073605686 16.3427180453909 C-43.408343432088536 16.11594210868096, -43.73344379057138 15.889166171971025, -44.10846784457871 15.627565626425156 C-44.41986470299561 15.379234918456097, -44.73126156141251 15.130904210487039, -45.085766208501866 14.848196188198125 C-45.293737312837756 14.659322333854158, -45.501708417173646 14.47044847951019, -46.011122236767974 14.007812326905697 C-46.25363732527324 13.757395587164954, -46.4961524137785 13.50697884742421, -46.880733442968655 13.109867360095677 C-47.14904817479293 12.794689608554132, -47.41736290661721 12.479511857012586, -47.691026408126575 12.158051136245307 C-47.97995898133048 11.770907810450991, -48.26889155453439 11.383764484656677, -48.438671464640635 11.156274872382316 C-48.57621152795655 10.944976400450729, -48.71375159127246 10.733677928519143, -49.12059637860425 10.108655082055249 C-49.32648440749416 9.743080038337556, -49.53237243638407 9.377504994619864, -49.733998974273504 9.019496659696289 C-49.88076437050161 8.714735174152207, -50.027529766729714 8.409973688608126, -50.27635864880834 7.893275190886686 C-50.39991771764763 7.588081902001545, -50.52347678648693 7.282888613116404, -50.745446729970325 6.73461856121551 C-50.88988038534879 6.2996074035934155, -51.03431404072725 5.864596245971321, -51.13933563421488 5.5482879393051325 C-51.21544071827711 5.258066269623772, -51.29154580233934 4.96784459994241, -51.45640678754556 4.339158212148136 C-51.54690483307821 3.874469875106675, -51.63740287861086 3.4097815380652143, -51.695357276581774 3.112197953150904 C-51.73391403835461 2.813159322734589, -51.77247080012745 2.514120692318274, -51.85520520250937 1.872449005199809 C-51.87971547357807 1.4906817489701063, -51.904225744646766 1.1089144927404035, -51.93529371591342 0.6250057626472781 C-51.93529371591342 0.14618639435585312, -51.93529371591342 -0.3326329739355719, -51.93529371591342 -0.6250057626472687 C-51.909901535763005 -1.0205094646888813, -51.884509355612586 -1.4160131667304936, -51.85520520250937 -1.8724490051997822 C-51.81265459351093 -2.2024631260235212, -51.77010398451249 -2.53247724684726, -51.695357276581774 -3.112197953150895 C-51.6097724951699 -3.5516577173509045, -51.52418771375803 -3.991117481550914, -51.45640678754556 -4.339158212148126 C-51.39127287850051 -4.58754203655167, -51.32613896945545 -4.835925860955215, -51.13933563421489 -5.548287939305123 C-51.02185971852864 -5.902106680106797, -50.90438380284238 -6.255925420908472, -50.74544672997033 -6.734618561215485 C-50.64772176430221 -6.976001115799423, -50.54999679863409 -7.21738367038336, -50.27635864880834 -7.893275190886676 C-50.13942575127324 -8.177619282512968, -50.00249285373813 -8.46196337413926, -49.733998974273504 -9.019496659696282 C-49.515230278978564 -9.407942630925008, -49.29646158368362 -9.796388602153735, -49.12059637860425 -10.108655082055243 C-48.8554955124167 -10.515921202069359, -48.590394646229164 -10.923187322083473, -48.43867146464064 -11.156274872382308 C-48.228734563788315 -11.437571193879307, -48.01879766293599 -11.718867515376305, -47.69102640812659 -12.158051136245302 C-47.523894381554626 -12.35437392473845, -47.35676235498266 -12.550696713231597, -46.88073344296866 -13.10986736009567 C-46.60414071888191 -13.395472056400212, -46.327547994795154 -13.681076752704755, -46.011122236767996 -14.007812326905677 C-45.74731974537208 -14.247390769760006, -45.48351725397617 -14.486969212614335, -45.08576620850189 -14.848196188198107 C-44.88280708178551 -15.010050690785233, -44.67984795506913 -15.171905193372359, -44.10846784457872 -15.627565626425149 C-43.81340728928671 -15.833387096831284, -43.51834673399469 -16.03920856723742, -43.083243073605715 -16.342718045390885 C-42.657566871160824 -16.60076546086401, -42.231890668715934 -16.858812876337133, -42.01430476407679 -16.99071473040609 C-41.66594387657652 -17.172454382279184, -41.31758298907625 -17.35419403415228, -40.90604541279239 -17.56889292409717 C-40.46769277261851 -17.762938634633084, -40.02934013244463 -17.956984345168994, -39.763019095147804 -18.07487676824742 C-39.42169460314629 -18.200487336472992, -39.08037011114478 -18.326097904698567, -38.58992275146062 -18.506587066708033 C-38.31215985713248 -18.58902563573744, -38.03439696280434 -18.67146420476685, -37.39157688623541 -18.862249829261067 C-36.923542535695766 -18.969075615562176, -36.45550818515612 -19.07590140186328, -36.172905759676766 -19.140403561325773 C-35.87528095624325 -19.18852123143008, -35.57765615280974 -19.23663890153439, -34.93891715284788 -19.3399052695533 C-34.50097360997619 -19.38215315642996, -34.063030067104506 -19.424401043306624, -33.6946817896239 -19.45993515863156 C-33.36083993656274 -19.470640817075484, -33.026998083501574 -19.48134647551941, -32.44531250000001 -19.5 C-32.44531250000001 -19.5, -32.4453125 -19.5, -32.4453125 -19.5" stroke="none" stroke-width="0" fill="#eee" style=""/><path d="M-32.4453125 -19.5 C-6.874147178664092 -19.5, 18.697018142671816 -19.5, 32.4453125 -19.5 M-32.4453125 -19.5 C-17.606089783944117 -19.5, -2.766867067888235 -19.5, 32.4453125 -19.5 M32.4453125 -19.5 C32.4453125 -19.5, 32.4453125 -19.5, 32.4453125 -19.5 M32.4453125 -19.5 C32.4453125 -19.5, 32.4453125 -19.5, 32.4453125 -19.5 M32.4453125 -19.5 C32.90260732590835 -19.4853354450035, 33.35990215181669 -19.470670890007003, 33.6946817896239 -19.45993515863156 M32.4453125 -19.5 C32.75639547030166 -19.490024174628694, 33.06747844060333 -19.48004834925739, 33.6946817896239 -19.45993515863156 M33.6946817896239 -19.45993515863156 C34.134844465272806 -19.417473194684778, 34.575007140921706 -19.375011230737993, 34.938917152847864 -19.3399052695533 M33.6946817896239 -19.45993515863156 C34.06407544196378 -19.424300197251195, 34.43346909430367 -19.388665235870832, 34.938917152847864 -19.3399052695533 M34.938917152847864 -19.3399052695533 C35.24363748232943 -19.290640449824167, 35.54835781181101 -19.241375630095035, 36.17290575967676 -19.140403561325776 M34.938917152847864 -19.3399052695533 C35.39402963997007 -19.26632621208543, 35.84914212709227 -19.192747154617564, 36.17290575967676 -19.140403561325776 M36.17290575967676 -19.140403561325776 C36.45747204671924 -19.075453163276894, 36.74203833376172 -19.010502765228015, 37.39157688623539 -18.862249829261074 M36.17290575967676 -19.140403561325776 C36.58760638603555 -19.045750849533874, 37.00230701239435 -18.95109813774197, 37.39157688623539 -18.862249829261074 M37.39157688623539 -18.862249829261074 C37.71675944349618 -18.765737353184146, 38.041942000756976 -18.66922487710722, 38.589922751460605 -18.50658706670804 M37.39157688623539 -18.862249829261074 C37.79272512028513 -18.743191139065164, 38.19387335433486 -18.62413244886925, 38.589922751460605 -18.50658706670804 M38.589922751460605 -18.50658706670804 C38.86214192016776 -18.406407896257395, 39.13436108887492 -18.30622872580675, 39.7630190951478 -18.074876768247425 M38.589922751460605 -18.50658706670804 C38.95916400332771 -18.37070287279223, 39.32840525519481 -18.23481867887642, 39.7630190951478 -18.074876768247425 M39.7630190951478 -18.074876768247425 C40.119480544586324 -17.91708185863419, 40.47594199402485 -17.759286949020954, 40.90604541279238 -17.568892924097174 M39.7630190951478 -18.074876768247425 C40.05923037641496 -17.943752820825917, 40.355441657682114 -17.812628873404407, 40.90604541279238 -17.568892924097174 M40.90604541279238 -17.568892924097174 C41.211658379646806 -17.409454835043668, 41.51727134650124 -17.25001674599016, 42.01430476407678 -16.990714730406097 M40.90604541279238 -17.568892924097174 C41.30120555667067 -17.36273813014802, 41.69636570054897 -17.15658333619887, 42.01430476407678 -16.990714730406097 M42.01430476407678 -16.990714730406097 C42.42749770250481 -16.740234742939798, 42.840690640932834 -16.489754755473495, 43.0832430736057 -16.342718045390892 M42.01430476407678 -16.990714730406097 C42.419597388179405 -16.745023959911258, 42.824890012282026 -16.49933318941642, 43.0832430736057 -16.342718045390892 M43.0832430736057 -16.342718045390892 C43.47064264260026 -16.072484876317336, 43.85804221159483 -15.802251707243782, 44.10846784457871 -15.627565626425154 M43.0832430736057 -16.342718045390892 C43.33138217401164 -16.169626950716243, 43.57952127441757 -15.996535856041591, 44.10846784457871 -15.627565626425154 M44.10846784457871 -15.627565626425154 C44.45524898476906 -15.351016895357054, 44.8020301249594 -15.074468164288952, 45.085766208501866 -14.848196188198123 M44.10846784457871 -15.627565626425154 C44.46609907722931 -15.342364235353092, 44.8237303098799 -15.05716284428103, 45.085766208501866 -14.848196188198123 M45.085766208501866 -14.848196188198123 C45.32806943008014 -14.628142813352666, 45.57037265165842 -14.408089438507208, 46.01112223676799 -14.007812326905688 M45.085766208501866 -14.848196188198123 C45.35816236352407 -14.60081320741428, 45.63055851854627 -14.353430226630435, 46.01112223676799 -14.007812326905688 M46.01112223676799 -14.007812326905688 C46.33805445814859 -13.670227966695652, 46.66498667952919 -13.332643606485618, 46.88073344296865 -13.10986736009568 M46.01112223676799 -14.007812326905688 C46.21272774552007 -13.799638086999071, 46.414333254272144 -13.591463847092452, 46.88073344296865 -13.10986736009568 M46.88073344296865 -13.10986736009568 C47.15595647242854 -12.786574729058064, 47.431179501888444 -12.463282098020446, 47.69102640812658 -12.158051136245305 M46.88073344296865 -13.10986736009568 C47.082855066779125 -12.872443799721689, 47.2849766905896 -12.635020239347696, 47.69102640812658 -12.158051136245305 M47.69102640812658 -12.158051136245305 C47.95601923490619 -11.802984889703788, 48.22101206168579 -11.44791864316227, 48.438671464640635 -11.156274872382312 M47.69102640812658 -12.158051136245305 C47.94003798878178 -11.82439830358902, 48.189049569436975 -11.490745470932735, 48.438671464640635 -11.156274872382312 M48.438671464640635 -11.156274872382312 C48.628403875534886 -10.86479493896271, 48.81813628642913 -10.573315005543108, 49.12059637860425 -10.108655082055241 M48.438671464640635 -11.156274872382312 C48.656671977168536 -10.821367543805287, 48.87467248969643 -10.486460215228263, 49.12059637860425 -10.108655082055241 M49.12059637860425 -10.108655082055241 C49.27645034403521 -9.831920584507236, 49.432304309466176 -9.555186086959228, 49.733998974273504 -9.019496659696287 M49.12059637860425 -10.108655082055241 C49.35884842211871 -9.685614453159818, 49.59710046563317 -9.262573824264393, 49.733998974273504 -9.019496659696287 M49.733998974273504 -9.019496659696287 C49.944854819395715 -8.581649985707674, 50.15571066451792 -8.143803311719061, 50.27635864880834 -7.893275190886684 M49.733998974273504 -9.019496659696287 C49.872080117091684 -8.732768212171177, 50.010161259909864 -8.446039764646066, 50.27635864880834 -7.893275190886684 M50.27635864880834 -7.893275190886684 C50.42181086131706 -7.534005413862918, 50.567263073825785 -7.17473563683915, 50.745446729970325 -6.734618561215508 M50.27635864880834 -7.893275190886684 C50.37401032874942 -7.652073653465422, 50.4716620086905 -7.410872116044159, 50.745446729970325 -6.734618561215508 M50.745446729970325 -6.734618561215508 C50.83322443838586 -6.470246088946491, 50.92100214680139 -6.205873616677472, 51.13933563421488 -5.548287939305138 M50.745446729970325 -6.734618561215508 C50.8536471361998 -6.4087361770459115, 50.961847542429275 -6.082853792876314, 51.13933563421488 -5.548287939305138 M51.13933563421488 -5.548287939305138 C51.23586460888061 -5.1801811229824395, 51.33239358354635 -4.812074306659742, 51.45640678754556 -4.339158212148133 M51.13933563421488 -5.548287939305138 C51.223669137685036 -5.226687740201831, 51.30800264115519 -4.905087541098524, 51.45640678754556 -4.339158212148133 M51.45640678754556 -4.339158212148133 C51.5069479658409 -4.0796399434833885, 51.557489144136234 -3.8201216748186435, 51.695357276581774 -3.1121979531509023 M51.45640678754556 -4.339158212148133 C51.51920644966132 -4.016695219897007, 51.582006111777076 -3.6942322276458794, 51.695357276581774 -3.1121979531509023 M51.695357276581774 -3.1121979531509023 C51.754815318867244 -2.6510531185033144, 51.81427336115271 -2.1899082838557264, 51.85520520250937 -1.872449005199798 M51.695357276581774 -3.1121979531509023 C51.739248518872905 -2.7717861452470003, 51.783139761164044 -2.4313743373430987, 51.85520520250937 -1.872449005199798 M51.85520520250937 -1.872449005199798 C51.877987512460344 -1.5175961381637348, 51.90076982241132 -1.1627432711276715, 51.93529371591342 -0.6250057626472757 M51.85520520250937 -1.872449005199798 C51.88068512331514 -1.4755786716280221, 51.90616504412091 -1.0787083380562463, 51.93529371591342 -0.6250057626472757 M51.93529371591342 -0.6250057626472757 C51.93529371591342 -0.3651363654466261, 51.93529371591342 -0.10526696824597648, 51.93529371591342 0.625005762647271 M51.93529371591342 -0.6250057626472757 C51.93529371591342 -0.315187186660517, 51.93529371591342 -0.005368610673758267, 51.93529371591342 0.625005762647271 M51.93529371591342 0.625005762647271 C51.912913493489505 0.9735957918900624, 51.89053327106559 1.3221858211328539, 51.85520520250937 1.8724490051997846 M51.93529371591342 0.625005762647271 C51.91667011129249 0.9150834373212549, 51.89804650667157 1.2051611119952388, 51.85520520250937 1.8724490051997846 M51.85520520250937 1.8724490051997846 C51.794204694168464 2.3455569019789757, 51.73320418582756 2.818664798758167, 51.695357276581774 3.1121979531508885 M51.85520520250937 1.8724490051997846 C51.80576003780407 2.2559359386018834, 51.75631487309878 2.6394228720039825, 51.695357276581774 3.1121979531508885 M51.695357276581774 3.1121979531508885 C51.63229457552443 3.43601159477374, 51.5692318744671 3.7598252363965914, 51.45640678754556 4.339158212148129 M51.695357276581774 3.1121979531508885 C51.604167662613875 3.5804373479443163, 51.51297804864598 4.048676742737744, 51.45640678754556 4.339158212148129 M51.45640678754556 4.339158212148129 C51.348607768241685 4.750242593144327, 51.2408087489378 5.161326974140524, 51.13933563421489 5.548287939305125 M51.45640678754556 4.339158212148129 C51.37930981703435 4.633162374745768, 51.30221284652314 4.927166537343408, 51.13933563421489 5.548287939305125 M51.13933563421489 5.548287939305125 C50.98923293766189 6.0003733457058654, 50.83913024110888 6.4524587521066055, 50.745446729970325 6.734618561215495 M51.13933563421489 5.548287939305125 C50.99034861402063 5.997013106272212, 50.84136159382638 6.4457382732393, 50.745446729970325 6.734618561215495 M50.745446729970325 6.734618561215495 C50.64768234199918 6.976098489650082, 50.54991795402803 7.217578418084669, 50.27635864880834 7.893275190886679 M50.745446729970325 6.734618561215495 C50.625292126227365 7.031402755491843, 50.5051375224844 7.328186949768192, 50.27635864880834 7.893275190886679 M50.27635864880834 7.893275190886679 C50.06228326750453 8.337807300643423, 49.848207886200726 8.782339410400166, 49.733998974273504 9.019496659696284 M50.27635864880834 7.893275190886679 C50.13864275424214 8.179245192601492, 50.00092685967594 8.465215194316306, 49.733998974273504 9.019496659696284 M49.733998974273504 9.019496659696284 C49.54202611196395 9.360363916087142, 49.35005324965439 9.701231172477998, 49.12059637860425 10.108655082055236 M49.733998974273504 9.019496659696284 C49.51597685667299 9.406617006629357, 49.29795473907248 9.79373735356243, 49.12059637860425 10.108655082055236 M49.12059637860425 10.108655082055236 C48.887469123728835 10.46680114897711, 48.65434186885342 10.824947215898984, 48.43867146464064 11.156274872382301 M49.12059637860425 10.108655082055236 C48.978384692851186 10.327130420556548, 48.83617300709813 10.54560575905786, 48.43867146464064 11.156274872382301 M48.43867146464064 11.156274872382301 C48.201066078080444 11.474644444076946, 47.96346069152025 11.793014015771588, 47.69102640812658 12.158051136245302 M48.43867146464064 11.156274872382301 C48.274042022441265 11.376863326878741, 48.109412580241894 11.59745178137518, 47.69102640812658 12.158051136245302 M47.69102640812658 12.158051136245302 C47.41327961576889 12.484308322788841, 47.13553282341121 12.810565509332383, 46.88073344296866 13.10986736009567 M47.69102640812658 12.158051136245302 C47.42956195436245 12.465182161385545, 47.16809750059831 12.772313186525789, 46.88073344296866 13.10986736009567 M46.88073344296866 13.10986736009567 C46.552912642526614 13.448369251140344, 46.22509184208457 13.786871142185015, 46.01112223676799 14.007812326905684 M46.88073344296866 13.10986736009567 C46.54869798360785 13.452721232503901, 46.216662524247035 13.79557510491213, 46.01112223676799 14.007812326905684 M46.01112223676799 14.007812326905684 C45.82499038217828 14.176852352465055, 45.638858527588575 14.345892378024425, 45.08576620850189 14.848196188198111 M46.01112223676799 14.007812326905684 C45.775596014419236 14.221711010360465, 45.54006979207048 14.435609693815248, 45.08576620850189 14.848196188198111 M45.08576620850189 14.848196188198111 C44.876508556758125 15.015073596883784, 44.667250905014356 15.181951005569458, 44.10846784457871 15.627565626425152 M45.08576620850189 14.848196188198111 C44.758248246203195 15.109383047512306, 44.4307302839045 15.370569906826503, 44.10846784457871 15.627565626425152 M44.10846784457871 15.627565626425152 C43.80170649193377 15.841549066545337, 43.49494513928883 16.05553250666552, 43.08324307360571 16.34271804539089 M44.10846784457871 15.627565626425152 C43.78141496992769 15.855703553890951, 43.45436209527666 16.08384148135675, 43.08324307360571 16.34271804539089 M43.08324307360571 16.34271804539089 C42.77569105171315 16.52915788843845, 42.4681390298206 16.715597731486014, 42.01430476407678 16.990714730406093 M43.08324307360571 16.34271804539089 C42.78794830571344 16.52172746903186, 42.49265353782117 16.700736892672825, 42.01430476407678 16.990714730406093 M42.01430476407678 16.990714730406093 C41.74339371913934 17.132048849023153, 41.47248267420189 17.273382967640213, 40.90604541279239 17.56889292409717 M42.01430476407678 16.990714730406093 C41.699970937313346 17.154702486488155, 41.38563711054991 17.318690242570216, 40.90604541279239 17.56889292409717 M40.90604541279239 17.56889292409717 C40.53519299996478 17.73305828630999, 40.16434058713717 17.89722364852281, 39.763019095147804 18.07487676824742 M40.90604541279239 17.56889292409717 C40.49950543111375 17.748856114406227, 40.0929654494351 17.928819304715283, 39.763019095147804 18.07487676824742 M39.763019095147804 18.07487676824742 C39.34238788849822 18.22967294056672, 38.92175668184864 18.384469112886013, 38.58992275146062 18.506587066708033 M39.763019095147804 18.07487676824742 C39.32412195120516 18.23639497433904, 38.88522480726251 18.397913180430656, 38.58992275146062 18.506587066708033 M38.58992275146062 18.506587066708033 C38.32210655517933 18.58607350796842, 38.05429035889804 18.665559949228808, 37.39157688623541 18.86224982926107 M38.58992275146062 18.506587066708033 C38.2967033302325 18.593613051788388, 38.00348390900439 18.680639036868744, 37.39157688623541 18.86224982926107 M37.39157688623541 18.86224982926107 C36.96937402133415 18.958614878043612, 36.54717115643288 19.05497992682615, 36.172905759676766 19.140403561325773 M37.39157688623541 18.86224982926107 C37.07729768895803 18.933982005176208, 36.76301849168065 19.005714181091342, 36.172905759676766 19.140403561325773 M36.172905759676766 19.140403561325773 C35.91175599733838 19.18262422965399, 35.650606235 19.224844897982205, 34.93891715284788 19.3399052695533 M36.172905759676766 19.140403561325773 C35.80736369881154 19.199501566905443, 35.44182163794631 19.258599572485114, 34.93891715284788 19.3399052695533 M34.93891715284788 19.3399052695533 C34.50634132584183 19.381635339336025, 34.07376549883579 19.42336540911875, 33.6946817896239 19.45993515863156 M34.93891715284788 19.3399052695533 C34.451104269529125 19.386963991726233, 33.96329138621037 19.434022713899164, 33.6946817896239 19.45993515863156 M33.6946817896239 19.45993515863156 C33.23084565749237 19.474809480586757, 32.76700952536083 19.489683802541954, 32.44531250000001 19.5 M33.6946817896239 19.45993515863156 C33.41486013256617 19.468908494533586, 33.135038475508445 19.477881830435614, 32.44531250000001 19.5 M32.44531250000001 19.5 C32.44531250000001 19.5, 32.44531250000001 19.5, 32.4453125 19.5 M32.44531250000001 19.5 C32.44531250000001 19.5, 32.44531250000001 19.5, 32.4453125 19.5 M32.4453125 19.5 C10.263797681288288 19.5, -11.917717137423423 19.5, -32.44531249999999 19.5 M32.4453125 19.5 C17.57607897269112 19.5, 2.7068454453822426 19.5, -32.44531249999999 19.5 M-32.44531249999999 19.5 C-32.77965325133811 19.48927834285938, -33.11399400267622 19.47855668571876, -33.69468178962389 19.45993515863156 M-32.44531249999999 19.5 C-32.88194659282792 19.485997994499712, -33.31858068565585 19.471995988999424, -33.69468178962389 19.45993515863156 M-33.69468178962389 19.45993515863156 C-34.09717513620149 19.42110710955629, -34.4996684827791 19.382279060481018, -34.93891715284787 19.3399052695533 M-33.69468178962389 19.45993515863156 C-34.1463462052067 19.41636363566622, -34.598010620789495 19.37279211270088, -34.93891715284787 19.3399052695533 M-34.93891715284787 19.3399052695533 C-35.25097741033169 19.289453787186755, -35.56303766781551 19.23900230482021, -36.17290575967676 19.140403561325773 M-34.93891715284787 19.3399052695533 C-35.310990338597456 19.279751362351956, -35.68306352434704 19.219597455150613, -36.17290575967676 19.140403561325773 M-36.17290575967676 19.140403561325773 C-36.49421109530356 19.06706771518222, -36.81551643093036 18.993731869038665, -37.391576886235384 18.862249829261074 M-36.17290575967676 19.140403561325773 C-36.4349355075517 19.08059698127722, -36.69696525542665 19.02079040122867, -37.391576886235384 18.862249829261074 M-37.391576886235384 18.862249829261074 C-37.687212392216196 18.77450676290841, -37.982847898197 18.686763696555744, -38.58992275146059 18.506587066708043 M-37.391576886235384 18.862249829261074 C-37.6812164201597 18.776286335941275, -37.970855954084016 18.690322842621477, -38.58992275146059 18.506587066708043 M-38.58992275146059 18.506587066708043 C-38.843562937773434 18.413245133520736, -39.097203124086285 18.319903200333428, -39.7630190951478 18.074876768247425 M-38.58992275146059 18.506587066708043 C-38.99510580213472 18.357475958588903, -39.400288852808835 18.208364850469763, -39.7630190951478 18.074876768247425 M-39.7630190951478 18.074876768247425 C-40.11629550512852 17.91849178112132, -40.46957191510925 17.762106793995216, -40.90604541279238 17.568892924097174 M-39.7630190951478 18.074876768247425 C-40.17444598773225 17.892750287445427, -40.5858728803167 17.710623806643433, -40.90604541279238 17.568892924097174 M-40.90604541279238 17.568892924097174 C-41.34577118170269 17.339488272114465, -41.785496950612995 17.110083620131753, -42.01430476407678 16.990714730406097 M-40.90604541279238 17.568892924097174 C-41.243315573896716 17.39293929708089, -41.58058573500106 17.216985670064606, -42.01430476407678 16.990714730406097 M-42.01430476407678 16.990714730406097 C-42.383593279537294 16.76684986215373, -42.752881794997805 16.542984993901364, -43.083243073605686 16.3427180453909 M-42.01430476407678 16.990714730406097 C-42.25536086153789 16.844585107522306, -42.496416958999 16.69845548463851, -43.083243073605686 16.3427180453909 M-43.083243073605686 16.3427180453909 C-43.308418821709395 16.185645191214782, -43.53359456981311 16.028572337038664, -44.10846784457871 15.627565626425156 M-43.083243073605686 16.3427180453909 C-43.40960960107557 16.115058884007176, -43.73597612854546 15.887399722623453, -44.10846784457871 15.627565626425156 M-44.10846784457871 15.627565626425156 C-44.37222693114362 15.417224773813711, -44.635986017708525 15.206883921202266, -45.085766208501866 14.848196188198125 M-44.10846784457871 15.627565626425156 C-44.43751440728419 15.365159748964311, -44.76656096998966 15.102753871503468, -45.085766208501866 14.848196188198125 M-45.085766208501866 14.848196188198125 C-45.33021632878377 14.626193056753856, -45.57466644906568 14.404189925309588, -46.011122236767974 14.007812326905697 M-45.085766208501866 14.848196188198125 C-45.380736732242696 14.580311763029089, -45.675707255983525 14.312427337860052, -46.011122236767974 14.007812326905697 M-46.011122236767974 14.007812326905697 C-46.33162790224287 13.676863913298355, -46.652133567717776 13.345915499691014, -46.880733442968655 13.109867360095677 M-46.011122236767974 14.007812326905697 C-46.238013164567555 13.77352881586102, -46.46490409236714 13.539245304816346, -46.880733442968655 13.109867360095677 M-46.880733442968655 13.109867360095677 C-47.04629726169066 12.915386677776642, -47.21186108041267 12.720905995457604, -47.691026408126575 12.158051136245307 M-46.880733442968655 13.109867360095677 C-47.12918991764519 12.818016247366705, -47.37764639232173 12.526165134637735, -47.691026408126575 12.158051136245307 M-47.691026408126575 12.158051136245307 C-47.84906747104276 11.946290509774641, -48.00710853395895 11.734529883303978, -48.438671464640635 11.156274872382316 M-47.691026408126575 12.158051136245307 C-47.88956142360117 11.892032302421345, -48.08809643907576 11.626013468597382, -48.438671464640635 11.156274872382316 M-48.438671464640635 11.156274872382316 C-48.667312285595955 10.805021172737892, -48.89595310655128 10.453767473093468, -49.12059637860425 10.108655082055249 M-48.438671464640635 11.156274872382316 C-48.65819848987515 10.819022410361878, -48.87772551510966 10.48176994834144, -49.12059637860425 10.108655082055249 M-49.12059637860425 10.108655082055249 C-49.346968205819294 9.706708980201782, -49.57334003303434 9.304762878348315, -49.733998974273504 9.019496659696289 M-49.12059637860425 10.108655082055249 C-49.34531722654385 9.709640461085122, -49.57003807448344 9.310625840114998, -49.733998974273504 9.019496659696289 M-49.733998974273504 9.019496659696289 C-49.942132086504714 8.587303798812986, -50.15026519873592 8.155110937929685, -50.27635864880834 7.893275190886686 M-49.733998974273504 9.019496659696289 C-49.87687090134317 8.722820046166605, -50.01974282841283 8.426143432636923, -50.27635864880834 7.893275190886686 M-50.27635864880834 7.893275190886686 C-50.427205641999805 7.5206802012755505, -50.57805263519128 7.148085211664416, -50.745446729970325 6.73461856121551 M-50.27635864880834 7.893275190886686 C-50.453420540782375 7.455928894452021, -50.63048243275641 7.018582598017357, -50.745446729970325 6.73461856121551 M-50.745446729970325 6.73461856121551 C-50.84683712003602 6.429246860702491, -50.94822751010171 6.1238751601894705, -51.13933563421488 5.5482879393051325 M-50.745446729970325 6.73461856121551 C-50.82669949992142 6.489898163993618, -50.90795226987252 6.245177766771726, -51.13933563421488 5.5482879393051325 M-51.13933563421488 5.5482879393051325 C-51.234703528065 5.18460882734798, -51.33007142191512 4.820929715390828, -51.45640678754556 4.339158212148136 M-51.13933563421488 5.5482879393051325 C-51.21203078553251 5.2710698210531195, -51.284725936850144 4.9938517028011065, -51.45640678754556 4.339158212148136 M-51.45640678754556 4.339158212148136 C-51.507186642227936 4.078414390680226, -51.55796649691031 3.817670569212318, -51.695357276581774 3.112197953150904 M-51.45640678754556 4.339158212148136 C-51.55035960803203 3.8567303358857394, -51.644312428518504 3.3743024596233435, -51.695357276581774 3.112197953150904 M-51.695357276581774 3.112197953150904 C-51.73966365353377 2.768566442794966, -51.78397003048577 2.4249349324390277, -51.85520520250937 1.872449005199809 M-51.695357276581774 3.112197953150904 C-51.74449786362927 2.731073263917019, -51.793638450676774 2.3499485746831343, -51.85520520250937 1.872449005199809 M-51.85520520250937 1.872449005199809 C-51.87488380773754 1.5659388444868276, -51.894562412965705 1.2594286837738462, -51.93529371591342 0.6250057626472781 M-51.85520520250937 1.872449005199809 C-51.8728605305042 1.5974530205561148, -51.89051585849902 1.3224570359124204, -51.93529371591342 0.6250057626472781 M-51.93529371591342 0.6250057626472781 C-51.93529371591342 0.18485765047190383, -51.93529371591342 -0.2552904617034705, -51.93529371591342 -0.6250057626472687 M-51.93529371591342 0.6250057626472781 C-51.93529371591342 0.21319830574892384, -51.93529371591342 -0.19860915114943045, -51.93529371591342 -0.6250057626472687 M-51.93529371591342 -0.6250057626472687 C-51.915279815657264 -0.9367384140663896, -51.895265915401104 -1.2484710654855105, -51.85520520250937 -1.8724490051997822 M-51.93529371591342 -0.6250057626472687 C-51.914471235994604 -0.9493326949860796, -51.893648756075784 -1.2736596273248906, -51.85520520250937 -1.8724490051997822 M-51.85520520250937 -1.8724490051997822 C-51.80864276042529 -2.233578111209666, -51.76208031834122 -2.5947072172195496, -51.695357276581774 -3.112197953150895 M-51.85520520250937 -1.8724490051997822 C-51.7935200387444 -2.350866954247542, -51.73183487497942 -2.8292849032953025, -51.695357276581774 -3.112197953150895 M-51.695357276581774 -3.112197953150895 C-51.61309777158639 -3.534583125749646, -51.53083826659101 -3.956968298348397, -51.45640678754556 -4.339158212148126 M-51.695357276581774 -3.112197953150895 C-51.62083574943478 -3.494850244920359, -51.54631422228779 -3.8775025366898235, -51.45640678754556 -4.339158212148126 M-51.45640678754556 -4.339158212148126 C-51.38129152460279 -4.625605264909825, -51.30617626166001 -4.912052317671524, -51.13933563421489 -5.548287939305123 M-51.45640678754556 -4.339158212148126 C-51.386133531100036 -4.607140595596906, -51.31586027465452 -4.875122979045686, -51.13933563421489 -5.548287939305123 M-51.13933563421489 -5.548287939305123 C-51.053396008741885 -5.8071243986099885, -50.967456383268875 -6.065960857914854, -50.74544672997033 -6.734618561215485 M-51.13933563421489 -5.548287939305123 C-51.011498951908315 -5.933311658403218, -50.88366226960174 -6.318335377501314, -50.74544672997033 -6.734618561215485 M-50.74544672997033 -6.734618561215485 C-50.58981818204961 -7.119024083452942, -50.43418963412889 -7.503429605690398, -50.27635864880834 -7.893275190886676 M-50.74544672997033 -6.734618561215485 C-50.62144603492622 -7.040902675364778, -50.49744533988211 -7.347186789514073, -50.27635864880834 -7.893275190886676 M-50.27635864880834 -7.893275190886676 C-50.11553135537111 -8.227236506861898, -49.95470406193389 -8.56119782283712, -49.733998974273504 -9.019496659696282 M-50.27635864880834 -7.893275190886676 C-50.09263156903707 -8.274788403161475, -49.9089044892658 -8.656301615436275, -49.733998974273504 -9.019496659696282 M-49.733998974273504 -9.019496659696282 C-49.581978125458875 -9.289425070546848, -49.42995727664424 -9.559353481397414, -49.12059637860425 -10.108655082055243 M-49.733998974273504 -9.019496659696282 C-49.48887106223861 -9.45474608940693, -49.243743150203706 -9.889995519117578, -49.12059637860425 -10.108655082055243 M-49.12059637860425 -10.108655082055243 C-48.95000024573765 -10.370736553614227, -48.77940411287105 -10.63281802517321, -48.43867146464064 -11.156274872382308 M-49.12059637860425 -10.108655082055243 C-48.92073499926187 -10.415695831020043, -48.72087361991949 -10.722736579984844, -48.43867146464064 -11.156274872382308 M-48.43867146464064 -11.156274872382308 C-48.27191579482632 -11.379712278179458, -48.105160125012 -11.603149683976607, -47.69102640812659 -12.158051136245302 M-48.43867146464064 -11.156274872382308 C-48.15507388788371 -11.536269788965857, -47.87147631112677 -11.916264705549407, -47.69102640812659 -12.158051136245302 M-47.69102640812659 -12.158051136245302 C-47.449187916252974 -12.442128389800068, -47.20734942437936 -12.726205643354836, -46.88073344296866 -13.10986736009567 M-47.69102640812659 -12.158051136245302 C-47.5151326521525 -12.364665950650714, -47.33923889617841 -12.571280765056128, -46.88073344296866 -13.10986736009567 M-46.88073344296866 -13.10986736009567 C-46.664104424390544 -13.333554607350768, -46.447475405812426 -13.557241854605865, -46.011122236767996 -14.007812326905677 M-46.88073344296866 -13.10986736009567 C-46.60255965226468 -13.397104637490482, -46.3243858615607 -13.684341914885296, -46.011122236767996 -14.007812326905677 M-46.011122236767996 -14.007812326905677 C-45.675691426076185 -14.312441714163063, -45.34026061538437 -14.61707110142045, -45.08576620850189 -14.848196188198107 M-46.011122236767996 -14.007812326905677 C-45.72770527290474 -14.265204114684341, -45.44428830904149 -14.522595902463005, -45.08576620850189 -14.848196188198107 M-45.08576620850189 -14.848196188198107 C-44.7153733358913 -15.14357464753676, -44.34498046328072 -15.438953106875413, -44.10846784457872 -15.627565626425149 M-45.08576620850189 -14.848196188198107 C-44.743108949243364 -15.121456233964158, -44.40045168998485 -15.394716279730208, -44.10846784457872 -15.627565626425149 M-44.10846784457872 -15.627565626425149 C-43.78625972661691 -15.852324061350684, -43.46405160865511 -16.07708249627622, -43.083243073605715 -16.342718045390885 M-44.10846784457872 -15.627565626425149 C-43.89556311387799 -15.77607875006473, -43.68265838317726 -15.924591873704312, -43.083243073605715 -16.342718045390885 M-43.083243073605715 -16.342718045390885 C-42.86441555500456 -16.475372573140145, -42.6455880364034 -16.608027100889405, -42.01430476407679 -16.99071473040609 M-43.083243073605715 -16.342718045390885 C-42.69270791800171 -16.57946275175735, -42.3021727623977 -16.816207458123817, -42.01430476407679 -16.99071473040609 M-42.01430476407679 -16.99071473040609 C-41.626849551956816 -17.192849866392173, -41.23939433983684 -17.394985002378256, -40.90604541279239 -17.56889292409717 M-42.01430476407679 -16.99071473040609 C-41.63535441904554 -17.188412882679614, -41.256404074014284 -17.38611103495314, -40.90604541279239 -17.56889292409717 M-40.90604541279239 -17.56889292409717 C-40.56420672936261 -17.720214768967274, -40.22236804593284 -17.871536613837375, -39.763019095147804 -18.07487676824742 M-40.90604541279239 -17.56889292409717 C-40.586134469687494 -17.710508008788754, -40.2662235265826 -17.852123093480337, -39.763019095147804 -18.07487676824742 M-39.763019095147804 -18.07487676824742 C-39.46104303638632 -18.186006749307733, -39.15906697762483 -18.29713673036805, -38.58992275146062 -18.506587066708033 M-39.763019095147804 -18.07487676824742 C-39.464892195907275 -18.18459022302278, -39.166765296666746 -18.294303677798144, -38.58992275146062 -18.506587066708033 M-38.58992275146062 -18.506587066708033 C-38.23530235271981 -18.611836539613847, -37.88068195397901 -18.71708601251966, -37.39157688623541 -18.862249829261067 M-38.58992275146062 -18.506587066708033 C-38.323024563469005 -18.58580104792677, -38.05612637547739 -18.6650150291455, -37.39157688623541 -18.862249829261067 M-37.39157688623541 -18.862249829261067 C-36.91320246343722 -18.97143566957991, -36.43482804063903 -19.08062150989875, -36.172905759676766 -19.140403561325773 M-37.39157688623541 -18.862249829261067 C-36.942098337661754 -18.964840374851363, -36.49261978908809 -19.06743092044166, -36.172905759676766 -19.140403561325773 M-36.172905759676766 -19.140403561325773 C-35.68294434070696 -19.21961672383726, -35.19298292173715 -19.298829886348745, -34.93891715284788 -19.3399052695533 M-36.172905759676766 -19.140403561325773 C-35.75714826739414 -19.20762000843052, -35.34139077511153 -19.27483645553527, -34.93891715284788 -19.3399052695533 M-34.93891715284788 -19.3399052695533 C-34.531699051218965 -19.37918911006602, -34.124480949590044 -19.418472950578742, -33.6946817896239 -19.45993515863156 M-34.93891715284788 -19.3399052695533 C-34.57383438980963 -19.375124364627336, -34.208751626771395 -19.410343459701373, -33.6946817896239 -19.45993515863156 M-33.6946817896239 -19.45993515863156 C-33.397268253687855 -19.4694726318487, -33.09985471775182 -19.47901010506584, -32.44531250000001 -19.5 M-33.6946817896239 -19.45993515863156 C-33.28194874265426 -19.473170704111734, -32.869215695684616 -19.486406249591912, -32.44531250000001 -19.5 M-32.44531250000001 -19.5 C-32.44531250000001 -19.5, -32.4453125 -19.5, -32.4453125 -19.5 M-32.44531250000001 -19.5 C-32.44531250000001 -19.5, -32.4453125 -19.5, -32.4453125 -19.5" stroke="#999" stroke-width="1.3" fill="none" stroke-dasharray="0 0" style=""/></g><g class="label" style="" transform="translate(-39.5703125, -12)"><rect/><foreignObject width="79.140625" height="24"><div xmlns="http://www.w3.org/1999/xhtml" style="display: table-cell; white-space: nowrap; line-height: 1.5; max-width: 200px; text-align: center;"><span class="nodeLabel"><p>Unos ISBN</p></span></div></foreignObject></g></g><g class="node default" id="my-svg-flowchart-B-1" data-look="classic" transform="translate(193.23046875, 124)"><rect class="basic label-container" style="" x="-102.4609375" y="-27" width="204.921875" height="54"/><g class="label" style="" transform="translate(-72.4609375, -12)"><rect/><foreignObject width="144.921875" height="24"><div xmlns="http://www.w3.org/1999/xhtml" style="display: table-cell; white-space: nowrap; line-height: 1.5; max-width: 200px; text-align: center;"><span class="nodeLabel"><p>Normaliziraj i potvrdi</p></span></div></foreignObject></g></g><g class="node default" id="my-svg-flowchart-C-3" data-look="classic" transform="translate(193.23046875, 291.5859375)"><polygon points="90.5859375,0 181.171875,-90.5859375 90.5859375,-181.171875 0,-90.5859375" class="label-container" transform="translate(-90.0859375, 90.5859375)"/><g class="label" style="" transform="translate(-51.5859375, -24)"><rect/><foreignObject width="103.171875" height="48"><div xmlns="http://www.w3.org/1999/xhtml" style="display: table-cell; white-space: nowrap; line-height: 1.5; max-width: 200px; text-align: center;"><span class="nodeLabel"><p>Kontrolna cifra<br />ispravna?</p></span></div></foreignObject></g></g><g class="node default" id="my-svg-flowchart-D-5" data-look="classic" transform="translate(266.640625, 1064.609375)"><rect class="basic label-container" style="fill:#ffebee !important;stroke:#c62828 !important" x="-115.375" y="-27" width="230.75" height="54"/><g class="label" style="" transform="translate(-85.375, -12)"><rect/><foreignObject width="170.75" height="24"><div xmlns="http://www.w3.org/1999/xhtml" style="display: table-cell; white-space: nowrap; line-height: 1.5; max-width: 200px; text-align: center;"><span class="nodeLabel"><p>Pokaži grešku validacije</p></span></div></foreignObject></g></g><g class="node default" id="my-svg-flowchart-E-7" data-look="classic" transform="translate(306.66015625, 1278.421875)"><rect class="basic label-container" style="fill:#fff3e0 !important;stroke:#e65100 !important" x="-90.921875" y="-39" width="181.84375" height="78"/><g class="label" style="" transform="translate(-60.921875, -24)"><rect/><foreignObject width="121.84375" height="48"><div xmlns="http://www.w3.org/1999/xhtml" style="display: table-cell; white-space: nowrap; line-height: 1.5; max-width: 200px; text-align: center;"><span class="nodeLabel"><p>Ručni unos<br />(uvijek dostupan)</p></span></div></foreignObject></g></g><g class="node default" id="my-svg-flowchart-F-9" data-look="classic" transform="translate(119.8203125, 483.171875)"><rect class="basic label-container" style="" x="-98.921875" y="-27" width="197.84375" height="54"/><g class="label" style="" transform="translate(-68.921875, -12)"><rect/><foreignObject width="137.84375" height="24"><div xmlns="http://www.w3.org/1999/xhtml" style="display: table-cell; white-space: nowrap; line-height: 1.5; max-width: 200px; text-align: center;"><span class="nodeLabel"><p>Upitaj Open Library</p></span></div></foreignObject></g></g><g class="node default" id="my-svg-flowchart-G-11" data-look="classic" transform="translate(119.8203125, 660.984375)"><polygon points="100.8125,0 201.625,-100.8125 100.8125,-201.625 0,-100.8125" class="label-container" transform="translate(-100.3125, 100.8125)"/><g class="label" style="" transform="translate(-61.8125, -24)"><rect/><foreignObject width="123.625" height="48"><div xmlns="http://www.w3.org/1999/xhtml" style="display: table-cell; white-space: nowrap; line-height: 1.5; max-width: 200px; text-align: center;"><span class="nodeLabel"><p>Pronađeni korisni<br />metapodaci?</p></span></div></foreignObject></g></g><g class="node default" id="my-svg-flowchart-H-13" data-look="classic" transform="translate(119.8203125, 874.796875)"><rect class="basic label-container" style="fill:#e8f5e9 !important;stroke:#2e7d32 !important" x="-111.8203125" y="-39" width="223.640625" height="78"/><g class="label" style="" transform="translate(-81.8203125, -24)"><rect/><foreignObject width="163.640625" height="48"><div xmlns="http://www.w3.org/1999/xhtml" style="display: table-cell; white-space: nowrap; line-height: 1.5; max-width: 200px; text-align: center;"><span class="nodeLabel"><p>Vrati metapodatke<br />Pružatelj: Open Library</p></span></div></foreignObject></g></g><g class="node default" id="my-svg-flowchart-I-15" data-look="classic" transform="translate(568.12890625, 874.796875)"><rect class="basic label-container" style="" x="-101.15625" y="-39" width="202.3125" height="78"/><g class="label" style="" transform="translate(-71.15625, -24)"><rect/><foreignObject width="142.3125" height="48"><div xmlns="http://www.w3.org/1999/xhtml" style="display: table-cell; white-space: nowrap; line-height: 1.5; max-width: 200px; text-align: center;"><span class="nodeLabel"><p>Upitaj Let Books<br />metapodatkovni API</p></span></div></foreignObject></g></g><g class="node default" id="my-svg-flowchart-J-17" data-look="classic" transform="translate(568.12890625, 1064.609375)"><polygon points="100.8125,0 201.625,-100.8125 100.8125,-201.625 0,-100.8125" class="label-container" transform="translate(-100.3125, 100.8125)"/><g class="label" style="" transform="translate(-61.8125, -24)"><rect/><foreignObject width="123.625" height="48"><div xmlns="http://www.w3.org/1999/xhtml" style="display: table-cell; white-space: nowrap; line-height: 1.5; max-width: 200px; text-align: center;"><span class="nodeLabel"><p>Pronađeni korisni<br />metapodaci?</p></span></div></foreignObject></g></g><g class="node default" id="my-svg-flowchart-K-19" data-look="classic" transform="translate(613.26171875, 1278.421875)"><rect class="basic label-container" style="fill:#e8f5e9 !important;stroke:#2e7d32 !important" x="-115.828125" y="-39" width="231.65625" height="78"/><g class="label" style="" transform="translate(-85.828125, -24)"><rect/><foreignObject width="171.65625" height="48"><div xmlns="http://www.w3.org/1999/xhtml" style="display: table-cell; white-space: nowrap; line-height: 1.5; max-width: 200px; text-align: center;"><span class="nodeLabel"><p>Vrati metapodatke<br />Pružatelj: Let Books API</p></span></div></foreignObject></g></g></g></g></g><defs><filter id="my-svg-drop-shadow" height="130%" width="130%"><feDropShadow dx="4" dy="4" stdDeviation="0" flood-opacity="0.06" flood-color="#000000"/></filter></defs><defs><filter id="my-svg-drop-shadow-small" height="150%" width="150%"><feDropShadow dx="2" dy="2" stdDeviation="0" flood-opacity="0.06" flood-color="#000000"/></filter></defs><linearGradient id="my-svg-gradient" gradientUnits="objectBoundingBox" x1="0%" y1="0%" x2="100%" y2="0%"><stop offset="0%" stop-color="hsl(0, 0%, 83.3333333333%)" stop-opacity="1"/><stop offset="100%" stop-color="hsl(0, 0%, 88.9215686275%)" stop-opacity="1"/></linearGradient><text text-anchor="middle" x="368.544921875" y="-25" class="flowchartTitleText">Lanac pretraživanja metapodataka ISBN</text></svg>