<svg id="my-svg" width="100%" xmlns="http://www.w3.org/2000/svg" xmlns:xlink="http://www.w3.org/1999/xlink" class="flowchart" style="max-width: 736.875px; background-color: transparent;" viewBox="0 -49 736.8746337890625 1277.5546875" role="graphics-document document" aria-roledescription="flowchart-v2"><style>#my-svg{font-family:"trebuchet ms",verdana,arial,sans-serif;font-size:16px;fill:#000000;}@keyframes edge-animation-frame{from{stroke-dashoffset:0;}}@keyframes dash{to{stroke-dashoffset:0;}}#my-svg .edge-animation-slow{stroke-dasharray:9,5!important;stroke-dashoffset:900;animation:dash 50s linear infinite;stroke-linecap:round;}#my-svg .edge-animation-fast{stroke-dasharray:9,5!important;stroke-dashoffset:900;animation:dash 20s linear infinite;stroke-linecap:round;}#my-svg .error-icon{fill:#552222;}#my-svg .error-text{fill:#552222;stroke:#552222;}#my-svg .edge-thickness-normal{stroke-width:1px;}#my-svg .edge-thickness-thick{stroke-width:3.5px;}#my-svg .edge-pattern-solid{stroke-dasharray:0;}#my-svg .edge-thickness-invisible{stroke-width:0;fill:none;}#my-svg .edge-pattern-dashed{stroke-dasharray:3;}#my-svg .edge-pattern-dotted{stroke-dasharray:2;}#my-svg .marker{fill:#666;stroke:#666;}#my-svg .marker.cross{stroke:#666;}#my-svg svg{font-family:"trebuchet ms",verdana,arial,sans-serif;font-size:16px;}#my-svg p{margin:0;}#my-svg .label{font-family:"trebuchet ms",verdana,arial,sans-serif;color:#000000;}#my-svg .cluster-label text{fill:#333;}#my-svg .cluster-label span{color:#333;}#my-svg .cluster-label span p{background-color:transparent;}#my-svg .label text,#my-svg span{fill:#000000;color:#000000;}#my-svg .node rect,#my-svg .node circle,#my-svg .node ellipse,#my-svg .node polygon,#my-svg .node path{fill:#eee;stroke:#999;stroke-width:1px;}#my-svg .rough-node .label text,#my-svg .node .label text,#my-svg .image-shape .label,#my-svg .icon-shape .label{text-anchor:middle;}#my-svg .node .katex path{fill:#000;stroke:#000;stroke-width:1px;}#my-svg .rough-node .label,#my-svg .node .label,#my-svg .image-shape .label,#my-svg .icon-shape .label{text-align:center;}#my-svg .node.clickable{cursor:pointer;}#my-svg .root .anchor path{fill:#666!important;stroke-width:0;stroke:#666;}#my-svg .arrowheadPath{fill:#333333;}#my-svg .edgePath .path{stroke:#666;stroke-width:1px;}#my-svg .flowchart-link{stroke:#666;fill:none;}#my-svg .edgeLabel{background-color:white;text-align:center;}#my-svg .edgeLabel p{background-color:white;}#my-svg .edgeLabel rect{opacity:0.5;background-color:white;fill:white;}#my-svg .labelBkg{background-color:rgba(255, 255, 255, 0.5);}#my-svg .cluster rect{fill:hsl(0, 0%, 98.9215686275%);stroke:#707070;stroke-width:1px;}#my-svg .cluster text{fill:#333;}#my-svg .cluster span{color:#333;}#my-svg div.mermaidTooltip{position:absolute;text-align:center;max-width:200px;padding:2px;font-family:"trebuchet ms",verdana,arial,sans-serif;font-size:12px;background:hsl(-160, 0%, 93.3333333333%);border:1px solid #707070;border-radius:2px;pointer-events:none;z-index:100;}#my-svg .flowchartTitleText{text-anchor:middle;font-size:18px;fill:#000000;}#my-svg rect.text{fill:none;stroke-width:0;}#my-svg .icon-shape,#my-svg .image-shape{background-color:white;text-align:center;}#my-svg .icon-shape p,#my-svg .image-shape p{background-color:white;padding:2px;}#my-svg .icon-shape .label rect,#my-svg .image-shape .label rect{opacity:0.5;background-color:white;fill:white;}#my-svg .label-icon{display:inline-block;height:1em;overflow:visible;vertical-align:-0.125em;}#my-svg .node .label-icon path{fill:currentColor;stroke:revert;stroke-width:revert;}#my-svg .node .neo-node{stroke:#999;}#my-svg [data-look="neo"].node rect,#my-svg [data-look="neo"].cluster rect,#my-svg [data-look="neo"].node polygon{stroke:url(#my-svg-gradient);filter:drop-shadow( 1px 2px 2px rgba(185,185,185,1));}#my-svg [data-look="neo"].node path{stroke:url(#my-svg-gradient);stroke-width:1px;}#my-svg [data-look="neo"].node .outer-path{filter:drop-shadow( 1px 2px 2px rgba(185,185,185,1));}#my-svg [data-look="neo"].node .neo-line path{stroke:#999;filter:none;}#my-svg [data-look="neo"].node circle{stroke:url(#my-svg-gradient);filter:drop-shadow( 1px 2px 2px rgba(185,185,185,1));}#my-svg [data-look="neo"].node circle .state-start{fill:#000000;}#my-svg [data-look="neo"].icon-shape .icon{fill:url(#my-svg-gradient);filter:drop-shadow( 1px 2px 2px rgba(185,185,185,1));}#my-svg [data-look="neo"].icon-shape .icon-neo path{stroke:url(#my-svg-gradient);filter:drop-shadow( 1px 2px 2px rgba(185,185,185,1));}#my-svg :root{--mermaid-font-family:"trebuchet ms",verdana,arial,sans-serif;}</style><g><marker id="my-svg_flowchart-v2-pointEnd" class="marker flowchart-v2" viewBox="0 0 10 10" refX="5" refY="5" markerUnits="userSpaceOnUse" markerWidth="8" markerHeight="8" orient="auto"><path d="M 0 0 L 10 5 L 0 10 z" class="arrowMarkerPath" style="stroke-width: 1; stroke-dasharray: 1, 0;"/></marker><marker id="my-svg_flowchart-v2-pointStart" class="marker flowchart-v2" viewBox="0 0 10 10" refX="4.5" refY="5" markerUnits="userSpaceOnUse" markerWidth="8" markerHeight="8" orient="auto"><path d="M 0 5 L 10 10 L 10 0 z" class="arrowMarkerPath" style="stroke-width: 1; stroke-dasharray: 1, 0;"/></marker><marker id="my-svg_flowchart-v2-pointEnd-margin" class="marker flowchart-v2" viewBox="0 0 11.5 14" refX="11.5" refY="7" markerUnits="userSpaceOnUse" markerWidth="10.5" markerHeight="14" orient="auto"><path d="M 0 0 L 11.5 7 L 0 14 z" class="arrowMarkerPath" style="stroke-width: 0; stroke-dasharray: 1, 0;"/></marker><marker id="my-svg_flowchart-v2-pointStart-margin" class="marker flowchart-v2" viewBox="0 0 11.5 14" refX="1" refY="7" markerUnits="userSpaceOnUse" markerWidth="11.5" markerHeight="14" orient="auto"><polygon points="0,7 11.5,14 11.5,0" class="arrowMarkerPath" style="stroke-width: 0; stroke-dasharray: 1, 0;"/></marker><marker id="my-svg_flowchart-v2-circleEnd" class="marker flowchart-v2" viewBox="0 0 10 10" refX="11" refY="5" markerUnits="userSpaceOnUse" markerWidth="11" markerHeight="11" orient="auto"><circle cx="5" cy="5" r="5" class="arrowMarkerPath" style="stroke-width: 1; stroke-dasharray: 1, 0;"/></marker><marker id="my-svg_flowchart-v2-circleStart" class="marker flowchart-v2" viewBox="0 0 10 10" refX="-1" refY="5" markerUnits="userSpaceOnUse" markerWidth="11" markerHeight="11" orient="auto"><circle cx="5" cy="5" r="5" class="arrowMarkerPath" style="stroke-width: 1; stroke-dasharray: 1, 0;"/></marker><marker id="my-svg_flowchart-v2-circleEnd-margin" class="marker flowchart-v2" viewBox="0 0 10 10" refY="5" refX="12.25" markerUnits="userSpaceOnUse" markerWidth="14" markerHeight="14" orient="auto"><circle cx="5" cy="5" r="5" class="arrowMarkerPath" style="stroke-width: 0; stroke-dasharray: 1, 0;"/></marker><marker id="my-svg_flowchart-v2-circleStart-margin" class="marker flowchart-v2" viewBox="0 0 10 10" refX="-2" refY="5" markerUnits="userSpaceOnUse" markerWidth="14" markerHeight="14" orient="auto"><circle cx="5" cy="5" r="5" class="arrowMarkerPath" style="stroke-width: 0; stroke-dasharray: 1, 0;"/></marker><marker id="my-svg_flowchart-v2-crossEnd" class="marker cross flowchart-v2" viewBox="0 0 11 11" refX="12" refY="5.2" markerUnits="userSpaceOnUse" markerWidth="11" markerHeight="11" orient="auto"><path d="M 1,1 l 9,9 M 10,1 l -9,9" class="arrowMarkerPath" style="stroke-width: 2; stroke-dasharray: 1, 0;"/></marker><marker id="my-svg_flowchart-v2-crossStart" class="marker cross flowchart-v2" viewBox="0 0 11 11" refX="-1" refY="5.2" markerUnits="userSpaceOnUse" markerWidth="11" markerHeight="11" orient="auto"><path d="M 1,1 l 9,9 M 10,1 l -9,9" class="arrowMarkerPath" style="stroke-width: 2; stroke-dasharray: 1, 0;"/></marker><marker id="my-svg_flowchart-v2-crossEnd-margin" class="marker cross flowchart-v2" viewBox="0 0 15 15" refX="17.7" refY="7.5" markerUnits="userSpaceOnUse" markerWidth="12" markerHeight="12" orient="auto"><path d="M 1,1 L 14,14 M 1,14 L 14,1" class="arrowMarkerPath" style="stroke-width: 2.5;"/></marker><marker id="my-svg_flowchart-v2-crossStart-margin" class="marker cross flowchart-v2" viewBox="0 0 15 15" refX="-3.5" refY="7.5" markerUnits="userSpaceOnUse" markerWidth="12" markerHeight="12" orient="auto"><path d="M 1,1 L 14,14 M 1,14 L 14,1" class="arrowMarkerPath" style="stroke-width: 2.5; stroke-dasharray: 1, 0;"/></marker><g class="root"><g class="clusters"/><g class="edgePaths"><path d="M193.742,40.5L193.659,44.583C193.576,48.667,193.409,56.833,193.326,64.417C193.242,72,193.242,79,193.242,82.5L193.242,86" id="my-svg-L_A_B_0" class="edge-thickness-normal edge-pattern-solid edge-thickness-normal edge-pattern-solid flowchart-link" style=";" data-edge="true" data-et="edge" data-id="L_A_B_0" data-points="W3sieCI6MTkzLjc0MjE4NzUsInkiOjQwLjUwMDAwMDAwMDAwMDAxNH0seyJ4IjoxOTMuMjQyMTg3NSwieSI6NjV9LHsieCI6MTkzLjI0MjE4NzUsInkiOjkwfV0=" data-look="classic" marker-end="url(#my-svg_flowchart-v2-pointEnd)"/><path d="M193.242,137L193.242,141.167C193.242,145.333,193.242,153.667,193.242,161.333C193.242,169,193.242,176,193.242,179.5L193.242,183" id="my-svg-L_B_C_0" class="edge-thickness-normal edge-pattern-solid edge-thickness-normal edge-pattern-solid flowchart-link" style=";" data-edge="true" data-et="edge" data-id="L_B_C_0" data-points="W3sieCI6MTkzLjI0MjE4NzUsInkiOjEzN30seyJ4IjoxOTMuMjQyMTg3NSwieSI6MTYyfSx7IngiOjE5My4yNDIxODc1MDAwMDAwMywieSI6MTg3fV0=" data-look="classic" marker-end="url(#my-svg_flowchart-v2-pointEnd)"/><path d="M225.195,322.921L232.105,334.163C239.015,345.405,252.836,367.889,259.746,388.965C266.656,410.04,266.656,429.707,266.656,447.623C266.656,465.54,266.656,481.707,266.656,509.643C266.656,537.58,266.656,577.287,266.656,618.744C266.656,660.201,266.656,703.407,266.656,736.311C266.656,769.214,266.656,791.814,266.656,812.664C266.656,833.514,266.656,852.614,266.656,877.434C266.656,902.254,266.656,932.794,266.656,948.064L266.656,963.334" id="my-svg-L_C_D_0" class="edge-thickness-normal edge-pattern-solid edge-thickness-normal edge-pattern-solid flowchart-link" style=";" data-edge="true" data-et="edge" data-id="L_C_D_0" data-points="W3sieCI6MjI1LjE5NTA1NTk0NTQ2NzgsInkiOjMyMi45MjA1NzUxNTgwNDc3N30seyJ4IjoyNjYuNjU2MjUsInkiOjM5MC4zNzM0NDM2MDM1MTU2fSx7IngiOjI2Ni42NTYyNSwieSI6NDQ5LjM3MzQ0MzYwMzUxNTZ9LHsieCI6MjY2LjY1NjI1LCJ5Ijo0OTcuODczNDQzNjAzNTE1Nn0seyJ4IjoyNjYuNjU2MjUsInkiOjYxNi45OTM3NTkxNTUyNzM0fSx7IngiOjI2Ni42NTYyNSwieSI6NzQ2LjYxNDA3NDcwNzAzMTJ9LHsieCI6MjY2LjY1NjI1LCJ5Ijo4MTQuNDE0MDczOTQ0MDkxOH0seyJ4IjoyNjYuNjU2MjUsInkiOjg3MS43MTQwNzMxODExNTIzfSx7IngiOjI2Ni42NTYyNSwieSI6OTY3LjMzNDM4ODczMjkxMDJ9XQ==" data-look="classic" marker-end="url(#my-svg_flowchart-v2-pointEnd)"/><path d="M266.656,1014.334L266.656,1032.021C266.656,1049.708,266.656,1085.081,269.893,1108.114C273.129,1131.147,279.603,1141.84,282.839,1147.187L286.076,1152.533" id="my-svg-L_D_E_0" class="edge-thickness-normal edge-pattern-solid edge-thickness-normal edge-pattern-solid flowchart-link" style=";" data-edge="true" data-et="edge" data-id="L_D_E_0" data-points="W3sieCI6MjY2LjY1NjI1LCJ5IjoxMDE0LjMzNDM4ODczMjkxMDJ9LHsieCI6MjY2LjY1NjI1LCJ5IjoxMTIwLjQ1NDcwNDI4NDY2OH0seyJ4IjoyODguMTQ3MzIyOTA0OTk4MzYsInkiOjExNTUuOTU0NzA0Mjg0NjY4fV0=" data-look="classic" marker-end="url(#my-svg_flowchart-v2-pointEnd)"/><path d="M161.289,322.921L154.379,334.163C147.469,345.405,133.649,367.889,126.738,384.381C119.828,400.873,119.828,411.373,119.828,416.623L119.828,421.873" id="my-svg-L_C_F_0" class="edge-thickness-normal edge-pattern-solid edge-thickness-normal edge-pattern-solid flowchart-link" style=";" data-edge="true" data-et="edge" data-id="L_C_F_0" data-points="W3sieCI6MTYxLjI4OTMxOTA1NDUzMjE0LCJ5IjozMjIuOTIwNTc1MTU4MDQ3Nzd9LHsieCI6MTE5LjgyODEyNSwieSI6MzkwLjM3MzQ0MzYwMzUxNTZ9LHsieCI6MTE5LjgyODEyNSwieSI6NDI1Ljg3MzQ0MzYwMzUxNTZ9XQ==" data-look="classic" marker-end="url(#my-svg_flowchart-v2-pointEnd)"/><path d="M119.828,472.873L119.828,477.04C119.828,481.207,119.828,489.54,119.828,497.207C119.828,504.873,119.828,511.873,119.828,515.373L119.828,518.873" id="my-svg-L_F_G_0" class="edge-thickness-normal edge-pattern-solid edge-thickness-normal edge-pattern-solid flowchart-link" style=";" data-edge="true" data-et="edge" data-id="L_F_G_0" data-points="W3sieCI6MTE5LjgyODEyNSwieSI6NDcyLjg3MzQ0MzYwMzUxNTZ9LHsieCI6MTE5LjgyODEyNSwieSI6NDk3Ljg3MzQ0MzYwMzUxNTZ9LHsieCI6MTE5LjgyODEyNTAwMDAwMDAxLCJ5Ijo1MjIuODczNDQzNjAzNTE1Nn1d" data-look="classic" marker-end="url(#my-svg_flowchart-v2-pointEnd)"/><path d="M119.828,711.114L119.828,717.031C119.828,722.947,119.828,734.781,119.828,745.947C119.828,757.114,119.828,767.614,119.828,772.864L119.828,778.114" id="my-svg-L_G_H_0" class="edge-thickness-normal edge-pattern-solid edge-thickness-normal edge-pattern-solid flowchart-link" style=";" data-edge="true" data-et="edge" data-id="L_G_H_0" data-points="W3sieCI6MTE5LjgyODEyNTAwMDAwMDAxLCJ5Ijo3MTEuMTE0MDc0NzA3MDMxNH0seyJ4IjoxMTkuODI4MTI1LCJ5Ijo3NDYuNjE0MDc0NzA3MDMxMn0seyJ4IjoxMTkuODI4MTI1LCJ5Ijo3ODIuMTE0MDc0NzA3MDMxMn1d" data-look="classic" marker-end="url(#my-svg_flowchart-v2-pointEnd)"/><path d="M192.755,638.187L254.938,656.258C317.122,674.329,441.488,710.472,503.672,733.793C565.855,757.114,565.855,767.614,565.855,772.864L565.855,778.114" id="my-svg-L_G_I_0" class="edge-thickness-normal edge-pattern-solid edge-thickness-normal edge-pattern-solid flowchart-link" style=";" data-edge="true" data-et="edge" data-id="L_G_I_0" data-points="W3sieCI6MTkyLjc1NTA3MTU2ODQzMDA4LCJ5Ijo2MzguMTg3MTI4MTM4NjAxMX0seyJ4Ijo1NjUuODU1MDc5NjUwODc4OSwieSI6NzQ2LjYxNDA3NDcwNzAzMTJ9LHsieCI6NTY1Ljg1NTA3OTY1MDg3ODksInkiOjc4Mi4xMTQwNzQ3MDcwMzEyfV0=" data-look="classic" marker-end="url(#my-svg_flowchart-v2-pointEnd)"/><path d="M565.855,846.714L565.855,850.881C565.855,855.047,565.855,863.381,565.855,871.047C565.855,878.714,565.855,885.714,565.855,889.214L565.855,892.714" id="my-svg-L_I_J_0" class="edge-thickness-normal edge-pattern-solid edge-thickness-normal edge-pattern-solid flowchart-link" style=";" data-edge="true" data-et="edge" data-id="L_I_J_0" data-points="W3sieCI6NTY1Ljg1NTA3OTY1MDg3ODksInkiOjg0Ni43MTQwNzMxODExNTIzfSx7IngiOjU2NS44NTUwNzk2NTA4Nzg5LCJ5Ijo4NzEuNzE0MDczMTgxMTUyM30seyJ4Ijo1NjUuODU1MDc5NjUwODc4NSwieSI6ODk2LjcxNDA3MzE4MTE1MjN9XQ==" data-look="classic" marker-end="url(#my-svg_flowchart-v2-pointEnd)"/><path d="M590.973,1059.837L594.651,1069.94C598.328,1080.043,605.683,1100.249,609.361,1115.602C613.039,1130.955,613.039,1141.455,613.039,1146.705L613.039,1151.955" id="my-svg-L_J_K_0" class="edge-thickness-normal edge-pattern-solid edge-thickness-normal edge-pattern-solid flowchart-link" style=";" data-edge="true" data-et="edge" data-id="L_J_K_0" data-points="W3sieCI6NTkwLjk3MjkzMzM4MDIxMzUsInkiOjEwNTkuODM2ODUwNTU1MzMzM30seyJ4Ijo2MTMuMDM4NjczNDAwODc4OSwieSI6MTEyMC40NTQ3MDQyODQ2Njh9LHsieCI6NjEzLjAzODY3MzQwMDg3ODksInkiOjExNTUuOTU0NzA0Mjg0NjY4fV0=" data-look="classic" marker-end="url(#my-svg_flowchart-v2-pointEnd)"/><path d="M519.021,1038.121L505.43,1051.843C491.84,1065.566,464.658,1093.01,440.333,1112.34C416.008,1131.671,394.54,1142.887,383.806,1148.495L373.071,1154.102" id="my-svg-L_J_E_0" class="edge-thickness-normal edge-pattern-solid edge-thickness-normal edge-pattern-solid flowchart-link" style=";" data-edge="true" data-et="edge" data-id="L_J_E_0" data-points="W3sieCI6NTE5LjAyMTM2MDIyMzEzNjYsInkiOjEwMzguMTIwOTg0ODU2OTI1MX0seyJ4Ijo0MzcuNDc2MTczNDAwODc4OSwieSI6MTEyMC40NTQ3MDQyODQ2Njh9LHsieCI6MzY5LjUyNjEzNDk2NDE0NjM3LCJ5IjoxMTU1Ljk1NDcwNDI4NDY2OH1d" data-look="classic" marker-end="url(#my-svg_flowchart-v2-pointEnd)"/></g><g class="edgeLabels"><g class="edgeLabel"><g class="label" data-id="L_A_B_0" transform="translate(0, 0)"><text y="-10.1" text-anchor="middle"><tspan class="text-outer-tspan row" x="0" y="-0.1em" dy="1.1em" text-anchor="middle"/></text></g></g><g><rect class="background" style="stroke: none"/></g><g class="edgeLabel"><g class="label" data-id="L_B_C_0" transform="translate(0, 0)"><text y="-10.1" text-anchor="middle"><tspan class="text-outer-tspan row" x="0" y="-0.1em" dy="1.1em" text-anchor="middle"/></text></g></g><g><rect class="background" style="stroke: none"/></g><g class="edgeLabel" transform="translate(266.65625, 616.9937591552734)"><g class="label" data-id="L_C_D_0" transform="translate(-0.05078125, -10.5)"><g><rect class="background" style="" x="-12.2265625" y="0" width="24.5546875" height="21"/><text y="-10.1" text-anchor="middle" style=""><tspan class="text-outer-tspan row" x="0" y="-0.1em" dy="1.1em" text-anchor="middle"><tspan font-style="normal" class="text-inner-tspan" font-weight="normal">Ne</tspan></tspan></text></g></g></g><g class="edgeLabel"><g class="label" data-id="L_D_E_0" transform="translate(0, 0)"><text y="-10.1" text-anchor="middle"><tspan class="text-outer-tspan row" x="0" y="-0.1em" dy="1.1em" text-anchor="middle"/></text></g></g><g><rect class="background" style="stroke: none"/></g><g class="edgeLabel" transform="translate(119.828125, 390.3734436035156)"><g class="label" data-id="L_C_F_0" transform="translate(-0.05078125, -10.5)"><g><rect class="background" style="" x="-12.2265625" y="0" width="24.5546875" height="21"/><text y="-10.1" text-anchor="middle" style=""><tspan class="text-outer-tspan row" x="0" y="-0.1em" dy="1.1em" text-anchor="middle"><tspan font-style="normal" class="text-inner-tspan" font-weight="normal">Da</tspan></tspan></text></g></g></g><g class="edgeLabel"><g class="label" data-id="L_F_G_0" transform="translate(0, 0)"><text y="-10.1" text-anchor="middle"><tspan class="text-outer-tspan row" x="0" y="-0.1em" dy="1.1em" text-anchor="middle"/></text></g></g><g><rect class="background" style="stroke: none"/></g><g class="edgeLabel" transform="translate(119.828125, 746.6140747070312)"><g class="label" data-id="L_G_H_0" transform="translate(-0.05078125, -10.5)"><g><rect class="background" style="" x="-12.2265625" y="0" width="24.5546875" height="21"/><text y="-10.1" text-anchor="middle" style=""><tspan class="text-outer-tspan row" x="0" y="-0.1em" dy="1.1em" text-anchor="middle"><tspan font-style="normal" class="text-inner-tspan" font-weight="normal">Da</tspan></tspan></text></g></g></g><g class="edgeLabel" transform="translate(565.8550796508789, 746.6140747070312)"><g class="label" data-id="L_G_I_0" transform="translate(-0.05078125, -10.5)"><g><rect class="background" style="" x="-62.0390625" y="0" width="124.1796875" height="21"/><text y="-10.1" text-anchor="middle" style=""><tspan class="text-outer-tspan row" x="0" y="-0.1em" dy="1.1em" text-anchor="middle"><tspan font-style="normal" class="text-inner-tspan" font-weight="normal">Ne</tspan><tspan font-style="normal" class="text-inner-tspan" font-weight="normal"> /</tspan><tspan font-style="normal" class="text-inner-tspan" font-weight="normal"> Nedostupno</tspan></tspan></text></g></g></g><g class="edgeLabel"><g class="label" data-id="L_I_J_0" transform="translate(0, 0)"><text y="-10.1" text-anchor="middle"><tspan class="text-outer-tspan row" x="0" y="-0.1em" dy="1.1em" text-anchor="middle"/></text></g></g><g><rect class="background" style="stroke: none"/></g><g class="edgeLabel" transform="translate(613.0386734008789, 1120.454704284668)"><g class="label" data-id="L_J_K_0" transform="translate(-0.05078125, -10.5)"><g><rect class="background" style="" x="-12.2265625" y="0" width="24.5546875" height="21"/><text y="-10.1" text-anchor="middle" style=""><tspan class="text-outer-tspan row" x="0" y="-0.1em" dy="1.1em" text-anchor="middle"><tspan font-style="normal" class="text-inner-tspan" font-weight="normal">Da</tspan></tspan></text></g></g></g><g class="edgeLabel" transform="translate(451.27448, 1106.52297)"><g class="label" data-id="L_J_E_0" transform="translate(-0.05078125, -10.5)"><g><rect class="background" style="" x="-62.0390625" y="0" width="124.1796875" height="21"/><text y="-10.1" text-anchor="middle" style=""><tspan class="text-outer-tspan row" x="0" y="-0.1em" dy="1.1em" text-anchor="middle"><tspan font-style="normal" class="text-inner-tspan" font-weight="normal">Ne</tspan><tspan font-style="normal" class="text-inner-tspan" font-weight="normal"> /</tspan><tspan font-style="normal" class="text-inner-tspan" font-weight="normal"> Nedostupno</tspan></tspan></text></g></g></g></g><g class="nodes"><g class="node default" id="my-svg-flowchart-A-0" data-look="classic" transform="translate(193.2421875, 24)"><g class="basic label-container outer-path"><path d="M-35.078125 -16 C-18.429844743349356 -16, -1.7815644866987128 -16, 35.078125 -16 C35.078125 -16, 35.078125 -16, 35.078125 -16 C35.42402941290338 -15.988907518740284, 35.76993382580675 -15.977815037480568, 36.103248519691405 -15.967126284005381 C36.33000017529228 -15.94525182449833, 36.55675183089314 -15.923377364991278, 37.124159586952096 -15.868640221171939 C37.33428013066757 -15.834669561173174, 37.54440067438305 -15.800698901174409, 38.13666305922195 -15.704946511857047 C38.521189707699406 -15.617180813612952, 38.90571635617687 -15.529415115368858, 39.13659834255211 -15.476717808624471 C39.50374064161074 -15.367751901433124, 39.870882940669375 -15.258785994241778, 40.119856488377934 -15.184891952170698 C40.36000080102787 -15.09651662524583, 40.600145113677804 -15.008141298320963, 41.08239707806999 -14.830668117536348 C41.338983194676864 -14.7170850550712, 41.59556931128374 -14.603501992606054, 42.02026482588093 -14.415501886438706 C42.28336186193459 -14.278244331251207, 42.54645889798825 -14.140986776063707, 42.929605832063004 -13.941099265974232 C43.25775640171543 -13.74217246222413, 43.58590697136787 -13.543245658474026, 43.80668341936878 -13.409409678269451 C44.07093008224973 -13.225082645297372, 44.33517674513068 -13.040755612325292, 44.647893487859456 -12.822617949887306 C44.887383155667656 -12.63163131289798, 45.12687282347586 -12.440644675908654, 45.44977932492461 -12.183135333906153 C45.68590591529519 -11.968691412098824, 45.92203250566576 -11.754247490291496, 46.209045809655784 -11.493589601563642 C46.37883486623272 -11.318268460707161, 46.54862392280966 -11.142947319850679, 46.92257295320505 -10.756814244181072 C47.082475906785994 -10.568983136169075, 47.24237886036695 -10.381152028157079, 47.58742871948848 -9.975836829739738 C47.74106818652167 -9.76997394075864, 47.894707653554875 -9.564111051777543, 48.20088107355129 -9.153866561954718 C48.38922187247297 -8.864524518225108, 48.57756267139466 -8.5751824744955, 48.760409208085534 -8.294281092968403 C48.866185963440486 -8.106463752777739, 48.97196271879544 -7.918646412587075, 49.263713901968 -7.400612643853364 C49.42108152046851 -7.073835416909419, 49.57844913896903 -6.747058189965474, 49.708726968252996 -6.476533489958305 C49.799366101649184 -6.252653078081294, 49.89000523504537 -6.028772666204282, 50.093619752796165 -5.52584087074093 C50.17152005448667 -5.291217573776648, 50.24942035617718 -5.056594276812367, 50.41681064858657 -4.552441386096524 C50.49953343329441 -4.236983555723839, 50.58225621800225 -3.9215257253511537, 50.676971594909176 -3.560334943301032 C50.73347819117086 -3.2701855141706457, 50.789984787432545 -2.9800360850402594, 50.873033534631205 -2.5535983205340735 C50.91487063487768 -2.2291180326923072, 50.956707735124155 -1.9046377448505412, 51.00419080718717 -1.536368414522911 C51.02323597763592 -1.2397245117987414, 51.04228114808467 -0.9430806090745719, 51.069904459211 -0.5128252411464826 C51.069904459211 -0.17180148373604115, 51.069904459211 0.16922227367440035, 51.069904459211 0.5128252411464788 C51.05527528727442 0.740686402513778, 51.04064611533784 0.9685475638810772, 51.00419080718717 1.5363684145229002 C50.969874873711476 1.8025160181128483, 50.93555894023579 2.0686636217027967, 50.873033534631205 2.5535983205340624 C50.81046232920071 2.8748882359906816, 50.74789112377022 3.1961781514473, 50.676971594909176 3.5603349433010285 C50.57927126510354 3.9329086444406944, 50.48157093529791 4.30548234558036, 50.41681064858657 4.552441386096513 C50.29267231734151 4.926326261049544, 50.168533986096456 5.300211136002576, 50.093619752796165 5.525840870740919 C49.94713265617809 5.8876668315229175, 49.80064555956001 6.249492792304916, 49.708726968253 6.4765334899583005 C49.592826160384064 6.717203997378172, 49.476925352515124 6.957874504798044, 49.263713901968 7.400612643853361 C49.134447682240335 7.630137906603977, 49.00518146251266 7.859663169354594, 48.76040920808554 8.294281092968399 C48.54065726618218 8.631879087390779, 48.32090532427882 8.969477081813157, 48.2008810735513 9.15386656195471 C48.07685929762144 9.320044443084498, 47.95283752169158 9.486222324214289, 47.58742871948848 9.975836829739734 C47.37033162074595 10.230851435097575, 47.15323452200342 10.485866040455416, 46.922572953205055 10.756814244181063 C46.644163524906666 11.044294836738311, 46.36575409660828 11.33177542929556, 46.209045809655784 11.493589601563638 C45.94193188367166 11.736175401695224, 45.67481795768754 11.97876120182681, 45.44977932492463 12.183135333906142 C45.15644748540251 12.417059670036958, 44.86311564588039 12.650984006167771, 44.64789348785946 12.822617949887304 C44.42938813517148 12.975037824978177, 44.210882782483495 13.127457700069048, 43.80668341936879 13.409409678269446 C43.55401116561922 13.562581083359412, 43.30133891186966 13.715752488449379, 42.929605832063004 13.94109926597423 C42.64283492410702 14.090707464969334, 42.35606401615104 14.240315663964438, 42.02026482588093 14.415501886438705 C41.732826780672156 14.542742182505966, 41.44538873546338 14.669982478573228, 41.082397078069995 14.830668117536346 C40.81404821925417 14.929422978170228, 40.54569936043835 15.02817783880411, 40.11985648837794 15.184891952170695 C39.78370116771496 15.284661086828184, 39.44754584705198 15.384430221485673, 39.13659834255213 15.476717808624468 C38.870937782048294 15.537353097962297, 38.60527722154446 15.597988387300129, 38.13666305922196 15.704946511857045 C37.740104713935274 15.769058989767098, 37.34354636864858 15.833171467677152, 37.1241595869521 15.868640221171937 C36.718286716927125 15.907794288809704, 36.312413846902146 15.946948356447471, 36.103248519691405 15.967126284005381 C35.84167251628282 15.975514517307891, 35.580096512874235 15.983902750610401, 35.078125 16 C35.078125 16, 35.078125 16, 35.078125 16 C7.369707463370823 16, -20.338710073258355 16, -35.078125 16 C-35.32370121039907 15.992124848917598, -35.569277420798144 15.984249697835196, -36.1032485196914 15.967126284005381 C-36.325395704352346 15.945696012272217, -36.54754288901329 15.924265740539054, -37.124159586952096 15.868640221171937 C-37.51793031371106 15.80497842380714, -37.911701040470035 15.741316626442345, -38.13666305922196 15.704946511857045 C-38.36028387704398 15.653906519451379, -38.58390469486601 15.602866527045713, -39.13659834255211 15.476717808624471 C-39.42436060345112 15.391311480084577, -39.71212286435013 15.305905151544684, -40.11985648837792 15.184891952170702 C-40.45356962292736 15.062082433846108, -40.7872827574768 14.939272915521514, -41.08239707806999 14.830668117536348 C-41.341877751739084 14.715803720523741, -41.60135842540818 14.600939323511136, -42.02026482588093 14.415501886438708 C-42.31671275806419 14.260845190102662, -42.613160690247454 14.106188493766616, -42.929605832063 13.941099265974234 C-43.26356159555948 13.738653319600763, -43.597517359055956 13.53620737322729, -43.80668341936877 13.409409678269457 C-44.06948475949086 13.226090839886941, -44.33228609961296 13.042772001504424, -44.647893487859456 12.822617949887308 C-44.88850914395739 12.630733367200722, -45.12912480005533 12.438848784514137, -45.44977932492461 12.183135333906154 C-45.69439161906956 11.960984920450354, -45.93900391321451 11.738834506994555, -46.20904580965578 11.493589601563649 C-46.41881288670021 11.276987872317957, -46.62857996374464 11.060386143072265, -46.92257295320505 10.756814244181069 C-47.15730897787154 10.48107995274962, -47.39204500253803 10.205345661318173, -47.58742871948847 9.97583682973974 C-47.732581393888715 9.781345469724087, -47.87773406828896 9.586854109708433, -48.20088107355129 9.15386656195472 C-48.39202027836146 8.860225415303201, -48.58315948317163 8.566584268651683, -48.760409208085534 8.29428109296841 C-48.876868146184144 8.087496455628079, -48.99332708428276 7.8807118182877485, -49.263713901968 7.400612643853366 C-49.402976009554806 7.111431897717604, -49.542238117141615 6.822251151581842, -49.708726968252996 6.476533489958307 C-49.838406655403766 6.156222155509717, -49.968086342554535 5.835910821061126, -50.093619752796165 5.525840870740931 C-50.20158370288941 5.200670654779493, -50.30954765298265 4.875500438818056, -50.41681064858657 4.552441386096519 C-50.51481846162521 4.178695118125313, -50.61282627466385 3.804948850154107, -50.676971594909176 3.5603349433010343 C-50.746427294407034 3.2036946058468168, -50.8158829939049 2.8470542683925997, -50.873033534631205 2.5535983205340753 C-50.92532656997632 2.1480238648251913, -50.97761960532143 1.742449409116307, -51.00419080718717 1.5363684145229202 C-51.026900029628464 1.1826539444452835, -51.049609252069764 0.8289394743676466, -51.069904459211 0.5128252411464846 C-51.069904459211 0.14466740238976838, -51.069904459211 -0.22349043636694788, -51.069904459211 -0.5128252411464769 C-51.0450093389345 -0.9005868344324919, -51.02011421865799 -1.2883484277185069, -51.00419080718717 -1.5363684145228982 C-50.96422928352763 -1.8463021007309035, -50.92426775986809 -2.156235786938909, -50.873033534631205 -2.5535983205340678 C-50.803853419857276 -2.9088235886757396, -50.73467330508335 -3.264048856817411, -50.676971594909176 -3.5603349433010267 C-50.61697772347804 -3.7891175765763148, -50.556983852046905 -4.017900209851603, -50.416810648586576 -4.552441386096511 C-50.30077803312217 -4.90191313658864, -50.18474541765777 -5.25138488708077, -50.09361975279617 -5.525840870740911 C-49.98997263127662 -5.781851264774982, -49.886325509757064 -6.037861658809053, -49.708726968253 -6.476533489958299 C-49.59876210390258 -6.704877883653128, -49.488797239552156 -6.933222277347958, -49.263713901968 -7.400612643853359 C-49.08740779931996 -7.713661982033751, -48.91110169667192 -8.026711320214144, -48.760409208085534 -8.294281092968404 C-48.61335926209149 -8.520189298454657, -48.46630931609745 -8.74609750394091, -48.200881073551294 -9.153866561954715 C-48.01798099610543 -9.398936003192338, -47.835080918659564 -9.644005444429963, -47.58742871948848 -9.975836829739734 C-47.330177185236955 -10.278019119898554, -47.072925650985425 -10.580201410057372, -46.922572953205055 -10.756814244181063 C-46.74230220115793 -10.942958596173707, -46.56203144911082 -11.129102948166352, -46.20904580965579 -11.493589601563633 C-45.92167839905246 -11.754569080548546, -45.63431098844912 -12.015548559533459, -45.44977932492463 -12.18313533390614 C-45.24088919938149 -12.349719650227096, -45.03199907383836 -12.516303966548053, -44.64789348785946 -12.822617949887302 C-44.41454564513289 -12.985391303508056, -44.18119780240631 -13.148164657128811, -43.80668341936879 -13.409409678269444 C-43.58834211368365 -13.54176946089171, -43.370000807998515 -13.674129243513976, -42.929605832063004 -13.941099265974229 C-42.74176935429919 -14.039093436108606, -42.55393287653537 -14.137087606242984, -42.020264825880936 -14.415501886438705 C-41.688324438463084 -14.562442049286846, -41.35638405104523 -14.709382212134988, -41.082397078069995 -14.830668117536344 C-40.82971723885005 -14.923656634116112, -40.577037399630115 -15.01664515069588, -40.11985648837794 -15.184891952170695 C-39.78117341291493 -15.285411311184376, -39.44249033745192 -15.385930670198055, -39.13659834255213 -15.476717808624466 C-38.85705221833907 -15.540522387267156, -38.577506094126 -15.604326965909847, -38.136663059221966 -15.704946511857043 C-37.77262051790287 -15.763802086745441, -37.408577976583786 -15.82265766163384, -37.1241595869521 -15.868640221171937 C-36.81564426255319 -15.898402323472737, -36.50712893815428 -15.928164425773536, -36.103248519691405 -15.967126284005381 C-35.715757844903656 -15.979552355740982, -35.32826717011591 -15.99197842747658, -35.07812500000001 -16 C-35.07812500000001 -16, -35.078125 -16, -35.078125 -16" stroke="none" stroke-width="0" fill="#eee" style=""/><path d="M-35.078125 -16 C-11.723857529560085 -16, 11.63040994087983 -16, 35.078125 -16 M-35.078125 -16 C-9.213634984402201 -16, 16.650855031195597 -16, 35.078125 -16 M35.078125 -16 C35.078125 -16, 35.078125 -16, 35.078125 -16 M35.078125 -16 C35.078125 -16, 35.078125 -16, 35.078125 -16 M35.078125 -16 C35.38894624886867 -15.99003256752564, 35.69976749773735 -15.980065135051282, 36.103248519691405 -15.967126284005381 M35.078125 -16 C35.39471368828702 -15.989847616969135, 35.71130237657404 -15.97969523393827, 36.103248519691405 -15.967126284005381 M36.103248519691405 -15.967126284005381 C36.456096254709706 -15.933087487369654, 36.80894398972801 -15.899048690733926, 37.124159586952096 -15.868640221171939 M36.103248519691405 -15.967126284005381 C36.35642915923454 -15.942702252202924, 36.609609798777676 -15.918278220400465, 37.124159586952096 -15.868640221171939 M37.124159586952096 -15.868640221171939 C37.36765317488685 -15.829274066195625, 37.6111467628216 -15.789907911219311, 38.13666305922195 -15.704946511857047 M37.124159586952096 -15.868640221171939 C37.379767577736864 -15.82731550349143, 37.63537556852164 -15.785990785810922, 38.13666305922195 -15.704946511857047 M38.13666305922195 -15.704946511857047 C38.35434730943608 -15.655261502268159, 38.572031559650206 -15.605576492679273, 39.13659834255211 -15.476717808624471 M38.13666305922195 -15.704946511857047 C38.4449677089729 -15.634577987427253, 38.75327235872384 -15.564209462997459, 39.13659834255211 -15.476717808624471 M39.13659834255211 -15.476717808624471 C39.401124677949895 -15.398207780805478, 39.665651013347684 -15.319697752986485, 40.119856488377934 -15.184891952170698 M39.13659834255211 -15.476717808624471 C39.42697871376347 -15.390534438686613, 39.717359084974824 -15.304351068748757, 40.119856488377934 -15.184891952170698 M40.119856488377934 -15.184891952170698 C40.49323829949251 -15.047483994176908, 40.866620110607094 -14.910076036183115, 41.08239707806999 -14.830668117536348 M40.119856488377934 -15.184891952170698 C40.39485670748488 -15.083689329465185, 40.66985692659181 -14.982486706759673, 41.08239707806999 -14.830668117536348 M41.08239707806999 -14.830668117536348 C41.2752903357989 -14.745279994314947, 41.46818359352781 -14.659891871093546, 42.02026482588093 -14.415501886438706 M41.08239707806999 -14.830668117536348 C41.43092033720993 -14.676387209290246, 41.779443596349886 -14.522106301044143, 42.02026482588093 -14.415501886438706 M42.02026482588093 -14.415501886438706 C42.25626288656216 -14.292381849345281, 42.49226094724339 -14.169261812251856, 42.929605832063004 -13.941099265974232 M42.02026482588093 -14.415501886438706 C42.25808137693523 -14.291433144082449, 42.49589792798953 -14.167364401726193, 42.929605832063004 -13.941099265974232 M42.929605832063004 -13.941099265974232 C43.21187482718226 -13.769986142336203, 43.49414382230151 -13.598873018698175, 43.80668341936878 -13.409409678269451 M42.929605832063004 -13.941099265974232 C43.19838777190972 -13.778162074501147, 43.46716971175645 -13.615224883028059, 43.80668341936878 -13.409409678269451 M43.80668341936878 -13.409409678269451 C43.99663765611672 -13.276905825700469, 44.18659189286465 -13.144401973131487, 44.647893487859456 -12.822617949887306 M43.80668341936878 -13.409409678269451 C44.03231766705525 -13.252016994632527, 44.257951914741724 -13.0946243109956, 44.647893487859456 -12.822617949887306 M44.647893487859456 -12.822617949887306 C44.81377133240673 -12.69033478305568, 44.97964917695401 -12.558051616224054, 45.44977932492461 -12.183135333906153 M44.647893487859456 -12.822617949887306 C44.85739713558792 -12.655544365950062, 45.066900783316385 -12.488470782012818, 45.44977932492461 -12.183135333906153 M45.44977932492461 -12.183135333906153 C45.604701373898536 -12.042439228040832, 45.75962342287246 -11.901743122175514, 46.209045809655784 -11.493589601563642 M45.44977932492461 -12.183135333906153 C45.65677710311814 -11.995145428611883, 45.86377488131166 -11.807155523317611, 46.209045809655784 -11.493589601563642 M46.209045809655784 -11.493589601563642 C46.46035372551732 -11.234093545672996, 46.71166164137886 -10.97459748978235, 46.92257295320505 -10.756814244181072 M46.209045809655784 -11.493589601563642 C46.36962214724283 -11.327781349442525, 46.53019848482987 -11.161973097321408, 46.92257295320505 -10.756814244181072 M46.92257295320505 -10.756814244181072 C47.14533643264441 -10.495143585630531, 47.36809991208377 -10.233472927079992, 47.58742871948848 -9.975836829739738 M46.92257295320505 -10.756814244181072 C47.13421426896604 -10.508208311956185, 47.34585558472703 -10.2596023797313, 47.58742871948848 -9.975836829739738 M47.58742871948848 -9.975836829739738 C47.81171157033402 -9.675318242194756, 48.035994421179566 -9.374799654649774, 48.20088107355129 -9.153866561954718 M47.58742871948848 -9.975836829739738 C47.72683189787874 -9.789049270587602, 47.86623507626899 -9.602261711435467, 48.20088107355129 -9.153866561954718 M48.20088107355129 -9.153866561954718 C48.31790451887051 -8.974087124749374, 48.43492796418974 -8.79430768754403, 48.760409208085534 -8.294281092968403 M48.20088107355129 -9.153866561954718 C48.40604301382636 -8.838682727997396, 48.61120495410144 -8.523498894040074, 48.760409208085534 -8.294281092968403 M48.760409208085534 -8.294281092968403 C48.93615064231685 -7.982234380740779, 49.11189207654817 -7.670187668513156, 49.263713901968 -7.400612643853364 M48.760409208085534 -8.294281092968403 C48.923409896910975 -8.004856864349287, 49.08641058573642 -7.715432635730172, 49.263713901968 -7.400612643853364 M49.263713901968 -7.400612643853364 C49.40107946153159 -7.1153701202674435, 49.53844502109518 -6.830127596681523, 49.708726968252996 -6.476533489958305 M49.263713901968 -7.400612643853364 C49.369621442155996 -7.18069337059465, 49.47552898234399 -6.960774097335935, 49.708726968252996 -6.476533489958305 M49.708726968252996 -6.476533489958305 C49.847063618668706 -6.134839288874315, 49.985400269084415 -5.793145087790325, 50.093619752796165 -5.52584087074093 M49.708726968252996 -6.476533489958305 C49.81851650919557 -6.205351201193785, 49.92830605013814 -5.934168912429264, 50.093619752796165 -5.52584087074093 M50.093619752796165 -5.52584087074093 C50.21842666077658 -5.1499423491842276, 50.343233568757 -4.774043827627525, 50.41681064858657 -4.552441386096524 M50.093619752796165 -5.52584087074093 C50.2123193699156 -5.168336536192867, 50.33101898703502 -4.810832201644805, 50.41681064858657 -4.552441386096524 M50.41681064858657 -4.552441386096524 C50.50224479729069 -4.226643949693436, 50.58767894599481 -3.9008465132903476, 50.676971594909176 -3.560334943301032 M50.41681064858657 -4.552441386096524 C50.473318953645155 -4.336950728053801, 50.52982725870374 -4.1214600700110795, 50.676971594909176 -3.560334943301032 M50.676971594909176 -3.560334943301032 C50.71879033737031 -3.3456045391574722, 50.76060907983144 -3.1308741350139124, 50.873033534631205 -2.5535983205340735 M50.676971594909176 -3.560334943301032 C50.726381633170185 -3.3066248396460467, 50.77579167143119 -3.0529147359910613, 50.873033534631205 -2.5535983205340735 M50.873033534631205 -2.5535983205340735 C50.90416848638916 -2.312121782991024, 50.93530343814711 -2.0706452454479747, 51.00419080718717 -1.536368414522911 M50.873033534631205 -2.5535983205340735 C50.90087900333302 -2.337634363992558, 50.92872447203483 -2.1216704074510417, 51.00419080718717 -1.536368414522911 M51.00419080718717 -1.536368414522911 C51.02616540362705 -1.1940963373968843, 51.048140000066915 -0.8518242602708574, 51.069904459211 -0.5128252411464826 M51.00419080718717 -1.536368414522911 C51.02810443268227 -1.1638943947057083, 51.05201805817736 -0.7914203748885056, 51.069904459211 -0.5128252411464826 M51.069904459211 -0.5128252411464826 C51.069904459211 -0.1503102113444409, 51.069904459211 0.21220481845760086, 51.069904459211 0.5128252411464788 M51.069904459211 -0.5128252411464826 C51.069904459211 -0.26621285343447365, 51.069904459211 -0.0196004657224646, 51.069904459211 0.5128252411464788 M51.069904459211 0.5128252411464788 C51.05101114646674 0.807103837545959, 51.032117833722474 1.1013824339454392, 51.00419080718717 1.5363684145229002 M51.069904459211 0.5128252411464788 C51.05225777529563 0.7876865872753, 51.034611091380256 1.0625479334041212, 51.00419080718717 1.5363684145229002 M51.00419080718717 1.5363684145229002 C50.97793888681984 1.7399731248638775, 50.95168696645251 1.9435778352048545, 50.873033534631205 2.5535983205340624 M51.00419080718717 1.5363684145229002 C50.97120887738061 1.7921697490838993, 50.938226947574044 2.0479710836448985, 50.873033534631205 2.5535983205340624 M50.873033534631205 2.5535983205340624 C50.82499841001147 2.800248533229235, 50.77696328539173 3.0468987459244072, 50.676971594909176 3.5603349433010285 M50.873033534631205 2.5535983205340624 C50.801294315144645 2.921964050508122, 50.72955509565809 3.290329780482182, 50.676971594909176 3.5603349433010285 M50.676971594909176 3.5603349433010285 C50.588895721671705 3.8962064202804316, 50.50081984843423 4.232077897259835, 50.41681064858657 4.552441386096513 M50.676971594909176 3.5603349433010285 C50.61969260799762 3.778764545264744, 50.562413621086066 3.997194147228459, 50.41681064858657 4.552441386096513 M50.41681064858657 4.552441386096513 C50.30525114027062 4.888440850550348, 50.193691631954664 5.224440315004183, 50.093619752796165 5.525840870740919 M50.41681064858657 4.552441386096513 C50.309074935376536 4.876924188930326, 50.20133922216651 5.20140699176414, 50.093619752796165 5.525840870740919 M50.093619752796165 5.525840870740919 C49.995660466085205 5.767802202830963, 49.897701179374245 6.009763534921007, 49.708726968253 6.4765334899583005 M50.093619752796165 5.525840870740919 C50.01125310197996 5.729288090707805, 49.928886451163756 5.9327353106746905, 49.708726968253 6.4765334899583005 M49.708726968253 6.4765334899583005 C49.53668083053795 6.833790976121247, 49.36463469282289 7.191048462284195, 49.263713901968 7.400612643853361 M49.708726968253 6.4765334899583005 C49.58529889493655 6.732834525137622, 49.46187082162009 6.989135560316942, 49.263713901968 7.400612643853361 M49.263713901968 7.400612643853361 C49.14389574119714 7.613361921206451, 49.02407758042628 7.82611119855954, 48.76040920808554 8.294281092968399 M49.263713901968 7.400612643853361 C49.109751755077 7.673988026016269, 48.955789608186 7.947363408179177, 48.76040920808554 8.294281092968399 M48.76040920808554 8.294281092968399 C48.648175919669626 8.466701562833022, 48.53594263125371 8.639122032697642, 48.2008810735513 9.15386656195471 M48.76040920808554 8.294281092968399 C48.59240293215472 8.552383848800071, 48.42439665622389 8.810486604631741, 48.2008810735513 9.15386656195471 M48.2008810735513 9.15386656195471 C48.04057871256276 9.368657121833834, 47.880276351574224 9.58344768171296, 47.58742871948848 9.975836829739734 M48.2008810735513 9.15386656195471 C48.06886744973789 9.330752791176145, 47.936853825924466 9.507639020397582, 47.58742871948848 9.975836829739734 M47.58742871948848 9.975836829739734 C47.333972511806586 10.273560913349659, 47.0805163041247 10.571284996959584, 46.922572953205055 10.756814244181063 M47.58742871948848 9.975836829739734 C47.40399495911969 10.19130856234556, 47.220561198750914 10.406780294951384, 46.922572953205055 10.756814244181063 M46.922572953205055 10.756814244181063 C46.750430587991495 10.934565369415088, 46.578288222777935 11.11231649464911, 46.209045809655784 11.493589601563638 M46.922572953205055 10.756814244181063 C46.76439425433828 10.920146737473708, 46.6062155554715 11.083479230766352, 46.209045809655784 11.493589601563638 M46.209045809655784 11.493589601563638 C46.01111138306487 11.67334841073556, 45.81317695647396 11.853107219907482, 45.44977932492463 12.183135333906142 M46.209045809655784 11.493589601563638 C45.99258093262604 11.690177275535252, 45.776116055596304 11.886764949506865, 45.44977932492463 12.183135333906142 M45.44977932492463 12.183135333906142 C45.28009822416858 12.31845149635536, 45.110417123412546 12.453767658804578, 44.64789348785946 12.822617949887304 M45.44977932492463 12.183135333906142 C45.15164471559473 12.420889751151591, 44.85351010626482 12.658644168397043, 44.64789348785946 12.822617949887304 M44.64789348785946 12.822617949887304 C44.47196718881183 12.945336520376188, 44.29604088976421 13.068055090865073, 43.80668341936879 13.409409678269446 M44.64789348785946 12.822617949887304 C44.450359062207724 12.96040941409449, 44.252824636555985 13.098200878301677, 43.80668341936879 13.409409678269446 M43.80668341936879 13.409409678269446 C43.58069725955975 13.546403816387773, 43.3547110997507 13.6833979545061, 42.929605832063004 13.94109926597423 M43.80668341936879 13.409409678269446 C43.56549127969797 13.555621770740236, 43.32429914002716 13.701833863211027, 42.929605832063004 13.94109926597423 M42.929605832063004 13.94109926597423 C42.61433241699029 14.105577204675406, 42.29905900191757 14.270055143376583, 42.02026482588093 14.415501886438705 M42.929605832063004 13.94109926597423 C42.599651090599124 14.11323644324984, 42.26969634913524 14.285373620525448, 42.02026482588093 14.415501886438705 M42.02026482588093 14.415501886438705 C41.64893321541093 14.57987937523292, 41.27760160494093 14.744256864027134, 41.082397078069995 14.830668117536346 M42.02026482588093 14.415501886438705 C41.82043427649036 14.503960942891277, 41.620603727099784 14.59241999934385, 41.082397078069995 14.830668117536346 M41.082397078069995 14.830668117536346 C40.72682390878692 14.961522330714864, 40.37125073950384 15.09237654389338, 40.11985648837794 15.184891952170695 M41.082397078069995 14.830668117536346 C40.73156986125371 14.959775776335979, 40.38074264443743 15.088883435135612, 40.11985648837794 15.184891952170695 M40.11985648837794 15.184891952170695 C39.89576874838513 15.25140001714001, 39.671681008392326 15.317908082109327, 39.13659834255213 15.476717808624468 M40.11985648837794 15.184891952170695 C39.86180323619604 15.261480802869121, 39.603749984014144 15.338069653567548, 39.13659834255213 15.476717808624468 M39.13659834255213 15.476717808624468 C38.921582980716465 15.525793661857096, 38.7065676188808 15.574869515089723, 38.13666305922196 15.704946511857045 M39.13659834255213 15.476717808624468 C38.853799026901385 15.54126490698375, 38.570999711250636 15.605812005343035, 38.13666305922196 15.704946511857045 M38.13666305922196 15.704946511857045 C37.75981302839281 15.765872702325865, 37.38296299756366 15.826798892794685, 37.1241595869521 15.868640221171937 M38.13666305922196 15.704946511857045 C37.83215519518644 15.754176981820555, 37.52764733115091 15.803407451784063, 37.1241595869521 15.868640221171937 M37.1241595869521 15.868640221171937 C36.71878547790655 15.907746173937866, 36.313411368861 15.946852126703796, 36.103248519691405 15.967126284005381 M37.1241595869521 15.868640221171937 C36.72539268975181 15.90710878415749, 36.32662579255152 15.945577347143042, 36.103248519691405 15.967126284005381 M36.103248519691405 15.967126284005381 C35.875844516690655 15.974418687766576, 35.64844051368991 15.98171109152777, 35.078125 16 M36.103248519691405 15.967126284005381 C35.879370788727535 15.974305607085824, 35.65549305776367 15.981484930166268, 35.078125 16 M35.078125 16 C35.078125 16, 35.078125 16, 35.078125 16 M35.078125 16 C35.078125 16, 35.078125 16, 35.078125 16 M35.078125 16 C19.020255798982873 16, 2.9623865979657467 16, -35.078125 16 M35.078125 16 C18.709224613009333 16, 2.340324226018666 16, -35.078125 16 M-35.078125 16 C-35.451229287475904 15.988035271704087, -35.8243335749518 15.976070543408175, -36.1032485196914 15.967126284005381 M-35.078125 16 C-35.4358130134986 15.988529641604583, -35.7935010269972 15.977059283209165, -36.1032485196914 15.967126284005381 M-36.1032485196914 15.967126284005381 C-36.48840663843862 15.929970543510246, -36.87356475718585 15.89281480301511, -37.124159586952096 15.868640221171937 M-36.1032485196914 15.967126284005381 C-36.47515164431296 15.931249236852086, -36.84705476893452 15.89537218969879, -37.124159586952096 15.868640221171937 M-37.124159586952096 15.868640221171937 C-37.49412588179633 15.808826939752988, -37.86409217664056 15.749013658334041, -38.13666305922196 15.704946511857045 M-37.124159586952096 15.868640221171937 C-37.52598528782202 15.803676158060139, -37.92781098869194 15.738712094948342, -38.13666305922196 15.704946511857045 M-38.13666305922196 15.704946511857045 C-38.45918006088556 15.631334110847451, -38.781697062549156 15.557721709837857, -39.13659834255211 15.476717808624471 M-38.13666305922196 15.704946511857045 C-38.4182617555307 15.640673447027801, -38.69986045183945 15.576400382198557, -39.13659834255211 15.476717808624471 M-39.13659834255211 15.476717808624471 C-39.43477328315573 15.38822105140552, -39.732948223759344 15.29972429418657, -40.11985648837792 15.184891952170702 M-39.13659834255211 15.476717808624471 C-39.497926330738004 15.369477558380213, -39.85925431892389 15.262237308135955, -40.11985648837792 15.184891952170702 M-40.11985648837792 15.184891952170702 C-40.44846482627827 15.063961046201197, -40.777073164178624 14.943030140231691, -41.08239707806999 14.830668117536348 M-40.11985648837792 15.184891952170702 C-40.35261046815421 15.099236336058823, -40.5853644479305 15.013580719946946, -41.08239707806999 14.830668117536348 M-41.08239707806999 14.830668117536348 C-41.275823370614084 14.745044035614182, -41.46924966315817 14.659419953692018, -42.02026482588093 14.415501886438708 M-41.08239707806999 14.830668117536348 C-41.41556825777519 14.683183119452751, -41.748739437480396 14.535698121369155, -42.02026482588093 14.415501886438708 M-42.02026482588093 14.415501886438708 C-42.21908190779659 14.311779142151725, -42.417898989712256 14.208056397864741, -42.929605832063 13.941099265974234 M-42.02026482588093 14.415501886438708 C-42.29524266626469 14.272046123242209, -42.57022050664846 14.128590360045711, -42.929605832063 13.941099265974234 M-42.929605832063 13.941099265974234 C-43.26196359841569 13.739622034860199, -43.59432136476839 13.538144803746164, -43.80668341936877 13.409409678269457 M-42.929605832063 13.941099265974234 C-43.199523830149545 13.777473389319944, -43.46944182823609 13.613847512665656, -43.80668341936877 13.409409678269457 M-43.80668341936877 13.409409678269457 C-44.06210266783647 13.23124026745945, -44.317521916304166 13.053070856649443, -44.647893487859456 12.822617949887308 M-43.80668341936877 13.409409678269457 C-44.11178886932121 13.196581324184688, -44.41689431927366 12.983752970099921, -44.647893487859456 12.822617949887308 M-44.647893487859456 12.822617949887308 C-44.9678957245582 12.567424681737212, -45.287897961256945 12.312231413587115, -45.44977932492461 12.183135333906154 M-44.647893487859456 12.822617949887308 C-44.90572573872587 12.617003591025687, -45.16355798959229 12.411389232164067, -45.44977932492461 12.183135333906154 M-45.44977932492461 12.183135333906154 C-45.683494120461546 11.970881740354141, -45.91720891599848 11.758628146802128, -46.20904580965578 11.493589601563649 M-45.44977932492461 12.183135333906154 C-45.73163610324976 11.927160465352951, -46.013492881574905 11.671185596799749, -46.20904580965578 11.493589601563649 M-46.20904580965578 11.493589601563649 C-46.35564831567046 11.342210477813905, -46.50225082168513 11.190831354064162, -46.92257295320505 10.756814244181069 M-46.20904580965578 11.493589601563649 C-46.40158281042514 11.294779340687539, -46.594119811194496 11.09596907981143, -46.92257295320505 10.756814244181069 M-46.92257295320505 10.756814244181069 C-47.08232098896996 10.56916511145086, -47.242069024734874 10.381515978720651, -47.58742871948847 9.97583682973974 M-46.92257295320505 10.756814244181069 C-47.124829131461695 10.519232628498242, -47.327085309718335 10.281651012815416, -47.58742871948847 9.97583682973974 M-47.58742871948847 9.97583682973974 C-47.7590508854727 9.74587876242183, -47.93067305145694 9.51592069510392, -48.20088107355129 9.15386656195472 M-47.58742871948847 9.97583682973974 C-47.80090123486562 9.689803106880591, -48.01437375024277 9.403769384021441, -48.20088107355129 9.15386656195472 M-48.20088107355129 9.15386656195472 C-48.346096240415015 8.93077706991981, -48.49131140727875 8.707687577884899, -48.760409208085534 8.29428109296841 M-48.20088107355129 9.15386656195472 C-48.35103828304125 8.923184765321661, -48.50119549253121 8.692502968688602, -48.760409208085534 8.29428109296841 M-48.760409208085534 8.29428109296841 C-48.9236514558496 8.004427951993259, -49.086893703613676 7.714574811018108, -49.263713901968 7.400612643853366 M-48.760409208085534 8.29428109296841 C-48.88707514698274 8.06937289213927, -49.01374108587994 7.844464691310133, -49.263713901968 7.400612643853366 M-49.263713901968 7.400612643853366 C-49.37034494763633 7.179190995984196, -49.47697599330466 6.957769348115026, -49.708726968252996 6.476533489958307 M-49.263713901968 7.400612643853366 C-49.38353029154709 7.15181134723234, -49.50334668112618 6.903010050611315, -49.708726968252996 6.476533489958307 M-49.708726968252996 6.476533489958307 C-49.7867181494581 6.283893764524785, -49.86470933066321 6.091254039091263, -50.093619752796165 5.525840870740931 M-49.708726968252996 6.476533489958307 C-49.80975486223741 6.226992638575345, -49.910782756221835 5.977451787192384, -50.093619752796165 5.525840870740931 M-50.093619752796165 5.525840870740931 C-50.16188252793249 5.32024426822652, -50.23014530306882 5.114647665712108, -50.41681064858657 4.552441386096519 M-50.093619752796165 5.525840870740931 C-50.214899411653995 5.160565861550627, -50.336179070511825 4.795290852360323, -50.41681064858657 4.552441386096519 M-50.41681064858657 4.552441386096519 C-50.50555361847022 4.214025980483704, -50.59429658835388 3.87561057487089, -50.676971594909176 3.5603349433010343 M-50.41681064858657 4.552441386096519 C-50.488513951054564 4.279005617378184, -50.56021725352256 4.005569848659849, -50.676971594909176 3.5603349433010343 M-50.676971594909176 3.5603349433010343 C-50.73601591713805 3.2571548276777134, -50.79506023936692 2.953974712054393, -50.873033534631205 2.5535983205340753 M-50.676971594909176 3.5603349433010343 C-50.738058438250725 3.2466669134510955, -50.799145281592274 2.9329988836011567, -50.873033534631205 2.5535983205340753 M-50.873033534631205 2.5535983205340753 C-50.913132882535805 2.2425956966978586, -50.95323223044041 1.9315930728616415, -51.00419080718717 1.5363684145229202 M-50.873033534631205 2.5535983205340753 C-50.9073706831135 2.287286177542329, -50.941707831595785 2.020974034550583, -51.00419080718717 1.5363684145229202 M-51.00419080718717 1.5363684145229202 C-51.02273154759349 1.2475814168782795, -51.041272287999796 0.958794419233639, -51.069904459211 0.5128252411464846 M-51.00419080718717 1.5363684145229202 C-51.02657680263981 1.1876884656977587, -51.04896279809245 0.8390085168725973, -51.069904459211 0.5128252411464846 M-51.069904459211 0.5128252411464846 C-51.069904459211 0.18231802266890906, -51.069904459211 -0.14818919580866652, -51.069904459211 -0.5128252411464769 M-51.069904459211 0.5128252411464846 C-51.069904459211 0.2881762076316655, -51.069904459211 0.06352717411684644, -51.069904459211 -0.5128252411464769 M-51.069904459211 -0.5128252411464769 C-51.04982484288113 -0.8255814734588213, -51.029745226551256 -1.1383377057711657, -51.00419080718717 -1.5363684145228982 M-51.069904459211 -0.5128252411464769 C-51.05025182354119 -0.818930905025846, -51.030599187871374 -1.125036568905215, -51.00419080718717 -1.5363684145228982 M-51.00419080718717 -1.5363684145228982 C-50.97414863170973 -1.7693695950273565, -50.9441064562323 -2.0023707755318148, -50.873033534631205 -2.5535983205340678 M-51.00419080718717 -1.5363684145228982 C-50.95919265294941 -1.8853652129003378, -50.91419449871166 -2.2343620112777773, -50.873033534631205 -2.5535983205340678 M-50.873033534631205 -2.5535983205340678 C-50.81067045135212 -2.8738195727298503, -50.74830736807303 -3.194040824925633, -50.676971594909176 -3.5603349433010267 M-50.873033534631205 -2.5535983205340678 C-50.80102937373733 -2.9233244686393345, -50.729025212843446 -3.2930506167446008, -50.676971594909176 -3.5603349433010267 M-50.676971594909176 -3.5603349433010267 C-50.61324045205669 -3.8033694122496127, -50.5495093092042 -4.046403881198199, -50.416810648586576 -4.552441386096511 M-50.676971594909176 -3.5603349433010267 C-50.59349257288483 -3.8786766343168897, -50.51001355086048 -4.197018325332753, -50.416810648586576 -4.552441386096511 M-50.416810648586576 -4.552441386096511 C-50.29758958921984 -4.911516221612915, -50.17836852985311 -5.270591057129319, -50.09361975279617 -5.525840870740911 M-50.416810648586576 -4.552441386096511 C-50.34057039260117 -4.782064889889378, -50.26433013661577 -5.011688393682246, -50.09361975279617 -5.525840870740911 M-50.09361975279617 -5.525840870740911 C-49.97859902735168 -5.809944286363253, -49.86357830190719 -6.094047701985594, -49.708726968253 -6.476533489958299 M-50.09361975279617 -5.525840870740911 C-49.970848711495165 -5.829087716371008, -49.84807767019416 -6.132334562001105, -49.708726968253 -6.476533489958299 M-49.708726968253 -6.476533489958299 C-49.575169445339036 -6.753868543962355, -49.44161192242506 -7.031203597966412, -49.263713901968 -7.400612643853359 M-49.708726968253 -6.476533489958299 C-49.5580556886098 -6.789405625986345, -49.40738440896659 -7.10227776201439, -49.263713901968 -7.400612643853359 M-49.263713901968 -7.400612643853359 C-49.098115181318555 -7.694649941055249, -48.93251646066911 -7.98868723825714, -48.760409208085534 -8.294281092968404 M-49.263713901968 -7.400612643853359 C-49.09581409102151 -7.698735759888317, -48.927914280075015 -7.996858875923276, -48.760409208085534 -8.294281092968404 M-48.760409208085534 -8.294281092968404 C-48.54383791667211 -8.626992754113994, -48.32726662525868 -8.959704415259583, -48.200881073551294 -9.153866561954715 M-48.760409208085534 -8.294281092968404 C-48.57965059190393 -8.57197486790811, -48.398891975722314 -8.849668642847815, -48.200881073551294 -9.153866561954715 M-48.200881073551294 -9.153866561954715 C-47.99683389065569 -9.427271197954049, -47.79278670776009 -9.700675833953383, -47.58742871948848 -9.975836829739734 M-48.200881073551294 -9.153866561954715 C-48.062330131224535 -9.339512202422066, -47.92377918889777 -9.525157842889417, -47.58742871948848 -9.975836829739734 M-47.58742871948848 -9.975836829739734 C-47.422694189431844 -10.16934338240456, -47.25795965937522 -10.362849935069384, -46.922572953205055 -10.756814244181063 M-47.58742871948848 -9.975836829739734 C-47.43398158792194 -10.156084561866928, -47.2805344563554 -10.33633229399412, -46.922572953205055 -10.756814244181063 M-46.922572953205055 -10.756814244181063 C-46.64557538215575 -11.042836978212996, -46.36857781110644 -11.328859712244927, -46.20904580965579 -11.493589601563633 M-46.922572953205055 -10.756814244181063 C-46.70666380340228 -10.979758167823295, -46.4907546535995 -11.202702091465525, -46.20904580965579 -11.493589601563633 M-46.20904580965579 -11.493589601563633 C-46.0392663027289 -11.647778857635048, -45.869486795802 -11.801968113706462, -45.44977932492463 -12.18313533390614 M-46.20904580965579 -11.493589601563633 C-45.93916591875088 -11.738687377852855, -45.66928602784597 -11.983785154142078, -45.44977932492463 -12.18313533390614 M-45.44977932492463 -12.18313533390614 C-45.144767543621576 -12.426374112790946, -44.83975576231852 -12.66961289167575, -44.64789348785946 -12.822617949887302 M-45.44977932492463 -12.18313533390614 C-45.23422807428509 -12.35503172023149, -45.018676823645556 -12.526928106556841, -44.64789348785946 -12.822617949887302 M-44.64789348785946 -12.822617949887302 C-44.42487998000666 -12.978182518866262, -44.201866472153846 -13.133747087845222, -43.80668341936879 -13.409409678269444 M-44.64789348785946 -12.822617949887302 C-44.336552644376866 -13.039795844572872, -44.02521180089427 -13.25697373925844, -43.80668341936879 -13.409409678269444 M-43.80668341936879 -13.409409678269444 C-43.496220946855914 -13.597613853586752, -43.18575847434304 -13.785818028904059, -42.929605832063004 -13.941099265974229 M-43.80668341936879 -13.409409678269444 C-43.56821776329149 -13.553968960363244, -43.329752107214205 -13.698528242457044, -42.929605832063004 -13.941099265974229 M-42.929605832063004 -13.941099265974229 C-42.72405891650516 -14.048332960161675, -42.51851200094732 -14.15556665434912, -42.020264825880936 -14.415501886438705 M-42.929605832063004 -13.941099265974229 C-42.646576599673885 -14.088755435222758, -42.36354736728476 -14.23641160447129, -42.020264825880936 -14.415501886438705 M-42.020264825880936 -14.415501886438705 C-41.75369179422225 -14.53350585994598, -41.48711876256356 -14.651509833453254, -41.082397078069995 -14.830668117536344 M-42.020264825880936 -14.415501886438705 C-41.746187442878366 -14.536827813677242, -41.472110059875796 -14.65815374091578, -41.082397078069995 -14.830668117536344 M-41.082397078069995 -14.830668117536344 C-40.81507453657441 -14.929045283909206, -40.54775199507882 -15.027422450282069, -40.11985648837794 -15.184891952170695 M-41.082397078069995 -14.830668117536344 C-40.82067963388849 -14.926982556284674, -40.558962189706975 -15.023296995033004, -40.11985648837794 -15.184891952170695 M-40.11985648837794 -15.184891952170695 C-39.90489179495295 -15.248692344806528, -39.68992710152797 -15.312492737442364, -39.13659834255213 -15.476717808624466 M-40.11985648837794 -15.184891952170695 C-39.83284761227082 -15.270074680058956, -39.54583873616369 -15.355257407947217, -39.13659834255213 -15.476717808624466 M-39.13659834255213 -15.476717808624466 C-38.88200417383519 -15.534827266251893, -38.62741000511825 -15.59293672387932, -38.136663059221966 -15.704946511857043 M-39.13659834255213 -15.476717808624466 C-38.82862336404685 -15.547011087743744, -38.52064838554156 -15.617304366863022, -38.136663059221966 -15.704946511857043 M-38.136663059221966 -15.704946511857043 C-37.7747770150816 -15.76345344100547, -37.412890970941234 -15.8219603701539, -37.1241595869521 -15.868640221171937 M-38.136663059221966 -15.704946511857043 C-37.89219250927035 -15.74447061447579, -37.64772195931873 -15.783994717094538, -37.1241595869521 -15.868640221171937 M-37.1241595869521 -15.868640221171937 C-36.72423610642862 -15.907220358359682, -36.324312625905144 -15.945800495547427, -36.103248519691405 -15.967126284005381 M-37.1241595869521 -15.868640221171937 C-36.71912719188064 -15.907713209201757, -36.314094796809165 -15.94678619723158, -36.103248519691405 -15.967126284005381 M-36.103248519691405 -15.967126284005381 C-35.87349403568768 -15.974494063117408, -35.64373955168394 -15.981861842229433, -35.07812500000001 -16 M-36.103248519691405 -15.967126284005381 C-35.79211331625426 -15.977103784391677, -35.48097811281712 -15.98708128477797, -35.07812500000001 -16 M-35.07812500000001 -16 C-35.07812500000001 -16, -35.078125 -16, -35.078125 -16 M-35.07812500000001 -16 C-35.07812500000001 -16, -35.078125 -16, -35.078125 -16" stroke="#999" stroke-width="1.3" fill="none" stroke-dasharray="0 0" style=""/></g><g class="label" style="" transform="translate(0, -8.5)"><rect/><g><rect class="background" style="stroke: none"/><text y="-10.1" style=""><tspan class="text-outer-tspan row" x="0" y="-0.1em" dy="1.1em"><tspan font-style="normal" class="text-inner-tspan" font-weight="normal">Unos</tspan><tspan font-style="normal" class="text-inner-tspan" font-weight="normal"> ISBN</tspan></tspan></text></g></g></g><g class="node default" id="my-svg-flowchart-B-1" data-look="classic" transform="translate(193.2421875, 113.5)"><rect class="basic label-container" style="" x="-102.4609375" y="-23.5" width="204.921875" height="47"/><g class="label" style="" transform="translate(0, -8.5)"><rect/><g><rect class="background" style="stroke: none"/><text y="-10.1" style=""><tspan class="text-outer-tspan row" x="0" y="-0.1em" dy="1.1em"><tspan font-style="normal" class="text-inner-tspan" font-weight="normal">Normaliziraj</tspan><tspan font-style="normal" class="text-inner-tspan" font-weight="normal"> i</tspan><tspan font-style="normal" class="text-inner-tspan" font-weight="normal"> potvrdi</tspan></tspan></text></g></g></g><g class="node default" id="my-svg-flowchart-C-3" data-look="classic" transform="translate(193.2421875, 270.9367218017578)"><polygon points="83.93671798706055,0 167.8734359741211,-83.93671798706055 83.93671798706055,-167.8734359741211 0,-83.93671798706055" class="label-container" transform="translate(-83.43671798706055, 83.93671798706055)"/><g class="label" style="" transform="translate(0, -17.299999237060547)"><rect/><g><rect class="background" style="stroke: none"/><text y="-10.1" style=""><tspan class="text-outer-tspan row" x="0" y="-0.1em" dy="1.1em"><tspan font-style="normal" class="text-inner-tspan" font-weight="normal">Kontrolna</tspan><tspan font-style="normal" class="text-inner-tspan" font-weight="normal"> cifra</tspan></tspan><tspan class="text-outer-tspan row" x="0" y="1em" dy="1.1em"><tspan font-style="normal" class="text-inner-tspan" font-weight="normal">ispravna?</tspan></tspan></text></g></g></g><g class="node default" id="my-svg-flowchart-D-5" data-look="classic" transform="translate(266.65625, 990.8343887329102)"><rect class="basic label-container" style="fill:#ffebee !important;stroke:#c62828 !important" x="-115.4296875" y="-23.5" width="230.859375" height="47"/><g class="label" style="" transform="translate(0, -8.5)"><rect/><g><rect class="background" style="stroke: none"/><text y="-10.1" style=""><tspan class="text-outer-tspan row" x="0" y="-0.1em" dy="1.1em"><tspan font-style="normal" class="text-inner-tspan" font-weight="normal">Pokaži</tspan><tspan font-style="normal" class="text-inner-tspan" font-weight="normal"> grešku</tspan><tspan font-style="normal" class="text-inner-tspan" font-weight="normal"> validacije</tspan></tspan></text></g></g></g><g class="node default" id="my-svg-flowchart-E-7" data-look="classic" transform="translate(307.701171875, 1188.2547035217285)"><rect class="basic label-container" style="fill:#fff3e0 !important;stroke:#e65100 !important" x="-90.921875" y="-32.29999923706055" width="181.84375" height="64.5999984741211"/><g class="label" style="" transform="translate(0, -17.299999237060547)"><rect/><g><rect class="background" style="stroke: none"/><text y="-10.1" style=""><tspan class="text-outer-tspan row" x="0" y="-0.1em" dy="1.1em"><tspan font-style="normal" class="text-inner-tspan" font-weight="normal">Ručni</tspan><tspan font-style="normal" class="text-inner-tspan" font-weight="normal"> unos</tspan></tspan><tspan class="text-outer-tspan row" x="0" y="1em" dy="1.1em"><tspan font-style="normal" class="text-inner-tspan" font-weight="normal">(uvijek</tspan><tspan font-style="normal" class="text-inner-tspan" font-weight="normal"> dostupan)</tspan></tspan></text></g></g></g><g class="node default" id="my-svg-flowchart-F-9" data-look="classic" transform="translate(119.828125, 449.3734436035156)"><rect class="basic label-container" style="" x="-98.9296875" y="-23.5" width="197.859375" height="47"/><g class="label" style="" transform="translate(0, -8.5)"><rect/><g><rect class="background" style="stroke: none"/><text y="-10.1" style=""><tspan class="text-outer-tspan row" x="0" y="-0.1em" dy="1.1em"><tspan font-style="normal" class="text-inner-tspan" font-weight="normal">Upitaj</tspan><tspan font-style="normal" class="text-inner-tspan" font-weight="normal"> Open</tspan><tspan font-style="normal" class="text-inner-tspan" font-weight="normal"> Library</tspan></tspan></text></g></g></g><g class="node default" id="my-svg-flowchart-G-11" data-look="classic" transform="translate(119.828125, 616.9937591552734)"><polygon points="94.12031173706055,0 188.2406234741211,-94.12031173706055 94.12031173706055,-188.2406234741211 0,-94.12031173706055" class="label-container" transform="translate(-93.62031173706055, 94.12031173706055)"/><g class="label" style="" transform="translate(0, -17.299999237060547)"><rect/><g><rect class="background" style="stroke: none"/><text y="-10.1" style=""><tspan class="text-outer-tspan row" x="0" y="-0.1em" dy="1.1em"><tspan font-style="normal" class="text-inner-tspan" font-weight="normal">Pronađeni</tspan><tspan font-style="normal" class="text-inner-tspan" font-weight="normal"> korisni</tspan></tspan><tspan class="text-outer-tspan row" x="0" y="1em" dy="1.1em"><tspan font-style="normal" class="text-inner-tspan" font-weight="normal">metapodaci?</tspan></tspan></text></g></g></g><g class="node default" id="my-svg-flowchart-H-13" data-look="classic" transform="translate(119.828125, 814.4140739440918)"><rect class="basic label-container" style="fill:#e8f5e9 !important;stroke:#2e7d32 !important" x="-111.828125" y="-32.29999923706055" width="223.65625" height="64.5999984741211"/><g class="label" style="" transform="translate(0, -17.299999237060547)"><rect/><g><rect class="background" style="stroke: none"/><text y="-10.1" style=""><tspan class="text-outer-tspan row" x="0" y="-0.1em" dy="1.1em"><tspan font-style="normal" class="text-inner-tspan" font-weight="normal">Vrati</tspan><tspan font-style="normal" class="text-inner-tspan" font-weight="normal"> metapodatke</tspan></tspan><tspan class="text-outer-tspan row" x="0" y="1em" dy="1.1em"><tspan font-style="normal" class="text-inner-tspan" font-weight="normal">Pružatelj:</tspan><tspan font-style="normal" class="text-inner-tspan" font-weight="normal"> Open</tspan><tspan font-style="normal" class="text-inner-tspan" font-weight="normal"> Library</tspan></tspan></text></g></g></g><g class="node default" id="my-svg-flowchart-I-15" data-look="classic" transform="translate(565.8550796508789, 814.4140739440918)"><rect class="basic label-container" style="" x="-101.1640625" y="-32.29999923706055" width="202.328125" height="64.5999984741211"/><g class="label" style="" transform="translate(0, -17.299999237060547)"><rect/><g><rect class="background" style="stroke: none"/><text y="-10.1" style=""><tspan class="text-outer-tspan row" x="0" y="-0.1em" dy="1.1em"><tspan font-style="normal" class="text-inner-tspan" font-weight="normal">Upitaj</tspan><tspan font-style="normal" class="text-inner-tspan" font-weight="normal"> Let</tspan><tspan font-style="normal" class="text-inner-tspan" font-weight="normal"> Books</tspan></tspan><tspan class="text-outer-tspan row" x="0" y="1em" dy="1.1em"><tspan font-style="normal" class="text-inner-tspan" font-weight="normal">metapodatkovni</tspan><tspan font-style="normal" class="text-inner-tspan" font-weight="normal"> API</tspan></tspan></text></g></g></g><g class="node default" id="my-svg-flowchart-J-17" data-look="classic" transform="translate(565.8550796508789, 990.8343887329102)"><polygon points="94.12031173706055,0 188.2406234741211,-94.12031173706055 94.12031173706055,-188.2406234741211 0,-94.12031173706055" class="label-container" transform="translate(-93.62031173706055, 94.12031173706055)"/><g class="label" style="" transform="translate(0, -17.299999237060547)"><rect/><g><rect class="background" style="stroke: none"/><text y="-10.1" style=""><tspan class="text-outer-tspan row" x="0" y="-0.1em" dy="1.1em"><tspan font-style="normal" class="text-inner-tspan" font-weight="normal">Pronađeni</tspan><tspan font-style="normal" class="text-inner-tspan" font-weight="normal"> korisni</tspan></tspan><tspan class="text-outer-tspan row" x="0" y="1em" dy="1.1em"><tspan font-style="normal" class="text-inner-tspan" font-weight="normal">metapodaci?</tspan></tspan></text></g></g></g><g class="node default" id="my-svg-flowchart-K-19" data-look="classic" transform="translate(613.0386734008789, 1188.2547035217285)"><rect class="basic label-container" style="fill:#e8f5e9 !important;stroke:#2e7d32 !important" x="-115.8359375" y="-32.29999923706055" width="231.671875" height="64.5999984741211"/><g class="label" style="" transform="translate(0, -17.299999237060547)"><rect/><g><rect class="background" style="stroke: none"/><text y="-10.1" style=""><tspan class="text-outer-tspan row" x="0" y="-0.1em" dy="1.1em"><tspan font-style="normal" class="text-inner-tspan" font-weight="normal">Vrati</tspan><tspan font-style="normal" class="text-inner-tspan" font-weight="normal"> metapodatke</tspan></tspan><tspan class="text-outer-tspan row" x="0" y="1em" dy="1.1em"><tspan font-style="normal" class="text-inner-tspan" font-weight="normal">Pružatelj:</tspan><tspan font-style="normal" class="text-inner-tspan" font-weight="normal"> Let</tspan><tspan font-style="normal" class="text-inner-tspan" font-weight="normal"> Books</tspan><tspan font-style="normal" class="text-inner-tspan" font-weight="normal"> API</tspan></tspan></text></g></g></g></g></g></g><defs><filter id="my-svg-drop-shadow" height="130%" width="130%"><feDropShadow dx="4" dy="4" stdDeviation="0" flood-opacity="0.06" flood-color="#000000"/></filter></defs><defs><filter id="my-svg-drop-shadow-small" height="150%" width="150%"><feDropShadow dx="2" dy="2" stdDeviation="0" flood-opacity="0.06" flood-color="#000000"/></filter></defs><linearGradient id="my-svg-gradient" gradientUnits="objectBoundingBox" x1="0%" y1="0%" x2="100%" y2="0%"><stop offset="0%" stop-color="hsl(0, 0%, 83.3333333333%)" stop-opacity="1"/><stop offset="100%" stop-color="hsl(0, 0%, 88.9215686275%)" stop-opacity="1"/></linearGradient><text text-anchor="middle" x="368.43731689453125" y="-25" class="flowchartTitleText">Lanac pretraživanja metapodataka ISBN</text></svg>