<svg id="my-svg" width="100%" xmlns="http://www.w3.org/2000/svg" xmlns:xlink="http://www.w3.org/1999/xlink" class="flowchart" style="max-width: 779.355px; background-color: transparent;" viewBox="0.5000076293945312 -49 779.35546875 1361.8436279296875" role="graphics-document document" aria-roledescription="flowchart-v2"><style>#my-svg{font-family:"trebuchet ms",verdana,arial,sans-serif;font-size:16px;fill:#000000;}@keyframes edge-animation-frame{from{stroke-dashoffset:0;}}@keyframes dash{to{stroke-dashoffset:0;}}#my-svg .edge-animation-slow{stroke-dasharray:9,5!important;stroke-dashoffset:900;animation:dash 50s linear infinite;stroke-linecap:round;}#my-svg .edge-animation-fast{stroke-dasharray:9,5!important;stroke-dashoffset:900;animation:dash 20s linear infinite;stroke-linecap:round;}#my-svg .error-icon{fill:#552222;}#my-svg .error-text{fill:#552222;stroke:#552222;}#my-svg .edge-thickness-normal{stroke-width:1px;}#my-svg .edge-thickness-thick{stroke-width:3.5px;}#my-svg .edge-pattern-solid{stroke-dasharray:0;}#my-svg .edge-thickness-invisible{stroke-width:0;fill:none;}#my-svg .edge-pattern-dashed{stroke-dasharray:3;}#my-svg .edge-pattern-dotted{stroke-dasharray:2;}#my-svg .marker{fill:#666;stroke:#666;}#my-svg .marker.cross{stroke:#666;}#my-svg svg{font-family:"trebuchet ms",verdana,arial,sans-serif;font-size:16px;}#my-svg p{margin:0;}#my-svg .label{font-family:"trebuchet ms",verdana,arial,sans-serif;color:#000000;}#my-svg .cluster-label text{fill:#333;}#my-svg .cluster-label span{color:#333;}#my-svg .cluster-label span p{background-color:transparent;}#my-svg .label text,#my-svg span{fill:#000000;color:#000000;}#my-svg .node rect,#my-svg .node circle,#my-svg .node ellipse,#my-svg .node polygon,#my-svg .node path{fill:#eee;stroke:#999;stroke-width:1px;}#my-svg .rough-node .label text,#my-svg .node .label text,#my-svg .image-shape .label,#my-svg .icon-shape .label{text-anchor:middle;}#my-svg .node .katex path{fill:#000;stroke:#000;stroke-width:1px;}#my-svg .rough-node .label,#my-svg .node .label,#my-svg .image-shape .label,#my-svg .icon-shape .label{text-align:center;}#my-svg .node.clickable{cursor:pointer;}#my-svg .root .anchor path{fill:#666!important;stroke-width:0;stroke:#666;}#my-svg .arrowheadPath{fill:#333333;}#my-svg .edgePath .path{stroke:#666;stroke-width:1px;}#my-svg .flowchart-link{stroke:#666;fill:none;}#my-svg .edgeLabel{background-color:white;text-align:center;}#my-svg .edgeLabel p{background-color:white;}#my-svg .edgeLabel rect{opacity:0.5;background-color:white;fill:white;}#my-svg .labelBkg{background-color:rgba(255, 255, 255, 0.5);}#my-svg .cluster rect{fill:hsl(0, 0%, 98.9215686275%);stroke:#707070;stroke-width:1px;}#my-svg .cluster text{fill:#333;}#my-svg .cluster span{color:#333;}#my-svg div.mermaidTooltip{position:absolute;text-align:center;max-width:200px;padding:2px;font-family:"trebuchet ms",verdana,arial,sans-serif;font-size:12px;background:hsl(-160, 0%, 93.3333333333%);border:1px solid #707070;border-radius:2px;pointer-events:none;z-index:100;}#my-svg .flowchartTitleText{text-anchor:middle;font-size:18px;fill:#000000;}#my-svg rect.text{fill:none;stroke-width:0;}#my-svg .icon-shape,#my-svg .image-shape{background-color:white;text-align:center;}#my-svg .icon-shape p,#my-svg .image-shape p{background-color:white;padding:2px;}#my-svg .icon-shape .label rect,#my-svg .image-shape .label rect{opacity:0.5;background-color:white;fill:white;}#my-svg .label-icon{display:inline-block;height:1em;overflow:visible;vertical-align:-0.125em;}#my-svg .node .label-icon path{fill:currentColor;stroke:revert;stroke-width:revert;}#my-svg .node .neo-node{stroke:#999;}#my-svg [data-look="neo"].node rect,#my-svg [data-look="neo"].cluster rect,#my-svg [data-look="neo"].node polygon{stroke:url(#my-svg-gradient);filter:drop-shadow( 1px 2px 2px rgba(185,185,185,1));}#my-svg [data-look="neo"].node path{stroke:url(#my-svg-gradient);stroke-width:1px;}#my-svg [data-look="neo"].node .outer-path{filter:drop-shadow( 1px 2px 2px rgba(185,185,185,1));}#my-svg [data-look="neo"].node .neo-line path{stroke:#999;filter:none;}#my-svg [data-look="neo"].node circle{stroke:url(#my-svg-gradient);filter:drop-shadow( 1px 2px 2px rgba(185,185,185,1));}#my-svg [data-look="neo"].node circle .state-start{fill:#000000;}#my-svg [data-look="neo"].icon-shape .icon{fill:url(#my-svg-gradient);filter:drop-shadow( 1px 2px 2px rgba(185,185,185,1));}#my-svg [data-look="neo"].icon-shape .icon-neo path{stroke:url(#my-svg-gradient);filter:drop-shadow( 1px 2px 2px rgba(185,185,185,1));}#my-svg :root{--mermaid-font-family:"trebuchet ms",verdana,arial,sans-serif;}</style><g><marker id="my-svg_flowchart-v2-pointEnd" class="marker flowchart-v2" viewBox="0 0 10 10" refX="5" refY="5" markerUnits="userSpaceOnUse" markerWidth="8" markerHeight="8" orient="auto"><path d="M 0 0 L 10 5 L 0 10 z" class="arrowMarkerPath" style="stroke-width: 1; stroke-dasharray: 1, 0;"/></marker><marker id="my-svg_flowchart-v2-pointStart" class="marker flowchart-v2" viewBox="0 0 10 10" refX="4.5" refY="5" markerUnits="userSpaceOnUse" markerWidth="8" markerHeight="8" orient="auto"><path d="M 0 5 L 10 10 L 10 0 z" class="arrowMarkerPath" style="stroke-width: 1; stroke-dasharray: 1, 0;"/></marker><marker id="my-svg_flowchart-v2-pointEnd-margin" class="marker flowchart-v2" viewBox="0 0 11.5 14" refX="11.5" refY="7" markerUnits="userSpaceOnUse" markerWidth="10.5" markerHeight="14" orient="auto"><path d="M 0 0 L 11.5 7 L 0 14 z" class="arrowMarkerPath" style="stroke-width: 0; stroke-dasharray: 1, 0;"/></marker><marker id="my-svg_flowchart-v2-pointStart-margin" class="marker flowchart-v2" viewBox="0 0 11.5 14" refX="1" refY="7" markerUnits="userSpaceOnUse" markerWidth="11.5" markerHeight="14" orient="auto"><polygon points="0,7 11.5,14 11.5,0" class="arrowMarkerPath" style="stroke-width: 0; stroke-dasharray: 1, 0;"/></marker><marker id="my-svg_flowchart-v2-circleEnd" class="marker flowchart-v2" viewBox="0 0 10 10" refX="11" refY="5" markerUnits="userSpaceOnUse" markerWidth="11" markerHeight="11" orient="auto"><circle cx="5" cy="5" r="5" class="arrowMarkerPath" style="stroke-width: 1; stroke-dasharray: 1, 0;"/></marker><marker id="my-svg_flowchart-v2-circleStart" class="marker flowchart-v2" viewBox="0 0 10 10" refX="-1" refY="5" markerUnits="userSpaceOnUse" markerWidth="11" markerHeight="11" orient="auto"><circle cx="5" cy="5" r="5" class="arrowMarkerPath" style="stroke-width: 1; stroke-dasharray: 1, 0;"/></marker><marker id="my-svg_flowchart-v2-circleEnd-margin" class="marker flowchart-v2" viewBox="0 0 10 10" refY="5" refX="12.25" markerUnits="userSpaceOnUse" markerWidth="14" markerHeight="14" orient="auto"><circle cx="5" cy="5" r="5" class="arrowMarkerPath" style="stroke-width: 0; stroke-dasharray: 1, 0;"/></marker><marker id="my-svg_flowchart-v2-circleStart-margin" class="marker flowchart-v2" viewBox="0 0 10 10" refX="-2" refY="5" markerUnits="userSpaceOnUse" markerWidth="14" markerHeight="14" orient="auto"><circle cx="5" cy="5" r="5" class="arrowMarkerPath" style="stroke-width: 0; stroke-dasharray: 1, 0;"/></marker><marker id="my-svg_flowchart-v2-crossEnd" class="marker cross flowchart-v2" viewBox="0 0 11 11" refX="12" refY="5.2" markerUnits="userSpaceOnUse" markerWidth="11" markerHeight="11" orient="auto"><path d="M 1,1 l 9,9 M 10,1 l -9,9" class="arrowMarkerPath" style="stroke-width: 2; stroke-dasharray: 1, 0;"/></marker><marker id="my-svg_flowchart-v2-crossStart" class="marker cross flowchart-v2" viewBox="0 0 11 11" refX="-1" refY="5.2" markerUnits="userSpaceOnUse" markerWidth="11" markerHeight="11" orient="auto"><path d="M 1,1 l 9,9 M 10,1 l -9,9" class="arrowMarkerPath" style="stroke-width: 2; stroke-dasharray: 1, 0;"/></marker><marker id="my-svg_flowchart-v2-crossEnd-margin" class="marker cross flowchart-v2" viewBox="0 0 15 15" refX="17.7" refY="7.5" markerUnits="userSpaceOnUse" markerWidth="12" markerHeight="12" orient="auto"><path d="M 1,1 L 14,14 M 1,14 L 14,1" class="arrowMarkerPath" style="stroke-width: 2.5;"/></marker><marker id="my-svg_flowchart-v2-crossStart-margin" class="marker cross flowchart-v2" viewBox="0 0 15 15" refX="-3.5" refY="7.5" markerUnits="userSpaceOnUse" markerWidth="12" markerHeight="12" orient="auto"><path d="M 1,1 L 14,14 M 1,14 L 14,1" class="arrowMarkerPath" style="stroke-width: 2.5; stroke-dasharray: 1, 0;"/></marker><g class="root"><g class="clusters"/><g class="edgePaths"><path d="M197.872,40.5L197.789,44.583C197.705,48.667,197.539,56.833,197.455,64.417C197.372,72,197.372,79,197.372,82.5L197.372,86" id="my-svg-L_A_B_0" class="edge-thickness-normal edge-pattern-solid edge-thickness-normal edge-pattern-solid flowchart-link" style=";" data-edge="true" data-et="edge" data-id="L_A_B_0" data-points="W3sieCI6MTk3Ljg3MTg3OTU3NzYzNjcyLCJ5Ijo0MC41MDAwMDAwMDAwMDAwMTR9LHsieCI6MTk3LjM3MTg3OTU3NzYzNjcyLCJ5Ijo2NX0seyJ4IjoxOTcuMzcxODc5NTc3NjM2NzIsInkiOjkwfV0=" data-look="classic" marker-end="url(#my-svg_flowchart-v2-pointEnd)"/><path d="M197.372,137L197.372,141.167C197.372,145.333,197.372,153.667,197.372,161.333C197.372,169,197.372,176,197.372,179.5L197.372,183" id="my-svg-L_B_C_0" class="edge-thickness-normal edge-pattern-solid edge-thickness-normal edge-pattern-solid flowchart-link" style=";" data-edge="true" data-et="edge" data-id="L_B_C_0" data-points="W3sieCI6MTk3LjM3MTg3OTU3NzYzNjcyLCJ5IjoxMzd9LHsieCI6MTk3LjM3MTg3OTU3NzYzNjcyLCJ5IjoxNjJ9LHsieCI6MTk3LjM3MTg3OTU3NzYzNjcyLCJ5IjoxODYuOTk5OTk5OTk5OTk5OTd9XQ==" data-look="classic" marker-end="url(#my-svg_flowchart-v2-pointEnd)"/><path d="M232.406,336.285L239.615,348.041C246.825,359.796,261.244,383.307,268.453,404.896C275.663,426.485,275.663,446.152,275.663,464.069C275.663,481.985,275.663,498.152,275.663,528.916C275.663,559.679,275.663,605.04,275.663,652.15C275.663,699.26,275.663,748.121,275.663,783.851C275.663,819.581,275.663,842.181,275.663,863.031C275.663,883.881,275.663,902.981,275.663,930.628C275.663,958.275,275.663,994.469,275.663,1012.566L275.663,1030.662" id="my-svg-L_C_D_0" class="edge-thickness-normal edge-pattern-solid edge-thickness-normal edge-pattern-solid flowchart-link" style=";" data-edge="true" data-et="edge" data-id="L_C_D_0" data-points="W3sieCI6MjMyLjQwNTY5ODI1OTQxNDM4LCJ5IjozMzYuMjg0OTIyMTYyOTQ4OTN9LHsieCI6Mjc1LjY2MjUwNjEwMzUxNTYsInkiOjQwNi44MTg3NDA4NDQ3MjY1Nn0seyJ4IjoyNzUuNjYyNTA2MTAzNTE1NiwieSI6NDY1LjgxODc0MDg0NDcyNjU2fSx7IngiOjI3NS42NjI1MDYxMDM1MTU2LCJ5Ijo1MTQuMzE4NzQwODQ0NzI2Nn0seyJ4IjoyNzUuNjYyNTA2MTAzNTE1NiwieSI6NjUwLjM5OTk5Mzg5NjQ4NDR9LHsieCI6Mjc1LjY2MjUwNjEwMzUxNTYsInkiOjc5Ni45ODEyNDY5NDgyNDIyfSx7IngiOjI3NS42NjI1MDYxMDM1MTU2LCJ5Ijo4NjQuNzgxMjQ2MTg1MzAyN30seyJ4IjoyNzUuNjYyNTA2MTAzNTE1NiwieSI6OTIyLjA4MTI0NTQyMjM2MzN9LHsieCI6Mjc1LjY2MjUwNjEwMzUxNTYsInkiOjEwMzQuNjYyNDk4NDc0MTIxfV0=" data-look="classic" marker-end="url(#my-svg_flowchart-v2-pointEnd)"/><path d="M275.663,1081.662L275.663,1102.176C275.663,1122.69,275.663,1163.717,279.861,1189.621C284.059,1215.525,292.456,1226.307,296.655,1231.697L300.853,1237.088" id="my-svg-L_D_E_0" class="edge-thickness-normal edge-pattern-solid edge-thickness-normal edge-pattern-solid flowchart-link" style=";" data-edge="true" data-et="edge" data-id="L_D_E_0" data-points="W3sieCI6Mjc1LjY2MjUwNjEwMzUxNTYsInkiOjEwODEuNjYyNDk4NDc0MTIxfSx7IngiOjI3NS42NjI1MDYxMDM1MTU2LCJ5IjoxMjA0Ljc0Mzc1MTUyNTg3OX0seyJ4IjozMDMuMzEwOTc4NDgzMjIyMjQsInkiOjEyNDAuMjQzNzUxNTI1ODc5fV0=" data-look="classic" marker-end="url(#my-svg_flowchart-v2-pointEnd)"/><path d="M162.338,336.285L155.129,348.041C147.919,359.796,133.5,383.307,126.291,400.313C119.081,417.319,119.081,427.819,119.081,433.069L119.081,438.319" id="my-svg-L_C_F_0" class="edge-thickness-normal edge-pattern-solid edge-thickness-normal edge-pattern-solid flowchart-link" style=";" data-edge="true" data-et="edge" data-id="L_C_F_0" data-points="W3sieCI6MTYyLjMzODA2MDg5NTg1OTA2LCJ5IjozMzYuMjg0OTIyMTYyOTQ4OTN9LHsieCI6MTE5LjA4MTI1MzA1MTc1NzgxLCJ5Ijo0MDYuODE4NzQwODQ0NzI2NTZ9LHsieCI6MTE5LjA4MTI1MzA1MTc1NzgxLCJ5Ijo0NDIuMzE4NzQwODQ0NzI2NTZ9XQ==" data-look="classic" marker-end="url(#my-svg_flowchart-v2-pointEnd)"/><path d="M119.081,489.319L119.081,493.485C119.081,497.652,119.081,505.985,119.081,513.652C119.081,521.319,119.081,528.319,119.081,531.819L119.081,535.319" id="my-svg-L_F_G_0" class="edge-thickness-normal edge-pattern-solid edge-thickness-normal edge-pattern-solid flowchart-link" style=";" data-edge="true" data-et="edge" data-id="L_F_G_0" data-points="W3sieCI6MTE5LjA4MTI1MzA1MTc1NzgxLCJ5Ijo0ODkuMzE4NzQwODQ0NzI2NTZ9LHsieCI6MTE5LjA4MTI1MzA1MTc1NzgxLCJ5Ijo1MTQuMzE4NzQwODQ0NzI2Nn0seyJ4IjoxMTkuMDgxMjUzMDUxNzU3ODEsInkiOjUzOS4zMTg3NDA4NDQ3MjY2fV0=" data-look="classic" marker-end="url(#my-svg_flowchart-v2-pointEnd)"/><path d="M119.081,761.481L119.081,767.398C119.081,773.315,119.081,785.148,119.081,796.315C119.081,807.481,119.081,817.981,119.081,823.231L119.081,828.481" id="my-svg-L_G_H_0" class="edge-thickness-normal edge-pattern-solid edge-thickness-normal edge-pattern-solid flowchart-link" style=";" data-edge="true" data-et="edge" data-id="L_G_H_0" data-points="W3sieCI6MTE5LjA4MTI1MzA1MTc1NzgxLCJ5Ijo3NjEuNDgxMjQ2OTQ4MjQyM30seyJ4IjoxMTkuMDgxMjUzMDUxNzU3ODEsInkiOjc5Ni45ODEyNDY5NDgyNDIyfSx7IngiOjExOS4wODEyNTMwNTE3NTc4MSwieSI6ODMyLjQ4MTI0Njk0ODI0MjJ9XQ==" data-look="classic" marker-end="url(#my-svg_flowchart-v2-pointEnd)"/><path d="M204.396,676.167L271.065,696.303C337.735,716.438,471.075,756.71,537.744,782.096C604.414,807.481,604.414,817.981,604.414,823.231L604.414,828.481" id="my-svg-L_G_I_0" class="edge-thickness-normal edge-pattern-solid edge-thickness-normal edge-pattern-solid flowchart-link" style=";" data-edge="true" data-et="edge" data-id="L_G_I_0" data-points="W3sieCI6MjA0LjM5NTY2NTI3NDEwOTgsInkiOjY3Ni4xNjY4MzQ3MjU4OTAyfSx7IngiOjYwNC40MTQwNzAxMjkzOTQ1LCJ5Ijo3OTYuOTgxMjQ2OTQ4MjQyMn0seyJ4Ijo2MDQuNDE0MDcwMTI5Mzk0NSwieSI6ODMyLjQ4MTI0Njk0ODI0MjJ9XQ==" data-look="classic" marker-end="url(#my-svg_flowchart-v2-pointEnd)"/><path d="M604.414,897.081L604.414,901.248C604.414,905.415,604.414,913.748,604.414,921.415C604.414,929.081,604.414,936.081,604.414,939.581L604.414,943.081" id="my-svg-L_I_J_0" class="edge-thickness-normal edge-pattern-solid edge-thickness-normal edge-pattern-solid flowchart-link" style=";" data-edge="true" data-et="edge" data-id="L_I_J_0" data-points="W3sieCI6NjA0LjQxNDA3MDEyOTM5NDUsInkiOjg5Ny4wODEyNDU0MjIzNjMzfSx7IngiOjYwNC40MTQwNzAxMjkzOTQ1LCJ5Ijo5MjIuMDgxMjQ1NDIyMzYzM30seyJ4Ijo2MDQuNDE0MDcwMTI5Mzk1NCwieSI6OTQ3LjA4MTI0NTQyMjM2NDJ9XQ==" data-look="classic" marker-end="url(#my-svg_flowchart-v2-pointEnd)"/><path d="M636.186,1137.471L640.678,1148.683C645.17,1159.896,654.153,1182.32,658.645,1198.782C663.137,1215.244,663.137,1225.744,663.137,1230.994L663.137,1236.244" id="my-svg-L_J_K_0" class="edge-thickness-normal edge-pattern-solid edge-thickness-normal edge-pattern-solid flowchart-link" style=";" data-edge="true" data-et="edge" data-id="L_J_K_0" data-points="W3sieCI6NjM2LjE4NjQxMzE5MzY5NTMsInkiOjExMzcuNDcxNDA4NDYxNTc4Mn0seyJ4Ijo2NjMuMTM2NzI2Mzc5Mzk0NSwieSI6MTIwNC43NDM3NTE1MjU4Nzl9LHsieCI6NjYzLjEzNjcyNjM3OTM5NDUsInkiOjEyNDAuMjQzNzUxNTI1ODc5fV0=" data-look="classic" marker-end="url(#my-svg_flowchart-v2-pointEnd)"/><path d="M549.464,1114.294L534.706,1129.369C519.949,1144.444,490.433,1174.594,464.711,1195.282C438.988,1215.97,417.058,1227.195,406.093,1232.808L395.128,1238.421" id="my-svg-L_J_E_0" class="edge-thickness-normal edge-pattern-solid edge-thickness-normal edge-pattern-solid flowchart-link" style=";" data-edge="true" data-et="edge" data-id="L_J_E_0" data-points="W3sieCI6NTQ5LjQ2NDE1MzkxNzMwMjUsInkiOjExMTQuMjkzODM1MzEzNzg3fSx7IngiOjQ2MC45MTc5NzYzNzkzOTQ1MywieSI6MTIwNC43NDM3NTE1MjU4Nzl9LHsieCI6MzkxLjU2NjkwMjAyMTY2MDQ0LCJ5IjoxMjQwLjI0Mzc1MTUyNTg3OX1d" data-look="classic" marker-end="url(#my-svg_flowchart-v2-pointEnd)"/></g><g class="edgeLabels"><g class="edgeLabel"><g class="label" data-id="L_A_B_0" transform="translate(0, 0)"><text y="-10.1" text-anchor="middle"><tspan class="text-outer-tspan row" x="0" y="-0.1em" dy="1.1em" text-anchor="middle"/></text></g></g><g><rect class="background" style="stroke: none"/></g><g class="edgeLabel"><g class="label" data-id="L_B_C_0" transform="translate(0, 0)"><text y="-10.1" text-anchor="middle"><tspan class="text-outer-tspan row" x="0" y="-0.1em" dy="1.1em" text-anchor="middle"/></text></g></g><g><rect class="background" style="stroke: none"/></g><g class="edgeLabel" transform="translate(275.6625061035156, 650.3999938964844)"><g class="label" data-id="L_C_D_0" transform="translate(-0.046875, -10.5)"><g><rect class="background" style="" x="-10.453125" y="0" width="21" height="21"/><text y="-10.1" text-anchor="middle" style=""><tspan class="text-outer-tspan row" x="0" y="-0.1em" dy="1.1em" text-anchor="middle"><tspan font-style="normal" class="text-inner-tspan" font-weight="normal">Jo</tspan></tspan></text></g></g></g><g class="edgeLabel"><g class="label" data-id="L_D_E_0" transform="translate(0, 0)"><text y="-10.1" text-anchor="middle"><tspan class="text-outer-tspan row" x="0" y="-0.1em" dy="1.1em" text-anchor="middle"/></text></g></g><g><rect class="background" style="stroke: none"/></g><g class="edgeLabel" transform="translate(119.08125305175781, 406.81874084472656)"><g class="label" data-id="L_C_F_0" transform="translate(-0.046875, -10.5)"><g><rect class="background" style="" x="-11.7890625" y="0" width="23.671875" height="21"/><text y="-10.1" text-anchor="middle" style=""><tspan class="text-outer-tspan row" x="0" y="-0.1em" dy="1.1em" text-anchor="middle"><tspan font-style="normal" class="text-inner-tspan" font-weight="normal">Po</tspan></tspan></text></g></g></g><g class="edgeLabel"><g class="label" data-id="L_F_G_0" transform="translate(0, 0)"><text y="-10.1" text-anchor="middle"><tspan class="text-outer-tspan row" x="0" y="-0.1em" dy="1.1em" text-anchor="middle"/></text></g></g><g><rect class="background" style="stroke: none"/></g><g class="edgeLabel" transform="translate(119.08125305175781, 796.9812469482422)"><g class="label" data-id="L_G_H_0" transform="translate(-0.046875, -10.5)"><g><rect class="background" style="" x="-11.7890625" y="0" width="23.671875" height="21"/><text y="-10.1" text-anchor="middle" style=""><tspan class="text-outer-tspan row" x="0" y="-0.1em" dy="1.1em" text-anchor="middle"><tspan font-style="normal" class="text-inner-tspan" font-weight="normal">Po</tspan></tspan></text></g></g></g><g class="edgeLabel" transform="translate(604.4140701293945, 796.9812469482422)"><g class="label" data-id="L_G_I_0" transform="translate(0, -10.5)"><g><rect class="background" style="" x="-85.609375" y="0" width="171.21875" height="21"/><text y="-10.1" text-anchor="middle" style=""><tspan class="text-outer-tspan row" x="0" y="-0.1em" dy="1.1em" text-anchor="middle"><tspan font-style="normal" class="text-inner-tspan" font-weight="normal">Jo</tspan><tspan font-style="normal" class="text-inner-tspan" font-weight="normal"> /</tspan><tspan font-style="normal" class="text-inner-tspan" font-weight="normal"> Pa</tspan><tspan font-style="normal" class="text-inner-tspan" font-weight="normal"> disponueshmëri</tspan></tspan></text></g></g></g><g class="edgeLabel"><g class="label" data-id="L_I_J_0" transform="translate(0, 0)"><text y="-10.1" text-anchor="middle"><tspan class="text-outer-tspan row" x="0" y="-0.1em" dy="1.1em" text-anchor="middle"/></text></g></g><g><rect class="background" style="stroke: none"/></g><g class="edgeLabel" transform="translate(663.1367263793945, 1204.743751525879)"><g class="label" data-id="L_J_K_0" transform="translate(-0.046875, -10.5)"><g><rect class="background" style="" x="-11.7890625" y="0" width="23.671875" height="21"/><text y="-10.1" text-anchor="middle" style=""><tspan class="text-outer-tspan row" x="0" y="-0.1em" dy="1.1em" text-anchor="middle"><tspan font-style="normal" class="text-inner-tspan" font-weight="normal">Po</tspan></tspan></text></g></g></g><g class="edgeLabel" transform="translate(477.94055, 1187.35519)"><g class="label" data-id="L_J_E_0" transform="translate(0, -10.5)"><g><rect class="background" style="" x="-85.609375" y="0" width="171.21875" height="21"/><text y="-10.1" text-anchor="middle" style=""><tspan class="text-outer-tspan row" x="0" y="-0.1em" dy="1.1em" text-anchor="middle"><tspan font-style="normal" class="text-inner-tspan" font-weight="normal">Jo</tspan><tspan font-style="normal" class="text-inner-tspan" font-weight="normal"> /</tspan><tspan font-style="normal" class="text-inner-tspan" font-weight="normal"> Pa</tspan><tspan font-style="normal" class="text-inner-tspan" font-weight="normal"> disponueshmëri</tspan></tspan></text></g></g></g></g><g class="nodes"><g class="node default" id="my-svg-flowchart-A-0" data-look="classic" transform="translate(197.37187957763672, 24)"><g class="basic label-container outer-path"><path d="M-36.73828125 -16 C-8.30388225065608 -16, 20.13051674868784 -16, 36.73828125 -16 C36.73828125 -16, 36.73828125 -16, 36.73828125 -16 C37.09972551361086 -15.988409185974579, 37.46116977722173 -15.97681837194916, 37.763404769691405 -15.967126284005381 C38.081626069200176 -15.936427857958876, 38.399847368708954 -15.905729431912372, 38.784315836952096 -15.868640221171939 C39.12252523597745 -15.813961148390582, 39.460734635002794 -15.759282075609224, 39.79681930922195 -15.704946511857047 C40.16056040622188 -15.6219249800993, 40.52430150322181 -15.53890344834155, 40.79675459255211 -15.476717808624471 C41.10034475914689 -15.386613840756445, 41.40393492574167 -15.296509872888418, 41.780012738377934 -15.184891952170698 C41.98270861614998 -15.11029799545043, 42.18540449392202 -15.035704038730165, 42.74255332806999 -14.830668117536348 C43.034439586772066 -14.701458729307166, 43.32632584547414 -14.572249341077987, 43.68042107588093 -14.415501886438706 C43.93479262255956 -14.282796413469214, 44.189164169238204 -14.150090940499721, 44.589762082063004 -13.941099265974232 C44.93978232529906 -13.728914937577265, 45.28980256853512 -13.516730609180298, 45.46683966936878 -13.409409678269451 C45.75897152518844 -13.205631141833871, 46.051103381008105 -13.001852605398291, 46.308049737859456 -12.822617949887306 C46.57024139925745 -12.61352707713554, 46.83243306065544 -12.404436204383774, 47.10993557492461 -12.183135333906153 C47.33279353361236 -11.980741632324412, 47.5556514923001 -11.77834793074267, 47.869202059655784 -11.493589601563642 C48.119144922802555 -11.235503074673906, 48.369087785949326 -10.977416547784168, 48.58272920320505 -10.756814244181072 C48.84475586142832 -10.449022821692795, 49.10678251965158 -10.141231399204518, 49.24758496948848 -9.975836829739738 C49.370537417958246 -9.811091749988737, 49.49348986642801 -9.646346670237737, 49.86103732355129 -9.153866561954718 C50.06167620071467 -8.845631367549457, 50.26231507787806 -8.537396173144193, 50.420565458085534 -8.294281092968403 C50.616377267236594 -7.946597397724942, 50.812189076387654 -7.598913702481481, 50.923870151968 -7.400612643853364 C51.03195773733011 -7.176166460145103, 51.140045322692224 -6.951720276436841, 51.368883218252996 -6.476533489958305 C51.4698041759088 -6.227256773374497, 51.5707251335646 -5.977980056790689, 51.753776002796165 -5.52584087074093 C51.833622922859576 -5.285354669388989, 51.913469842922986 -5.044868468037048, 52.07696689858657 -4.552441386096524 C52.131082537205884 -4.3460750021749375, 52.1851981758252 -4.1397086182533505, 52.337127844909176 -3.560334943301032 C52.410265841043454 -3.184786790872468, 52.48340383717774 -2.8092386384439036, 52.533189784631205 -2.5535983205340735 C52.57104533188563 -2.2599981714521094, 52.608900879140045 -1.9663980223701456, 52.66434705718717 -1.536368414522911 C52.683549736711775 -1.237271180803267, 52.70275241623638 -0.938173947083623, 52.730060709211 -0.5128252411464826 C52.730060709211 -0.23850072330442584, 52.730060709211 0.03582379453763096, 52.730060709211 0.5128252411464788 C52.714216179237944 0.7596165849513027, 52.698371649264885 1.0064079287561267, 52.66434705718717 1.5363684145229002 C52.61649268553804 1.9075174711190115, 52.56863831388891 2.278666527715123, 52.533189784631205 2.5535983205340624 C52.4803697826235 2.824817867332256, 52.42754978061579 3.09603741413045, 52.337127844909176 3.5603349433010285 C52.265559385039 3.833256498752723, 52.193990925168826 4.106178054204418, 52.07696689858657 4.552441386096513 C51.98839260891765 4.819213034182739, 51.89981831924873 5.085984682268965, 51.753776002796165 5.525840870740919 C51.62094139717109 5.853944914817254, 51.48810679154601 6.182048958893589, 51.368883218253 6.4765334899583005 C51.193953499367794 6.839778794119815, 51.01902378048259 7.20302409828133, 50.923870151968 7.400612643853361 C50.81220442162245 7.59888645546323, 50.70053869127688 7.797160267073099, 50.42056545808554 8.294281092968399 C50.23193945203359 8.584061291438934, 50.04331344598164 8.873841489909468, 49.8610373235513 9.15386656195471 C49.62697574543918 9.467487753176517, 49.39291416732706 9.781108944398325, 49.24758496948848 9.975836829739734 C49.10573351761285 10.142463616689122, 48.96388206573722 10.30909040363851, 48.582729203205055 10.756814244181063 C48.41815790143694 10.926747624811796, 48.25358659966883 11.09668100544253, 47.869202059655784 11.493589601563638 C47.69298273638186 11.653627328453222, 47.51676341310793 11.813665055342804, 47.10993557492463 12.183135333906142 C46.80404304754349 12.42707648435058, 46.498150520162355 12.671017634795021, 46.30804973785946 12.822617949887304 C46.06618287251189 12.991333804905922, 45.82431600716431 13.16004965992454, 45.46683966936879 13.409409678269446 C45.15309776788598 13.599601862700391, 44.83935586640317 13.789794047131336, 44.589762082063004 13.94109926597423 C44.39245117777934 14.044036238355352, 44.195140273495674 14.146973210736473, 43.68042107588093 14.415501886438705 C43.310604721641305 14.57920861624821, 42.94078836740169 14.742915346057716, 42.742553328069995 14.830668117536346 C42.50670112894368 14.917463907008658, 42.27084892981737 15.00425969648097, 41.78001273837794 15.184891952170695 C41.420272417619884 15.29166099105621, 41.06053209686182 15.398430029941727, 40.79675459255213 15.476717808624468 C40.40575716061165 15.56596042096819, 40.01475972867116 15.655203033311913, 39.79681930922196 15.704946511857045 C39.46179670374215 15.759110368571912, 39.126774098262345 15.813274225286778, 38.7843158369521 15.868640221171937 C38.515251978142864 15.894596488034631, 38.24618811933362 15.920552754897324, 37.763404769691405 15.967126284005381 C37.478712188207 15.976255820973092, 37.19401960672259 15.985385357940805, 36.73828125 16 C36.73828125 16, 36.73828125 16, 36.73828125 16 C7.554388797031269 16, -21.629503655937462 16, -36.73828125 16 C-37.117866400554 15.987827443039407, -37.49745155110801 15.975654886078814, -37.7634047696914 15.967126284005381 C-38.07933289246829 15.936649077960253, -38.395261015245175 15.906171871915124, -38.784315836952096 15.868640221171937 C-39.146277251045525 15.810121106794002, -39.508238665138954 15.751601992416067, -39.79681930922196 15.704946511857045 C-40.10682765834269 15.634189129163776, -40.41683600746341 15.563431746470506, -40.79675459255211 15.476717808624471 C-41.15482046803131 15.37044573630838, -41.51288634351051 15.264173663992288, -41.78001273837792 15.184891952170702 C-42.11074674949252 15.063178778808844, -42.44148076060713 14.941465605446986, -42.74255332806999 14.830668117536348 C-43.02664799038806 14.704907837896872, -43.310742652706125 14.579147558257398, -43.68042107588093 14.415501886438708 C-43.86499827716048 14.319208078758505, -44.04957547844003 14.222914271078302, -44.589762082063 13.941099265974234 C-44.81307456149892 13.805725928610379, -45.036387040934855 13.670352591246523, -45.46683966936877 13.409409678269457 C-45.68290971944315 13.25868856485928, -45.89897976951754 13.107967451449106, -46.308049737859456 12.822617949887308 C-46.570365393591395 12.613428194953848, -46.832681049323334 12.40423844002039, -47.10993557492461 12.183135333906154 C-47.33623349924275 11.977617546555393, -47.562531423560884 11.772099759204634, -47.86920205965578 11.493589601563649 C-48.05480261684211 11.30194178817962, -48.24040317402845 11.110293974795592, -48.58272920320505 10.756814244181069 C-48.838876198591194 10.455929408223568, -49.09502319397734 10.155044572266068, -49.24758496948847 9.97583682973974 C-49.40600793207089 9.763564492508095, -49.56443089465331 9.551292155276451, -49.86103732355129 9.15386656195472 C-50.05317787986608 8.858687070491584, -50.24531843618086 8.563507579028446, -50.420565458085534 8.29428109296841 C-50.61291462272968 7.952745673677741, -50.80526378737383 7.611210254387073, -50.923870151968 7.400612643853366 C-51.07843960917248 7.079645858711699, -51.23300906637695 6.758679073570033, -51.368883218252996 6.476533489958307 C-51.51186977208396 6.123353937538866, -51.654856325914935 5.770174385119425, -51.753776002796165 5.525840870740931 C-51.83461357138534 5.282370993867782, -51.91545113997452 5.038901116994633, -52.07696689858657 4.552441386096519 C-52.13912322981342 4.315412356404173, -52.20127956104027 4.078383326711827, -52.337127844909176 3.5603349433010343 C-52.38209754668629 3.3294250290253906, -52.42706724846341 3.098515114749747, -52.533189784631205 2.5535983205340753 C-52.57543578257277 2.225946702915196, -52.61768178051433 1.898295085296316, -52.66434705718717 1.5363684145229202 C-52.68437067632558 1.2244843836678128, -52.70439429546398 0.9126003528127052, -52.730060709211 0.5128252411464846 C-52.730060709211 0.2368089851725791, -52.730060709211 -0.039207270801326466, -52.730060709211 -0.5128252411464769 C-52.7152049267304 -0.744216044653633, -52.7003491442498 -0.9756068481607891, -52.66434705718717 -1.5363684145228982 C-52.625254345499876 -1.8395637666405098, -52.58616163381257 -2.1427591187581214, -52.533189784631205 -2.5535983205340678 C-52.46270483298679 -2.9155236502283204, -52.39221988134238 -3.2774489799225734, -52.337127844909176 -3.5603349433010267 C-52.26088543879637 -3.8510802814769938, -52.18464303268357 -4.141825619652961, -52.076966898586576 -4.552441386096511 C-52.010096667404106 -4.753843868093657, -51.943226436221636 -4.955246350090802, -51.75377600279617 -5.525840870740911 C-51.65504417293676 -5.769710399343737, -51.556312343077344 -6.013579927946563, -51.368883218253 -6.476533489958299 C-51.23652620208011 -6.751375666027782, -51.10416918590722 -7.026217842097266, -50.923870151968 -7.400612643853359 C-50.77346455884378 -7.667673004663237, -50.623058965719544 -7.934733365473115, -50.420565458085534 -8.294281092968404 C-50.25693327354029 -8.545664069823829, -50.09330108899504 -8.797047046679253, -49.861037323551294 -9.153866561954715 C-49.656487805788174 -9.427944280912872, -49.451938288025055 -9.702021999871029, -49.24758496948848 -9.975836829739734 C-48.986481862516875 -10.282543396376253, -48.72537875554527 -10.589249963012774, -48.582729203205055 -10.756814244181063 C-48.3895455203959 -10.956292257356843, -48.19636183758674 -11.155770270532622, -47.86920205965579 -11.493589601563633 C-47.56553951905089 -11.769367886470459, -47.26187697844598 -12.045146171377286, -47.10993557492463 -12.18313533390614 C-46.94014354200721 -12.31853996180202, -46.77035150908981 -12.453944589697903, -46.30804973785946 -12.822617949887302 C-46.01056607878624 -13.030129672596733, -45.713082419713025 -13.237641395306165, -45.46683966936879 -13.409409678269444 C-45.15957202825217 -13.595677128019428, -44.85230438713555 -13.781944577769414, -44.589762082063004 -13.941099265974229 C-44.285171822922905 -14.100003809068248, -43.980581563782806 -14.258908352162265, -43.680421075880936 -14.415501886438705 C-43.373338396243184 -14.5514382794303, -43.066255716605426 -14.687374672421894, -42.742553328069995 -14.830668117536344 C-42.529690475242326 -14.909003615059568, -42.31682762241466 -14.987339112582793, -41.78001273837794 -15.184891952170695 C-41.46361386089912 -15.27879747819481, -41.1472149834203 -15.372703004218925, -40.79675459255213 -15.476717808624466 C-40.436910097118584 -15.55884996650239, -40.077065601685035 -15.640982124380313, -39.796819309221966 -15.704946511857043 C-39.524191573569006 -15.749022849897749, -39.25156383791604 -15.793099187938452, -38.7843158369521 -15.868640221171937 C-38.47010106009517 -15.898952142796768, -38.155886283238225 -15.9292640644216, -37.763404769691405 -15.967126284005381 C-37.51280347768503 -15.975162579674201, -37.26220218567865 -15.983198875343023, -36.73828125000001 -16 C-36.73828125000001 -16, -36.73828125 -16, -36.73828125 -16" stroke="none" stroke-width="0" fill="#eee" style=""/><path d="M-36.73828125 -16 C-8.026685690276295 -16, 20.68490986944741 -16, 36.73828125 -16 M-36.73828125 -16 C-8.994733270354175 -16, 18.74881470929165 -16, 36.73828125 -16 M36.73828125 -16 C36.73828125 -16, 36.73828125 -16, 36.73828125 -16 M36.73828125 -16 C36.73828125 -16, 36.73828125 -16, 36.73828125 -16 M36.73828125 -16 C37.13595164131501 -15.987247484568988, 37.533622032630014 -15.974494969137975, 37.763404769691405 -15.967126284005381 M36.73828125 -16 C37.12928752613944 -15.987461189771755, 37.52029380227888 -15.974922379543509, 37.763404769691405 -15.967126284005381 M37.763404769691405 -15.967126284005381 C38.120350521817706 -15.932692156587832, 38.477296273944006 -15.898258029170282, 38.784315836952096 -15.868640221171939 M37.763404769691405 -15.967126284005381 C37.99453448554584 -15.944829478291057, 38.22566420140028 -15.92253267257673, 38.784315836952096 -15.868640221171939 M38.784315836952096 -15.868640221171939 C39.12152093152345 -15.814123516546207, 39.4587260260948 -15.759606811920476, 39.79681930922195 -15.704946511857047 M38.784315836952096 -15.868640221171939 C39.142071978427495 -15.81080098265851, 39.499828119902894 -15.75296174414508, 39.79681930922195 -15.704946511857047 M39.79681930922195 -15.704946511857047 C40.13469800454812 -15.627827904513392, 40.47257669987428 -15.550709297169735, 40.79675459255211 -15.476717808624471 M39.79681930922195 -15.704946511857047 C40.12214968918349 -15.630691975609958, 40.447480069145016 -15.55643743936287, 40.79675459255211 -15.476717808624471 M40.79675459255211 -15.476717808624471 C41.08854541630718 -15.390115823775258, 41.38033624006224 -15.303513838926044, 41.780012738377934 -15.184891952170698 M40.79675459255211 -15.476717808624471 C41.09410481622709 -15.388465823060915, 41.391455039902056 -15.300213837497358, 41.780012738377934 -15.184891952170698 M41.780012738377934 -15.184891952170698 C42.06708460674992 -15.079246850946545, 42.35415647512191 -14.97360174972239, 42.74255332806999 -14.830668117536348 M41.780012738377934 -15.184891952170698 C42.0534666216107 -15.084258395361053, 42.32692050484347 -14.983624838551407, 42.74255332806999 -14.830668117536348 M42.74255332806999 -14.830668117536348 C42.95244407976313 -14.737755707949724, 43.16233483145628 -14.644843298363101, 43.68042107588093 -14.415501886438706 M42.74255332806999 -14.830668117536348 C42.96428548180381 -14.732513870529027, 43.18601763553763 -14.634359623521707, 43.68042107588093 -14.415501886438706 M43.68042107588093 -14.415501886438706 C43.942794287368315 -14.278621950063798, 44.20516749885571 -14.14174201368889, 44.589762082063004 -13.941099265974232 M43.68042107588093 -14.415501886438706 C43.90384476443594 -14.298941891229262, 44.12726845299094 -14.18238189601982, 44.589762082063004 -13.941099265974232 M44.589762082063004 -13.941099265974232 C44.85001675363665 -13.783331354640074, 45.1102714252103 -13.625563443305914, 45.46683966936878 -13.409409678269451 M44.589762082063004 -13.941099265974232 C44.806519045495065 -13.809699920936408, 45.023276008927134 -13.678300575898584, 45.46683966936878 -13.409409678269451 M45.46683966936878 -13.409409678269451 C45.70514623803466 -13.243177332093225, 45.943452806700535 -13.076944985917, 46.308049737859456 -12.822617949887306 M45.46683966936878 -13.409409678269451 C45.68778807524873 -13.25528563502993, 45.908736481128685 -13.101161591790408, 46.308049737859456 -12.822617949887306 M46.308049737859456 -12.822617949887306 C46.49455855279413 -12.673882133184906, 46.681067367728815 -12.525146316482507, 47.10993557492461 -12.183135333906153 M46.308049737859456 -12.822617949887306 C46.48774376832561 -12.679316742449526, 46.66743779879176 -12.536015535011746, 47.10993557492461 -12.183135333906153 M47.10993557492461 -12.183135333906153 C47.32334734835247 -11.989320407845076, 47.53675912178033 -11.795505481783998, 47.869202059655784 -11.493589601563642 M47.10993557492461 -12.183135333906153 C47.36057228857582 -11.95551370205218, 47.61120900222702 -11.727892070198205, 47.869202059655784 -11.493589601563642 M47.869202059655784 -11.493589601563642 C48.0244361106567 -11.333297698952583, 48.17967016165762 -11.173005796341524, 48.58272920320505 -10.756814244181072 M47.869202059655784 -11.493589601563642 C48.02262741584168 -11.3351653248457, 48.176052772027575 -11.176741048127758, 48.58272920320505 -10.756814244181072 M48.58272920320505 -10.756814244181072 C48.75751234787485 -10.551504017009247, 48.932295492544654 -10.34619378983742, 49.24758496948848 -9.975836829739738 M48.58272920320505 -10.756814244181072 C48.76685777230146 -10.540526349708044, 48.950986341397865 -10.324238455235015, 49.24758496948848 -9.975836829739738 M49.24758496948848 -9.975836829739738 C49.42697081357656 -9.735476141048293, 49.60635665766465 -9.495115452356849, 49.86103732355129 -9.153866561954718 M49.24758496948848 -9.975836829739738 C49.42882894640678 -9.732986412335183, 49.610072923325085 -9.490135994930629, 49.86103732355129 -9.153866561954718 M49.86103732355129 -9.153866561954718 C50.01794972196328 -8.912806981115212, 50.174862120375266 -8.671747400275706, 50.420565458085534 -8.294281092968403 M49.86103732355129 -9.153866561954718 C50.004616077436935 -8.933291039692548, 50.14819483132259 -8.71271551743038, 50.420565458085534 -8.294281092968403 M50.420565458085534 -8.294281092968403 C50.579044338473565 -8.01288579311266, 50.7375232188616 -7.73149049325692, 50.923870151968 -7.400612643853364 M50.420565458085534 -8.294281092968403 C50.54377958641564 -8.075501931334877, 50.66699371474574 -7.85672276970135, 50.923870151968 -7.400612643853364 M50.923870151968 -7.400612643853364 C51.07555409405831 -7.085637692586401, 51.22723803614862 -6.770662741319438, 51.368883218252996 -6.476533489958305 M50.923870151968 -7.400612643853364 C51.031668943083446 -7.176766147577512, 51.13946773419889 -6.952919651301659, 51.368883218252996 -6.476533489958305 M51.368883218252996 -6.476533489958305 C51.47670411618623 -6.2102137874879855, 51.58452501411945 -5.943894085017667, 51.753776002796165 -5.52584087074093 M51.368883218252996 -6.476533489958305 C51.51288832735895 -6.120838086317217, 51.656893436464905 -5.76514268267613, 51.753776002796165 -5.52584087074093 M51.753776002796165 -5.52584087074093 C51.84142408650805 -5.261858807426415, 51.92907217021993 -4.997876744111901, 52.07696689858657 -4.552441386096524 M51.753776002796165 -5.52584087074093 C51.86811421485385 -5.18147239334333, 51.98245242691152 -4.837103915945731, 52.07696689858657 -4.552441386096524 M52.07696689858657 -4.552441386096524 C52.14321939100439 -4.299791918495515, 52.20947188342221 -4.047142450894507, 52.337127844909176 -3.560334943301032 M52.07696689858657 -4.552441386096524 C52.13612167744824 -4.32685857645364, 52.195276456309905 -4.101275766810757, 52.337127844909176 -3.560334943301032 M52.337127844909176 -3.560334943301032 C52.41523624099737 -3.159264837603491, 52.49334463708558 -2.7581947319059497, 52.533189784631205 -2.5535983205340735 M52.337127844909176 -3.560334943301032 C52.401317407121574 -3.2307351078091626, 52.465506969333966 -2.901135272317293, 52.533189784631205 -2.5535983205340735 M52.533189784631205 -2.5535983205340735 C52.56226846169973 -2.3280698434248794, 52.59134713876825 -2.1025413663156853, 52.66434705718717 -1.536368414522911 M52.533189784631205 -2.5535983205340735 C52.564133243408214 -2.3136069647366613, 52.595076702185224 -2.073615608939249, 52.66434705718717 -1.536368414522911 M52.66434705718717 -1.536368414522911 C52.68991440714146 -1.1381363013913919, 52.71548175709575 -0.7399041882598726, 52.730060709211 -0.5128252411464826 M52.66434705718717 -1.536368414522911 C52.688458267628974 -1.1608168496730678, 52.712569478070776 -0.7852652848232243, 52.730060709211 -0.5128252411464826 M52.730060709211 -0.5128252411464826 C52.730060709211 -0.2661005178396729, 52.730060709211 -0.019375794532863144, 52.730060709211 0.5128252411464788 M52.730060709211 -0.5128252411464826 C52.730060709211 -0.18237224181070893, 52.730060709211 0.14808075752506478, 52.730060709211 0.5128252411464788 M52.730060709211 0.5128252411464788 C52.70904004444313 0.8402390624813725, 52.688019379675254 1.1676528838162663, 52.66434705718717 1.5363684145229002 M52.730060709211 0.5128252411464788 C52.71583582007384 0.7343893715815749, 52.70161093093669 0.9559535020166712, 52.66434705718717 1.5363684145229002 M52.66434705718717 1.5363684145229002 C52.63745859762527 1.744909997158108, 52.610570138063366 1.9534515797933156, 52.533189784631205 2.5535983205340624 M52.66434705718717 1.5363684145229002 C52.636207745391495 1.7546113600745685, 52.60806843359581 1.9728543056262366, 52.533189784631205 2.5535983205340624 M52.533189784631205 2.5535983205340624 C52.460296098142834 2.927891994565745, 52.38740241165446 3.302185668597428, 52.337127844909176 3.5603349433010285 M52.533189784631205 2.5535983205340624 C52.47668261829774 2.8437506768625855, 52.42017545196427 3.1339030331911086, 52.337127844909176 3.5603349433010285 M52.337127844909176 3.5603349433010285 C52.237169183531876 3.9415206414905537, 52.137210522154575 4.322706339680079, 52.07696689858657 4.552441386096513 M52.337127844909176 3.5603349433010285 C52.240742272902466 3.927894903133771, 52.144356700895756 4.295454862966514, 52.07696689858657 4.552441386096513 M52.07696689858657 4.552441386096513 C51.9670333769828 4.883543637639067, 51.85709985537902 5.214645889181622, 51.753776002796165 5.525840870740919 M52.07696689858657 4.552441386096513 C51.96298157555271 4.895747017979605, 51.848996252518845 5.239052649862699, 51.753776002796165 5.525840870740919 M51.753776002796165 5.525840870740919 C51.67507811139471 5.720226184022738, 51.59638021999326 5.9146114973045565, 51.368883218253 6.4765334899583005 M51.753776002796165 5.525840870740919 C51.67030963462368 5.732004413839409, 51.5868432664512 5.938167956937899, 51.368883218253 6.4765334899583005 M51.368883218253 6.4765334899583005 C51.25761569162042 6.707582889754529, 51.14634816498785 6.938632289550758, 50.923870151968 7.400612643853361 M51.368883218253 6.4765334899583005 C51.20222843971719 6.822595703428945, 51.035573661181374 7.16865791689959, 50.923870151968 7.400612643853361 M50.923870151968 7.400612643853361 C50.752036861661196 7.705720050800529, 50.580203571354396 8.010827457747697, 50.42056545808554 8.294281092968399 M50.923870151968 7.400612643853361 C50.72279810103686 7.757636431034607, 50.52172605010572 8.114660218215853, 50.42056545808554 8.294281092968399 M50.42056545808554 8.294281092968399 C50.27440788206878 8.518818378534657, 50.12825030605202 8.743355664100916, 49.8610373235513 9.15386656195471 M50.42056545808554 8.294281092968399 C50.28471520280968 8.502983565973478, 50.14886494753381 8.71168603897856, 49.8610373235513 9.15386656195471 M49.8610373235513 9.15386656195471 C49.70698567416352 9.360281737740364, 49.55293402477574 9.566696913526018, 49.24758496948848 9.975836829739734 M49.8610373235513 9.15386656195471 C49.73456026851212 9.323334293410458, 49.608083213472945 9.492802024866204, 49.24758496948848 9.975836829739734 M49.24758496948848 9.975836829739734 C49.099606059926735 10.149661277149447, 48.95162715036499 10.323485724559157, 48.582729203205055 10.756814244181063 M49.24758496948848 9.975836829739734 C49.07574773897153 10.17768661852035, 48.90391050845459 10.379536407300966, 48.582729203205055 10.756814244181063 M48.582729203205055 10.756814244181063 C48.33662721241 11.010934755026167, 48.090525221614946 11.26505526587127, 47.869202059655784 11.493589601563638 M48.582729203205055 10.756814244181063 C48.34175311606155 11.005641838661427, 48.100777028918046 11.254469433141791, 47.869202059655784 11.493589601563638 M47.869202059655784 11.493589601563638 C47.68377287116712 11.661991484361565, 47.49834368267846 11.830393367159493, 47.10993557492463 12.183135333906142 M47.869202059655784 11.493589601563638 C47.707781398634125 11.64018757494686, 47.54636073761247 11.786785548330084, 47.10993557492463 12.183135333906142 M47.10993557492463 12.183135333906142 C46.81398826761509 12.419145435996903, 46.51804096030555 12.655155538087666, 46.30804973785946 12.822617949887304 M47.10993557492463 12.183135333906142 C46.921262495023136 12.333597094326064, 46.73258941512165 12.484058854745985, 46.30804973785946 12.822617949887304 M46.30804973785946 12.822617949887304 C46.067818509913685 12.99019285506003, 45.82758728196791 13.157767760232758, 45.46683966936879 13.409409678269446 M46.30804973785946 12.822617949887304 C46.110185073826266 12.96063977409361, 45.91232040979306 13.098661598299913, 45.46683966936879 13.409409678269446 M45.46683966936879 13.409409678269446 C45.131493910287546 13.612698248134919, 44.79614815120631 13.815986818000392, 44.589762082063004 13.94109926597423 M45.46683966936879 13.409409678269446 C45.148427044521625 13.602433282652079, 44.83001441967446 13.795456887034712, 44.589762082063004 13.94109926597423 M44.589762082063004 13.94109926597423 C44.37067411091156 14.055397320191394, 44.15158613976012 14.16969537440856, 43.68042107588093 14.415501886438705 M44.589762082063004 13.94109926597423 C44.31431005832775 14.08480241032147, 44.038858034592494 14.228505554668711, 43.68042107588093 14.415501886438705 M43.68042107588093 14.415501886438705 C43.45873764759571 14.513634564135318, 43.237054219310494 14.611767241831929, 42.742553328069995 14.830668117536346 M43.68042107588093 14.415501886438705 C43.44426905844945 14.520039379354918, 43.20811704101798 14.624576872271131, 42.742553328069995 14.830668117536346 M42.742553328069995 14.830668117536346 C42.40863109888145 14.95355458462098, 42.0747088696929 15.076441051705615, 41.78001273837794 15.184891952170695 M42.742553328069995 14.830668117536346 C42.36019579628071 14.97137922370908, 41.97783826449143 15.112090329881813, 41.78001273837794 15.184891952170695 M41.78001273837794 15.184891952170695 C41.43610837130097 15.286960963128282, 41.092204004223994 15.389029974085869, 40.79675459255213 15.476717808624468 M41.78001273837794 15.184891952170695 C41.56276869730274 15.249368843224573, 41.34552465622753 15.313845734278454, 40.79675459255213 15.476717808624468 M40.79675459255213 15.476717808624468 C40.45242147264765 15.555309596259068, 40.10808835274316 15.633901383893667, 39.79681930922196 15.704946511857045 M40.79675459255213 15.476717808624468 C40.419630428110686 15.562793938193066, 40.04250626366924 15.648870067761663, 39.79681930922196 15.704946511857045 M39.79681930922196 15.704946511857045 C39.39593452211649 15.7697584553283, 38.99504973501102 15.834570398799558, 38.7843158369521 15.868640221171937 M39.79681930922196 15.704946511857045 C39.53902355396946 15.746624930330329, 39.281227798716955 15.788303348803613, 38.7843158369521 15.868640221171937 M38.7843158369521 15.868640221171937 C38.39180763183114 15.906505015659775, 37.99929942671018 15.944369810147613, 37.763404769691405 15.967126284005381 M38.7843158369521 15.868640221171937 C38.40428881086165 15.905300971329515, 38.0242617847712 15.941961721487095, 37.763404769691405 15.967126284005381 M37.763404769691405 15.967126284005381 C37.50603457624975 15.975379645168363, 37.2486643828081 15.983633006331345, 36.73828125 16 M37.763404769691405 15.967126284005381 C37.36495701882758 15.979903727844086, 36.96650926796376 15.99268117168279, 36.73828125 16 M36.73828125 16 C36.73828125 16, 36.73828125 16, 36.73828125 16 M36.73828125 16 C36.73828125 16, 36.73828125 16, 36.73828125 16 M36.73828125 16 C16.426142582518157 16, -3.8859960849636863 16, -36.73828125 16 M36.73828125 16 C9.640544662842956 16, -17.45719192431409 16, -36.73828125 16 M-36.73828125 16 C-37.001510676991536 15.99155874462138, -37.26474010398308 15.983117489242758, -37.7634047696914 15.967126284005381 M-36.73828125 16 C-37.11592825482019 15.987889595600718, -37.49357525964038 15.975779191201438, -37.7634047696914 15.967126284005381 M-37.7634047696914 15.967126284005381 C-38.13097547213116 15.931667180409464, -38.498546174570926 15.896208076813545, -38.784315836952096 15.868640221171937 M-37.7634047696914 15.967126284005381 C-38.1391584364114 15.930877779686803, -38.5149121031314 15.894629275368226, -38.784315836952096 15.868640221171937 M-38.784315836952096 15.868640221171937 C-39.022154702345226 15.830188277883124, -39.25999356773835 15.791736334594312, -39.79681930922196 15.704946511857045 M-38.784315836952096 15.868640221171937 C-39.046578776940514 15.826239582914086, -39.308841716928924 15.783838944656235, -39.79681930922196 15.704946511857045 M-39.79681930922196 15.704946511857045 C-40.13905308278705 15.626833886324897, -40.48128685635214 15.548721260792748, -40.79675459255211 15.476717808624471 M-39.79681930922196 15.704946511857045 C-40.11558679587273 15.632189913181257, -40.4343542825235 15.559433314505469, -40.79675459255211 15.476717808624471 M-40.79675459255211 15.476717808624471 C-41.16386209742817 15.367762228163873, -41.53096960230424 15.258806647703272, -41.78001273837792 15.184891952170702 M-40.79675459255211 15.476717808624471 C-41.00857061408829 15.41385192527752, -41.22038663562447 15.350986041930566, -41.78001273837792 15.184891952170702 M-41.78001273837792 15.184891952170702 C-42.00763414567216 15.1011251701772, -42.235255552966386 15.017358388183698, -42.74255332806999 14.830668117536348 M-41.78001273837792 15.184891952170702 C-42.02287673409637 15.095515756736145, -42.26574072981483 15.006139561301588, -42.74255332806999 14.830668117536348 M-42.74255332806999 14.830668117536348 C-43.11312582557264 14.666626665534494, -43.48369832307529 14.50258521353264, -43.68042107588093 14.415501886438708 M-42.74255332806999 14.830668117536348 C-43.09286337295596 14.675596252243595, -43.44317341784194 14.520524386950843, -43.68042107588093 14.415501886438708 M-43.68042107588093 14.415501886438708 C-43.97969681206543 14.259369926566512, -44.27897254824993 14.103237966694314, -44.589762082063 13.941099265974234 M-43.68042107588093 14.415501886438708 C-43.95150627747612 14.274076910404855, -44.22259147907131 14.132651934371003, -44.589762082063 13.941099265974234 M-44.589762082063 13.941099265974234 C-44.93908293761414 13.729338910501925, -45.28840379316527 13.517578555029615, -45.46683966936877 13.409409678269457 M-44.589762082063 13.941099265974234 C-44.83411151404928 13.792973204347495, -45.07846094603557 13.644847142720756, -45.46683966936877 13.409409678269457 M-45.46683966936877 13.409409678269457 C-45.66124033496978 13.273804189415369, -45.8556410005708 13.13819870056128, -46.308049737859456 12.822617949887308 M-45.46683966936877 13.409409678269457 C-45.782524212994424 13.189201806399842, -46.098208756620075 12.968993934530227, -46.308049737859456 12.822617949887308 M-46.308049737859456 12.822617949887308 C-46.58988365897986 12.597862897709403, -46.87171758010027 12.373107845531496, -47.10993557492461 12.183135333906154 M-46.308049737859456 12.822617949887308 C-46.47015977254998 12.693339511150812, -46.632269807240505 12.564061072414317, -47.10993557492461 12.183135333906154 M-47.10993557492461 12.183135333906154 C-47.38930297386541 11.929421253844446, -47.66867037280621 11.675707173782737, -47.86920205965578 11.493589601563649 M-47.10993557492461 12.183135333906154 C-47.30785903372042 12.00338648539556, -47.50578249251622 11.823637636884964, -47.86920205965578 11.493589601563649 M-47.86920205965578 11.493589601563649 C-48.15354904126245 11.199977997733402, -48.437896022869126 10.906366393903156, -48.58272920320505 10.756814244181069 M-47.86920205965578 11.493589601563649 C-48.0867350885262 11.268968889461124, -48.30426811739661 11.044348177358602, -48.58272920320505 10.756814244181069 M-48.58272920320505 10.756814244181069 C-48.82198063996613 10.475775892769093, -49.0612320767272 10.194737541357117, -49.24758496948847 9.97583682973974 M-48.58272920320505 10.756814244181069 C-48.72836179706558 10.585745912703139, -48.87399439092612 10.414677581225208, -49.24758496948847 9.97583682973974 M-49.24758496948847 9.97583682973974 C-49.47024781291598 9.677488904549213, -49.69291065634349 9.379140979358688, -49.86103732355129 9.15386656195472 M-49.24758496948847 9.97583682973974 C-49.49241825945719 9.64778252595323, -49.7372515494259 9.319728222166724, -49.86103732355129 9.15386656195472 M-49.86103732355129 9.15386656195472 C-50.04897922771145 8.865137327697054, -50.23692113187161 8.576408093439388, -50.420565458085534 8.29428109296841 M-49.86103732355129 9.15386656195472 C-50.03847131153306 8.881280308717644, -50.21590529951482 8.60869405548057, -50.420565458085534 8.29428109296841 M-50.420565458085534 8.29428109296841 C-50.52740127733305 8.104583277594655, -50.63423709658056 7.914885462220901, -50.923870151968 7.400612643853366 M-50.420565458085534 8.29428109296841 C-50.5290275985096 8.101695579662803, -50.637489738933674 7.909110066357196, -50.923870151968 7.400612643853366 M-50.923870151968 7.400612643853366 C-51.09600487284953 7.043171212849875, -51.26813959373105 6.685729781846384, -51.368883218252996 6.476533489958307 M-50.923870151968 7.400612643853366 C-51.02431475909601 7.192037267981759, -51.12475936622401 6.98346189211015, -51.368883218252996 6.476533489958307 M-51.368883218252996 6.476533489958307 C-51.48653795445383 6.185924016842674, -51.60419269065466 5.895314543727042, -51.753776002796165 5.525840870740931 M-51.368883218252996 6.476533489958307 C-51.44733462387493 6.2827570013173935, -51.52578602949686 6.08898051267648, -51.753776002796165 5.525840870740931 M-51.753776002796165 5.525840870740931 C-51.853615477063066 5.225140281508998, -51.95345495132997 4.924439692277064, -52.07696689858657 4.552441386096519 M-51.753776002796165 5.525840870740931 C-51.86452219593074 5.192290982029224, -51.97526838906531 4.858741093317516, -52.07696689858657 4.552441386096519 M-52.07696689858657 4.552441386096519 C-52.17767880364686 4.168383243285848, -52.278390708707164 3.7843251004751766, -52.337127844909176 3.5603349433010343 M-52.07696689858657 4.552441386096519 C-52.1628974507382 4.224750948205462, -52.24882800288983 3.897060510314405, -52.337127844909176 3.5603349433010343 M-52.337127844909176 3.5603349433010343 C-52.405981337632035 3.2067868103600046, -52.474834830354894 2.853238677418975, -52.533189784631205 2.5535983205340753 M-52.337127844909176 3.5603349433010343 C-52.414498305437235 3.163053980742088, -52.49186876596529 2.765773018183142, -52.533189784631205 2.5535983205340753 M-52.533189784631205 2.5535983205340753 C-52.57310086197496 2.2440558859895714, -52.61301193931871 1.934513451445068, -52.66434705718717 1.5363684145229202 M-52.533189784631205 2.5535983205340753 C-52.573472132767336 2.241176383039608, -52.61375448090347 1.92875444554514, -52.66434705718717 1.5363684145229202 M-52.66434705718717 1.5363684145229202 C-52.686918237484846 1.1848040622578444, -52.709489417782514 0.8332397099927689, -52.730060709211 0.5128252411464846 M-52.66434705718717 1.5363684145229202 C-52.679013858425996 1.3079211463993385, -52.69368065966482 1.079473878275757, -52.730060709211 0.5128252411464846 M-52.730060709211 0.5128252411464846 C-52.730060709211 0.1517233730007141, -52.730060709211 -0.20937849514505646, -52.730060709211 -0.5128252411464769 M-52.730060709211 0.5128252411464846 C-52.730060709211 0.1624480577688483, -52.730060709211 -0.18792912560878805, -52.730060709211 -0.5128252411464769 M-52.730060709211 -0.5128252411464769 C-52.71287358583531 -0.7805285609192305, -52.69568646245961 -1.0482318806919841, -52.66434705718717 -1.5363684145228982 M-52.730060709211 -0.5128252411464769 C-52.70654970763201 -0.8790280684782728, -52.68303870605301 -1.2452308958100686, -52.66434705718717 -1.5363684145228982 M-52.66434705718717 -1.5363684145228982 C-52.632435717136524 -1.783866466348858, -52.60052437708588 -2.0313645181748177, -52.533189784631205 -2.5535983205340678 M-52.66434705718717 -1.5363684145228982 C-52.62054027038632 -1.8761252023218247, -52.576733483585464 -2.215881990120751, -52.533189784631205 -2.5535983205340678 M-52.533189784631205 -2.5535983205340678 C-52.473459478842486 -2.8603008167545356, -52.41372917305377 -3.1670033129750035, -52.337127844909176 -3.5603349433010267 M-52.533189784631205 -2.5535983205340678 C-52.493665802606486 -2.7565456148344487, -52.45414182058176 -2.9594929091348297, -52.337127844909176 -3.5603349433010267 M-52.337127844909176 -3.5603349433010267 C-52.24098168605998 -3.926981917001848, -52.14483552721079 -4.293628890702669, -52.076966898586576 -4.552441386096511 M-52.337127844909176 -3.5603349433010267 C-52.25987866781198 -3.854919535577774, -52.18262949071479 -4.149504127854521, -52.076966898586576 -4.552441386096511 M-52.076966898586576 -4.552441386096511 C-51.96857627795331 -4.878896665743774, -51.860185657320045 -5.205351945391037, -51.75377600279617 -5.525840870740911 M-52.076966898586576 -4.552441386096511 C-51.97239291966755 -4.867401548999764, -51.86781894074853 -5.182361711903018, -51.75377600279617 -5.525840870740911 M-51.75377600279617 -5.525840870740911 C-51.65753048482051 -5.763569160921302, -51.561284966844845 -6.001297451101691, -51.368883218253 -6.476533489958299 M-51.75377600279617 -5.525840870740911 C-51.65211990534076 -5.776933396842718, -51.55046380788535 -6.0280259229445265, -51.368883218253 -6.476533489958299 M-51.368883218253 -6.476533489958299 C-51.23812612413528 -6.74805339364738, -51.10736903001755 -7.0195732973364615, -50.923870151968 -7.400612643853359 M-51.368883218253 -6.476533489958299 C-51.258914536856196 -6.7048858098316115, -51.14894585545939 -6.933238129704925, -50.923870151968 -7.400612643853359 M-50.923870151968 -7.400612643853359 C-50.762463051410066 -7.68720729513522, -50.60105595085212 -7.9738019464170815, -50.420565458085534 -8.294281092968404 M-50.923870151968 -7.400612643853359 C-50.82226347234879 -7.581025592309272, -50.720656792729564 -7.761438540765186, -50.420565458085534 -8.294281092968404 M-50.420565458085534 -8.294281092968404 C-50.269767040367284 -8.525947957628635, -50.118968622649035 -8.757614822288865, -49.861037323551294 -9.153866561954715 M-50.420565458085534 -8.294281092968404 C-50.25850461533822 -8.543250066857855, -50.0964437725909 -8.792219040747305, -49.861037323551294 -9.153866561954715 M-49.861037323551294 -9.153866561954715 C-49.729662904501076 -9.329896315026222, -49.59828848545085 -9.505926068097727, -49.24758496948848 -9.975836829739734 M-49.861037323551294 -9.153866561954715 C-49.63231109138524 -9.460338875668807, -49.403584859219194 -9.7668111893829, -49.24758496948848 -9.975836829739734 M-49.24758496948848 -9.975836829739734 C-49.08625791438004 -10.165340768439593, -48.924930859271605 -10.354844707139451, -48.582729203205055 -10.756814244181063 M-49.24758496948848 -9.975836829739734 C-49.09373790806255 -10.156554342236424, -48.939890846636615 -10.337271854733112, -48.582729203205055 -10.756814244181063 M-48.582729203205055 -10.756814244181063 C-48.36355767274465 -10.983126843698733, -48.14438614228424 -11.209439443216402, -47.86920205965579 -11.493589601563633 M-48.582729203205055 -10.756814244181063 C-48.310556184900605 -11.037855231400783, -48.03838316659616 -11.318896218620504, -47.86920205965579 -11.493589601563633 M-47.86920205965579 -11.493589601563633 C-47.65242377997505 -11.690461899530701, -47.435645500294314 -11.887334197497772, -47.10993557492463 -12.18313533390614 M-47.86920205965579 -11.493589601563633 C-47.58407910200726 -11.75253072775997, -47.29895614435872 -12.011471853956305, -47.10993557492463 -12.18313533390614 M-47.10993557492463 -12.18313533390614 C-46.87377346310619 -12.371468333543616, -46.63761135128775 -12.55980133318109, -46.30804973785946 -12.822617949887302 M-47.10993557492463 -12.18313533390614 C-46.815250236868515 -12.418139049099704, -46.52056489881241 -12.653142764293268, -46.30804973785946 -12.822617949887302 M-46.30804973785946 -12.822617949887302 C-46.05171148716796 -13.001428416865672, -45.79537323647645 -13.180238883844039, -45.46683966936879 -13.409409678269444 M-46.30804973785946 -12.822617949887302 C-46.04896077432722 -13.003347195066931, -45.78987181079497 -13.18407644024656, -45.46683966936879 -13.409409678269444 M-45.46683966936879 -13.409409678269444 C-45.15800995622631 -13.59662406526126, -44.84918024308383 -13.783838452253075, -44.589762082063004 -13.941099265974229 M-45.46683966936879 -13.409409678269444 C-45.264722258593906 -13.531934440454922, -45.06260484781903 -13.654459202640401, -44.589762082063004 -13.941099265974229 M-44.589762082063004 -13.941099265974229 C-44.35044122926108 -14.065952801588672, -44.11112037645915 -14.190806337203117, -43.680421075880936 -14.415501886438705 M-44.589762082063004 -13.941099265974229 C-44.255341468393155 -14.115566285919163, -43.920920854723306 -14.2900333058641, -43.680421075880936 -14.415501886438705 M-43.680421075880936 -14.415501886438705 C-43.393453120350486 -14.542534087750088, -43.10648516482003 -14.669566289061471, -42.742553328069995 -14.830668117536344 M-43.680421075880936 -14.415501886438705 C-43.46435791049773 -14.511146640467771, -43.24829474511452 -14.606791394496836, -42.742553328069995 -14.830668117536344 M-42.742553328069995 -14.830668117536344 C-42.41098260891827 -14.952689207190309, -42.07941188976654 -15.074710296844275, -41.78001273837794 -15.184891952170695 M-42.742553328069995 -14.830668117536344 C-42.374041605745006 -14.966283837836958, -42.005529883420024 -15.101899558137573, -41.78001273837794 -15.184891952170695 M-41.78001273837794 -15.184891952170695 C-41.40743633103181 -15.295470674177556, -41.03485992368568 -15.406049396184418, -40.79675459255213 -15.476717808624466 M-41.78001273837794 -15.184891952170695 C-41.44297922556812 -15.284921729647637, -41.10594571275831 -15.384951507124581, -40.79675459255213 -15.476717808624466 M-40.79675459255213 -15.476717808624466 C-40.47964926427173 -15.549095030498815, -40.16254393599132 -15.621472252373163, -39.796819309221966 -15.704946511857043 M-40.79675459255213 -15.476717808624466 C-40.520571153710954 -15.539754876274596, -40.244387714869774 -15.602791943924727, -39.796819309221966 -15.704946511857043 M-39.796819309221966 -15.704946511857043 C-39.43903503131256 -15.762790299250922, -39.08125075340315 -15.820634086644802, -38.7843158369521 -15.868640221171937 M-39.796819309221966 -15.704946511857043 C-39.502263462036794 -15.75256801691523, -39.20770761485162 -15.800189521973419, -38.7843158369521 -15.868640221171937 M-38.7843158369521 -15.868640221171937 C-38.45436538730666 -15.90047014422576, -38.124414937661214 -15.932300067279582, -37.763404769691405 -15.967126284005381 M-38.7843158369521 -15.868640221171937 C-38.57335878731969 -15.888990994037004, -38.36240173768727 -15.909341766902072, -37.763404769691405 -15.967126284005381 M-37.763404769691405 -15.967126284005381 C-37.45524500520235 -15.977008367855952, -37.14708524071329 -15.986890451706522, -36.73828125000001 -16 M-37.763404769691405 -15.967126284005381 C-37.36171172182264 -15.980007798202447, -36.96001867395387 -15.992889312399512, -36.73828125000001 -16 M-36.73828125000001 -16 C-36.73828125000001 -16, -36.73828125 -16, -36.73828125 -16 M-36.73828125000001 -16 C-36.73828125000001 -16, -36.73828125 -16, -36.73828125 -16" stroke="#999" stroke-width="1.3" fill="none" stroke-dasharray="0 0" style=""/></g><g class="label" style="" transform="translate(0, -8.5)"><rect/><g><rect class="background" style="stroke: none"/><text y="-10.1" style=""><tspan class="text-outer-tspan row" x="0" y="-0.1em" dy="1.1em"><tspan font-style="normal" class="text-inner-tspan" font-weight="normal">ISBN</tspan><tspan font-style="normal" class="text-inner-tspan" font-weight="normal"> i</tspan><tspan font-style="normal" class="text-inner-tspan" font-weight="normal"> futur</tspan></tspan></text></g></g></g><g class="node default" id="my-svg-flowchart-B-1" data-look="classic" transform="translate(197.37187957763672, 113.5)"><rect class="basic label-container" style="" x="-109.19140625" y="-23.5" width="218.3828125" height="47"/><g class="label" style="" transform="translate(0, -8.5)"><rect/><g><rect class="background" style="stroke: none"/><text y="-10.1" style=""><tspan class="text-outer-tspan row" x="0" y="-0.1em" dy="1.1em"><tspan font-style="normal" class="text-inner-tspan" font-weight="normal">Normalizo</tspan><tspan font-style="normal" class="text-inner-tspan" font-weight="normal"> dhe</tspan><tspan font-style="normal" class="text-inner-tspan" font-weight="normal"> verifiko</tspan></tspan></text></g></g></g><g class="node default" id="my-svg-flowchart-C-3" data-look="classic" transform="translate(197.37187957763672, 279.1593704223633)"><polygon points="92.15937423706055,0 184.3187484741211,-92.15937423706055 92.15937423706055,-184.3187484741211 0,-92.15937423706055" class="label-container" transform="translate(-91.65937423706055, 92.15937423706055)"/><g class="label" style="" transform="translate(0, -17.299999237060547)"><rect/><g><rect class="background" style="stroke: none"/><text y="-10.1" style=""><tspan class="text-outer-tspan row" x="0" y="-0.1em" dy="1.1em"><tspan font-style="normal" class="text-inner-tspan" font-weight="normal">Shifra</tspan><tspan font-style="normal" class="text-inner-tspan" font-weight="normal"> e</tspan><tspan font-style="normal" class="text-inner-tspan" font-weight="normal"> kontrollit</tspan></tspan><tspan class="text-outer-tspan row" x="0" y="1em" dy="1.1em"><tspan font-style="normal" class="text-inner-tspan" font-weight="normal">e</tspan><tspan font-style="normal" class="text-inner-tspan" font-weight="normal"> vlefshme?</tspan></tspan></text></g></g></g><g class="node default" id="my-svg-flowchart-D-5" data-look="classic" transform="translate(275.6625061035156, 1058.162498474121)"><rect class="basic label-container" style="fill:#ffebee !important;stroke:#c62828 !important" x="-103.8203125" y="-23.5" width="207.640625" height="47"/><g class="label" style="" transform="translate(0, -8.5)"><rect/><g><rect class="background" style="stroke: none"/><text y="-10.1" style=""><tspan class="text-outer-tspan row" x="0" y="-0.1em" dy="1.1em"><tspan font-style="normal" class="text-inner-tspan" font-weight="normal">Shfaq</tspan><tspan font-style="normal" class="text-inner-tspan" font-weight="normal"> gabim</tspan><tspan font-style="normal" class="text-inner-tspan" font-weight="normal"> validimi</tspan></tspan></text></g></g></g><g class="node default" id="my-svg-flowchart-E-7" data-look="classic" transform="translate(328.4671936035156, 1272.5437507629395)"><rect class="basic label-container" style="fill:#fff3e0 !important;stroke:#e65100 !important" x="-128.2734375" y="-32.29999923706055" width="256.546875" height="64.5999984741211"/><g class="label" style="" transform="translate(0, -17.299999237060547)"><rect/><g><rect class="background" style="stroke: none"/><text y="-10.1" style=""><tspan class="text-outer-tspan row" x="0" y="-0.1em" dy="1.1em"><tspan font-style="normal" class="text-inner-tspan" font-weight="normal">Regjistrim</tspan><tspan font-style="normal" class="text-inner-tspan" font-weight="normal"> manual</tspan></tspan><tspan class="text-outer-tspan row" x="0" y="1em" dy="1.1em"><tspan font-style="normal" class="text-inner-tspan" font-weight="normal">(gjithmonë</tspan><tspan font-style="normal" class="text-inner-tspan" font-weight="normal"> i</tspan><tspan font-style="normal" class="text-inner-tspan" font-weight="normal"> disponueshëm)</tspan></tspan></text></g></g></g><g class="node default" id="my-svg-flowchart-F-9" data-look="classic" transform="translate(119.08125305175781, 465.81874084472656)"><rect class="basic label-container" style="" x="-99.375" y="-23.5" width="198.75" height="47"/><g class="label" style="" transform="translate(0, -8.5)"><rect/><g><rect class="background" style="stroke: none"/><text y="-10.1" style=""><tspan class="text-outer-tspan row" x="0" y="-0.1em" dy="1.1em"><tspan font-style="normal" class="text-inner-tspan" font-weight="normal">Kërko</tspan><tspan font-style="normal" class="text-inner-tspan" font-weight="normal"> Open</tspan><tspan font-style="normal" class="text-inner-tspan" font-weight="normal"> Library</tspan></tspan></text></g></g></g><g class="node default" id="my-svg-flowchart-G-11" data-look="classic" transform="translate(119.08125305175781, 650.3999938964844)"><polygon points="111.08124923706055,0 222.1624984741211,-111.08124923706055 111.08124923706055,-222.1624984741211 0,-111.08124923706055" class="label-container" transform="translate(-110.58124923706055, 111.08124923706055)"/><g class="label" style="" transform="translate(0, -17.299999237060547)"><rect/><g><rect class="background" style="stroke: none"/><text y="-10.1" style=""><tspan class="text-outer-tspan row" x="0" y="-0.1em" dy="1.1em"><tspan font-style="normal" class="text-inner-tspan" font-weight="normal">U</tspan><tspan font-style="normal" class="text-inner-tspan" font-weight="normal"> gjetën</tspan><tspan font-style="normal" class="text-inner-tspan" font-weight="normal"> metatëdhëna</tspan></tspan><tspan class="text-outer-tspan row" x="0" y="1em" dy="1.1em"><tspan font-style="normal" class="text-inner-tspan" font-weight="normal">të</tspan><tspan font-style="normal" class="text-inner-tspan" font-weight="normal"> dobishme?</tspan></tspan></text></g></g></g><g class="node default" id="my-svg-flowchart-H-13" data-look="classic" transform="translate(119.08125305175781, 864.7812461853027)"><rect class="basic label-container" style="fill:#e8f5e9 !important;stroke:#2e7d32 !important" x="-104.7109375" y="-32.29999923706055" width="209.421875" height="64.5999984741211"/><g class="label" style="" transform="translate(0, -17.299999237060547)"><rect/><g><rect class="background" style="stroke: none"/><text y="-10.1" style=""><tspan class="text-outer-tspan row" x="0" y="-0.1em" dy="1.1em"><tspan font-style="normal" class="text-inner-tspan" font-weight="normal">Kthe</tspan><tspan font-style="normal" class="text-inner-tspan" font-weight="normal"> metatëdhëna</tspan></tspan><tspan class="text-outer-tspan row" x="0" y="1em" dy="1.1em"><tspan font-style="normal" class="text-inner-tspan" font-weight="normal">Ofrues:</tspan><tspan font-style="normal" class="text-inner-tspan" font-weight="normal"> Open</tspan><tspan font-style="normal" class="text-inner-tspan" font-weight="normal"> Library</tspan></tspan></text></g></g></g><g class="node default" id="my-svg-flowchart-I-15" data-look="classic" transform="translate(604.4140701293945, 864.7812461853027)"><rect class="basic label-container" style="" x="-122.9609375" y="-32.29999923706055" width="245.921875" height="64.5999984741211"/><g class="label" style="" transform="translate(0, -17.299999237060547)"><rect/><g><rect class="background" style="stroke: none"/><text y="-10.1" style=""><tspan class="text-outer-tspan row" x="0" y="-0.1em" dy="1.1em"><tspan font-style="normal" class="text-inner-tspan" font-weight="normal">Kërko</tspan><tspan font-style="normal" class="text-inner-tspan" font-weight="normal"> API-n</tspan><tspan font-style="normal" class="text-inner-tspan" font-weight="normal"> e</tspan></tspan><tspan class="text-outer-tspan row" x="0" y="1em" dy="1.1em"><tspan font-style="normal" class="text-inner-tspan" font-weight="normal">metatëdhënave</tspan><tspan font-style="normal" class="text-inner-tspan" font-weight="normal"> Let</tspan><tspan font-style="normal" class="text-inner-tspan" font-weight="normal"> Books</tspan></tspan></text></g></g></g><g class="node default" id="my-svg-flowchart-J-17" data-look="classic" transform="translate(604.4140701293945, 1058.162498474121)"><polygon points="111.08124923706055,0 222.1624984741211,-111.08124923706055 111.08124923706055,-222.1624984741211 0,-111.08124923706055" class="label-container" transform="translate(-110.58124923706055, 111.08124923706055)"/><g class="label" style="" transform="translate(0, -17.299999237060547)"><rect/><g><rect class="background" style="stroke: none"/><text y="-10.1" style=""><tspan class="text-outer-tspan row" x="0" y="-0.1em" dy="1.1em"><tspan font-style="normal" class="text-inner-tspan" font-weight="normal">U</tspan><tspan font-style="normal" class="text-inner-tspan" font-weight="normal"> gjetën</tspan><tspan font-style="normal" class="text-inner-tspan" font-weight="normal"> metatëdhëna</tspan></tspan><tspan class="text-outer-tspan row" x="0" y="1em" dy="1.1em"><tspan font-style="normal" class="text-inner-tspan" font-weight="normal">të</tspan><tspan font-style="normal" class="text-inner-tspan" font-weight="normal"> dobishme?</tspan></tspan></text></g></g></g><g class="node default" id="my-svg-flowchart-K-19" data-look="classic" transform="translate(663.1367263793945, 1272.5437507629395)"><rect class="basic label-container" style="fill:#e8f5e9 !important;stroke:#2e7d32 !important" x="-108.71875" y="-32.29999923706055" width="217.4375" height="64.5999984741211"/><g class="label" style="" transform="translate(0, -17.299999237060547)"><rect/><g><rect class="background" style="stroke: none"/><text y="-10.1" style=""><tspan class="text-outer-tspan row" x="0" y="-0.1em" dy="1.1em"><tspan font-style="normal" class="text-inner-tspan" font-weight="normal">Kthe</tspan><tspan font-style="normal" class="text-inner-tspan" font-weight="normal"> metatëdhëna</tspan></tspan><tspan class="text-outer-tspan row" x="0" y="1em" dy="1.1em"><tspan font-style="normal" class="text-inner-tspan" font-weight="normal">Ofrues:</tspan><tspan font-style="normal" class="text-inner-tspan" font-weight="normal"> Let</tspan><tspan font-style="normal" class="text-inner-tspan" font-weight="normal"> Books</tspan><tspan font-style="normal" class="text-inner-tspan" font-weight="normal"> API</tspan></tspan></text></g></g></g></g></g></g><defs><filter id="my-svg-drop-shadow" height="130%" width="130%"><feDropShadow dx="4" dy="4" stdDeviation="0" flood-opacity="0.06" flood-color="#000000"/></filter></defs><defs><filter id="my-svg-drop-shadow-small" height="150%" width="150%"><feDropShadow dx="2" dy="2" stdDeviation="0" flood-opacity="0.06" flood-color="#000000"/></filter></defs><linearGradient id="my-svg-gradient" gradientUnits="objectBoundingBox" x1="0%" y1="0%" x2="100%" y2="0%"><stop offset="0%" stop-color="hsl(0, 0%, 83.3333333333%)" stop-opacity="1"/><stop offset="100%" stop-color="hsl(0, 0%, 88.9215686275%)" stop-opacity="1"/></linearGradient><text text-anchor="middle" x="390.17774200439453" y="-25" class="flowchartTitleText">Zinxhiri i kërkimit të metatëdhënave ISBN</text></svg>