<svg id="my-svg" width="100%" xmlns="http://www.w3.org/2000/svg" xmlns:xlink="http://www.w3.org/1999/xlink" class="flowchart" style="max-width: 762.23px; background-color: transparent;" viewBox="0.5000076293945312 -49 762.23046875 1361.8436279296875" role="graphics-document document" aria-roledescription="flowchart-v2"><style>#my-svg{font-family:"trebuchet ms",verdana,arial,sans-serif;font-size:16px;fill:#000000;}@keyframes edge-animation-frame{from{stroke-dashoffset:0;}}@keyframes dash{to{stroke-dashoffset:0;}}#my-svg .edge-animation-slow{stroke-dasharray:9,5!important;stroke-dashoffset:900;animation:dash 50s linear infinite;stroke-linecap:round;}#my-svg .edge-animation-fast{stroke-dasharray:9,5!important;stroke-dashoffset:900;animation:dash 20s linear infinite;stroke-linecap:round;}#my-svg .error-icon{fill:#552222;}#my-svg .error-text{fill:#552222;stroke:#552222;}#my-svg .edge-thickness-normal{stroke-width:1px;}#my-svg .edge-thickness-thick{stroke-width:3.5px;}#my-svg .edge-pattern-solid{stroke-dasharray:0;}#my-svg .edge-thickness-invisible{stroke-width:0;fill:none;}#my-svg .edge-pattern-dashed{stroke-dasharray:3;}#my-svg .edge-pattern-dotted{stroke-dasharray:2;}#my-svg .marker{fill:#666;stroke:#666;}#my-svg .marker.cross{stroke:#666;}#my-svg svg{font-family:"trebuchet ms",verdana,arial,sans-serif;font-size:16px;}#my-svg p{margin:0;}#my-svg .label{font-family:"trebuchet ms",verdana,arial,sans-serif;color:#000000;}#my-svg .cluster-label text{fill:#333;}#my-svg .cluster-label span{color:#333;}#my-svg .cluster-label span p{background-color:transparent;}#my-svg .label text,#my-svg span{fill:#000000;color:#000000;}#my-svg .node rect,#my-svg .node circle,#my-svg .node ellipse,#my-svg .node polygon,#my-svg .node path{fill:#eee;stroke:#999;stroke-width:1px;}#my-svg .rough-node .label text,#my-svg .node .label text,#my-svg .image-shape .label,#my-svg .icon-shape .label{text-anchor:middle;}#my-svg .node .katex path{fill:#000;stroke:#000;stroke-width:1px;}#my-svg .rough-node .label,#my-svg .node .label,#my-svg .image-shape .label,#my-svg .icon-shape .label{text-align:center;}#my-svg .node.clickable{cursor:pointer;}#my-svg .root .anchor path{fill:#666!important;stroke-width:0;stroke:#666;}#my-svg .arrowheadPath{fill:#333333;}#my-svg .edgePath .path{stroke:#666;stroke-width:1px;}#my-svg .flowchart-link{stroke:#666;fill:none;}#my-svg .edgeLabel{background-color:white;text-align:center;}#my-svg .edgeLabel p{background-color:white;}#my-svg .edgeLabel rect{opacity:0.5;background-color:white;fill:white;}#my-svg .labelBkg{background-color:rgba(255, 255, 255, 0.5);}#my-svg .cluster rect{fill:hsl(0, 0%, 98.9215686275%);stroke:#707070;stroke-width:1px;}#my-svg .cluster text{fill:#333;}#my-svg .cluster span{color:#333;}#my-svg div.mermaidTooltip{position:absolute;text-align:center;max-width:200px;padding:2px;font-family:"trebuchet ms",verdana,arial,sans-serif;font-size:12px;background:hsl(-160, 0%, 93.3333333333%);border:1px solid #707070;border-radius:2px;pointer-events:none;z-index:100;}#my-svg .flowchartTitleText{text-anchor:middle;font-size:18px;fill:#000000;}#my-svg rect.text{fill:none;stroke-width:0;}#my-svg .icon-shape,#my-svg .image-shape{background-color:white;text-align:center;}#my-svg .icon-shape p,#my-svg .image-shape p{background-color:white;padding:2px;}#my-svg .icon-shape .label rect,#my-svg .image-shape .label rect{opacity:0.5;background-color:white;fill:white;}#my-svg .label-icon{display:inline-block;height:1em;overflow:visible;vertical-align:-0.125em;}#my-svg .node .label-icon path{fill:currentColor;stroke:revert;stroke-width:revert;}#my-svg .node .neo-node{stroke:#999;}#my-svg [data-look="neo"].node rect,#my-svg [data-look="neo"].cluster rect,#my-svg [data-look="neo"].node polygon{stroke:url(#my-svg-gradient);filter:drop-shadow( 1px 2px 2px rgba(185,185,185,1));}#my-svg [data-look="neo"].node path{stroke:url(#my-svg-gradient);stroke-width:1px;}#my-svg [data-look="neo"].node .outer-path{filter:drop-shadow( 1px 2px 2px rgba(185,185,185,1));}#my-svg [data-look="neo"].node .neo-line path{stroke:#999;filter:none;}#my-svg [data-look="neo"].node circle{stroke:url(#my-svg-gradient);filter:drop-shadow( 1px 2px 2px rgba(185,185,185,1));}#my-svg [data-look="neo"].node circle .state-start{fill:#000000;}#my-svg [data-look="neo"].icon-shape .icon{fill:url(#my-svg-gradient);filter:drop-shadow( 1px 2px 2px rgba(185,185,185,1));}#my-svg [data-look="neo"].icon-shape .icon-neo path{stroke:url(#my-svg-gradient);filter:drop-shadow( 1px 2px 2px rgba(185,185,185,1));}#my-svg :root{--mermaid-font-family:"trebuchet ms",verdana,arial,sans-serif;}</style><g><marker id="my-svg_flowchart-v2-pointEnd" class="marker flowchart-v2" viewBox="0 0 10 10" refX="5" refY="5" markerUnits="userSpaceOnUse" markerWidth="8" markerHeight="8" orient="auto"><path d="M 0 0 L 10 5 L 0 10 z" class="arrowMarkerPath" style="stroke-width: 1; stroke-dasharray: 1, 0;"/></marker><marker id="my-svg_flowchart-v2-pointStart" class="marker flowchart-v2" viewBox="0 0 10 10" refX="4.5" refY="5" markerUnits="userSpaceOnUse" markerWidth="8" markerHeight="8" orient="auto"><path d="M 0 5 L 10 10 L 10 0 z" class="arrowMarkerPath" style="stroke-width: 1; stroke-dasharray: 1, 0;"/></marker><marker id="my-svg_flowchart-v2-pointEnd-margin" class="marker flowchart-v2" viewBox="0 0 11.5 14" refX="11.5" refY="7" markerUnits="userSpaceOnUse" markerWidth="10.5" markerHeight="14" orient="auto"><path d="M 0 0 L 11.5 7 L 0 14 z" class="arrowMarkerPath" style="stroke-width: 0; stroke-dasharray: 1, 0;"/></marker><marker id="my-svg_flowchart-v2-pointStart-margin" class="marker flowchart-v2" viewBox="0 0 11.5 14" refX="1" refY="7" markerUnits="userSpaceOnUse" markerWidth="11.5" markerHeight="14" orient="auto"><polygon points="0,7 11.5,14 11.5,0" class="arrowMarkerPath" style="stroke-width: 0; stroke-dasharray: 1, 0;"/></marker><marker id="my-svg_flowchart-v2-circleEnd" class="marker flowchart-v2" viewBox="0 0 10 10" refX="11" refY="5" markerUnits="userSpaceOnUse" markerWidth="11" markerHeight="11" orient="auto"><circle cx="5" cy="5" r="5" class="arrowMarkerPath" style="stroke-width: 1; stroke-dasharray: 1, 0;"/></marker><marker id="my-svg_flowchart-v2-circleStart" class="marker flowchart-v2" viewBox="0 0 10 10" refX="-1" refY="5" markerUnits="userSpaceOnUse" markerWidth="11" markerHeight="11" orient="auto"><circle cx="5" cy="5" r="5" class="arrowMarkerPath" style="stroke-width: 1; stroke-dasharray: 1, 0;"/></marker><marker id="my-svg_flowchart-v2-circleEnd-margin" class="marker flowchart-v2" viewBox="0 0 10 10" refY="5" refX="12.25" markerUnits="userSpaceOnUse" markerWidth="14" markerHeight="14" orient="auto"><circle cx="5" cy="5" r="5" class="arrowMarkerPath" style="stroke-width: 0; stroke-dasharray: 1, 0;"/></marker><marker id="my-svg_flowchart-v2-circleStart-margin" class="marker flowchart-v2" viewBox="0 0 10 10" refX="-2" refY="5" markerUnits="userSpaceOnUse" markerWidth="14" markerHeight="14" orient="auto"><circle cx="5" cy="5" r="5" class="arrowMarkerPath" style="stroke-width: 0; stroke-dasharray: 1, 0;"/></marker><marker id="my-svg_flowchart-v2-crossEnd" class="marker cross flowchart-v2" viewBox="0 0 11 11" refX="12" refY="5.2" markerUnits="userSpaceOnUse" markerWidth="11" markerHeight="11" orient="auto"><path d="M 1,1 l 9,9 M 10,1 l -9,9" class="arrowMarkerPath" style="stroke-width: 2; stroke-dasharray: 1, 0;"/></marker><marker id="my-svg_flowchart-v2-crossStart" class="marker cross flowchart-v2" viewBox="0 0 11 11" refX="-1" refY="5.2" markerUnits="userSpaceOnUse" markerWidth="11" markerHeight="11" orient="auto"><path d="M 1,1 l 9,9 M 10,1 l -9,9" class="arrowMarkerPath" style="stroke-width: 2; stroke-dasharray: 1, 0;"/></marker><marker id="my-svg_flowchart-v2-crossEnd-margin" class="marker cross flowchart-v2" viewBox="0 0 15 15" refX="17.7" refY="7.5" markerUnits="userSpaceOnUse" markerWidth="12" markerHeight="12" orient="auto"><path d="M 1,1 L 14,14 M 1,14 L 14,1" class="arrowMarkerPath" style="stroke-width: 2.5;"/></marker><marker id="my-svg_flowchart-v2-crossStart-margin" class="marker cross flowchart-v2" viewBox="0 0 15 15" refX="-3.5" refY="7.5" markerUnits="userSpaceOnUse" markerWidth="12" markerHeight="12" orient="auto"><path d="M 1,1 L 14,14 M 1,14 L 14,1" class="arrowMarkerPath" style="stroke-width: 2.5; stroke-dasharray: 1, 0;"/></marker><g class="root"><g class="clusters"/><g class="edgePaths"><path d="M197.872,40.5L197.789,44.583C197.705,48.667,197.539,56.833,197.455,64.417C197.372,72,197.372,79,197.372,82.5L197.372,86" id="my-svg-L_A_B_0" class="edge-thickness-normal edge-pattern-solid edge-thickness-normal edge-pattern-solid flowchart-link" style=";" data-edge="true" data-et="edge" data-id="L_A_B_0" data-points="W3sieCI6MTk3Ljg3MTg3OTU3NzYzNjcyLCJ5Ijo0MC41MDAwMDAwMDAwMDAwMTR9LHsieCI6MTk3LjM3MTg3OTU3NzYzNjcyLCJ5Ijo2NX0seyJ4IjoxOTcuMzcxODc5NTc3NjM2NzIsInkiOjkwfV0=" data-look="classic" marker-end="url(#my-svg_flowchart-v2-pointEnd)"/><path d="M197.372,137L197.372,141.167C197.372,145.333,197.372,153.667,197.372,161.333C197.372,169,197.372,176,197.372,179.5L197.372,183" id="my-svg-L_B_C_0" class="edge-thickness-normal edge-pattern-solid edge-thickness-normal edge-pattern-solid flowchart-link" style=";" data-edge="true" data-et="edge" data-id="L_B_C_0" data-points="W3sieCI6MTk3LjM3MTg3OTU3NzYzNjcyLCJ5IjoxMzd9LHsieCI6MTk3LjM3MTg3OTU3NzYzNjcyLCJ5IjoxNjJ9LHsieCI6MTk3LjM3MTg3OTU3NzYzNjcyLCJ5IjoxODYuOTk5OTk5OTk5OTk5OTd9XQ==" data-look="classic" marker-end="url(#my-svg_flowchart-v2-pointEnd)"/><path d="M232.406,336.285L239.615,348.041C246.825,359.796,261.244,383.307,268.453,404.896C275.663,426.485,275.663,446.152,275.663,464.069C275.663,481.985,275.663,498.152,275.663,528.916C275.663,559.679,275.663,605.04,275.663,652.15C275.663,699.26,275.663,748.121,275.663,783.851C275.663,819.581,275.663,842.181,275.663,863.031C275.663,883.881,275.663,902.981,275.663,930.628C275.663,958.275,275.663,994.469,275.663,1012.566L275.663,1030.662" id="my-svg-L_C_D_0" class="edge-thickness-normal edge-pattern-solid edge-thickness-normal edge-pattern-solid flowchart-link" style=";" data-edge="true" data-et="edge" data-id="L_C_D_0" data-points="W3sieCI6MjMyLjQwNTY5ODI1OTQxNDM4LCJ5IjozMzYuMjg0OTIyMTYyOTQ4OTN9LHsieCI6Mjc1LjY2MjUwNjEwMzUxNTYsInkiOjQwNi44MTg3NDA4NDQ3MjY1Nn0seyJ4IjoyNzUuNjYyNTA2MTAzNTE1NiwieSI6NDY1LjgxODc0MDg0NDcyNjU2fSx7IngiOjI3NS42NjI1MDYxMDM1MTU2LCJ5Ijo1MTQuMzE4NzQwODQ0NzI2Nn0seyJ4IjoyNzUuNjYyNTA2MTAzNTE1NiwieSI6NjUwLjM5OTk5Mzg5NjQ4NDR9LHsieCI6Mjc1LjY2MjUwNjEwMzUxNTYsInkiOjc5Ni45ODEyNDY5NDgyNDIyfSx7IngiOjI3NS42NjI1MDYxMDM1MTU2LCJ5Ijo4NjQuNzgxMjQ2MTg1MzAyN30seyJ4IjoyNzUuNjYyNTA2MTAzNTE1NiwieSI6OTIyLjA4MTI0NTQyMjM2MzN9LHsieCI6Mjc1LjY2MjUwNjEwMzUxNTYsInkiOjEwMzQuNjYyNDk4NDc0MTIxfV0=" data-look="classic" marker-end="url(#my-svg_flowchart-v2-pointEnd)"/><path d="M275.663,1081.662L275.663,1102.176C275.663,1122.69,275.663,1163.717,279.861,1189.621C284.059,1215.525,292.456,1226.307,296.655,1231.697L300.853,1237.088" id="my-svg-L_D_E_0" class="edge-thickness-normal edge-pattern-solid edge-thickness-normal edge-pattern-solid flowchart-link" style=";" data-edge="true" data-et="edge" data-id="L_D_E_0" data-points="W3sieCI6Mjc1LjY2MjUwNjEwMzUxNTYsInkiOjEwODEuNjYyNDk4NDc0MTIxfSx7IngiOjI3NS42NjI1MDYxMDM1MTU2LCJ5IjoxMjA0Ljc0Mzc1MTUyNTg3OX0seyJ4IjozMDMuMzEwOTc4NDgzMjIyMjQsInkiOjEyNDAuMjQzNzUxNTI1ODc5fV0=" data-look="classic" marker-end="url(#my-svg_flowchart-v2-pointEnd)"/><path d="M162.338,336.285L155.129,348.041C147.919,359.796,133.5,383.307,126.291,400.313C119.081,417.319,119.081,427.819,119.081,433.069L119.081,438.319" id="my-svg-L_C_F_0" class="edge-thickness-normal edge-pattern-solid edge-thickness-normal edge-pattern-solid flowchart-link" style=";" data-edge="true" data-et="edge" data-id="L_C_F_0" data-points="W3sieCI6MTYyLjMzODA2MDg5NTg1OTA2LCJ5IjozMzYuMjg0OTIyMTYyOTQ4OTN9LHsieCI6MTE5LjA4MTI1MzA1MTc1NzgxLCJ5Ijo0MDYuODE4NzQwODQ0NzI2NTZ9LHsieCI6MTE5LjA4MTI1MzA1MTc1NzgxLCJ5Ijo0NDIuMzE4NzQwODQ0NzI2NTZ9XQ==" data-look="classic" marker-end="url(#my-svg_flowchart-v2-pointEnd)"/><path d="M119.081,489.319L119.081,493.485C119.081,497.652,119.081,505.985,119.081,513.652C119.081,521.319,119.081,528.319,119.081,531.819L119.081,535.319" id="my-svg-L_F_G_0" class="edge-thickness-normal edge-pattern-solid edge-thickness-normal edge-pattern-solid flowchart-link" style=";" data-edge="true" data-et="edge" data-id="L_F_G_0" data-points="W3sieCI6MTE5LjA4MTI1MzA1MTc1NzgxLCJ5Ijo0ODkuMzE4NzQwODQ0NzI2NTZ9LHsieCI6MTE5LjA4MTI1MzA1MTc1NzgxLCJ5Ijo1MTQuMzE4NzQwODQ0NzI2Nn0seyJ4IjoxMTkuMDgxMjUzMDUxNzU3ODEsInkiOjUzOS4zMTg3NDA4NDQ3MjY2fV0=" data-look="classic" marker-end="url(#my-svg_flowchart-v2-pointEnd)"/><path d="M119.081,761.481L119.081,767.398C119.081,773.315,119.081,785.148,119.081,796.315C119.081,807.481,119.081,817.981,119.081,823.231L119.081,828.481" id="my-svg-L_G_H_0" class="edge-thickness-normal edge-pattern-solid edge-thickness-normal edge-pattern-solid flowchart-link" style=";" data-edge="true" data-et="edge" data-id="L_G_H_0" data-points="W3sieCI6MTE5LjA4MTI1MzA1MTc1NzgxLCJ5Ijo3NjEuNDgxMjQ2OTQ4MjQyM30seyJ4IjoxMTkuMDgxMjUzMDUxNzU3ODEsInkiOjc5Ni45ODEyNDY5NDgyNDIyfSx7IngiOjExOS4wODEyNTMwNTE3NTc4MSwieSI6ODMyLjQ4MTI0Njk0ODI0MjJ9XQ==" data-look="classic" marker-end="url(#my-svg_flowchart-v2-pointEnd)"/><path d="M203.678,676.885L267.613,696.901C331.548,716.917,459.419,756.949,523.354,782.215C587.289,807.481,587.289,817.981,587.289,823.231L587.289,828.481" id="my-svg-L_G_I_0" class="edge-thickness-normal edge-pattern-solid edge-thickness-normal edge-pattern-solid flowchart-link" style=";" data-edge="true" data-et="edge" data-id="L_G_I_0" data-points="W3sieCI6MjAzLjY3NzkyNzgwODI5Nzg1LCJ5Ijo2NzYuODg0NTcyMTkxNzAyMn0seyJ4Ijo1ODcuMjg5MDcwMTI5Mzk0NSwieSI6Nzk2Ljk4MTI0Njk0ODI0MjJ9LHsieCI6NTg3LjI4OTA3MDEyOTM5NDUsInkiOjgzMi40ODEyNDY5NDgyNDIyfV0=" data-look="classic" marker-end="url(#my-svg_flowchart-v2-pointEnd)"/><path d="M587.289,897.081L587.289,901.248C587.289,905.415,587.289,913.748,587.289,921.415C587.289,929.081,587.289,936.081,587.289,939.581L587.289,943.081" id="my-svg-L_I_J_0" class="edge-thickness-normal edge-pattern-solid edge-thickness-normal edge-pattern-solid flowchart-link" style=";" data-edge="true" data-et="edge" data-id="L_I_J_0" data-points="W3sieCI6NTg3LjI4OTA3MDEyOTM5NDUsInkiOjg5Ny4wODEyNDU0MjIzNjMzfSx7IngiOjU4Ny4yODkwNzAxMjkzOTQ1LCJ5Ijo5MjIuMDgxMjQ1NDIyMzYzM30seyJ4Ijo1ODcuMjg5MDcwMTI5Mzk1NiwieSI6OTQ3LjA4MTI0NTQyMjM2NDJ9XQ==" data-look="classic" marker-end="url(#my-svg_flowchart-v2-pointEnd)"/><path d="M619.061,1137.471L623.553,1148.683C628.045,1159.896,637.028,1182.32,641.52,1198.782C646.012,1215.244,646.012,1225.744,646.012,1230.994L646.012,1236.244" id="my-svg-L_J_K_0" class="edge-thickness-normal edge-pattern-solid edge-thickness-normal edge-pattern-solid flowchart-link" style=";" data-edge="true" data-et="edge" data-id="L_J_K_0" data-points="W3sieCI6NjE5LjA2MTQxMzE5MzY5NTMsInkiOjExMzcuNDcxNDA4NDYxNTc4fSx7IngiOjY0Ni4wMTE3MjYzNzkzOTQ1LCJ5IjoxMjA0Ljc0Mzc1MTUyNTg3OX0seyJ4Ijo2NDYuMDExNzI2Mzc5Mzk0NSwieSI6MTI0MC4yNDM3NTE1MjU4Nzl9XQ==" data-look="classic" marker-end="url(#my-svg_flowchart-v2-pointEnd)"/><path d="M535.861,1117.816L523.37,1132.304C510.88,1146.792,485.899,1175.768,462.443,1195.869C438.988,1215.97,417.058,1227.195,406.093,1232.808L395.128,1238.421" id="my-svg-L_J_E_0" class="edge-thickness-normal edge-pattern-solid edge-thickness-normal edge-pattern-solid flowchart-link" style=";" data-edge="true" data-et="edge" data-id="L_J_E_0" data-points="W3sieCI6NTM1Ljg2MDgyNzc3MjI1MzUsInkiOjExMTcuODE1NTA5MTY4NzM4fSx7IngiOjQ2MC45MTc5NzYzNzkzOTQ1MywieSI6MTIwNC43NDM3NTE1MjU4Nzl9LHsieCI6MzkxLjU2NjkwMjAyMTY2MDQ0LCJ5IjoxMjQwLjI0Mzc1MTUyNTg3OX1d" data-look="classic" marker-end="url(#my-svg_flowchart-v2-pointEnd)"/></g><g class="edgeLabels"><g class="edgeLabel"><g class="label" data-id="L_A_B_0" transform="translate(0, 0)"><text y="-10.1" text-anchor="middle"><tspan class="text-outer-tspan row" x="0" y="-0.1em" dy="1.1em" text-anchor="middle"/></text></g></g><g><rect class="background" style="stroke: none"/></g><g class="edgeLabel"><g class="label" data-id="L_B_C_0" transform="translate(0, 0)"><text y="-10.1" text-anchor="middle"><tspan class="text-outer-tspan row" x="0" y="-0.1em" dy="1.1em" text-anchor="middle"/></text></g></g><g><rect class="background" style="stroke: none"/></g><g class="edgeLabel" transform="translate(275.6625061035156, 650.3999938964844)"><g class="label" data-id="L_C_D_0" transform="translate(-0.046875, -10.5)"><g><rect class="background" style="" x="-10.453125" y="0" width="21" height="21"/><text y="-10.1" text-anchor="middle" style=""><tspan class="text-outer-tspan row" x="0" y="-0.1em" dy="1.1em" text-anchor="middle"><tspan font-style="normal" class="text-inner-tspan" font-weight="normal">Jo</tspan></tspan></text></g></g></g><g class="edgeLabel"><g class="label" data-id="L_D_E_0" transform="translate(0, 0)"><text y="-10.1" text-anchor="middle"><tspan class="text-outer-tspan row" x="0" y="-0.1em" dy="1.1em" text-anchor="middle"/></text></g></g><g><rect class="background" style="stroke: none"/></g><g class="edgeLabel" transform="translate(119.08125305175781, 406.81874084472656)"><g class="label" data-id="L_C_F_0" transform="translate(-0.046875, -10.5)"><g><rect class="background" style="" x="-11.7890625" y="0" width="23.671875" height="21"/><text y="-10.1" text-anchor="middle" style=""><tspan class="text-outer-tspan row" x="0" y="-0.1em" dy="1.1em" text-anchor="middle"><tspan font-style="normal" class="text-inner-tspan" font-weight="normal">Po</tspan></tspan></text></g></g></g><g class="edgeLabel"><g class="label" data-id="L_F_G_0" transform="translate(0, 0)"><text y="-10.1" text-anchor="middle"><tspan class="text-outer-tspan row" x="0" y="-0.1em" dy="1.1em" text-anchor="middle"/></text></g></g><g><rect class="background" style="stroke: none"/></g><g class="edgeLabel" transform="translate(119.08125305175781, 796.9812469482422)"><g class="label" data-id="L_G_H_0" transform="translate(-0.046875, -10.5)"><g><rect class="background" style="" x="-11.7890625" y="0" width="23.671875" height="21"/><text y="-10.1" text-anchor="middle" style=""><tspan class="text-outer-tspan row" x="0" y="-0.1em" dy="1.1em" text-anchor="middle"><tspan font-style="normal" class="text-inner-tspan" font-weight="normal">Po</tspan></tspan></text></g></g></g><g class="edgeLabel" transform="translate(587.2890701293945, 796.9812469482422)"><g class="label" data-id="L_G_I_0" transform="translate(0, -10.5)"><g><rect class="background" style="" x="-85.609375" y="0" width="171.21875" height="21"/><text y="-10.1" text-anchor="middle" style=""><tspan class="text-outer-tspan row" x="0" y="-0.1em" dy="1.1em" text-anchor="middle"><tspan font-style="normal" class="text-inner-tspan" font-weight="normal">Jo</tspan><tspan font-style="normal" class="text-inner-tspan" font-weight="normal"> /</tspan><tspan font-style="normal" class="text-inner-tspan" font-weight="normal"> Pa</tspan><tspan font-style="normal" class="text-inner-tspan" font-weight="normal"> disponueshmëri</tspan></tspan></text></g></g></g><g class="edgeLabel"><g class="label" data-id="L_I_J_0" transform="translate(0, 0)"><text y="-10.1" text-anchor="middle"><tspan class="text-outer-tspan row" x="0" y="-0.1em" dy="1.1em" text-anchor="middle"/></text></g></g><g><rect class="background" style="stroke: none"/></g><g class="edgeLabel" transform="translate(646.0117263793945, 1204.743751525879)"><g class="label" data-id="L_J_K_0" transform="translate(-0.046875, -10.5)"><g><rect class="background" style="" x="-11.7890625" y="0" width="23.671875" height="21"/><text y="-10.1" text-anchor="middle" style=""><tspan class="text-outer-tspan row" x="0" y="-0.1em" dy="1.1em" text-anchor="middle"><tspan font-style="normal" class="text-inner-tspan" font-weight="normal">Po</tspan></tspan></text></g></g></g><g class="edgeLabel" transform="translate(472.95353, 1190.78339)"><g class="label" data-id="L_J_E_0" transform="translate(0, -10.5)"><g><rect class="background" style="" x="-85.609375" y="0" width="171.21875" height="21"/><text y="-10.1" text-anchor="middle" style=""><tspan class="text-outer-tspan row" x="0" y="-0.1em" dy="1.1em" text-anchor="middle"><tspan font-style="normal" class="text-inner-tspan" font-weight="normal">Jo</tspan><tspan font-style="normal" class="text-inner-tspan" font-weight="normal"> /</tspan><tspan font-style="normal" class="text-inner-tspan" font-weight="normal"> Pa</tspan><tspan font-style="normal" class="text-inner-tspan" font-weight="normal"> disponueshmëri</tspan></tspan></text></g></g></g></g><g class="nodes"><g class="node default" id="my-svg-flowchart-A-0" data-look="classic" transform="translate(197.37187957763672, 24)"><g class="basic label-container outer-path"><path d="M-36.73828125 -16 C-15.890824875451884 -16, 4.956631499096233 -16, 36.73828125 -16 C36.73828125 -16, 36.73828125 -16, 36.73828125 -16 C37.03793868718605 -15.990390569237261, 37.3375961243721 -15.980781138474523, 37.763404769691405 -15.967126284005381 C38.13100982443984 -15.93166386648356, 38.49861487918828 -15.89620144896174, 38.784315836952096 -15.868640221171939 C39.12602342807149 -15.813395587821702, 39.467731019190886 -15.758150954471464, 39.79681930922195 -15.704946511857047 C40.04885391595941 -15.647421257548734, 40.300888522696866 -15.589896003240423, 40.79675459255211 -15.476717808624471 C41.08974659515998 -15.389759320196863, 41.38273859776785 -15.302800831769254, 41.780012738377934 -15.184891952170698 C42.01912925357703 -15.096894864208595, 42.25824576877612 -15.008897776246494, 42.74255332806999 -14.830668117536348 C42.96950525133009 -14.730203233398706, 43.196457174590186 -14.629738349261066, 43.68042107588093 -14.415501886438706 C43.86664807545801 -14.318347380043429, 44.05287507503509 -14.221192873648151, 44.589762082063004 -13.941099265974232 C44.93909075434489 -13.729334171953811, 45.28841942662677 -13.51756907793339, 45.46683966936878 -13.409409678269451 C45.78511838092032 -13.187392227154454, 46.103397092471866 -12.965374776039457, 46.308049737859456 -12.822617949887306 C46.600981425686875 -12.589012724084531, 46.893913113514294 -12.355407498281757, 47.10993557492461 -12.183135333906153 C47.40840589369352 -11.912072487492116, 47.70687621246243 -11.64100964107808, 47.869202059655784 -11.493589601563642 C48.12510375870867 -11.229350087371317, 48.381005457761546 -10.965110573178993, 48.58272920320505 -10.756814244181072 C48.79253340951852 -10.510366285247736, 49.00233761583199 -10.2639183263144, 49.24758496948848 -9.975836829739738 C49.46806244039064 -9.680417104641649, 49.68853991129279 -9.384997379543558, 49.86103732355129 -9.153866561954718 C50.03333809999312 -8.88916630010329, 50.205638876434946 -8.62446603825186, 50.420565458085534 -8.294281092968403 C50.558875261864664 -8.048698030972238, 50.697185065643794 -7.803114968976072, 50.923870151968 -7.400612643853364 C51.07632831049189 -7.084030015596498, 51.22878646901577 -6.76744738733963, 51.368883218252996 -6.476533489958305 C51.47003798095825 -6.22667927038203, 51.57119274366351 -5.976825050805756, 51.753776002796165 -5.52584087074093 C51.838306928595614 -5.271247190406999, 51.92283785439506 -5.016653510073069, 52.07696689858657 -4.552441386096524 C52.164603291292515 -4.218245838855887, 52.25223968399846 -3.8840502916152513, 52.337127844909176 -3.560334943301032 C52.408330503475725 -3.1947243402490484, 52.479533162042266 -2.8291137371970643, 52.533189784631205 -2.5535983205340735 C52.57311859254503 -2.2439183711894017, 52.61304740045885 -1.9342384218447295, 52.66434705718717 -1.536368414522911 C52.678471053152556 -1.3163757766776425, 52.69259504911795 -1.096383138832374, 52.730060709211 -0.5128252411464826 C52.730060709211 -0.25109898300462513, 52.730060709211 0.010627275137232384, 52.730060709211 0.5128252411464788 C52.70562358484309 0.8934531784685211, 52.681186460475175 1.2740811157905636, 52.66434705718717 1.5363684145229002 C52.62728114092194 1.823844341583023, 52.5902152246567 2.111320268643146, 52.533189784631205 2.5535983205340624 C52.49123269725225 2.7690390965914413, 52.44927560987329 2.9844798726488198, 52.337127844909176 3.5603349433010285 C52.23984740839195 3.9313074093491, 52.14256697187472 4.302279875397171, 52.07696689858657 4.552441386096513 C51.982221530855554 4.837799338078007, 51.88747616312454 5.123157290059501, 51.753776002796165 5.525840870740919 C51.67328767501992 5.724648596484204, 51.59279934724368 5.923456322227489, 51.368883218253 6.4765334899583005 C51.23723361126823 6.749906715712514, 51.105584004283465 7.023279941466729, 50.923870151968 7.400612643853361 C50.776899124838025 7.6615745849529375, 50.62992809770804 7.922536526052514, 50.42056545808554 8.294281092968399 C50.2360579381657 8.577734190771634, 50.05155041824587 8.861187288574868, 49.8610373235513 9.15386656195471 C49.624512770860136 9.47078791473084, 49.387988218168964 9.78770926750697, 49.24758496948848 9.975836829739734 C49.065615610176515 10.189588393537436, 48.88364625086456 10.403339957335136, 48.582729203205055 10.756814244181063 C48.323945327066895 11.024029842845076, 48.065161450928734 11.291245441509087, 47.869202059655784 11.493589601563638 C47.702549396325885 11.644939141012006, 47.535896732995994 11.796288680460375, 47.10993557492463 12.183135333906142 C46.87461623429753 12.370796245945611, 46.63929689367042 12.55845715798508, 46.30804973785946 12.822617949887304 C46.114009138346496 12.957972272225378, 45.91996853883353 13.093326594563452, 45.46683966936879 13.409409678269446 C45.24077222767545 13.546453089943698, 45.01470478598211 13.683496501617949, 44.589762082063004 13.94109926597423 C44.405201459625815 14.037384424482992, 44.220640837188625 14.133669582991752, 43.68042107588093 14.415501886438705 C43.38652853655703 14.545599395584969, 43.09263599723313 14.675696904731232, 42.742553328069995 14.830668117536346 C42.42173760521921 14.948731269133468, 42.10092188236842 15.066794420730591, 41.78001273837794 15.184891952170695 C41.54707252974583 15.254027383364598, 41.314132321113725 15.3231628145585, 40.79675459255213 15.476717808624468 C40.47922338339848 15.549192235029004, 40.16169217424481 15.62166666143354, 39.79681930922196 15.704946511857045 C39.58666229422699 15.73892306824944, 39.37650527923203 15.772899624641832, 38.7843158369521 15.868640221171937 C38.46113881967396 15.89981671935153, 38.13796180239583 15.930993217531123, 37.763404769691405 15.967126284005381 C37.49926174662966 15.975596836631768, 37.23511872356791 15.984067389258152, 36.73828125 16 C36.73828125 16, 36.73828125 16, 36.73828125 16 C15.541275119271035 16, -5.655731011457931 16, -36.73828125 16 C-37.14504095382752 15.986956008007985, -37.551800657655036 15.97391201601597, -37.7634047696914 15.967126284005381 C-37.994974983973556 15.94478698393751, -38.22654519825572 15.92244768386964, -38.784315836952096 15.868640221171937 C-39.17767547780701 15.80504488498809, -39.57103511866192 15.741449548804244, -39.79681930922196 15.704946511857045 C-40.02418761963205 15.653051178722828, -40.251555930042144 15.60115584558861, -40.79675459255211 15.476717808624471 C-41.14607488527453 15.373041379364093, -41.49539517799694 15.269364950103714, -41.78001273837792 15.184891952170702 C-42.070352367847946 15.078044284655618, -42.36069199731797 14.971196617140535, -42.74255332806999 14.830668117536348 C-43.07237489421287 14.684665894014035, -43.402196460355746 14.538663670491724, -43.68042107588093 14.415501886438708 C-44.005957944193405 14.245669510756406, -44.33149481250588 14.075837135074101, -44.589762082063 13.941099265974234 C-44.81119528384835 13.80686515776602, -45.032628485633694 13.672631049557808, -45.46683966936877 13.409409678269457 C-45.75095094986278 13.211225947975942, -46.03506223035679 13.013042217682427, -46.308049737859456 12.822617949887308 C-46.52552936908651 12.649183731359772, -46.74300900031357 12.475749512832234, -47.10993557492461 12.183135333906154 C-47.269813262687855 12.037938648011394, -47.42969095045109 11.892741962116634, -47.86920205965578 11.493589601563649 C-48.12809392914345 11.226262490899842, -48.38698579863113 10.958935380236035, -48.58272920320505 10.756814244181069 C-48.77452808667836 10.531516361987679, -48.96632697015166 10.30621847979429, -49.24758496948847 9.97583682973974 C-49.45572807244715 9.69694403400188, -49.66387117540583 9.418051238264022, -49.86103732355129 9.15386656195472 C-50.02127750529636 8.907694612280652, -50.181517687041435 8.661522662606584, -50.420565458085534 8.29428109296841 C-50.57134624792997 8.02655453238902, -50.7221270377744 7.758827971809632, -50.923870151968 7.400612643853366 C-51.04568198864627 7.14766775863516, -51.16749382532454 6.894722873416955, -51.368883218252996 6.476533489958307 C-51.50815592021766 6.132527223451075, -51.647428622182325 5.788520956943843, -51.753776002796165 5.525840870740931 C-51.83004055742409 5.296144183308233, -51.906305112052024 5.0664474958755354, -52.07696689858657 4.552441386096519 C-52.14934471777766 4.2764333927756155, -52.221722536968755 4.000425399454711, -52.337127844909176 3.5603349433010343 C-52.39074182845199 3.28503846912812, -52.444355811994804 3.009741994955206, -52.533189784631205 2.5535983205340753 C-52.58089924399643 2.183573174995793, -52.62860870336164 1.8135480294575101, -52.66434705718717 1.5363684145229202 C-52.682965296434254 1.2463743098773425, -52.70158353568134 0.956380205231765, -52.730060709211 0.5128252411464846 C-52.730060709211 0.1682991568486677, -52.730060709211 -0.17622692744914925, -52.730060709211 -0.5128252411464769 C-52.70936306783684 -0.8352077123844677, -52.68866542646268 -1.1575901836224585, -52.66434705718717 -1.5363684145228982 C-52.63453611260891 -1.767576213835051, -52.60472516803065 -1.9987840131472039, -52.533189784631205 -2.5535983205340678 C-52.486661013943 -2.7925137241588356, -52.440132243254794 -3.0314291277836034, -52.337127844909176 -3.5603349433010267 C-52.25720513880914 -3.8651148603804066, -52.177282432709106 -4.1698947774597865, -52.076966898586576 -4.552441386096511 C-51.990996203571775 -4.811371421911005, -51.905025508556975 -5.0703014577255, -51.75377600279617 -5.525840870740911 C-51.60558705938533 -5.891870426004015, -51.457398115974485 -6.257899981267119, -51.368883218253 -6.476533489958299 C-51.272709408315784 -6.676240464082822, -51.17653559837856 -6.875947438207344, -50.923870151968 -7.400612643853359 C-50.797873884293644 -7.624331775614774, -50.671877616619284 -7.848050907376189, -50.420565458085534 -8.294281092968404 C-50.236465032187915 -8.577108785033454, -50.052364606290304 -8.859936477098504, -49.861037323551294 -9.153866561954715 C-49.725493239578334 -9.335483286158404, -49.58994915560537 -9.517100010362093, -49.24758496948848 -9.975836829739734 C-49.070526193656185 -10.183820142762102, -48.89346741782389 -10.39180345578447, -48.582729203205055 -10.756814244181063 C-48.386683450510525 -10.9592475794938, -48.190637697815994 -11.161680914806535, -47.86920205965579 -11.493589601563633 C-47.67552518794304 -11.66948181204394, -47.481848316230284 -11.845374022524249, -47.10993557492463 -12.18313533390614 C-46.86346590981283 -12.379688332999553, -46.61699624470104 -12.576241332092966, -46.30804973785946 -12.822617949887302 C-46.082971522547965 -12.979622769409698, -45.85789330723647 -13.136627588932093, -45.46683966936879 -13.409409678269444 C-45.28358866558706 -13.520497513664361, -45.10033766180533 -13.631585349059279, -44.589762082063004 -13.941099265974229 C-44.36116147232496 -14.060360057648888, -44.13256086258692 -14.179620849323546, -43.680421075880936 -14.415501886438705 C-43.36844644735825 -14.553603800087151, -43.05647181883557 -14.691705713735598, -42.742553328069995 -14.830668117536344 C-42.38683311201075 -14.961576445287777, -42.0311128959515 -15.092484773039212, -41.78001273837794 -15.184891952170695 C-41.41538594272077 -15.293111271156636, -41.050759147063594 -15.401330590142578, -40.79675459255213 -15.476717808624466 C-40.40562532415603 -15.565990511778871, -40.01449605575993 -15.655263214933276, -39.796819309221966 -15.704946511857043 C-39.55785530723353 -15.743580358505021, -39.31889130524509 -15.782214205153, -38.7843158369521 -15.868640221171937 C-38.393440058980616 -15.906347537375945, -38.002564281009136 -15.944054853579955, -37.763404769691405 -15.967126284005381 C-37.4048851016936 -15.97862331194187, -37.0463654336958 -15.990120339878361, -36.73828125000001 -16 C-36.73828125000001 -16, -36.73828125 -16, -36.73828125 -16" stroke="none" stroke-width="0" fill="#eee" style=""/><path d="M-36.73828125 -16 C-10.83551598080971 -16, 15.06724928838058 -16, 36.73828125 -16 M-36.73828125 -16 C-19.541020642076166 -16, -2.343760034152332 -16, 36.73828125 -16 M36.73828125 -16 C36.73828125 -16, 36.73828125 -16, 36.73828125 -16 M36.73828125 -16 C36.73828125 -16, 36.73828125 -16, 36.73828125 -16 M36.73828125 -16 C37.061032742039636 -15.989649987847958, 37.38378423407927 -15.979299975695916, 37.763404769691405 -15.967126284005381 M36.73828125 -16 C37.11093407110371 -15.988049749351918, 37.483586892207434 -15.976099498703835, 37.763404769691405 -15.967126284005381 M37.763404769691405 -15.967126284005381 C38.168218871450414 -15.928074354468878, 38.57303297320943 -15.889022424932373, 38.784315836952096 -15.868640221171939 M37.763404769691405 -15.967126284005381 C37.99638710630109 -15.9446507581949, 38.22936944291077 -15.922175232384419, 38.784315836952096 -15.868640221171939 M38.784315836952096 -15.868640221171939 C39.18735754251031 -15.803479563852395, 39.59039924806853 -15.73831890653285, 39.79681930922195 -15.704946511857047 M38.784315836952096 -15.868640221171939 C39.06975936110139 -15.822491925835072, 39.35520288525068 -15.776343630498205, 39.79681930922195 -15.704946511857047 M39.79681930922195 -15.704946511857047 C39.99811527743306 -15.659002020691815, 40.199411245644164 -15.613057529526584, 40.79675459255211 -15.476717808624471 M39.79681930922195 -15.704946511857047 C40.09729136737665 -15.636365725346659, 40.397763425531345 -15.567784938836272, 40.79675459255211 -15.476717808624471 M40.79675459255211 -15.476717808624471 C41.04180527137283 -15.403988053447744, 41.286855950193555 -15.331258298271015, 41.780012738377934 -15.184891952170698 M40.79675459255211 -15.476717808624471 C41.030020788007505 -15.407485626252557, 41.2632869834629 -15.338253443880642, 41.780012738377934 -15.184891952170698 M41.780012738377934 -15.184891952170698 C42.07037928427343 -15.07803437916223, 42.36074583016892 -14.97117680615376, 42.74255332806999 -14.830668117536348 M41.780012738377934 -15.184891952170698 C41.996822995232826 -15.105103773476053, 42.213633252087725 -15.025315594781407, 42.74255332806999 -14.830668117536348 M42.74255332806999 -14.830668117536348 C42.96649811608054 -14.731534402970185, 43.190442904091086 -14.632400688404022, 43.68042107588093 -14.415501886438706 M42.74255332806999 -14.830668117536348 C43.01130125032126 -14.711701384479575, 43.280049172572525 -14.5927346514228, 43.68042107588093 -14.415501886438706 M43.68042107588093 -14.415501886438706 C43.91749147599431 -14.291822410550393, 44.1545618761077 -14.168142934662079, 44.589762082063004 -13.941099265974232 M43.68042107588093 -14.415501886438706 C43.885529802085784 -14.308496795356044, 44.09063852829063 -14.201491704273383, 44.589762082063004 -13.941099265974232 M44.589762082063004 -13.941099265974232 C44.80023110436807 -13.813511707799636, 45.01070012667314 -13.68592414962504, 45.46683966936878 -13.409409678269451 M44.589762082063004 -13.941099265974232 C44.883453916951375 -13.763061549740108, 45.17714575183974 -13.585023833505982, 45.46683966936878 -13.409409678269451 M45.46683966936878 -13.409409678269451 C45.75707837758583 -13.20695171964842, 46.047317085802874 -13.004493761027385, 46.308049737859456 -12.822617949887306 M45.46683966936878 -13.409409678269451 C45.678449206131134 -13.261800025853239, 45.890058742893494 -13.114190373437024, 46.308049737859456 -12.822617949887306 M46.308049737859456 -12.822617949887306 C46.615815018807844 -12.577183328309053, 46.923580299756225 -12.3317487067308, 47.10993557492461 -12.183135333906153 M46.308049737859456 -12.822617949887306 C46.563153868874004 -12.619179194009236, 46.818257999888544 -12.415740438131166, 47.10993557492461 -12.183135333906153 M47.10993557492461 -12.183135333906153 C47.3228543064955 -11.989768175414405, 47.53577303806638 -11.796401016922658, 47.869202059655784 -11.493589601563642 M47.10993557492461 -12.183135333906153 C47.39606211912579 -11.923282776956158, 47.682188663326954 -11.663430220006163, 47.869202059655784 -11.493589601563642 M47.869202059655784 -11.493589601563642 C48.03829688028784 -11.318985316318084, 48.20739170091989 -11.144381031072527, 48.58272920320505 -10.756814244181072 M47.869202059655784 -11.493589601563642 C48.12973713193394 -11.224565749109205, 48.390272204212096 -10.955541896654768, 48.58272920320505 -10.756814244181072 M48.58272920320505 -10.756814244181072 C48.72088508137995 -10.594528488384666, 48.85904095955485 -10.43224273258826, 49.24758496948848 -9.975836829739738 M48.58272920320505 -10.756814244181072 C48.742189861783864 -10.569502681045881, 48.90165052036268 -10.38219111791069, 49.24758496948848 -9.975836829739738 M49.24758496948848 -9.975836829739738 C49.38098775812556 -9.797089246210103, 49.51439054676265 -9.618341662680468, 49.86103732355129 -9.153866561954718 M49.24758496948848 -9.975836829739738 C49.39156736795425 -9.782913532861938, 49.53554976642003 -9.589990235984141, 49.86103732355129 -9.153866561954718 M49.86103732355129 -9.153866561954718 C50.07615250736597 -8.823391873100435, 50.29126769118066 -8.492917184246153, 50.420565458085534 -8.294281092968403 M49.86103732355129 -9.153866561954718 C49.97891744924458 -8.972771033643928, 50.09679757493786 -8.791675505333139, 50.420565458085534 -8.294281092968403 M50.420565458085534 -8.294281092968403 C50.53031420856945 -8.099411073218144, 50.64006295905337 -7.904541053467885, 50.923870151968 -7.400612643853364 M50.420565458085534 -8.294281092968403 C50.55596244831195 -8.053870026389434, 50.69135943853836 -7.813458959810467, 50.923870151968 -7.400612643853364 M50.923870151968 -7.400612643853364 C51.06745263779632 -7.102460539857812, 51.21103512362464 -6.80430843586226, 51.368883218252996 -6.476533489958305 M50.923870151968 -7.400612643853364 C51.01882337907912 -7.203440236083524, 51.11377660619025 -7.006267828313684, 51.368883218252996 -6.476533489958305 M51.368883218252996 -6.476533489958305 C51.489752036624765 -6.177985171740414, 51.610620854996526 -5.879436853522524, 51.753776002796165 -5.52584087074093 M51.368883218252996 -6.476533489958305 C51.50848320991362 -6.131718811574344, 51.64808320157424 -5.786904133190383, 51.753776002796165 -5.52584087074093 M51.753776002796165 -5.52584087074093 C51.87970825033592 -5.146553005730009, 52.005640497875675 -4.76726514071909, 52.07696689858657 -4.552441386096524 M51.753776002796165 -5.52584087074093 C51.8240282620987 -5.314252258899153, 51.894280521401235 -5.102663647057378, 52.07696689858657 -4.552441386096524 M52.07696689858657 -4.552441386096524 C52.1346996081384 -4.332281543060796, 52.192432317690226 -4.112121700025069, 52.337127844909176 -3.560334943301032 M52.07696689858657 -4.552441386096524 C52.17434571958336 -4.18109373738779, 52.27172454058014 -3.8097460886790553, 52.337127844909176 -3.560334943301032 M52.337127844909176 -3.560334943301032 C52.40133504711654 -3.2306445301632265, 52.4655422493239 -2.900954117025421, 52.533189784631205 -2.5535983205340735 M52.337127844909176 -3.560334943301032 C52.40102545823965 -3.232234203614402, 52.46492307157013 -2.9041334639277716, 52.533189784631205 -2.5535983205340735 M52.533189784631205 -2.5535983205340735 C52.56861480562673 -2.27884885315443, 52.60403982662225 -2.0040993857747864, 52.66434705718717 -1.536368414522911 M52.533189784631205 -2.5535983205340735 C52.58143878652315 -2.1793885897032115, 52.6296877884151 -1.8051788588723494, 52.66434705718717 -1.536368414522911 M52.66434705718717 -1.536368414522911 C52.68901956314432 -1.1520742189519235, 52.71369206910147 -0.7677800233809358, 52.730060709211 -0.5128252411464826 M52.66434705718717 -1.536368414522911 C52.67985348922193 -1.2948432190149235, 52.69535992125668 -1.0533180235069357, 52.730060709211 -0.5128252411464826 M52.730060709211 -0.5128252411464826 C52.730060709211 -0.2885706798963502, 52.730060709211 -0.06431611864621783, 52.730060709211 0.5128252411464788 M52.730060709211 -0.5128252411464826 C52.730060709211 -0.15245516113141672, 52.730060709211 0.2079149188836492, 52.730060709211 0.5128252411464788 M52.730060709211 0.5128252411464788 C52.715287123821135 0.742935758617186, 52.70051353843127 0.9730462760878933, 52.66434705718717 1.5363684145229002 M52.730060709211 0.5128252411464788 C52.716047849263425 0.7310868458069555, 52.70203498931585 0.9493484504674323, 52.66434705718717 1.5363684145229002 M52.66434705718717 1.5363684145229002 C52.61721441218283 1.901919901783053, 52.5700817671785 2.267471389043206, 52.533189784631205 2.5535983205340624 M52.66434705718717 1.5363684145229002 C52.63461251086364 1.7669836840579047, 52.60487796454011 1.997598953592909, 52.533189784631205 2.5535983205340624 M52.533189784631205 2.5535983205340624 C52.48801650684681 2.7855535545812895, 52.44284322906241 3.017508788628516, 52.337127844909176 3.5603349433010285 M52.533189784631205 2.5535983205340624 C52.47246804964145 2.865391596163223, 52.411746314651694 3.1771848717923836, 52.337127844909176 3.5603349433010285 M52.337127844909176 3.5603349433010285 C52.24943700934279 3.8947381047641905, 52.16174617377641 4.229141266227352, 52.07696689858657 4.552441386096513 M52.337127844909176 3.5603349433010285 C52.26830931527538 3.8227698229340916, 52.19949078564159 4.085204702567155, 52.07696689858657 4.552441386096513 M52.07696689858657 4.552441386096513 C51.96012690289381 4.904344837197886, 51.84328690720105 5.2562482882992585, 51.753776002796165 5.525840870740919 M52.07696689858657 4.552441386096513 C51.95074556303345 4.932599938143769, 51.82452422748033 5.312758490191025, 51.753776002796165 5.525840870740919 M51.753776002796165 5.525840870740919 C51.61188613784251 5.876311580430376, 51.46999627288885 6.226782290119832, 51.368883218253 6.4765334899583005 M51.753776002796165 5.525840870740919 C51.64926503436962 5.783984983336612, 51.54475406594307 6.042129095932307, 51.368883218253 6.4765334899583005 M51.368883218253 6.4765334899583005 C51.268529707862555 6.684919701505206, 51.16817619747211 6.893305913052112, 50.923870151968 7.400612643853361 M51.368883218253 6.4765334899583005 C51.229220598714605 6.766545907731119, 51.08955797917621 7.056558325503938, 50.923870151968 7.400612643853361 M50.923870151968 7.400612643853361 C50.77888820579887 7.658042770290661, 50.63390625962974 7.9154728967279615, 50.42056545808554 8.294281092968399 M50.923870151968 7.400612643853361 C50.8194015971063 7.586107141598603, 50.71493304224459 7.771601639343847, 50.42056545808554 8.294281092968399 M50.42056545808554 8.294281092968399 C50.23895692219722 8.573280572813017, 50.05734838630889 8.852280052657637, 49.8610373235513 9.15386656195471 M50.42056545808554 8.294281092968399 C50.2960825681184 8.485520240294287, 50.17159967815127 8.676759387620177, 49.8610373235513 9.15386656195471 M49.8610373235513 9.15386656195471 C49.68087288650873 9.395270494273888, 49.50070844946615 9.636674426593064, 49.24758496948848 9.975836829739734 M49.8610373235513 9.15386656195471 C49.65488182928129 9.43009614312463, 49.44872633501128 9.706325724294551, 49.24758496948848 9.975836829739734 M49.24758496948848 9.975836829739734 C49.02045945735559 10.242631380098782, 48.7933339452227 10.50942593045783, 48.582729203205055 10.756814244181063 M49.24758496948848 9.975836829739734 C49.04806671345588 10.210202326186007, 48.848548457423284 10.444567822632282, 48.582729203205055 10.756814244181063 M48.582729203205055 10.756814244181063 C48.3600621974225 10.986736208952712, 48.137395191639946 11.216658173724358, 47.869202059655784 11.493589601563638 M48.582729203205055 10.756814244181063 C48.43509787288641 10.909255713492698, 48.28746654256776 11.061697182804334, 47.869202059655784 11.493589601563638 M47.869202059655784 11.493589601563638 C47.57086784112242 11.764528845344769, 47.27253362258906 12.0354680891259, 47.10993557492463 12.183135333906142 M47.869202059655784 11.493589601563638 C47.58669990824994 11.750150580873093, 47.304197756844104 12.006711560182548, 47.10993557492463 12.183135333906142 M47.10993557492463 12.183135333906142 C46.943271012319386 12.31604588745355, 46.77660644971414 12.448956441000957, 46.30804973785946 12.822617949887304 M47.10993557492463 12.183135333906142 C46.89187811256364 12.357030357386256, 46.67382065020266 12.53092538086637, 46.30804973785946 12.822617949887304 M46.30804973785946 12.822617949887304 C46.057009944769035 12.997732442209694, 45.80597015167861 13.172846934532082, 45.46683966936879 13.409409678269446 M46.30804973785946 12.822617949887304 C46.00387448734598 13.034797437111138, 45.699699236832494 13.246976924334973, 45.46683966936879 13.409409678269446 M45.46683966936879 13.409409678269446 C45.23074676210653 13.552530586087755, 44.994653854844266 13.695651493906064, 44.589762082063004 13.94109926597423 M45.46683966936879 13.409409678269446 C45.23143522538749 13.552113235600974, 44.9960307814062 13.6948167929325, 44.589762082063004 13.94109926597423 M44.589762082063004 13.94109926597423 C44.332501613192434 14.075311887800812, 44.075241144321865 14.209524509627395, 43.68042107588093 14.415501886438705 M44.589762082063004 13.94109926597423 C44.31535821334422 14.084255588520753, 44.04095434462544 14.227411911067275, 43.68042107588093 14.415501886438705 M43.68042107588093 14.415501886438705 C43.481323919787066 14.503636291434162, 43.28222676369321 14.59177069642962, 42.742553328069995 14.830668117536346 M43.68042107588093 14.415501886438705 C43.42142969159786 14.530149689554374, 43.16243830731479 14.644797492670042, 42.742553328069995 14.830668117536346 M42.742553328069995 14.830668117536346 C42.45988306299173 14.934693388060435, 42.17721279791346 15.038718658584521, 41.78001273837794 15.184891952170695 M42.742553328069995 14.830668117536346 C42.40933233535466 14.953296523116679, 42.07611134263932 15.075924928697013, 41.78001273837794 15.184891952170695 M41.78001273837794 15.184891952170695 C41.395447684357634 15.299028841580762, 41.01088263033732 15.41316573099083, 40.79675459255213 15.476717808624468 M41.78001273837794 15.184891952170695 C41.579525811356206 15.24439541973339, 41.37903888433448 15.303898887296086, 40.79675459255213 15.476717808624468 M40.79675459255213 15.476717808624468 C40.571230295314315 15.528192257785424, 40.3457059980765 15.579666706946382, 39.79681930922196 15.704946511857045 M40.79675459255213 15.476717808624468 C40.495433207876594 15.545492448370863, 40.194111823201055 15.61426708811726, 39.79681930922196 15.704946511857045 M39.79681930922196 15.704946511857045 C39.448873744937295 15.761199652332438, 39.10092818065263 15.817452792807833, 38.7843158369521 15.868640221171937 M39.79681930922196 15.704946511857045 C39.56184346640905 15.74293558385816, 39.326867623596144 15.780924655859273, 38.7843158369521 15.868640221171937 M38.7843158369521 15.868640221171937 C38.57634075345247 15.888703327350514, 38.368365669952844 15.90876643352909, 37.763404769691405 15.967126284005381 M38.7843158369521 15.868640221171937 C38.42207292411931 15.903585359312075, 38.05983001128652 15.938530497452211, 37.763404769691405 15.967126284005381 M37.763404769691405 15.967126284005381 C37.48105610363401 15.976180656167504, 37.198707437576616 15.985235028329624, 36.73828125 16 M37.763404769691405 15.967126284005381 C37.44310092497316 15.977397804871883, 37.12279708025491 15.987669325738384, 36.73828125 16 M36.73828125 16 C36.73828125 16, 36.73828125 16, 36.73828125 16 M36.73828125 16 C36.73828125 16, 36.73828125 16, 36.73828125 16 M36.73828125 16 C16.533388301167154 16, -3.6715046476656923 16, -36.73828125 16 M36.73828125 16 C14.020147150639168 16, -8.697986948721663 16, -36.73828125 16 M-36.73828125 16 C-37.14057857623551 15.987099107771868, -37.542875902471025 15.974198215543739, -37.7634047696914 15.967126284005381 M-36.73828125 16 C-37.05569161007038 15.989821267554328, -37.373101970140766 15.979642535108658, -37.7634047696914 15.967126284005381 M-37.7634047696914 15.967126284005381 C-38.10826589474829 15.933857946027327, -38.45312701980518 15.900589608049271, -38.784315836952096 15.868640221171937 M-37.7634047696914 15.967126284005381 C-38.12973623724097 15.931786727908923, -38.49606770479055 15.896447171812463, -38.784315836952096 15.868640221171937 M-38.784315836952096 15.868640221171937 C-39.129038360747444 15.812908156887804, -39.473760884542784 15.757176092603673, -39.79681930922196 15.704946511857045 M-38.784315836952096 15.868640221171937 C-39.03626884759584 15.827906412335835, -39.288221858239595 15.787172603499734, -39.79681930922196 15.704946511857045 M-39.79681930922196 15.704946511857045 C-40.17655823107906 15.61827358097121, -40.55629715293617 15.531600650085375, -40.79675459255211 15.476717808624471 M-39.79681930922196 15.704946511857045 C-40.109006573366415 15.63369180602836, -40.42119383751087 15.562437100199674, -40.79675459255211 15.476717808624471 M-40.79675459255211 15.476717808624471 C-41.119682232106726 15.380874580286433, -41.44260987166134 15.285031351948394, -41.78001273837792 15.184891952170702 M-40.79675459255211 15.476717808624471 C-41.144957723296265 15.373372947175136, -41.493160854040426 15.270028085725803, -41.78001273837792 15.184891952170702 M-41.78001273837792 15.184891952170702 C-42.013306297792894 15.099037765763969, -42.24659985720787 15.013183579357234, -42.74255332806999 14.830668117536348 M-41.78001273837792 15.184891952170702 C-42.017659054743184 15.097435910969818, -42.25530537110844 15.009979869768936, -42.74255332806999 14.830668117536348 M-42.74255332806999 14.830668117536348 C-43.08220354240114 14.680315043017577, -43.42185375673229 14.529961968498808, -43.68042107588093 14.415501886438708 M-42.74255332806999 14.830668117536348 C-43.06954520300228 14.685918514373155, -43.396537077934575 14.541168911209963, -43.68042107588093 14.415501886438708 M-43.68042107588093 14.415501886438708 C-43.886483320350095 14.307999345488312, -44.09254556481926 14.200496804537915, -44.589762082063 13.941099265974234 M-43.68042107588093 14.415501886438708 C-44.041089740728246 14.227341275007166, -44.40175840557557 14.039180663575623, -44.589762082063 13.941099265974234 M-44.589762082063 13.941099265974234 C-44.93117787457239 13.734131006173138, -45.27259366708178 13.527162746372042, -45.46683966936877 13.409409678269457 M-44.589762082063 13.941099265974234 C-44.92093498266399 13.740340307441928, -45.25210788326497 13.539581348909623, -45.46683966936877 13.409409678269457 M-45.46683966936877 13.409409678269457 C-45.658544944481804 13.275684377138207, -45.85025021959485 13.141959076006957, -46.308049737859456 12.822617949887308 M-45.46683966936877 13.409409678269457 C-45.712720809172154 13.237893639165607, -45.95860194897554 13.066377600061756, -46.308049737859456 12.822617949887308 M-46.308049737859456 12.822617949887308 C-46.60707787893194 12.58415096485503, -46.906106020004415 12.345683979822756, -47.10993557492461 12.183135333906154 M-46.308049737859456 12.822617949887308 C-46.476292521048464 12.688448807422562, -46.64453530423747 12.554279664957814, -47.10993557492461 12.183135333906154 M-47.10993557492461 12.183135333906154 C-47.309998937628585 12.001443081284913, -47.510062300332564 11.819750828663672, -47.86920205965578 11.493589601563649 M-47.10993557492461 12.183135333906154 C-47.3731692615952 11.944073464453618, -47.63640294826579 11.70501159500108, -47.86920205965578 11.493589601563649 M-47.86920205965578 11.493589601563649 C-48.06864303983952 11.287650415114937, -48.26808402002326 11.081711228666228, -48.58272920320505 10.756814244181069 M-47.86920205965578 11.493589601563649 C-48.14294425580374 11.210928309388597, -48.41668645195171 10.928267017213544, -48.58272920320505 10.756814244181069 M-48.58272920320505 10.756814244181069 C-48.831017706550625 10.46516044013528, -49.07930620989621 10.17350663608949, -49.24758496948847 9.97583682973974 M-48.58272920320505 10.756814244181069 C-48.720676852674934 10.59477308567012, -48.85862450214482 10.432731927159171, -49.24758496948847 9.97583682973974 M-49.24758496948847 9.97583682973974 C-49.403020671244995 9.76756714986974, -49.55845637300151 9.55929746999974, -49.86103732355129 9.15386656195472 M-49.24758496948847 9.97583682973974 C-49.45522280197879 9.69762105039839, -49.66286063446912 9.41940527105704, -49.86103732355129 9.15386656195472 M-49.86103732355129 9.15386656195472 C-50.02723921596999 8.898535823742488, -50.19344110838869 8.643205085530255, -50.420565458085534 8.29428109296841 M-49.86103732355129 9.15386656195472 C-50.036620403105566 8.884123801100774, -50.212203482659845 8.61438104024683, -50.420565458085534 8.29428109296841 M-50.420565458085534 8.29428109296841 C-50.57297699521628 8.023658975451099, -50.72538853234703 7.753036857933787, -50.923870151968 7.400612643853366 M-50.420565458085534 8.29428109296841 C-50.52910359740652 8.101560635925612, -50.637641736727495 7.908840178882816, -50.923870151968 7.400612643853366 M-50.923870151968 7.400612643853366 C-51.052969762825484 7.132534539618645, -51.182069373682964 6.864456435383924, -51.368883218252996 6.476533489958307 M-50.923870151968 7.400612643853366 C-51.05283241858529 7.132819737872103, -51.181794685202576 6.86502683189084, -51.368883218252996 6.476533489958307 M-51.368883218252996 6.476533489958307 C-51.47498373195256 6.214463169806497, -51.58108424565213 5.9523928496546885, -51.753776002796165 5.525840870740931 M-51.368883218252996 6.476533489958307 C-51.47617462719456 6.2115216355343765, -51.583466036136116 5.9465097811104455, -51.753776002796165 5.525840870740931 M-51.753776002796165 5.525840870740931 C-51.8372444760108 5.274447128313627, -51.92071294922544 5.023053385886323, -52.07696689858657 4.552441386096519 M-51.753776002796165 5.525840870740931 C-51.82048417141432 5.324926495366332, -51.88719234003248 5.124012119991732, -52.07696689858657 4.552441386096519 M-52.07696689858657 4.552441386096519 C-52.18084002081255 4.1563281521529, -52.28471314303854 3.760214918209281, -52.337127844909176 3.5603349433010343 M-52.07696689858657 4.552441386096519 C-52.16541513158343 4.215149939972818, -52.25386336458029 3.877858493849117, -52.337127844909176 3.5603349433010343 M-52.337127844909176 3.5603349433010343 C-52.40442108713287 3.2147983669141738, -52.47171432935656 2.8692617905273137, -52.533189784631205 2.5535983205340753 M-52.337127844909176 3.5603349433010343 C-52.39866266376171 3.2443666538818374, -52.46019748261425 2.928398364462641, -52.533189784631205 2.5535983205340753 M-52.533189784631205 2.5535983205340753 C-52.58281467963918 2.168717434396164, -52.632439574647144 1.7838365482582526, -52.66434705718717 1.5363684145229202 M-52.533189784631205 2.5535983205340753 C-52.573831276483375 2.2383909352989297, -52.61447276833555 1.9231835500637842, -52.66434705718717 1.5363684145229202 M-52.66434705718717 1.5363684145229202 C-52.68923883927235 1.1486588162614275, -52.71413062135752 0.7609492179999348, -52.730060709211 0.5128252411464846 M-52.66434705718717 1.5363684145229202 C-52.689837192219905 1.1393389861213805, -52.715327327252645 0.7423095577198409, -52.730060709211 0.5128252411464846 M-52.730060709211 0.5128252411464846 C-52.730060709211 0.13522102756293874, -52.730060709211 -0.24238318602060716, -52.730060709211 -0.5128252411464769 M-52.730060709211 0.5128252411464846 C-52.730060709211 0.27520078532092046, -52.730060709211 0.037576329495356275, -52.730060709211 -0.5128252411464769 M-52.730060709211 -0.5128252411464769 C-52.70508690491623 -0.90181240152963, -52.68011310062145 -1.2907995619127832, -52.66434705718717 -1.5363684145228982 M-52.730060709211 -0.5128252411464769 C-52.71155350900008 -0.8010898231746414, -52.69304630878917 -1.089354405202806, -52.66434705718717 -1.5363684145228982 M-52.66434705718717 -1.5363684145228982 C-52.6218749920989 -1.8657733642896175, -52.57940292701064 -2.195178314056337, -52.533189784631205 -2.5535983205340678 M-52.66434705718717 -1.5363684145228982 C-52.614586770779425 -1.9222993696214015, -52.56482648437168 -2.3082303247199047, -52.533189784631205 -2.5535983205340678 M-52.533189784631205 -2.5535983205340678 C-52.49150541416013 -2.767638752908224, -52.44982104368905 -2.9816791852823807, -52.337127844909176 -3.5603349433010267 M-52.533189784631205 -2.5535983205340678 C-52.46719313901148 -2.8924771473953794, -52.401196493391744 -3.231355974256691, -52.337127844909176 -3.5603349433010267 M-52.337127844909176 -3.5603349433010267 C-52.27048070490756 -3.8144893731803924, -52.20383356490594 -4.068643803059759, -52.076966898586576 -4.552441386096511 M-52.337127844909176 -3.5603349433010267 C-52.26166656652358 -3.8481015029102514, -52.186205288137984 -4.135868062519476, -52.076966898586576 -4.552441386096511 M-52.076966898586576 -4.552441386096511 C-51.956186520489815 -4.916212641184047, -51.83540614239306 -5.279983896271584, -51.75377600279617 -5.525840870740911 M-52.076966898586576 -4.552441386096511 C-51.98835425941435 -4.819328536776539, -51.89974162024212 -5.0862156874565665, -51.75377600279617 -5.525840870740911 M-51.75377600279617 -5.525840870740911 C-51.63955311949099 -5.8079736008539244, -51.52533023618581 -6.090106330966939, -51.368883218253 -6.476533489958299 M-51.75377600279617 -5.525840870740911 C-51.65921501805112 -5.7594083312734545, -51.56465403330607 -5.992975791805998, -51.368883218253 -6.476533489958299 M-51.368883218253 -6.476533489958299 C-51.20256935730572 -6.821887780761895, -51.03625549635843 -7.167242071565491, -50.923870151968 -7.400612643853359 M-51.368883218253 -6.476533489958299 C-51.235598407092056 -6.753302252172102, -51.102313595931115 -7.030071014385905, -50.923870151968 -7.400612643853359 M-50.923870151968 -7.400612643853359 C-50.769361267044694 -7.674958814755857, -50.614852382121384 -7.9493049856583555, -50.420565458085534 -8.294281092968404 M-50.923870151968 -7.400612643853359 C-50.81664141804214 -7.591008119025455, -50.70941268411627 -7.781403594197551, -50.420565458085534 -8.294281092968404 M-50.420565458085534 -8.294281092968404 C-50.30712577946472 -8.468554902148885, -50.193686100843905 -8.642828711329365, -49.861037323551294 -9.153866561954715 M-50.420565458085534 -8.294281092968404 C-50.294076621951035 -8.488601912279329, -50.167587785816536 -8.682922731590253, -49.861037323551294 -9.153866561954715 M-49.861037323551294 -9.153866561954715 C-49.68286739205551 -9.392598038544381, -49.50469746055974 -9.63132951513405, -49.24758496948848 -9.975836829739734 M-49.861037323551294 -9.153866561954715 C-49.688567113523085 -9.384960931033143, -49.51609690349488 -9.616055300111572, -49.24758496948848 -9.975836829739734 M-49.24758496948848 -9.975836829739734 C-49.06210061985793 -10.193717301174262, -48.87661627022739 -10.411597772608788, -48.582729203205055 -10.756814244181063 M-49.24758496948848 -9.975836829739734 C-49.00013123201954 -10.266510070287293, -48.75267749455061 -10.557183310834851, -48.582729203205055 -10.756814244181063 M-48.582729203205055 -10.756814244181063 C-48.38399755855202 -10.962020983456789, -48.18526591389898 -11.167227722732516, -47.86920205965579 -11.493589601563633 M-48.582729203205055 -10.756814244181063 C-48.403768513553075 -10.941605849192605, -48.224807823901095 -11.126397454204147, -47.86920205965579 -11.493589601563633 M-47.86920205965579 -11.493589601563633 C-47.65775834887053 -11.685617185204787, -47.44631463808527 -11.877644768845942, -47.10993557492463 -12.18313533390614 M-47.86920205965579 -11.493589601563633 C-47.63831023205252 -11.703279450329932, -47.407418404449245 -11.912969299096233, -47.10993557492463 -12.18313533390614 M-47.10993557492463 -12.18313533390614 C-46.80517687583109 -12.426172286463656, -46.500418176737554 -12.669209239021173, -46.30804973785946 -12.822617949887302 M-47.10993557492463 -12.18313533390614 C-46.7930220093485 -12.435865469028945, -46.47610844377236 -12.68859560415175, -46.30804973785946 -12.822617949887302 M-46.30804973785946 -12.822617949887302 C-46.052239969027916 -13.001059770797776, -45.79643020019637 -13.179501591708247, -45.46683966936879 -13.409409678269444 M-46.30804973785946 -12.822617949887302 C-46.092564884582416 -12.972930855344416, -45.87708003130537 -13.123243760801529, -45.46683966936879 -13.409409678269444 M-45.46683966936879 -13.409409678269444 C-45.263293933738375 -13.532800299376117, -45.05974819810796 -13.656190920482787, -44.589762082063004 -13.941099265974229 M-45.46683966936879 -13.409409678269444 C-45.290877470491544 -13.516078997297488, -45.11491527161431 -13.62274831632553, -44.589762082063004 -13.941099265974229 M-44.589762082063004 -13.941099265974229 C-44.26133812312542 -14.112437834986382, -43.932914164187835 -14.283776403998537, -43.680421075880936 -14.415501886438705 M-44.589762082063004 -13.941099265974229 C-44.28774279303592 -14.098662535607074, -43.985723504008824 -14.256225805239922, -43.680421075880936 -14.415501886438705 M-43.680421075880936 -14.415501886438705 C-43.34216249465756 -14.565238926261994, -43.00390391343418 -14.714975966085282, -42.742553328069995 -14.830668117536344 M-43.680421075880936 -14.415501886438705 C-43.479073066134575 -14.504632677576923, -43.27772505638821 -14.59376346871514, -42.742553328069995 -14.830668117536344 M-42.742553328069995 -14.830668117536344 C-42.448102079921036 -14.939028898732662, -42.153650831772076 -15.04738967992898, -41.78001273837794 -15.184891952170695 M-42.742553328069995 -14.830668117536344 C-42.45358566770485 -14.937010887738488, -42.164618007339705 -15.043353657940632, -41.78001273837794 -15.184891952170695 M-41.78001273837794 -15.184891952170695 C-41.454068296985724 -15.281630551458619, -41.12812385559351 -15.378369150746542, -40.79675459255213 -15.476717808624466 M-41.78001273837794 -15.184891952170695 C-41.566370442516764 -15.248299864150997, -41.352728146655586 -15.311707776131298, -40.79675459255213 -15.476717808624466 M-40.79675459255213 -15.476717808624466 C-40.53156993015071 -15.537244477325947, -40.266385267749286 -15.597771146027426, -39.796819309221966 -15.704946511857043 M-40.79675459255213 -15.476717808624466 C-40.5834970159419 -15.525392458850009, -40.37023943933167 -15.574067109075552, -39.796819309221966 -15.704946511857043 M-39.796819309221966 -15.704946511857043 C-39.51981204559659 -15.749730898016582, -39.24280478197121 -15.79451528417612, -38.7843158369521 -15.868640221171937 M-39.796819309221966 -15.704946511857043 C-39.54607867192923 -15.74548431357185, -39.295338034636494 -15.786022115286656, -38.7843158369521 -15.868640221171937 M-38.7843158369521 -15.868640221171937 C-38.388286201455394 -15.906844723812984, -37.992256565958684 -15.94504922645403, -37.763404769691405 -15.967126284005381 M-38.7843158369521 -15.868640221171937 C-38.53479253642972 -15.892711433877656, -38.28526923590734 -15.916782646583377, -37.763404769691405 -15.967126284005381 M-37.763404769691405 -15.967126284005381 C-37.38444595462635 -15.979278755605932, -37.005487139561296 -15.991431227206482, -36.73828125000001 -16 M-37.763404769691405 -15.967126284005381 C-37.381715229114434 -15.979366324658065, -37.00002568853746 -15.991606365310746, -36.73828125000001 -16 M-36.73828125000001 -16 C-36.73828125000001 -16, -36.73828125000001 -16, -36.73828125 -16 M-36.73828125000001 -16 C-36.73828125000001 -16, -36.73828125 -16, -36.73828125 -16" stroke="#999" stroke-width="1.3" fill="none" stroke-dasharray="0 0" style=""/></g><g class="label" style="" transform="translate(0, -8.5)"><rect/><g><rect class="background" style="stroke: none"/><text y="-10.1" style=""><tspan class="text-outer-tspan row" x="0" y="-0.1em" dy="1.1em"><tspan font-style="normal" class="text-inner-tspan" font-weight="normal">ISBN</tspan><tspan font-style="normal" class="text-inner-tspan" font-weight="normal"> i</tspan><tspan font-style="normal" class="text-inner-tspan" font-weight="normal"> futur</tspan></tspan></text></g></g></g><g class="node default" id="my-svg-flowchart-B-1" data-look="classic" transform="translate(197.37187957763672, 113.5)"><rect class="basic label-container" style="" x="-109.19140625" y="-23.5" width="218.3828125" height="47"/><g class="label" style="" transform="translate(0, -8.5)"><rect/><g><rect class="background" style="stroke: none"/><text y="-10.1" style=""><tspan class="text-outer-tspan row" x="0" y="-0.1em" dy="1.1em"><tspan font-style="normal" class="text-inner-tspan" font-weight="normal">Normalizo</tspan><tspan font-style="normal" class="text-inner-tspan" font-weight="normal"> dhe</tspan><tspan font-style="normal" class="text-inner-tspan" font-weight="normal"> verifiko</tspan></tspan></text></g></g></g><g class="node default" id="my-svg-flowchart-C-3" data-look="classic" transform="translate(197.37187957763672, 279.1593704223633)"><polygon points="92.15937423706055,0 184.3187484741211,-92.15937423706055 92.15937423706055,-184.3187484741211 0,-92.15937423706055" class="label-container" transform="translate(-91.65937423706055, 92.15937423706055)"/><g class="label" style="" transform="translate(0, -17.299999237060547)"><rect/><g><rect class="background" style="stroke: none"/><text y="-10.1" style=""><tspan class="text-outer-tspan row" x="0" y="-0.1em" dy="1.1em"><tspan font-style="normal" class="text-inner-tspan" font-weight="normal">Shifra</tspan><tspan font-style="normal" class="text-inner-tspan" font-weight="normal"> e</tspan><tspan font-style="normal" class="text-inner-tspan" font-weight="normal"> kontrollit</tspan></tspan><tspan class="text-outer-tspan row" x="0" y="1em" dy="1.1em"><tspan font-style="normal" class="text-inner-tspan" font-weight="normal">e</tspan><tspan font-style="normal" class="text-inner-tspan" font-weight="normal"> vlefshme?</tspan></tspan></text></g></g></g><g class="node default" id="my-svg-flowchart-D-5" data-look="classic" transform="translate(275.6625061035156, 1058.162498474121)"><rect class="basic label-container" style="fill:#ffebee !important;stroke:#c62828 !important" x="-103.8203125" y="-23.5" width="207.640625" height="47"/><g class="label" style="" transform="translate(0, -8.5)"><rect/><g><rect class="background" style="stroke: none"/><text y="-10.1" style=""><tspan class="text-outer-tspan row" x="0" y="-0.1em" dy="1.1em"><tspan font-style="normal" class="text-inner-tspan" font-weight="normal">Shfaq</tspan><tspan font-style="normal" class="text-inner-tspan" font-weight="normal"> gabim</tspan><tspan font-style="normal" class="text-inner-tspan" font-weight="normal"> validimi</tspan></tspan></text></g></g></g><g class="node default" id="my-svg-flowchart-E-7" data-look="classic" transform="translate(328.4671936035156, 1272.5437507629395)"><rect class="basic label-container" style="fill:#fff3e0 !important;stroke:#e65100 !important" x="-94.0234375" y="-32.29999923706055" width="188.046875" height="64.5999984741211"/><g class="label" style="" transform="translate(0, -17.299999237060547)"><rect/><g><rect class="background" style="stroke: none"/><text y="-10.1" style=""><tspan class="text-outer-tspan row" x="0" y="-0.1em" dy="1.1em"><tspan font-style="normal" class="text-inner-tspan" font-weight="normal">Regjistrim</tspan><tspan font-style="normal" class="text-inner-tspan" font-weight="normal"> manual</tspan></tspan><tspan class="text-outer-tspan row" x="0" y="1em" dy="1.1em"><tspan font-style="normal" class="text-inner-tspan" font-weight="normal">(gjithmonë</tspan><tspan font-style="normal" class="text-inner-tspan" font-weight="normal"> gati)</tspan></tspan></text></g></g></g><g class="node default" id="my-svg-flowchart-F-9" data-look="classic" transform="translate(119.08125305175781, 465.81874084472656)"><rect class="basic label-container" style="" x="-99.375" y="-23.5" width="198.75" height="47"/><g class="label" style="" transform="translate(0, -8.5)"><rect/><g><rect class="background" style="stroke: none"/><text y="-10.1" style=""><tspan class="text-outer-tspan row" x="0" y="-0.1em" dy="1.1em"><tspan font-style="normal" class="text-inner-tspan" font-weight="normal">Kërko</tspan><tspan font-style="normal" class="text-inner-tspan" font-weight="normal"> Open</tspan><tspan font-style="normal" class="text-inner-tspan" font-weight="normal"> Library</tspan></tspan></text></g></g></g><g class="node default" id="my-svg-flowchart-G-11" data-look="classic" transform="translate(119.08125305175781, 650.3999938964844)"><polygon points="111.08124923706055,0 222.1624984741211,-111.08124923706055 111.08124923706055,-222.1624984741211 0,-111.08124923706055" class="label-container" transform="translate(-110.58124923706055, 111.08124923706055)"/><g class="label" style="" transform="translate(0, -17.299999237060547)"><rect/><g><rect class="background" style="stroke: none"/><text y="-10.1" style=""><tspan class="text-outer-tspan row" x="0" y="-0.1em" dy="1.1em"><tspan font-style="normal" class="text-inner-tspan" font-weight="normal">U</tspan><tspan font-style="normal" class="text-inner-tspan" font-weight="normal"> gjetën</tspan><tspan font-style="normal" class="text-inner-tspan" font-weight="normal"> metatëdhëna</tspan></tspan><tspan class="text-outer-tspan row" x="0" y="1em" dy="1.1em"><tspan font-style="normal" class="text-inner-tspan" font-weight="normal">të</tspan><tspan font-style="normal" class="text-inner-tspan" font-weight="normal"> dobishme?</tspan></tspan></text></g></g></g><g class="node default" id="my-svg-flowchart-H-13" data-look="classic" transform="translate(119.08125305175781, 864.7812461853027)"><rect class="basic label-container" style="fill:#e8f5e9 !important;stroke:#2e7d32 !important" x="-104.7109375" y="-32.29999923706055" width="209.421875" height="64.5999984741211"/><g class="label" style="" transform="translate(0, -17.299999237060547)"><rect/><g><rect class="background" style="stroke: none"/><text y="-10.1" style=""><tspan class="text-outer-tspan row" x="0" y="-0.1em" dy="1.1em"><tspan font-style="normal" class="text-inner-tspan" font-weight="normal">Kthe</tspan><tspan font-style="normal" class="text-inner-tspan" font-weight="normal"> metatëdhëna</tspan></tspan><tspan class="text-outer-tspan row" x="0" y="1em" dy="1.1em"><tspan font-style="normal" class="text-inner-tspan" font-weight="normal">Ofrues:</tspan><tspan font-style="normal" class="text-inner-tspan" font-weight="normal"> Open</tspan><tspan font-style="normal" class="text-inner-tspan" font-weight="normal"> Library</tspan></tspan></text></g></g></g><g class="node default" id="my-svg-flowchart-I-15" data-look="classic" transform="translate(587.2890701293945, 864.7812461853027)"><rect class="basic label-container" style="" x="-122.9609375" y="-32.29999923706055" width="245.921875" height="64.5999984741211"/><g class="label" style="" transform="translate(0, -17.299999237060547)"><rect/><g><rect class="background" style="stroke: none"/><text y="-10.1" style=""><tspan class="text-outer-tspan row" x="0" y="-0.1em" dy="1.1em"><tspan font-style="normal" class="text-inner-tspan" font-weight="normal">Kërko</tspan><tspan font-style="normal" class="text-inner-tspan" font-weight="normal"> API-n</tspan><tspan font-style="normal" class="text-inner-tspan" font-weight="normal"> e</tspan></tspan><tspan class="text-outer-tspan row" x="0" y="1em" dy="1.1em"><tspan font-style="normal" class="text-inner-tspan" font-weight="normal">metatëdhënave</tspan><tspan font-style="normal" class="text-inner-tspan" font-weight="normal"> Let</tspan><tspan font-style="normal" class="text-inner-tspan" font-weight="normal"> Books</tspan></tspan></text></g></g></g><g class="node default" id="my-svg-flowchart-J-17" data-look="classic" transform="translate(587.2890701293945, 1058.162498474121)"><polygon points="111.08124923706055,0 222.1624984741211,-111.08124923706055 111.08124923706055,-222.1624984741211 0,-111.08124923706055" class="label-container" transform="translate(-110.58124923706055, 111.08124923706055)"/><g class="label" style="" transform="translate(0, -17.299999237060547)"><rect/><g><rect class="background" style="stroke: none"/><text y="-10.1" style=""><tspan class="text-outer-tspan row" x="0" y="-0.1em" dy="1.1em"><tspan font-style="normal" class="text-inner-tspan" font-weight="normal">U</tspan><tspan font-style="normal" class="text-inner-tspan" font-weight="normal"> gjetën</tspan><tspan font-style="normal" class="text-inner-tspan" font-weight="normal"> metatëdhëna</tspan></tspan><tspan class="text-outer-tspan row" x="0" y="1em" dy="1.1em"><tspan font-style="normal" class="text-inner-tspan" font-weight="normal">të</tspan><tspan font-style="normal" class="text-inner-tspan" font-weight="normal"> dobishme?</tspan></tspan></text></g></g></g><g class="node default" id="my-svg-flowchart-K-19" data-look="classic" transform="translate(646.0117263793945, 1272.5437507629395)"><rect class="basic label-container" style="fill:#e8f5e9 !important;stroke:#2e7d32 !important" x="-108.71875" y="-32.29999923706055" width="217.4375" height="64.5999984741211"/><g class="label" style="" transform="translate(0, -17.299999237060547)"><rect/><g><rect class="background" style="stroke: none"/><text y="-10.1" style=""><tspan class="text-outer-tspan row" x="0" y="-0.1em" dy="1.1em"><tspan font-style="normal" class="text-inner-tspan" font-weight="normal">Kthe</tspan><tspan font-style="normal" class="text-inner-tspan" font-weight="normal"> metatëdhëna</tspan></tspan><tspan class="text-outer-tspan row" x="0" y="1em" dy="1.1em"><tspan font-style="normal" class="text-inner-tspan" font-weight="normal">Ofrues:</tspan><tspan font-style="normal" class="text-inner-tspan" font-weight="normal"> Let</tspan><tspan font-style="normal" class="text-inner-tspan" font-weight="normal"> Books</tspan><tspan font-style="normal" class="text-inner-tspan" font-weight="normal"> API</tspan></tspan></text></g></g></g></g></g></g><defs><filter id="my-svg-drop-shadow" height="130%" width="130%"><feDropShadow dx="4" dy="4" stdDeviation="0" flood-opacity="0.06" flood-color="#000000"/></filter></defs><defs><filter id="my-svg-drop-shadow-small" height="150%" width="150%"><feDropShadow dx="2" dy="2" stdDeviation="0" flood-opacity="0.06" flood-color="#000000"/></filter></defs><linearGradient id="my-svg-gradient" gradientUnits="objectBoundingBox" x1="0%" y1="0%" x2="100%" y2="0%"><stop offset="0%" stop-color="hsl(0, 0%, 83.3333333333%)" stop-opacity="1"/><stop offset="100%" stop-color="hsl(0, 0%, 88.9215686275%)" stop-opacity="1"/></linearGradient><text text-anchor="middle" x="381.61524200439453" y="-25" class="flowchartTitleText">Zinxhiri i kërkimit të metatëdhënave ISBN</text></svg>