<svg id="my-svg" width="100%" xmlns="http://www.w3.org/2000/svg" xmlns:xlink="http://www.w3.org/1999/xlink" class="flowchart" style="max-width: 740.78px; background-color: transparent;" viewBox="0 -49 740.7800903320312 1360.984375" role="graphics-document document" aria-roledescription="flowchart-v2"><style>#my-svg{font-family:"trebuchet ms",verdana,arial,sans-serif;font-size:16px;fill:#000000;}@keyframes edge-animation-frame{from{stroke-dashoffset:0;}}@keyframes dash{to{stroke-dashoffset:0;}}#my-svg .edge-animation-slow{stroke-dasharray:9,5!important;stroke-dashoffset:900;animation:dash 50s linear infinite;stroke-linecap:round;}#my-svg .edge-animation-fast{stroke-dasharray:9,5!important;stroke-dashoffset:900;animation:dash 20s linear infinite;stroke-linecap:round;}#my-svg .error-icon{fill:#552222;}#my-svg .error-text{fill:#552222;stroke:#552222;}#my-svg .edge-thickness-normal{stroke-width:1px;}#my-svg .edge-thickness-thick{stroke-width:3.5px;}#my-svg .edge-pattern-solid{stroke-dasharray:0;}#my-svg .edge-thickness-invisible{stroke-width:0;fill:none;}#my-svg .edge-pattern-dashed{stroke-dasharray:3;}#my-svg .edge-pattern-dotted{stroke-dasharray:2;}#my-svg .marker{fill:#666;stroke:#666;}#my-svg .marker.cross{stroke:#666;}#my-svg svg{font-family:"trebuchet ms",verdana,arial,sans-serif;font-size:16px;}#my-svg p{margin:0;}#my-svg .label{font-family:"trebuchet ms",verdana,arial,sans-serif;color:#000000;}#my-svg .cluster-label text{fill:#333;}#my-svg .cluster-label span{color:#333;}#my-svg .cluster-label span p{background-color:transparent;}#my-svg .label text,#my-svg span{fill:#000000;color:#000000;}#my-svg .node rect,#my-svg .node circle,#my-svg .node ellipse,#my-svg .node polygon,#my-svg .node path{fill:#eee;stroke:#999;stroke-width:1px;}#my-svg .rough-node .label text,#my-svg .node .label text,#my-svg .image-shape .label,#my-svg .icon-shape .label{text-anchor:middle;}#my-svg .node .katex path{fill:#000;stroke:#000;stroke-width:1px;}#my-svg .rough-node .label,#my-svg .node .label,#my-svg .image-shape .label,#my-svg .icon-shape .label{text-align:center;}#my-svg .node.clickable{cursor:pointer;}#my-svg .root .anchor path{fill:#666!important;stroke-width:0;stroke:#666;}#my-svg .arrowheadPath{fill:#333333;}#my-svg .edgePath .path{stroke:#666;stroke-width:1px;}#my-svg .flowchart-link{stroke:#666;fill:none;}#my-svg .edgeLabel{background-color:white;text-align:center;}#my-svg .edgeLabel p{background-color:white;}#my-svg .edgeLabel rect{opacity:0.5;background-color:white;fill:white;}#my-svg .labelBkg{background-color:rgba(255, 255, 255, 0.5);}#my-svg .cluster rect{fill:hsl(0, 0%, 98.9215686275%);stroke:#707070;stroke-width:1px;}#my-svg .cluster text{fill:#333;}#my-svg .cluster span{color:#333;}#my-svg div.mermaidTooltip{position:absolute;text-align:center;max-width:200px;padding:2px;font-family:"trebuchet ms",verdana,arial,sans-serif;font-size:12px;background:hsl(-160, 0%, 93.3333333333%);border:1px solid #707070;border-radius:2px;pointer-events:none;z-index:100;}#my-svg .flowchartTitleText{text-anchor:middle;font-size:18px;fill:#000000;}#my-svg rect.text{fill:none;stroke-width:0;}#my-svg .icon-shape,#my-svg .image-shape{background-color:white;text-align:center;}#my-svg .icon-shape p,#my-svg .image-shape p{background-color:white;padding:2px;}#my-svg .icon-shape .label rect,#my-svg .image-shape .label rect{opacity:0.5;background-color:white;fill:white;}#my-svg .label-icon{display:inline-block;height:1em;overflow:visible;vertical-align:-0.125em;}#my-svg .node .label-icon path{fill:currentColor;stroke:revert;stroke-width:revert;}#my-svg .node .neo-node{stroke:#999;}#my-svg [data-look="neo"].node rect,#my-svg [data-look="neo"].cluster rect,#my-svg [data-look="neo"].node polygon{stroke:url(#my-svg-gradient);filter:drop-shadow( 1px 2px 2px rgba(185,185,185,1));}#my-svg [data-look="neo"].node path{stroke:url(#my-svg-gradient);stroke-width:1px;}#my-svg [data-look="neo"].node .outer-path{filter:drop-shadow( 1px 2px 2px rgba(185,185,185,1));}#my-svg [data-look="neo"].node .neo-line path{stroke:#999;filter:none;}#my-svg [data-look="neo"].node circle{stroke:url(#my-svg-gradient);filter:drop-shadow( 1px 2px 2px rgba(185,185,185,1));}#my-svg [data-look="neo"].node circle .state-start{fill:#000000;}#my-svg [data-look="neo"].icon-shape .icon{fill:url(#my-svg-gradient);filter:drop-shadow( 1px 2px 2px rgba(185,185,185,1));}#my-svg [data-look="neo"].icon-shape .icon-neo path{stroke:url(#my-svg-gradient);filter:drop-shadow( 1px 2px 2px rgba(185,185,185,1));}#my-svg :root{--mermaid-font-family:"trebuchet ms",verdana,arial,sans-serif;}</style><g><marker id="my-svg_flowchart-v2-pointEnd" class="marker flowchart-v2" viewBox="0 0 10 10" refX="5" refY="5" markerUnits="userSpaceOnUse" markerWidth="8" markerHeight="8" orient="auto"><path d="M 0 0 L 10 5 L 0 10 z" class="arrowMarkerPath" style="stroke-width: 1; stroke-dasharray: 1, 0;"/></marker><marker id="my-svg_flowchart-v2-pointStart" class="marker flowchart-v2" viewBox="0 0 10 10" refX="4.5" refY="5" markerUnits="userSpaceOnUse" markerWidth="8" markerHeight="8" orient="auto"><path d="M 0 5 L 10 10 L 10 0 z" class="arrowMarkerPath" style="stroke-width: 1; stroke-dasharray: 1, 0;"/></marker><marker id="my-svg_flowchart-v2-pointEnd-margin" class="marker flowchart-v2" viewBox="0 0 11.5 14" refX="11.5" refY="7" markerUnits="userSpaceOnUse" markerWidth="10.5" markerHeight="14" orient="auto"><path d="M 0 0 L 11.5 7 L 0 14 z" class="arrowMarkerPath" style="stroke-width: 0; stroke-dasharray: 1, 0;"/></marker><marker id="my-svg_flowchart-v2-pointStart-margin" class="marker flowchart-v2" viewBox="0 0 11.5 14" refX="1" refY="7" markerUnits="userSpaceOnUse" markerWidth="11.5" markerHeight="14" orient="auto"><polygon points="0,7 11.5,14 11.5,0" class="arrowMarkerPath" style="stroke-width: 0; stroke-dasharray: 1, 0;"/></marker><marker id="my-svg_flowchart-v2-circleEnd" class="marker flowchart-v2" viewBox="0 0 10 10" refX="11" refY="5" markerUnits="userSpaceOnUse" markerWidth="11" markerHeight="11" orient="auto"><circle cx="5" cy="5" r="5" class="arrowMarkerPath" style="stroke-width: 1; stroke-dasharray: 1, 0;"/></marker><marker id="my-svg_flowchart-v2-circleStart" class="marker flowchart-v2" viewBox="0 0 10 10" refX="-1" refY="5" markerUnits="userSpaceOnUse" markerWidth="11" markerHeight="11" orient="auto"><circle cx="5" cy="5" r="5" class="arrowMarkerPath" style="stroke-width: 1; stroke-dasharray: 1, 0;"/></marker><marker id="my-svg_flowchart-v2-circleEnd-margin" class="marker flowchart-v2" viewBox="0 0 10 10" refY="5" refX="12.25" markerUnits="userSpaceOnUse" markerWidth="14" markerHeight="14" orient="auto"><circle cx="5" cy="5" r="5" class="arrowMarkerPath" style="stroke-width: 0; stroke-dasharray: 1, 0;"/></marker><marker id="my-svg_flowchart-v2-circleStart-margin" class="marker flowchart-v2" viewBox="0 0 10 10" refX="-2" refY="5" markerUnits="userSpaceOnUse" markerWidth="14" markerHeight="14" orient="auto"><circle cx="5" cy="5" r="5" class="arrowMarkerPath" style="stroke-width: 0; stroke-dasharray: 1, 0;"/></marker><marker id="my-svg_flowchart-v2-crossEnd" class="marker cross flowchart-v2" viewBox="0 0 11 11" refX="12" refY="5.2" markerUnits="userSpaceOnUse" markerWidth="11" markerHeight="11" orient="auto"><path d="M 1,1 l 9,9 M 10,1 l -9,9" class="arrowMarkerPath" style="stroke-width: 2; stroke-dasharray: 1, 0;"/></marker><marker id="my-svg_flowchart-v2-crossStart" class="marker cross flowchart-v2" viewBox="0 0 11 11" refX="-1" refY="5.2" markerUnits="userSpaceOnUse" markerWidth="11" markerHeight="11" orient="auto"><path d="M 1,1 l 9,9 M 10,1 l -9,9" class="arrowMarkerPath" style="stroke-width: 2; stroke-dasharray: 1, 0;"/></marker><marker id="my-svg_flowchart-v2-crossEnd-margin" class="marker cross flowchart-v2" viewBox="0 0 15 15" refX="17.7" refY="7.5" markerUnits="userSpaceOnUse" markerWidth="12" markerHeight="12" orient="auto"><path d="M 1,1 L 14,14 M 1,14 L 14,1" class="arrowMarkerPath" style="stroke-width: 2.5;"/></marker><marker id="my-svg_flowchart-v2-crossStart-margin" class="marker cross flowchart-v2" viewBox="0 0 15 15" refX="-3.5" refY="7.5" markerUnits="userSpaceOnUse" markerWidth="12" markerHeight="12" orient="auto"><path d="M 1,1 L 14,14 M 1,14 L 14,1" class="arrowMarkerPath" style="stroke-width: 2.5; stroke-dasharray: 1, 0;"/></marker><g class="root"><g class="clusters"/><g class="edgePaths"><path d="M205.277,40.5L205.194,44.583C205.11,48.667,204.944,56.833,204.86,64.417C204.777,72,204.777,79,204.777,82.5L204.777,86" id="my-svg-L_A_B_0" class="edge-thickness-normal edge-pattern-solid edge-thickness-normal edge-pattern-solid flowchart-link" style=";" data-edge="true" data-et="edge" data-id="L_A_B_0" data-points="W3sieCI6MjA1LjI3Njk1NDY1MDg3ODksInkiOjQwLjUwMDAwMDAwMDAwMDAxfSx7IngiOjIwNC43NzY5NTQ2NTA4Nzg5LCJ5Ijo2NX0seyJ4IjoyMDQuNzc2OTU0NjUwODc4OSwieSI6OTB9XQ==" data-look="classic" marker-end="url(#my-svg_flowchart-v2-pointEnd)"/><path d="M204.777,137L204.777,141.167C204.777,145.333,204.777,153.667,204.777,161.333C204.777,169,204.777,176,204.777,179.5L204.777,183" id="my-svg-L_B_C_0" class="edge-thickness-normal edge-pattern-solid edge-thickness-normal edge-pattern-solid flowchart-link" style=";" data-edge="true" data-et="edge" data-id="L_B_C_0" data-points="W3sieCI6MjA0Ljc3Njk1NDY1MDg3ODksInkiOjEzN30seyJ4IjoyMDQuNzc2OTU0NjUwODc4OSwieSI6MTYyfSx7IngiOjIwNC43NzY5NTQ2NTA4Nzg4OCwieSI6MTg2Ljk5OTk5OTk5OTk5OTk3fV0=" data-look="classic" marker-end="url(#my-svg_flowchart-v2-pointEnd)"/><path d="M240.873,348.019L247.769,359.952C254.665,371.885,268.457,395.75,275.353,417.516C282.249,439.282,282.249,458.949,282.249,476.866C282.249,494.782,282.249,510.949,282.249,541.143C282.249,571.338,282.249,615.56,282.249,661.533C282.249,707.505,282.249,755.228,282.249,790.389C282.249,825.55,282.249,848.15,282.249,869C282.249,889.85,282.249,908.95,282.249,936.028C282.249,963.106,282.249,998.161,282.249,1015.689L282.249,1033.217" id="my-svg-L_C_D_0" class="edge-thickness-normal edge-pattern-solid edge-thickness-normal edge-pattern-solid flowchart-link" style=";" data-edge="true" data-et="edge" data-id="L_C_D_0" data-points="W3sieCI6MjQwLjg3MzQ2MzA5MzkxOTY0LCJ5IjozNDguMDE5MTIyNjYwNDc0OX0seyJ4IjoyODIuMjQ5MjIxODAxNzU3OCwieSI6NDE5LjYxNTYzMTEwMzUxNTZ9LHsieCI6MjgyLjI0OTIyMTgwMTc1NzgsInkiOjQ3OC42MTU2MzExMDM1MTU2fSx7IngiOjI4Mi4yNDkyMjE4MDE3NTc4LCJ5Ijo1MjcuMTE1NjMxMTAzNTE1Nn0seyJ4IjoyODIuMjQ5MjIxODAxNzU3OCwieSI6NjU5Ljc4MjgyMTY1NTI3MzR9LHsieCI6MjgyLjI0OTIyMTgwMTc1NzgsInkiOjgwMi45NTAwMTIyMDcwMzEyfSx7IngiOjI4Mi4yNDkyMjE4MDE3NTc4LCJ5Ijo4NzAuNzUwMDExNDQ0MDkxOH0seyJ4IjoyODIuMjQ5MjIxODAxNzU3OCwieSI6OTI4LjA1MDAxMDY4MTE1MjN9LHsieCI6MjgyLjI0OTIyMTgwMTc1NzgsInkiOjEwMzcuMjE3MjAxMjMyOTEwMn1d" data-look="classic" marker-end="url(#my-svg_flowchart-v2-pointEnd)"/><path d="M282.249,1084.217L282.249,1104.162C282.249,1124.106,282.249,1163.995,285.536,1189.289C288.824,1214.582,295.398,1225.279,298.685,1230.628L301.972,1235.977" id="my-svg-L_D_E_0" class="edge-thickness-normal edge-pattern-solid edge-thickness-normal edge-pattern-solid flowchart-link" style=";" data-edge="true" data-et="edge" data-id="L_D_E_0" data-points="W3sieCI6MjgyLjI0OTIyMTgwMTc1NzgsInkiOjEwODQuMjE3MjAxMjMyOTEwMn0seyJ4IjoyODIuMjQ5MjIxODAxNzU3OCwieSI6MTIwMy44ODQzOTE3ODQ2Njh9LHsieCI6MzA0LjA2NjUyMTMxOTAxODUzLCJ5IjoxMjM5LjM4NDM5MTc4NDY2OH1d" data-look="classic" marker-end="url(#my-svg_flowchart-v2-pointEnd)"/><path d="M168.68,348.019L161.784,359.952C154.889,371.885,141.097,395.75,134.201,412.933C127.305,430.116,127.305,440.616,127.305,445.866L127.305,451.116" id="my-svg-L_C_F_0" class="edge-thickness-normal edge-pattern-solid edge-thickness-normal edge-pattern-solid flowchart-link" style=";" data-edge="true" data-et="edge" data-id="L_C_F_0" data-points="W3sieCI6MTY4LjY4MDQ0NjIwNzgzODE3LCJ5IjozNDguMDE5MTIyNjYwNDc1fSx7IngiOjEyNy4zMDQ2ODc1LCJ5Ijo0MTkuNjE1NjMxMTAzNTE1Nn0seyJ4IjoxMjcuMzA0Njg3NSwieSI6NDU1LjExNTYzMTEwMzUxNTZ9XQ==" data-look="classic" marker-end="url(#my-svg_flowchart-v2-pointEnd)"/><path d="M127.305,502.116L127.305,506.282C127.305,510.449,127.305,518.782,127.305,526.449C127.305,534.116,127.305,541.116,127.305,544.616L127.305,548.116" id="my-svg-L_F_G_0" class="edge-thickness-normal edge-pattern-solid edge-thickness-normal edge-pattern-solid flowchart-link" style=";" data-edge="true" data-et="edge" data-id="L_F_G_0" data-points="W3sieCI6MTI3LjMwNDY4NzUsInkiOjUwMi4xMTU2MzExMDM1MTU2fSx7IngiOjEyNy4zMDQ2ODc1LCJ5Ijo1MjcuMTE1NjMxMTAzNTE1Nn0seyJ4IjoxMjcuMzA0Njg3NSwieSI6NTUyLjExNTYzMTEwMzUxNTZ9XQ==" data-look="classic" marker-end="url(#my-svg_flowchart-v2-pointEnd)"/><path d="M127.305,767.45L127.305,773.367C127.305,779.283,127.305,791.117,127.305,802.283C127.305,813.45,127.305,823.95,127.305,829.2L127.305,834.45" id="my-svg-L_G_H_0" class="edge-thickness-normal edge-pattern-solid edge-thickness-normal edge-pattern-solid flowchart-link" style=";" data-edge="true" data-et="edge" data-id="L_G_H_0" data-points="W3sieCI6MTI3LjMwNDY4NzUsInkiOjc2Ny40NTAwMTIyMDcwMzE0fSx7IngiOjEyNy4zMDQ2ODc1LCJ5Ijo4MDIuOTUwMDEyMjA3MDMxMn0seyJ4IjoxMjcuMzA0Njg3NSwieSI6ODM4LjQ1MDAxMjIwNzAzMTJ9XQ==" data-look="classic" marker-end="url(#my-svg_flowchart-v2-pointEnd)"/><path d="M209.014,685.741L270.506,705.275C331.998,724.81,454.982,763.88,516.474,788.665C577.966,813.45,577.966,823.95,577.966,829.2L577.966,834.45" id="my-svg-L_G_I_0" class="edge-thickness-normal edge-pattern-solid edge-thickness-normal edge-pattern-solid flowchart-link" style=";" data-edge="true" data-et="edge" data-id="L_G_I_0" data-points="W3sieCI6MjA5LjAxNDE4MzY2MzU4MDM4LCJ5Ijo2ODUuNzQwNTE2MDQzNDUwOH0seyJ4Ijo1NzcuOTY1NjI5NTc3NjM2NywieSI6ODAyLjk1MDAxMjIwNzAzMTJ9LHsieCI6NTc3Ljk2NTYyOTU3NzYzNjcsInkiOjgzOC40NTAwMTIyMDcwMzEyfV0=" data-look="classic" marker-end="url(#my-svg_flowchart-v2-pointEnd)"/><path d="M577.966,903.05L577.966,907.217C577.966,911.383,577.966,919.717,577.966,927.383C577.966,935.05,577.966,942.05,577.966,945.55L577.966,949.05" id="my-svg-L_I_J_0" class="edge-thickness-normal edge-pattern-solid edge-thickness-normal edge-pattern-solid flowchart-link" style=";" data-edge="true" data-et="edge" data-id="L_I_J_0" data-points="W3sieCI6NTc3Ljk2NTYyOTU3NzYzNjcsInkiOjkwMy4wNTAwMTA2ODExNTIzfSx7IngiOjU3Ny45NjU2Mjk1Nzc2MzY3LCJ5Ijo5MjguMDUwMDEwNjgxMTUyM30seyJ4Ijo1NzcuOTY1NjI5NTc3NjM3NSwieSI6OTUzLjA1MDAxMDY4MTE1MzN9XQ==" data-look="classic" marker-end="url(#my-svg_flowchart-v2-pointEnd)"/><path d="M604.842,1141.508L608.3,1151.904C611.759,1162.3,618.676,1183.092,622.134,1198.738C625.593,1214.384,625.593,1224.884,625.593,1230.134L625.593,1235.384" id="my-svg-L_J_K_0" class="edge-thickness-normal edge-pattern-solid edge-thickness-normal edge-pattern-solid flowchart-link" style=";" data-edge="true" data-et="edge" data-id="L_J_K_0" data-points="W3sieCI6NjA0Ljg0MjAzMjI3MzcwOTUsInkiOjExNDEuNTA3OTg5MDg4NTk1Mn0seyJ4Ijo2MjUuNTkyNTgyNzAyNjM2NywieSI6MTIwMy44ODQzOTE3ODQ2Njh9LHsieCI6NjI1LjU5MjU4MjcwMjYzNjcsInkiOjEyMzkuMzg0MzkxNzg0NjY4fV0=" data-look="classic" marker-end="url(#my-svg_flowchart-v2-pointEnd)"/><path d="M526.812,1117.231L513.739,1131.673C500.666,1146.115,474.521,1175,451.173,1195.04C427.825,1215.08,407.273,1226.275,396.998,1231.873L386.722,1237.471" id="my-svg-L_J_E_0" class="edge-thickness-normal edge-pattern-solid edge-thickness-normal edge-pattern-solid flowchart-link" style=";" data-edge="true" data-et="edge" data-id="L_J_E_0" data-points="W3sieCI6NTI2LjgxMTc3MjMxMjk3NzcsInkiOjExMTcuMjMwNTM0NTIwMDA4OX0seyJ4Ijo0NDguMzc1Nzg1ODI3NjM2NywieSI6MTIwMy44ODQzOTE3ODQ2Njh9LHsieCI6MzgzLjIwOTQxMTQ2MTY4MjQ2LCJ5IjoxMjM5LjM4NDM5MTc4NDY2OH1d" data-look="classic" marker-end="url(#my-svg_flowchart-v2-pointEnd)"/></g><g class="edgeLabels"><g class="edgeLabel"><g class="label" data-id="L_A_B_0" transform="translate(0, 0)"><text y="-10.1" text-anchor="middle"><tspan class="text-outer-tspan row" x="0" y="-0.1em" dy="1.1em" text-anchor="middle"/></text></g></g><g><rect class="background" style="stroke: none"/></g><g class="edgeLabel"><g class="label" data-id="L_B_C_0" transform="translate(0, 0)"><text y="-10.1" text-anchor="middle"><tspan class="text-outer-tspan row" x="0" y="-0.1em" dy="1.1em" text-anchor="middle"/></text></g></g><g><rect class="background" style="stroke: none"/></g><g class="edgeLabel" transform="translate(282.2492218017578, 659.7828216552734)"><g class="label" data-id="L_C_D_0" transform="translate(-0.05078125, -10.5)"><g><rect class="background" style="" x="-12.2265625" y="0" width="24.5546875" height="21"/><text y="-10.1" text-anchor="middle" style=""><tspan class="text-outer-tspan row" x="0" y="-0.1em" dy="1.1em" text-anchor="middle"><tspan font-style="normal" class="text-inner-tspan" font-weight="normal">Не</tspan></tspan></text></g></g></g><g class="edgeLabel"><g class="label" data-id="L_D_E_0" transform="translate(0, 0)"><text y="-10.1" text-anchor="middle"><tspan class="text-outer-tspan row" x="0" y="-0.1em" dy="1.1em" text-anchor="middle"/></text></g></g><g><rect class="background" style="stroke: none"/></g><g class="edgeLabel" transform="translate(127.3046875, 419.6156311035156)"><g class="label" data-id="L_C_F_0" transform="translate(-0.05078125, -10.5)"><g><rect class="background" style="" x="-11.8671875" y="0" width="23.8359375" height="21"/><text y="-10.1" text-anchor="middle" style=""><tspan class="text-outer-tspan row" x="0" y="-0.1em" dy="1.1em" text-anchor="middle"><tspan font-style="normal" class="text-inner-tspan" font-weight="normal">Да</tspan></tspan></text></g></g></g><g class="edgeLabel"><g class="label" data-id="L_F_G_0" transform="translate(0, 0)"><text y="-10.1" text-anchor="middle"><tspan class="text-outer-tspan row" x="0" y="-0.1em" dy="1.1em" text-anchor="middle"/></text></g></g><g><rect class="background" style="stroke: none"/></g><g class="edgeLabel" transform="translate(127.3046875, 802.9500122070312)"><g class="label" data-id="L_G_H_0" transform="translate(-0.05078125, -10.5)"><g><rect class="background" style="" x="-11.8671875" y="0" width="23.8359375" height="21"/><text y="-10.1" text-anchor="middle" style=""><tspan class="text-outer-tspan row" x="0" y="-0.1em" dy="1.1em" text-anchor="middle"><tspan font-style="normal" class="text-inner-tspan" font-weight="normal">Да</tspan></tspan></text></g></g></g><g class="edgeLabel" transform="translate(577.9656295776367, 802.9500122070312)"><g class="label" data-id="L_G_I_0" transform="translate(-0.046875, -10.5)"><g><rect class="background" style="" x="-63.2890625" y="0" width="126.671875" height="21"/><text y="-10.1" text-anchor="middle" style=""><tspan class="text-outer-tspan row" x="0" y="-0.1em" dy="1.1em" text-anchor="middle"><tspan font-style="normal" class="text-inner-tspan" font-weight="normal">Не</tspan><tspan font-style="normal" class="text-inner-tspan" font-weight="normal"> /</tspan><tspan font-style="normal" class="text-inner-tspan" font-weight="normal"> Недостапно</tspan></tspan></text></g></g></g><g class="edgeLabel"><g class="label" data-id="L_I_J_0" transform="translate(0, 0)"><text y="-10.1" text-anchor="middle"><tspan class="text-outer-tspan row" x="0" y="-0.1em" dy="1.1em" text-anchor="middle"/></text></g></g><g><rect class="background" style="stroke: none"/></g><g class="edgeLabel" transform="translate(625.5925827026367, 1203.884391784668)"><g class="label" data-id="L_J_K_0" transform="translate(-0.05078125, -10.5)"><g><rect class="background" style="" x="-11.8671875" y="0" width="23.8359375" height="21"/><text y="-10.1" text-anchor="middle" style=""><tspan class="text-outer-tspan row" x="0" y="-0.1em" dy="1.1em" text-anchor="middle"><tspan font-style="normal" class="text-inner-tspan" font-weight="normal">Да</tspan></tspan></text></g></g></g><g class="edgeLabel" transform="translate(462.69394, 1188.0661)"><g class="label" data-id="L_J_E_0" transform="translate(-0.046875, -10.5)"><g><rect class="background" style="" x="-63.2890625" y="0" width="126.671875" height="21"/><text y="-10.1" text-anchor="middle" style=""><tspan class="text-outer-tspan row" x="0" y="-0.1em" dy="1.1em" text-anchor="middle"><tspan font-style="normal" class="text-inner-tspan" font-weight="normal">Не</tspan><tspan font-style="normal" class="text-inner-tspan" font-weight="normal"> /</tspan><tspan font-style="normal" class="text-inner-tspan" font-weight="normal"> Недостапно</tspan></tspan></text></g></g></g></g><g class="nodes"><g class="node default" id="my-svg-flowchart-A-0" data-look="classic" transform="translate(204.7769546508789, 24)"><g class="basic label-container outer-path"><path d="M-45.6953125 -16 C-12.152142039873212 -16, 21.391028420253576 -16, 45.6953125 -16 C45.6953125 -16, 45.6953125 -16, 45.6953125 -16 C46.02829871317498 -15.989321780261823, 46.36128492634997 -15.978643560523647, 46.720436019691405 -15.967126284005381 C46.984369585879435 -15.941664930301776, 47.24830315206746 -15.916203576598173, 47.741347086952096 -15.868640221171939 C48.00324234208319 -15.82629902735038, 48.265137597214284 -15.783957833528822, 48.75385055922195 -15.704946511857047 C48.99460338509443 -15.649996250410664, 49.23535621096691 -15.595045988964284, 49.75378584255211 -15.476717808624471 C50.027289099961514 -15.395543477473256, 50.30079235737091 -15.314369146322042, 50.737043988377934 -15.184891952170698 C50.94979177880427 -15.10659879867479, 51.1625395692306 -15.028305645178882, 51.69958457806999 -14.830668117536348 C51.91755377653449 -14.734179619202655, 52.13552297499899 -14.637691120868961, 52.63745232588093 -14.415501886438706 C52.915838783388615 -14.270267849871983, 53.1942252408963 -14.125033813305258, 53.546793332063004 -13.941099265974232 C53.896179254992305 -13.729299466274902, 54.24556517792161 -13.51749966657557, 54.42387091936878 -13.409409678269451 C54.73384623189549 -13.193184318865828, 55.043821544422194 -12.976958959462205, 55.265080987859456 -12.822617949887306 C55.4916920301107 -12.641901674065036, 55.71830307236194 -12.461185398242764, 56.06696682492461 -12.183135333906153 C56.30280122638767 -11.968956770333733, 56.53863562785073 -11.754778206761314, 56.826233309655784 -11.493589601563642 C56.97198344670532 -11.343090618751198, 57.11773358375486 -11.192591635938754, 57.53976045320505 -10.756814244181072 C57.720373274757804 -10.544656146824517, 57.90098609631056 -10.332498049467961, 58.20461621948848 -9.975836829739738 C58.337414945686795 -9.79789863484683, 58.47021367188511 -9.619960439953921, 58.81806857355129 -9.153866561954718 C58.96810190363649 -8.923375077353645, 59.11813523372169 -8.692883592752574, 59.377596708085534 -8.294281092968403 C59.55909572052654 -7.972011217611459, 59.74059473296755 -7.649741342254516, 59.880901401968 -7.400612643853364 C59.977171958833736 -7.200704772661737, 60.07344251569947 -7.00079690147011, 60.325914468252996 -6.476533489958305 C60.455661912018485 -6.156054795361377, 60.58540935578397 -5.835576100764449, 60.710807252796165 -5.52584087074093 C60.8347966071582 -5.1524046904233325, 60.95878596152022 -4.778968510105734, 61.03399814858657 -4.552441386096524 C61.13337389676789 -4.173478588559416, 61.23274964494922 -3.7945157910223086, 61.294159094909176 -3.560334943301032 C61.3469715794541 -3.2891539970854033, 61.39978406399903 -3.0179730508697746, 61.490221034631205 -2.5535983205340735 C61.524742284056686 -2.2858583269818014, 61.55926353348217 -2.0181183334295296, 61.62137830718717 -1.536368414522911 C61.64032986032426 -1.241182676994405, 61.65928141346134 -0.9459969394658988, 61.687091959211 -0.5128252411464826 C61.687091959211 -0.20139407681651916, 61.687091959211 0.11003708751344432, 61.687091959211 0.5128252411464788 C61.663037603244 0.8874912516592515, 61.638983247277 1.2621572621720243, 61.62137830718717 1.5363684145229002 C61.57373638520599 1.9058697534473368, 61.52609446322481 2.275371092371773, 61.490221034631205 2.5535983205340624 C61.419617615885535 2.9161319537552166, 61.34901419713987 3.2786655869763712, 61.294159094909176 3.5603349433010285 C61.209879138877824 3.881730942812567, 61.12559918284648 4.203126942324105, 61.03399814858657 4.552441386096513 C60.96516500889865 4.75975583576508, 60.89633186921073 4.967070285433648, 60.710807252796165 5.525840870740919 C60.61745101464741 5.756432583888435, 60.52409477649865 5.98702429703595, 60.325914468253 6.4765334899583005 C60.223533192626704 6.689130399404674, 60.12115191700041 6.901727308851048, 59.880901401968 7.400612643853361 C59.77838166219746 7.5826468230653195, 59.67586192242691 7.764681002277278, 59.37759670808554 8.294281092968399 C59.171008002521894 8.611656821549092, 58.964419296958255 8.929032550129783, 58.8180685735513 9.15386656195471 C58.64364056943751 9.38758419674911, 58.469212565323716 9.621301831543512, 58.20461621948848 9.975836829739734 C57.95099797285617 10.273751253521093, 57.69737972622387 10.571665677302454, 57.539760453205055 10.756814244181063 C57.31222586262145 10.991762389895937, 57.08469127203785 11.22671053561081, 56.826233309655784 11.493589601563638 C56.653503135171356 11.650458575840416, 56.480772960686934 11.807327550117195, 56.06696682492463 12.183135333906142 C55.89947328090586 12.316706978070714, 55.73197973688709 12.450278622235285, 55.26508098785946 12.822617949887304 C55.07455441091576 12.955521042200647, 54.884027833972056 13.08842413451399, 54.42387091936879 13.409409678269446 C54.2474750511122 13.516341890223776, 54.071079182855605 13.623274102178108, 53.546793332063004 13.94109926597423 C53.29917690468433 14.070280597531793, 53.05156047730565 14.199461929089358, 52.63745232588093 14.415501886438705 C52.40037139114623 14.520450583489701, 52.16329045641153 14.625399280540698, 51.699584578069995 14.830668117536346 C51.44662727201238 14.923758744477253, 51.19366996595477 15.016849371418157, 50.73704398837794 15.184891952170695 C50.41940550099108 15.27916538790867, 50.10176701360423 15.373438823646646, 49.75378584255213 15.476717808624468 C49.496800634273946 15.535373005428756, 49.239815425995765 15.594028202233046, 48.75385055922196 15.704946511857045 C48.4249663246985 15.758117964359466, 48.09608209017505 15.811289416861888, 47.7413470869521 15.868640221171937 C47.43132779098505 15.898547409801125, 47.12130849501799 15.928454598430314, 46.720436019691405 15.967126284005381 C46.388985476805274 15.977755257786395, 46.05753493391915 15.988384231567409, 45.6953125 16 C45.6953125 16, 45.6953125 16, 45.6953125 16 C13.161433528984738 16, -19.372445442030525 16, -45.6953125 16 C-45.993742257706415 15.99042993852864, -46.29217201541283 15.98085987705728, -46.7204360196914 15.967126284005381 C-47.12622285614852 15.927980515922435, -47.53200969260564 15.888834747839487, -47.741347086952096 15.868640221171937 C-48.03496431651987 15.821170464531043, -48.32858154608764 15.773700707890148, -48.75385055922196 15.704946511857045 C-49.152148316483455 15.614037647897877, -49.55044607374495 15.52312878393871, -49.75378584255211 15.476717808624471 C-50.09471046164747 15.375533171226813, -50.43563508074283 15.274348533829155, -50.73704398837792 15.184891952170702 C-51.100204916948044 15.051245373434073, -51.46336584551817 14.917598794697444, -51.69958457806999 14.830668117536348 C-51.9195713607761 14.733286494508405, -52.139558143482205 14.635904871480463, -52.63745232588093 14.415501886438708 C-52.93977988536527 14.25777779230577, -53.242107444849616 14.10005369817283, -53.546793332063 13.941099265974234 C-53.76982071425775 13.805898756233397, -53.992848096452505 13.670698246492558, -54.42387091936877 13.409409678269457 C-54.62554735052389 13.268728930327642, -54.827223781679 13.128048182385825, -55.265080987859456 12.822617949887308 C-55.53579706306291 12.606729083969865, -55.80651313826637 12.390840218052423, -56.06696682492461 12.183135333906154 C-56.31944860932727 11.953838057613607, -56.57193039372992 11.724540781321062, -56.82623330965578 11.493589601563649 C-57.10575584535795 11.204959634224176, -57.38527838106012 10.916329666884703, -57.53976045320505 10.756814244181069 C-57.748470604142724 10.511651424945658, -57.957180755080394 10.266488605710247, -58.20461621948847 9.97583682973974 C-58.38149077139903 9.738841043782763, -58.55836532330958 9.501845257825785, -58.81806857355129 9.15386656195472 C-58.99695896199081 8.879042886516247, -59.17584935043034 8.604219211077774, -59.377596708085534 8.29428109296841 C-59.493528413813024 8.088432610091079, -59.60946011954051 7.88258412721375, -59.880901401968 7.400612643853366 C-59.98673397878283 7.180849033642997, -60.09256655559765 6.961085423432628, -60.325914468252996 6.476533489958307 C-60.465460777044655 6.131851409298576, -60.60500708583631 5.787169328638845, -60.710807252796165 5.525840870740931 C-60.80800627047963 5.233092916038676, -60.9052052881631 4.94034496133642, -61.03399814858657 4.552441386096519 C-61.12453452883655 4.207186929487925, -61.215070909086535 3.8619324728793316, -61.294159094909176 3.5603349433010343 C-61.335936660067965 3.345815975902182, -61.377714225226754 3.1312970085033305, -61.490221034631205 2.5535983205340753 C-61.538219617556784 2.1813307897555463, -61.586218200482364 1.8090632589770168, -61.62137830718717 1.5363684145229202 C-61.6422527929078 1.2112314498425687, -61.66312727862842 0.886094485162217, -61.687091959211 0.5128252411464846 C-61.687091959211 0.22675733581622493, -61.687091959211 -0.059310569514034794, -61.687091959211 -0.5128252411464769 C-61.66376380182577 -0.8761801225711451, -61.640435644440544 -1.2395350039958133, -61.62137830718717 -1.5363684145228982 C-61.57012714627877 -1.9338622978420055, -61.51887598537037 -2.3313561811611128, -61.490221034631205 -2.5535983205340678 C-61.43085351808747 -2.858437970657083, -61.37148600154373 -3.1632776207800988, -61.294159094909176 -3.5603349433010267 C-61.237376976965585 -3.776869768545532, -61.180594859021994 -3.993404593790038, -61.033998148586576 -4.552441386096511 C-60.93809836081125 -4.8412762673196115, -60.84219857303593 -5.130111148542711, -60.71080725279617 -5.525840870740911 C-60.564311025396336 -5.887689384730389, -60.4178147979965 -6.2495378987198675, -60.325914468253 -6.476533489958299 C-60.14832070606879 -6.845310737031605, -59.970726943884564 -7.214087984104911, -59.880901401968 -7.400612643853359 C-59.69568845339902 -7.729476988882333, -59.51047550483004 -8.058341333911308, -59.377596708085534 -8.294281092968404 C-59.216585780995985 -8.541637114465692, -59.05557485390644 -8.78899313596298, -58.818068573551294 -9.153866561954715 C-58.65491247706798 -9.372480867416181, -58.491756380584675 -9.59109517287765, -58.20461621948848 -9.975836829739734 C-57.99099959294474 -10.226763074408405, -57.77738296640099 -10.477689319077076, -57.539760453205055 -10.756814244181063 C-57.349687941666346 -10.953079717588198, -57.15961543012763 -11.149345190995332, -56.82623330965579 -11.493589601563633 C-56.620944624559264 -11.680027353727336, -56.41565593946274 -11.86646510589104, -56.06696682492463 -12.18313533390614 C-55.810138295506505 -12.387949251622894, -55.55330976608838 -12.592763169339648, -55.26508098785946 -12.822617949887302 C-55.003237023221516 -13.005268964576192, -54.741393058583576 -13.18791997926508, -54.42387091936879 -13.409409678269444 C-54.0736595418455 -13.621709873394558, -53.723448164322214 -13.834010068519671, -53.546793332063004 -13.941099265974229 C-53.268469241064835 -14.086300765972886, -52.99014515006667 -14.231502265971544, -52.637452325880936 -14.415501886438705 C-52.266529261648074 -14.579698523932832, -51.895606197415205 -14.743895161426959, -51.699584578069995 -14.830668117536344 C-51.44917290776084 -14.922821926990219, -51.198761237451684 -15.014975736444093, -50.73704398837794 -15.184891952170695 C-50.48614427418594 -15.259357670343405, -50.235244559993944 -15.333823388516116, -49.75378584255213 -15.476717808624466 C-49.533179013622195 -15.527069877733629, -49.31257218469226 -15.577421946842792, -48.753850559221966 -15.704946511857043 C-48.42065427727953 -15.758815102745737, -48.0874579953371 -15.812683693634433, -47.7413470869521 -15.868640221171937 C-47.52699193153564 -15.88931880521517, -47.31263677611918 -15.909997389258406, -46.720436019691405 -15.967126284005381 C-46.341249673954046 -15.97928605207173, -45.962063328216686 -15.99144582013808, -45.69531250000001 -16 C-45.69531250000001 -16, -45.6953125 -16, -45.6953125 -16" stroke="none" stroke-width="0" fill="#eee" style=""/><path d="M-45.6953125 -16 C-26.71900591937443 -16, -7.7426993387488565 -16, 45.6953125 -16 M-45.6953125 -16 C-18.48886914283353 -16, 8.717574214332942 -16, 45.6953125 -16 M45.6953125 -16 C45.6953125 -16, 45.6953125 -16, 45.6953125 -16 M45.6953125 -16 C45.6953125 -16, 45.6953125 -16, 45.6953125 -16 M45.6953125 -16 C45.926104197478 -15.992598959470667, 46.15689589495599 -15.985197918941337, 46.720436019691405 -15.967126284005381 M45.6953125 -16 C45.99185646217114 -15.990490412320979, 46.28840042434229 -15.980980824641955, 46.720436019691405 -15.967126284005381 M46.720436019691405 -15.967126284005381 C47.014956308137066 -15.938714265991498, 47.30947659658272 -15.910302247977617, 47.741347086952096 -15.868640221171939 M46.720436019691405 -15.967126284005381 C47.02663368482066 -15.937587763506933, 47.33283134994992 -15.908049243008483, 47.741347086952096 -15.868640221171939 M47.741347086952096 -15.868640221171939 C48.017078063363655 -15.824062175231376, 48.292809039775214 -15.779484129290813, 48.75385055922195 -15.704946511857047 M47.741347086952096 -15.868640221171939 C48.12837643864764 -15.806068317047252, 48.515405790343195 -15.743496412922564, 48.75385055922195 -15.704946511857047 M48.75385055922195 -15.704946511857047 C49.12815713759295 -15.619513477922562, 49.50246371596395 -15.534080443988074, 49.75378584255211 -15.476717808624471 M48.75385055922195 -15.704946511857047 C49.09796330274827 -15.626405023692675, 49.442076046274586 -15.5478635355283, 49.75378584255211 -15.476717808624471 M49.75378584255211 -15.476717808624471 C50.09293266578092 -15.376060811708163, 50.43207948900974 -15.275403814791856, 50.737043988377934 -15.184891952170698 M49.75378584255211 -15.476717808624471 C50.11277399694537 -15.370172008767828, 50.47176215133863 -15.263626208911186, 50.737043988377934 -15.184891952170698 M50.737043988377934 -15.184891952170698 C50.932646414070305 -15.112908451386902, 51.12824883976268 -15.040924950603108, 51.69958457806999 -14.830668117536348 M50.737043988377934 -15.184891952170698 C51.088197148353096 -15.055664343275613, 51.43935030832825 -14.926436734380525, 51.69958457806999 -14.830668117536348 M51.69958457806999 -14.830668117536348 C51.976992919094585 -14.707867673990817, 52.25440126011919 -14.585067230445285, 52.63745232588093 -14.415501886438706 M51.69958457806999 -14.830668117536348 C51.94114114431784 -14.723738191179368, 52.1826977105657 -14.61680826482239, 52.63745232588093 -14.415501886438706 M52.63745232588093 -14.415501886438706 C52.916759674608926 -14.269787421512206, 53.19606702333693 -14.124072956585703, 53.546793332063004 -13.941099265974232 M52.63745232588093 -14.415501886438706 C52.88532734777694 -14.286185646287084, 53.133202369672965 -14.156869406135462, 53.546793332063004 -13.941099265974232 M53.546793332063004 -13.941099265974232 C53.87589204947636 -13.741597689479521, 54.20499076688972 -13.54209611298481, 54.42387091936878 -13.409409678269451 M53.546793332063004 -13.941099265974232 C53.816878791448005 -13.777371873296708, 54.08696425083301 -13.613644480619183, 54.42387091936878 -13.409409678269451 M54.42387091936878 -13.409409678269451 C54.73317433969009 -13.19365300178257, 55.0424777600114 -12.977896325295688, 55.265080987859456 -12.822617949887306 M54.42387091936878 -13.409409678269451 C54.663088193259384 -13.242542063552252, 54.902305467149986 -13.075674448835052, 55.265080987859456 -12.822617949887306 M55.265080987859456 -12.822617949887306 C55.52113968365658 -12.618417953997165, 55.7771983794537 -12.414217958107026, 56.06696682492461 -12.183135333906153 M55.265080987859456 -12.822617949887306 C55.583913806184704 -12.568357261770544, 55.90274662450995 -12.314096573653782, 56.06696682492461 -12.183135333906153 M56.06696682492461 -12.183135333906153 C56.3667687465699 -11.91086316099207, 56.666570668215186 -11.638590988077988, 56.826233309655784 -11.493589601563642 M56.06696682492461 -12.183135333906153 C56.23061560904643 -12.034513838076274, 56.39426439316825 -11.885892342246395, 56.826233309655784 -11.493589601563642 M56.826233309655784 -11.493589601563642 C57.107279168880645 -11.203386677619811, 57.3883250281055 -10.913183753675979, 57.53976045320505 -10.756814244181072 M56.826233309655784 -11.493589601563642 C57.110002954181844 -11.200574145669384, 57.39377259870791 -10.907558689775126, 57.53976045320505 -10.756814244181072 M57.53976045320505 -10.756814244181072 C57.7272470008627 -10.536581877015614, 57.91473354852035 -10.316349509850154, 58.20461621948848 -9.975836829739738 M57.53976045320505 -10.756814244181072 C57.70903290013219 -10.557977196145359, 57.87830534705934 -10.359140148109645, 58.20461621948848 -9.975836829739738 M58.20461621948848 -9.975836829739738 C58.34736559424 -9.784565672308261, 58.490114968991534 -9.593294514876785, 58.81806857355129 -9.153866561954718 M58.20461621948848 -9.975836829739738 C58.341163529220495 -9.792875874414657, 58.47771083895252 -9.609914919089574, 58.81806857355129 -9.153866561954718 M58.81806857355129 -9.153866561954718 C59.0054729782333 -8.865963071234312, 59.192877382915306 -8.578059580513905, 59.377596708085534 -8.294281092968403 M58.81806857355129 -9.153866561954718 C59.01785631924511 -8.846938934047508, 59.21764406493893 -8.540011306140297, 59.377596708085534 -8.294281092968403 M59.377596708085534 -8.294281092968403 C59.541210557104094 -8.003768136337202, 59.704824406122654 -7.7132551797060005, 59.880901401968 -7.400612643853364 M59.377596708085534 -8.294281092968403 C59.54428171593127 -7.9983149828509985, 59.710966723777005 -7.702348872733594, 59.880901401968 -7.400612643853364 M59.880901401968 -7.400612643853364 C59.98138424119302 -7.191957878214281, 60.081867080418036 -6.983303112575198, 60.325914468252996 -6.476533489958305 M59.880901401968 -7.400612643853364 C60.03754727114539 -7.07533414482184, 60.19419314032278 -6.750055645790314, 60.325914468252996 -6.476533489958305 M60.325914468252996 -6.476533489958305 C60.425875532814885 -6.229627727874725, 60.52583659737678 -5.982721965791145, 60.710807252796165 -5.52584087074093 M60.325914468252996 -6.476533489958305 C60.40917622311568 -6.270875345690952, 60.49243797797837 -6.065217201423598, 60.710807252796165 -5.52584087074093 M60.710807252796165 -5.52584087074093 C60.809616388646134 -5.228243496658657, 60.90842552449611 -4.930646122576384, 61.03399814858657 -4.552441386096524 M60.710807252796165 -5.52584087074093 C60.80084115599327 -5.254673099265646, 60.89087505919037 -4.983505327790363, 61.03399814858657 -4.552441386096524 M61.03399814858657 -4.552441386096524 C61.09207017500671 -4.33098758078107, 61.150142201426846 -4.109533775465616, 61.294159094909176 -3.560334943301032 M61.03399814858657 -4.552441386096524 C61.127062091289694 -4.197548238401598, 61.22012603399282 -3.842655090706674, 61.294159094909176 -3.560334943301032 M61.294159094909176 -3.560334943301032 C61.36892741806734 -3.176415406174592, 61.44369574122549 -2.792495869048152, 61.490221034631205 -2.5535983205340735 M61.294159094909176 -3.560334943301032 C61.349674580466235 -3.2752746581675636, 61.405190066023295 -2.9902143730340955, 61.490221034631205 -2.5535983205340735 M61.490221034631205 -2.5535983205340735 C61.530023795659474 -2.244895965942991, 61.569826556687744 -1.9361936113519085, 61.62137830718717 -1.536368414522911 M61.490221034631205 -2.5535983205340735 C61.51942296733403 -2.327113897064818, 61.548624900036856 -2.1006294735955633, 61.62137830718717 -1.536368414522911 M61.62137830718717 -1.536368414522911 C61.63910272751523 -1.2602962610187882, 61.65682714784329 -0.9842241075146656, 61.687091959211 -0.5128252411464826 M61.62137830718717 -1.536368414522911 C61.64448444117406 -1.1764717267414824, 61.66759057516094 -0.8165750389600539, 61.687091959211 -0.5128252411464826 M61.687091959211 -0.5128252411464826 C61.687091959211 -0.19178794738029376, 61.687091959211 0.12924934638589514, 61.687091959211 0.5128252411464788 M61.687091959211 -0.5128252411464826 C61.687091959211 -0.27326312432381195, 61.687091959211 -0.033701007501141245, 61.687091959211 0.5128252411464788 M61.687091959211 0.5128252411464788 C61.66257521861786 0.8946932654415364, 61.63805847802472 1.2765612897365939, 61.62137830718717 1.5363684145229002 M61.687091959211 0.5128252411464788 C61.66315983226349 0.8855874360191553, 61.63922770531598 1.258349630891832, 61.62137830718717 1.5363684145229002 M61.62137830718717 1.5363684145229002 C61.569062990219315 1.9421156820977659, 61.51674767325146 2.3478629496726313, 61.490221034631205 2.5535983205340624 M61.62137830718717 1.5363684145229002 C61.57472338862655 1.898214749823343, 61.52806847006593 2.260061085123786, 61.490221034631205 2.5535983205340624 M61.490221034631205 2.5535983205340624 C61.4415363038568 2.8035841235391326, 61.392851573082396 3.0535699265442027, 61.294159094909176 3.5603349433010285 M61.490221034631205 2.5535983205340624 C61.41328894586375 2.9486283367522375, 61.336356857096284 3.3436583529704125, 61.294159094909176 3.5603349433010285 M61.294159094909176 3.5603349433010285 C61.20665916136494 3.8940101126162885, 61.1191592278207 4.227685281931549, 61.03399814858657 4.552441386096513 M61.294159094909176 3.5603349433010285 C61.230072894703355 3.8047233998206855, 61.16598669449753 4.0491118563403425, 61.03399814858657 4.552441386096513 M61.03399814858657 4.552441386096513 C60.94521375315742 4.819845839256758, 60.85642935772826 5.0872502924170035, 60.710807252796165 5.525840870740919 M61.03399814858657 4.552441386096513 C60.940138346891196 4.835132154274444, 60.84627854519582 5.1178229224523735, 60.710807252796165 5.525840870740919 M60.710807252796165 5.525840870740919 C60.56491620048286 5.886194590566402, 60.41902514816955 6.2465483103918835, 60.325914468253 6.4765334899583005 M60.710807252796165 5.525840870740919 C60.561536405668605 5.894542749101505, 60.41226555854104 6.2632446274620905, 60.325914468253 6.4765334899583005 M60.325914468253 6.4765334899583005 C60.202564575738144 6.732672181030298, 60.07921468322329 6.988810872102296, 59.880901401968 7.400612643853361 M60.325914468253 6.4765334899583005 C60.20006866151693 6.737855000314663, 60.07422285478086 6.999176510671026, 59.880901401968 7.400612643853361 M59.880901401968 7.400612643853361 C59.780083684257434 7.579624710549411, 59.679265966546865 7.758636777245462, 59.37759670808554 8.294281092968399 M59.880901401968 7.400612643853361 C59.71485065167824 7.695452565454603, 59.54879990138848 7.990292487055846, 59.37759670808554 8.294281092968399 M59.37759670808554 8.294281092968399 C59.156830532555894 8.633437222600609, 58.936064357026254 8.972593352232819, 58.8180685735513 9.15386656195471 M59.37759670808554 8.294281092968399 C59.24475537928893 8.498361046891445, 59.11191405049233 8.702441000814492, 58.8180685735513 9.15386656195471 M58.8180685735513 9.15386656195471 C58.65950134586822 9.36633220127841, 58.50093411818515 9.57879784060211, 58.20461621948848 9.975836829739734 M58.8180685735513 9.15386656195471 C58.624407844127624 9.41335429652704, 58.43074711470394 9.672842031099368, 58.20461621948848 9.975836829739734 M58.20461621948848 9.975836829739734 C58.05888589030368 10.147019966690841, 57.91315556111888 10.318203103641947, 57.539760453205055 10.756814244181063 M58.20461621948848 9.975836829739734 C58.06759677748064 10.136787662949262, 57.9305773354728 10.297738496158788, 57.539760453205055 10.756814244181063 M57.539760453205055 10.756814244181063 C57.38581084998408 10.915779849004206, 57.2318612467631 11.074745453827349, 56.826233309655784 11.493589601563638 M57.539760453205055 10.756814244181063 C57.38141557098478 10.920318335430105, 57.223070688764494 11.083822426679145, 56.826233309655784 11.493589601563638 M56.826233309655784 11.493589601563638 C56.56496419666849 11.730867297176777, 56.303695083681205 11.968144992789917, 56.06696682492463 12.183135333906142 M56.826233309655784 11.493589601563638 C56.59962991749297 11.699384806728698, 56.373026525330154 11.905180011893759, 56.06696682492463 12.183135333906142 M56.06696682492463 12.183135333906142 C55.84526184423287 12.359939156190505, 55.62355686354112 12.536742978474868, 55.26508098785946 12.822617949887304 M56.06696682492463 12.183135333906142 C55.78119427218026 12.411031339992773, 55.49542171943588 12.638927346079404, 55.26508098785946 12.822617949887304 M55.26508098785946 12.822617949887304 C54.95798672931379 13.036833610752572, 54.65089247076812 13.251049271617841, 54.42387091936879 13.409409678269446 M55.26508098785946 12.822617949887304 C54.94717804052614 13.04437328415024, 54.629275093192824 13.266128618413175, 54.42387091936879 13.409409678269446 M54.42387091936879 13.409409678269446 C54.17232502728045 13.561898276301141, 53.92077913519211 13.714386874332838, 53.546793332063004 13.94109926597423 M54.42387091936879 13.409409678269446 C54.192708162545934 13.549541899918609, 53.96154540572307 13.689674121567771, 53.546793332063004 13.94109926597423 M53.546793332063004 13.94109926597423 C53.24796413354351 14.096998267432612, 52.94913493502402 14.252897268890994, 52.63745232588093 14.415501886438705 M53.546793332063004 13.94109926597423 C53.20897644516997 14.117338119484284, 52.87115955827693 14.29357697299434, 52.63745232588093 14.415501886438705 M52.63745232588093 14.415501886438705 C52.434048851015106 14.505542571012102, 52.23064537614928 14.595583255585499, 51.699584578069995 14.830668117536346 M52.63745232588093 14.415501886438705 C52.274622638732815 14.576115825978915, 51.9117929515847 14.736729765519126, 51.699584578069995 14.830668117536346 M51.699584578069995 14.830668117536346 C51.3258080266117 14.968221343625563, 50.95203147515341 15.10577456971478, 50.73704398837794 15.184891952170695 M51.699584578069995 14.830668117536346 C51.472144618487 14.914368125094827, 51.24470465890401 14.998068132653307, 50.73704398837794 15.184891952170695 M50.73704398837794 15.184891952170695 C50.53423489241193 15.245084627286738, 50.33142579644593 15.30527730240278, 49.75378584255213 15.476717808624468 M50.73704398837794 15.184891952170695 C50.47762994564725 15.261884678361067, 50.21821590291656 15.338877404551438, 49.75378584255213 15.476717808624468 M49.75378584255213 15.476717808624468 C49.505188272447384 15.533458581750125, 49.256590702342635 15.590199354875782, 48.75385055922196 15.704946511857045 M49.75378584255213 15.476717808624468 C49.393574016565125 15.558933807304163, 49.03336219057812 15.641149805983856, 48.75385055922196 15.704946511857045 M48.75385055922196 15.704946511857045 C48.39358969220894 15.763190694970959, 48.03332882519593 15.821434878084874, 47.7413470869521 15.868640221171937 M48.75385055922196 15.704946511857045 C48.440590553979035 15.755591960137098, 48.12733054873612 15.80623740841715, 47.7413470869521 15.868640221171937 M47.7413470869521 15.868640221171937 C47.53059278048025 15.88897143564814, 47.31983847400839 15.909302650124342, 46.720436019691405 15.967126284005381 M47.7413470869521 15.868640221171937 C47.52637454622428 15.889378363633645, 47.311402005496454 15.91011650609535, 46.720436019691405 15.967126284005381 M46.720436019691405 15.967126284005381 C46.355215414953506 15.978838197940544, 45.98999481021561 15.990550111875706, 45.6953125 16 M46.720436019691405 15.967126284005381 C46.321845585055776 15.97990830343493, 45.923255150420154 15.99269032286448, 45.6953125 16 M45.6953125 16 C45.6953125 16, 45.6953125 16, 45.6953125 16 M45.6953125 16 C45.6953125 16, 45.6953125 16, 45.6953125 16 M45.6953125 16 C14.526941001670295 16, -16.64143049665941 16, -45.6953125 16 M45.6953125 16 C15.516424397609757 16, -14.662463704780485 16, -45.6953125 16 M-45.6953125 16 C-45.94682195997178 15.99193458115217, -46.198331419943564 15.983869162304341, -46.7204360196914 15.967126284005381 M-45.6953125 16 C-46.06665501516621 15.988091768312977, -46.437997530332424 15.976183536625955, -46.7204360196914 15.967126284005381 M-46.7204360196914 15.967126284005381 C-46.94504182775754 15.945458831829246, -47.169647635823694 15.92379137965311, -47.741347086952096 15.868640221171937 M-46.7204360196914 15.967126284005381 C-46.97746030205977 15.94233146060223, -47.23448458442814 15.917536637199078, -47.741347086952096 15.868640221171937 M-47.741347086952096 15.868640221171937 C-48.07661738340522 15.814436319701377, -48.41188767985835 15.760232418230816, -48.75385055922196 15.704946511857045 M-47.741347086952096 15.868640221171937 C-47.946521882332696 15.835469151409104, -48.151696677713296 15.80229808164627, -48.75385055922196 15.704946511857045 M-48.75385055922196 15.704946511857045 C-49.02589663190303 15.642853771034122, -49.2979427045841 15.580761030211198, -49.75378584255211 15.476717808624471 M-48.75385055922196 15.704946511857045 C-48.977899820502955 15.653808730027723, -49.20194908178396 15.602670948198401, -49.75378584255211 15.476717808624471 M-49.75378584255211 15.476717808624471 C-49.95827752304153 15.416025751253947, -50.16276920353096 15.355333693883422, -50.73704398837792 15.184891952170702 M-49.75378584255211 15.476717808624471 C-49.96180430339102 15.414979021358667, -50.16982276422992 15.353240234092864, -50.73704398837792 15.184891952170702 M-50.73704398837792 15.184891952170702 C-50.97539612529669 15.097176162481594, -51.21374826221547 15.009460372792484, -51.69958457806999 14.830668117536348 M-50.73704398837792 15.184891952170702 C-51.077075671561126 15.059757149540859, -51.41710735474434 14.934622346911016, -51.69958457806999 14.830668117536348 M-51.69958457806999 14.830668117536348 C-51.937428885398695 14.725381498082626, -52.17527319272741 14.620094878628905, -52.63745232588093 14.415501886438708 M-51.69958457806999 14.830668117536348 C-51.96229220968285 14.714375241966343, -52.22499984129571 14.598082366396337, -52.63745232588093 14.415501886438708 M-52.63745232588093 14.415501886438708 C-52.937976274321585 14.25871873503199, -53.23850022276225 14.101935583625275, -53.546793332063 13.941099265974234 M-52.63745232588093 14.415501886438708 C-52.952789910030056 14.25099047077147, -53.26812749417918 14.086479055104231, -53.546793332063 13.941099265974234 M-53.546793332063 13.941099265974234 C-53.89160323803746 13.732073474644586, -54.23641314401193 13.523047683314937, -54.42387091936877 13.409409678269457 M-53.546793332063 13.941099265974234 C-53.832343171414855 13.767997275282017, -54.11789301076672 13.594895284589798, -54.42387091936877 13.409409678269457 M-54.42387091936877 13.409409678269457 C-54.662925347338295 13.242655657817314, -54.901979775307815 13.075901637365174, -55.265080987859456 12.822617949887308 M-54.42387091936877 13.409409678269457 C-54.67648125660828 13.233199642336428, -54.92909159384779 13.056989606403398, -55.265080987859456 12.822617949887308 M-55.265080987859456 12.822617949887308 C-55.49991989749057 12.635340168782331, -55.73475880712169 12.448062387677357, -56.06696682492461 12.183135333906154 M-55.265080987859456 12.822617949887308 C-55.430449655658784 12.690740837962407, -55.59581832345812 12.558863726037508, -56.06696682492461 12.183135333906154 M-56.06696682492461 12.183135333906154 C-56.37042312561784 11.907544350630303, -56.673879426311075 11.63195336735445, -56.82623330965578 11.493589601563649 M-56.06696682492461 12.183135333906154 C-56.242790415405494 12.0234570010687, -56.418614005886376 11.863778668231244, -56.82623330965578 11.493589601563649 M-56.82623330965578 11.493589601563649 C-56.985704643069525 11.328922356973987, -57.14517597648327 11.164255112384325, -57.53976045320505 10.756814244181069 M-56.82623330965578 11.493589601563649 C-57.04665138264691 11.26598984453996, -57.26706945563804 11.038390087516273, -57.53976045320505 10.756814244181069 M-57.53976045320505 10.756814244181069 C-57.80123328907884 10.449673372937868, -58.06270612495263 10.142532501694667, -58.20461621948847 9.97583682973974 M-57.53976045320505 10.756814244181069 C-57.74794291067775 10.512271283716222, -57.95612536815045 10.267728323251376, -58.20461621948847 9.97583682973974 M-58.20461621948847 9.97583682973974 C-58.39285589913774 9.723612807997318, -58.581095578787014 9.471388786254899, -58.81806857355129 9.15386656195472 M-58.20461621948847 9.97583682973974 C-58.389201772488555 9.728509004809448, -58.57378732548863 9.481181179879158, -58.81806857355129 9.15386656195472 M-58.81806857355129 9.15386656195472 C-58.952332133393156 8.947601679223641, -59.086595693235026 8.741336796492563, -59.377596708085534 8.29428109296841 M-58.81806857355129 9.15386656195472 C-58.96731474575378 8.924584363242975, -59.11656091795628 8.69530216453123, -59.377596708085534 8.29428109296841 M-59.377596708085534 8.29428109296841 C-59.49327528994429 8.088882057151578, -59.60895387180305 7.883483021334747, -59.880901401968 7.400612643853366 M-59.377596708085534 8.29428109296841 C-59.55590922197945 7.977669168449798, -59.73422173587336 7.661057243931186, -59.880901401968 7.400612643853366 M-59.880901401968 7.400612643853366 C-60.02654485237908 7.098180902804132, -60.17218830279017 6.795749161754898, -60.325914468252996 6.476533489958307 M-59.880901401968 7.400612643853366 C-60.029501628083 7.092041094790098, -60.17810185419798 6.783469545726828, -60.325914468252996 6.476533489958307 M-60.325914468252996 6.476533489958307 C-60.42195601554954 6.2393090112988405, -60.51799756284609 6.002084532639375, -60.710807252796165 5.525840870740931 M-60.325914468252996 6.476533489958307 C-60.478967184084944 6.098490322780437, -60.6320198999169 5.720447155602567, -60.710807252796165 5.525840870740931 M-60.710807252796165 5.525840870740931 C-60.82169126704741 5.191875886784624, -60.93257528129866 4.857910902828317, -61.03399814858657 4.552441386096519 M-60.710807252796165 5.525840870740931 C-60.82622219969095 5.178229439568348, -60.94163714658575 4.830618008395765, -61.03399814858657 4.552441386096519 M-61.03399814858657 4.552441386096519 C-61.134550489080844 4.1689917321318175, -61.23510282957511 3.7855420781671167, -61.294159094909176 3.5603349433010343 M-61.03399814858657 4.552441386096519 C-61.10654427009504 4.275791583096769, -61.17909039160351 3.9991417800970197, -61.294159094909176 3.5603349433010343 M-61.294159094909176 3.5603349433010343 C-61.37090727711233 3.1662492484218823, -61.44765545931549 2.7721635535427303, -61.490221034631205 2.5535983205340753 M-61.294159094909176 3.5603349433010343 C-61.353633445026695 3.2549467253559174, -61.41310779514422 2.949558507410801, -61.490221034631205 2.5535983205340753 M-61.490221034631205 2.5535983205340753 C-61.54210109685158 2.1512268028298704, -61.59398115907196 1.7488552851256651, -61.62137830718717 1.5363684145229202 M-61.490221034631205 2.5535983205340753 C-61.541349531328976 2.1570557966098236, -61.59247802802675 1.7605132726855721, -61.62137830718717 1.5363684145229202 M-61.62137830718717 1.5363684145229202 C-61.64503097144786 1.1679590765756827, -61.668683635708554 0.7995497386284451, -61.687091959211 0.5128252411464846 M-61.62137830718717 1.5363684145229202 C-61.63697989731254 1.2933610549433547, -61.652581487437914 1.0503536953637893, -61.687091959211 0.5128252411464846 M-61.687091959211 0.5128252411464846 C-61.687091959211 0.29988897944686876, -61.687091959211 0.08695271774725283, -61.687091959211 -0.5128252411464769 M-61.687091959211 0.5128252411464846 C-61.687091959211 0.23560389302313478, -61.687091959211 -0.041617455100215084, -61.687091959211 -0.5128252411464769 M-61.687091959211 -0.5128252411464769 C-61.669089259586414 -0.7932318193170433, -61.651086559961826 -1.0736383974876098, -61.62137830718717 -1.5363684145228982 M-61.687091959211 -0.5128252411464769 C-61.66164129135175 -0.9092399364637203, -61.636190623492496 -1.3056546317809636, -61.62137830718717 -1.5363684145228982 M-61.62137830718717 -1.5363684145228982 C-61.571491353639544 -1.9232817749450586, -61.521604400091924 -2.310195135367219, -61.490221034631205 -2.5535983205340678 M-61.62137830718717 -1.5363684145228982 C-61.589472667457414 -1.7838222557856867, -61.557567027727664 -2.031276097048475, -61.490221034631205 -2.5535983205340678 M-61.490221034631205 -2.5535983205340678 C-61.41970155523356 -2.9157009429437406, -61.349182075835905 -3.277803565353413, -61.294159094909176 -3.5603349433010267 M-61.490221034631205 -2.5535983205340678 C-61.42988469220275 -2.863412686813701, -61.36954834977429 -3.173227053093334, -61.294159094909176 -3.5603349433010267 M-61.294159094909176 -3.5603349433010267 C-61.21053567022524 -3.8792273042423977, -61.126912245541305 -4.198119665183769, -61.033998148586576 -4.552441386096511 M-61.294159094909176 -3.5603349433010267 C-61.23023237208502 -3.8041152434464798, -61.16630564926086 -4.047895543591933, -61.033998148586576 -4.552441386096511 M-61.033998148586576 -4.552441386096511 C-60.92409906782267 -4.883439907316805, -60.81419998705875 -5.214438428537098, -60.71080725279617 -5.525840870740911 M-61.033998148586576 -4.552441386096511 C-60.947135293034066 -4.814058467304113, -60.860272437481555 -5.075675548511715, -60.71080725279617 -5.525840870740911 M-60.71080725279617 -5.525840870740911 C-60.60107536464151 -5.79688075600466, -60.49134347648685 -6.067920641268407, -60.325914468253 -6.476533489958299 M-60.71080725279617 -5.525840870740911 C-60.60054117475459 -5.798200215353212, -60.490275096713006 -6.070559559965513, -60.325914468253 -6.476533489958299 M-60.325914468253 -6.476533489958299 C-60.18129017749908 -6.776848924172916, -60.036665886745155 -7.077164358387534, -59.880901401968 -7.400612643853359 M-60.325914468253 -6.476533489958299 C-60.20922138588662 -6.71884917232406, -60.09252830352025 -6.961164854689823, -59.880901401968 -7.400612643853359 M-59.880901401968 -7.400612643853359 C-59.774379215210956 -7.589753572981559, -59.66785702845391 -7.778894502109759, -59.377596708085534 -8.294281092968404 M-59.880901401968 -7.400612643853359 C-59.7257023385658 -7.6761842965332825, -59.570503275163595 -7.951755949213206, -59.377596708085534 -8.294281092968404 M-59.377596708085534 -8.294281092968404 C-59.25502883487411 -8.482578260303518, -59.13246096166268 -8.67087542763863, -58.818068573551294 -9.153866561954715 M-59.377596708085534 -8.294281092968404 C-59.18884189483797 -8.584259173880978, -59.00008708159041 -8.87423725479355, -58.818068573551294 -9.153866561954715 M-58.818068573551294 -9.153866561954715 C-58.629593416591725 -9.406406101840506, -58.44111825963216 -9.658945641726298, -58.20461621948848 -9.975836829739734 M-58.818068573551294 -9.153866561954715 C-58.62878775359251 -9.407485616862042, -58.43950693363374 -9.661104671769367, -58.20461621948848 -9.975836829739734 M-58.20461621948848 -9.975836829739734 C-57.95773194847029 -10.265841142590682, -57.71084767745211 -10.555845455441633, -57.539760453205055 -10.756814244181063 M-58.20461621948848 -9.975836829739734 C-58.07047670952475 -10.13340473089748, -57.93633719956101 -10.290972632055224, -57.539760453205055 -10.756814244181063 M-57.539760453205055 -10.756814244181063 C-57.328285514904096 -10.975179480392132, -57.11681057660314 -11.193544716603201, -56.82623330965579 -11.493589601563633 M-57.539760453205055 -10.756814244181063 C-57.3828815100791 -10.918804632959375, -57.22600256695315 -11.080795021737686, -56.82623330965579 -11.493589601563633 M-56.82623330965579 -11.493589601563633 C-56.58292437889239 -11.714556334881413, -56.339615448128995 -11.935523068199194, -56.06696682492463 -12.18313533390614 M-56.82623330965579 -11.493589601563633 C-56.61840237683899 -11.682336155842696, -56.4105714440222 -11.871082710121758, -56.06696682492463 -12.18313533390614 M-56.06696682492463 -12.18313533390614 C-55.77702286044077 -12.414357929849082, -55.48707889595691 -12.645580525792022, -55.26508098785946 -12.822617949887302 M-56.06696682492463 -12.18313533390614 C-55.878524948567105 -12.333412715652331, -55.69008307220959 -12.483690097398522, -55.26508098785946 -12.822617949887302 M-55.26508098785946 -12.822617949887302 C-54.978395908378616 -13.022597050936072, -54.69171082889776 -13.222576151984843, -54.42387091936879 -13.409409678269444 M-55.26508098785946 -12.822617949887302 C-55.004003549833016 -13.004734268794412, -54.742926111806575 -13.186850587701521, -54.42387091936879 -13.409409678269444 M-54.42387091936879 -13.409409678269444 C-54.11861421206506 -13.594458088124492, -53.81335750476134 -13.77950649797954, -53.546793332063004 -13.941099265974229 M-54.42387091936879 -13.409409678269444 C-54.12841854770658 -13.58851464224193, -53.83296617604438 -13.767619606214419, -53.546793332063004 -13.941099265974229 M-53.546793332063004 -13.941099265974229 C-53.31714338560373 -14.060907495944223, -53.08749343914445 -14.180715725914219, -52.637452325880936 -14.415501886438705 M-53.546793332063004 -13.941099265974229 C-53.25560458846673 -14.093012246993112, -52.96441584487046 -14.244925228011997, -52.637452325880936 -14.415501886438705 M-52.637452325880936 -14.415501886438705 C-52.285510641000876 -14.571296030355958, -51.933568956120816 -14.727090174273211, -51.699584578069995 -14.830668117536344 M-52.637452325880936 -14.415501886438705 C-52.38113170258568 -14.528967422890377, -52.12481107929042 -14.642432959342049, -51.699584578069995 -14.830668117536344 M-51.699584578069995 -14.830668117536344 C-51.47365268831808 -14.913813141456544, -51.24772079856617 -14.996958165376743, -50.73704398837794 -15.184891952170695 M-51.699584578069995 -14.830668117536344 C-51.40701649701787 -14.93833587583322, -51.114448415965754 -15.046003634130095, -50.73704398837794 -15.184891952170695 M-50.73704398837794 -15.184891952170695 C-50.473972571479415 -15.26297016781613, -50.210901154580895 -15.341048383461567, -49.75378584255213 -15.476717808624466 M-50.73704398837794 -15.184891952170695 C-50.35368891364243 -15.298669726080345, -49.97033383890691 -15.412447499989996, -49.75378584255213 -15.476717808624466 M-49.75378584255213 -15.476717808624466 C-49.428245588527055 -15.551020247257002, -49.10270533450198 -15.62532268588954, -48.753850559221966 -15.704946511857043 M-49.75378584255213 -15.476717808624466 C-49.5118235099448 -15.53194413209031, -49.269861177337454 -15.587170455556155, -48.753850559221966 -15.704946511857043 M-48.753850559221966 -15.704946511857043 C-48.48176409688195 -15.748935341026147, -48.20967763454194 -15.792924170195253, -47.7413470869521 -15.868640221171937 M-48.753850559221966 -15.704946511857043 C-48.36559450655625 -15.76771673948138, -47.97733845389053 -15.830486967105715, -47.7413470869521 -15.868640221171937 M-47.7413470869521 -15.868640221171937 C-47.42832460444883 -15.898837123594413, -47.11530212194556 -15.929034026016891, -46.720436019691405 -15.967126284005381 M-47.7413470869521 -15.868640221171937 C-47.468608709268715 -15.894950964451164, -47.19587033158533 -15.921261707730391, -46.720436019691405 -15.967126284005381 M-46.720436019691405 -15.967126284005381 C-46.46231325000374 -15.975403778823773, -46.20419048031607 -15.983681273642164, -45.69531250000001 -16 M-46.720436019691405 -15.967126284005381 C-46.39771907705819 -15.977475188225206, -46.07500213442498 -15.987824092445031, -45.69531250000001 -16 M-45.69531250000001 -16 C-45.69531250000001 -16, -45.6953125 -16, -45.6953125 -16 M-45.69531250000001 -16 C-45.69531250000001 -16, -45.69531250000001 -16, -45.6953125 -16" stroke="#999" stroke-width="1.3" fill="none" stroke-dasharray="0 0" style=""/></g><g class="label" style="" transform="translate(0, -8.5)"><rect/><g><rect class="background" style="stroke: none"/><text y="-10.1" style=""><tspan class="text-outer-tspan row" x="0" y="-0.1em" dy="1.1em"><tspan font-style="normal" class="text-inner-tspan" font-weight="normal">Внес</tspan><tspan font-style="normal" class="text-inner-tspan" font-weight="normal"> на</tspan><tspan font-style="normal" class="text-inner-tspan" font-weight="normal"> ISBN</tspan></tspan></text></g></g></g><g class="node default" id="my-svg-flowchart-B-1" data-look="classic" transform="translate(204.7769546508789, 113.5)"><rect class="basic label-container" style="" x="-121.421875" y="-23.5" width="242.84375" height="47"/><g class="label" style="" transform="translate(0, -8.5)"><rect/><g><rect class="background" style="stroke: none"/><text y="-10.1" style=""><tspan class="text-outer-tspan row" x="0" y="-0.1em" dy="1.1em"><tspan font-style="normal" class="text-inner-tspan" font-weight="normal">Нормализирај</tspan><tspan font-style="normal" class="text-inner-tspan" font-weight="normal"> и</tspan><tspan font-style="normal" class="text-inner-tspan" font-weight="normal"> потврди</tspan></tspan></text></g></g></g><g class="node default" id="my-svg-flowchart-C-3" data-look="classic" transform="translate(204.7769546508789, 285.5578155517578)"><polygon points="98.55781173706055,0 197.1156234741211,-98.55781173706055 98.55781173706055,-197.1156234741211 0,-98.55781173706055" class="label-container" transform="translate(-98.05781173706055, 98.55781173706055)"/><g class="label" style="" transform="translate(0, -17.299999237060547)"><rect/><g><rect class="background" style="stroke: none"/><text y="-10.1" style=""><tspan class="text-outer-tspan row" x="0" y="-0.1em" dy="1.1em"><tspan font-style="normal" class="text-inner-tspan" font-weight="normal">Контролна</tspan><tspan font-style="normal" class="text-inner-tspan" font-weight="normal"> цифра</tspan></tspan><tspan class="text-outer-tspan row" x="0" y="1em" dy="1.1em"><tspan font-style="normal" class="text-inner-tspan" font-weight="normal">валидна?</tspan></tspan></text></g></g></g><g class="node default" id="my-svg-flowchart-D-5" data-look="classic" transform="translate(282.2492218017578, 1060.7172012329102)"><rect class="basic label-container" style="fill:#ffebee !important;stroke:#c62828 !important" x="-91.25" y="-23.5" width="182.5" height="47"/><g class="label" style="" transform="translate(0, -8.5)"><rect/><g><rect class="background" style="stroke: none"/><text y="-10.1" style=""><tspan class="text-outer-tspan row" x="0" y="-0.1em" dy="1.1em"><tspan font-style="normal" class="text-inner-tspan" font-weight="normal">Прикажи</tspan><tspan font-style="normal" class="text-inner-tspan" font-weight="normal"> грешка</tspan></tspan></text></g></g></g><g class="node default" id="my-svg-flowchart-E-7" data-look="classic" transform="translate(323.9171905517578, 1271.6843910217285)"><rect class="basic label-container" style="fill:#fff3e0 !important;stroke:#e65100 !important" x="-101.9921875" y="-32.29999923706055" width="203.984375" height="64.5999984741211"/><g class="label" style="" transform="translate(0, -17.299999237060547)"><rect/><g><rect class="background" style="stroke: none"/><text y="-10.1" style=""><tspan class="text-outer-tspan row" x="0" y="-0.1em" dy="1.1em"><tspan font-style="normal" class="text-inner-tspan" font-weight="normal">Рачен</tspan><tspan font-style="normal" class="text-inner-tspan" font-weight="normal"> внес</tspan></tspan><tspan class="text-outer-tspan row" x="0" y="1em" dy="1.1em"><tspan font-style="normal" class="text-inner-tspan" font-weight="normal">(секогаш</tspan><tspan font-style="normal" class="text-inner-tspan" font-weight="normal"> достапен)</tspan></tspan></text></g></g></g><g class="node default" id="my-svg-flowchart-F-9" data-look="classic" transform="translate(127.3046875, 478.6156311035156)"><rect class="basic label-container" style="" x="-112.5625" y="-23.5" width="225.125" height="47"/><g class="label" style="" transform="translate(0, -8.5)"><rect/><g><rect class="background" style="stroke: none"/><text y="-10.1" style=""><tspan class="text-outer-tspan row" x="0" y="-0.1em" dy="1.1em"><tspan font-style="normal" class="text-inner-tspan" font-weight="normal">Пребарај</tspan><tspan font-style="normal" class="text-inner-tspan" font-weight="normal"> Open</tspan><tspan font-style="normal" class="text-inner-tspan" font-weight="normal"> Library</tspan></tspan></text></g></g></g><g class="node default" id="my-svg-flowchart-G-11" data-look="classic" transform="translate(127.3046875, 659.7828216552734)"><polygon points="107.66718673706055,0 215.3343734741211,-107.66718673706055 107.66718673706055,-215.3343734741211 0,-107.66718673706055" class="label-container" transform="translate(-107.16718673706055, 107.66718673706055)"/><g class="label" style="" transform="translate(0, -17.299999237060547)"><rect/><g><rect class="background" style="stroke: none"/><text y="-10.1" style=""><tspan class="text-outer-tspan row" x="0" y="-0.1em" dy="1.1em"><tspan font-style="normal" class="text-inner-tspan" font-weight="normal">Пронајдени</tspan><tspan font-style="normal" class="text-inner-tspan" font-weight="normal"> корисни</tspan></tspan><tspan class="text-outer-tspan row" x="0" y="1em" dy="1.1em"><tspan font-style="normal" class="text-inner-tspan" font-weight="normal">метаподатоци?</tspan></tspan></text></g></g></g><g class="node default" id="my-svg-flowchart-H-13" data-look="classic" transform="translate(127.3046875, 870.7500114440918)"><rect class="basic label-container" style="fill:#e8f5e9 !important;stroke:#2e7d32 !important" x="-119.3046875" y="-32.29999923706055" width="238.609375" height="64.5999984741211"/><g class="label" style="" transform="translate(0, -17.299999237060547)"><rect/><g><rect class="background" style="stroke: none"/><text y="-10.1" style=""><tspan class="text-outer-tspan row" x="0" y="-0.1em" dy="1.1em"><tspan font-style="normal" class="text-inner-tspan" font-weight="normal">Врати</tspan><tspan font-style="normal" class="text-inner-tspan" font-weight="normal"> метаподатоци</tspan></tspan><tspan class="text-outer-tspan row" x="0" y="1em" dy="1.1em"><tspan font-style="normal" class="text-inner-tspan" font-weight="normal">Провајдер:</tspan><tspan font-style="normal" class="text-inner-tspan" font-weight="normal"> Open</tspan><tspan font-style="normal" class="text-inner-tspan" font-weight="normal"> Library</tspan></tspan></text></g></g></g><g class="node default" id="my-svg-flowchart-I-15" data-look="classic" transform="translate(577.9656295776367, 870.7500114440918)"><rect class="basic label-container" style="" x="-101.890625" y="-32.29999923706055" width="203.78125" height="64.5999984741211"/><g class="label" style="" transform="translate(0, -17.299999237060547)"><rect/><g><rect class="background" style="stroke: none"/><text y="-10.1" style=""><tspan class="text-outer-tspan row" x="0" y="-0.1em" dy="1.1em"><tspan font-style="normal" class="text-inner-tspan" font-weight="normal">Пребарај</tspan><tspan font-style="normal" class="text-inner-tspan" font-weight="normal"> Let</tspan><tspan font-style="normal" class="text-inner-tspan" font-weight="normal"> Books</tspan></tspan><tspan class="text-outer-tspan row" x="0" y="1em" dy="1.1em"><tspan font-style="normal" class="text-inner-tspan" font-weight="normal">метаподаточен</tspan><tspan font-style="normal" class="text-inner-tspan" font-weight="normal"> API</tspan></tspan></text></g></g></g><g class="node default" id="my-svg-flowchart-J-17" data-look="classic" transform="translate(577.9656295776367, 1060.7172012329102)"><polygon points="107.66718673706055,0 215.3343734741211,-107.66718673706055 107.66718673706055,-215.3343734741211 0,-107.66718673706055" class="label-container" transform="translate(-107.16718673706055, 107.66718673706055)"/><g class="label" style="" transform="translate(0, -17.299999237060547)"><rect/><g><rect class="background" style="stroke: none"/><text y="-10.1" style=""><tspan class="text-outer-tspan row" x="0" y="-0.1em" dy="1.1em"><tspan font-style="normal" class="text-inner-tspan" font-weight="normal">Пронајдени</tspan><tspan font-style="normal" class="text-inner-tspan" font-weight="normal"> корисни</tspan></tspan><tspan class="text-outer-tspan row" x="0" y="1em" dy="1.1em"><tspan font-style="normal" class="text-inner-tspan" font-weight="normal">метаподатоци?</tspan></tspan></text></g></g></g><g class="node default" id="my-svg-flowchart-K-19" data-look="classic" transform="translate(625.5925827026367, 1271.6843910217285)"><rect class="basic label-container" style="fill:#e8f5e9 !important;stroke:#2e7d32 !important" x="-107.1875" y="-32.29999923706055" width="214.375" height="64.5999984741211"/><g class="label" style="" transform="translate(0, -17.299999237060547)"><rect/><g><rect class="background" style="stroke: none"/><text y="-10.1" style=""><tspan class="text-outer-tspan row" x="0" y="-0.1em" dy="1.1em"><tspan font-style="normal" class="text-inner-tspan" font-weight="normal">Врати</tspan><tspan font-style="normal" class="text-inner-tspan" font-weight="normal"> метаподатоци</tspan></tspan><tspan class="text-outer-tspan row" x="0" y="1em" dy="1.1em"><tspan font-style="normal" class="text-inner-tspan" font-weight="normal">Извор:</tspan><tspan font-style="normal" class="text-inner-tspan" font-weight="normal"> Let</tspan><tspan font-style="normal" class="text-inner-tspan" font-weight="normal"> Books</tspan><tspan font-style="normal" class="text-inner-tspan" font-weight="normal"> API</tspan></tspan></text></g></g></g></g></g></g><defs><filter id="my-svg-drop-shadow" height="130%" width="130%"><feDropShadow dx="4" dy="4" stdDeviation="0" flood-opacity="0.06" flood-color="#000000"/></filter></defs><defs><filter id="my-svg-drop-shadow-small" height="150%" width="150%"><feDropShadow dx="2" dy="2" stdDeviation="0" flood-opacity="0.06" flood-color="#000000"/></filter></defs><linearGradient id="my-svg-gradient" gradientUnits="objectBoundingBox" x1="0%" y1="0%" x2="100%" y2="0%"><stop offset="0%" stop-color="hsl(0, 0%, 83.3333333333%)" stop-opacity="1"/><stop offset="100%" stop-color="hsl(0, 0%, 88.9215686275%)" stop-opacity="1"/></linearGradient><text text-anchor="middle" x="370.3900451660156" y="-25" class="flowchartTitleText">Синџир за пребарување метаподатоци ISBN</text></svg>