<svg id="my-svg" width="100%" xmlns="http://www.w3.org/2000/svg" xmlns:xlink="http://www.w3.org/1999/xlink" class="flowchart" style="max-width: 772.682px; background-color: transparent;" viewBox="0 -49 772.6824340820312 1360.984375" role="graphics-document document" aria-roledescription="flowchart-v2"><style>#my-svg{font-family:"trebuchet ms",verdana,arial,sans-serif;font-size:16px;fill:#000000;}@keyframes edge-animation-frame{from{stroke-dashoffset:0;}}@keyframes dash{to{stroke-dashoffset:0;}}#my-svg .edge-animation-slow{stroke-dasharray:9,5!important;stroke-dashoffset:900;animation:dash 50s linear infinite;stroke-linecap:round;}#my-svg .edge-animation-fast{stroke-dasharray:9,5!important;stroke-dashoffset:900;animation:dash 20s linear infinite;stroke-linecap:round;}#my-svg .error-icon{fill:#552222;}#my-svg .error-text{fill:#552222;stroke:#552222;}#my-svg .edge-thickness-normal{stroke-width:1px;}#my-svg .edge-thickness-thick{stroke-width:3.5px;}#my-svg .edge-pattern-solid{stroke-dasharray:0;}#my-svg .edge-thickness-invisible{stroke-width:0;fill:none;}#my-svg .edge-pattern-dashed{stroke-dasharray:3;}#my-svg .edge-pattern-dotted{stroke-dasharray:2;}#my-svg .marker{fill:#666;stroke:#666;}#my-svg .marker.cross{stroke:#666;}#my-svg svg{font-family:"trebuchet ms",verdana,arial,sans-serif;font-size:16px;}#my-svg p{margin:0;}#my-svg .label{font-family:"trebuchet ms",verdana,arial,sans-serif;color:#000000;}#my-svg .cluster-label text{fill:#333;}#my-svg .cluster-label span{color:#333;}#my-svg .cluster-label span p{background-color:transparent;}#my-svg .label text,#my-svg span{fill:#000000;color:#000000;}#my-svg .node rect,#my-svg .node circle,#my-svg .node ellipse,#my-svg .node polygon,#my-svg .node path{fill:#eee;stroke:#999;stroke-width:1px;}#my-svg .rough-node .label text,#my-svg .node .label text,#my-svg .image-shape .label,#my-svg .icon-shape .label{text-anchor:middle;}#my-svg .node .katex path{fill:#000;stroke:#000;stroke-width:1px;}#my-svg .rough-node .label,#my-svg .node .label,#my-svg .image-shape .label,#my-svg .icon-shape .label{text-align:center;}#my-svg .node.clickable{cursor:pointer;}#my-svg .root .anchor path{fill:#666!important;stroke-width:0;stroke:#666;}#my-svg .arrowheadPath{fill:#333333;}#my-svg .edgePath .path{stroke:#666;stroke-width:1px;}#my-svg .flowchart-link{stroke:#666;fill:none;}#my-svg .edgeLabel{background-color:white;text-align:center;}#my-svg .edgeLabel p{background-color:white;}#my-svg .edgeLabel rect{opacity:0.5;background-color:white;fill:white;}#my-svg .labelBkg{background-color:rgba(255, 255, 255, 0.5);}#my-svg .cluster rect{fill:hsl(0, 0%, 98.9215686275%);stroke:#707070;stroke-width:1px;}#my-svg .cluster text{fill:#333;}#my-svg .cluster span{color:#333;}#my-svg div.mermaidTooltip{position:absolute;text-align:center;max-width:200px;padding:2px;font-family:"trebuchet ms",verdana,arial,sans-serif;font-size:12px;background:hsl(-160, 0%, 93.3333333333%);border:1px solid #707070;border-radius:2px;pointer-events:none;z-index:100;}#my-svg .flowchartTitleText{text-anchor:middle;font-size:18px;fill:#000000;}#my-svg rect.text{fill:none;stroke-width:0;}#my-svg .icon-shape,#my-svg .image-shape{background-color:white;text-align:center;}#my-svg .icon-shape p,#my-svg .image-shape p{background-color:white;padding:2px;}#my-svg .icon-shape .label rect,#my-svg .image-shape .label rect{opacity:0.5;background-color:white;fill:white;}#my-svg .label-icon{display:inline-block;height:1em;overflow:visible;vertical-align:-0.125em;}#my-svg .node .label-icon path{fill:currentColor;stroke:revert;stroke-width:revert;}#my-svg .node .neo-node{stroke:#999;}#my-svg [data-look="neo"].node rect,#my-svg [data-look="neo"].cluster rect,#my-svg [data-look="neo"].node polygon{stroke:url(#my-svg-gradient);filter:drop-shadow( 1px 2px 2px rgba(185,185,185,1));}#my-svg [data-look="neo"].node path{stroke:url(#my-svg-gradient);stroke-width:1px;}#my-svg [data-look="neo"].node .outer-path{filter:drop-shadow( 1px 2px 2px rgba(185,185,185,1));}#my-svg [data-look="neo"].node .neo-line path{stroke:#999;filter:none;}#my-svg [data-look="neo"].node circle{stroke:url(#my-svg-gradient);filter:drop-shadow( 1px 2px 2px rgba(185,185,185,1));}#my-svg [data-look="neo"].node circle .state-start{fill:#000000;}#my-svg [data-look="neo"].icon-shape .icon{fill:url(#my-svg-gradient);filter:drop-shadow( 1px 2px 2px rgba(185,185,185,1));}#my-svg [data-look="neo"].icon-shape .icon-neo path{stroke:url(#my-svg-gradient);filter:drop-shadow( 1px 2px 2px rgba(185,185,185,1));}#my-svg :root{--mermaid-font-family:"trebuchet ms",verdana,arial,sans-serif;}</style><g><marker id="my-svg_flowchart-v2-pointEnd" class="marker flowchart-v2" viewBox="0 0 10 10" refX="5" refY="5" markerUnits="userSpaceOnUse" markerWidth="8" markerHeight="8" orient="auto"><path d="M 0 0 L 10 5 L 0 10 z" class="arrowMarkerPath" style="stroke-width: 1; stroke-dasharray: 1, 0;"/></marker><marker id="my-svg_flowchart-v2-pointStart" class="marker flowchart-v2" viewBox="0 0 10 10" refX="4.5" refY="5" markerUnits="userSpaceOnUse" markerWidth="8" markerHeight="8" orient="auto"><path d="M 0 5 L 10 10 L 10 0 z" class="arrowMarkerPath" style="stroke-width: 1; stroke-dasharray: 1, 0;"/></marker><marker id="my-svg_flowchart-v2-pointEnd-margin" class="marker flowchart-v2" viewBox="0 0 11.5 14" refX="11.5" refY="7" markerUnits="userSpaceOnUse" markerWidth="10.5" markerHeight="14" orient="auto"><path d="M 0 0 L 11.5 7 L 0 14 z" class="arrowMarkerPath" style="stroke-width: 0; stroke-dasharray: 1, 0;"/></marker><marker id="my-svg_flowchart-v2-pointStart-margin" class="marker flowchart-v2" viewBox="0 0 11.5 14" refX="1" refY="7" markerUnits="userSpaceOnUse" markerWidth="11.5" markerHeight="14" orient="auto"><polygon points="0,7 11.5,14 11.5,0" class="arrowMarkerPath" style="stroke-width: 0; stroke-dasharray: 1, 0;"/></marker><marker id="my-svg_flowchart-v2-circleEnd" class="marker flowchart-v2" viewBox="0 0 10 10" refX="11" refY="5" markerUnits="userSpaceOnUse" markerWidth="11" markerHeight="11" orient="auto"><circle cx="5" cy="5" r="5" class="arrowMarkerPath" style="stroke-width: 1; stroke-dasharray: 1, 0;"/></marker><marker id="my-svg_flowchart-v2-circleStart" class="marker flowchart-v2" viewBox="0 0 10 10" refX="-1" refY="5" markerUnits="userSpaceOnUse" markerWidth="11" markerHeight="11" orient="auto"><circle cx="5" cy="5" r="5" class="arrowMarkerPath" style="stroke-width: 1; stroke-dasharray: 1, 0;"/></marker><marker id="my-svg_flowchart-v2-circleEnd-margin" class="marker flowchart-v2" viewBox="0 0 10 10" refY="5" refX="12.25" markerUnits="userSpaceOnUse" markerWidth="14" markerHeight="14" orient="auto"><circle cx="5" cy="5" r="5" class="arrowMarkerPath" style="stroke-width: 0; stroke-dasharray: 1, 0;"/></marker><marker id="my-svg_flowchart-v2-circleStart-margin" class="marker flowchart-v2" viewBox="0 0 10 10" refX="-2" refY="5" markerUnits="userSpaceOnUse" markerWidth="14" markerHeight="14" orient="auto"><circle cx="5" cy="5" r="5" class="arrowMarkerPath" style="stroke-width: 0; stroke-dasharray: 1, 0;"/></marker><marker id="my-svg_flowchart-v2-crossEnd" class="marker cross flowchart-v2" viewBox="0 0 11 11" refX="12" refY="5.2" markerUnits="userSpaceOnUse" markerWidth="11" markerHeight="11" orient="auto"><path d="M 1,1 l 9,9 M 10,1 l -9,9" class="arrowMarkerPath" style="stroke-width: 2; stroke-dasharray: 1, 0;"/></marker><marker id="my-svg_flowchart-v2-crossStart" class="marker cross flowchart-v2" viewBox="0 0 11 11" refX="-1" refY="5.2" markerUnits="userSpaceOnUse" markerWidth="11" markerHeight="11" orient="auto"><path d="M 1,1 l 9,9 M 10,1 l -9,9" class="arrowMarkerPath" style="stroke-width: 2; stroke-dasharray: 1, 0;"/></marker><marker id="my-svg_flowchart-v2-crossEnd-margin" class="marker cross flowchart-v2" viewBox="0 0 15 15" refX="17.7" refY="7.5" markerUnits="userSpaceOnUse" markerWidth="12" markerHeight="12" orient="auto"><path d="M 1,1 L 14,14 M 1,14 L 14,1" class="arrowMarkerPath" style="stroke-width: 2.5;"/></marker><marker id="my-svg_flowchart-v2-crossStart-margin" class="marker cross flowchart-v2" viewBox="0 0 15 15" refX="-3.5" refY="7.5" markerUnits="userSpaceOnUse" markerWidth="12" markerHeight="12" orient="auto"><path d="M 1,1 L 14,14 M 1,14 L 14,1" class="arrowMarkerPath" style="stroke-width: 2.5; stroke-dasharray: 1, 0;"/></marker><g class="root"><g class="clusters"/><g class="edgePaths"><path d="M205.277,40.5L205.194,44.583C205.11,48.667,204.944,56.833,204.86,64.417C204.777,72,204.777,79,204.777,82.5L204.777,86" id="my-svg-L_A_B_0" class="edge-thickness-normal edge-pattern-solid edge-thickness-normal edge-pattern-solid flowchart-link" style=";" data-edge="true" data-et="edge" data-id="L_A_B_0" data-points="W3sieCI6MjA1LjI3Njk1NDY1MDg3ODksInkiOjQwLjUwMDAwMDAwMDAwMDAxfSx7IngiOjIwNC43NzY5NTQ2NTA4Nzg5LCJ5Ijo2NX0seyJ4IjoyMDQuNzc2OTU0NjUwODc4OSwieSI6OTB9XQ==" data-look="classic" marker-end="url(#my-svg_flowchart-v2-pointEnd)"/><path d="M204.777,137L204.777,141.167C204.777,145.333,204.777,153.667,204.777,161.333C204.777,169,204.777,176,204.777,179.5L204.777,183" id="my-svg-L_B_C_0" class="edge-thickness-normal edge-pattern-solid edge-thickness-normal edge-pattern-solid flowchart-link" style=";" data-edge="true" data-et="edge" data-id="L_B_C_0" data-points="W3sieCI6MjA0Ljc3Njk1NDY1MDg3ODksInkiOjEzN30seyJ4IjoyMDQuNzc2OTU0NjUwODc4OSwieSI6MTYyfSx7IngiOjIwNC43NzY5NTQ2NTA4Nzg4OCwieSI6MTg2Ljk5OTk5OTk5OTk5OTk3fV0=" data-look="classic" marker-end="url(#my-svg_flowchart-v2-pointEnd)"/><path d="M240.873,348.019L247.769,359.952C254.665,371.885,268.457,395.75,275.353,417.516C282.249,439.282,282.249,458.949,282.249,476.866C282.249,494.782,282.249,510.949,282.249,541.143C282.249,571.338,282.249,615.56,282.249,661.533C282.249,707.505,282.249,755.228,282.249,790.389C282.249,825.55,282.249,848.15,282.249,869C282.249,889.85,282.249,908.95,282.249,934.561C282.249,960.172,282.249,992.295,282.249,1008.356L282.249,1024.417" id="my-svg-L_C_D_0" class="edge-thickness-normal edge-pattern-solid edge-thickness-normal edge-pattern-solid flowchart-link" style=";" data-edge="true" data-et="edge" data-id="L_C_D_0" data-points="W3sieCI6MjQwLjg3MzQ2MzA5MzkxOTY0LCJ5IjozNDguMDE5MTIyNjYwNDc0OX0seyJ4IjoyODIuMjQ5MjIxODAxNzU3OCwieSI6NDE5LjYxNTYzMTEwMzUxNTZ9LHsieCI6MjgyLjI0OTIyMTgwMTc1NzgsInkiOjQ3OC42MTU2MzExMDM1MTU2fSx7IngiOjI4Mi4yNDkyMjE4MDE3NTc4LCJ5Ijo1MjcuMTE1NjMxMTAzNTE1Nn0seyJ4IjoyODIuMjQ5MjIxODAxNzU3OCwieSI6NjU5Ljc4MjgyMTY1NTI3MzR9LHsieCI6MjgyLjI0OTIyMTgwMTc1NzgsInkiOjgwMi45NTAwMTIyMDcwMzEyfSx7IngiOjI4Mi4yNDkyMjE4MDE3NTc4LCJ5Ijo4NzAuNzUwMDExNDQ0MDkxOH0seyJ4IjoyODIuMjQ5MjIxODAxNzU3OCwieSI6OTI4LjA1MDAxMDY4MTE1MjN9LHsieCI6MjgyLjI0OTIyMTgwMTc1NzgsInkiOjEwMjguNDE3MjAxOTk1ODQ5Nn1d" data-look="classic" marker-end="url(#my-svg_flowchart-v2-pointEnd)"/><path d="M282.249,1093.017L282.249,1111.495C282.249,1129.973,282.249,1166.929,285.536,1190.755C288.824,1214.582,295.398,1225.279,298.685,1230.628L301.972,1235.977" id="my-svg-L_D_E_0" class="edge-thickness-normal edge-pattern-solid edge-thickness-normal edge-pattern-solid flowchart-link" style=";" data-edge="true" data-et="edge" data-id="L_D_E_0" data-points="W3sieCI6MjgyLjI0OTIyMTgwMTc1NzgsInkiOjEwOTMuMDE3MjAwNDY5OTcwN30seyJ4IjoyODIuMjQ5MjIxODAxNzU3OCwieSI6MTIwMy44ODQzOTE3ODQ2Njh9LHsieCI6MzA0LjA2NjUyMTMxOTAxODUzLCJ5IjoxMjM5LjM4NDM5MTc4NDY2OH1d" data-look="classic" marker-end="url(#my-svg_flowchart-v2-pointEnd)"/><path d="M168.68,348.019L161.784,359.952C154.889,371.885,141.097,395.75,134.201,412.933C127.305,430.116,127.305,440.616,127.305,445.866L127.305,451.116" id="my-svg-L_C_F_0" class="edge-thickness-normal edge-pattern-solid edge-thickness-normal edge-pattern-solid flowchart-link" style=";" data-edge="true" data-et="edge" data-id="L_C_F_0" data-points="W3sieCI6MTY4LjY4MDQ0NjIwNzgzODE3LCJ5IjozNDguMDE5MTIyNjYwNDc1fSx7IngiOjEyNy4zMDQ2ODc1LCJ5Ijo0MTkuNjE1NjMxMTAzNTE1Nn0seyJ4IjoxMjcuMzA0Njg3NSwieSI6NDU1LjExNTYzMTEwMzUxNTZ9XQ==" data-look="classic" marker-end="url(#my-svg_flowchart-v2-pointEnd)"/><path d="M127.305,502.116L127.305,506.282C127.305,510.449,127.305,518.782,127.305,526.449C127.305,534.116,127.305,541.116,127.305,544.616L127.305,548.116" id="my-svg-L_F_G_0" class="edge-thickness-normal edge-pattern-solid edge-thickness-normal edge-pattern-solid flowchart-link" style=";" data-edge="true" data-et="edge" data-id="L_F_G_0" data-points="W3sieCI6MTI3LjMwNDY4NzUsInkiOjUwMi4xMTU2MzExMDM1MTU2fSx7IngiOjEyNy4zMDQ2ODc1LCJ5Ijo1MjcuMTE1NjMxMTAzNTE1Nn0seyJ4IjoxMjcuMzA0Njg3NSwieSI6NTUyLjExNTYzMTEwMzUxNTZ9XQ==" data-look="classic" marker-end="url(#my-svg_flowchart-v2-pointEnd)"/><path d="M127.305,767.45L127.305,773.367C127.305,779.283,127.305,791.117,127.305,802.283C127.305,813.45,127.305,823.95,127.305,829.2L127.305,834.45" id="my-svg-L_G_H_0" class="edge-thickness-normal edge-pattern-solid edge-thickness-normal edge-pattern-solid flowchart-link" style=";" data-edge="true" data-et="edge" data-id="L_G_H_0" data-points="W3sieCI6MTI3LjMwNDY4NzUsInkiOjc2Ny40NTAwMTIyMDcwMzE0fSx7IngiOjEyNy4zMDQ2ODc1LCJ5Ijo4MDIuOTUwMDEyMjA3MDMxMn0seyJ4IjoxMjcuMzA0Njg3NSwieSI6ODM4LjQ1MDAxMjIwNzAzMTJ9XQ==" data-look="classic" marker-end="url(#my-svg_flowchart-v2-pointEnd)"/><path d="M209.686,685.069L273.695,704.716C337.705,724.362,465.724,763.656,529.733,788.553C593.743,813.45,593.743,823.95,593.743,829.2L593.743,834.45" id="my-svg-L_G_I_0" class="edge-thickness-normal edge-pattern-solid edge-thickness-normal edge-pattern-solid flowchart-link" style=";" data-edge="true" data-et="edge" data-id="L_G_I_0" data-points="W3sieCI6MjA5LjY4NjAwMDkwMTQzMDc2LCJ5Ijo2ODUuMDY4Njk4ODA1NjAwNH0seyJ4Ijo1OTMuNzQyOTczMzI3NjM2NywieSI6ODAyLjk1MDAxMjIwNzAzMTJ9LHsieCI6NTkzLjc0Mjk3MzMyNzYzNjcsInkiOjgzOC40NTAwMTIyMDcwMzEyfV0=" data-look="classic" marker-end="url(#my-svg_flowchart-v2-pointEnd)"/><path d="M593.743,903.05L593.743,907.217C593.743,911.383,593.743,919.717,593.743,927.383C593.743,935.05,593.743,942.05,593.743,945.55L593.743,949.05" id="my-svg-L_I_J_0" class="edge-thickness-normal edge-pattern-solid edge-thickness-normal edge-pattern-solid flowchart-link" style=";" data-edge="true" data-et="edge" data-id="L_I_J_0" data-points="W3sieCI6NTkzLjc0Mjk3MzMyNzYzNjcsInkiOjkwMy4wNTAwMTA2ODExNTIzfSx7IngiOjU5My43NDI5NzMzMjc2MzY3LCJ5Ijo5MjguMDUwMDEwNjgxMTUyM30seyJ4Ijo1OTMuNzQyOTczMzI3NjM3NywieSI6OTUzLjA1MDAxMDY4MTE1MzR9XQ==" data-look="classic" marker-end="url(#my-svg_flowchart-v2-pointEnd)"/><path d="M620.619,1141.508L624.078,1151.904C627.536,1162.3,634.453,1183.092,637.912,1198.738C641.37,1214.384,641.37,1224.884,641.37,1230.134L641.37,1235.384" id="my-svg-L_J_K_0" class="edge-thickness-normal edge-pattern-solid edge-thickness-normal edge-pattern-solid flowchart-link" style=";" data-edge="true" data-et="edge" data-id="L_J_K_0" data-points="W3sieCI6NjIwLjYxOTM3NjAyMzcwOTUsInkiOjExNDEuNTA3OTg5MDg4NTk1Mn0seyJ4Ijo2NDEuMzY5OTI2NDUyNjM2NywieSI6MTIwMy44ODQzOTE3ODQ2Njh9LHsieCI6NjQxLjM2OTkyNjQ1MjYzNjcsInkiOjEyMzkuMzg0MzkxNzg0NjY4fV0=" data-look="classic" marker-end="url(#my-svg_flowchart-v2-pointEnd)"/><path d="M540.967,1115.608L526.821,1130.321C512.675,1145.033,484.383,1174.459,459.295,1194.784C434.208,1215.109,412.326,1226.334,401.385,1231.946L390.444,1237.559" id="my-svg-L_J_E_0" class="edge-thickness-normal edge-pattern-solid edge-thickness-normal edge-pattern-solid flowchart-link" style=";" data-edge="true" data-et="edge" data-id="L_J_E_0" data-points="W3sieCI6NTQwLjk2NjU4MzgxNzI3NzEsInkiOjExMTUuNjA4MDAyMjc0MzA4M30seyJ4Ijo0NTYuMDkwNjI5NTc3NjM2NywieSI6MTIwMy44ODQzOTE3ODQ2Njh9LHsieCI6Mzg2Ljg4NDc3MjA4MTc4NzQ1LCJ5IjoxMjM5LjM4NDM5MTc4NDY2OH1d" data-look="classic" marker-end="url(#my-svg_flowchart-v2-pointEnd)"/></g><g class="edgeLabels"><g class="edgeLabel"><g class="label" data-id="L_A_B_0" transform="translate(0, 0)"><text y="-10.1" text-anchor="middle"><tspan class="text-outer-tspan row" x="0" y="-0.1em" dy="1.1em" text-anchor="middle"/></text></g></g><g><rect class="background" style="stroke: none"/></g><g class="edgeLabel"><g class="label" data-id="L_B_C_0" transform="translate(0, 0)"><text y="-10.1" text-anchor="middle"><tspan class="text-outer-tspan row" x="0" y="-0.1em" dy="1.1em" text-anchor="middle"/></text></g></g><g><rect class="background" style="stroke: none"/></g><g class="edgeLabel" transform="translate(282.2492218017578, 659.7828216552734)"><g class="label" data-id="L_C_D_0" transform="translate(-0.05078125, -10.5)"><g><rect class="background" style="" x="-12.2265625" y="0" width="24.5546875" height="21"/><text y="-10.1" text-anchor="middle" style=""><tspan class="text-outer-tspan row" x="0" y="-0.1em" dy="1.1em" text-anchor="middle"><tspan font-style="normal" class="text-inner-tspan" font-weight="normal">Не</tspan></tspan></text></g></g></g><g class="edgeLabel"><g class="label" data-id="L_D_E_0" transform="translate(0, 0)"><text y="-10.1" text-anchor="middle"><tspan class="text-outer-tspan row" x="0" y="-0.1em" dy="1.1em" text-anchor="middle"/></text></g></g><g><rect class="background" style="stroke: none"/></g><g class="edgeLabel" transform="translate(127.3046875, 419.6156311035156)"><g class="label" data-id="L_C_F_0" transform="translate(-0.05078125, -10.5)"><g><rect class="background" style="" x="-11.8671875" y="0" width="23.8359375" height="21"/><text y="-10.1" text-anchor="middle" style=""><tspan class="text-outer-tspan row" x="0" y="-0.1em" dy="1.1em" text-anchor="middle"><tspan font-style="normal" class="text-inner-tspan" font-weight="normal">Да</tspan></tspan></text></g></g></g><g class="edgeLabel"><g class="label" data-id="L_F_G_0" transform="translate(0, 0)"><text y="-10.1" text-anchor="middle"><tspan class="text-outer-tspan row" x="0" y="-0.1em" dy="1.1em" text-anchor="middle"/></text></g></g><g><rect class="background" style="stroke: none"/></g><g class="edgeLabel" transform="translate(127.3046875, 802.9500122070312)"><g class="label" data-id="L_G_H_0" transform="translate(-0.05078125, -10.5)"><g><rect class="background" style="" x="-11.8671875" y="0" width="23.8359375" height="21"/><text y="-10.1" text-anchor="middle" style=""><tspan class="text-outer-tspan row" x="0" y="-0.1em" dy="1.1em" text-anchor="middle"><tspan font-style="normal" class="text-inner-tspan" font-weight="normal">Да</tspan></tspan></text></g></g></g><g class="edgeLabel" transform="translate(593.7429733276367, 802.9500122070312)"><g class="label" data-id="L_G_I_0" transform="translate(-0.046875, -10.5)"><g><rect class="background" style="" x="-63.2890625" y="0" width="126.671875" height="21"/><text y="-10.1" text-anchor="middle" style=""><tspan class="text-outer-tspan row" x="0" y="-0.1em" dy="1.1em" text-anchor="middle"><tspan font-style="normal" class="text-inner-tspan" font-weight="normal">Не</tspan><tspan font-style="normal" class="text-inner-tspan" font-weight="normal"> /</tspan><tspan font-style="normal" class="text-inner-tspan" font-weight="normal"> Недостапно</tspan></tspan></text></g></g></g><g class="edgeLabel"><g class="label" data-id="L_I_J_0" transform="translate(0, 0)"><text y="-10.1" text-anchor="middle"><tspan class="text-outer-tspan row" x="0" y="-0.1em" dy="1.1em" text-anchor="middle"/></text></g></g><g><rect class="background" style="stroke: none"/></g><g class="edgeLabel" transform="translate(641.3699264526367, 1203.884391784668)"><g class="label" data-id="L_J_K_0" transform="translate(-0.05078125, -10.5)"><g><rect class="background" style="" x="-11.8671875" y="0" width="23.8359375" height="21"/><text y="-10.1" text-anchor="middle" style=""><tspan class="text-outer-tspan row" x="0" y="-0.1em" dy="1.1em" text-anchor="middle"><tspan font-style="normal" class="text-inner-tspan" font-weight="normal">Да</tspan></tspan></text></g></g></g><g class="edgeLabel" transform="translate(471.57453, 1187.78015)"><g class="label" data-id="L_J_E_0" transform="translate(-0.046875, -10.5)"><g><rect class="background" style="" x="-63.2890625" y="0" width="126.671875" height="21"/><text y="-10.1" text-anchor="middle" style=""><tspan class="text-outer-tspan row" x="0" y="-0.1em" dy="1.1em" text-anchor="middle"><tspan font-style="normal" class="text-inner-tspan" font-weight="normal">Не</tspan><tspan font-style="normal" class="text-inner-tspan" font-weight="normal"> /</tspan><tspan font-style="normal" class="text-inner-tspan" font-weight="normal"> Недостапно</tspan></tspan></text></g></g></g></g><g class="nodes"><g class="node default" id="my-svg-flowchart-A-0" data-look="classic" transform="translate(204.7769546508789, 24)"><g class="basic label-container outer-path"><path d="M-45.6953125 -16 C-17.35536550485412 -16, 10.98458149029176 -16, 45.6953125 -16 C45.6953125 -16, 45.6953125 -16, 45.6953125 -16 C46.00118663163941 -15.990191211946204, 46.30706076327883 -15.980382423892408, 46.720436019691405 -15.967126284005381 C47.023283399703644 -15.937910961482864, 47.32613077971589 -15.908695638960346, 47.741347086952096 -15.868640221171939 C48.10677628915013 -15.809560461706347, 48.47220549134818 -15.750480702240758, 48.75385055922195 -15.704946511857047 C49.000248346368124 -15.64870782483676, 49.24664613351429 -15.592469137816474, 49.75378584255211 -15.476717808624471 C49.964773023145625 -15.414097920918628, 50.17576020373913 -15.351478033212786, 50.737043988377934 -15.184891952170698 C50.96911521936442 -15.09948759392473, 51.2011864503509 -15.01408323567876, 51.69958457806999 -14.830668117536348 C51.92610841811812 -14.73039273313801, 52.15263225816625 -14.630117348739669, 52.63745232588093 -14.415501886438706 C52.88758081324374 -14.285010014796473, 53.137709300606545 -14.154518143154238, 53.546793332063004 -13.941099265974232 C53.876572791411014 -13.74118501971825, 54.20635225075903 -13.541270773462266, 54.42387091936878 -13.409409678269451 C54.745457949461716 -13.185084487354779, 55.06704497955466 -12.960759296440104, 55.265080987859456 -12.822617949887306 C55.437321155319886 -12.685260999840965, 55.60956132278031 -12.547904049794626, 56.06696682492461 -12.183135333906153 C56.22199707116328 -12.042340966147737, 56.37702731740194 -11.901546598389322, 56.826233309655784 -11.493589601563642 C57.020479741697535 -11.293014212551872, 57.21472617373929 -11.092438823540101, 57.53976045320505 -10.756814244181072 C57.79158076074723 -10.4610117819606, 58.04340106828942 -10.165209319740129, 58.20461621948848 -9.975836829739738 C58.391790617815595 -9.72504018791988, 58.57896501614271 -9.474243546100023, 58.81806857355129 -9.153866561954718 C59.00158938479119 -8.871929313652247, 59.18511019603109 -8.589992065349778, 59.377596708085534 -8.294281092968403 C59.56197325492069 -7.966901863912708, 59.746349801755834 -7.639522634857013, 59.880901401968 -7.400612643853364 C60.05018050009524 -7.049100974599693, 60.21945959822247 -6.697589305346022, 60.325914468252996 -6.476533489958305 C60.43937828270286 -6.196275674593527, 60.55284209715272 -5.916017859228749, 60.710807252796165 -5.52584087074093 C60.816475411953604 -5.2075852112935195, 60.92214357111104 -4.889329551846109, 61.03399814858657 -4.552441386096524 C61.08921077257759 -4.341891721516174, 61.1444233965686 -4.131342056935824, 61.294159094909176 -3.560334943301032 C61.34909149152392 -3.278268696650461, 61.40402388813867 -2.99620244999989, 61.490221034631205 -2.5535983205340735 C61.51932143753019 -2.3279013421740657, 61.54842184042918 -2.1022043638140584, 61.62137830718717 -1.536368414522911 C61.64088795866413 -1.2324898448619899, 61.660397610141096 -0.9286112752010688, 61.687091959211 -0.5128252411464826 C61.687091959211 -0.25089506205984125, 61.687091959211 0.011035117026800156, 61.687091959211 0.5128252411464788 C61.66698474410981 0.8260113465994001, 61.64687752900863 1.1391974520523216, 61.62137830718717 1.5363684145229002 C61.58954301252954 1.7832766732975212, 61.55770771787191 2.030184932072142, 61.490221034631205 2.5535983205340624 C61.43512030017748 2.8365289464095818, 61.38001956572376 3.119459572285101, 61.294159094909176 3.5603349433010285 C61.1943862515738 3.9408120367626465, 61.09461340823843 4.321289130224265, 61.03399814858657 4.552441386096513 C60.94317651457105 4.825981677289002, 60.85235488055553 5.099521968481492, 60.710807252796165 5.525840870740919 C60.60765442486914 5.780630350044938, 60.504501596942106 6.035419829348958, 60.325914468253 6.4765334899583005 C60.17551395922274 6.788843365015013, 60.02511345019248 7.101153240071725, 59.880901401968 7.400612643853361 C59.7504029971759 7.632325775958148, 59.6199045923838 7.864038908062937, 59.37759670808554 8.294281092968399 C59.19007617595536 8.58236298663378, 59.00255564382518 8.870444880299162, 58.8180685735513 9.15386656195471 C58.66470246072685 9.359363181199168, 58.51133634790239 9.564859800443626, 58.20461621948848 9.975836829739734 C58.049307226602096 10.158271610116127, 57.89399823371571 10.34070639049252, 57.539760453205055 10.756814244181063 C57.312970327093566 10.990993669206807, 57.086180200982085 11.22517309423255, 56.826233309655784 11.493589601563638 C56.53173618741383 11.761044096016919, 56.23723906517186 12.0284985904702, 56.06696682492463 12.183135333906142 C55.90347016672737 12.313519567989662, 55.7399735085301 12.443903802073184, 55.26508098785946 12.822617949887304 C54.970456699446395 13.028135099404372, 54.67583241103333 13.233652248921441, 54.42387091936879 13.409409678269446 C54.1898342829371 13.551284062626273, 53.95579764650541 13.693158446983102, 53.546793332063004 13.94109926597423 C53.23504653546972 14.103737370073592, 52.923299738876445 14.266375474172952, 52.63745232588093 14.415501886438705 C52.411292908435385 14.515615951761092, 52.18513349098984 14.615730017083479, 51.699584578069995 14.830668117536346 C51.44356646534312 14.924885149625329, 51.18754835261623 15.019102181714311, 50.73704398837794 15.184891952170695 C50.4041300161931 15.283699071614057, 50.07121604400826 15.382506191057418, 49.75378584255213 15.476717808624468 C49.401935191465185 15.55702542369499, 49.05008454037823 15.637333038765512, 48.75385055922196 15.704946511857045 C48.46768549024962 15.751211460965239, 48.181520421277284 15.79747641007343, 47.7413470869521 15.868640221171937 C47.38484734407695 15.903031322613433, 47.028347601201794 15.93742242405493, 46.720436019691405 15.967126284005381 C46.38732065344337 15.97780864543123, 46.05420528719533 15.988491006857078, 45.6953125 16 C45.6953125 16, 45.6953125 16, 45.6953125 16 C26.000258259939457 16, 6.305204019878914 16, -45.6953125 16 C-46.037762177300074 15.989018305386846, -46.380211854600155 15.978036610773694, -46.7204360196914 15.967126284005381 C-47.0352985065745 15.936751878573311, -47.35016099345759 15.906377473141243, -47.741347086952096 15.868640221171937 C-48.073015608989785 15.815018626656686, -48.40468413102748 15.761397032141437, -48.75385055922196 15.704946511857045 C-49.06879630536595 15.633062200512743, -49.383742051509934 15.561177889168441, -49.75378584255211 15.476717808624471 C-50.04497989491428 15.390292942392154, -50.336173947276436 15.303868076159837, -50.73704398837792 15.184891952170702 C-51.09162845733277 15.054401589852418, -51.446212926287615 14.923911227534136, -51.69958457806999 14.830668117536348 C-52.05165391171973 14.674817467295322, -52.40372324536948 14.518966817054295, -52.63745232588093 14.415501886438708 C-52.95955033022477 14.247463563886143, -53.281648334568615 14.079425241333578, -53.546793332063 13.941099265974234 C-53.883955972271806 13.736709292092048, -54.221118612480616 13.532319318209863, -54.42387091936877 13.409409678269457 C-54.72676266274625 13.198125510061569, -55.02965440612373 12.986841341853681, -55.265080987859456 12.822617949887308 C-55.57591629200407 12.574735066506811, -55.88675159614868 12.326852183126315, -56.06696682492461 12.183135333906154 C-56.312313170867576 11.960318274029346, -56.55765951681054 11.73750121415254, -56.82623330965578 11.493589601563649 C-57.10112217148877 11.209744282925806, -57.37601103332176 10.925898964287962, -57.53976045320505 10.756814244181069 C-57.77657942440774 10.478633205225176, -58.013398395610444 10.200452166269283, -58.20461621948847 9.97583682973974 C-58.36952887477608 9.754868895506313, -58.53444153006369 9.533900961272886, -58.81806857355129 9.15386656195472 C-58.97456316522556 8.91344884446116, -59.131057756899835 8.6730311269676, -59.377596708085534 8.29428109296841 C-59.552812816719594 7.983167149533699, -59.728028925353655 7.6720532060989886, -59.880901401968 7.400612643853366 C-60.00677357694514 7.139236379280242, -60.132645751922276 6.8778601147071186, -60.325914468252996 6.476533489958307 C-60.423938125610476 6.234413161126841, -60.521961782967956 5.992292832295375, -60.710807252796165 5.525840870740931 C-60.79143080152013 5.283015587602366, -60.8720543502441 5.040190304463801, -61.03399814858657 4.552441386096519 C-61.102547111868205 4.291034479795018, -61.17109607514985 4.029627573493516, -61.294159094909176 3.5603349433010343 C-61.35099305903859 3.268504549359043, -61.40782702316802 2.9766741554170517, -61.490221034631205 2.5535983205340753 C-61.51683647899694 2.3471741898473653, -61.54345192336268 2.1407500591606548, -61.62137830718717 1.5363684145229202 C-61.63651033649684 1.30067484367056, -61.65164236580652 1.0649812728181998, -61.687091959211 0.5128252411464846 C-61.687091959211 0.15251225728448436, -61.687091959211 -0.20780072657751592, -61.687091959211 -0.5128252411464769 C-61.67078880644655 -0.7667600051208427, -61.6544856536821 -1.0206947690952086, -61.62137830718717 -1.5363684145228982 C-61.587331064640715 -1.8004321043247438, -61.55328382209425 -2.0644957941265893, -61.490221034631205 -2.5535983205340678 C-61.43853900303025 -2.818974629803715, -61.386856971429296 -3.084350939073362, -61.294159094909176 -3.5603349433010267 C-61.20057387819157 -3.917215934734766, -61.10698866147396 -4.274096926168506, -61.033998148586576 -4.552441386096511 C-60.92652956921944 -4.876119624357532, -60.8190609898523 -5.199797862618553, -60.71080725279617 -5.525840870740911 C-60.57332765946777 -5.865418124249183, -60.435848066139364 -6.204995377757457, -60.325914468253 -6.476533489958299 C-60.14982875335993 -6.842179244564512, -59.97374303846684 -7.207824999170726, -59.880901401968 -7.400612643853359 C-59.706608760919195 -7.710086877079216, -59.53231611987039 -8.019561110305073, -59.377596708085534 -8.294281092968404 C-59.20343736894574 -8.561836606217865, -59.02927802980595 -8.829392119467325, -58.818068573551294 -9.153866561954715 C-58.688137725952345 -9.327962060793581, -58.558206878353396 -9.502057559632448, -58.20461621948848 -9.975836829739734 C-57.983380597073165 -10.235712780492301, -57.76214497465784 -10.49558873124487, -57.539760453205055 -10.756814244181063 C-57.351219083949495 -10.951498687471725, -57.162677714693935 -11.146183130762386, -56.82623330965579 -11.493589601563633 C-56.58264495340159 -11.714810101718967, -56.33905659714739 -11.936030601874304, -56.06696682492463 -12.18313533390614 C-55.82968623112986 -12.372360293155683, -55.59240563733509 -12.561585252405226, -55.26508098785946 -12.822617949887302 C-55.03053456008678 -12.986227384550313, -54.795988132314086 -13.149836819213323, -54.42387091936879 -13.409409678269444 C-54.143770686845315 -13.57920808527685, -53.86367045432184 -13.749006492284256, -53.546793332063004 -13.941099265974229 C-53.315294881378904 -14.06187185941429, -53.083796430694804 -14.182644452854353, -52.637452325880936 -14.415501886438705 C-52.443055358207836 -14.501555657446428, -52.248658390534736 -14.587609428454149, -51.699584578069995 -14.830668117536344 C-51.49849814063946 -14.904669785333432, -51.29741170320892 -14.97867145313052, -50.73704398837794 -15.184891952170695 C-50.385027439317966 -15.289368616159123, -50.03301089025799 -15.393845280147552, -49.75378584255213 -15.476717808624466 C-49.502719363082356 -15.534022094201552, -49.25165288361257 -15.59132637977864, -48.753850559221966 -15.704946511857043 C-48.40135546430398 -15.761935185163095, -48.04886036938599 -15.818923858469148, -47.7413470869521 -15.868640221171937 C-47.33756140508499 -15.907592940278326, -46.93377572321787 -15.946545659384714, -46.720436019691405 -15.967126284005381 C-46.329616935001674 -15.97965909136818, -45.93879785031194 -15.99219189873098, -45.69531250000001 -16 C-45.69531250000001 -16, -45.6953125 -16, -45.6953125 -16" stroke="none" stroke-width="0" fill="#eee" style=""/><path d="M-45.6953125 -16 C-25.942091046358318 -16, -6.188869592716635 -16, 45.6953125 -16 M-45.6953125 -16 C-16.694794544766097 -16, 12.305723410467806 -16, 45.6953125 -16 M45.6953125 -16 C45.6953125 -16, 45.6953125 -16, 45.6953125 -16 M45.6953125 -16 C45.6953125 -16, 45.6953125 -16, 45.6953125 -16 M45.6953125 -16 C45.94999054317804 -15.991832970856018, 46.20466858635607 -15.983665941712038, 46.720436019691405 -15.967126284005381 M45.6953125 -16 C46.10063030387407 -15.987002246933004, 46.50594810774813 -15.974004493866008, 46.720436019691405 -15.967126284005381 M46.720436019691405 -15.967126284005381 C47.00757121984822 -15.939426696576856, 47.29470642000503 -15.91172710914833, 47.741347086952096 -15.868640221171939 M46.720436019691405 -15.967126284005381 C47.09729143112811 -15.930771495699025, 47.47414684256482 -15.894416707392669, 47.741347086952096 -15.868640221171939 M47.741347086952096 -15.868640221171939 C48.02754668712469 -15.82236968932708, 48.313746287297285 -15.776099157482223, 48.75385055922195 -15.704946511857047 M47.741347086952096 -15.868640221171939 C48.07452233526509 -15.814775030837334, 48.407697583578084 -15.760909840502729, 48.75385055922195 -15.704946511857047 M48.75385055922195 -15.704946511857047 C48.959399496216925 -15.658031308320114, 49.16494843321189 -15.611116104783179, 49.75378584255211 -15.476717808624471 M48.75385055922195 -15.704946511857047 C49.14967730465056 -15.614601640223876, 49.545504050079174 -15.524256768590703, 49.75378584255211 -15.476717808624471 M49.75378584255211 -15.476717808624471 C50.113622346058484 -15.369920223204131, 50.47345884956486 -15.263122637783791, 50.737043988377934 -15.184891952170698 M49.75378584255211 -15.476717808624471 C50.10820547960072 -15.371527920735083, 50.46262511664933 -15.266338032845695, 50.737043988377934 -15.184891952170698 M50.737043988377934 -15.184891952170698 C51.03641262951611 -15.074721524898466, 51.33578127065428 -14.964551097626236, 51.69958457806999 -14.830668117536348 M50.737043988377934 -15.184891952170698 C51.09879236199439 -15.051765206714531, 51.460540735610856 -14.918638461258366, 51.69958457806999 -14.830668117536348 M51.69958457806999 -14.830668117536348 C51.93350262893033 -14.727119535352912, 52.16742067979067 -14.623570953169477, 52.63745232588093 -14.415501886438706 M51.69958457806999 -14.830668117536348 C51.930387467581724 -14.728498524873963, 52.16119035709346 -14.626328932211578, 52.63745232588093 -14.415501886438706 M52.63745232588093 -14.415501886438706 C52.89044369005301 -14.283516453798835, 53.14343505422509 -14.151531021158965, 53.546793332063004 -13.941099265974232 M52.63745232588093 -14.415501886438706 C52.93114780782018 -14.262281141631933, 53.224843289759434 -14.109060396825159, 53.546793332063004 -13.941099265974232 M53.546793332063004 -13.941099265974232 C53.78948128740195 -13.793980401255034, 54.03216924274089 -13.646861536535836, 54.42387091936878 -13.409409678269451 M53.546793332063004 -13.941099265974232 C53.83720681096739 -13.765048908403358, 54.127620289871764 -13.588998550832484, 54.42387091936878 -13.409409678269451 M54.42387091936878 -13.409409678269451 C54.6081821198408 -13.280842163523445, 54.792493320312815 -13.15227464877744, 55.265080987859456 -12.822617949887306 M54.42387091936878 -13.409409678269451 C54.61509122044467 -13.276022674032333, 54.80631152152055 -13.142635669795215, 55.265080987859456 -12.822617949887306 M55.265080987859456 -12.822617949887306 C55.431685235757236 -12.68975549571406, 55.59828948365501 -12.556893041540816, 56.06696682492461 -12.183135333906153 M55.265080987859456 -12.822617949887306 C55.53306659239976 -12.608906561662849, 55.80105219694006 -12.395195173438394, 56.06696682492461 -12.183135333906153 M56.06696682492461 -12.183135333906153 C56.293657734231395 -11.977260647986515, 56.520348643538185 -11.771385962066878, 56.826233309655784 -11.493589601563642 M56.06696682492461 -12.183135333906153 C56.368163892991646 -11.909596125925395, 56.66936096105867 -11.63605691794464, 56.826233309655784 -11.493589601563642 M56.826233309655784 -11.493589601563642 C57.07714712005604 -11.23450049191843, 57.328060930456296 -10.975411382273219, 57.53976045320505 -10.756814244181072 M56.826233309655784 -11.493589601563642 C57.03170214547464 -11.281426159275522, 57.2371709812935 -11.069262716987405, 57.53976045320505 -10.756814244181072 M57.53976045320505 -10.756814244181072 C57.798251710638006 -10.453175704631093, 58.05674296807097 -10.149537165081114, 58.20461621948848 -9.975836829739738 M57.53976045320505 -10.756814244181072 C57.70103347102707 -10.56737378075265, 57.862306488849086 -10.377933317324228, 58.20461621948848 -9.975836829739738 M58.20461621948848 -9.975836829739738 C58.37838068841078 -9.743008271652634, 58.55214515733307 -9.51017971356553, 58.81806857355129 -9.153866561954718 M58.20461621948848 -9.975836829739738 C58.37832573130982 -9.74308190916122, 58.552035243131165 -9.510326988582703, 58.81806857355129 -9.153866561954718 M58.81806857355129 -9.153866561954718 C58.95743115559091 -8.93976821184871, 59.096793737630534 -8.7256698617427, 59.377596708085534 -8.294281092968403 M58.81806857355129 -9.153866561954718 C59.02761209621324 -8.831951440831535, 59.2371556188752 -8.510036319708352, 59.377596708085534 -8.294281092968403 M59.377596708085534 -8.294281092968403 C59.52139460017488 -8.038953374448239, 59.66519249226423 -7.783625655928075, 59.880901401968 -7.400612643853364 M59.377596708085534 -8.294281092968403 C59.528026870253214 -8.02717710733399, 59.678457032420894 -7.7600731216995795, 59.880901401968 -7.400612643853364 M59.880901401968 -7.400612643853364 C60.01793489487239 -7.116059663790359, 60.154968387776776 -6.831506683727353, 60.325914468252996 -6.476533489958305 M59.880901401968 -7.400612643853364 C60.04559237084272 -7.058628323162789, 60.210283339717435 -6.716644002472213, 60.325914468252996 -6.476533489958305 M60.325914468252996 -6.476533489958305 C60.47101469005048 -6.118133136796575, 60.616114911847966 -5.7597327836348455, 60.710807252796165 -5.52584087074093 M60.325914468252996 -6.476533489958305 C60.42332840038632 -6.235919194218757, 60.52074233251963 -5.9953048984792074, 60.710807252796165 -5.52584087074093 M60.710807252796165 -5.52584087074093 C60.79416803144769 -5.274771487178921, 60.877528810099214 -5.023702103616911, 61.03399814858657 -4.552441386096524 M60.710807252796165 -5.52584087074093 C60.80298841629393 -5.248205893359536, 60.895169579791684 -4.970570915978143, 61.03399814858657 -4.552441386096524 M61.03399814858657 -4.552441386096524 C61.09999792902146 -4.300755618812496, 61.165997709456356 -4.049069851528468, 61.294159094909176 -3.560334943301032 M61.03399814858657 -4.552441386096524 C61.13585944708769 -4.1640001079457125, 61.23772074558882 -3.775558829794902, 61.294159094909176 -3.560334943301032 M61.294159094909176 -3.560334943301032 C61.34568076912651 -3.2957820353047427, 61.397202443343836 -3.0312291273084533, 61.490221034631205 -2.5535983205340735 M61.294159094909176 -3.560334943301032 C61.36845609957437 -3.178835527022776, 61.44275310423956 -2.7973361107445194, 61.490221034631205 -2.5535983205340735 M61.490221034631205 -2.5535983205340735 C61.540467597852235 -2.163895898497935, 61.590714161073265 -1.7741934764617966, 61.62137830718717 -1.536368414522911 M61.490221034631205 -2.5535983205340735 C61.52503110186891 -2.2836183130637093, 61.55984116910661 -2.013638305593345, 61.62137830718717 -1.536368414522911 M61.62137830718717 -1.536368414522911 C61.63610276015784 -1.3070231741402079, 61.65082721312851 -1.0776779337575046, 61.687091959211 -0.5128252411464826 M61.62137830718717 -1.536368414522911 C61.645813875285256 -1.155764717359638, 61.67024944338334 -0.7751610201963647, 61.687091959211 -0.5128252411464826 M61.687091959211 -0.5128252411464826 C61.687091959211 -0.13315764290813198, 61.687091959211 0.2465099553302187, 61.687091959211 0.5128252411464788 M61.687091959211 -0.5128252411464826 C61.687091959211 -0.11599318109028522, 61.687091959211 0.2808388789659122, 61.687091959211 0.5128252411464788 M61.687091959211 0.5128252411464788 C61.673840415648534 0.7192287285854229, 61.66058887208606 0.925632216024367, 61.62137830718717 1.5363684145229002 M61.687091959211 0.5128252411464788 C61.672511189324226 0.7399325015186504, 61.65793041943745 0.967039761890822, 61.62137830718717 1.5363684145229002 M61.62137830718717 1.5363684145229002 C61.58561667273527 1.81372858939839, 61.54985503828336 2.09108876427388, 61.490221034631205 2.5535983205340624 M61.62137830718717 1.5363684145229002 C61.57476112098038 1.8979221051381954, 61.528143934773574 2.259475795753491, 61.490221034631205 2.5535983205340624 M61.490221034631205 2.5535983205340624 C61.431194538647716 2.8566869021549346, 61.37216804266423 3.1597754837758063, 61.294159094909176 3.5603349433010285 M61.490221034631205 2.5535983205340624 C61.42854755002064 2.870278629313742, 61.366874065410066 3.1869589380934213, 61.294159094909176 3.5603349433010285 M61.294159094909176 3.5603349433010285 C61.20769462384986 3.890061445388999, 61.121230152790545 4.219787947476969, 61.03399814858657 4.552441386096513 M61.294159094909176 3.5603349433010285 C61.1995826116527 3.9209960636650987, 61.10500612839623 4.281657184029169, 61.03399814858657 4.552441386096513 M61.03399814858657 4.552441386096513 C60.96042088368157 4.7740443850452, 60.88684361877658 4.995647383993888, 60.710807252796165 5.525840870740919 M61.03399814858657 4.552441386096513 C60.93996936381433 4.835641104378176, 60.845940579042086 5.11884082265984, 60.710807252796165 5.525840870740919 M60.710807252796165 5.525840870740919 C60.61661969822485 5.758485951524559, 60.52243214365353 5.991131032308198, 60.325914468253 6.4765334899583005 M60.710807252796165 5.525840870740919 C60.62203165174131 5.745118321705895, 60.533256050686454 5.964395772670873, 60.325914468253 6.4765334899583005 M60.325914468253 6.4765334899583005 C60.157944692138265 6.825326324038018, 59.98997491602353 7.174119158117736, 59.880901401968 7.400612643853361 M60.325914468253 6.4765334899583005 C60.17382620477251 6.792348023243075, 60.02173794129202 7.108162556527849, 59.880901401968 7.400612643853361 M59.880901401968 7.400612643853361 C59.6828070163706 7.752349284713238, 59.4847126307732 8.104085925573115, 59.37759670808554 8.294281092968399 M59.880901401968 7.400612643853361 C59.719342899198686 7.687476125092656, 59.557784396429376 7.974339606331951, 59.37759670808554 8.294281092968399 M59.37759670808554 8.294281092968399 C59.18365361104717 8.592229771032917, 58.989710514008806 8.890178449097435, 58.8180685735513 9.15386656195471 M59.37759670808554 8.294281092968399 C59.15782205978925 8.631913970507844, 58.938047411492946 8.96954684804729, 58.8180685735513 9.15386656195471 M58.8180685735513 9.15386656195471 C58.59298895552288 9.455452744937764, 58.36790933749445 9.757038927920819, 58.20461621948848 9.975836829739734 M58.8180685735513 9.15386656195471 C58.66544758030579 9.358364788845174, 58.51282658706028 9.562863015735639, 58.20461621948848 9.975836829739734 M58.20461621948848 9.975836829739734 C58.06409585445564 10.14090004634259, 57.9235754894228 10.305963262945445, 57.539760453205055 10.756814244181063 M58.20461621948848 9.975836829739734 C58.065414951416486 10.139350559993636, 57.92621368334449 10.302864290247538, 57.539760453205055 10.756814244181063 M57.539760453205055 10.756814244181063 C57.26257079667471 11.04303532224268, 56.98538114014436 11.329256400304295, 56.826233309655784 11.493589601563638 M57.539760453205055 10.756814244181063 C57.28483059601307 11.020050251862308, 57.029900738821084 11.283286259543553, 56.826233309655784 11.493589601563638 M56.826233309655784 11.493589601563638 C56.63854936675467 11.664039192661425, 56.45086542385355 11.83448878375921, 56.06696682492463 12.183135333906142 M56.826233309655784 11.493589601563638 C56.65951016405247 11.645003151147865, 56.49278701844916 11.796416700732093, 56.06696682492463 12.183135333906142 M56.06696682492463 12.183135333906142 C55.83030440089165 12.371867319220847, 55.59364197685867 12.560599304535552, 55.26508098785946 12.822617949887304 M56.06696682492463 12.183135333906142 C55.84937228698843 12.356661187476426, 55.631777749052226 12.53018704104671, 55.26508098785946 12.822617949887304 M55.26508098785946 12.822617949887304 C55.00909414725037 13.001183288404476, 54.75310730664128 13.17974862692165, 54.42387091936879 13.409409678269446 M55.26508098785946 12.822617949887304 C54.941436721331975 13.048378179882391, 54.61779245480448 13.274138409877477, 54.42387091936879 13.409409678269446 M54.42387091936879 13.409409678269446 C54.18288140373806 13.555498938856383, 53.941891888107335 13.701588199443322, 53.546793332063004 13.94109926597423 M54.42387091936879 13.409409678269446 C54.22197656108826 13.531799224722045, 54.020082202807735 13.654188771174644, 53.546793332063004 13.94109926597423 M53.546793332063004 13.94109926597423 C53.28783263592336 14.076198895278043, 53.028871939783706 14.211298524581855, 52.63745232588093 14.415501886438705 M53.546793332063004 13.94109926597423 C53.216536258240566 14.113394169847645, 52.88627918441813 14.285689073721057, 52.63745232588093 14.415501886438705 M52.63745232588093 14.415501886438705 C52.44103003656095 14.502452207260468, 52.24460774724097 14.589402528082232, 51.699584578069995 14.830668117536346 M52.63745232588093 14.415501886438705 C52.30648479887108 14.562011392843102, 51.97551727186124 14.7085208992475, 51.699584578069995 14.830668117536346 M51.699584578069995 14.830668117536346 C51.49829058709912 14.904746166954883, 51.296996596128245 14.97882421637342, 50.73704398837794 15.184891952170695 M51.699584578069995 14.830668117536346 C51.42881330183474 14.93031445017316, 51.15804202559948 15.029960782809976, 50.73704398837794 15.184891952170695 M50.73704398837794 15.184891952170695 C50.50301203122876 15.254351408593761, 50.26898007407957 15.32381086501683, 49.75378584255213 15.476717808624468 M50.73704398837794 15.184891952170695 C50.46007262305817 15.267095599545241, 50.183101257738386 15.349299246919786, 49.75378584255213 15.476717808624468 M49.75378584255213 15.476717808624468 C49.49618906047776 15.535512593156843, 49.238592278403395 15.594307377689221, 48.75385055922196 15.704946511857045 M49.75378584255213 15.476717808624468 C49.43291833365116 15.549953723674939, 49.112050824750185 15.623189638725409, 48.75385055922196 15.704946511857045 M48.75385055922196 15.704946511857045 C48.35344729563323 15.769680606340387, 47.953044032044495 15.834414700823727, 47.7413470869521 15.868640221171937 M48.75385055922196 15.704946511857045 C48.411371257775116 15.760315909348321, 48.06889195632828 15.815685306839596, 47.7413470869521 15.868640221171937 M47.7413470869521 15.868640221171937 C47.334575563481664 15.907880980826798, 46.92780404001123 15.947121740481661, 46.720436019691405 15.967126284005381 M47.7413470869521 15.868640221171937 C47.505717711392165 15.891371103646419, 47.27008833583223 15.914101986120901, 46.720436019691405 15.967126284005381 M46.720436019691405 15.967126284005381 C46.31077424403797 15.980263339792314, 45.90111246838454 15.993400395579245, 45.6953125 16 M46.720436019691405 15.967126284005381 C46.418935011066885 15.976794834515857, 46.117434002442366 15.986463385026333, 45.6953125 16 M45.6953125 16 C45.6953125 16, 45.6953125 16, 45.6953125 16 M45.6953125 16 C45.6953125 16, 45.6953125 16, 45.6953125 16 M45.6953125 16 C15.208866052088727 16, -15.277580395822547 16, -45.6953125 16 M45.6953125 16 C22.97817031436483 16, 0.26102812872966297 16, -45.6953125 16 M-45.6953125 16 C-45.97267792462528 15.991105430691315, -46.25004334925056 15.98221086138263, -46.7204360196914 15.967126284005381 M-45.6953125 16 C-45.991078069710184 15.990515373852151, -46.28684363942037 15.981030747704304, -46.7204360196914 15.967126284005381 M-46.7204360196914 15.967126284005381 C-46.97405061507224 15.942660389005168, -47.22766521045307 15.918194494004956, -47.741347086952096 15.868640221171937 M-46.7204360196914 15.967126284005381 C-46.967038955979675 15.943336795325074, -47.213641892267944 15.919547306644766, -47.741347086952096 15.868640221171937 M-47.741347086952096 15.868640221171937 C-48.08283144862433 15.813431677827547, -48.42431581029658 15.758223134483154, -48.75385055922196 15.704946511857045 M-47.741347086952096 15.868640221171937 C-48.01206712286529 15.824872305230727, -48.282787158778476 15.781104389289517, -48.75385055922196 15.704946511857045 M-48.75385055922196 15.704946511857045 C-49.07315311313583 15.632067787570096, -49.392455667049695 15.559189063283146, -49.75378584255211 15.476717808624471 M-48.75385055922196 15.704946511857045 C-49.06577564497805 15.633751646534629, -49.37770073073415 15.562556781212212, -49.75378584255211 15.476717808624471 M-49.75378584255211 15.476717808624471 C-49.951111103744026 15.418152706884143, -50.14843636493594 15.359587605143817, -50.73704398837792 15.184891952170702 M-49.75378584255211 15.476717808624471 C-50.07104789119809 15.382556097928823, -50.38830993984406 15.288394387233174, -50.73704398837792 15.184891952170702 M-50.73704398837792 15.184891952170702 C-51.00298272544424 15.08702403861956, -51.268921462510555 14.989156125068419, -51.69958457806999 14.830668117536348 M-50.73704398837792 15.184891952170702 C-50.94799414876092 15.107260343147852, -51.15894430914392 15.029628734125001, -51.69958457806999 14.830668117536348 M-51.69958457806999 14.830668117536348 C-51.94250880343345 14.723132769059058, -52.1854330287969 14.615597420581768, -52.63745232588093 14.415501886438708 M-51.69958457806999 14.830668117536348 C-52.06361269537262 14.6695236685169, -52.42764081267526 14.508379219497455, -52.63745232588093 14.415501886438708 M-52.63745232588093 14.415501886438708 C-52.92757138007861 14.2641469616939, -53.2176904342763 14.11279203694909, -53.546793332063 13.941099265974234 M-52.63745232588093 14.415501886438708 C-52.961411366424606 14.246492662492738, -53.28537040696829 14.077483438546768, -53.546793332063 13.941099265974234 M-53.546793332063 13.941099265974234 C-53.79834709731677 13.788605895183384, -54.049900862570546 13.636112524392532, -54.42387091936877 13.409409678269457 M-53.546793332063 13.941099265974234 C-53.81619701496716 13.777785170205961, -54.085600697871314 13.614471074437688, -54.42387091936877 13.409409678269457 M-54.42387091936877 13.409409678269457 C-54.75062097093248 13.181482987080368, -55.077371022496195 12.95355629589128, -55.265080987859456 12.822617949887308 M-54.42387091936877 13.409409678269457 C-54.71205761641417 13.208383113811632, -55.00024431345957 13.007356549353808, -55.265080987859456 12.822617949887308 M-55.265080987859456 12.822617949887308 C-55.45305856039583 12.672710838082837, -55.64103613293221 12.522803726278367, -56.06696682492461 12.183135333906154 M-55.265080987859456 12.822617949887308 C-55.431342513644005 12.690028807479143, -55.59760403942856 12.557439665070978, -56.06696682492461 12.183135333906154 M-56.06696682492461 12.183135333906154 C-56.254824784407006 12.012527705553483, -56.44268274388939 11.841920077200811, -56.82623330965578 11.493589601563649 M-56.06696682492461 12.183135333906154 C-56.25527241763033 12.012121176903781, -56.443578010336054 11.84110701990141, -56.82623330965578 11.493589601563649 M-56.82623330965578 11.493589601563649 C-57.04704559945253 11.265582783322355, -57.267857889249285 11.037575965081059, -57.53976045320505 10.756814244181069 M-56.82623330965578 11.493589601563649 C-57.08749534938512 11.223815095530721, -57.34875738911447 10.954040589497794, -57.53976045320505 10.756814244181069 M-57.53976045320505 10.756814244181069 C-57.77876585105614 10.476064904072773, -58.01777124890723 10.195315563964476, -58.20461621948847 9.97583682973974 M-57.53976045320505 10.756814244181069 C-57.76625332414434 10.490762830166325, -57.992746195083626 10.224711416151582, -58.20461621948847 9.97583682973974 M-58.20461621948847 9.97583682973974 C-58.4162510468357 9.69226544142386, -58.62788587418293 9.40869405310798, -58.81806857355129 9.15386656195472 M-58.20461621948847 9.97583682973974 C-58.41063894006636 9.699785153221324, -58.616661660644255 9.423733476702907, -58.81806857355129 9.15386656195472 M-58.81806857355129 9.15386656195472 C-59.007289467909445 8.86317245529598, -59.1965103622676 8.572478348637238, -59.377596708085534 8.29428109296841 M-58.81806857355129 9.15386656195472 C-58.962380253962536 8.932165067730908, -59.10669193437378 8.710463573507097, -59.377596708085534 8.29428109296841 M-59.377596708085534 8.29428109296841 C-59.517729451057924 8.045461217842004, -59.65786219403031 7.7966413427155965, -59.880901401968 7.400612643853366 M-59.377596708085534 8.29428109296841 C-59.56101032511325 7.968611643293027, -59.74442394214097 7.642942193617644, -59.880901401968 7.400612643853366 M-59.880901401968 7.400612643853366 C-60.026699442118066 7.097859893903451, -60.17249748226812 6.795107143953538, -60.325914468252996 6.476533489958307 M-59.880901401968 7.400612643853366 C-60.002230910502156 7.148669323346594, -60.1235604190363 6.896726002839823, -60.325914468252996 6.476533489958307 M-60.325914468252996 6.476533489958307 C-60.4587888463094 6.14833120720765, -60.59166322436581 5.820128924456994, -60.710807252796165 5.525840870740931 M-60.325914468252996 6.476533489958307 C-60.4443877837686 6.183902110109043, -60.5628610992842 5.891270730259778, -60.710807252796165 5.525840870740931 M-60.710807252796165 5.525840870740931 C-60.84001190553749 5.136697042649844, -60.969216558278816 4.7475532145587565, -61.03399814858657 4.552441386096519 M-60.710807252796165 5.525840870740931 C-60.812832996603326 5.218555585988485, -60.91485874041049 4.911270301236038, -61.03399814858657 4.552441386096519 M-61.03399814858657 4.552441386096519 C-61.137653282238766 4.1571594370615905, -61.24130841589096 3.761877488026662, -61.294159094909176 3.5603349433010343 M-61.03399814858657 4.552441386096519 C-61.11021772119546 4.261783121967092, -61.186437293804346 3.971124857837664, -61.294159094909176 3.5603349433010343 M-61.294159094909176 3.5603349433010343 C-61.33552935753815 3.347907388309365, -61.37689962016712 3.1354798333176954, -61.490221034631205 2.5535983205340753 M-61.294159094909176 3.5603349433010343 C-61.34832776725801 3.282190259342715, -61.40249643960685 3.0040455753843958, -61.490221034631205 2.5535983205340753 M-61.490221034631205 2.5535983205340753 C-61.527328498037505 2.2658001620522588, -61.564435961443806 1.9780020035704426, -61.62137830718717 1.5363684145229202 M-61.490221034631205 2.5535983205340753 C-61.523808608789544 2.293099727978697, -61.55739618294788 2.0326011354233184, -61.62137830718717 1.5363684145229202 M-61.62137830718717 1.5363684145229202 C-61.63617564070987 1.3058880007142268, -61.65097297423257 1.0754075869055337, -61.687091959211 0.5128252411464846 M-61.62137830718717 1.5363684145229202 C-61.64415051577003 1.1816728844490019, -61.66692272435288 0.8269773543750834, -61.687091959211 0.5128252411464846 M-61.687091959211 0.5128252411464846 C-61.687091959211 0.1572445881329258, -61.687091959211 -0.19833606488063305, -61.687091959211 -0.5128252411464769 M-61.687091959211 0.5128252411464846 C-61.687091959211 0.1822824337037175, -61.687091959211 -0.14826037373904966, -61.687091959211 -0.5128252411464769 M-61.687091959211 -0.5128252411464769 C-61.6724610655602 -0.7407132196025017, -61.6578301719094 -0.9686011980585265, -61.62137830718717 -1.5363684145228982 M-61.687091959211 -0.5128252411464769 C-61.66161872655535 -0.9095914013815499, -61.636145493899704 -1.306357561616623, -61.62137830718717 -1.5363684145228982 M-61.62137830718717 -1.5363684145228982 C-61.591420692825956 -1.7687137557083958, -61.56146307846475 -2.0010590968938935, -61.490221034631205 -2.5535983205340678 M-61.62137830718717 -1.5363684145228982 C-61.58724111998527 -1.8011296973107687, -61.553103932783365 -2.065890980098639, -61.490221034631205 -2.5535983205340678 M-61.490221034631205 -2.5535983205340678 C-61.43554732680854 -2.834336254911211, -61.38087361898587 -3.115074189288355, -61.294159094909176 -3.5603349433010267 M-61.490221034631205 -2.5535983205340678 C-61.41349247976821 -2.947583233169738, -61.336763924905206 -3.3415681458054083, -61.294159094909176 -3.5603349433010267 M-61.294159094909176 -3.5603349433010267 C-61.20250984907299 -3.909833238708832, -61.1108606032368 -4.259331534116638, -61.033998148586576 -4.552441386096511 M-61.294159094909176 -3.5603349433010267 C-61.227491656244304 -3.8145667807808796, -61.16082421757943 -4.0687986182607325, -61.033998148586576 -4.552441386096511 M-61.033998148586576 -4.552441386096511 C-60.96544908733119 -4.75890023678805, -60.89690002607579 -4.965359087479588, -60.71080725279617 -5.525840870740911 M-61.033998148586576 -4.552441386096511 C-60.92821465023898 -4.871044428807882, -60.82243115189137 -5.189647471519253, -60.71080725279617 -5.525840870740911 M-60.71080725279617 -5.525840870740911 C-60.62413761452949 -5.739916552903078, -60.53746797626281 -5.953992235065245, -60.325914468253 -6.476533489958299 M-60.71080725279617 -5.525840870740911 C-60.601488124148396 -5.795861232042491, -60.49216899550062 -6.065881593344073, -60.325914468253 -6.476533489958299 M-60.325914468253 -6.476533489958299 C-60.18688173400599 -6.76523793744617, -60.04784899975898 -7.053942384934041, -59.880901401968 -7.400612643853359 M-60.325914468253 -6.476533489958299 C-60.22246953735155 -6.6913391023421145, -60.1190246064501 -6.906144714725929, -59.880901401968 -7.400612643853359 M-59.880901401968 -7.400612643853359 C-59.7156643492337 -7.694007763049071, -59.55042729649939 -7.987402882244783, -59.377596708085534 -8.294281092968404 M-59.880901401968 -7.400612643853359 C-59.72309893663743 -7.680806900280133, -59.56529647130686 -7.961001156706907, -59.377596708085534 -8.294281092968404 M-59.377596708085534 -8.294281092968404 C-59.18636427512981 -8.588065463086759, -58.99513184217408 -8.881849833205115, -58.818068573551294 -9.153866561954715 M-59.377596708085534 -8.294281092968404 C-59.18165700602161 -8.595297092515695, -58.985717303957685 -8.896313092062984, -58.818068573551294 -9.153866561954715 M-58.818068573551294 -9.153866561954715 C-58.617576153538025 -9.422508139537278, -58.417083733524755 -9.691149717119844, -58.20461621948848 -9.975836829739734 M-58.818068573551294 -9.153866561954715 C-58.659823161479224 -9.36590099767767, -58.50157774940716 -9.577935433400626, -58.20461621948848 -9.975836829739734 M-58.20461621948848 -9.975836829739734 C-58.05379353639128 -10.153001735359489, -57.902970853294086 -10.330166640979241, -57.539760453205055 -10.756814244181063 M-58.20461621948848 -9.975836829739734 C-58.05475652310813 -10.15187055636638, -57.904896826727786 -10.327904282993025, -57.539760453205055 -10.756814244181063 M-57.539760453205055 -10.756814244181063 C-57.378879960471856 -10.922936561462192, -57.21799946773865 -11.089058878743321, -56.82623330965579 -11.493589601563633 M-57.539760453205055 -10.756814244181063 C-57.368048702672354 -10.93412072440298, -57.19633695213965 -11.111427204624896, -56.82623330965579 -11.493589601563633 M-56.82623330965579 -11.493589601563633 C-56.65378135223769 -11.650205906461998, -56.48132939481958 -11.806822211360366, -56.06696682492463 -12.18313533390614 M-56.82623330965579 -11.493589601563633 C-56.5735585915156 -11.72306209517186, -56.320883873375415 -11.95253458878009, -56.06696682492463 -12.18313533390614 M-56.06696682492463 -12.18313533390614 C-55.77882941556832 -12.412917250209313, -55.49069200621201 -12.642699166512486, -55.26508098785946 -12.822617949887302 M-56.06696682492463 -12.18313533390614 C-55.84116380916427 -12.363207230104418, -55.615360793403916 -12.543279126302696, -55.26508098785946 -12.822617949887302 M-55.26508098785946 -12.822617949887302 C-55.01259076560371 -12.998744198807353, -54.76010054334797 -13.174870447727404, -54.42387091936879 -13.409409678269444 M-55.26508098785946 -12.822617949887302 C-55.03425217423521 -12.983634137853285, -54.803423360610964 -13.144650325819269, -54.42387091936879 -13.409409678269444 M-54.42387091936879 -13.409409678269444 C-54.079567993478065 -13.618128135292983, -53.73526506758734 -13.82684659231652, -53.546793332063004 -13.941099265974229 M-54.42387091936879 -13.409409678269444 C-54.20288017109926 -13.54337556855622, -53.98188942282973 -13.677341458842996, -53.546793332063004 -13.941099265974229 M-53.546793332063004 -13.941099265974229 C-53.333429201494035 -14.052411196225814, -53.120065070925065 -14.163723126477398, -52.637452325880936 -14.415501886438705 M-53.546793332063004 -13.941099265974229 C-53.2737498947941 -14.083545852304749, -53.0007064575252 -14.22599243863527, -52.637452325880936 -14.415501886438705 M-52.637452325880936 -14.415501886438705 C-52.41411282264165 -14.514367659391764, -52.19077331940237 -14.613233432344822, -51.699584578069995 -14.830668117536344 M-52.637452325880936 -14.415501886438705 C-52.39958824141649 -14.52079726064375, -52.16172415695204 -14.626092634848796, -51.699584578069995 -14.830668117536344 M-51.699584578069995 -14.830668117536344 C-51.34020481125568 -14.96292319379416, -50.98082504444137 -15.095178270051976, -50.73704398837794 -15.184891952170695 M-51.699584578069995 -14.830668117536344 C-51.320412044973565 -14.970207114748304, -50.94123951187714 -15.109746111960261, -50.73704398837794 -15.184891952170695 M-50.73704398837794 -15.184891952170695 C-50.48271803112427 -15.260374561299392, -50.2283920738706 -15.33585717042809, -49.75378584255213 -15.476717808624466 M-50.73704398837794 -15.184891952170695 C-50.461630639255745 -15.266633188515993, -50.18621729013355 -15.348374424861289, -49.75378584255213 -15.476717808624466 M-49.75378584255213 -15.476717808624466 C-49.36996723079383 -15.564321902107785, -48.98614861903553 -15.651925995591105, -48.753850559221966 -15.704946511857043 M-49.75378584255213 -15.476717808624466 C-49.522545644399855 -15.529496874869409, -49.29130544624758 -15.582275941114352, -48.753850559221966 -15.704946511857043 M-48.753850559221966 -15.704946511857043 C-48.49015704523063 -15.74757843422542, -48.2264635312393 -15.790210356593796, -47.7413470869521 -15.868640221171937 M-48.753850559221966 -15.704946511857043 C-48.46144188540777 -15.752220878576189, -48.16903321159358 -15.799495245295336, -47.7413470869521 -15.868640221171937 M-47.7413470869521 -15.868640221171937 C-47.35797225629456 -15.90562393000978, -46.97459742563701 -15.94260763884762, -46.720436019691405 -15.967126284005381 M-47.7413470869521 -15.868640221171937 C-47.44526085064706 -15.897203304292487, -47.14917461434201 -15.925766387413038, -46.720436019691405 -15.967126284005381 M-46.720436019691405 -15.967126284005381 C-46.44922000017347 -15.975823653861365, -46.17800398065553 -15.984521023717349, -45.69531250000001 -16 M-46.720436019691405 -15.967126284005381 C-46.451629015661304 -15.975746401423534, -46.182822011631195 -15.984366518841687, -45.69531250000001 -16 M-45.69531250000001 -16 C-45.69531250000001 -16, -45.6953125 -16, -45.6953125 -16 M-45.69531250000001 -16 C-45.69531250000001 -16, -45.69531250000001 -16, -45.6953125 -16" stroke="#999" stroke-width="1.3" fill="none" stroke-dasharray="0 0" style=""/></g><g class="label" style="" transform="translate(0, -8.5)"><rect/><g><rect class="background" style="stroke: none"/><text y="-10.1" style=""><tspan class="text-outer-tspan row" x="0" y="-0.1em" dy="1.1em"><tspan font-style="normal" class="text-inner-tspan" font-weight="normal">Внес</tspan><tspan font-style="normal" class="text-inner-tspan" font-weight="normal"> на</tspan><tspan font-style="normal" class="text-inner-tspan" font-weight="normal"> ISBN</tspan></tspan></text></g></g></g><g class="node default" id="my-svg-flowchart-B-1" data-look="classic" transform="translate(204.7769546508789, 113.5)"><rect class="basic label-container" style="" x="-121.421875" y="-23.5" width="242.84375" height="47"/><g class="label" style="" transform="translate(0, -8.5)"><rect/><g><rect class="background" style="stroke: none"/><text y="-10.1" style=""><tspan class="text-outer-tspan row" x="0" y="-0.1em" dy="1.1em"><tspan font-style="normal" class="text-inner-tspan" font-weight="normal">Нормализирај</tspan><tspan font-style="normal" class="text-inner-tspan" font-weight="normal"> и</tspan><tspan font-style="normal" class="text-inner-tspan" font-weight="normal"> потврди</tspan></tspan></text></g></g></g><g class="node default" id="my-svg-flowchart-C-3" data-look="classic" transform="translate(204.7769546508789, 285.5578155517578)"><polygon points="98.55781173706055,0 197.1156234741211,-98.55781173706055 98.55781173706055,-197.1156234741211 0,-98.55781173706055" class="label-container" transform="translate(-98.05781173706055, 98.55781173706055)"/><g class="label" style="" transform="translate(0, -17.299999237060547)"><rect/><g><rect class="background" style="stroke: none"/><text y="-10.1" style=""><tspan class="text-outer-tspan row" x="0" y="-0.1em" dy="1.1em"><tspan font-style="normal" class="text-inner-tspan" font-weight="normal">Контролна</tspan><tspan font-style="normal" class="text-inner-tspan" font-weight="normal"> цифра</tspan></tspan><tspan class="text-outer-tspan row" x="0" y="1em" dy="1.1em"><tspan font-style="normal" class="text-inner-tspan" font-weight="normal">валидна?</tspan></tspan></text></g></g></g><g class="node default" id="my-svg-flowchart-D-5" data-look="classic" transform="translate(282.2492218017578, 1060.7172012329102)"><rect class="basic label-container" style="fill:#ffebee !important;stroke:#c62828 !important" x="-106.6796875" y="-32.29999923706055" width="213.359375" height="64.5999984741211"/><g class="label" style="" transform="translate(0, -17.299999237060547)"><rect/><g><rect class="background" style="stroke: none"/><text y="-10.1" style=""><tspan class="text-outer-tspan row" x="0" y="-0.1em" dy="1.1em"><tspan font-style="normal" class="text-inner-tspan" font-weight="normal">Прикажи</tspan><tspan font-style="normal" class="text-inner-tspan" font-weight="normal"> грешка</tspan><tspan font-style="normal" class="text-inner-tspan" font-weight="normal"> при</tspan></tspan><tspan class="text-outer-tspan row" x="0" y="1em" dy="1.1em"><tspan font-style="normal" class="text-inner-tspan" font-weight="normal">валидација</tspan></tspan></text></g></g></g><g class="node default" id="my-svg-flowchart-E-7" data-look="classic" transform="translate(323.9171905517578, 1271.6843910217285)"><rect class="basic label-container" style="fill:#fff3e0 !important;stroke:#e65100 !important" x="-101.9921875" y="-32.29999923706055" width="203.984375" height="64.5999984741211"/><g class="label" style="" transform="translate(0, -17.299999237060547)"><rect/><g><rect class="background" style="stroke: none"/><text y="-10.1" style=""><tspan class="text-outer-tspan row" x="0" y="-0.1em" dy="1.1em"><tspan font-style="normal" class="text-inner-tspan" font-weight="normal">Рачен</tspan><tspan font-style="normal" class="text-inner-tspan" font-weight="normal"> внес</tspan></tspan><tspan class="text-outer-tspan row" x="0" y="1em" dy="1.1em"><tspan font-style="normal" class="text-inner-tspan" font-weight="normal">(секогаш</tspan><tspan font-style="normal" class="text-inner-tspan" font-weight="normal"> достапен)</tspan></tspan></text></g></g></g><g class="node default" id="my-svg-flowchart-F-9" data-look="classic" transform="translate(127.3046875, 478.6156311035156)"><rect class="basic label-container" style="" x="-112.5625" y="-23.5" width="225.125" height="47"/><g class="label" style="" transform="translate(0, -8.5)"><rect/><g><rect class="background" style="stroke: none"/><text y="-10.1" style=""><tspan class="text-outer-tspan row" x="0" y="-0.1em" dy="1.1em"><tspan font-style="normal" class="text-inner-tspan" font-weight="normal">Пребарај</tspan><tspan font-style="normal" class="text-inner-tspan" font-weight="normal"> Open</tspan><tspan font-style="normal" class="text-inner-tspan" font-weight="normal"> Library</tspan></tspan></text></g></g></g><g class="node default" id="my-svg-flowchart-G-11" data-look="classic" transform="translate(127.3046875, 659.7828216552734)"><polygon points="107.66718673706055,0 215.3343734741211,-107.66718673706055 107.66718673706055,-215.3343734741211 0,-107.66718673706055" class="label-container" transform="translate(-107.16718673706055, 107.66718673706055)"/><g class="label" style="" transform="translate(0, -17.299999237060547)"><rect/><g><rect class="background" style="stroke: none"/><text y="-10.1" style=""><tspan class="text-outer-tspan row" x="0" y="-0.1em" dy="1.1em"><tspan font-style="normal" class="text-inner-tspan" font-weight="normal">Пронајдени</tspan><tspan font-style="normal" class="text-inner-tspan" font-weight="normal"> корисни</tspan></tspan><tspan class="text-outer-tspan row" x="0" y="1em" dy="1.1em"><tspan font-style="normal" class="text-inner-tspan" font-weight="normal">метаподатоци?</tspan></tspan></text></g></g></g><g class="node default" id="my-svg-flowchart-H-13" data-look="classic" transform="translate(127.3046875, 870.7500114440918)"><rect class="basic label-container" style="fill:#e8f5e9 !important;stroke:#2e7d32 !important" x="-119.3046875" y="-32.29999923706055" width="238.609375" height="64.5999984741211"/><g class="label" style="" transform="translate(0, -17.299999237060547)"><rect/><g><rect class="background" style="stroke: none"/><text y="-10.1" style=""><tspan class="text-outer-tspan row" x="0" y="-0.1em" dy="1.1em"><tspan font-style="normal" class="text-inner-tspan" font-weight="normal">Врати</tspan><tspan font-style="normal" class="text-inner-tspan" font-weight="normal"> метаподатоци</tspan></tspan><tspan class="text-outer-tspan row" x="0" y="1em" dy="1.1em"><tspan font-style="normal" class="text-inner-tspan" font-weight="normal">Провајдер:</tspan><tspan font-style="normal" class="text-inner-tspan" font-weight="normal"> Open</tspan><tspan font-style="normal" class="text-inner-tspan" font-weight="normal"> Library</tspan></tspan></text></g></g></g><g class="node default" id="my-svg-flowchart-I-15" data-look="classic" transform="translate(593.7429733276367, 870.7500114440918)"><rect class="basic label-container" style="" x="-101.890625" y="-32.29999923706055" width="203.78125" height="64.5999984741211"/><g class="label" style="" transform="translate(0, -17.299999237060547)"><rect/><g><rect class="background" style="stroke: none"/><text y="-10.1" style=""><tspan class="text-outer-tspan row" x="0" y="-0.1em" dy="1.1em"><tspan font-style="normal" class="text-inner-tspan" font-weight="normal">Пребарај</tspan><tspan font-style="normal" class="text-inner-tspan" font-weight="normal"> Let</tspan><tspan font-style="normal" class="text-inner-tspan" font-weight="normal"> Books</tspan></tspan><tspan class="text-outer-tspan row" x="0" y="1em" dy="1.1em"><tspan font-style="normal" class="text-inner-tspan" font-weight="normal">метаподаточен</tspan><tspan font-style="normal" class="text-inner-tspan" font-weight="normal"> API</tspan></tspan></text></g></g></g><g class="node default" id="my-svg-flowchart-J-17" data-look="classic" transform="translate(593.7429733276367, 1060.7172012329102)"><polygon points="107.66718673706055,0 215.3343734741211,-107.66718673706055 107.66718673706055,-215.3343734741211 0,-107.66718673706055" class="label-container" transform="translate(-107.16718673706055, 107.66718673706055)"/><g class="label" style="" transform="translate(0, -17.299999237060547)"><rect/><g><rect class="background" style="stroke: none"/><text y="-10.1" style=""><tspan class="text-outer-tspan row" x="0" y="-0.1em" dy="1.1em"><tspan font-style="normal" class="text-inner-tspan" font-weight="normal">Пронајдени</tspan><tspan font-style="normal" class="text-inner-tspan" font-weight="normal"> корисни</tspan></tspan><tspan class="text-outer-tspan row" x="0" y="1em" dy="1.1em"><tspan font-style="normal" class="text-inner-tspan" font-weight="normal">метаподатоци?</tspan></tspan></text></g></g></g><g class="node default" id="my-svg-flowchart-K-19" data-look="classic" transform="translate(641.3699264526367, 1271.6843910217285)"><rect class="basic label-container" style="fill:#e8f5e9 !important;stroke:#2e7d32 !important" x="-123.3125" y="-32.29999923706055" width="246.625" height="64.5999984741211"/><g class="label" style="" transform="translate(0, -17.299999237060547)"><rect/><g><rect class="background" style="stroke: none"/><text y="-10.1" style=""><tspan class="text-outer-tspan row" x="0" y="-0.1em" dy="1.1em"><tspan font-style="normal" class="text-inner-tspan" font-weight="normal">Врати</tspan><tspan font-style="normal" class="text-inner-tspan" font-weight="normal"> метаподатоци</tspan></tspan><tspan class="text-outer-tspan row" x="0" y="1em" dy="1.1em"><tspan font-style="normal" class="text-inner-tspan" font-weight="normal">Провајдер:</tspan><tspan font-style="normal" class="text-inner-tspan" font-weight="normal"> Let</tspan><tspan font-style="normal" class="text-inner-tspan" font-weight="normal"> Books</tspan><tspan font-style="normal" class="text-inner-tspan" font-weight="normal"> API</tspan></tspan></text></g></g></g></g></g></g><defs><filter id="my-svg-drop-shadow" height="130%" width="130%"><feDropShadow dx="4" dy="4" stdDeviation="0" flood-opacity="0.06" flood-color="#000000"/></filter></defs><defs><filter id="my-svg-drop-shadow-small" height="150%" width="150%"><feDropShadow dx="2" dy="2" stdDeviation="0" flood-opacity="0.06" flood-color="#000000"/></filter></defs><linearGradient id="my-svg-gradient" gradientUnits="objectBoundingBox" x1="0%" y1="0%" x2="100%" y2="0%"><stop offset="0%" stop-color="hsl(0, 0%, 83.3333333333%)" stop-opacity="1"/><stop offset="100%" stop-color="hsl(0, 0%, 88.9215686275%)" stop-opacity="1"/></linearGradient><text text-anchor="middle" x="386.3412170410156" y="-25" class="flowchartTitleText">Синџир за пребарување метаподатоци ISBN</text></svg>