<svg id="my-svg" width="100%" xmlns="http://www.w3.org/2000/svg" xmlns:xlink="http://www.w3.org/1999/xlink" class="flowchart" style="max-width: 720.828px; background-color: transparent;" viewBox="0 -49 720.8277587890625 1216.36083984375" role="graphics-document document" aria-roledescription="flowchart-v2"><style>#my-svg{font-family:"trebuchet ms",verdana,arial,sans-serif;font-size:16px;fill:#000000;}@keyframes edge-animation-frame{from{stroke-dashoffset:0;}}@keyframes dash{to{stroke-dashoffset:0;}}#my-svg .edge-animation-slow{stroke-dasharray:9,5!important;stroke-dashoffset:900;animation:dash 50s linear infinite;stroke-linecap:round;}#my-svg .edge-animation-fast{stroke-dasharray:9,5!important;stroke-dashoffset:900;animation:dash 20s linear infinite;stroke-linecap:round;}#my-svg .error-icon{fill:#552222;}#my-svg .error-text{fill:#552222;stroke:#552222;}#my-svg .edge-thickness-normal{stroke-width:1px;}#my-svg .edge-thickness-thick{stroke-width:3.5px;}#my-svg .edge-pattern-solid{stroke-dasharray:0;}#my-svg .edge-thickness-invisible{stroke-width:0;fill:none;}#my-svg .edge-pattern-dashed{stroke-dasharray:3;}#my-svg .edge-pattern-dotted{stroke-dasharray:2;}#my-svg .marker{fill:#666;stroke:#666;}#my-svg .marker.cross{stroke:#666;}#my-svg svg{font-family:"trebuchet ms",verdana,arial,sans-serif;font-size:16px;}#my-svg p{margin:0;}#my-svg .label{font-family:"trebuchet ms",verdana,arial,sans-serif;color:#000000;}#my-svg .cluster-label text{fill:#333;}#my-svg .cluster-label span{color:#333;}#my-svg .cluster-label span p{background-color:transparent;}#my-svg .label text,#my-svg span{fill:#000000;color:#000000;}#my-svg .node rect,#my-svg .node circle,#my-svg .node ellipse,#my-svg .node polygon,#my-svg .node path{fill:#eee;stroke:#999;stroke-width:1px;}#my-svg .rough-node .label text,#my-svg .node .label text,#my-svg .image-shape .label,#my-svg .icon-shape .label{text-anchor:middle;}#my-svg .node .katex path{fill:#000;stroke:#000;stroke-width:1px;}#my-svg .rough-node .label,#my-svg .node .label,#my-svg .image-shape .label,#my-svg .icon-shape .label{text-align:center;}#my-svg .node.clickable{cursor:pointer;}#my-svg .root .anchor path{fill:#666!important;stroke-width:0;stroke:#666;}#my-svg .arrowheadPath{fill:#333333;}#my-svg .edgePath .path{stroke:#666;stroke-width:1px;}#my-svg .flowchart-link{stroke:#666;fill:none;}#my-svg .edgeLabel{background-color:white;text-align:center;}#my-svg .edgeLabel p{background-color:white;}#my-svg .edgeLabel rect{opacity:0.5;background-color:white;fill:white;}#my-svg .labelBkg{background-color:rgba(255, 255, 255, 0.5);}#my-svg .cluster rect{fill:hsl(0, 0%, 98.9215686275%);stroke:#707070;stroke-width:1px;}#my-svg .cluster text{fill:#333;}#my-svg .cluster span{color:#333;}#my-svg div.mermaidTooltip{position:absolute;text-align:center;max-width:200px;padding:2px;font-family:"trebuchet ms",verdana,arial,sans-serif;font-size:12px;background:hsl(-160, 0%, 93.3333333333%);border:1px solid #707070;border-radius:2px;pointer-events:none;z-index:100;}#my-svg .flowchartTitleText{text-anchor:middle;font-size:18px;fill:#000000;}#my-svg rect.text{fill:none;stroke-width:0;}#my-svg .icon-shape,#my-svg .image-shape{background-color:white;text-align:center;}#my-svg .icon-shape p,#my-svg .image-shape p{background-color:white;padding:2px;}#my-svg .icon-shape .label rect,#my-svg .image-shape .label rect{opacity:0.5;background-color:white;fill:white;}#my-svg .label-icon{display:inline-block;height:1em;overflow:visible;vertical-align:-0.125em;}#my-svg .node .label-icon path{fill:currentColor;stroke:revert;stroke-width:revert;}#my-svg .node .neo-node{stroke:#999;}#my-svg [data-look="neo"].node rect,#my-svg [data-look="neo"].cluster rect,#my-svg [data-look="neo"].node polygon{stroke:url(#my-svg-gradient);filter:drop-shadow( 1px 2px 2px rgba(185,185,185,1));}#my-svg [data-look="neo"].node path{stroke:url(#my-svg-gradient);stroke-width:1px;}#my-svg [data-look="neo"].node .outer-path{filter:drop-shadow( 1px 2px 2px rgba(185,185,185,1));}#my-svg [data-look="neo"].node .neo-line path{stroke:#999;filter:none;}#my-svg [data-look="neo"].node circle{stroke:url(#my-svg-gradient);filter:drop-shadow( 1px 2px 2px rgba(185,185,185,1));}#my-svg [data-look="neo"].node circle .state-start{fill:#000000;}#my-svg [data-look="neo"].icon-shape .icon{fill:url(#my-svg-gradient);filter:drop-shadow( 1px 2px 2px rgba(185,185,185,1));}#my-svg [data-look="neo"].icon-shape .icon-neo path{stroke:url(#my-svg-gradient);filter:drop-shadow( 1px 2px 2px rgba(185,185,185,1));}#my-svg :root{--mermaid-font-family:"trebuchet ms",verdana,arial,sans-serif;}</style><g><marker id="my-svg_flowchart-v2-pointEnd" class="marker flowchart-v2" viewBox="0 0 10 10" refX="5" refY="5" markerUnits="userSpaceOnUse" markerWidth="8" markerHeight="8" orient="auto"><path d="M 0 0 L 10 5 L 0 10 z" class="arrowMarkerPath" style="stroke-width: 1; stroke-dasharray: 1, 0;"/></marker><marker id="my-svg_flowchart-v2-pointStart" class="marker flowchart-v2" viewBox="0 0 10 10" refX="4.5" refY="5" markerUnits="userSpaceOnUse" markerWidth="8" markerHeight="8" orient="auto"><path d="M 0 5 L 10 10 L 10 0 z" class="arrowMarkerPath" style="stroke-width: 1; stroke-dasharray: 1, 0;"/></marker><marker id="my-svg_flowchart-v2-pointEnd-margin" class="marker flowchart-v2" viewBox="0 0 11.5 14" refX="11.5" refY="7" markerUnits="userSpaceOnUse" markerWidth="10.5" markerHeight="14" orient="auto"><path d="M 0 0 L 11.5 7 L 0 14 z" class="arrowMarkerPath" style="stroke-width: 0; stroke-dasharray: 1, 0;"/></marker><marker id="my-svg_flowchart-v2-pointStart-margin" class="marker flowchart-v2" viewBox="0 0 11.5 14" refX="1" refY="7" markerUnits="userSpaceOnUse" markerWidth="11.5" markerHeight="14" orient="auto"><polygon points="0,7 11.5,14 11.5,0" class="arrowMarkerPath" style="stroke-width: 0; stroke-dasharray: 1, 0;"/></marker><marker id="my-svg_flowchart-v2-circleEnd" class="marker flowchart-v2" viewBox="0 0 10 10" refX="11" refY="5" markerUnits="userSpaceOnUse" markerWidth="11" markerHeight="11" orient="auto"><circle cx="5" cy="5" r="5" class="arrowMarkerPath" style="stroke-width: 1; stroke-dasharray: 1, 0;"/></marker><marker id="my-svg_flowchart-v2-circleStart" class="marker flowchart-v2" viewBox="0 0 10 10" refX="-1" refY="5" markerUnits="userSpaceOnUse" markerWidth="11" markerHeight="11" orient="auto"><circle cx="5" cy="5" r="5" class="arrowMarkerPath" style="stroke-width: 1; stroke-dasharray: 1, 0;"/></marker><marker id="my-svg_flowchart-v2-circleEnd-margin" class="marker flowchart-v2" viewBox="0 0 10 10" refY="5" refX="12.25" markerUnits="userSpaceOnUse" markerWidth="14" markerHeight="14" orient="auto"><circle cx="5" cy="5" r="5" class="arrowMarkerPath" style="stroke-width: 0; stroke-dasharray: 1, 0;"/></marker><marker id="my-svg_flowchart-v2-circleStart-margin" class="marker flowchart-v2" viewBox="0 0 10 10" refX="-2" refY="5" markerUnits="userSpaceOnUse" markerWidth="14" markerHeight="14" orient="auto"><circle cx="5" cy="5" r="5" class="arrowMarkerPath" style="stroke-width: 0; stroke-dasharray: 1, 0;"/></marker><marker id="my-svg_flowchart-v2-crossEnd" class="marker cross flowchart-v2" viewBox="0 0 11 11" refX="12" refY="5.2" markerUnits="userSpaceOnUse" markerWidth="11" markerHeight="11" orient="auto"><path d="M 1,1 l 9,9 M 10,1 l -9,9" class="arrowMarkerPath" style="stroke-width: 2; stroke-dasharray: 1, 0;"/></marker><marker id="my-svg_flowchart-v2-crossStart" class="marker cross flowchart-v2" viewBox="0 0 11 11" refX="-1" refY="5.2" markerUnits="userSpaceOnUse" markerWidth="11" markerHeight="11" orient="auto"><path d="M 1,1 l 9,9 M 10,1 l -9,9" class="arrowMarkerPath" style="stroke-width: 2; stroke-dasharray: 1, 0;"/></marker><marker id="my-svg_flowchart-v2-crossEnd-margin" class="marker cross flowchart-v2" viewBox="0 0 15 15" refX="17.7" refY="7.5" markerUnits="userSpaceOnUse" markerWidth="12" markerHeight="12" orient="auto"><path d="M 1,1 L 14,14 M 1,14 L 14,1" class="arrowMarkerPath" style="stroke-width: 2.5;"/></marker><marker id="my-svg_flowchart-v2-crossStart-margin" class="marker cross flowchart-v2" viewBox="0 0 15 15" refX="-3.5" refY="7.5" markerUnits="userSpaceOnUse" markerWidth="12" markerHeight="12" orient="auto"><path d="M 1,1 L 14,14 M 1,14 L 14,1" class="arrowMarkerPath" style="stroke-width: 2.5; stroke-dasharray: 1, 0;"/></marker><g class="root"><g class="clusters"/><g class="edgePaths"><path d="M191.738,40.5L191.655,44.583C191.572,48.667,191.405,56.833,191.322,64.417C191.238,72,191.238,79,191.238,82.5L191.238,86" id="my-svg-L_A_B_0" class="edge-thickness-normal edge-pattern-solid edge-thickness-normal edge-pattern-solid flowchart-link" style=";" data-edge="true" data-et="edge" data-id="L_A_B_0" data-points="W3sieCI6MTkxLjczODI4MTI1LCJ5Ijo0MC41MDAwMDAwMDAwMDAwMX0seyJ4IjoxOTEuMjM4MjgxMjUsInkiOjY1fSx7IngiOjE5MS4yMzgyODEyNSwieSI6OTB9XQ==" data-look="classic" marker-end="url(#my-svg_flowchart-v2-pointEnd)"/><path d="M191.238,137L191.238,141.167C191.238,145.333,191.238,153.667,191.238,161.333C191.238,169,191.238,176,191.238,179.5L191.238,183" id="my-svg-L_B_C_0" class="edge-thickness-normal edge-pattern-solid edge-thickness-normal edge-pattern-solid flowchart-link" style=";" data-edge="true" data-et="edge" data-id="L_B_C_0" data-points="W3sieCI6MTkxLjIzODI4MTI1LCJ5IjoxMzd9LHsieCI6MTkxLjIzODI4MTI1LCJ5IjoxNjJ9LHsieCI6MTkxLjIzODI4MTI1LCJ5IjoxODd9XQ==" data-look="classic" marker-end="url(#my-svg_flowchart-v2-pointEnd)"/><path d="M223.123,324.045L229.933,335.276C236.743,346.507,250.364,368.968,257.174,390.032C263.984,411.096,263.984,430.763,263.984,448.68C263.984,466.596,263.984,482.763,263.984,508.106C263.984,533.449,263.984,567.968,263.984,604.238C263.984,640.507,263.984,678.526,263.984,708.836C263.984,739.145,263.984,761.745,263.984,782.595C263.984,803.445,263.984,822.545,263.984,844.772C263.984,866.998,263.984,892.351,263.984,905.027L263.984,917.703" id="my-svg-L_C_D_0" class="edge-thickness-normal edge-pattern-solid edge-thickness-normal edge-pattern-solid flowchart-link" style=";" data-edge="true" data-et="edge" data-id="L_C_D_0" data-points="W3sieCI6MjIzLjEyMjc1ODE4NTkxMTM1LCJ5IjozMjQuMDQ1MjEwNTY0MDg4N30seyJ4IjoyNjMuOTg0Mzc1LCJ5IjozOTEuNDI5Njg3NX0seyJ4IjoyNjMuOTg0Mzc1LCJ5Ijo0NTAuNDI5Njg3NX0seyJ4IjoyNjMuOTg0Mzc1LCJ5Ijo0OTguOTI5Njg3NX0seyJ4IjoyNjMuOTg0Mzc1LCJ5Ijo2MDIuNDg3NTAzMDUxNzU3OH0seyJ4IjoyNjMuOTg0Mzc1LCJ5Ijo3MTYuNTQ1MzE4NjAzNTE1Nn0seyJ4IjoyNjMuOTg0Mzc1LCJ5Ijo3ODQuMzQ1MzE3ODQwNTc2Mn0seyJ4IjoyNjMuOTg0Mzc1LCJ5Ijo4NDEuNjQ1MzE3MDc3NjM2N30seyJ4IjoyNjMuOTg0Mzc1LCJ5Ijo5MjEuNzAzMTMyNjI5Mzk0NX1d" data-look="classic" marker-end="url(#my-svg_flowchart-v2-pointEnd)"/><path d="M263.984,968.703L263.984,983.796C263.984,998.889,263.984,1029.075,267.167,1049.512C270.349,1069.949,276.714,1080.636,279.896,1085.98L283.078,1091.324" id="my-svg-L_D_E_0" class="edge-thickness-normal edge-pattern-solid edge-thickness-normal edge-pattern-solid flowchart-link" style=";" data-edge="true" data-et="edge" data-id="L_D_E_0" data-points="W3sieCI6MjYzLjk4NDM3NSwieSI6OTY4LjcwMzEzMjYyOTM5NDV9LHsieCI6MjYzLjk4NDM3NSwieSI6MTA1OS4yNjA5NDgxODExNTIzfSx7IngiOjI4NS4xMjQ2Nzc1OTc3Njk1LCJ5IjoxMDk0Ljc2MDk0ODE4MTE1MjN9XQ==" data-look="classic" marker-end="url(#my-svg_flowchart-v2-pointEnd)"/><path d="M159.354,324.045L152.544,335.276C145.733,346.507,132.113,368.968,125.302,385.449C118.492,401.93,118.492,412.43,118.492,417.68L118.492,422.93" id="my-svg-L_C_F_0" class="edge-thickness-normal edge-pattern-solid edge-thickness-normal edge-pattern-solid flowchart-link" style=";" data-edge="true" data-et="edge" data-id="L_C_F_0" data-points="W3sieCI6MTU5LjM1MzgwNDMxNDA4ODY1LCJ5IjozMjQuMDQ1MjEwNTY0MDg4N30seyJ4IjoxMTguNDkyMTg3NSwieSI6MzkxLjQyOTY4NzV9LHsieCI6MTE4LjQ5MjE4NzUsInkiOjQyNi45Mjk2ODc1fV0=" data-look="classic" marker-end="url(#my-svg_flowchart-v2-pointEnd)"/><path d="M118.492,473.93L118.492,478.096C118.492,482.263,118.492,490.596,118.492,498.263C118.492,505.93,118.492,512.93,118.492,516.43L118.492,519.93" id="my-svg-L_F_G_0" class="edge-thickness-normal edge-pattern-solid edge-thickness-normal edge-pattern-solid flowchart-link" style=";" data-edge="true" data-et="edge" data-id="L_F_G_0" data-points="W3sieCI6MTE4LjQ5MjE4NzUsInkiOjQ3My45Mjk2ODc1fSx7IngiOjExOC40OTIxODc1LCJ5Ijo0OTguOTI5Njg3NX0seyJ4IjoxMTguNDkyMTg3NSwieSI6NTIzLjkyOTY4NzV9XQ==" data-look="classic" marker-end="url(#my-svg_flowchart-v2-pointEnd)"/><path d="M118.492,681.045L118.492,686.962C118.492,692.879,118.492,704.712,118.492,715.879C118.492,727.045,118.492,737.545,118.492,742.795L118.492,748.045" id="my-svg-L_G_H_0" class="edge-thickness-normal edge-pattern-solid edge-thickness-normal edge-pattern-solid flowchart-link" style=";" data-edge="true" data-et="edge" data-id="L_G_H_0" data-points="W3sieCI6MTE4LjQ5MjE4NzQ5OTk5OTk5LCJ5Ijo2ODEuMDQ1MzE4NjAzNTE1NX0seyJ4IjoxMTguNDkyMTg3NSwieSI6NzE2LjU0NTMxODYwMzUxNTZ9LHsieCI6MTE4LjQ5MjE4NzUsInkiOjc1Mi4wNDUzMTg2MDM1MTU2fV0=" data-look="classic" marker-end="url(#my-svg_flowchart-v2-pointEnd)"/><path d="M180.639,618.898L242.27,635.173C303.901,651.447,427.163,683.996,488.794,705.521C550.425,727.045,550.425,737.545,550.425,742.795L550.425,748.045" id="my-svg-L_G_I_0" class="edge-thickness-normal edge-pattern-solid edge-thickness-normal edge-pattern-solid flowchart-link" style=";" data-edge="true" data-et="edge" data-id="L_G_I_0" data-points="W3sieCI6MTgwLjYzOTIzMzQ1MTUwNjkzLCJ5Ijo2MTguODk4MjcyNjUyMDA4N30seyJ4Ijo1NTAuNDI1MzkyMTUwODc4OSwieSI6NzE2LjU0NTMxODYwMzUxNTZ9LHsieCI6NTUwLjQyNTM5MjE1MDg3ODksInkiOjc1Mi4wNDUzMTg2MDM1MTU2fV0=" data-look="classic" marker-end="url(#my-svg_flowchart-v2-pointEnd)"/><path d="M550.425,816.645L550.425,820.812C550.425,824.979,550.425,833.312,550.425,840.979C550.425,848.645,550.425,855.645,550.425,859.145L550.425,862.645" id="my-svg-L_I_J_0" class="edge-thickness-normal edge-pattern-solid edge-thickness-normal edge-pattern-solid flowchart-link" style=";" data-edge="true" data-et="edge" data-id="L_I_J_0" data-points="W3sieCI6NTUwLjQyNTM5MjE1MDg3ODksInkiOjgxNi42NDUzMTcwNzc2MzY3fSx7IngiOjU1MC40MjUzOTIxNTA4Nzg5LCJ5Ijo4NDEuNjQ1MzE3MDc3NjM2N30seyJ4Ijo1NTAuNDI1MzkyMTUwODc4OSwieSI6ODY2LjY0NTMxNzA3NzYzNTl9XQ==" data-look="classic" marker-end="url(#my-svg_flowchart-v2-pointEnd)"/><path d="M573.66,1000.526L577.771,1010.315C581.883,1020.104,590.105,1039.683,594.216,1054.722C598.328,1069.761,598.328,1080.261,598.328,1085.511L598.328,1090.761" id="my-svg-L_J_K_0" class="edge-thickness-normal edge-pattern-solid edge-thickness-normal edge-pattern-solid flowchart-link" style=";" data-edge="true" data-et="edge" data-id="L_J_K_0" data-points="W3sieCI6NTczLjY2MDE0MDEzNDc4NCwieSI6MTAwMC41MjYyMDAxOTcyNDY2fSx7IngiOjU5OC4zMjc3MzU5MDA4Nzg5LCJ5IjoxMDU5LjI2MDk0ODE4MTE1MjN9LHsieCI6NTk4LjMyNzczNTkwMDg3ODksInkiOjEwOTQuNzYwOTQ4MTgxMTUyM31d" data-look="classic" marker-end="url(#my-svg_flowchart-v2-pointEnd)"/><path d="M508.725,982.061L494.168,994.928C479.611,1007.794,450.497,1033.528,426.304,1051.977C402.112,1070.426,382.841,1081.591,373.206,1087.173L363.57,1092.756" id="my-svg-L_J_E_0" class="edge-thickness-normal edge-pattern-solid edge-thickness-normal edge-pattern-solid flowchart-link" style=";" data-edge="true" data-et="edge" data-id="L_J_E_0" data-points="W3sieCI6NTA4LjcyNTI2NDUwMDQwNDc2LCJ5Ijo5ODIuMDYwODIwNTMwNjc4MX0seyJ4Ijo0MjEuMzgyNDIzNDAwODc4OSwieSI6MTA1OS4yNjA5NDgxODExNTIzfSx7IngiOjM2MC4xMDkyOTI2NDg5Nzc5LCJ5IjoxMDk0Ljc2MDk0ODE4MTE1MjN9XQ==" data-look="classic" marker-end="url(#my-svg_flowchart-v2-pointEnd)"/></g><g class="edgeLabels"><g class="edgeLabel"><g class="label" data-id="L_A_B_0" transform="translate(0, 0)"><text y="-10.1" text-anchor="middle"><tspan class="text-outer-tspan row" x="0" y="-0.1em" dy="1.1em" text-anchor="middle"/></text></g></g><g><rect class="background" style="stroke: none"/></g><g class="edgeLabel"><g class="label" data-id="L_B_C_0" transform="translate(0, 0)"><text y="-10.1" text-anchor="middle"><tspan class="text-outer-tspan row" x="0" y="-0.1em" dy="1.1em" text-anchor="middle"/></text></g></g><g><rect class="background" style="stroke: none"/></g><g class="edgeLabel" transform="translate(263.984375, 602.4875030517578)"><g class="label" data-id="L_C_D_0" transform="translate(-0.05078125, -10.5)"><g><rect class="background" style="" x="-12.2265625" y="0" width="24.5546875" height="21"/><text y="-10.1" text-anchor="middle" style=""><tspan class="text-outer-tspan row" x="0" y="-0.1em" dy="1.1em" text-anchor="middle"><tspan font-style="normal" class="text-inner-tspan" font-weight="normal">No</tspan></tspan></text></g></g></g><g class="edgeLabel"><g class="label" data-id="L_D_E_0" transform="translate(0, 0)"><text y="-10.1" text-anchor="middle"><tspan class="text-outer-tspan row" x="0" y="-0.1em" dy="1.1em" text-anchor="middle"/></text></g></g><g><rect class="background" style="stroke: none"/></g><g class="edgeLabel" transform="translate(118.4921875, 391.4296875)"><g class="label" data-id="L_C_F_0" transform="translate(0, -10.5)"><g><rect class="background" style="" x="-15.0546875" y="0" width="30.109375" height="21"/><text y="-10.1" text-anchor="middle" style=""><tspan class="text-outer-tspan row" x="0" y="-0.1em" dy="1.1em" text-anchor="middle"><tspan font-style="normal" class="text-inner-tspan" font-weight="normal">Yes</tspan></tspan></text></g></g></g><g class="edgeLabel"><g class="label" data-id="L_F_G_0" transform="translate(0, 0)"><text y="-10.1" text-anchor="middle"><tspan class="text-outer-tspan row" x="0" y="-0.1em" dy="1.1em" text-anchor="middle"/></text></g></g><g><rect class="background" style="stroke: none"/></g><g class="edgeLabel" transform="translate(118.4921875, 716.5453186035156)"><g class="label" data-id="L_G_H_0" transform="translate(0, -10.5)"><g><rect class="background" style="" x="-15.0546875" y="0" width="30.109375" height="21"/><text y="-10.1" text-anchor="middle" style=""><tspan class="text-outer-tspan row" x="0" y="-0.1em" dy="1.1em" text-anchor="middle"><tspan font-style="normal" class="text-inner-tspan" font-weight="normal">Yes</tspan></tspan></text></g></g></g><g class="edgeLabel" transform="translate(550.4253921508789, 716.5453186035156)"><g class="label" data-id="L_G_I_0" transform="translate(-0.046875, -10.5)"><g><rect class="background" style="" x="-60.703125" y="0" width="121.5" height="21"/><text y="-10.1" text-anchor="middle" style=""><tspan class="text-outer-tspan row" x="0" y="-0.1em" dy="1.1em" text-anchor="middle"><tspan font-style="normal" class="text-inner-tspan" font-weight="normal">No</tspan><tspan font-style="normal" class="text-inner-tspan" font-weight="normal"> /</tspan><tspan font-style="normal" class="text-inner-tspan" font-weight="normal"> Unavailable</tspan></tspan></text></g></g></g><g class="edgeLabel"><g class="label" data-id="L_I_J_0" transform="translate(0, 0)"><text y="-10.1" text-anchor="middle"><tspan class="text-outer-tspan row" x="0" y="-0.1em" dy="1.1em" text-anchor="middle"/></text></g></g><g><rect class="background" style="stroke: none"/></g><g class="edgeLabel" transform="translate(598.3277359008789, 1059.2609481811523)"><g class="label" data-id="L_J_K_0" transform="translate(0, -10.5)"><g><rect class="background" style="" x="-15.0546875" y="0" width="30.109375" height="21"/><text y="-10.1" text-anchor="middle" style=""><tspan class="text-outer-tspan row" x="0" y="-0.1em" dy="1.1em" text-anchor="middle"><tspan font-style="normal" class="text-inner-tspan" font-weight="normal">Yes</tspan></tspan></text></g></g></g><g class="edgeLabel" transform="translate(438.52431, 1044.10967)"><g class="label" data-id="L_J_E_0" transform="translate(-0.046875, -10.5)"><g><rect class="background" style="" x="-60.703125" y="0" width="121.5" height="21"/><text y="-10.1" text-anchor="middle" style=""><tspan class="text-outer-tspan row" x="0" y="-0.1em" dy="1.1em" text-anchor="middle"><tspan font-style="normal" class="text-inner-tspan" font-weight="normal">No</tspan><tspan font-style="normal" class="text-inner-tspan" font-weight="normal"> /</tspan><tspan font-style="normal" class="text-inner-tspan" font-weight="normal"> Unavailable</tspan></tspan></text></g></g></g></g><g class="nodes"><g class="node default" id="my-svg-flowchart-A-0" data-look="classic" transform="translate(191.23828125, 24)"><g class="basic label-container outer-path"><path d="M-43.53125 -16 C-17.26507739114105 -16, 9.001095217717904 -16, 43.53125 -16 C43.53125 -16, 43.53125 -16, 43.53125 -16 C43.83396699798858 -15.990292455077398, 44.136683995977165 -15.980584910154796, 44.556373519691405 -15.967126284005381 C44.949617999084865 -15.929190462023975, 45.342862478478324 -15.89125464004257, 45.577284586952096 -15.868640221171939 C45.802161726231404 -15.832283829241522, 46.02703886551071 -15.795927437311104, 46.58978805922195 -15.704946511857047 C46.938754569740766 -15.625297183050426, 47.28772108025958 -15.545647854243805, 47.58972334255211 -15.476717808624471 C47.90357333575074 -15.38356877807535, 48.21742332894937 -15.290419747526231, 48.572981488377934 -15.184891952170698 C48.877584656170015 -15.072795170702397, 49.18218782396209 -14.960698389234095, 49.53552207806999 -14.830668117536348 C49.85957835113024 -14.687218018240374, 50.18363462419048 -14.543767918944399, 50.47338982588093 -14.415501886438706 C50.68133780873501 -14.307015556980772, 50.889285791589096 -14.198529227522839, 51.382730832063004 -13.941099265974232 C51.5707777782259 -13.827104102123762, 51.75882472438881 -13.713108938273292, 52.25980841936878 -13.409409678269451 C52.59307571828455 -13.176936837454654, 52.92634301720033 -12.94446399663986, 53.101018487859456 -12.822617949887306 C53.314471073366505 -12.652395193157286, 53.52792365887356 -12.482172436427266, 53.90290432492461 -12.183135333906153 C54.17221671844186 -11.938552943729249, 54.441529111959106 -11.693970553552345, 54.662170809655784 -11.493589601563642 C54.87577607570844 -11.273024627045784, 55.08938134176109 -11.052459652527928, 55.37569795320505 -10.756814244181072 C55.54341292010218 -10.559806700811736, 55.711127886999314 -10.362799157442398, 56.04055371948848 -9.975836829739738 C56.25864159146546 -9.68361894950444, 56.476729463442446 -9.391401069269142, 56.65400607355129 -9.153866561954718 C56.81853928275026 -8.90109936927217, 56.98307249194924 -8.648332176589623, 57.213534208085534 -8.294281092968403 C57.36001105883092 -8.03419661208047, 57.5064879095763 -7.774112131192536, 57.716838901968 -7.400612643853364 C57.839511012143866 -7.145881382310509, 57.96218312231972 -6.891150120767653, 58.161851968252996 -6.476533489958305 C58.30420608780931 -6.124916062424529, 58.446560207365636 -5.773298634890754, 58.546744752796165 -5.52584087074093 C58.65921055228538 -5.187111801671127, 58.77167635177459 -4.848382732601324, 58.86993564858657 -4.552441386096524 C58.966446975262514 -4.184401869207582, 59.06295830193845 -3.81636235231864, 59.130096594909176 -3.560334943301032 C59.18604774225981 -3.273037626934706, 59.24199888961045 -2.9857403105683797, 59.326158534631205 -2.5535983205340735 C59.376819466885195 -2.160682134104756, 59.42748039913918 -1.7677659476754386, 59.45731580718717 -1.536368414522911 C59.47650687403627 -1.237452057597921, 59.49569794088536 -0.9385357006729312, 59.523029459211 -0.5128252411464826 C59.523029459211 -0.2379923947155927, 59.523029459211 0.03684045171529726, 59.523029459211 0.5128252411464788 C59.50036982754545 0.8657672948630012, 59.477710195879894 1.2187093485795235, 59.45731580718717 1.5363684145229002 C59.4079023964955 1.9196090700659019, 59.358488985803824 2.3028497256089038, 59.326158534631205 2.5535983205340624 C59.26224224078552 2.8817949807181686, 59.19832594693983 3.209991640902275, 59.130096594909176 3.5603349433010285 C59.06549860661556 3.806675069609794, 59.00090061832196 4.05301519591856, 58.86993564858657 4.552441386096513 C58.75548318256832 4.897153978219465, 58.64103071655006 5.241866570342417, 58.546744752796165 5.525840870740919 C58.40230654460804 5.882606037488374, 58.25786833641992 6.239371204235829, 58.161851968253 6.4765334899583005 C58.06438643549435 6.678922754159971, 57.966920902735694 6.881312018361641, 57.716838901968 7.400612643853361 C57.56590297305059 7.6686146695663595, 57.41496704413318 7.936616695279359, 57.21353420808554 8.294281092968399 C56.99678963527022 8.627258960879871, 56.7800450624549 8.960236828791343, 56.6540060735513 9.15386656195471 C56.52654250448649 9.324656132331521, 56.39907893542169 9.49544570270833, 56.04055371948848 9.975836829739734 C55.89204974837235 10.150278044328074, 55.74354577725623 10.324719258916412, 55.375697953205055 10.756814244181063 C55.15080305134803 10.989036694563277, 54.92590814949099 11.221259144945488, 54.662170809655784 11.493589601563638 C54.38154409300733 11.74844736064772, 54.10091737635888 12.0033051197318, 53.90290432492463 12.183135333906142 C53.69810223774871 12.346459548416515, 53.49330015057278 12.509783762926888, 53.10101848785946 12.822617949887304 C52.80824131241339 13.026846633358835, 52.5154641369673 13.231075316830365, 52.25980841936879 13.409409678269446 C52.07194038633258 13.523296383931104, 51.884072353296375 13.63718308959276, 51.382730832063004 13.94109926597423 C51.09382297392663 14.091822310509663, 50.80491511579025 14.242545355045094, 50.47338982588093 14.415501886438705 C50.23675653608316 14.520252424355037, 50.0001232462854 14.62500296227137, 49.535522078069995 14.830668117536346 C49.22022463659794 14.94670049057566, 48.90492719512589 15.062732863614974, 48.57298148837794 15.184891952170695 C48.31068813693541 15.26273924207294, 48.04839478549289 15.340586531975186, 47.58972334255213 15.476717808624468 C47.204144388317566 15.564723688790686, 46.818565434083006 15.652729568956904, 46.58978805922196 15.704946511857045 C46.22307951536558 15.764233105360514, 45.8563709715092 15.823519698863983, 45.5772845869521 15.868640221171937 C45.26767330821203 15.89850804886995, 44.95806202947197 15.928375876567964, 44.556373519691405 15.967126284005381 C44.3431348154136 15.973964434207613, 44.1298961111358 15.980802584409842, 43.53125 16 C43.53125 16, 43.53125 16, 43.53125 16 C11.445974182059238 16, -20.639301635881523 16, -43.53125 16 C-43.93003708732075 15.9872116743016, -44.32882417464149 15.974423348603201, -44.5563735196914 15.967126284005381 C-44.800386539751635 15.943586641428762, -45.044399559811865 15.920046998852145, -45.577284586952096 15.868640221171937 C-45.84085106143514 15.826028837566055, -46.10441753591819 15.783417453960174, -46.58978805922196 15.704946511857045 C-46.88998956476311 15.636427477215179, -47.19019107030426 15.567908442573312, -47.58972334255211 15.476717808624471 C-47.85337326814045 15.398467894636552, -48.1170231937288 15.320217980648632, -48.57298148837792 15.184891952170702 C-48.8981714677438 15.065219033740842, -49.22336144710968 14.94554611531098, -49.53552207806999 14.830668117536348 C-49.746376757727326 14.737329005633883, -49.957231437384664 14.643989893731419, -50.47338982588093 14.415501886438708 C-50.67394812334561 14.310870751115104, -50.87450642081029 14.2062396157915, -51.382730832063 13.941099265974234 C-51.58252565593396 13.81998246961894, -51.78232047980494 13.698865673263647, -52.25980841936877 13.409409678269457 C-52.53539694341535 13.217171053929489, -52.81098546746193 13.024932429589521, -53.101018487859456 12.822617949887308 C-53.379418323506385 12.60060148948965, -53.65781815915331 12.37858502909199, -53.90290432492461 12.183135333906154 C-54.13613821858714 11.97131848271251, -54.36937211224967 11.759501631518868, -54.66217080965578 11.493589601563649 C-54.820323197663775 11.330284276392856, -54.978475585671774 11.166978951222063, -55.37569795320505 10.756814244181069 C-55.52932505850133 10.576355104670123, -55.682952163797616 10.395895965159177, -56.04055371948847 9.97583682973974 C-56.231299718817105 9.72025456795739, -56.422045718145746 9.464672306175043, -56.65400607355129 9.15386656195472 C-56.874623347123126 8.81493918571548, -57.095240620694966 8.476011809476237, -57.213534208085534 8.29428109296841 C-57.323775402828936 8.098536688570045, -57.43401659757234 7.902792284171679, -57.716838901968 7.400612643853366 C-57.862913717313305 7.097285164288485, -58.00898853265861 6.793957684723605, -58.161851968252996 6.476533489958307 C-58.24232286649728 6.277768815495952, -58.32279376474156 6.079004141033597, -58.546744752796165 5.525840870740931 C-58.64911692171533 5.217512208746471, -58.75148909063449 4.909183546752011, -58.86993564858657 4.552441386096519 C-58.95539618072914 4.226543338207978, -59.04085671287171 3.9006452903194364, -59.130096594909176 3.5603349433010343 C-59.174617246093845 3.3317308089107227, -59.219137897278515 3.1031266745204116, -59.326158534631205 2.5535983205340753 C-59.35619041717466 2.3206769699930185, -59.38622229971811 2.0877556194519618, -59.45731580718717 1.5363684145229202 C-59.48177857010782 1.155341136046988, -59.50624133302847 0.7743138575710561, -59.523029459211 0.5128252411464846 C-59.523029459211 0.12689361811617844, -59.523029459211 -0.25903800491412776, -59.523029459211 -0.5128252411464769 C-59.50371519718021 -0.8136604624676984, -59.48440093514943 -1.11449568378892, -59.45731580718717 -1.5363684145228982 C-59.40554961993324 -1.9378567404744786, -59.353783432679315 -2.339345066426059, -59.326158534631205 -2.5535983205340678 C-59.253348591949496 -2.92746198781778, -59.180538649267795 -3.301325655101492, -59.130096594909176 -3.5603349433010267 C-59.0273297833012 -3.9522293353801383, -58.92456297169323 -4.34412372745925, -58.869935648586576 -4.552441386096511 C-58.76071248505445 -4.881404152307458, -58.65148932152232 -5.210366918518405, -58.54674475279617 -5.525840870740911 C-58.421260845376246 -5.835788548134435, -58.29577693795632 -6.1457362255279575, -58.161851968253 -6.476533489958299 C-58.005361285099305 -6.8014897418911815, -57.8488706019456 -7.126445993824064, -57.716838901968 -7.400612643853359 C-57.56657257552174 -7.667425722574231, -57.416306249075475 -7.934238801295103, -57.213534208085534 -8.294281092968404 C-57.00333224394755 -8.617207757015068, -56.79313027980956 -8.940134421061732, -56.654006073551294 -9.153866561954715 C-56.438475003146294 -9.442658561012967, -56.22294393274129 -9.73145056007122, -56.04055371948848 -9.975836829739734 C-55.79509151287938 -10.26417070481801, -55.54962930627028 -10.552504579896288, -55.375697953205055 -10.756814244181063 C-55.17688612145809 -10.962103783214754, -54.978074289711124 -11.167393322248447, -54.66217080965579 -11.493589601563633 C-54.443990122349575 -11.691735529030492, -54.22580943504335 -11.889881456497351, -53.90290432492463 -12.18313533390614 C-53.650166020126996 -12.3846874063335, -53.39742771532937 -12.58623947876086, -53.10101848785946 -12.822617949887302 C-52.855016890982775 -12.994218014630986, -52.60901529410609 -13.16581807937467, -52.25980841936879 -13.409409678269444 C-51.96717756400393 -13.586804222481407, -51.67454670863908 -13.76419876669337, -51.382730832063004 -13.941099265974229 C-51.11398762149385 -14.081302426789915, -50.8452444109247 -14.221505587605602, -50.473389825880936 -14.415501886438705 C-50.14329917875488 -14.561623224130264, -49.81320853162883 -14.707744561821823, -49.535522078069995 -14.830668117536344 C-49.255355973776375 -14.933771833743476, -48.97518986948275 -15.036875549950606, -48.57298148837794 -15.184891952170695 C-48.351825960572384 -15.25052975195433, -48.13067043276682 -15.316167551737967, -47.58972334255213 -15.476717808624466 C-47.329469184555116 -15.536119121870188, -47.069215026558105 -15.59552043511591, -46.589788059221966 -15.704946511857043 C-46.32694482890715 -15.747440966954649, -46.06410159859234 -15.789935422052254, -45.5772845869521 -15.868640221171937 C-45.345400241717634 -15.89100982507498, -45.11351589648317 -15.913379428978022, -44.556373519691405 -15.967126284005381 C-44.22562744263575 -15.977732666938373, -43.89488136558009 -15.988339049871362, -43.53125000000001 -16 C-43.53125000000001 -16, -43.53125 -16, -43.53125 -16" stroke="none" stroke-width="0" fill="#eee" style=""/><path d="M-43.53125 -16 C-18.68627851110229 -16, 6.158692977795418 -16, 43.53125 -16 M-43.53125 -16 C-15.371955528112114 -16, 12.787338943775772 -16, 43.53125 -16 M43.53125 -16 C43.53125 -16, 43.53125 -16, 43.53125 -16 M43.53125 -16 C43.53125 -16, 43.53125 -16, 43.53125 -16 M43.53125 -16 C43.85658695808418 -15.989567076984214, 44.181923916168365 -15.979134153968428, 44.556373519691405 -15.967126284005381 M43.53125 -16 C43.776318194924166 -15.992141139985085, 44.02138638984833 -15.984282279970172, 44.556373519691405 -15.967126284005381 M44.556373519691405 -15.967126284005381 C44.87865281666772 -15.93603638782364, 45.20093211364403 -15.904946491641896, 45.577284586952096 -15.868640221171939 M44.556373519691405 -15.967126284005381 C44.87649769542133 -15.936244289778365, 45.19662187115126 -15.905362295551349, 45.577284586952096 -15.868640221171939 M45.577284586952096 -15.868640221171939 C45.8968458616944 -15.816976032506302, 46.2164071364367 -15.765311843840664, 46.58978805922195 -15.704946511857047 M45.577284586952096 -15.868640221171939 C45.94738913860727 -15.808804587463994, 46.31749369026245 -15.74896895375605, 46.58978805922195 -15.704946511857047 M46.58978805922195 -15.704946511857047 C46.965524310894324 -15.619187164321012, 47.341260562566696 -15.533427816784979, 47.58972334255211 -15.476717808624471 M46.58978805922195 -15.704946511857047 C46.82666981082212 -15.6508797978522, 47.06355156242228 -15.596813083847355, 47.58972334255211 -15.476717808624471 M47.58972334255211 -15.476717808624471 C47.951552560652885 -15.369328795972486, 48.31338177875366 -15.2619397833205, 48.572981488377934 -15.184891952170698 M47.58972334255211 -15.476717808624471 C47.96714763812046 -15.364700258840342, 48.344571933688805 -15.252682709056213, 48.572981488377934 -15.184891952170698 M48.572981488377934 -15.184891952170698 C48.94704198751286 -15.047234230711696, 49.32110248664779 -14.909576509252695, 49.53552207806999 -14.830668117536348 M48.572981488377934 -15.184891952170698 C48.85428653035545 -15.08136909636767, 49.13559157233296 -14.977846240564642, 49.53552207806999 -14.830668117536348 M49.53552207806999 -14.830668117536348 C49.781688548564034 -14.721697523317529, 50.02785501905809 -14.612726929098711, 50.47338982588093 -14.415501886438706 M49.53552207806999 -14.830668117536348 C49.812746976117964 -14.707948878754927, 50.08997187416594 -14.585229639973504, 50.47338982588093 -14.415501886438706 M50.47338982588093 -14.415501886438706 C50.79817131626792 -14.24606359093629, 51.1229528066549 -14.076625295433871, 51.382730832063004 -13.941099265974232 M50.47338982588093 -14.415501886438706 C50.7726007308276 -14.259403748981759, 51.071811635774274 -14.103305611524814, 51.382730832063004 -13.941099265974232 M51.382730832063004 -13.941099265974232 C51.649502778064544 -13.779380544582127, 51.91627472406609 -13.617661823190021, 52.25980841936878 -13.409409678269451 M51.382730832063004 -13.941099265974232 C51.57032302928688 -13.827379773603, 51.757915226510754 -13.713660281231771, 52.25980841936878 -13.409409678269451 M52.25980841936878 -13.409409678269451 C52.595911467225896 -13.174958741750768, 52.93201451508302 -12.940507805232084, 53.101018487859456 -12.822617949887306 M52.25980841936878 -13.409409678269451 C52.54961248044949 -13.207254910675154, 52.839416541530206 -13.005100143080856, 53.101018487859456 -12.822617949887306 M53.101018487859456 -12.822617949887306 C53.29773627250375 -12.665740751513583, 53.49445405714804 -12.50886355313986, 53.90290432492461 -12.183135333906153 M53.101018487859456 -12.822617949887306 C53.33369630348406 -12.637063583743398, 53.56637411910866 -12.451509217599492, 53.90290432492461 -12.183135333906153 M53.90290432492461 -12.183135333906153 C54.143490755201185 -11.964641103497096, 54.38407718547775 -11.746146873088037, 54.662170809655784 -11.493589601563642 M53.90290432492461 -12.183135333906153 C54.13855118470589 -11.96912709072705, 54.37419804448716 -11.755118847547946, 54.662170809655784 -11.493589601563642 M54.662170809655784 -11.493589601563642 C54.84947078283428 -11.300187001643064, 55.03677075601277 -11.106784401722487, 55.37569795320505 -10.756814244181072 M54.662170809655784 -11.493589601563642 C54.84302617647403 -11.306841586822046, 55.02388154329227 -11.12009357208045, 55.37569795320505 -10.756814244181072 M55.37569795320505 -10.756814244181072 C55.60121699305527 -10.491906747576115, 55.82673603290548 -10.226999250971156, 56.04055371948848 -9.975836829739738 M55.37569795320505 -10.756814244181072 C55.62181729202507 -10.467708464215958, 55.8679366308451 -10.178602684250844, 56.04055371948848 -9.975836829739738 M56.04055371948848 -9.975836829739738 C56.25664584867979 -9.68629306302134, 56.47273797787109 -9.396749296302943, 56.65400607355129 -9.153866561954718 M56.04055371948848 -9.975836829739738 C56.276555184906606 -9.659616366255246, 56.512556650324726 -9.343395902770755, 56.65400607355129 -9.153866561954718 M56.65400607355129 -9.153866561954718 C56.80136086131382 -8.927490037650596, 56.94871564907634 -8.701113513346474, 57.213534208085534 -8.294281092968403 M56.65400607355129 -9.153866561954718 C56.87064515322756 -8.821050759833707, 57.08728423290382 -8.488234957712697, 57.213534208085534 -8.294281092968403 M57.213534208085534 -8.294281092968403 C57.3865458743565 -7.987081360173368, 57.55955754062746 -7.679881627378334, 57.716838901968 -7.400612643853364 M57.213534208085534 -8.294281092968403 C57.368058341820785 -8.019907846256201, 57.52258247555603 -7.745534599543999, 57.716838901968 -7.400612643853364 M57.716838901968 -7.400612643853364 C57.80743202974047 -7.212494075651423, 57.89802515751294 -7.0243755074494825, 58.161851968252996 -6.476533489958305 M57.716838901968 -7.400612643853364 C57.85052066673173 -7.123019598989924, 57.98420243149547 -6.845426554126483, 58.161851968252996 -6.476533489958305 M58.161851968252996 -6.476533489958305 C58.263046387167414 -6.226581318778706, 58.36424080608183 -5.976629147599107, 58.546744752796165 -5.52584087074093 M58.161851968252996 -6.476533489958305 C58.263003267123324 -6.226687826121279, 58.36415456599365 -5.976842162284253, 58.546744752796165 -5.52584087074093 M58.546744752796165 -5.52584087074093 C58.67394297207186 -5.142740100566542, 58.80114119134757 -4.7596393303921545, 58.86993564858657 -4.552441386096524 M58.546744752796165 -5.52584087074093 C58.666073365619106 -5.166442101350751, 58.785401978442046 -4.807043331960571, 58.86993564858657 -4.552441386096524 M58.86993564858657 -4.552441386096524 C58.936197035573464 -4.299757999648702, 59.002458422560366 -4.047074613200881, 59.130096594909176 -3.560334943301032 M58.86993564858657 -4.552441386096524 C58.97372327689668 -4.156654177507434, 59.07751090520678 -3.7608669689183447, 59.130096594909176 -3.560334943301032 M59.130096594909176 -3.560334943301032 C59.20063974500406 -3.1981107768638615, 59.271182895098946 -2.835886610426691, 59.326158534631205 -2.5535983205340735 M59.130096594909176 -3.560334943301032 C59.20560211139651 -3.17263007423516, 59.281107627883834 -2.784925205169288, 59.326158534631205 -2.5535983205340735 M59.326158534631205 -2.5535983205340735 C59.376713930957 -2.161500649923391, 59.427269327282794 -1.7694029793127082, 59.45731580718717 -1.536368414522911 M59.326158534631205 -2.5535983205340735 C59.36542805039265 -2.2490317109312947, 59.40469756615409 -1.944465101328516, 59.45731580718717 -1.536368414522911 M59.45731580718717 -1.536368414522911 C59.470522274985356 -1.3306670184971916, 59.48372874278355 -1.1249656224714721, 59.523029459211 -0.5128252411464826 M59.45731580718717 -1.536368414522911 C59.48050162928008 -1.175230520167166, 59.50368745137298 -0.814092625811421, 59.523029459211 -0.5128252411464826 M59.523029459211 -0.5128252411464826 C59.523029459211 -0.12184239503495642, 59.523029459211 0.2691404510765698, 59.523029459211 0.5128252411464788 M59.523029459211 -0.5128252411464826 C59.523029459211 -0.2167977407345183, 59.523029459211 0.07922975967744605, 59.523029459211 0.5128252411464788 M59.523029459211 0.5128252411464788 C59.506449167210185 0.7710766724300732, 59.48986887520936 1.0293281037136675, 59.45731580718717 1.5363684145229002 M59.523029459211 0.5128252411464788 C59.50351592333091 0.816764313521654, 59.48400238745081 1.1207033858968294, 59.45731580718717 1.5363684145229002 M59.45731580718717 1.5363684145229002 C59.42662587548914 1.7743934643603716, 59.3959359437911 2.012418514197843, 59.326158534631205 2.5535983205340624 M59.45731580718717 1.5363684145229002 C59.411126143700855 1.8946063233420438, 59.36493648021454 2.2528442321611877, 59.326158534631205 2.5535983205340624 M59.326158534631205 2.5535983205340624 C59.276671749849335 2.80770250135329, 59.227184965067465 3.0618066821725174, 59.130096594909176 3.5603349433010285 M59.326158534631205 2.5535983205340624 C59.26193080805161 2.883394121985466, 59.197703081472014 3.21318992343687, 59.130096594909176 3.5603349433010285 M59.130096594909176 3.5603349433010285 C59.02841678183568 3.948084138860016, 58.926736968762185 4.335833334419004, 58.86993564858657 4.552441386096513 M59.130096594909176 3.5603349433010285 C59.05268420647407 3.855541931145483, 58.975271818038955 4.150748918989938, 58.86993564858657 4.552441386096513 M58.86993564858657 4.552441386096513 C58.74927630829508 4.9158480945993395, 58.62861696800359 5.279254803102165, 58.546744752796165 5.525840870740919 M58.86993564858657 4.552441386096513 C58.7619244382884 4.8777539422652945, 58.65391322799024 5.203066498434076, 58.546744752796165 5.525840870740919 M58.546744752796165 5.525840870740919 C58.40183843427013 5.883762279073304, 58.2569321157441 6.241683687405689, 58.161851968253 6.4765334899583005 M58.546744752796165 5.525840870740919 C58.455599261467945 5.750971996499812, 58.36445377013973 5.976103122258706, 58.161851968253 6.4765334899583005 M58.161851968253 6.4765334899583005 C57.99503185011735 6.822939034645703, 57.8282117319817 7.169344579333106, 57.716838901968 7.400612643853361 M58.161851968253 6.4765334899583005 C58.03011637833542 6.750085261112231, 57.898380788417846 7.023637032266162, 57.716838901968 7.400612643853361 M57.716838901968 7.400612643853361 C57.5541185438209 7.689539116966536, 57.39139818567379 7.978465590079712, 57.21353420808554 8.294281092968399 M57.716838901968 7.400612643853361 C57.602328564058524 7.603937344240726, 57.48781822614904 7.80726204462809, 57.21353420808554 8.294281092968399 M57.21353420808554 8.294281092968399 C57.043157992445714 8.556024712611013, 56.872781776805894 8.817768332253626, 56.6540060735513 9.15386656195471 M57.21353420808554 8.294281092968399 C57.04406204323502 8.554635847827008, 56.874589878384505 8.814990602685619, 56.6540060735513 9.15386656195471 M56.6540060735513 9.15386656195471 C56.47786228791338 9.389883187680528, 56.30171850227546 9.625899813406349, 56.04055371948848 9.975836829739734 M56.6540060735513 9.15386656195471 C56.4511928694171 9.42561777883154, 56.2483796652829 9.69736899570837, 56.04055371948848 9.975836829739734 M56.04055371948848 9.975836829739734 C55.78231799034494 10.279175211220984, 55.52408226120141 10.582513592702236, 55.375697953205055 10.756814244181063 M56.04055371948848 9.975836829739734 C55.85397683372308 10.195000656285323, 55.66739994795768 10.41416448283091, 55.375697953205055 10.756814244181063 M55.375697953205055 10.756814244181063 C55.123309496050325 11.017426047671018, 54.8709210388956 11.27803785116097, 54.662170809655784 11.493589601563638 M55.375697953205055 10.756814244181063 C55.229900819433745 10.90736175496724, 55.08410368566243 11.057909265753418, 54.662170809655784 11.493589601563638 M54.662170809655784 11.493589601563638 C54.40187497537704 11.72998339120522, 54.1415791410983 11.9663771808468, 53.90290432492463 12.183135333906142 M54.662170809655784 11.493589601563638 C54.424766277430784 11.709194116350673, 54.18736174520578 11.924798631137708, 53.90290432492463 12.183135333906142 M53.90290432492463 12.183135333906142 C53.672640561196715 12.366764557903057, 53.4423767974688 12.550393781899972, 53.10101848785946 12.822617949887304 M53.90290432492463 12.183135333906142 C53.64570707742526 12.388243294480693, 53.38850982992588 12.593351255055245, 53.10101848785946 12.822617949887304 M53.10101848785946 12.822617949887304 C52.888606478150635 12.970787372692483, 52.67619446844181 13.118956795497661, 52.25980841936879 13.409409678269446 M53.10101848785946 12.822617949887304 C52.86229602526873 12.989140405661745, 52.62357356267801 13.155662861436188, 52.25980841936879 13.409409678269446 M52.25980841936879 13.409409678269446 C51.94247949992712 13.60177633406671, 51.625150580485446 13.794142989863975, 51.382730832063004 13.94109926597423 M52.25980841936879 13.409409678269446 C52.004225935296475 13.564345282083476, 51.748643451224154 13.719280885897506, 51.382730832063004 13.94109926597423 M51.382730832063004 13.94109926597423 C51.094471435013986 14.091484008775748, 50.80621203796497 14.241868751577265, 50.47338982588093 14.415501886438705 M51.382730832063004 13.94109926597423 C51.089584642114716 14.094033445501154, 50.796438452166434 14.246967625028079, 50.47338982588093 14.415501886438705 M50.47338982588093 14.415501886438705 C50.184980378111284 14.543172193604033, 49.89657093034164 14.670842500769359, 49.535522078069995 14.830668117536346 M50.47338982588093 14.415501886438705 C50.20020120133124 14.536434386674236, 49.92701257678156 14.657366886909767, 49.535522078069995 14.830668117536346 M49.535522078069995 14.830668117536346 C49.174494184729774 14.963529719590808, 48.81346629138956 15.09639132164527, 48.57298148837794 15.184891952170695 M49.535522078069995 14.830668117536346 C49.29691086013945 14.918479251432705, 49.0582996422089 15.006290385329066, 48.57298148837794 15.184891952170695 M48.57298148837794 15.184891952170695 C48.18405360468772 15.300323706525832, 47.795125720997504 15.415755460880968, 47.58972334255213 15.476717808624468 M48.57298148837794 15.184891952170695 C48.22878482363991 15.28704771553978, 47.88458815890189 15.389203478908865, 47.58972334255213 15.476717808624468 M47.58972334255213 15.476717808624468 C47.29637507460272 15.543672636507575, 47.00302680665331 15.61062746439068, 46.58978805922196 15.704946511857045 M47.58972334255213 15.476717808624468 C47.2069052990404 15.564093528934825, 46.82408725552867 15.651469249245183, 46.58978805922196 15.704946511857045 M46.58978805922196 15.704946511857045 C46.33983548507578 15.745356905633837, 46.0898829109296 15.785767299410628, 45.5772845869521 15.868640221171937 M46.58978805922196 15.704946511857045 C46.28158274952365 15.754774756161193, 45.97337743982534 15.804603000465343, 45.5772845869521 15.868640221171937 M45.5772845869521 15.868640221171937 C45.229977579837225 15.902144510450523, 44.88267057272235 15.935648799729107, 44.556373519691405 15.967126284005381 M45.5772845869521 15.868640221171937 C45.27159485886462 15.89812974159485, 44.96590513077713 15.927619262017764, 44.556373519691405 15.967126284005381 M44.556373519691405 15.967126284005381 C44.177925170169864 15.979262385969513, 43.799476820648316 15.991398487933642, 43.53125 16 M44.556373519691405 15.967126284005381 C44.25202760079341 15.976886065251046, 43.94768168189541 15.98664584649671, 43.53125 16 M43.53125 16 C43.53125 16, 43.53125 16, 43.53125 16 M43.53125 16 C43.53125 16, 43.53125 16, 43.53125 16 M43.53125 16 C9.074321371825611 16, -25.382607256348777 16, -43.53125 16 M43.53125 16 C23.438131814109862 16, 3.345013628219725 16, -43.53125 16 M-43.53125 16 C-43.82087324911591 15.990712346118308, -44.110496498231825 15.981424692236617, -44.5563735196914 15.967126284005381 M-43.53125 16 C-43.88220250432159 15.988745636274016, -44.23315500864318 15.977491272548031, -44.5563735196914 15.967126284005381 M-44.5563735196914 15.967126284005381 C-44.80896677478109 15.942758916474714, -45.06156002987078 15.918391548944046, -45.577284586952096 15.868640221171937 M-44.5563735196914 15.967126284005381 C-44.82478963168852 15.941232504498624, -45.09320574368564 15.915338724991866, -45.577284586952096 15.868640221171937 M-45.577284586952096 15.868640221171937 C-45.93160364670181 15.811356663376952, -46.285922706451515 15.754073105581964, -46.58978805922196 15.704946511857045 M-45.577284586952096 15.868640221171937 C-45.94567049856287 15.80908244385812, -46.31405641017364 15.749524666544303, -46.58978805922196 15.704946511857045 M-46.58978805922196 15.704946511857045 C-46.98597178808452 15.614520161084608, -47.38215551694709 15.524093810312172, -47.58972334255211 15.476717808624471 M-46.58978805922196 15.704946511857045 C-46.90930223358563 15.632019486583381, -47.2288164079493 15.559092461309715, -47.58972334255211 15.476717808624471 M-47.58972334255211 15.476717808624471 C-47.850036089451876 15.399458351754113, -48.11034883635164 15.322198894883755, -48.57298148837792 15.184891952170702 M-47.58972334255211 15.476717808624471 C-47.81940664830383 15.408549009109636, -48.049089954055546 15.340380209594802, -48.57298148837792 15.184891952170702 M-48.57298148837792 15.184891952170702 C-48.80341144410983 15.100091598390199, -49.03384139984174 15.015291244609696, -49.53552207806999 14.830668117536348 M-48.57298148837792 15.184891952170702 C-48.923047677711594 15.056064358519528, -49.273113867045275 14.927236764868354, -49.53552207806999 14.830668117536348 M-49.53552207806999 14.830668117536348 C-49.835535769978385 14.697860955718468, -50.13554946188678 14.56505379390059, -50.47338982588093 14.415501886438708 M-49.53552207806999 14.830668117536348 C-49.87632634267034 14.679804179197088, -50.21713060727069 14.528940240857828, -50.47338982588093 14.415501886438708 M-50.47338982588093 14.415501886438708 C-50.76115017796348 14.265377495076542, -51.04891053004603 14.115253103714377, -51.382730832063 13.941099265974234 M-50.47338982588093 14.415501886438708 C-50.68800373919974 14.303537945327054, -50.90261765251856 14.1915740042154, -51.382730832063 13.941099265974234 M-51.382730832063 13.941099265974234 C-51.708861531678636 13.74339691931051, -52.03499223129427 13.545694572646786, -52.25980841936877 13.409409678269457 M-51.382730832063 13.941099265974234 C-51.59541947635253 13.812166159908708, -51.80810812064206 13.683233053843182, -52.25980841936877 13.409409678269457 M-52.25980841936877 13.409409678269457 C-52.467766588200014 13.264347062056816, -52.67572475703126 13.119284445844174, -53.101018487859456 12.822617949887308 M-52.25980841936877 13.409409678269457 C-52.49833121044273 13.243026504701472, -52.73685400151668 13.076643331133488, -53.101018487859456 12.822617949887308 M-53.101018487859456 12.822617949887308 C-53.39812481213693 12.58568356260736, -53.69523113641439 12.348749175327413, -53.90290432492461 12.183135333906154 M-53.101018487859456 12.822617949887308 C-53.32890138392947 12.640887404490018, -53.55678427999948 12.45915685909273, -53.90290432492461 12.183135333906154 M-53.90290432492461 12.183135333906154 C-54.117579772597935 11.988172772330334, -54.33225522027126 11.793210210754513, -54.66217080965578 11.493589601563649 M-53.90290432492461 12.183135333906154 C-54.17030481211478 11.940289286469236, -54.437705299304945 11.697443239032319, -54.66217080965578 11.493589601563649 M-54.66217080965578 11.493589601563649 C-54.906510869904125 11.241288428665207, -55.150850930152465 10.988987255766764, -55.37569795320505 10.756814244181069 M-54.66217080965578 11.493589601563649 C-54.940068349240136 11.206637576130484, -55.21796588882449 10.91968555069732, -55.37569795320505 10.756814244181069 M-55.37569795320505 10.756814244181069 C-55.58197697472817 10.514507167891168, -55.7882559962513 10.272200091601269, -56.04055371948847 9.97583682973974 M-55.37569795320505 10.756814244181069 C-55.52766505486157 10.578305039402265, -55.6796321565181 10.399795834623461, -56.04055371948847 9.97583682973974 M-56.04055371948847 9.97583682973974 C-56.19853720767136 9.76415334816653, -56.35652069585424 9.552469866593324, -56.65400607355129 9.15386656195472 M-56.04055371948847 9.97583682973974 C-56.245445268734954 9.701300819753587, -56.45033681798143 9.426764809767437, -56.65400607355129 9.15386656195472 M-56.65400607355129 9.15386656195472 C-56.84534844460326 8.859913297398018, -57.036690815655234 8.565960032841318, -57.213534208085534 8.29428109296841 M-56.65400607355129 9.15386656195472 C-56.77625269972652 8.966062916334108, -56.89849932590175 8.778259270713495, -57.213534208085534 8.29428109296841 M-57.213534208085534 8.29428109296841 C-57.3810118399543 7.99690759863623, -57.54848947182306 7.699534104304049, -57.716838901968 7.400612643853366 M-57.213534208085534 8.29428109296841 C-57.38649611640535 7.987169710454184, -57.55945802472516 7.680058327939959, -57.716838901968 7.400612643853366 M-57.716838901968 7.400612643853366 C-57.84049906780326 7.143829663592781, -57.964159233638505 6.887046683332196, -58.161851968252996 6.476533489958307 M-57.716838901968 7.400612643853366 C-57.82528967256241 7.175412298239318, -57.93374044315682 6.950211952625271, -58.161851968252996 6.476533489958307 M-58.161851968252996 6.476533489958307 C-58.28507656917595 6.172166343293027, -58.4083011700989 5.867799196627747, -58.546744752796165 5.525840870740931 M-58.161851968252996 6.476533489958307 C-58.268691646950884 6.212637417969858, -58.37553132564877 5.94874134598141, -58.546744752796165 5.525840870740931 M-58.546744752796165 5.525840870740931 C-58.66951756618832 5.156068717995113, -58.79229037958047 4.786296565249294, -58.86993564858657 4.552441386096519 M-58.546744752796165 5.525840870740931 C-58.62635648766544 5.286063009722047, -58.705968222534715 5.046285148703162, -58.86993564858657 4.552441386096519 M-58.86993564858657 4.552441386096519 C-58.93872911963958 4.29010206569242, -59.007522590692595 4.027762745288321, -59.130096594909176 3.5603349433010343 M-58.86993564858657 4.552441386096519 C-58.96255586765972 4.199240348913743, -59.055176086732864 3.8460393117309675, -59.130096594909176 3.5603349433010343 M-59.130096594909176 3.5603349433010343 C-59.1738173059817 3.3358383323191774, -59.217538017054224 3.11134172133732, -59.326158534631205 2.5535983205340753 M-59.130096594909176 3.5603349433010343 C-59.1963841825459 3.2199621906730957, -59.262671770182614 2.8795894380451577, -59.326158534631205 2.5535983205340753 M-59.326158534631205 2.5535983205340753 C-59.36037615179502 2.28821323884429, -59.394593768958835 2.022828157154504, -59.45731580718717 1.5363684145229202 M-59.326158534631205 2.5535983205340753 C-59.3589151933907 2.2995441437293165, -59.3916718521502 2.0454899669245576, -59.45731580718717 1.5363684145229202 M-59.45731580718717 1.5363684145229202 C-59.475091473379116 1.259498065323843, -59.49286713957106 0.9826277161247658, -59.523029459211 0.5128252411464846 M-59.45731580718717 1.5363684145229202 C-59.47219663471901 1.3045875141267165, -59.48707746225085 1.072806613730513, -59.523029459211 0.5128252411464846 M-59.523029459211 0.5128252411464846 C-59.523029459211 0.1712620837860518, -59.523029459211 -0.17030107357438107, -59.523029459211 -0.5128252411464769 M-59.523029459211 0.5128252411464846 C-59.523029459211 0.27827084095329246, -59.523029459211 0.043716440760100284, -59.523029459211 -0.5128252411464769 M-59.523029459211 -0.5128252411464769 C-59.497235212843634 -0.9145914490591938, -59.471440966476266 -1.3163576569719107, -59.45731580718717 -1.5363684145228982 M-59.523029459211 -0.5128252411464769 C-59.50288777782196 -0.8265481868534319, -59.48274609643292 -1.140271132560387, -59.45731580718717 -1.5363684145228982 M-59.45731580718717 -1.5363684145228982 C-59.41926739721956 -1.8314643687232754, -59.38121898725196 -2.1265603229236527, -59.326158534631205 -2.5535983205340678 M-59.45731580718717 -1.5363684145228982 C-59.405627732759186 -1.937250912821597, -59.3539396583312 -2.3381334111202956, -59.326158534631205 -2.5535983205340678 M-59.326158534631205 -2.5535983205340678 C-59.2489545715984 -2.9500243536441677, -59.17175060856559 -3.3464503867542676, -59.130096594909176 -3.5603349433010267 M-59.326158534631205 -2.5535983205340678 C-59.2626204663629 -2.8798528723163264, -59.199082398094596 -3.2061074240985854, -59.130096594909176 -3.5603349433010267 M-59.130096594909176 -3.5603349433010267 C-59.07139753413827 -3.7841799023543734, -59.01269847336736 -4.00802486140772, -58.869935648586576 -4.552441386096511 M-59.130096594909176 -3.5603349433010267 C-59.046943130052846 -3.8774351437378582, -58.963789665196515 -4.19453534417469, -58.869935648586576 -4.552441386096511 M-58.869935648586576 -4.552441386096511 C-58.75434500491457 -4.900581987968597, -58.638754361242555 -5.248722589840681, -58.54674475279617 -5.525840870740911 M-58.869935648586576 -4.552441386096511 C-58.7980740881747 -4.768876956472309, -58.726212527762826 -4.985312526848107, -58.54674475279617 -5.525840870740911 M-58.54674475279617 -5.525840870740911 C-58.40674513155971 -5.8716426419035175, -58.26674551032325 -6.217444413066123, -58.161851968253 -6.476533489958299 M-58.54674475279617 -5.525840870740911 C-58.42254276359326 -5.832622185354195, -58.29834077439036 -6.13940349996748, -58.161851968253 -6.476533489958299 M-58.161851968253 -6.476533489958299 C-57.99829064052359 -6.816172086640192, -57.83472931279419 -7.155810683322085, -57.716838901968 -7.400612643853359 M-58.161851968253 -6.476533489958299 C-58.02209339554658 -6.7667451565375965, -57.88233482284016 -7.056956823116893, -57.716838901968 -7.400612643853359 M-57.716838901968 -7.400612643853359 C-57.5455560526829 -7.704742687028306, -57.374273203397784 -8.008872730203253, -57.213534208085534 -8.294281092968404 M-57.716838901968 -7.400612643853359 C-57.58329161007225 -7.637739383743965, -57.4497443181765 -7.874866123634572, -57.213534208085534 -8.294281092968404 M-57.213534208085534 -8.294281092968404 C-57.06668869350191 -8.519875236910734, -56.919843178918285 -8.745469380853065, -56.654006073551294 -9.153866561954715 M-57.213534208085534 -8.294281092968404 C-57.09047449271343 -8.483333861940427, -56.96741477734133 -8.672386630912449, -56.654006073551294 -9.153866561954715 M-56.654006073551294 -9.153866561954715 C-56.43471727247133 -9.447693577781104, -56.21542847139137 -9.741520593607495, -56.04055371948848 -9.975836829739734 M-56.654006073551294 -9.153866561954715 C-56.50766570643122 -9.349949322013906, -56.36132533931114 -9.546032082073097, -56.04055371948848 -9.975836829739734 M-56.04055371948848 -9.975836829739734 C-55.85616582103639 -10.192429347230206, -55.6717779225843 -10.409021864720676, -55.375697953205055 -10.756814244181063 M-56.04055371948848 -9.975836829739734 C-55.827260440655564 -10.22638325178826, -55.61396716182265 -10.476929673836784, -55.375697953205055 -10.756814244181063 M-55.375697953205055 -10.756814244181063 C-55.16991316570567 -10.96930393251944, -54.96412837820628 -11.181793620857817, -54.66217080965579 -11.493589601563633 M-55.375697953205055 -10.756814244181063 C-55.13962945528094 -11.00057434987184, -54.903560957356824 -11.244334455562619, -54.66217080965579 -11.493589601563633 M-54.66217080965579 -11.493589601563633 C-54.413030931664025 -11.71985184687581, -54.16389105367225 -11.946114092187987, -53.90290432492463 -12.18313533390614 M-54.66217080965579 -11.493589601563633 C-54.36746192480725 -11.761236413213279, -54.07275303995871 -12.028883224862925, -53.90290432492463 -12.18313533390614 M-53.90290432492463 -12.18313533390614 C-53.655632316755465 -12.38032818023656, -53.4083603085863 -12.57752102656698, -53.10101848785946 -12.822617949887302 M-53.90290432492463 -12.18313533390614 C-53.739876112896404 -12.313145994635727, -53.57684790086818 -12.443156655365314, -53.10101848785946 -12.822617949887302 M-53.10101848785946 -12.822617949887302 C-52.89468175775858 -12.96654952063259, -52.688345027657704 -13.11048109137788, -52.25980841936879 -13.409409678269444 M-53.10101848785946 -12.822617949887302 C-52.89158802365377 -12.96870757561852, -52.68215755944807 -13.114797201349738, -52.25980841936879 -13.409409678269444 M-52.25980841936879 -13.409409678269444 C-51.94417753554702 -13.60074697489516, -51.62854665172525 -13.792084271520872, -51.382730832063004 -13.941099265974229 M-52.25980841936879 -13.409409678269444 C-51.91266041096304 -13.619852841033149, -51.565512402557296 -13.830296003796855, -51.382730832063004 -13.941099265974229 M-51.382730832063004 -13.941099265974229 C-51.067925368640324 -14.105333074599317, -50.75311990521765 -14.269566883224407, -50.473389825880936 -14.415501886438705 M-51.382730832063004 -13.941099265974229 C-51.146624123375524 -14.064275984662922, -50.910517414688044 -14.187452703351616, -50.473389825880936 -14.415501886438705 M-50.473389825880936 -14.415501886438705 C-50.14303387996116 -14.561740664036435, -49.81267793404138 -14.707979441634167, -49.535522078069995 -14.830668117536344 M-50.473389825880936 -14.415501886438705 C-50.233572737309075 -14.521661797628292, -49.99375564873721 -14.62782170881788, -49.535522078069995 -14.830668117536344 M-49.535522078069995 -14.830668117536344 C-49.25918673072615 -14.932362079774828, -48.98285138338231 -15.034056042013312, -48.57298148837794 -15.184891952170695 M-49.535522078069995 -14.830668117536344 C-49.277574356900196 -14.925595263369425, -49.019626635730404 -15.020522409202506, -48.57298148837794 -15.184891952170695 M-48.57298148837794 -15.184891952170695 C-48.33267864080728 -15.256212575954281, -48.09237579323661 -15.327533199737868, -47.58972334255213 -15.476717808624466 M-48.57298148837794 -15.184891952170695 C-48.32590502868926 -15.258222948475492, -48.078828569000585 -15.331553944780289, -47.58972334255213 -15.476717808624466 M-47.58972334255213 -15.476717808624466 C-47.3357393069971 -15.534688007339179, -47.081755271442056 -15.592658206053892, -46.589788059221966 -15.704946511857043 M-47.58972334255213 -15.476717808624466 C-47.278049285043025 -15.54785537838762, -46.966375227533916 -15.618992948150774, -46.589788059221966 -15.704946511857043 M-46.589788059221966 -15.704946511857043 C-46.35472784808133 -15.7429492238751, -46.1196676369407 -15.780951935893153, -45.5772845869521 -15.868640221171937 M-46.589788059221966 -15.704946511857043 C-46.37248825786232 -15.740077858555743, -46.15518845650268 -15.775209205254443, -45.5772845869521 -15.868640221171937 M-45.5772845869521 -15.868640221171937 C-45.35005130474545 -15.890561142618408, -45.122818022538794 -15.912482064064879, -44.556373519691405 -15.967126284005381 M-45.5772845869521 -15.868640221171937 C-45.345787893934116 -15.890972428731875, -45.11429120091613 -15.913304636291814, -44.556373519691405 -15.967126284005381 M-44.556373519691405 -15.967126284005381 C-44.171520784552335 -15.979467762150886, -43.78666804941326 -15.99180924029639, -43.53125000000001 -16 M-44.556373519691405 -15.967126284005381 C-44.25754476782194 -15.976709140442955, -43.95871601595248 -15.98629199688053, -43.53125000000001 -16 M-43.53125000000001 -16 C-43.53125000000001 -16, -43.53125 -16, -43.53125 -16 M-43.53125000000001 -16 C-43.53125000000001 -16, -43.53125 -16, -43.53125 -16" stroke="#999" stroke-width="1.3" fill="none" stroke-dasharray="0 0" style=""/></g><g class="label" style="" transform="translate(0, -8.5)"><rect/><g><rect class="background" style="stroke: none"/><text y="-10.1" style=""><tspan class="text-outer-tspan row" x="0" y="-0.1em" dy="1.1em"><tspan font-style="normal" class="text-inner-tspan" font-weight="normal">ISBN</tspan><tspan font-style="normal" class="text-inner-tspan" font-weight="normal"> entered</tspan></tspan></text></g></g></g><g class="node default" id="my-svg-flowchart-B-1" data-look="classic" transform="translate(191.23828125, 113.5)"><rect class="basic label-container" style="" x="-103.41796875" y="-23.5" width="206.8359375" height="47"/><g class="label" style="" transform="translate(0, -8.5)"><rect/><g><rect class="background" style="stroke: none"/><text y="-10.1" style=""><tspan class="text-outer-tspan row" x="0" y="-0.1em" dy="1.1em"><tspan font-style="normal" class="text-inner-tspan" font-weight="normal">Normalize</tspan><tspan font-style="normal" class="text-inner-tspan" font-weight="normal"> &amp;</tspan><tspan font-style="normal" class="text-inner-tspan" font-weight="normal"> validate</tspan></tspan></text></g></g></g><g class="node default" id="my-svg-flowchart-C-3" data-look="classic" transform="translate(191.23828125, 271.46484375)"><polygon points="84.46484375,0 168.9296875,-84.46484375 84.46484375,-168.9296875 0,-84.46484375" class="label-container" transform="translate(-83.96484375, 84.46484375)"/><g class="label" style="" transform="translate(0, -8.5)"><rect/><g><rect class="background" style="stroke: none"/><text y="-10.1" style=""><tspan class="text-outer-tspan row" x="0" y="-0.1em" dy="1.1em"><tspan font-style="normal" class="text-inner-tspan" font-weight="normal">Checksum</tspan><tspan font-style="normal" class="text-inner-tspan" font-weight="normal"> valid?</tspan></tspan></text></g></g></g><g class="node default" id="my-svg-flowchart-D-5" data-look="classic" transform="translate(263.984375, 945.2031326293945)"><rect class="basic label-container" style="fill:#ffebee !important;stroke:#c62828 !important" x="-105.48828125" y="-23.5" width="210.9765625" height="47"/><g class="label" style="" transform="translate(0, -8.5)"><rect/><g><rect class="background" style="stroke: none"/><text y="-10.1" style=""><tspan class="text-outer-tspan row" x="0" y="-0.1em" dy="1.1em"><tspan font-style="normal" class="text-inner-tspan" font-weight="normal">Show</tspan><tspan font-style="normal" class="text-inner-tspan" font-weight="normal"> validation</tspan><tspan font-style="normal" class="text-inner-tspan" font-weight="normal"> error</tspan></tspan></text></g></g></g><g class="node default" id="my-svg-flowchart-E-7" data-look="classic" transform="translate(304.359375, 1127.060947418213)"><rect class="basic label-container" style="fill:#fff3e0 !important;stroke:#e65100 !important" x="-93.5859375" y="-32.29999923706055" width="187.171875" height="64.5999984741211"/><g class="label" style="" transform="translate(0, -17.299999237060547)"><rect/><g><rect class="background" style="stroke: none"/><text y="-10.1" style=""><tspan class="text-outer-tspan row" x="0" y="-0.1em" dy="1.1em"><tspan font-style="normal" class="text-inner-tspan" font-weight="normal">Manual</tspan><tspan font-style="normal" class="text-inner-tspan" font-weight="normal"> entry</tspan></tspan><tspan class="text-outer-tspan row" x="0" y="1em" dy="1.1em"><tspan font-style="normal" class="text-inner-tspan" font-weight="normal">(always</tspan><tspan font-style="normal" class="text-inner-tspan" font-weight="normal"> available)</tspan></tspan></text></g></g></g><g class="node default" id="my-svg-flowchart-F-9" data-look="classic" transform="translate(118.4921875, 450.4296875)"><rect class="basic label-container" style="" x="-100.265625" y="-23.5" width="200.53125" height="47"/><g class="label" style="" transform="translate(0, -8.5)"><rect/><g><rect class="background" style="stroke: none"/><text y="-10.1" style=""><tspan class="text-outer-tspan row" x="0" y="-0.1em" dy="1.1em"><tspan font-style="normal" class="text-inner-tspan" font-weight="normal">Query</tspan><tspan font-style="normal" class="text-inner-tspan" font-weight="normal"> Open</tspan><tspan font-style="normal" class="text-inner-tspan" font-weight="normal"> Library</tspan></tspan></text></g></g></g><g class="node default" id="my-svg-flowchart-G-11" data-look="classic" transform="translate(118.4921875, 602.4875030517578)"><polygon points="78.55781173706055,0 157.1156234741211,-78.55781173706055 78.55781173706055,-157.1156234741211 0,-78.55781173706055" class="label-container" transform="translate(-78.05781173706055, 78.55781173706055)"/><g class="label" style="" transform="translate(0, -17.299999237060547)"><rect/><g><rect class="background" style="stroke: none"/><text y="-10.1" style=""><tspan class="text-outer-tspan row" x="0" y="-0.1em" dy="1.1em"><tspan font-style="normal" class="text-inner-tspan" font-weight="normal">Found</tspan><tspan font-style="normal" class="text-inner-tspan" font-weight="normal"> useful</tspan></tspan><tspan class="text-outer-tspan row" x="0" y="1em" dy="1.1em"><tspan font-style="normal" class="text-inner-tspan" font-weight="normal">metadata?</tspan></tspan></text></g></g></g><g class="node default" id="my-svg-flowchart-H-13" data-look="classic" transform="translate(118.4921875, 784.3453178405762)"><rect class="basic label-container" style="fill:#e8f5e9 !important;stroke:#2e7d32 !important" x="-110.4921875" y="-32.29999923706055" width="220.984375" height="64.5999984741211"/><g class="label" style="" transform="translate(0, -17.299999237060547)"><rect/><g><rect class="background" style="stroke: none"/><text y="-10.1" style=""><tspan class="text-outer-tspan row" x="0" y="-0.1em" dy="1.1em"><tspan font-style="normal" class="text-inner-tspan" font-weight="normal">Return</tspan><tspan font-style="normal" class="text-inner-tspan" font-weight="normal"> metadata</tspan></tspan><tspan class="text-outer-tspan row" x="0" y="1em" dy="1.1em"><tspan font-style="normal" class="text-inner-tspan" font-weight="normal">Provider:</tspan><tspan font-style="normal" class="text-inner-tspan" font-weight="normal"> Open</tspan><tspan font-style="normal" class="text-inner-tspan" font-weight="normal"> Library</tspan></tspan></text></g></g></g><g class="node default" id="my-svg-flowchart-I-15" data-look="classic" transform="translate(550.4253921508789, 784.3453178405762)"><rect class="basic label-container" style="" x="-89.59375" y="-32.29999923706055" width="179.1875" height="64.5999984741211"/><g class="label" style="" transform="translate(0, -17.299999237060547)"><rect/><g><rect class="background" style="stroke: none"/><text y="-10.1" style=""><tspan class="text-outer-tspan row" x="0" y="-0.1em" dy="1.1em"><tspan font-style="normal" class="text-inner-tspan" font-weight="normal">Query</tspan><tspan font-style="normal" class="text-inner-tspan" font-weight="normal"> Let</tspan><tspan font-style="normal" class="text-inner-tspan" font-weight="normal"> Books</tspan></tspan><tspan class="text-outer-tspan row" x="0" y="1em" dy="1.1em"><tspan font-style="normal" class="text-inner-tspan" font-weight="normal">metadata</tspan><tspan font-style="normal" class="text-inner-tspan" font-weight="normal"> API</tspan></tspan></text></g></g></g><g class="node default" id="my-svg-flowchart-J-17" data-look="classic" transform="translate(550.4253921508789, 945.2031326293945)"><polygon points="78.55781173706055,0 157.1156234741211,-78.55781173706055 78.55781173706055,-157.1156234741211 0,-78.55781173706055" class="label-container" transform="translate(-78.05781173706055, 78.55781173706055)"/><g class="label" style="" transform="translate(0, -17.299999237060547)"><rect/><g><rect class="background" style="stroke: none"/><text y="-10.1" style=""><tspan class="text-outer-tspan row" x="0" y="-0.1em" dy="1.1em"><tspan font-style="normal" class="text-inner-tspan" font-weight="normal">Found</tspan><tspan font-style="normal" class="text-inner-tspan" font-weight="normal"> useful</tspan></tspan><tspan class="text-outer-tspan row" x="0" y="1em" dy="1.1em"><tspan font-style="normal" class="text-inner-tspan" font-weight="normal">metadata?</tspan></tspan></text></g></g></g><g class="node default" id="my-svg-flowchart-K-19" data-look="classic" transform="translate(598.3277359008789, 1127.060947418213)"><rect class="basic label-container" style="fill:#e8f5e9 !important;stroke:#2e7d32 !important" x="-114.5" y="-32.29999923706055" width="229" height="64.5999984741211"/><g class="label" style="" transform="translate(0, -17.299999237060547)"><rect/><g><rect class="background" style="stroke: none"/><text y="-10.1" style=""><tspan class="text-outer-tspan row" x="0" y="-0.1em" dy="1.1em"><tspan font-style="normal" class="text-inner-tspan" font-weight="normal">Return</tspan><tspan font-style="normal" class="text-inner-tspan" font-weight="normal"> metadata</tspan></tspan><tspan class="text-outer-tspan row" x="0" y="1em" dy="1.1em"><tspan font-style="normal" class="text-inner-tspan" font-weight="normal">Provider:</tspan><tspan font-style="normal" class="text-inner-tspan" font-weight="normal"> Let</tspan><tspan font-style="normal" class="text-inner-tspan" font-weight="normal"> Books</tspan><tspan font-style="normal" class="text-inner-tspan" font-weight="normal"> API</tspan></tspan></text></g></g></g></g></g></g><defs><filter id="my-svg-drop-shadow" height="130%" width="130%"><feDropShadow dx="4" dy="4" stdDeviation="0" flood-opacity="0.06" flood-color="#000000"/></filter></defs><defs><filter id="my-svg-drop-shadow-small" height="150%" width="150%"><feDropShadow dx="2" dy="2" stdDeviation="0" flood-opacity="0.06" flood-color="#000000"/></filter></defs><linearGradient id="my-svg-gradient" gradientUnits="objectBoundingBox" x1="0%" y1="0%" x2="100%" y2="0%"><stop offset="0%" stop-color="hsl(0, 0%, 83.3333333333%)" stop-opacity="1"/><stop offset="100%" stop-color="hsl(0, 0%, 88.9215686275%)" stop-opacity="1"/></linearGradient><text text-anchor="middle" x="360.41387939453125" y="-25" class="flowchartTitleText">ISBN Metadata Lookup Chain</text></svg>