<svg id="my-svg" width="100%" xmlns="http://www.w3.org/2000/svg" xmlns:xlink="http://www.w3.org/1999/xlink" class="flowchart" style="max-width: 720.828px; background-color: transparent;" viewBox="0 -49 720.8277587890625 1216.36083984375" role="graphics-document document" aria-roledescription="flowchart-v2"><style>#my-svg{font-family:"trebuchet ms",verdana,arial,sans-serif;font-size:16px;fill:#000000;}@keyframes edge-animation-frame{from{stroke-dashoffset:0;}}@keyframes dash{to{stroke-dashoffset:0;}}#my-svg .edge-animation-slow{stroke-dasharray:9,5!important;stroke-dashoffset:900;animation:dash 50s linear infinite;stroke-linecap:round;}#my-svg .edge-animation-fast{stroke-dasharray:9,5!important;stroke-dashoffset:900;animation:dash 20s linear infinite;stroke-linecap:round;}#my-svg .error-icon{fill:#552222;}#my-svg .error-text{fill:#552222;stroke:#552222;}#my-svg .edge-thickness-normal{stroke-width:1px;}#my-svg .edge-thickness-thick{stroke-width:3.5px;}#my-svg .edge-pattern-solid{stroke-dasharray:0;}#my-svg .edge-thickness-invisible{stroke-width:0;fill:none;}#my-svg .edge-pattern-dashed{stroke-dasharray:3;}#my-svg .edge-pattern-dotted{stroke-dasharray:2;}#my-svg .marker{fill:#666;stroke:#666;}#my-svg .marker.cross{stroke:#666;}#my-svg svg{font-family:"trebuchet ms",verdana,arial,sans-serif;font-size:16px;}#my-svg p{margin:0;}#my-svg .label{font-family:"trebuchet ms",verdana,arial,sans-serif;color:#000000;}#my-svg .cluster-label text{fill:#333;}#my-svg .cluster-label span{color:#333;}#my-svg .cluster-label span p{background-color:transparent;}#my-svg .label text,#my-svg span{fill:#000000;color:#000000;}#my-svg .node rect,#my-svg .node circle,#my-svg .node ellipse,#my-svg .node polygon,#my-svg .node path{fill:#eee;stroke:#999;stroke-width:1px;}#my-svg .rough-node .label text,#my-svg .node .label text,#my-svg .image-shape .label,#my-svg .icon-shape .label{text-anchor:middle;}#my-svg .node .katex path{fill:#000;stroke:#000;stroke-width:1px;}#my-svg .rough-node .label,#my-svg .node .label,#my-svg .image-shape .label,#my-svg .icon-shape .label{text-align:center;}#my-svg .node.clickable{cursor:pointer;}#my-svg .root .anchor path{fill:#666!important;stroke-width:0;stroke:#666;}#my-svg .arrowheadPath{fill:#333333;}#my-svg .edgePath .path{stroke:#666;stroke-width:1px;}#my-svg .flowchart-link{stroke:#666;fill:none;}#my-svg .edgeLabel{background-color:white;text-align:center;}#my-svg .edgeLabel p{background-color:white;}#my-svg .edgeLabel rect{opacity:0.5;background-color:white;fill:white;}#my-svg .labelBkg{background-color:rgba(255, 255, 255, 0.5);}#my-svg .cluster rect{fill:hsl(0, 0%, 98.9215686275%);stroke:#707070;stroke-width:1px;}#my-svg .cluster text{fill:#333;}#my-svg .cluster span{color:#333;}#my-svg div.mermaidTooltip{position:absolute;text-align:center;max-width:200px;padding:2px;font-family:"trebuchet ms",verdana,arial,sans-serif;font-size:12px;background:hsl(-160, 0%, 93.3333333333%);border:1px solid #707070;border-radius:2px;pointer-events:none;z-index:100;}#my-svg .flowchartTitleText{text-anchor:middle;font-size:18px;fill:#000000;}#my-svg rect.text{fill:none;stroke-width:0;}#my-svg .icon-shape,#my-svg .image-shape{background-color:white;text-align:center;}#my-svg .icon-shape p,#my-svg .image-shape p{background-color:white;padding:2px;}#my-svg .icon-shape .label rect,#my-svg .image-shape .label rect{opacity:0.5;background-color:white;fill:white;}#my-svg .label-icon{display:inline-block;height:1em;overflow:visible;vertical-align:-0.125em;}#my-svg .node .label-icon path{fill:currentColor;stroke:revert;stroke-width:revert;}#my-svg .node .neo-node{stroke:#999;}#my-svg [data-look="neo"].node rect,#my-svg [data-look="neo"].cluster rect,#my-svg [data-look="neo"].node polygon{stroke:url(#my-svg-gradient);filter:drop-shadow( 1px 2px 2px rgba(185,185,185,1));}#my-svg [data-look="neo"].node path{stroke:url(#my-svg-gradient);stroke-width:1px;}#my-svg [data-look="neo"].node .outer-path{filter:drop-shadow( 1px 2px 2px rgba(185,185,185,1));}#my-svg [data-look="neo"].node .neo-line path{stroke:#999;filter:none;}#my-svg [data-look="neo"].node circle{stroke:url(#my-svg-gradient);filter:drop-shadow( 1px 2px 2px rgba(185,185,185,1));}#my-svg [data-look="neo"].node circle .state-start{fill:#000000;}#my-svg [data-look="neo"].icon-shape .icon{fill:url(#my-svg-gradient);filter:drop-shadow( 1px 2px 2px rgba(185,185,185,1));}#my-svg [data-look="neo"].icon-shape .icon-neo path{stroke:url(#my-svg-gradient);filter:drop-shadow( 1px 2px 2px rgba(185,185,185,1));}#my-svg :root{--mermaid-font-family:"trebuchet ms",verdana,arial,sans-serif;}</style><g><marker id="my-svg_flowchart-v2-pointEnd" class="marker flowchart-v2" viewBox="0 0 10 10" refX="5" refY="5" markerUnits="userSpaceOnUse" markerWidth="8" markerHeight="8" orient="auto"><path d="M 0 0 L 10 5 L 0 10 z" class="arrowMarkerPath" style="stroke-width: 1; stroke-dasharray: 1, 0;"/></marker><marker id="my-svg_flowchart-v2-pointStart" class="marker flowchart-v2" viewBox="0 0 10 10" refX="4.5" refY="5" markerUnits="userSpaceOnUse" markerWidth="8" markerHeight="8" orient="auto"><path d="M 0 5 L 10 10 L 10 0 z" class="arrowMarkerPath" style="stroke-width: 1; stroke-dasharray: 1, 0;"/></marker><marker id="my-svg_flowchart-v2-pointEnd-margin" class="marker flowchart-v2" viewBox="0 0 11.5 14" refX="11.5" refY="7" markerUnits="userSpaceOnUse" markerWidth="10.5" markerHeight="14" orient="auto"><path d="M 0 0 L 11.5 7 L 0 14 z" class="arrowMarkerPath" style="stroke-width: 0; stroke-dasharray: 1, 0;"/></marker><marker id="my-svg_flowchart-v2-pointStart-margin" class="marker flowchart-v2" viewBox="0 0 11.5 14" refX="1" refY="7" markerUnits="userSpaceOnUse" markerWidth="11.5" markerHeight="14" orient="auto"><polygon points="0,7 11.5,14 11.5,0" class="arrowMarkerPath" style="stroke-width: 0; stroke-dasharray: 1, 0;"/></marker><marker id="my-svg_flowchart-v2-circleEnd" class="marker flowchart-v2" viewBox="0 0 10 10" refX="11" refY="5" markerUnits="userSpaceOnUse" markerWidth="11" markerHeight="11" orient="auto"><circle cx="5" cy="5" r="5" class="arrowMarkerPath" style="stroke-width: 1; stroke-dasharray: 1, 0;"/></marker><marker id="my-svg_flowchart-v2-circleStart" class="marker flowchart-v2" viewBox="0 0 10 10" refX="-1" refY="5" markerUnits="userSpaceOnUse" markerWidth="11" markerHeight="11" orient="auto"><circle cx="5" cy="5" r="5" class="arrowMarkerPath" style="stroke-width: 1; stroke-dasharray: 1, 0;"/></marker><marker id="my-svg_flowchart-v2-circleEnd-margin" class="marker flowchart-v2" viewBox="0 0 10 10" refY="5" refX="12.25" markerUnits="userSpaceOnUse" markerWidth="14" markerHeight="14" orient="auto"><circle cx="5" cy="5" r="5" class="arrowMarkerPath" style="stroke-width: 0; stroke-dasharray: 1, 0;"/></marker><marker id="my-svg_flowchart-v2-circleStart-margin" class="marker flowchart-v2" viewBox="0 0 10 10" refX="-2" refY="5" markerUnits="userSpaceOnUse" markerWidth="14" markerHeight="14" orient="auto"><circle cx="5" cy="5" r="5" class="arrowMarkerPath" style="stroke-width: 0; stroke-dasharray: 1, 0;"/></marker><marker id="my-svg_flowchart-v2-crossEnd" class="marker cross flowchart-v2" viewBox="0 0 11 11" refX="12" refY="5.2" markerUnits="userSpaceOnUse" markerWidth="11" markerHeight="11" orient="auto"><path d="M 1,1 l 9,9 M 10,1 l -9,9" class="arrowMarkerPath" style="stroke-width: 2; stroke-dasharray: 1, 0;"/></marker><marker id="my-svg_flowchart-v2-crossStart" class="marker cross flowchart-v2" viewBox="0 0 11 11" refX="-1" refY="5.2" markerUnits="userSpaceOnUse" markerWidth="11" markerHeight="11" orient="auto"><path d="M 1,1 l 9,9 M 10,1 l -9,9" class="arrowMarkerPath" style="stroke-width: 2; stroke-dasharray: 1, 0;"/></marker><marker id="my-svg_flowchart-v2-crossEnd-margin" class="marker cross flowchart-v2" viewBox="0 0 15 15" refX="17.7" refY="7.5" markerUnits="userSpaceOnUse" markerWidth="12" markerHeight="12" orient="auto"><path d="M 1,1 L 14,14 M 1,14 L 14,1" class="arrowMarkerPath" style="stroke-width: 2.5;"/></marker><marker id="my-svg_flowchart-v2-crossStart-margin" class="marker cross flowchart-v2" viewBox="0 0 15 15" refX="-3.5" refY="7.5" markerUnits="userSpaceOnUse" markerWidth="12" markerHeight="12" orient="auto"><path d="M 1,1 L 14,14 M 1,14 L 14,1" class="arrowMarkerPath" style="stroke-width: 2.5; stroke-dasharray: 1, 0;"/></marker><g class="root"><g class="clusters"/><g class="edgePaths"><path d="M191.738,40.5L191.655,44.583C191.572,48.667,191.405,56.833,191.322,64.417C191.238,72,191.238,79,191.238,82.5L191.238,86" id="my-svg-L_A_B_0" class="edge-thickness-normal edge-pattern-solid edge-thickness-normal edge-pattern-solid flowchart-link" style=";" data-edge="true" data-et="edge" data-id="L_A_B_0" data-points="W3sieCI6MTkxLjczODI4MTI1LCJ5Ijo0MC41MDAwMDAwMDAwMDAwMX0seyJ4IjoxOTEuMjM4MjgxMjUsInkiOjY1fSx7IngiOjE5MS4yMzgyODEyNSwieSI6OTB9XQ==" data-look="classic" marker-end="url(#my-svg_flowchart-v2-pointEnd)"/><path d="M191.238,137L191.238,141.167C191.238,145.333,191.238,153.667,191.238,161.333C191.238,169,191.238,176,191.238,179.5L191.238,183" id="my-svg-L_B_C_0" class="edge-thickness-normal edge-pattern-solid edge-thickness-normal edge-pattern-solid flowchart-link" style=";" data-edge="true" data-et="edge" data-id="L_B_C_0" data-points="W3sieCI6MTkxLjIzODI4MTI1LCJ5IjoxMzd9LHsieCI6MTkxLjIzODI4MTI1LCJ5IjoxNjJ9LHsieCI6MTkxLjIzODI4MTI1LCJ5IjoxODd9XQ==" data-look="classic" marker-end="url(#my-svg_flowchart-v2-pointEnd)"/><path d="M223.123,324.045L229.933,335.276C236.743,346.507,250.364,368.968,257.174,390.032C263.984,411.096,263.984,430.763,263.984,448.68C263.984,466.596,263.984,482.763,263.984,508.106C263.984,533.449,263.984,567.968,263.984,604.238C263.984,640.507,263.984,678.526,263.984,708.836C263.984,739.145,263.984,761.745,263.984,782.595C263.984,803.445,263.984,822.545,263.984,844.772C263.984,866.998,263.984,892.351,263.984,905.027L263.984,917.703" id="my-svg-L_C_D_0" class="edge-thickness-normal edge-pattern-solid edge-thickness-normal edge-pattern-solid flowchart-link" style=";" data-edge="true" data-et="edge" data-id="L_C_D_0" data-points="W3sieCI6MjIzLjEyMjc1ODE4NTkxMTM1LCJ5IjozMjQuMDQ1MjEwNTY0MDg4N30seyJ4IjoyNjMuOTg0Mzc1LCJ5IjozOTEuNDI5Njg3NX0seyJ4IjoyNjMuOTg0Mzc1LCJ5Ijo0NTAuNDI5Njg3NX0seyJ4IjoyNjMuOTg0Mzc1LCJ5Ijo0OTguOTI5Njg3NX0seyJ4IjoyNjMuOTg0Mzc1LCJ5Ijo2MDIuNDg3NTAzMDUxNzU3OH0seyJ4IjoyNjMuOTg0Mzc1LCJ5Ijo3MTYuNTQ1MzE4NjAzNTE1Nn0seyJ4IjoyNjMuOTg0Mzc1LCJ5Ijo3ODQuMzQ1MzE3ODQwNTc2Mn0seyJ4IjoyNjMuOTg0Mzc1LCJ5Ijo4NDEuNjQ1MzE3MDc3NjM2N30seyJ4IjoyNjMuOTg0Mzc1LCJ5Ijo5MjEuNzAzMTMyNjI5Mzk0NX1d" data-look="classic" marker-end="url(#my-svg_flowchart-v2-pointEnd)"/><path d="M263.984,968.703L263.984,983.796C263.984,998.889,263.984,1029.075,267.167,1049.512C270.349,1069.949,276.714,1080.636,279.896,1085.98L283.078,1091.324" id="my-svg-L_D_E_0" class="edge-thickness-normal edge-pattern-solid edge-thickness-normal edge-pattern-solid flowchart-link" style=";" data-edge="true" data-et="edge" data-id="L_D_E_0" data-points="W3sieCI6MjYzLjk4NDM3NSwieSI6OTY4LjcwMzEzMjYyOTM5NDV9LHsieCI6MjYzLjk4NDM3NSwieSI6MTA1OS4yNjA5NDgxODExNTIzfSx7IngiOjI4NS4xMjQ2Nzc1OTc3Njk1LCJ5IjoxMDk0Ljc2MDk0ODE4MTE1MjN9XQ==" data-look="classic" marker-end="url(#my-svg_flowchart-v2-pointEnd)"/><path d="M159.354,324.045L152.544,335.276C145.733,346.507,132.113,368.968,125.302,385.449C118.492,401.93,118.492,412.43,118.492,417.68L118.492,422.93" id="my-svg-L_C_F_0" class="edge-thickness-normal edge-pattern-solid edge-thickness-normal edge-pattern-solid flowchart-link" style=";" data-edge="true" data-et="edge" data-id="L_C_F_0" data-points="W3sieCI6MTU5LjM1MzgwNDMxNDA4ODY1LCJ5IjozMjQuMDQ1MjEwNTY0MDg4N30seyJ4IjoxMTguNDkyMTg3NSwieSI6MzkxLjQyOTY4NzV9LHsieCI6MTE4LjQ5MjE4NzUsInkiOjQyNi45Mjk2ODc1fV0=" data-look="classic" marker-end="url(#my-svg_flowchart-v2-pointEnd)"/><path d="M118.492,473.93L118.492,478.096C118.492,482.263,118.492,490.596,118.492,498.263C118.492,505.93,118.492,512.93,118.492,516.43L118.492,519.93" id="my-svg-L_F_G_0" class="edge-thickness-normal edge-pattern-solid edge-thickness-normal edge-pattern-solid flowchart-link" style=";" data-edge="true" data-et="edge" data-id="L_F_G_0" data-points="W3sieCI6MTE4LjQ5MjE4NzUsInkiOjQ3My45Mjk2ODc1fSx7IngiOjExOC40OTIxODc1LCJ5Ijo0OTguOTI5Njg3NX0seyJ4IjoxMTguNDkyMTg3NSwieSI6NTIzLjkyOTY4NzV9XQ==" data-look="classic" marker-end="url(#my-svg_flowchart-v2-pointEnd)"/><path d="M118.492,681.045L118.492,686.962C118.492,692.879,118.492,704.712,118.492,715.879C118.492,727.045,118.492,737.545,118.492,742.795L118.492,748.045" id="my-svg-L_G_H_0" class="edge-thickness-normal edge-pattern-solid edge-thickness-normal edge-pattern-solid flowchart-link" style=";" data-edge="true" data-et="edge" data-id="L_G_H_0" data-points="W3sieCI6MTE4LjQ5MjE4NzQ5OTk5OTk5LCJ5Ijo2ODEuMDQ1MzE4NjAzNTE1NX0seyJ4IjoxMTguNDkyMTg3NSwieSI6NzE2LjU0NTMxODYwMzUxNTZ9LHsieCI6MTE4LjQ5MjE4NzUsInkiOjc1Mi4wNDUzMTg2MDM1MTU2fV0=" data-look="classic" marker-end="url(#my-svg_flowchart-v2-pointEnd)"/><path d="M180.639,618.898L242.27,635.173C303.901,651.447,427.163,683.996,488.794,705.521C550.425,727.045,550.425,737.545,550.425,742.795L550.425,748.045" id="my-svg-L_G_I_0" class="edge-thickness-normal edge-pattern-solid edge-thickness-normal edge-pattern-solid flowchart-link" style=";" data-edge="true" data-et="edge" data-id="L_G_I_0" data-points="W3sieCI6MTgwLjYzOTIzMzQ1MTUwNjkzLCJ5Ijo2MTguODk4MjcyNjUyMDA4N30seyJ4Ijo1NTAuNDI1MzkyMTUwODc4OSwieSI6NzE2LjU0NTMxODYwMzUxNTZ9LHsieCI6NTUwLjQyNTM5MjE1MDg3ODksInkiOjc1Mi4wNDUzMTg2MDM1MTU2fV0=" data-look="classic" marker-end="url(#my-svg_flowchart-v2-pointEnd)"/><path d="M550.425,816.645L550.425,820.812C550.425,824.979,550.425,833.312,550.425,840.979C550.425,848.645,550.425,855.645,550.425,859.145L550.425,862.645" id="my-svg-L_I_J_0" class="edge-thickness-normal edge-pattern-solid edge-thickness-normal edge-pattern-solid flowchart-link" style=";" data-edge="true" data-et="edge" data-id="L_I_J_0" data-points="W3sieCI6NTUwLjQyNTM5MjE1MDg3ODksInkiOjgxNi42NDUzMTcwNzc2MzY3fSx7IngiOjU1MC40MjUzOTIxNTA4Nzg5LCJ5Ijo4NDEuNjQ1MzE3MDc3NjM2N30seyJ4Ijo1NTAuNDI1MzkyMTUwODc4OSwieSI6ODY2LjY0NTMxNzA3NzYzNTl9XQ==" data-look="classic" marker-end="url(#my-svg_flowchart-v2-pointEnd)"/><path d="M573.66,1000.526L577.771,1010.315C581.883,1020.104,590.105,1039.683,594.216,1054.722C598.328,1069.761,598.328,1080.261,598.328,1085.511L598.328,1090.761" id="my-svg-L_J_K_0" class="edge-thickness-normal edge-pattern-solid edge-thickness-normal edge-pattern-solid flowchart-link" style=";" data-edge="true" data-et="edge" data-id="L_J_K_0" data-points="W3sieCI6NTczLjY2MDE0MDEzNDc4NCwieSI6MTAwMC41MjYyMDAxOTcyNDY2fSx7IngiOjU5OC4zMjc3MzU5MDA4Nzg5LCJ5IjoxMDU5LjI2MDk0ODE4MTE1MjN9LHsieCI6NTk4LjMyNzczNTkwMDg3ODksInkiOjEwOTQuNzYwOTQ4MTgxMTUyM31d" data-look="classic" marker-end="url(#my-svg_flowchart-v2-pointEnd)"/><path d="M508.725,982.061L494.168,994.928C479.611,1007.794,450.497,1033.528,426.304,1051.977C402.112,1070.426,382.841,1081.591,373.206,1087.173L363.57,1092.756" id="my-svg-L_J_E_0" class="edge-thickness-normal edge-pattern-solid edge-thickness-normal edge-pattern-solid flowchart-link" style=";" data-edge="true" data-et="edge" data-id="L_J_E_0" data-points="W3sieCI6NTA4LjcyNTI2NDUwMDQwNDc2LCJ5Ijo5ODIuMDYwODIwNTMwNjc4MX0seyJ4Ijo0MjEuMzgyNDIzNDAwODc4OSwieSI6MTA1OS4yNjA5NDgxODExNTIzfSx7IngiOjM2MC4xMDkyOTI2NDg5Nzc5LCJ5IjoxMDk0Ljc2MDk0ODE4MTE1MjN9XQ==" data-look="classic" marker-end="url(#my-svg_flowchart-v2-pointEnd)"/></g><g class="edgeLabels"><g class="edgeLabel"><g class="label" data-id="L_A_B_0" transform="translate(0, 0)"><text y="-10.1" text-anchor="middle"><tspan class="text-outer-tspan row" x="0" y="-0.1em" dy="1.1em" text-anchor="middle"/></text></g></g><g><rect class="background" style="stroke: none"/></g><g class="edgeLabel"><g class="label" data-id="L_B_C_0" transform="translate(0, 0)"><text y="-10.1" text-anchor="middle"><tspan class="text-outer-tspan row" x="0" y="-0.1em" dy="1.1em" text-anchor="middle"/></text></g></g><g><rect class="background" style="stroke: none"/></g><g class="edgeLabel" transform="translate(263.984375, 602.4875030517578)"><g class="label" data-id="L_C_D_0" transform="translate(-0.05078125, -10.5)"><g><rect class="background" style="" x="-12.2265625" y="0" width="24.5546875" height="21"/><text y="-10.1" text-anchor="middle" style=""><tspan class="text-outer-tspan row" x="0" y="-0.1em" dy="1.1em" text-anchor="middle"><tspan font-style="normal" class="text-inner-tspan" font-weight="normal">No</tspan></tspan></text></g></g></g><g class="edgeLabel"><g class="label" data-id="L_D_E_0" transform="translate(0, 0)"><text y="-10.1" text-anchor="middle"><tspan class="text-outer-tspan row" x="0" y="-0.1em" dy="1.1em" text-anchor="middle"/></text></g></g><g><rect class="background" style="stroke: none"/></g><g class="edgeLabel" transform="translate(118.4921875, 391.4296875)"><g class="label" data-id="L_C_F_0" transform="translate(0, -10.5)"><g><rect class="background" style="" x="-15.0546875" y="0" width="30.109375" height="21"/><text y="-10.1" text-anchor="middle" style=""><tspan class="text-outer-tspan row" x="0" y="-0.1em" dy="1.1em" text-anchor="middle"><tspan font-style="normal" class="text-inner-tspan" font-weight="normal">Yes</tspan></tspan></text></g></g></g><g class="edgeLabel"><g class="label" data-id="L_F_G_0" transform="translate(0, 0)"><text y="-10.1" text-anchor="middle"><tspan class="text-outer-tspan row" x="0" y="-0.1em" dy="1.1em" text-anchor="middle"/></text></g></g><g><rect class="background" style="stroke: none"/></g><g class="edgeLabel" transform="translate(118.4921875, 716.5453186035156)"><g class="label" data-id="L_G_H_0" transform="translate(0, -10.5)"><g><rect class="background" style="" x="-15.0546875" y="0" width="30.109375" height="21"/><text y="-10.1" text-anchor="middle" style=""><tspan class="text-outer-tspan row" x="0" y="-0.1em" dy="1.1em" text-anchor="middle"><tspan font-style="normal" class="text-inner-tspan" font-weight="normal">Yes</tspan></tspan></text></g></g></g><g class="edgeLabel" transform="translate(550.4253921508789, 716.5453186035156)"><g class="label" data-id="L_G_I_0" transform="translate(-0.046875, -10.5)"><g><rect class="background" style="" x="-60.703125" y="0" width="121.5" height="21"/><text y="-10.1" text-anchor="middle" style=""><tspan class="text-outer-tspan row" x="0" y="-0.1em" dy="1.1em" text-anchor="middle"><tspan font-style="normal" class="text-inner-tspan" font-weight="normal">No</tspan><tspan font-style="normal" class="text-inner-tspan" font-weight="normal"> /</tspan><tspan font-style="normal" class="text-inner-tspan" font-weight="normal"> Unavailable</tspan></tspan></text></g></g></g><g class="edgeLabel"><g class="label" data-id="L_I_J_0" transform="translate(0, 0)"><text y="-10.1" text-anchor="middle"><tspan class="text-outer-tspan row" x="0" y="-0.1em" dy="1.1em" text-anchor="middle"/></text></g></g><g><rect class="background" style="stroke: none"/></g><g class="edgeLabel" transform="translate(598.3277359008789, 1059.2609481811523)"><g class="label" data-id="L_J_K_0" transform="translate(0, -10.5)"><g><rect class="background" style="" x="-15.0546875" y="0" width="30.109375" height="21"/><text y="-10.1" text-anchor="middle" style=""><tspan class="text-outer-tspan row" x="0" y="-0.1em" dy="1.1em" text-anchor="middle"><tspan font-style="normal" class="text-inner-tspan" font-weight="normal">Yes</tspan></tspan></text></g></g></g><g class="edgeLabel" transform="translate(438.52431, 1044.10967)"><g class="label" data-id="L_J_E_0" transform="translate(-0.046875, -10.5)"><g><rect class="background" style="" x="-60.703125" y="0" width="121.5" height="21"/><text y="-10.1" text-anchor="middle" style=""><tspan class="text-outer-tspan row" x="0" y="-0.1em" dy="1.1em" text-anchor="middle"><tspan font-style="normal" class="text-inner-tspan" font-weight="normal">No</tspan><tspan font-style="normal" class="text-inner-tspan" font-weight="normal"> /</tspan><tspan font-style="normal" class="text-inner-tspan" font-weight="normal"> Unavailable</tspan></tspan></text></g></g></g></g><g class="nodes"><g class="node default" id="my-svg-flowchart-A-0" data-look="classic" transform="translate(191.23828125, 24)"><g class="basic label-container outer-path"><path d="M-43.53125 -16 C-14.676201802978564 -16, 14.178846394042871 -16, 43.53125 -16 C43.53125 -16, 43.53125 -16, 43.53125 -16 C43.86134153966562 -15.989414606807129, 44.19143307933123 -15.978829213614256, 44.556373519691405 -15.967126284005381 C44.948000737361056 -15.929346477317429, 45.3396279550307 -15.891566670629478, 45.577284586952096 -15.868640221171939 C45.81513366327879 -15.830186627058573, 46.05298273960549 -15.791733032945208, 46.58978805922195 -15.704946511857047 C46.953484962030416 -15.621935067135107, 47.31718186483887 -15.538923622413167, 47.58972334255211 -15.476717808624471 C47.786818515985374 -15.418220995723157, 47.98391368941863 -15.359724182821845, 48.572981488377934 -15.184891952170698 C48.949266736037316 -15.046415502689348, 49.3255519836967 -14.907939053207995, 49.53552207806999 -14.830668117536348 C49.84895199999655 -14.691921988667747, 50.16238192192312 -14.553175859799147, 50.47338982588093 -14.415501886438706 C50.80714665249911 -14.241381163773452, 51.14090347911729 -14.067260441108198, 51.382730832063004 -13.941099265974232 C51.64223853456088 -13.783784171683482, 51.90174623705876 -13.626469077392732, 52.25980841936878 -13.409409678269451 C52.535213082627706 -13.217299307255747, 52.81061774588663 -13.025188936242044, 53.101018487859456 -12.822617949887306 C53.38951996911782 -12.592545695930605, 53.678021450376185 -12.362473441973904, 53.90290432492461 -12.183135333906153 C54.121554063863634 -11.984563426156807, 54.34020380280266 -11.78599151840746, 54.662170809655784 -11.493589601563642 C54.88107972931883 -11.267548169254995, 55.09998864898187 -11.041506736946351, 55.37569795320505 -10.756814244181072 C55.63925539429053 -10.447224677038824, 55.90281283537602 -10.137635109896573, 56.04055371948848 -9.975836829739738 C56.27876796108152 -9.656651447768914, 56.51698220267456 -9.33746606579809, 56.65400607355129 -9.153866561954718 C56.85089466185506 -8.85139281833139, 57.04778325015883 -8.548919074708063, 57.213534208085534 -8.294281092968403 C57.33521308276132 -8.0782279296594, 57.456891957437115 -7.862174766350397, 57.716838901968 -7.400612643853364 C57.83805511385733 -7.148904586253729, 57.959271325746656 -6.897196528654094, 58.161851968252996 -6.476533489958305 C58.308175805703954 -6.115110782475496, 58.45449964315491 -5.753688074992689, 58.546744752796165 -5.52584087074093 C58.64879115738016 -5.218493359020515, 58.75083756196415 -4.9111458473001, 58.86993564858657 -4.552441386096524 C58.951954099523505 -4.239669485652482, 59.03397255046045 -3.9268975852084402, 59.130096594909176 -3.560334943301032 C59.19622105832505 -3.2207997990708073, 59.262345521740926 -2.8812646548405825, 59.326158534631205 -2.5535983205340735 C59.3696224577459 -2.216500715778893, 59.4130863808606 -1.8794031110237124, 59.45731580718717 -1.536368414522911 C59.473846774796506 -1.2788852504506023, 59.49037774240584 -1.0214020863782935, 59.523029459211 -0.5128252411464826 C59.523029459211 -0.10674510390751929, 59.523029459211 0.29933503333144407, 59.523029459211 0.5128252411464788 C59.50632523033661 0.7730070892760811, 59.48962100146221 1.0331889374056833, 59.45731580718717 1.5363684145229002 C59.424021867113 1.7945896391061038, 59.39072792703882 2.0528108636893077, 59.326158534631205 2.5535983205340624 C59.250545040892796 2.94185762996322, 59.17493154715439 3.330116939392377, 59.130096594909176 3.5603349433010285 C59.07671702227736 3.763894388599264, 59.023337449645545 3.9674538338974994, 58.86993564858657 4.552441386096513 C58.794686682170884 4.7790792836459435, 58.71943771575519 5.005717181195374, 58.546744752796165 5.525840870740919 C58.39954678032869 5.889422708614789, 58.25234880786121 6.253004546488658, 58.161851968253 6.4765334899583005 C57.99667956303251 6.819517523521967, 57.83150715781202 7.162501557085633, 57.716838901968 7.400612643853361 C57.521434048760206 7.747573747610807, 57.32602919555241 8.094534851368254, 57.21353420808554 8.294281092968399 C57.04031645535627 8.560390076639951, 56.867098702627 8.826499060311502, 56.6540060735513 9.15386656195471 C56.489170973302514 9.374730579501529, 56.32433587305372 9.595594597048347, 56.04055371948848 9.975836829739734 C55.79061759830331 10.269426019452016, 55.540681477118135 10.5630152091643, 55.375697953205055 10.756814244181063 C55.10530642547335 11.036015696121325, 54.834914897741655 11.315217148061588, 54.662170809655784 11.493589601563638 C54.500663026528876 11.640266696937724, 54.33915524340197 11.78694379231181, 53.90290432492463 12.183135333906142 C53.639272158284314 12.393374971255202, 53.37563999164401 12.60361460860426, 53.10101848785946 12.822617949887304 C52.922429954321316 12.947193579910497, 52.74384142078318 13.07176920993369, 52.25980841936879 13.409409678269446 C51.98942350910237 13.57331859983105, 51.719038598835965 13.737227521392652, 51.382730832063004 13.94109926597423 C51.19259578221895 14.040292599690561, 51.0024607323749 14.139485933406892, 50.47338982588093 14.415501886438705 C50.254297560015516 14.512487533396172, 50.0352052941501 14.609473180353639, 49.535522078069995 14.830668117536346 C49.246928767415376 14.936873123584565, 48.95833545676076 15.043078129632784, 48.57298148837794 15.184891952170695 C48.33606992697244 15.255206060021685, 48.09915836556694 15.325520167872675, 47.58972334255213 15.476717808624468 C47.241605045007354 15.556173538354871, 46.89348674746258 15.635629268085275, 46.58978805922196 15.704946511857045 C46.329434689045776 15.74703842567659, 46.069081318869586 15.789130339496134, 45.5772845869521 15.868640221171937 C45.370696176120106 15.888569556705985, 45.16410776528811 15.908498892240033, 44.556373519691405 15.967126284005381 C44.332260491001634 15.974313152625916, 44.10814746231186 15.981500021246449, 43.53125 16 C43.53125 16, 43.53125 16, 43.53125 16 C19.60745371869885 16, -4.316342562602301 16, -43.53125 16 C-43.86186735234816 15.98939774501783, -44.192484704696334 15.978795490035663, -44.5563735196914 15.967126284005381 C-44.84834481673872 15.938960164126085, -45.14031611378604 15.91079404424679, -45.577284586952096 15.868640221171937 C-45.78251865692861 15.83545956835212, -45.987752726905114 15.8022789155323, -46.58978805922196 15.704946511857045 C-46.9706132465336 15.618025647969755, -47.35143843384525 15.531104784082466, -47.58972334255211 15.476717808624471 C-47.88700855555818 15.388485117886196, -48.18429376856425 15.300252427147923, -48.57298148837792 15.184891952170702 C-48.847851530718515 15.083737235718544, -49.12272157305911 14.982582519266387, -49.53552207806999 14.830668117536348 C-49.76643984630106 14.728447671472667, -49.99735761453214 14.626227225408988, -50.47338982588093 14.415501886438708 C-50.718830980084725 14.28745539350315, -50.96427213428852 14.159408900567593, -51.382730832063 13.941099265974234 C-51.70658238231335 13.744778553049514, -52.0304339325637 13.548457840124794, -52.25980841936877 13.409409678269457 C-52.47886919427284 13.256602364684483, -52.69792996917691 13.103795051099508, -53.101018487859456 12.822617949887308 C-53.293345574927145 12.669242215989556, -53.48567266199483 12.515866482091804, -53.90290432492461 12.183135333906154 C-54.16627227532983 11.94395152968225, -54.42964022573505 11.704767725458346, -54.66217080965578 11.493589601563649 C-54.82394887542889 11.326540466426692, -54.985726941202 11.159491331289736, -55.37569795320505 10.756814244181069 C-55.51737240632885 10.590395370037092, -55.65904685945266 10.423976495893116, -56.04055371948847 9.97583682973974 C-56.26799858164484 9.67108143510341, -56.49544344380121 9.366326040467083, -56.65400607355129 9.15386656195472 C-56.77408648770937 8.969390799701824, -56.89416690186745 8.784915037448927, -57.213534208085534 8.29428109296841 C-57.407113811517874 7.950560905013869, -57.600693414950214 7.6068407170593275, -57.716838901968 7.400612643853366 C-57.876699584963944 7.068658515141627, -58.036560267959885 6.736704386429889, -58.161851968252996 6.476533489958307 C-58.30399071984529 6.125448025459544, -58.44612947143757 5.774362560960782, -58.546744752796165 5.525840870740931 C-58.62078026319768 5.302857709368224, -58.694815773599196 5.079874547995518, -58.86993564858657 4.552441386096519 C-58.92554160805914 4.340391762852317, -58.981147567531714 4.128342139608115, -59.130096594909176 3.5603349433010343 C-59.204604336428055 3.1777534378183376, -59.279112077946934 2.795171932335641, -59.326158534631205 2.5535983205340753 C-59.37838302497974 2.1485554862828975, -59.430607515328276 1.7435126520317195, -59.45731580718717 1.5363684145229202 C-59.47401065346531 1.2763327079035764, -59.49070549974344 1.0162970012842327, -59.523029459211 0.5128252411464846 C-59.523029459211 0.27826842037910693, -59.523029459211 0.04371159961172921, -59.523029459211 -0.5128252411464769 C-59.504984247028744 -0.7938939867182169, -59.48693903484649 -1.0749627322899569, -59.45731580718717 -1.5363684145228982 C-59.410662073350395 -1.8982055613391489, -59.364008339513624 -2.2600427081553995, -59.326158534631205 -2.5535983205340678 C-59.267890584088846 -2.852791931633379, -59.20962263354648 -3.1519855427326906, -59.130096594909176 -3.5603349433010267 C-59.04361847294725 -3.890113502196999, -58.95714035098533 -4.219892061092971, -58.869935648586576 -4.552441386096511 C-58.76541480327484 -4.867241519040307, -58.6608939579631 -5.182041651984102, -58.54674475279617 -5.525840870740911 C-58.418917867995134 -5.841575747564171, -58.291090983194096 -6.1573106243874305, -58.161851968253 -6.476533489958299 C-58.029960340878745 -6.750409276229696, -57.89806871350448 -7.024285062501093, -57.716838901968 -7.400612643853359 C-57.51751042477984 -7.754540539297946, -57.31818194759169 -8.108468434742534, -57.213534208085534 -8.294281092968404 C-56.99381039098871 -8.631835880135363, -56.7740865738919 -8.969390667302322, -56.654006073551294 -9.153866561954715 C-56.420155283346176 -9.467205316584312, -56.18630449314106 -9.780544071213912, -56.04055371948848 -9.975836829739734 C-55.84366144592664 -10.207117697753212, -55.64676917236481 -10.43839856576669, -55.375697953205055 -10.756814244181063 C-55.21119839966766 -10.926673538872938, -55.04669884613027 -11.096532833564813, -54.66217080965579 -11.493589601563633 C-54.3803767252878 -11.749507533123737, -54.098582640919815 -12.00542546468384, -53.90290432492463 -12.18313533390614 C-53.63702540570901 -12.39516669664541, -53.371146486493394 -12.607198059384679, -53.10101848785946 -12.822617949887302 C-52.78856457676385 -13.040572272355792, -52.47611066566823 -13.258526594824284, -52.25980841936879 -13.409409678269444 C-51.948208510873556 -13.598303373963573, -51.636608602378324 -13.787197069657699, -51.382730832063004 -13.941099265974229 C-51.174812000031 -14.049570387466959, -50.96689316799899 -14.15804150895969, -50.473389825880936 -14.415501886438705 C-50.12768656390685 -14.568534465591723, -49.78198330193276 -14.721567044744743, -49.535522078069995 -14.830668117536344 C-49.242305782155064 -14.938574424894766, -48.94908948624013 -15.046480732253189, -48.57298148837794 -15.184891952170695 C-48.35713713685541 -15.24895342271246, -48.14129278533287 -15.313014893254229, -47.58972334255213 -15.476717808624466 C-47.284266889382515 -15.546436250770792, -46.9788104362129 -15.616154692917117, -46.589788059221966 -15.704946511857043 C-46.353397106566796 -15.743164367843114, -46.11700615391163 -15.781382223829183, -45.5772845869521 -15.868640221171937 C-45.20450883067656 -15.904601450051398, -44.83173307440102 -15.940562678930862, -44.556373519691405 -15.967126284005381 C-44.211234438222405 -15.978194222575624, -43.86609535675341 -15.989262161145867, -43.53125000000001 -16 C-43.53125000000001 -16, -43.53125 -16, -43.53125 -16" stroke="none" stroke-width="0" fill="#eee" style=""/><path d="M-43.53125 -16 C-13.484512796727198 -16, 16.562224406545603 -16, 43.53125 -16 M-43.53125 -16 C-25.52016490226234 -16, -7.509079804524681 -16, 43.53125 -16 M43.53125 -16 C43.53125 -16, 43.53125 -16, 43.53125 -16 M43.53125 -16 C43.53125 -16, 43.53125 -16, 43.53125 -16 M43.53125 -16 C43.78926062944033 -15.991726101301072, 44.04727125888065 -15.983452202602146, 44.556373519691405 -15.967126284005381 M43.53125 -16 C43.84591557269425 -15.989909287543076, 44.16058114538851 -15.979818575086155, 44.556373519691405 -15.967126284005381 M44.556373519691405 -15.967126284005381 C44.78024318009802 -15.945529847108615, 45.004112840504625 -15.923933410211847, 45.577284586952096 -15.868640221171939 M44.556373519691405 -15.967126284005381 C44.86005354445085 -15.937830637245503, 45.163733569210294 -15.908534990485624, 45.577284586952096 -15.868640221171939 M45.577284586952096 -15.868640221171939 C45.781092228549795 -15.83569018223029, 45.98489987014749 -15.80274014328864, 46.58978805922195 -15.704946511857047 M45.577284586952096 -15.868640221171939 C45.88083236594259 -15.81956497031294, 46.18438014493307 -15.770489719453941, 46.58978805922195 -15.704946511857047 M46.58978805922195 -15.704946511857047 C46.851967112234064 -15.645105853885243, 47.11414616524618 -15.585265195913438, 47.58972334255211 -15.476717808624471 M46.58978805922195 -15.704946511857047 C46.96218048332302 -15.619950371143648, 47.33457290742408 -15.534954230430252, 47.58972334255211 -15.476717808624471 M47.58972334255211 -15.476717808624471 C47.81601672464183 -15.409555120658446, 48.04231010673154 -15.34239243269242, 48.572981488377934 -15.184891952170698 M47.58972334255211 -15.476717808624471 C47.79225361679092 -15.416607886333496, 47.994783891029726 -15.356497964042523, 48.572981488377934 -15.184891952170698 M48.572981488377934 -15.184891952170698 C48.913834527297304 -15.059454883037418, 49.254687566216674 -14.934017813904138, 49.53552207806999 -14.830668117536348 M48.572981488377934 -15.184891952170698 C48.94977352163485 -15.046229000904779, 49.326565554891765 -14.90756604963886, 49.53552207806999 -14.830668117536348 M49.53552207806999 -14.830668117536348 C49.80476776589764 -14.711481038424601, 50.07401345372529 -14.592293959312855, 50.47338982588093 -14.415501886438706 M49.53552207806999 -14.830668117536348 C49.77146615708933 -14.726222672786914, 50.00741023610867 -14.62177722803748, 50.47338982588093 -14.415501886438706 M50.47338982588093 -14.415501886438706 C50.748787739022305 -14.271826971553633, 51.02418565216368 -14.12815205666856, 51.382730832063004 -13.941099265974232 M50.47338982588093 -14.415501886438706 C50.70659174645027 -14.293840593850637, 50.93979366701962 -14.17217930126257, 51.382730832063004 -13.941099265974232 M51.382730832063004 -13.941099265974232 C51.71009985585773 -13.742646239915945, 52.03746887965245 -13.544193213857657, 52.25980841936878 -13.409409678269451 M51.382730832063004 -13.941099265974232 C51.63353061856677 -13.789062961532506, 51.884330405070536 -13.637026657090782, 52.25980841936878 -13.409409678269451 M52.25980841936878 -13.409409678269451 C52.54169539322492 -13.212777527997831, 52.823582367081066 -13.016145377726213, 53.101018487859456 -12.822617949887306 M52.25980841936878 -13.409409678269451 C52.47991431782125 -13.255873331739785, 52.70002021627372 -13.102336985210117, 53.101018487859456 -12.822617949887306 M53.101018487859456 -12.822617949887306 C53.37485622731723 -12.604239639798019, 53.648693966775 -12.385861329708733, 53.90290432492461 -12.183135333906153 M53.101018487859456 -12.822617949887306 C53.36224538729521 -12.614296449127028, 53.62347228673097 -12.405974948366753, 53.90290432492461 -12.183135333906153 M53.90290432492461 -12.183135333906153 C54.07958148136687 -12.022681815046692, 54.256258637809125 -11.862228296187233, 54.662170809655784 -11.493589601563642 M53.90290432492461 -12.183135333906153 C54.20235275168071 -11.91118419569747, 54.501801178436814 -11.639233057488784, 54.662170809655784 -11.493589601563642 M54.662170809655784 -11.493589601563642 C54.82552205124525 -11.324916033236168, 54.98887329283471 -11.156242464908694, 55.37569795320505 -10.756814244181072 M54.662170809655784 -11.493589601563642 C54.843872541334726 -11.305967645615526, 55.02557427301367 -11.11834568966741, 55.37569795320505 -10.756814244181072 M55.37569795320505 -10.756814244181072 C55.59462759252107 -10.499647032391087, 55.8135572318371 -10.242479820601101, 56.04055371948848 -9.975836829739738 M55.37569795320505 -10.756814244181072 C55.59865268328859 -10.494918931741408, 55.821607413372135 -10.233023619301743, 56.04055371948848 -9.975836829739738 M56.04055371948848 -9.975836829739738 C56.18752004082768 -9.778915348052513, 56.334486362166885 -9.58199386636529, 56.65400607355129 -9.153866561954718 M56.04055371948848 -9.975836829739738 C56.22478258428934 -9.72898693450143, 56.40901144909021 -9.482137039263122, 56.65400607355129 -9.153866561954718 M56.65400607355129 -9.153866561954718 C56.85907484076561 -8.838825866839183, 57.06414360797993 -8.523785171723649, 57.213534208085534 -8.294281092968403 M56.65400607355129 -9.153866561954718 C56.8395398124787 -8.868836916177461, 57.025073551406116 -8.583807270400204, 57.213534208085534 -8.294281092968403 M57.213534208085534 -8.294281092968403 C57.353971115928076 -8.044921142315008, 57.49440802377061 -7.795561191661615, 57.716838901968 -7.400612643853364 M57.213534208085534 -8.294281092968403 C57.36825996306435 -8.019549847321894, 57.52298571804315 -7.744818601675384, 57.716838901968 -7.400612643853364 M57.716838901968 -7.400612643853364 C57.870288783429636 -7.081970681696785, 58.023738664891276 -6.7633287195402065, 58.161851968252996 -6.476533489958305 M57.716838901968 -7.400612643853364 C57.888193869761245 -7.044790386821724, 58.059548837554495 -6.688968129790084, 58.161851968252996 -6.476533489958305 M58.161851968252996 -6.476533489958305 C58.254664870993665 -6.247283825773462, 58.347477773734326 -6.01803416158862, 58.546744752796165 -5.52584087074093 M58.161851968252996 -6.476533489958305 C58.23883132049076 -6.286393001636504, 58.315810672728524 -6.0962525133147025, 58.546744752796165 -5.52584087074093 M58.546744752796165 -5.52584087074093 C58.63339453183287 -5.264865542049806, 58.720044310869575 -5.003890213358682, 58.86993564858657 -4.552441386096524 M58.546744752796165 -5.52584087074093 C58.64648557815885 -5.225437396290914, 58.74622640352155 -4.925033921840899, 58.86993564858657 -4.552441386096524 M58.86993564858657 -4.552441386096524 C58.96906908431146 -4.174402630974691, 59.06820252003635 -3.7963638758528577, 59.130096594909176 -3.560334943301032 M58.86993564858657 -4.552441386096524 C58.961274168592034 -4.204128022950713, 59.05261268859749 -3.8558146598049037, 59.130096594909176 -3.560334943301032 M59.130096594909176 -3.560334943301032 C59.18055918557508 -3.3012202055039634, 59.23102177624097 -3.042105467706895, 59.326158534631205 -2.5535983205340735 M59.130096594909176 -3.560334943301032 C59.17627630907265 -3.323211871157672, 59.22245602323611 -3.0860887990143113, 59.326158534631205 -2.5535983205340735 M59.326158534631205 -2.5535983205340735 C59.367788922253105 -2.2307212549884916, 59.409419309875005 -1.9078441894429092, 59.45731580718717 -1.536368414522911 M59.326158534631205 -2.5535983205340735 C59.361285057150376 -2.2811639483917956, 59.396411579669554 -2.008729576249517, 59.45731580718717 -1.536368414522911 M59.45731580718717 -1.536368414522911 C59.47548657942852 -1.2533439696805488, 59.49365735166987 -0.9703195248381865, 59.523029459211 -0.5128252411464826 M59.45731580718717 -1.536368414522911 C59.470487064178364 -1.3312154552377848, 59.48365832116956 -1.1260624959526586, 59.523029459211 -0.5128252411464826 M59.523029459211 -0.5128252411464826 C59.523029459211 -0.14317045050773486, 59.523029459211 0.22648434013101293, 59.523029459211 0.5128252411464788 M59.523029459211 -0.5128252411464826 C59.523029459211 -0.1544587787136068, 59.523029459211 0.20390768371926904, 59.523029459211 0.5128252411464788 M59.523029459211 0.5128252411464788 C59.50220920356331 0.8371175286672023, 59.48138894791561 1.1614098161879258, 59.45731580718717 1.5363684145229002 M59.523029459211 0.5128252411464788 C59.50400954016866 0.8090758328332771, 59.484989621126324 1.1053264245200753, 59.45731580718717 1.5363684145229002 M59.45731580718717 1.5363684145229002 C59.412082401727204 1.8871897749241748, 59.366848996267244 2.2380111353254497, 59.326158534631205 2.5535983205340624 M59.45731580718717 1.5363684145229002 C59.41423956139861 1.8704592704921255, 59.37116331561005 2.204550126461351, 59.326158534631205 2.5535983205340624 M59.326158534631205 2.5535983205340624 C59.258893052913784 2.898992352588433, 59.191627571196356 3.2443863846428034, 59.130096594909176 3.5603349433010285 M59.326158534631205 2.5535983205340624 C59.25684727908843 2.9094969688071286, 59.18753602354567 3.265395617080195, 59.130096594909176 3.5603349433010285 M59.130096594909176 3.5603349433010285 C59.04586270394953 3.8815552767294363, 58.96162881298988 4.202775610157844, 58.86993564858657 4.552441386096513 M59.130096594909176 3.5603349433010285 C59.0295847623399 3.9436301229914568, 58.92907292977063 4.326925302681885, 58.86993564858657 4.552441386096513 M58.86993564858657 4.552441386096513 C58.7416069073164 4.938947108394003, 58.61327816604624 5.325452830691492, 58.546744752796165 5.525840870740919 M58.86993564858657 4.552441386096513 C58.74160587283891 4.938950224075392, 58.61327609709125 5.325459062054272, 58.546744752796165 5.525840870740919 M58.546744752796165 5.525840870740919 C58.39879863566322 5.891270640402883, 58.25085251853028 6.256700410064847, 58.161851968253 6.4765334899583005 M58.546744752796165 5.525840870740919 C58.43109164728245 5.8115062773604835, 58.315438541768735 6.097171683980047, 58.161851968253 6.4765334899583005 M58.161851968253 6.4765334899583005 C58.00341967882434 6.805521528864847, 57.84498738939569 7.134509567771393, 57.716838901968 7.400612643853361 M58.161851968253 6.4765334899583005 C58.03640860812888 6.737019311313963, 57.910965248004764 6.997505132669626, 57.716838901968 7.400612643853361 M57.716838901968 7.400612643853361 C57.51807452791238 7.753538917064489, 57.31931015385677 8.106465190275618, 57.21353420808554 8.294281092968399 M57.716838901968 7.400612643853361 C57.54689292614561 7.7023689328221465, 57.37694695032321 8.004125221790932, 57.21353420808554 8.294281092968399 M57.21353420808554 8.294281092968399 C57.018580489083455 8.59378235775918, 56.823626770081376 8.89328362254996, 56.6540060735513 9.15386656195471 M57.21353420808554 8.294281092968399 C57.07209746160094 8.511565916653026, 56.930660715116346 8.728850740337656, 56.6540060735513 9.15386656195471 M56.6540060735513 9.15386656195471 C56.47754107797623 9.39031357973349, 56.30107608240115 9.626760597512272, 56.04055371948848 9.975836829739734 M56.6540060735513 9.15386656195471 C56.46764954566315 9.403567331895879, 56.281293017775006 9.653268101837048, 56.04055371948848 9.975836829739734 M56.04055371948848 9.975836829739734 C55.82196073047435 10.232608592929168, 55.60336774146022 10.489380356118602, 55.375697953205055 10.756814244181063 M56.04055371948848 9.975836829739734 C55.8239201941205 10.230306895433761, 55.607286668752515 10.48477696112779, 55.375697953205055 10.756814244181063 M55.375697953205055 10.756814244181063 C55.18885693387317 10.949742936574205, 55.00201591454128 11.142671628967346, 54.662170809655784 11.493589601563638 M55.375697953205055 10.756814244181063 C55.13107990482609 11.00940246264762, 54.88646185644712 11.261990681114176, 54.662170809655784 11.493589601563638 M54.662170809655784 11.493589601563638 C54.50387743311492 11.637347457924811, 54.34558405657407 11.781105314285984, 53.90290432492463 12.183135333906142 M54.662170809655784 11.493589601563638 C54.39603753212288 11.73528480271836, 54.12990425458998 11.97698000387308, 53.90290432492463 12.183135333906142 M53.90290432492463 12.183135333906142 C53.62491911226935 12.40482114350154, 53.34693389961408 12.62650695309694, 53.10101848785946 12.822617949887304 M53.90290432492463 12.183135333906142 C53.715890494999094 12.332273886624735, 53.52887666507356 12.481412439343329, 53.10101848785946 12.822617949887304 M53.10101848785946 12.822617949887304 C52.825624251981495 13.014721047211449, 52.55023001610352 13.206824144535592, 52.25980841936879 13.409409678269446 M53.10101848785946 12.822617949887304 C52.784508126756975 13.043401876279695, 52.46799776565449 13.264185802672086, 52.25980841936879 13.409409678269446 M52.25980841936879 13.409409678269446 C51.93524298421433 13.606163152418292, 51.610677549059865 13.802916626567137, 51.382730832063004 13.94109926597423 M52.25980841936879 13.409409678269446 C52.03992287007965 13.542705590439441, 51.82003732079051 13.676001502609434, 51.382730832063004 13.94109926597423 M51.382730832063004 13.94109926597423 C51.11429663661316 14.081141213800104, 50.84586244116333 14.221183161625977, 50.47338982588093 14.415501886438705 M51.382730832063004 13.94109926597423 C51.04882249392409 14.1152990321028, 50.71491415578518 14.289498798231373, 50.47338982588093 14.415501886438705 M50.47338982588093 14.415501886438705 C50.19959686305164 14.53670190930356, 49.92580390022234 14.657901932168413, 49.535522078069995 14.830668117536346 M50.47338982588093 14.415501886438705 C50.113276748251245 14.574913263530464, 49.75316367062157 14.734324640622223, 49.535522078069995 14.830668117536346 M49.535522078069995 14.830668117536346 C49.26386415943713 14.930640742771514, 48.99220624080425 15.030613368006682, 48.57298148837794 15.184891952170695 M49.535522078069995 14.830668117536346 C49.33619326657391 14.904022962742241, 49.13686445507782 14.977377807948137, 48.57298148837794 15.184891952170695 M48.57298148837794 15.184891952170695 C48.19533915565563 15.296974214237622, 47.81769682293332 15.409056476304547, 47.58972334255213 15.476717808624468 M48.57298148837794 15.184891952170695 C48.23272693613471 15.285877717243894, 47.89247238389149 15.386863482317095, 47.58972334255213 15.476717808624468 M47.58972334255213 15.476717808624468 C47.3047161262917 15.541768845890013, 47.01970891003127 15.60681988315556, 46.58978805922196 15.704946511857045 M47.58972334255213 15.476717808624468 C47.34337066932895 15.53294619868623, 47.09701799610576 15.58917458874799, 46.58978805922196 15.704946511857045 M46.58978805922196 15.704946511857045 C46.22631533744406 15.76370996274104, 45.86284261566617 15.822473413625033, 45.5772845869521 15.868640221171937 M46.58978805922196 15.704946511857045 C46.285297828784586 15.754174130957155, 45.98080759834721 15.803401750057267, 45.5772845869521 15.868640221171937 M45.5772845869521 15.868640221171937 C45.194102168921155 15.9056053681951, 44.8109197508902 15.942570515218266, 44.556373519691405 15.967126284005381 M45.5772845869521 15.868640221171937 C45.36988880927208 15.888647442414813, 45.16249303159206 15.908654663657689, 44.556373519691405 15.967126284005381 M44.556373519691405 15.967126284005381 C44.17428435029462 15.979379139976485, 43.79219518089784 15.99163199594759, 43.53125 16 M44.556373519691405 15.967126284005381 C44.33745057873587 15.974146716614172, 44.11852763778034 15.98116714922296, 43.53125 16 M43.53125 16 C43.53125 16, 43.53125 16, 43.53125 16 M43.53125 16 C43.53125 16, 43.53125 16, 43.53125 16 M43.53125 16 C10.197028839596008 16, -23.137192320807983 16, -43.53125 16 M43.53125 16 C22.16590254506913 16, 0.8005550901382605 16, -43.53125 16 M-43.53125 16 C-43.772026158443026 15.992278777241093, -44.01280231688605 15.984557554482187, -44.5563735196914 15.967126284005381 M-43.53125 16 C-43.85372410242308 15.989658883193055, -44.176198204846166 15.979317766386108, -44.5563735196914 15.967126284005381 M-44.5563735196914 15.967126284005381 C-44.77575755832749 15.945962569646067, -44.995141596963585 15.92479885528675, -45.577284586952096 15.868640221171937 M-44.5563735196914 15.967126284005381 C-44.94776904642042 15.929368828263822, -45.33916457314944 15.891611372522265, -45.577284586952096 15.868640221171937 M-45.577284586952096 15.868640221171937 C-45.84813798352139 15.824850744514075, -46.11899138009069 15.781061267856213, -46.58978805922196 15.704946511857045 M-45.577284586952096 15.868640221171937 C-45.882876507598276 15.819234489342602, -46.18846842824446 15.769828757513267, -46.58978805922196 15.704946511857045 M-46.58978805922196 15.704946511857045 C-46.88626561071396 15.637277445425825, -47.18274316220597 15.569608378994605, -47.58972334255211 15.476717808624471 M-46.58978805922196 15.704946511857045 C-46.799123458170435 15.657167073088198, -47.0084588571189 15.609387634319349, -47.58972334255211 15.476717808624471 M-47.58972334255211 15.476717808624471 C-47.84168103896999 15.401938086880582, -48.09363873538786 15.327158365136695, -48.57298148837792 15.184891952170702 M-47.58972334255211 15.476717808624471 C-47.96982738712884 15.363904923400945, -48.349931431705556 15.251092038177418, -48.57298148837792 15.184891952170702 M-48.57298148837792 15.184891952170702 C-48.803330762155 15.100121290095393, -49.03368003593207 15.015350628020085, -49.53552207806999 14.830668117536348 M-48.57298148837792 15.184891952170702 C-48.80514162377713 15.099454876279026, -49.037301759176344 15.01401780038735, -49.53552207806999 14.830668117536348 M-49.53552207806999 14.830668117536348 C-49.76764103648664 14.727915940209556, -49.99975999490328 14.625163762882764, -50.47338982588093 14.415501886438708 M-49.53552207806999 14.830668117536348 C-49.878195166869574 14.678976906160788, -50.22086825566916 14.527285694785226, -50.47338982588093 14.415501886438708 M-50.47338982588093 14.415501886438708 C-50.819528768918985 14.234921421568329, -51.16566771195704 14.05434095669795, -51.382730832063 13.941099265974234 M-50.47338982588093 14.415501886438708 C-50.67418238892483 14.31074853491248, -50.874974951968724 14.205995183386255, -51.382730832063 13.941099265974234 M-51.382730832063 13.941099265974234 C-51.65981775813334 13.773127543046868, -51.93690468420369 13.605155820119505, -52.25980841936877 13.409409678269457 M-51.382730832063 13.941099265974234 C-51.706769054896505 13.744665391032594, -52.03080727773001 13.548231516090953, -52.25980841936877 13.409409678269457 M-52.25980841936877 13.409409678269457 C-52.48482333699591 13.252449012471555, -52.70983825462305 13.095488346673655, -53.101018487859456 12.822617949887308 M-52.25980841936877 13.409409678269457 C-52.45170414536168 13.275551526848894, -52.64359987135459 13.141693375428332, -53.101018487859456 12.822617949887308 M-53.101018487859456 12.822617949887308 C-53.31633311018251 12.650910268347403, -53.531647732505576 12.4792025868075, -53.90290432492461 12.183135333906154 M-53.101018487859456 12.822617949887308 C-53.41295257703284 12.573858814686261, -53.72488666620623 12.325099679485215, -53.90290432492461 12.183135333906154 M-53.90290432492461 12.183135333906154 C-54.06450305685128 12.036375641238502, -54.226101788777946 11.88961594857085, -54.66217080965578 11.493589601563649 M-53.90290432492461 12.183135333906154 C-54.05764591497776 12.042603116057998, -54.21238750503091 11.902070898209844, -54.66217080965578 11.493589601563649 M-54.66217080965578 11.493589601563649 C-54.86891096066468 11.280113421964895, -55.07565111167357 11.066637242366141, -55.37569795320505 10.756814244181069 M-54.66217080965578 11.493589601563649 C-54.88105065774699 11.267578188039742, -55.099930505838195 11.041566774515838, -55.37569795320505 10.756814244181069 M-55.37569795320505 10.756814244181069 C-55.562859398476704 10.536963760777045, -55.750020843748366 10.317113277373023, -56.04055371948847 9.97583682973974 M-55.37569795320505 10.756814244181069 C-55.58244341194796 10.513959264191774, -55.78918887069088 10.27110428420248, -56.04055371948847 9.97583682973974 M-56.04055371948847 9.97583682973974 C-56.19702838561464 9.766175032266021, -56.353503051740795 9.556513234792305, -56.65400607355129 9.15386656195472 M-56.04055371948847 9.97583682973974 C-56.219309863387274 9.73631988193507, -56.398066007286076 9.4968029341304, -56.65400607355129 9.15386656195472 M-56.65400607355129 9.15386656195472 C-56.874537840822484 8.815070546354923, -57.09506960809368 8.476274530755125, -57.213534208085534 8.29428109296841 M-56.65400607355129 9.15386656195472 C-56.870658037209225 8.821030966578038, -57.087310000867156 8.488195371201353, -57.213534208085534 8.29428109296841 M-57.213534208085534 8.29428109296841 C-57.41319762176473 7.939758483867981, -57.612861035443935 7.585235874767552, -57.716838901968 7.400612643853366 M-57.213534208085534 8.29428109296841 C-57.41102615078056 7.943614150485668, -57.60851809347558 7.592947208002926, -57.716838901968 7.400612643853366 M-57.716838901968 7.400612643853366 C-57.84303509114797 7.138563556855278, -57.96923128032793 6.876514469857191, -58.161851968252996 6.476533489958307 M-57.716838901968 7.400612643853366 C-57.85968411892751 7.1039914944389215, -58.002529335887026 6.807370345024477, -58.161851968252996 6.476533489958307 M-58.161851968252996 6.476533489958307 C-58.24073799794023 6.281683471473219, -58.31962402762746 6.086833452988131, -58.546744752796165 5.525840870740931 M-58.161851968252996 6.476533489958307 C-58.28251577558345 6.1784915529760855, -58.4031795829139 5.880449615993864, -58.546744752796165 5.525840870740931 M-58.546744752796165 5.525840870740931 C-58.62424159291282 5.292432735754229, -58.70173843302947 5.0590246007675255, -58.86993564858657 4.552441386096519 M-58.546744752796165 5.525840870740931 C-58.653734631955814 5.203604401234356, -58.760724511115455 4.881367931727782, -58.86993564858657 4.552441386096519 M-58.86993564858657 4.552441386096519 C-58.941791279211614 4.278424724095913, -59.01364690983666 4.004408062095307, -59.130096594909176 3.5603349433010343 M-58.86993564858657 4.552441386096519 C-58.92465517417761 4.3437721194254655, -58.979374699768655 4.135102852754412, -59.130096594909176 3.5603349433010343 M-59.130096594909176 3.5603349433010343 C-59.18744098134619 3.2658836386873262, -59.24478536778321 2.971432334073618, -59.326158534631205 2.5535983205340753 M-59.130096594909176 3.5603349433010343 C-59.20471594430266 3.177180354970566, -59.27933529369615 2.7940257666400976, -59.326158534631205 2.5535983205340753 M-59.326158534631205 2.5535983205340753 C-59.35888574764277 2.2997725191355474, -59.39161296065434 2.045946717737019, -59.45731580718717 1.5363684145229202 M-59.326158534631205 2.5535983205340753 C-59.36996926866681 2.213810918761913, -59.41378000270241 1.8740235169897503, -59.45731580718717 1.5363684145229202 M-59.45731580718717 1.5363684145229202 C-59.47461626689614 1.2668997898760028, -59.491916726605105 0.9974311652290857, -59.523029459211 0.5128252411464846 M-59.45731580718717 1.5363684145229202 C-59.472963940906375 1.2926361009001222, -59.48861207462558 1.0489037872773241, -59.523029459211 0.5128252411464846 M-59.523029459211 0.5128252411464846 C-59.523029459211 0.2431269427839447, -59.523029459211 -0.026571355578595246, -59.523029459211 -0.5128252411464769 M-59.523029459211 0.5128252411464846 C-59.523029459211 0.2145183457801762, -59.523029459211 -0.08378854958613224, -59.523029459211 -0.5128252411464769 M-59.523029459211 -0.5128252411464769 C-59.504278317949044 -0.8048894019503481, -59.48552717668708 -1.0969535627542193, -59.45731580718717 -1.5363684145228982 M-59.523029459211 -0.5128252411464769 C-59.50455253276299 -0.8006182848807927, -59.48607560631499 -1.0884113286151085, -59.45731580718717 -1.5363684145228982 M-59.45731580718717 -1.5363684145228982 C-59.40567365055839 -1.9368947834384402, -59.35403149392961 -2.3374211523539823, -59.326158534631205 -2.5535983205340678 M-59.45731580718717 -1.5363684145228982 C-59.40535884013583 -1.9393363909094572, -59.35340187308449 -2.342304367296016, -59.326158534631205 -2.5535983205340678 M-59.326158534631205 -2.5535983205340678 C-59.26132595004797 -2.8864999399973907, -59.196493365464725 -3.2194015594607133, -59.130096594909176 -3.5603349433010267 M-59.326158534631205 -2.5535983205340678 C-59.26384304033027 -2.8735752133849632, -59.20152754602934 -3.1935521062358587, -59.130096594909176 -3.5603349433010267 M-59.130096594909176 -3.5603349433010267 C-59.04570450023166 -3.882158576071614, -58.96131240555414 -4.203982208842201, -58.869935648586576 -4.552441386096511 M-59.130096594909176 -3.5603349433010267 C-59.03326187444709 -3.929607700856278, -58.936427153985015 -4.29888045841153, -58.869935648586576 -4.552441386096511 M-58.869935648586576 -4.552441386096511 C-58.803482881936446 -4.752586531436184, -58.737030115286316 -4.952731676775857, -58.54674475279617 -5.525840870740911 M-58.869935648586576 -4.552441386096511 C-58.77395137186717 -4.841530734557697, -58.677967095147764 -5.130620083018883, -58.54674475279617 -5.525840870740911 M-58.54674475279617 -5.525840870740911 C-58.423821325736505 -5.829464112141077, -58.30089789867684 -6.133087353541241, -58.161851968253 -6.476533489958299 M-58.54674475279617 -5.525840870740911 C-58.40251301725764 -5.882096046051997, -58.25828128171911 -6.238351221363082, -58.161851968253 -6.476533489958299 M-58.161851968253 -6.476533489958299 C-57.99098072444786 -6.831351283778613, -57.82010948064271 -7.186169077598928, -57.716838901968 -7.400612643853359 M-58.161851968253 -6.476533489958299 C-57.995246991451786 -6.822492289061459, -57.82864201465057 -7.16845108816462, -57.716838901968 -7.400612643853359 M-57.716838901968 -7.400612643853359 C-57.5548493548748 -7.688241487937687, -57.3928598077816 -7.975870332022016, -57.213534208085534 -8.294281092968404 M-57.716838901968 -7.400612643853359 C-57.57565551935073 -7.651298036058061, -57.434472136733454 -7.901983428262764, -57.213534208085534 -8.294281092968404 M-57.213534208085534 -8.294281092968404 C-57.0172202850089 -8.595871996483636, -56.82090636193226 -8.897462899998867, -56.654006073551294 -9.153866561954715 M-57.213534208085534 -8.294281092968404 C-56.992538631558645 -8.633789644135181, -56.77154305503175 -8.973298195301956, -56.654006073551294 -9.153866561954715 M-56.654006073551294 -9.153866561954715 C-56.5222251740341 -9.330440961820834, -56.3904442745169 -9.507015361686953, -56.04055371948848 -9.975836829739734 M-56.654006073551294 -9.153866561954715 C-56.427417824081616 -9.4574741736299, -56.20082957461194 -9.761081785305084, -56.04055371948848 -9.975836829739734 M-56.04055371948848 -9.975836829739734 C-55.80179751873301 -10.256293448759791, -55.56304131797755 -10.536750067779849, -55.375697953205055 -10.756814244181063 M-56.04055371948848 -9.975836829739734 C-55.83610326404717 -10.215995968261577, -55.63165280860586 -10.456155106783418, -55.375697953205055 -10.756814244181063 M-55.375697953205055 -10.756814244181063 C-55.12357205075833 -11.017154938378864, -54.871446148311605 -11.277495632576665, -54.66217080965579 -11.493589601563633 M-55.375697953205055 -10.756814244181063 C-55.11367539633282 -11.027374046603638, -54.85165283946059 -11.297933849026213, -54.66217080965579 -11.493589601563633 M-54.66217080965579 -11.493589601563633 C-54.447937940006334 -11.688150225488153, -54.233705070356876 -11.882710849412675, -53.90290432492463 -12.18313533390614 M-54.66217080965579 -11.493589601563633 C-54.407294437278175 -11.725061579297712, -54.15241806490056 -11.95653355703179, -53.90290432492463 -12.18313533390614 M-53.90290432492463 -12.18313533390614 C-53.65218735789855 -12.383075443250748, -53.40147039087247 -12.583015552595354, -53.10101848785946 -12.822617949887302 M-53.90290432492463 -12.18313533390614 C-53.69371899396618 -12.349955068690063, -53.484533663007724 -12.516774803473986, -53.10101848785946 -12.822617949887302 M-53.10101848785946 -12.822617949887302 C-52.79827339170172 -13.033799823342955, -52.49552829554398 -13.24498169679861, -52.25980841936879 -13.409409678269444 M-53.10101848785946 -12.822617949887302 C-52.87725601325975 -12.978704965646655, -52.653493538660044 -13.134791981406005, -52.25980841936879 -13.409409678269444 M-52.25980841936879 -13.409409678269444 C-52.04857000588521 -13.5374636458979, -51.837331592401625 -13.665517613526353, -51.382730832063004 -13.941099265974229 M-52.25980841936879 -13.409409678269444 C-51.955903139091035 -13.59363884511948, -51.65199785881329 -13.777868011969515, -51.382730832063004 -13.941099265974229 M-51.382730832063004 -13.941099265974229 C-51.18947013334745 -14.041923248704748, -50.99620943463189 -14.14274723143527, -50.473389825880936 -14.415501886438705 M-51.382730832063004 -13.941099265974229 C-51.05149818651982 -14.113903124989474, -50.720265540976634 -14.28670698400472, -50.473389825880936 -14.415501886438705 M-50.473389825880936 -14.415501886438705 C-50.20267991223969 -14.535337134883413, -49.93196999859844 -14.655172383328123, -49.535522078069995 -14.830668117536344 M-50.473389825880936 -14.415501886438705 C-50.18172922245883 -14.544611383769272, -49.89006861903671 -14.67372088109984, -49.535522078069995 -14.830668117536344 M-49.535522078069995 -14.830668117536344 C-49.28229438979895 -14.92385824763118, -49.0290667015279 -15.017048377726015, -48.57298148837794 -15.184891952170695 M-49.535522078069995 -14.830668117536344 C-49.30693560124125 -14.914790054039551, -49.078349124412505 -14.998911990542759, -48.57298148837794 -15.184891952170695 M-48.57298148837794 -15.184891952170695 C-48.197042043806775 -15.296468805973003, -47.821102599235616 -15.408045659775311, -47.58972334255213 -15.476717808624466 M-48.57298148837794 -15.184891952170695 C-48.260772928911244 -15.27755381380424, -47.94856436944455 -15.370215675437786, -47.58972334255213 -15.476717808624466 M-47.58972334255213 -15.476717808624466 C-47.22521370669249 -15.559914754361758, -46.86070407083285 -15.643111700099052, -46.589788059221966 -15.704946511857043 M-47.58972334255213 -15.476717808624466 C-47.29354482717647 -15.544318622013524, -46.9973663118008 -15.611919435402582, -46.589788059221966 -15.704946511857043 M-46.589788059221966 -15.704946511857043 C-46.31008372118943 -15.750166940090606, -46.030379383156884 -15.795387368324171, -45.5772845869521 -15.868640221171937 M-46.589788059221966 -15.704946511857043 C-46.311609459789736 -15.749920270505989, -46.03343086035751 -15.794894029154932, -45.5772845869521 -15.868640221171937 M-45.5772845869521 -15.868640221171937 C-45.308773461631255 -15.894543166499764, -45.040262336310406 -15.920446111827593, -44.556373519691405 -15.967126284005381 M-45.5772845869521 -15.868640221171937 C-45.208154659768795 -15.904249741303623, -44.83902473258548 -15.939859261435307, -44.556373519691405 -15.967126284005381 M-44.556373519691405 -15.967126284005381 C-44.27311053202546 -15.97620997668187, -43.98984754435952 -15.98529366935836, -43.53125000000001 -16 M-44.556373519691405 -15.967126284005381 C-44.23272140313654 -15.977505177432668, -43.909069286581676 -15.987884070859954, -43.53125000000001 -16 M-43.53125000000001 -16 C-43.53125000000001 -16, -43.53125000000001 -16, -43.53125 -16 M-43.53125000000001 -16 C-43.53125000000001 -16, -43.53125000000001 -16, -43.53125 -16" stroke="#999" stroke-width="1.3" fill="none" stroke-dasharray="0 0" style=""/></g><g class="label" style="" transform="translate(0, -8.5)"><rect/><g><rect class="background" style="stroke: none"/><text y="-10.1" style=""><tspan class="text-outer-tspan row" x="0" y="-0.1em" dy="1.1em"><tspan font-style="normal" class="text-inner-tspan" font-weight="normal">ISBN</tspan><tspan font-style="normal" class="text-inner-tspan" font-weight="normal"> entered</tspan></tspan></text></g></g></g><g class="node default" id="my-svg-flowchart-B-1" data-look="classic" transform="translate(191.23828125, 113.5)"><rect class="basic label-container" style="" x="-103.41796875" y="-23.5" width="206.8359375" height="47"/><g class="label" style="" transform="translate(0, -8.5)"><rect/><g><rect class="background" style="stroke: none"/><text y="-10.1" style=""><tspan class="text-outer-tspan row" x="0" y="-0.1em" dy="1.1em"><tspan font-style="normal" class="text-inner-tspan" font-weight="normal">Normalize</tspan><tspan font-style="normal" class="text-inner-tspan" font-weight="normal"> &amp;</tspan><tspan font-style="normal" class="text-inner-tspan" font-weight="normal"> validate</tspan></tspan></text></g></g></g><g class="node default" id="my-svg-flowchart-C-3" data-look="classic" transform="translate(191.23828125, 271.46484375)"><polygon points="84.46484375,0 168.9296875,-84.46484375 84.46484375,-168.9296875 0,-84.46484375" class="label-container" transform="translate(-83.96484375, 84.46484375)"/><g class="label" style="" transform="translate(0, -8.5)"><rect/><g><rect class="background" style="stroke: none"/><text y="-10.1" style=""><tspan class="text-outer-tspan row" x="0" y="-0.1em" dy="1.1em"><tspan font-style="normal" class="text-inner-tspan" font-weight="normal">Checksum</tspan><tspan font-style="normal" class="text-inner-tspan" font-weight="normal"> valid?</tspan></tspan></text></g></g></g><g class="node default" id="my-svg-flowchart-D-5" data-look="classic" transform="translate(263.984375, 945.2031326293945)"><rect class="basic label-container" style="fill:#ffebee !important;stroke:#c62828 !important" x="-105.48828125" y="-23.5" width="210.9765625" height="47"/><g class="label" style="" transform="translate(0, -8.5)"><rect/><g><rect class="background" style="stroke: none"/><text y="-10.1" style=""><tspan class="text-outer-tspan row" x="0" y="-0.1em" dy="1.1em"><tspan font-style="normal" class="text-inner-tspan" font-weight="normal">Show</tspan><tspan font-style="normal" class="text-inner-tspan" font-weight="normal"> validation</tspan><tspan font-style="normal" class="text-inner-tspan" font-weight="normal"> error</tspan></tspan></text></g></g></g><g class="node default" id="my-svg-flowchart-E-7" data-look="classic" transform="translate(304.359375, 1127.060947418213)"><rect class="basic label-container" style="fill:#fff3e0 !important;stroke:#e65100 !important" x="-93.5859375" y="-32.29999923706055" width="187.171875" height="64.5999984741211"/><g class="label" style="" transform="translate(0, -17.299999237060547)"><rect/><g><rect class="background" style="stroke: none"/><text y="-10.1" style=""><tspan class="text-outer-tspan row" x="0" y="-0.1em" dy="1.1em"><tspan font-style="normal" class="text-inner-tspan" font-weight="normal">Manual</tspan><tspan font-style="normal" class="text-inner-tspan" font-weight="normal"> entry</tspan></tspan><tspan class="text-outer-tspan row" x="0" y="1em" dy="1.1em"><tspan font-style="normal" class="text-inner-tspan" font-weight="normal">(always</tspan><tspan font-style="normal" class="text-inner-tspan" font-weight="normal"> available)</tspan></tspan></text></g></g></g><g class="node default" id="my-svg-flowchart-F-9" data-look="classic" transform="translate(118.4921875, 450.4296875)"><rect class="basic label-container" style="" x="-100.265625" y="-23.5" width="200.53125" height="47"/><g class="label" style="" transform="translate(0, -8.5)"><rect/><g><rect class="background" style="stroke: none"/><text y="-10.1" style=""><tspan class="text-outer-tspan row" x="0" y="-0.1em" dy="1.1em"><tspan font-style="normal" class="text-inner-tspan" font-weight="normal">Query</tspan><tspan font-style="normal" class="text-inner-tspan" font-weight="normal"> Open</tspan><tspan font-style="normal" class="text-inner-tspan" font-weight="normal"> Library</tspan></tspan></text></g></g></g><g class="node default" id="my-svg-flowchart-G-11" data-look="classic" transform="translate(118.4921875, 602.4875030517578)"><polygon points="78.55781173706055,0 157.1156234741211,-78.55781173706055 78.55781173706055,-157.1156234741211 0,-78.55781173706055" class="label-container" transform="translate(-78.05781173706055, 78.55781173706055)"/><g class="label" style="" transform="translate(0, -17.299999237060547)"><rect/><g><rect class="background" style="stroke: none"/><text y="-10.1" style=""><tspan class="text-outer-tspan row" x="0" y="-0.1em" dy="1.1em"><tspan font-style="normal" class="text-inner-tspan" font-weight="normal">Found</tspan><tspan font-style="normal" class="text-inner-tspan" font-weight="normal"> useful</tspan></tspan><tspan class="text-outer-tspan row" x="0" y="1em" dy="1.1em"><tspan font-style="normal" class="text-inner-tspan" font-weight="normal">metadata?</tspan></tspan></text></g></g></g><g class="node default" id="my-svg-flowchart-H-13" data-look="classic" transform="translate(118.4921875, 784.3453178405762)"><rect class="basic label-container" style="fill:#e8f5e9 !important;stroke:#2e7d32 !important" x="-110.4921875" y="-32.29999923706055" width="220.984375" height="64.5999984741211"/><g class="label" style="" transform="translate(0, -17.299999237060547)"><rect/><g><rect class="background" style="stroke: none"/><text y="-10.1" style=""><tspan class="text-outer-tspan row" x="0" y="-0.1em" dy="1.1em"><tspan font-style="normal" class="text-inner-tspan" font-weight="normal">Return</tspan><tspan font-style="normal" class="text-inner-tspan" font-weight="normal"> metadata</tspan></tspan><tspan class="text-outer-tspan row" x="0" y="1em" dy="1.1em"><tspan font-style="normal" class="text-inner-tspan" font-weight="normal">Provider:</tspan><tspan font-style="normal" class="text-inner-tspan" font-weight="normal"> Open</tspan><tspan font-style="normal" class="text-inner-tspan" font-weight="normal"> Library</tspan></tspan></text></g></g></g><g class="node default" id="my-svg-flowchart-I-15" data-look="classic" transform="translate(550.4253921508789, 784.3453178405762)"><rect class="basic label-container" style="" x="-89.59375" y="-32.29999923706055" width="179.1875" height="64.5999984741211"/><g class="label" style="" transform="translate(0, -17.299999237060547)"><rect/><g><rect class="background" style="stroke: none"/><text y="-10.1" style=""><tspan class="text-outer-tspan row" x="0" y="-0.1em" dy="1.1em"><tspan font-style="normal" class="text-inner-tspan" font-weight="normal">Query</tspan><tspan font-style="normal" class="text-inner-tspan" font-weight="normal"> Let</tspan><tspan font-style="normal" class="text-inner-tspan" font-weight="normal"> Books</tspan></tspan><tspan class="text-outer-tspan row" x="0" y="1em" dy="1.1em"><tspan font-style="normal" class="text-inner-tspan" font-weight="normal">metadata</tspan><tspan font-style="normal" class="text-inner-tspan" font-weight="normal"> API</tspan></tspan></text></g></g></g><g class="node default" id="my-svg-flowchart-J-17" data-look="classic" transform="translate(550.4253921508789, 945.2031326293945)"><polygon points="78.55781173706055,0 157.1156234741211,-78.55781173706055 78.55781173706055,-157.1156234741211 0,-78.55781173706055" class="label-container" transform="translate(-78.05781173706055, 78.55781173706055)"/><g class="label" style="" transform="translate(0, -17.299999237060547)"><rect/><g><rect class="background" style="stroke: none"/><text y="-10.1" style=""><tspan class="text-outer-tspan row" x="0" y="-0.1em" dy="1.1em"><tspan font-style="normal" class="text-inner-tspan" font-weight="normal">Found</tspan><tspan font-style="normal" class="text-inner-tspan" font-weight="normal"> useful</tspan></tspan><tspan class="text-outer-tspan row" x="0" y="1em" dy="1.1em"><tspan font-style="normal" class="text-inner-tspan" font-weight="normal">metadata?</tspan></tspan></text></g></g></g><g class="node default" id="my-svg-flowchart-K-19" data-look="classic" transform="translate(598.3277359008789, 1127.060947418213)"><rect class="basic label-container" style="fill:#e8f5e9 !important;stroke:#2e7d32 !important" x="-114.5" y="-32.29999923706055" width="229" height="64.5999984741211"/><g class="label" style="" transform="translate(0, -17.299999237060547)"><rect/><g><rect class="background" style="stroke: none"/><text y="-10.1" style=""><tspan class="text-outer-tspan row" x="0" y="-0.1em" dy="1.1em"><tspan font-style="normal" class="text-inner-tspan" font-weight="normal">Return</tspan><tspan font-style="normal" class="text-inner-tspan" font-weight="normal"> metadata</tspan></tspan><tspan class="text-outer-tspan row" x="0" y="1em" dy="1.1em"><tspan font-style="normal" class="text-inner-tspan" font-weight="normal">Provider:</tspan><tspan font-style="normal" class="text-inner-tspan" font-weight="normal"> Let</tspan><tspan font-style="normal" class="text-inner-tspan" font-weight="normal"> Books</tspan><tspan font-style="normal" class="text-inner-tspan" font-weight="normal"> API</tspan></tspan></text></g></g></g></g></g></g><defs><filter id="my-svg-drop-shadow" height="130%" width="130%"><feDropShadow dx="4" dy="4" stdDeviation="0" flood-opacity="0.06" flood-color="#000000"/></filter></defs><defs><filter id="my-svg-drop-shadow-small" height="150%" width="150%"><feDropShadow dx="2" dy="2" stdDeviation="0" flood-opacity="0.06" flood-color="#000000"/></filter></defs><linearGradient id="my-svg-gradient" gradientUnits="objectBoundingBox" x1="0%" y1="0%" x2="100%" y2="0%"><stop offset="0%" stop-color="hsl(0, 0%, 83.3333333333%)" stop-opacity="1"/><stop offset="100%" stop-color="hsl(0, 0%, 88.9215686275%)" stop-opacity="1"/></linearGradient><text text-anchor="middle" x="360.41387939453125" y="-25" class="flowchartTitleText">ISBN Metadata Lookup Chain</text></svg>