<svg id="my-svg" width="100%" xmlns="http://www.w3.org/2000/svg" xmlns:xlink="http://www.w3.org/1999/xlink" class="flowchart" style="max-width: 776.582px; background-color: transparent;" viewBox="0 -49 776.58203125 1449.875" role="graphics-document document" aria-roledescription="flowchart-v2"><style>#my-svg{font-family:"trebuchet ms",verdana,arial,sans-serif;font-size:16px;fill:#000000;}@keyframes edge-animation-frame{from{stroke-dashoffset:0;}}@keyframes dash{to{stroke-dashoffset:0;}}#my-svg .edge-animation-slow{stroke-dasharray:9,5!important;stroke-dashoffset:900;animation:dash 50s linear infinite;stroke-linecap:round;}#my-svg .edge-animation-fast{stroke-dasharray:9,5!important;stroke-dashoffset:900;animation:dash 20s linear infinite;stroke-linecap:round;}#my-svg .error-icon{fill:#552222;}#my-svg .error-text{fill:#552222;stroke:#552222;}#my-svg .edge-thickness-normal{stroke-width:1px;}#my-svg .edge-thickness-thick{stroke-width:3.5px;}#my-svg .edge-pattern-solid{stroke-dasharray:0;}#my-svg .edge-thickness-invisible{stroke-width:0;fill:none;}#my-svg .edge-pattern-dashed{stroke-dasharray:3;}#my-svg .edge-pattern-dotted{stroke-dasharray:2;}#my-svg .marker{fill:#666;stroke:#666;}#my-svg .marker.cross{stroke:#666;}#my-svg svg{font-family:"trebuchet ms",verdana,arial,sans-serif;font-size:16px;}#my-svg p{margin:0;}#my-svg .label{font-family:"trebuchet ms",verdana,arial,sans-serif;color:#000000;}#my-svg .cluster-label text{fill:#333;}#my-svg .cluster-label span{color:#333;}#my-svg .cluster-label span p{background-color:transparent;}#my-svg .label text,#my-svg span{fill:#000000;color:#000000;}#my-svg .node rect,#my-svg .node circle,#my-svg .node ellipse,#my-svg .node polygon,#my-svg .node path{fill:#eee;stroke:#999;stroke-width:1px;}#my-svg .rough-node .label text,#my-svg .node .label text,#my-svg .image-shape .label,#my-svg .icon-shape .label{text-anchor:middle;}#my-svg .node .katex path{fill:#000;stroke:#000;stroke-width:1px;}#my-svg .rough-node .label,#my-svg .node .label,#my-svg .image-shape .label,#my-svg .icon-shape .label{text-align:center;}#my-svg .node.clickable{cursor:pointer;}#my-svg .root .anchor path{fill:#666!important;stroke-width:0;stroke:#666;}#my-svg .arrowheadPath{fill:#333333;}#my-svg .edgePath .path{stroke:#666;stroke-width:1px;}#my-svg .flowchart-link{stroke:#666;fill:none;}#my-svg .edgeLabel{background-color:white;text-align:center;}#my-svg .edgeLabel p{background-color:white;}#my-svg .edgeLabel rect{opacity:0.5;background-color:white;fill:white;}#my-svg .labelBkg{background-color:rgba(255, 255, 255, 0.5);}#my-svg .cluster rect{fill:hsl(0, 0%, 98.9215686275%);stroke:#707070;stroke-width:1px;}#my-svg .cluster text{fill:#333;}#my-svg .cluster span{color:#333;}#my-svg div.mermaidTooltip{position:absolute;text-align:center;max-width:200px;padding:2px;font-family:"trebuchet ms",verdana,arial,sans-serif;font-size:12px;background:hsl(-160, 0%, 93.3333333333%);border:1px solid #707070;border-radius:2px;pointer-events:none;z-index:100;}#my-svg .flowchartTitleText{text-anchor:middle;font-size:18px;fill:#000000;}#my-svg rect.text{fill:none;stroke-width:0;}#my-svg .icon-shape,#my-svg .image-shape{background-color:white;text-align:center;}#my-svg .icon-shape p,#my-svg .image-shape p{background-color:white;padding:2px;}#my-svg .icon-shape .label rect,#my-svg .image-shape .label rect{opacity:0.5;background-color:white;fill:white;}#my-svg .label-icon{display:inline-block;height:1em;overflow:visible;vertical-align:-0.125em;}#my-svg .node .label-icon path{fill:currentColor;stroke:revert;stroke-width:revert;}#my-svg .node .neo-node{stroke:#999;}#my-svg [data-look="neo"].node rect,#my-svg [data-look="neo"].cluster rect,#my-svg [data-look="neo"].node polygon{stroke:url(#my-svg-gradient);filter:drop-shadow( 1px 2px 2px rgba(185,185,185,1));}#my-svg [data-look="neo"].node path{stroke:url(#my-svg-gradient);stroke-width:1px;}#my-svg [data-look="neo"].node .outer-path{filter:drop-shadow( 1px 2px 2px rgba(185,185,185,1));}#my-svg [data-look="neo"].node .neo-line path{stroke:#999;filter:none;}#my-svg [data-look="neo"].node circle{stroke:url(#my-svg-gradient);filter:drop-shadow( 1px 2px 2px rgba(185,185,185,1));}#my-svg [data-look="neo"].node circle .state-start{fill:#000000;}#my-svg [data-look="neo"].icon-shape .icon{fill:url(#my-svg-gradient);filter:drop-shadow( 1px 2px 2px rgba(185,185,185,1));}#my-svg [data-look="neo"].icon-shape .icon-neo path{stroke:url(#my-svg-gradient);filter:drop-shadow( 1px 2px 2px rgba(185,185,185,1));}#my-svg :root{--mermaid-font-family:"trebuchet ms",verdana,arial,sans-serif;}</style><g><marker id="my-svg_flowchart-v2-pointEnd" class="marker flowchart-v2" viewBox="0 0 10 10" refX="5" refY="5" markerUnits="userSpaceOnUse" markerWidth="8" markerHeight="8" orient="auto"><path d="M 0 0 L 10 5 L 0 10 z" class="arrowMarkerPath" style="stroke-width: 1; stroke-dasharray: 1, 0;"/></marker><marker id="my-svg_flowchart-v2-pointStart" class="marker flowchart-v2" viewBox="0 0 10 10" refX="4.5" refY="5" markerUnits="userSpaceOnUse" markerWidth="8" markerHeight="8" orient="auto"><path d="M 0 5 L 10 10 L 10 0 z" class="arrowMarkerPath" style="stroke-width: 1; stroke-dasharray: 1, 0;"/></marker><marker id="my-svg_flowchart-v2-pointEnd-margin" class="marker flowchart-v2" viewBox="0 0 11.5 14" refX="11.5" refY="7" markerUnits="userSpaceOnUse" markerWidth="10.5" markerHeight="14" orient="auto"><path d="M 0 0 L 11.5 7 L 0 14 z" class="arrowMarkerPath" style="stroke-width: 0; stroke-dasharray: 1, 0;"/></marker><marker id="my-svg_flowchart-v2-pointStart-margin" class="marker flowchart-v2" viewBox="0 0 11.5 14" refX="1" refY="7" markerUnits="userSpaceOnUse" markerWidth="11.5" markerHeight="14" orient="auto"><polygon points="0,7 11.5,14 11.5,0" class="arrowMarkerPath" style="stroke-width: 0; stroke-dasharray: 1, 0;"/></marker><marker id="my-svg_flowchart-v2-circleEnd" class="marker flowchart-v2" viewBox="0 0 10 10" refX="11" refY="5" markerUnits="userSpaceOnUse" markerWidth="11" markerHeight="11" orient="auto"><circle cx="5" cy="5" r="5" class="arrowMarkerPath" style="stroke-width: 1; stroke-dasharray: 1, 0;"/></marker><marker id="my-svg_flowchart-v2-circleStart" class="marker flowchart-v2" viewBox="0 0 10 10" refX="-1" refY="5" markerUnits="userSpaceOnUse" markerWidth="11" markerHeight="11" orient="auto"><circle cx="5" cy="5" r="5" class="arrowMarkerPath" style="stroke-width: 1; stroke-dasharray: 1, 0;"/></marker><marker id="my-svg_flowchart-v2-circleEnd-margin" class="marker flowchart-v2" viewBox="0 0 10 10" refY="5" refX="12.25" markerUnits="userSpaceOnUse" markerWidth="14" markerHeight="14" orient="auto"><circle cx="5" cy="5" r="5" class="arrowMarkerPath" style="stroke-width: 0; stroke-dasharray: 1, 0;"/></marker><marker id="my-svg_flowchart-v2-circleStart-margin" class="marker flowchart-v2" viewBox="0 0 10 10" refX="-2" refY="5" markerUnits="userSpaceOnUse" markerWidth="14" markerHeight="14" orient="auto"><circle cx="5" cy="5" r="5" class="arrowMarkerPath" style="stroke-width: 0; stroke-dasharray: 1, 0;"/></marker><marker id="my-svg_flowchart-v2-crossEnd" class="marker cross flowchart-v2" viewBox="0 0 11 11" refX="12" refY="5.2" markerUnits="userSpaceOnUse" markerWidth="11" markerHeight="11" orient="auto"><path d="M 1,1 l 9,9 M 10,1 l -9,9" class="arrowMarkerPath" style="stroke-width: 2; stroke-dasharray: 1, 0;"/></marker><marker id="my-svg_flowchart-v2-crossStart" class="marker cross flowchart-v2" viewBox="0 0 11 11" refX="-1" refY="5.2" markerUnits="userSpaceOnUse" markerWidth="11" markerHeight="11" orient="auto"><path d="M 1,1 l 9,9 M 10,1 l -9,9" class="arrowMarkerPath" style="stroke-width: 2; stroke-dasharray: 1, 0;"/></marker><marker id="my-svg_flowchart-v2-crossEnd-margin" class="marker cross flowchart-v2" viewBox="0 0 15 15" refX="17.7" refY="7.5" markerUnits="userSpaceOnUse" markerWidth="12" markerHeight="12" orient="auto"><path d="M 1,1 L 14,14 M 1,14 L 14,1" class="arrowMarkerPath" style="stroke-width: 2.5;"/></marker><marker id="my-svg_flowchart-v2-crossStart-margin" class="marker cross flowchart-v2" viewBox="0 0 15 15" refX="-3.5" refY="7.5" markerUnits="userSpaceOnUse" markerWidth="12" markerHeight="12" orient="auto"><path d="M 1,1 L 14,14 M 1,14 L 14,1" class="arrowMarkerPath" style="stroke-width: 2.5; stroke-dasharray: 1, 0;"/></marker><g class="root"><g class="clusters"/><g class="edgePaths"><path d="M205.688,47.5L205.604,51.583C205.521,55.667,205.354,63.833,205.271,71.417C205.188,79,205.188,86,205.188,89.5L205.188,93" id="my-svg-L_A_B_0" class="edge-thickness-normal edge-pattern-solid edge-thickness-normal edge-pattern-solid flowchart-link" style=";" data-edge="true" data-et="edge" data-id="L_A_B_0" data-points="W3sieCI6MjA1LjY4NzUsInkiOjQ3LjUwMDAwMDAwMDAwMDAxfSx7IngiOjIwNS4xODc1LCJ5Ijo3Mn0seyJ4IjoyMDUuMTg3NSwieSI6OTd9XQ==" data-look="classic" marker-end="url(#my-svg_flowchart-v2-pointEnd)"/><path d="M205.188,151L205.188,155.167C205.188,159.333,205.188,167.667,205.188,175.333C205.188,183,205.188,190,205.188,193.5L205.188,197" id="my-svg-L_B_C_0" class="edge-thickness-normal edge-pattern-solid edge-thickness-normal edge-pattern-solid flowchart-link" style=";" data-edge="true" data-et="edge" data-id="L_B_C_0" data-points="W3sieCI6MjA1LjE4NzUsInkiOjE1MX0seyJ4IjoyMDUuMTg3NSwieSI6MTc2fSx7IngiOjIwNS4xODc1LCJ5IjoyMDF9XQ==" data-look="classic" marker-end="url(#my-svg_flowchart-v2-pointEnd)"/><path d="M242.697,373.896L249.579,386.315C256.46,398.733,270.222,423.57,277.103,446.655C283.984,469.74,283.984,491.073,283.984,510.406C283.984,529.74,283.984,547.073,283.984,578.634C283.984,610.195,283.984,655.984,283.984,703.773C283.984,751.563,283.984,801.352,283.984,838.913C283.984,876.474,283.984,901.807,283.984,925.141C283.984,948.474,283.984,969.807,283.984,996.202C283.984,1022.596,283.984,1054.052,283.984,1069.78L283.984,1085.508" id="my-svg-L_C_D_0" class="edge-thickness-normal edge-pattern-solid edge-thickness-normal edge-pattern-solid flowchart-link" style=";" data-edge="true" data-et="edge" data-id="L_C_D_0" data-points="W3sieCI6MjQyLjY5NzM1Mjg5Njk4ODEyLCJ5IjozNzMuODk2Mzk3MTAzMDExODV9LHsieCI6MjgzLjk4NDM3NSwieSI6NDQ4LjQwNjI1fSx7IngiOjI4My45ODQzNzUsInkiOjUxMi40MDYyNX0seyJ4IjoyODMuOTg0Mzc1LCJ5Ijo1NjQuNDA2MjV9LHsieCI6MjgzLjk4NDM3NSwieSI6NzAxLjc3MzQzNzV9LHsieCI6MjgzLjk4NDM3NSwieSI6ODUxLjE0MDYyNX0seyJ4IjoyODMuOTg0Mzc1LCJ5Ijo5MjcuMTQwNjI1fSx7IngiOjI4My45ODQzNzUsInkiOjk5MS4xNDA2MjV9LHsieCI6MjgzLjk4NDM3NSwieSI6MTA4OS41MDc4MTI1fV0=" data-look="classic" marker-end="url(#my-svg_flowchart-v2-pointEnd)"/><path d="M283.984,1167.508L283.984,1185.902C283.984,1204.297,283.984,1241.086,286.958,1265.059C289.931,1289.032,295.877,1300.188,298.851,1305.767L301.824,1311.345" id="my-svg-L_D_E_0" class="edge-thickness-normal edge-pattern-solid edge-thickness-normal edge-pattern-solid flowchart-link" style=";" data-edge="true" data-et="edge" data-id="L_D_E_0" data-points="W3sieCI6MjgzLjk4NDM3NSwieSI6MTE2Ny41MDc4MTI1fSx7IngiOjI4My45ODQzNzUsInkiOjEyNzcuODc1fSx7IngiOjMwMy43MDUyODM3MTcxMDUyNiwieSI6MTMxNC44NzV9XQ==" data-look="classic" marker-end="url(#my-svg_flowchart-v2-pointEnd)"/><path d="M167.678,373.896L160.796,386.315C153.915,398.733,140.153,423.57,133.272,441.488C126.391,459.406,126.391,470.406,126.391,475.906L126.391,481.406" id="my-svg-L_C_F_0" class="edge-thickness-normal edge-pattern-solid edge-thickness-normal edge-pattern-solid flowchart-link" style=";" data-edge="true" data-et="edge" data-id="L_C_F_0" data-points="W3sieCI6MTY3LjY3NzY0NzEwMzAxMTg4LCJ5IjozNzMuODk2Mzk3MTAzMDExODV9LHsieCI6MTI2LjM5MDYyNSwieSI6NDQ4LjQwNjI1fSx7IngiOjEyNi4zOTA2MjUsInkiOjQ4NS40MDYyNX1d" data-look="classic" marker-end="url(#my-svg_flowchart-v2-pointEnd)"/><path d="M126.391,539.406L126.391,543.573C126.391,547.74,126.391,556.073,126.391,563.74C126.391,571.406,126.391,578.406,126.391,581.906L126.391,585.406" id="my-svg-L_F_G_0" class="edge-thickness-normal edge-pattern-solid edge-thickness-normal edge-pattern-solid flowchart-link" style=";" data-edge="true" data-et="edge" data-id="L_F_G_0" data-points="W3sieCI6MTI2LjM5MDYyNSwieSI6NTM5LjQwNjI1fSx7IngiOjEyNi4zOTA2MjUsInkiOjU2NC40MDYyNX0seyJ4IjoxMjYuMzkwNjI1LCJ5Ijo1ODkuNDA2MjV9XQ==" data-look="classic" marker-end="url(#my-svg_flowchart-v2-pointEnd)"/><path d="M126.391,814.141L126.391,820.307C126.391,826.474,126.391,838.807,126.391,850.474C126.391,862.141,126.391,873.141,126.391,878.641L126.391,884.141" id="my-svg-L_G_H_0" class="edge-thickness-normal edge-pattern-solid edge-thickness-normal edge-pattern-solid flowchart-link" style=";" data-edge="true" data-et="edge" data-id="L_G_H_0" data-points="W3sieCI6MTI2LjM5MDYyNSwieSI6ODE0LjE0MDYyNX0seyJ4IjoxMjYuMzkwNjI1LCJ5Ijo4NTEuMTQwNjI1fSx7IngiOjEyNi4zOTA2MjUsInkiOjg4OC4xNDA2MjV9XQ==" data-look="classic" marker-end="url(#my-svg_flowchart-v2-pointEnd)"/><path d="M211.848,728.683L276.664,749.093C341.48,769.502,471.111,810.321,535.927,836.231C600.742,862.141,600.742,873.141,600.742,878.641L600.742,884.141" id="my-svg-L_G_I_0" class="edge-thickness-normal edge-pattern-solid edge-thickness-normal edge-pattern-solid flowchart-link" style=";" data-edge="true" data-et="edge" data-id="L_G_I_0" data-points="W3sieCI6MjExLjg0ODI5NDc2NTk4OTA0LCJ5Ijo3MjguNjgyOTU1MjM0MDEwOX0seyJ4Ijo2MDAuNzQyMTg3NSwieSI6ODUxLjE0MDYyNX0seyJ4Ijo2MDAuNzQyMTg3NSwieSI6ODg4LjE0MDYyNX1d" data-look="classic" marker-end="url(#my-svg_flowchart-v2-pointEnd)"/><path d="M600.742,966.141L600.742,970.307C600.742,974.474,600.742,982.807,600.742,990.474C600.742,998.141,600.742,1005.141,600.742,1008.641L600.742,1012.141" id="my-svg-L_I_J_0" class="edge-thickness-normal edge-pattern-solid edge-thickness-normal edge-pattern-solid flowchart-link" style=";" data-edge="true" data-et="edge" data-id="L_I_J_0" data-points="W3sieCI6NjAwLjc0MjE4NzUsInkiOjk2Ni4xNDA2MjV9LHsieCI6NjAwLjc0MjE4NzUsInkiOjk5MS4xNDA2MjV9LHsieCI6NjAwLjc0MjE4NzUsInkiOjEwMTYuMTQwNjI1fV0=" data-look="classic" marker-end="url(#my-svg_flowchart-v2-pointEnd)"/><path d="M626.953,1214.664L630.158,1225.199C633.363,1235.734,639.773,1256.805,642.979,1272.84C646.184,1288.875,646.184,1299.875,646.184,1305.375L646.184,1310.875" id="my-svg-L_J_K_0" class="edge-thickness-normal edge-pattern-solid edge-thickness-normal edge-pattern-solid flowchart-link" style=";" data-edge="true" data-et="edge" data-id="L_J_K_0" data-points="W3sieCI6NjI2Ljk1MzE2MTY1NzA3NTMsInkiOjEyMTQuNjY0MDI1ODQyOTI0N30seyJ4Ijo2NDYuMTgzNTkzNzUsInkiOjEyNzcuODc1fSx7IngiOjY0Ni4xODM1OTM3NSwieSI6MTMxNC44NzV9XQ==" data-look="classic" marker-end="url(#my-svg_flowchart-v2-pointEnd)"/><path d="M548.439,1188.572L535.479,1203.456C522.518,1218.34,496.597,1248.107,472.366,1268.85C448.136,1289.593,425.596,1301.312,414.326,1307.171L403.056,1313.03" id="my-svg-L_J_E_0" class="edge-thickness-normal edge-pattern-solid edge-thickness-normal edge-pattern-solid flowchart-link" style=";" data-edge="true" data-et="edge" data-id="L_J_E_0" data-points="W3sieCI6NTQ4LjQzOTI1NTQ3ODA4NzYsInkiOjExODguNTcyMDY3OTc4MDg3N30seyJ4Ijo0NzAuNjc1NzgxMjUsInkiOjEyNzcuODc1fSx7IngiOjM5OS41MDc0NTI3MTM4MTU4LCJ5IjoxMzE0Ljg3NX1d" data-look="classic" marker-end="url(#my-svg_flowchart-v2-pointEnd)"/></g><g class="edgeLabels"><g class="edgeLabel"><g class="label" data-id="L_A_B_0" transform="translate(0, 0)"><foreignObject width="0" height="0"><div xmlns="http://www.w3.org/1999/xhtml" class="labelBkg" style="display: table-cell; white-space: nowrap; line-height: 1.5; max-width: 200px; text-align: center;"><span class="edgeLabel"></span></div></foreignObject></g></g><g class="edgeLabel"><g class="label" data-id="L_B_C_0" transform="translate(0, 0)"><foreignObject width="0" height="0"><div xmlns="http://www.w3.org/1999/xhtml" class="labelBkg" style="display: table-cell; white-space: nowrap; line-height: 1.5; max-width: 200px; text-align: center;"><span class="edgeLabel"></span></div></foreignObject></g></g><g class="edgeLabel" transform="translate(283.984375, 701.7734375)"><g class="label" data-id="L_C_D_0" transform="translate(-10.2265625, -12)"><foreignObject width="20.453125" height="24"><div xmlns="http://www.w3.org/1999/xhtml" class="labelBkg" style="display: table-cell; white-space: nowrap; line-height: 1.5; max-width: 200px; text-align: center;"><span class="edgeLabel"><p>Не</p></span></div></foreignObject></g></g><g class="edgeLabel"><g class="label" data-id="L_D_E_0" transform="translate(0, 0)"><foreignObject width="0" height="0"><div xmlns="http://www.w3.org/1999/xhtml" class="labelBkg" style="display: table-cell; white-space: nowrap; line-height: 1.5; max-width: 200px; text-align: center;"><span class="edgeLabel"></span></div></foreignObject></g></g><g class="edgeLabel" transform="translate(126.390625, 448.40625)"><g class="label" data-id="L_C_F_0" transform="translate(-9.8671875, -12)"><foreignObject width="19.734375" height="24"><div xmlns="http://www.w3.org/1999/xhtml" class="labelBkg" style="display: table-cell; white-space: nowrap; line-height: 1.5; max-width: 200px; text-align: center;"><span class="edgeLabel"><p>Да</p></span></div></foreignObject></g></g><g class="edgeLabel"><g class="label" data-id="L_F_G_0" transform="translate(0, 0)"><foreignObject width="0" height="0"><div xmlns="http://www.w3.org/1999/xhtml" class="labelBkg" style="display: table-cell; white-space: nowrap; line-height: 1.5; max-width: 200px; text-align: center;"><span class="edgeLabel"></span></div></foreignObject></g></g><g class="edgeLabel" transform="translate(126.390625, 851.140625)"><g class="label" data-id="L_G_H_0" transform="translate(-9.8671875, -12)"><foreignObject width="19.734375" height="24"><div xmlns="http://www.w3.org/1999/xhtml" class="labelBkg" style="display: table-cell; white-space: nowrap; line-height: 1.5; max-width: 200px; text-align: center;"><span class="edgeLabel"><p>Да</p></span></div></foreignObject></g></g><g class="edgeLabel" transform="translate(600.7421875, 851.140625)"><g class="label" data-id="L_G_I_0" transform="translate(-61.015625, -12)"><foreignObject width="122.03125" height="24"><div xmlns="http://www.w3.org/1999/xhtml" class="labelBkg" style="display: table-cell; white-space: nowrap; line-height: 1.5; max-width: 200px; text-align: center;"><span class="edgeLabel"><p>Не / Недоступно</p></span></div></foreignObject></g></g><g class="edgeLabel"><g class="label" data-id="L_I_J_0" transform="translate(0, 0)"><foreignObject width="0" height="0"><div xmlns="http://www.w3.org/1999/xhtml" class="labelBkg" style="display: table-cell; white-space: nowrap; line-height: 1.5; max-width: 200px; text-align: center;"><span class="edgeLabel"></span></div></foreignObject></g></g><g class="edgeLabel" transform="translate(646.18359375, 1277.875)"><g class="label" data-id="L_J_K_0" transform="translate(-9.8671875, -12)"><foreignObject width="19.734375" height="24"><div xmlns="http://www.w3.org/1999/xhtml" class="labelBkg" style="display: table-cell; white-space: nowrap; line-height: 1.5; max-width: 200px; text-align: center;"><span class="edgeLabel"><p>Да</p></span></div></foreignObject></g></g><g class="edgeLabel" transform="translate(483.21992, 1263.46942)"><g class="label" data-id="L_J_E_0" transform="translate(-61.015625, -12)"><foreignObject width="122.03125" height="24"><div xmlns="http://www.w3.org/1999/xhtml" class="labelBkg" style="display: table-cell; white-space: nowrap; line-height: 1.5; max-width: 200px; text-align: center;"><span class="edgeLabel"><p>Не / Недоступно</p></span></div></foreignObject></g></g></g><g class="nodes"><g class="node default" id="my-svg-flowchart-A-0" data-look="classic" transform="translate(205.1875, 27.5)"><g class="basic label-container outer-path"><path d="M-31.359375 -19.5 C-9.821851919307132 -19.5, 11.715671161385735 -19.5, 31.359375 -19.5 C31.359375 -19.5, 31.359375 -19.5, 31.359375 -19.5 C31.75292758250248 -19.487379534682777, 32.14648016500496 -19.474759069365554, 32.6087442896239 -19.45993515863156 C33.03244245469414 -19.419061506218828, 33.45614061976438 -19.3781878538061, 33.852979652847864 -19.3399052695533 C34.26404034680969 -19.273448164376845, 34.675101040771516 -19.206991059200387, 35.08696825967676 -19.140403561325776 C35.354570504662185 -19.079325095175697, 35.62217274964761 -19.01824662902562, 36.30563938623539 -18.862249829261074 C36.745460131425 -18.731713340755, 37.18528087661461 -18.60117685224893, 37.503985251460605 -18.50658706670804 C37.76963182948699 -18.40882667038428, 38.03527840751338 -18.311066274060522, 38.6770815951478 -18.074876768247425 C39.1314568191194 -17.873738335157324, 39.585832043090996 -17.67259990206722, 39.82010791279238 -17.568892924097174 C40.059928311292204 -17.443778775812113, 40.29974870979203 -17.31866462752705, 40.92836726407678 -16.990714730406097 C41.23980812936862 -16.80191744763651, 41.551248994660455 -16.61312016486692, 41.9973055736057 -16.342718045390892 C42.26565921150445 -16.15552616443448, 42.5340128494032 -15.968334283478068, 43.02253034457871 -15.627565626425154 C43.3360725387123 -15.377524070311814, 43.64961473284589 -15.127482514198476, 43.999828708501866 -14.848196188198123 C44.277416324265104 -14.596098460127797, 44.55500394002834 -14.34400073205747, 44.92518473676799 -14.007812326905688 C45.16941744442055 -13.755622004376203, 45.41365015207311 -13.503431681846719, 45.79479594296865 -13.10986736009568 C46.112082516654965 -12.73716449652624, 46.42936909034128 -12.3644616329568, 46.60508890812658 -12.158051136245305 C46.859579756138054 -11.817056584503133, 47.11407060414953 -11.476062032760963, 47.352733964640635 -11.156274872382312 C47.60349059365985 -10.771045352625759, 47.854247222679064 -10.385815832869207, 48.03465887860425 -10.108655082055241 C48.205313499580065 -9.805640521858454, 48.37596812055588 -9.502625961661666, 48.648061474273504 -9.019496659696287 C48.839446402694094 -8.62208176084947, 49.030831331114676 -8.224666862002653, 49.19042114880834 -7.893275190886684 C49.288667484238566 -7.650604842910347, 49.3869138196688 -7.407934494934009, 49.659509229970325 -6.734618561215508 C49.80495122455792 -6.296570446552561, 49.95039321914551 -5.858522331889614, 50.05339813421488 -5.548287939305138 C50.15472098004269 -5.161900014564536, 50.2560438258705 -4.775512089823935, 50.37046928754556 -4.339158212148133 C50.44407858516031 -3.9611900262269493, 50.51768788277506 -3.5832218403057654, 50.609419776581774 -3.1121979531509023 C50.64338656815796 -2.848758225187686, 50.67735335973414 -2.5853184972244696, 50.76926770250937 -1.872449005199798 C50.79258170276969 -1.5093146324230364, 50.81589570303001 -1.146180259646275, 50.84935621591342 -0.6250057626472757 C50.84935621591342 -0.21481948002190754, 50.84935621591342 0.19536680260346062, 50.84935621591342 0.625005762647271 C50.82370553936311 1.0245357547716951, 50.79805486281281 1.4240657468961189, 50.76926770250937 1.8724490051997846 C50.734324487949074 2.143461677011197, 50.69938127338879 2.4144743488226097, 50.609419776581774 3.1121979531508885 C50.555316093767274 3.3900089295859415, 50.501212410952775 3.667819906020995, 50.37046928754556 4.339158212148129 C50.29470548976883 4.628078409308482, 50.21894169199209 4.916998606468835, 50.05339813421489 5.548287939305125 C49.934216731305995 5.907243335888909, 49.8150353283971 6.2661987324726915, 49.659509229970325 6.734618561215495 C49.4843659568364 7.167225832021122, 49.30922268370247 7.599833102826751, 49.19042114880834 7.893275190886679 C49.049961273324094 8.184943127689605, 48.90950139783985 8.476611064492532, 48.648061474273504 9.019496659696284 C48.46652078356162 9.34184053904355, 48.284980092849736 9.66418441839082, 48.03465887860425 10.108655082055236 C47.78668198831713 10.489614176654927, 47.538705098030015 10.870573271254617, 47.35273396464064 11.156274872382301 C47.05784336771652 11.551401407174579, 46.762952770792396 11.946527941966856, 46.60508890812658 12.158051136245302 C46.36485541796127 12.440243063466308, 46.124621927795964 12.722434990687317, 45.79479594296866 13.10986736009567 C45.58383990404227 13.32769679010007, 45.372883865115874 13.545526220104472, 44.92518473676799 14.007812326905684 C44.64605544191666 14.261310167133223, 44.366926147065335 14.514808007360763, 43.99982870850189 14.848196188198111 C43.63160803259743 15.141842378468207, 43.263387356692974 15.435488568738304, 43.02253034457871 15.627565626425152 C42.624730548604894 15.905053543620866, 42.22693075263108 16.18254146081658, 41.99730557360571 16.34271804539089 C41.6552648694128 16.55006513032692, 41.313224165219886 16.757412215262956, 40.92836726407678 16.990714730406093 C40.5960361312129 17.16409166955293, 40.26370499834901 17.337468608699773, 39.82010791279239 17.56889292409717 C39.365810001533085 17.76999713314294, 38.91151209027378 17.971101342188707, 38.677081595147804 18.07487676824742 C38.37851593664883 18.184751690485736, 38.07995027814986 18.29462661272405, 37.50398525146062 18.506587066708033 C37.19620964849408 18.597933250121393, 36.888434045527546 18.689279433534757, 36.30563938623541 18.86224982926107 C35.988268247660194 18.934687720600635, 35.67089710908498 19.0071256119402, 35.086968259676766 19.140403561325773 C34.716886280954455 19.200235545616987, 34.346804302232144 19.260067529908202, 33.85297965284788 19.3399052695533 C33.60102259359191 19.364211264037024, 33.349065534335935 19.38851725852075, 32.6087442896239 19.45993515863156 C32.26184973923376 19.47105939167329, 31.91495518884362 19.48218362471502, 31.359375000000004 19.5 C31.359375000000004 19.5, 31.359375 19.5, 31.359375 19.5 C9.587945158046544 19.5, -12.183484683906912 19.5, -31.359374999999996 19.5 C-31.74605109867477 19.48760005013487, -32.132727197349546 19.475200100269735, -32.60874428962389 19.45993515863156 C-33.032593013773834 19.419046981965483, -33.45644173792378 19.37815880529941, -33.85297965284787 19.3399052695533 C-34.25669009465656 19.274636496142904, -34.66040053646525 19.20936772273251, -35.08696825967676 19.140403561325773 C-35.362734413184555 19.077461736329948, -35.63850056669235 19.01451991133412, -36.305639386235384 18.862249829261074 C-36.74392768161482 18.73216816381467, -37.18221597699426 18.602086498368262, -37.50398525146059 18.506587066708043 C-37.87940835923054 18.368427892675538, -38.254831467000486 18.230268718643032, -38.6770815951478 18.074876768247425 C-38.96471570998917 17.94754967797001, -39.25234982483055 17.82022258769259, -39.82010791279238 17.568892924097174 C-40.066168522315955 17.440523261718067, -40.31222913183954 17.31215359933896, -40.92836726407678 16.990714730406097 C-41.3434867791522 16.739066840854324, -41.75860629422762 16.487418951302555, -41.997305573605686 16.3427180453909 C-42.220275642097974 16.18718377782938, -42.44324571059026 16.031649510267858, -43.02253034457871 15.627565626425156 C-43.36825062083362 15.35186290611479, -43.71397089708853 15.076160185804426, -43.999828708501866 14.848196188198125 C-44.293214601862836 14.581750882413054, -44.586600495223806 14.315305576627985, -44.925184736767974 14.007812326905697 C-45.19533639947411 13.728858555297617, -45.46548806218024 13.449904783689535, -45.794795942968655 13.109867360095677 C-46.00638477446554 12.861323078873852, -46.21797360596243 12.612778797652025, -46.605088908126575 12.158051136245307 C-46.84054375290166 11.842563094624333, -47.07599859767674 11.527075053003362, -47.352733964640635 11.156274872382316 C-47.59914064675082 10.777728039202328, -47.84554732886101 10.399181206022341, -48.03465887860425 10.108655082055249 C-48.19459620774072 9.824670158762697, -48.35453353687719 9.540685235470146, -48.648061474273504 9.019496659696289 C-48.84108804403806 8.618672857473232, -49.03411461380261 8.217849055250175, -49.19042114880834 7.893275190886686 C-49.28782210380982 7.652692948913664, -49.385223058811306 7.412110706940643, -49.659509229970325 6.73461856121551 C-49.78919468129203 6.344026644405165, -49.91888013261374 5.953434727594821, -50.05339813421488 5.5482879393051325 C-50.135024562982665 5.237010989295572, -50.21665099175044 4.925734039286012, -50.37046928754556 4.339158212148136 C-50.45481744387108 3.9060482564057373, -50.5391656001966 3.472938300663339, -50.609419776581774 3.112197953150904 C-50.66687976291453 2.6665496459117377, -50.72433974924729 2.2209013386725713, -50.76926770250937 1.872449005199809 C-50.79487484057636 1.4735971600965863, -50.82048197864335 1.0747453149933635, -50.84935621591342 0.6250057626472781 C-50.84935621591342 0.22453706041358362, -50.84935621591342 -0.1759316418201109, -50.84935621591342 -0.6250057626472687 C-50.8289549765852 -0.9427715327681967, -50.808553737256986 -1.2605373028891247, -50.76926770250937 -1.8724490051997822 C-50.7343693835538 -2.143113475566639, -50.69947106459822 -2.4137779459334956, -50.609419776581774 -3.112197953150895 C-50.54040238944467 -3.466587649269988, -50.47138500230757 -3.8209773453890814, -50.37046928754556 -4.339158212148126 C-50.274062333408004 -4.706799711312872, -50.17765537927044 -5.074441210477619, -50.05339813421489 -5.548287939305123 C-49.913404616450194 -5.9699261098743905, -49.7734110986855 -6.391564280443658, -49.65950922997033 -6.734618561215485 C-49.4888073431443 -7.156255521972248, -49.318105456318264 -7.577892482729012, -49.19042114880834 -7.893275190886676 C-49.029652874455074 -8.227113952471246, -48.86888460010181 -8.560952714055816, -48.648061474273504 -9.019496659696282 C-48.50734166960879 -9.26935892230386, -48.36662186494407 -9.519221184911439, -48.03465887860425 -10.108655082055243 C-47.781012166284626 -10.498324545857258, -47.527365453965004 -10.887994009659272, -47.35273396464064 -11.156274872382308 C-47.14286065665434 -11.43748598523226, -46.93298734866804 -11.718697098082215, -46.60508890812659 -12.158051136245302 C-46.35907038705215 -12.447038489949753, -46.11305186597772 -12.736025843654206, -45.79479594296866 -13.10986736009567 C-45.51944706367323 -13.394187684531612, -45.244098184377805 -13.678508008967556, -44.925184736767996 -14.007812326905677 C-44.58012412073363 -14.321187248584485, -44.23506350469927 -14.63456217026329, -43.99982870850189 -14.848196188198107 C-43.70068783225324 -15.086753076533373, -43.40154695600458 -15.325309964868639, -43.02253034457872 -15.627565626425149 C-42.72464457330129 -15.835357845201083, -42.426758802023855 -16.043150063977016, -41.997305573605715 -16.342718045390885 C-41.778367196476715 -16.4754397762312, -41.55942881934772 -16.608161507071515, -40.92836726407679 -16.99071473040609 C-40.54725129469876 -17.189542687514177, -40.16613532532074 -17.388370644622267, -39.82010791279239 -17.56889292409717 C-39.5266191895987 -17.69881167582137, -39.233130466405 -17.82873042754557, -38.677081595147804 -18.07487676824742 C-38.398754340908184 -18.177303770636538, -38.120427086668556 -18.279730773025655, -37.50398525146062 -18.506587066708033 C-37.06007842420323 -18.63833628292354, -36.616171596945854 -18.770085499139046, -36.30563938623541 -18.862249829261067 C-36.03704277611211 -18.923555252765027, -35.768446165988806 -18.984860676268987, -35.086968259676766 -19.140403561325773 C-34.762069842355764 -19.192930617813374, -34.437171425034755 -19.24545767430098, -33.85297965284788 -19.3399052695533 C-33.564751836425394 -19.367710260358912, -33.27652402000292 -19.39551525116452, -32.6087442896239 -19.45993515863156 C-32.1478756093965 -19.474714320179984, -31.687006929169105 -19.48949348172841, -31.359375000000007 -19.5 C-31.359375000000007 -19.5, -31.359375000000004 -19.5, -31.359375 -19.5" stroke="none" stroke-width="0" fill="#eee" style=""/><path d="M-31.359375 -19.5 C-8.578180130934744 -19.5, 14.203014738130513 -19.5, 31.359375 -19.5 M-31.359375 -19.5 C-16.819051796760796 -19.5, -2.2787285935215955 -19.5, 31.359375 -19.5 M31.359375 -19.5 C31.359375 -19.5, 31.359375 -19.5, 31.359375 -19.5 M31.359375 -19.5 C31.359375 -19.5, 31.359375 -19.5, 31.359375 -19.5 M31.359375 -19.5 C31.643083936735298 -19.490902006604845, 31.9267928734706 -19.48180401320969, 32.6087442896239 -19.45993515863156 M31.359375 -19.5 C31.692451325059363 -19.489318890549082, 32.025527650118725 -19.47863778109817, 32.6087442896239 -19.45993515863156 M32.6087442896239 -19.45993515863156 C33.098763564678904 -19.412663588501403, 33.588782839733916 -19.365392018371246, 33.852979652847864 -19.3399052695533 M32.6087442896239 -19.45993515863156 C33.09070050759913 -19.413441421920645, 33.57265672557436 -19.366947685209727, 33.852979652847864 -19.3399052695533 M33.852979652847864 -19.3399052695533 C34.10310486414134 -19.299466965141352, 34.35323007543482 -19.25902866072941, 35.08696825967676 -19.140403561325776 M33.852979652847864 -19.3399052695533 C34.26698614154319 -19.27297191112931, 34.68099263023852 -19.206038552705323, 35.08696825967676 -19.140403561325776 M35.08696825967676 -19.140403561325776 C35.33514324508188 -19.083759240400187, 35.583318230487 -19.027114919474595, 36.30563938623539 -18.862249829261074 M35.08696825967676 -19.140403561325776 C35.388794363033725 -19.07151372283394, 35.69062046639069 -19.002623884342107, 36.30563938623539 -18.862249829261074 M36.30563938623539 -18.862249829261074 C36.71179583736058 -18.741704726525835, 37.11795228848577 -18.621159623790597, 37.503985251460605 -18.50658706670804 M36.30563938623539 -18.862249829261074 C36.765813827093915 -18.725672470719196, 37.22598826795244 -18.58909511217732, 37.503985251460605 -18.50658706670804 M37.503985251460605 -18.50658706670804 C37.88228167206462 -18.367370486991984, 38.26057809266864 -18.228153907275924, 38.6770815951478 -18.074876768247425 M37.503985251460605 -18.50658706670804 C37.92775598288971 -18.35063552024843, 38.35152671431881 -18.19468397378882, 38.6770815951478 -18.074876768247425 M38.6770815951478 -18.074876768247425 C39.00578197312857 -17.92937086146561, 39.334482351109344 -17.7838649546838, 39.82010791279238 -17.568892924097174 M38.6770815951478 -18.074876768247425 C39.11289810414975 -17.881953727749664, 39.5487146131517 -17.689030687251908, 39.82010791279238 -17.568892924097174 M39.82010791279238 -17.568892924097174 C40.05449974849864 -17.446610853544353, 40.288891584204904 -17.324328782991532, 40.92836726407678 -16.990714730406097 M39.82010791279238 -17.568892924097174 C40.1794283237229 -17.38143569587043, 40.538748734653424 -17.193978467643685, 40.92836726407678 -16.990714730406097 M40.92836726407678 -16.990714730406097 C41.17227635083905 -16.84285560864192, 41.41618543760131 -16.694996486877738, 41.9973055736057 -16.342718045390892 M40.92836726407678 -16.990714730406097 C41.32363307698422 -16.751102271781857, 41.71889888989166 -16.51148981315762, 41.9973055736057 -16.342718045390892 M41.9973055736057 -16.342718045390892 C42.21496984579716 -16.190884871644613, 42.432634117988606 -16.039051697898334, 43.02253034457871 -15.627565626425154 M41.9973055736057 -16.342718045390892 C42.35534533088706 -16.092965010002704, 42.713385088168415 -15.843211974614515, 43.02253034457871 -15.627565626425154 M43.02253034457871 -15.627565626425154 C43.280856729081265 -15.421557209138161, 43.539183113583825 -15.215548791851168, 43.999828708501866 -14.848196188198123 M43.02253034457871 -15.627565626425154 C43.3468225122312 -15.368951252499302, 43.67111467988369 -15.110336878573449, 43.999828708501866 -14.848196188198123 M43.999828708501866 -14.848196188198123 C44.30817312487417 -14.568165947594991, 44.61651754124648 -14.28813570699186, 44.92518473676799 -14.007812326905688 M43.999828708501866 -14.848196188198123 C44.309388186889215 -14.567062460421706, 44.61894766527657 -14.285928732645289, 44.92518473676799 -14.007812326905688 M44.92518473676799 -14.007812326905688 C45.198667481053405 -13.725418940080113, 45.47215022533882 -13.443025553254538, 45.79479594296865 -13.10986736009568 M44.92518473676799 -14.007812326905688 C45.23988115665987 -13.682862436310742, 45.55457757655175 -13.357912545715799, 45.79479594296865 -13.10986736009568 M45.79479594296865 -13.10986736009568 C46.02698515275742 -12.837124702337473, 46.2591743625462 -12.564382044579267, 46.60508890812658 -12.158051136245305 M45.79479594296865 -13.10986736009568 C46.038994461724066 -12.823017884676213, 46.283192980479484 -12.536168409256748, 46.60508890812658 -12.158051136245305 M46.60508890812658 -12.158051136245305 C46.77267138539519 -11.933505883783123, 46.940253862663795 -11.708960631320942, 47.352733964640635 -11.156274872382312 M46.60508890812658 -12.158051136245305 C46.81489923038412 -11.87692441853377, 47.02470955264167 -11.595797700822233, 47.352733964640635 -11.156274872382312 M47.352733964640635 -11.156274872382312 C47.56009733473297 -10.837709051058994, 47.76746070482531 -10.519143229735677, 48.03465887860425 -10.108655082055241 M47.352733964640635 -11.156274872382312 C47.60251205780376 -10.77254864647439, 47.85229015096687 -10.388822420566465, 48.03465887860425 -10.108655082055241 M48.03465887860425 -10.108655082055241 C48.246370390669 -9.73273985426901, 48.45808190273375 -9.356824626482776, 48.648061474273504 -9.019496659696287 M48.03465887860425 -10.108655082055241 C48.18739141768951 -9.837462993062722, 48.34012395677477 -9.566270904070201, 48.648061474273504 -9.019496659696287 M48.648061474273504 -9.019496659696287 C48.80550451928637 -8.692562807985556, 48.96294756429925 -8.365628956274827, 49.19042114880834 -7.893275190886684 M48.648061474273504 -9.019496659696287 C48.756899383425036 -8.79349241258493, 48.86573729257657 -8.567488165473575, 49.19042114880834 -7.893275190886684 M49.19042114880834 -7.893275190886684 C49.35606073815542 -7.484142202775792, 49.52170032750251 -7.075009214664899, 49.659509229970325 -6.734618561215508 M49.19042114880834 -7.893275190886684 C49.29893778406157 -7.625237003784792, 49.4074544193148 -7.357198816682899, 49.659509229970325 -6.734618561215508 M49.659509229970325 -6.734618561215508 C49.81638453369258 -6.26213514108939, 49.97325983741483 -5.789651720963271, 50.05339813421488 -5.548287939305138 M49.659509229970325 -6.734618561215508 C49.74953215532874 -6.46348385324128, 49.83955508068715 -6.192349145267052, 50.05339813421488 -5.548287939305138 M50.05339813421488 -5.548287939305138 C50.125243208030284 -5.274311534995046, 50.19708828184569 -5.000335130684952, 50.37046928754556 -4.339158212148133 M50.05339813421488 -5.548287939305138 C50.16533806466635 -5.1214124694209415, 50.27727799511782 -4.694536999536745, 50.37046928754556 -4.339158212148133 M50.37046928754556 -4.339158212148133 C50.456768276437046 -3.896031143488109, 50.54306726532853 -3.4529040748280853, 50.609419776581774 -3.1121979531509023 M50.37046928754556 -4.339158212148133 C50.437684387067286 -3.9940228820203867, 50.50489948658901 -3.6488875518926402, 50.609419776581774 -3.1121979531509023 M50.609419776581774 -3.1121979531509023 C50.647523147236086 -2.816675734717644, 50.685626517890405 -2.5211535162843854, 50.76926770250937 -1.872449005199798 M50.609419776581774 -3.1121979531509023 C50.64965465903787 -2.8001441500976267, 50.68988954149397 -2.488090347044351, 50.76926770250937 -1.872449005199798 M50.76926770250937 -1.872449005199798 C50.79194141194438 -1.519287678860673, 50.81461512137939 -1.1661263525215482, 50.84935621591342 -0.6250057626472757 M50.76926770250937 -1.872449005199798 C50.79672041964411 -1.4448507763917142, 50.82417313677886 -1.0172525475836305, 50.84935621591342 -0.6250057626472757 M50.84935621591342 -0.6250057626472757 C50.84935621591342 -0.33096215373403426, 50.84935621591342 -0.03691854482079282, 50.84935621591342 0.625005762647271 M50.84935621591342 -0.6250057626472757 C50.84935621591342 -0.3743545936176799, 50.84935621591342 -0.12370342458808414, 50.84935621591342 0.625005762647271 M50.84935621591342 0.625005762647271 C50.83187713964516 0.8972564843817782, 50.814398063376906 1.1695072061162852, 50.76926770250937 1.8724490051997846 M50.84935621591342 0.625005762647271 C50.8267119467238 0.9777085334006794, 50.80406767753418 1.3304113041540877, 50.76926770250937 1.8724490051997846 M50.76926770250937 1.8724490051997846 C50.70927244172733 2.3377604004210166, 50.64927718094528 2.803071795642248, 50.609419776581774 3.1121979531508885 M50.76926770250937 1.8724490051997846 C50.72383850575997 2.224788884178495, 50.678409309010576 2.577128763157205, 50.609419776581774 3.1121979531508885 M50.609419776581774 3.1121979531508885 C50.53285311850135 3.5053515600249727, 50.45628646042092 3.8985051668990574, 50.37046928754556 4.339158212148129 M50.609419776581774 3.1121979531508885 C50.53547891460413 3.4918686519993885, 50.46153805262649 3.8715393508478884, 50.37046928754556 4.339158212148129 M50.37046928754556 4.339158212148129 C50.269783336758 4.723117380068196, 50.169097385970446 5.107076547988262, 50.05339813421489 5.548287939305125 M50.37046928754556 4.339158212148129 C50.26425681334752 4.744192409042757, 50.158044339149484 5.149226605937386, 50.05339813421489 5.548287939305125 M50.05339813421489 5.548287939305125 C49.96807859964138 5.805256783618759, 49.88275906506788 6.062225627932394, 49.659509229970325 6.734618561215495 M50.05339813421489 5.548287939305125 C49.92769763735505 5.9268778081925735, 49.80199714049522 6.305467677080021, 49.659509229970325 6.734618561215495 M49.659509229970325 6.734618561215495 C49.53921422270063 7.031749554917387, 49.41891921543094 7.328880548619279, 49.19042114880834 7.893275190886679 M49.659509229970325 6.734618561215495 C49.502589702010646 7.122212829108585, 49.345670174050966 7.509807097001675, 49.19042114880834 7.893275190886679 M49.19042114880834 7.893275190886679 C49.048368107327896 8.18825137096901, 48.906315065847444 8.483227551051339, 48.648061474273504 9.019496659696284 M49.19042114880834 7.893275190886679 C48.983160395719516 8.323656579345323, 48.77589964263069 8.754037967803967, 48.648061474273504 9.019496659696284 M48.648061474273504 9.019496659696284 C48.46829779400718 9.338685277055639, 48.28853411374085 9.657873894414994, 48.03465887860425 10.108655082055236 M48.648061474273504 9.019496659696284 C48.5062552550002 9.271287961452826, 48.364449035726885 9.523079263209368, 48.03465887860425 10.108655082055236 M48.03465887860425 10.108655082055236 C47.88932985105073 10.331919494685534, 47.74400082349722 10.555183907315833, 47.35273396464064 11.156274872382301 M48.03465887860425 10.108655082055236 C47.87816207253983 10.3490762014467, 47.72166526647542 10.589497320838163, 47.35273396464064 11.156274872382301 M47.35273396464064 11.156274872382301 C47.1162728503522 11.473111223478133, 46.879811736063765 11.789947574573967, 46.60508890812658 12.158051136245302 M47.35273396464064 11.156274872382301 C47.15048108030027 11.427275311781592, 46.94822819595989 11.698275751180882, 46.60508890812658 12.158051136245302 M46.60508890812658 12.158051136245302 C46.341633858319874 12.467520428765276, 46.078178808513165 12.776989721285249, 45.79479594296866 13.10986736009567 M46.60508890812658 12.158051136245302 C46.420946880828865 12.374354839487387, 46.23680485353114 12.59065854272947, 45.79479594296866 13.10986736009567 M45.79479594296866 13.10986736009567 C45.5556423063248 13.356813124809182, 45.31648866968094 13.603758889522695, 44.92518473676799 14.007812326905684 M45.79479594296866 13.10986736009567 C45.586157589770075 13.325303589300574, 45.37751923657149 13.54073981850548, 44.92518473676799 14.007812326905684 M44.92518473676799 14.007812326905684 C44.68918398690995 14.222141963689085, 44.45318323705192 14.436471600472487, 43.99982870850189 14.848196188198111 M44.92518473676799 14.007812326905684 C44.61389070042141 14.290521334326789, 44.30259666407483 14.573230341747893, 43.99982870850189 14.848196188198111 M43.99982870850189 14.848196188198111 C43.61581780984021 15.154434660921615, 43.23180691117854 15.460673133645118, 43.02253034457871 15.627565626425152 M43.99982870850189 14.848196188198111 C43.61725550817316 15.153288134759846, 43.23468230784444 15.45838008132158, 43.02253034457871 15.627565626425152 M43.02253034457871 15.627565626425152 C42.61740546573743 15.910163204331484, 42.21228058689615 16.192760782237816, 41.99730557360571 16.34271804539089 M43.02253034457871 15.627565626425152 C42.711235311580104 15.844711565700193, 42.399940278581504 16.061857504975233, 41.99730557360571 16.34271804539089 M41.99730557360571 16.34271804539089 C41.77289991605732 16.478754073750743, 41.54849425850894 16.614790102110597, 40.92836726407678 16.990714730406093 M41.99730557360571 16.34271804539089 C41.77682598496752 16.476374067705237, 41.55634639632934 16.61003009001959, 40.92836726407678 16.990714730406093 M40.92836726407678 16.990714730406093 C40.5675262849285 17.178965238098076, 40.206685305780205 17.367215745790062, 39.82010791279239 17.56889292409717 M40.92836726407678 16.990714730406093 C40.498752226875254 17.214844620132567, 40.069137189673725 17.43897450985904, 39.82010791279239 17.56889292409717 M39.82010791279239 17.56889292409717 C39.4532360100451 17.73129623257507, 39.08636410729781 17.893699541052968, 38.677081595147804 18.07487676824742 M39.82010791279239 17.56889292409717 C39.462969791250515 17.726987376377792, 39.105831669708635 17.885081828658414, 38.677081595147804 18.07487676824742 M38.677081595147804 18.07487676824742 C38.212034687367556 18.246018329157042, 37.74698777958731 18.417159890066664, 37.50398525146062 18.506587066708033 M38.677081595147804 18.07487676824742 C38.267070459256544 18.225764656356798, 37.85705932336528 18.376652544466175, 37.50398525146062 18.506587066708033 M37.50398525146062 18.506587066708033 C37.229411996078305 18.588078967641074, 36.954838740696 18.66957086857412, 36.30563938623541 18.86224982926107 M37.50398525146062 18.506587066708033 C37.25482418001527 18.58053676483986, 37.00566310856992 18.654486462971686, 36.30563938623541 18.86224982926107 M36.30563938623541 18.86224982926107 C36.010727594027074 18.929561521353328, 35.71581580181873 18.996873213445586, 35.086968259676766 19.140403561325773 M36.30563938623541 18.86224982926107 C35.83361185596845 18.969987032777002, 35.361584325701486 19.077724236292937, 35.086968259676766 19.140403561325773 M35.086968259676766 19.140403561325773 C34.7596704763898 19.193318528695393, 34.43237269310283 19.24623349606501, 33.85297965284788 19.3399052695533 M35.086968259676766 19.140403561325773 C34.76252018917991 19.19285780923134, 34.438072118683046 19.245312057136907, 33.85297965284788 19.3399052695533 M33.85297965284788 19.3399052695533 C33.3978792247809 19.383808260510577, 32.942778796713924 19.427711251467855, 32.6087442896239 19.45993515863156 M33.85297965284788 19.3399052695533 C33.36763967666424 19.386725433349014, 32.88229970048061 19.43354559714473, 32.6087442896239 19.45993515863156 M32.6087442896239 19.45993515863156 C32.34965704752363 19.46824358220299, 32.090569805423364 19.476552005774423, 31.359375000000004 19.5 M32.6087442896239 19.45993515863156 C32.31283398641921 19.46942442610087, 32.016923683214515 19.47891369357018, 31.359375000000004 19.5 M31.359375000000004 19.5 C31.359375000000004 19.5, 31.359375 19.5, 31.359375 19.5 M31.359375000000004 19.5 C31.359375000000004 19.5, 31.359375 19.5, 31.359375 19.5 M31.359375 19.5 C17.67786490917576 19.5, 3.99635481835152 19.5, -31.359374999999996 19.5 M31.359375 19.5 C7.223436014082139 19.5, -16.91250297183572 19.5, -31.359374999999996 19.5 M-31.359374999999996 19.5 C-31.751396320433315 19.487428639276914, -32.14341764086664 19.474857278553827, -32.60874428962389 19.45993515863156 M-31.359374999999996 19.5 C-31.741863673527078 19.487734332709024, -32.12435234705416 19.475468665418052, -32.60874428962389 19.45993515863156 M-32.60874428962389 19.45993515863156 C-33.0961297263662 19.412917671715775, -33.58351516310851 19.36590018479999, -33.85297965284787 19.3399052695533 M-32.60874428962389 19.45993515863156 C-33.03159402975538 19.41914335275229, -33.45444376988688 19.37835154687302, -33.85297965284787 19.3399052695533 M-33.85297965284787 19.3399052695533 C-34.195906165369905 19.28446357044356, -34.53883267789194 19.22902187133382, -35.08696825967676 19.140403561325773 M-33.85297965284787 19.3399052695533 C-34.30555277472888 19.266736756964555, -34.7581258966099 19.19356824437581, -35.08696825967676 19.140403561325773 M-35.08696825967676 19.140403561325773 C-35.47939373605054 19.050835007159012, -35.87181921242431 18.961266452992252, -36.305639386235384 18.862249829261074 M-35.08696825967676 19.140403561325773 C-35.483449619478456 19.049909278233702, -35.87993097928016 18.959414995141632, -36.305639386235384 18.862249829261074 M-36.305639386235384 18.862249829261074 C-36.75644528282005 18.728453005483185, -37.20725117940472 18.594656181705297, -37.50398525146059 18.506587066708043 M-36.305639386235384 18.862249829261074 C-36.74681615091055 18.73131088128958, -37.18799291558571 18.600371933318087, -37.50398525146059 18.506587066708043 M-37.50398525146059 18.506587066708043 C-37.95913538039316 18.33908761189919, -38.41428550932572 18.171588157090333, -38.6770815951478 18.074876768247425 M-37.50398525146059 18.506587066708043 C-37.86724573016425 18.372903852602043, -38.23050620886791 18.239220638496043, -38.6770815951478 18.074876768247425 M-38.6770815951478 18.074876768247425 C-38.926127133471674 17.964631696104853, -39.17517267179555 17.85438662396228, -39.82010791279238 17.568892924097174 M-38.6770815951478 18.074876768247425 C-39.132792227640785 17.87314718941839, -39.58850286013378 17.671417610589355, -39.82010791279238 17.568892924097174 M-39.82010791279238 17.568892924097174 C-40.0940136779774 17.425996461845166, -40.36791944316242 17.283099999593155, -40.92836726407678 16.990714730406097 M-39.82010791279238 17.568892924097174 C-40.21523562074282 17.36275505195081, -40.61036332869325 17.156617179804442, -40.92836726407678 16.990714730406097 M-40.92836726407678 16.990714730406097 C-41.28343882691565 16.77546826238106, -41.638510389754515 16.56022179435602, -41.997305573605686 16.3427180453909 M-40.92836726407678 16.990714730406097 C-41.244055982464374 16.799342374126706, -41.559744700851965 16.607970017847315, -41.997305573605686 16.3427180453909 M-41.997305573605686 16.3427180453909 C-42.36737775212899 16.084571713819454, -42.73744993065229 15.826425382248008, -43.02253034457871 15.627565626425156 M-41.997305573605686 16.3427180453909 C-42.30890388570285 16.12536055174545, -42.62050219780001 15.908003058100002, -43.02253034457871 15.627565626425156 M-43.02253034457871 15.627565626425156 C-43.3526910660845 15.364271236970074, -43.68285178759029 15.100976847514993, -43.999828708501866 14.848196188198125 M-43.02253034457871 15.627565626425156 C-43.38590532796671 15.337783746987638, -43.74928031135472 15.04800186755012, -43.999828708501866 14.848196188198125 M-43.999828708501866 14.848196188198125 C-44.31327605723859 14.563531599437818, -44.62672340597531 14.278867010677512, -44.925184736767974 14.007812326905697 M-43.999828708501866 14.848196188198125 C-44.35123851902585 14.529055096074327, -44.70264832954983 14.20991400395053, -44.925184736767974 14.007812326905697 M-44.925184736767974 14.007812326905697 C-45.12903321644658 13.797322035366102, -45.332881696125185 13.58683174382651, -45.794795942968655 13.109867360095677 M-44.925184736767974 14.007812326905697 C-45.26191214818935 13.660113628778506, -45.59863955961073 13.312414930651316, -45.794795942968655 13.109867360095677 M-45.794795942968655 13.109867360095677 C-46.00134875625626 12.86723867242002, -46.20790156954387 12.624609984744362, -46.605088908126575 12.158051136245307 M-45.794795942968655 13.109867360095677 C-45.99262185121766 12.877489791653328, -46.190447759466664 12.64511222321098, -46.605088908126575 12.158051136245307 M-46.605088908126575 12.158051136245307 C-46.88880174223993 11.777901785304323, -47.17251457635328 11.397752434363339, -47.352733964640635 11.156274872382316 M-46.605088908126575 12.158051136245307 C-46.78597716482677 11.915677351526249, -46.966865421526954 11.673303566807192, -47.352733964640635 11.156274872382316 M-47.352733964640635 11.156274872382316 C-47.49661207005227 10.935239465789097, -47.6404901754639 10.714204059195879, -48.03465887860425 10.108655082055249 M-47.352733964640635 11.156274872382316 C-47.515408823533804 10.906362604806416, -47.67808368242697 10.656450337230519, -48.03465887860425 10.108655082055249 M-48.03465887860425 10.108655082055249 C-48.250814333519365 9.724849183740188, -48.466969788434476 9.341043285425126, -48.648061474273504 9.019496659696289 M-48.03465887860425 10.108655082055249 C-48.21415123617634 9.789948225613898, -48.393643593748436 9.471241369172548, -48.648061474273504 9.019496659696289 M-48.648061474273504 9.019496659696289 C-48.826708262091636 8.648532782363011, -49.005355049909774 8.277568905029735, -49.19042114880834 7.893275190886686 M-48.648061474273504 9.019496659696289 C-48.839404735432055 8.622168283810623, -49.03074799659061 8.224839907924956, -49.19042114880834 7.893275190886686 M-49.19042114880834 7.893275190886686 C-49.37456744616741 7.438430276183317, -49.55871374352649 6.983585361479949, -49.659509229970325 6.73461856121551 M-49.19042114880834 7.893275190886686 C-49.31454274295547 7.5866924536155125, -49.438664337102594 7.28010971634434, -49.659509229970325 6.73461856121551 M-49.659509229970325 6.73461856121551 C-49.79607521808198 6.323303563858492, -49.932641206193644 5.911988566501472, -50.05339813421488 5.5482879393051325 M-49.659509229970325 6.73461856121551 C-49.81706086242283 6.26009814671223, -49.97461249487532 5.78557773220895, -50.05339813421488 5.5482879393051325 M-50.05339813421488 5.5482879393051325 C-50.134036542393964 5.24077874001111, -50.21467495057305 4.933269540717086, -50.37046928754556 4.339158212148136 M-50.05339813421488 5.5482879393051325 C-50.174432073603434 5.086733071975437, -50.29546601299198 4.625178204645742, -50.37046928754556 4.339158212148136 M-50.37046928754556 4.339158212148136 C-50.431201530027515 4.027310982767285, -50.49193377250947 3.715463753386434, -50.609419776581774 3.112197953150904 M-50.37046928754556 4.339158212148136 C-50.440205944889755 3.981075215533451, -50.50994260223395 3.6229922189187658, -50.609419776581774 3.112197953150904 M-50.609419776581774 3.112197953150904 C-50.64906389488354 2.80472600021907, -50.6887080131853 2.497254047287236, -50.76926770250937 1.872449005199809 M-50.609419776581774 3.112197953150904 C-50.64935704914206 2.802452353679796, -50.689294321702356 2.492706754208687, -50.76926770250937 1.872449005199809 M-50.76926770250937 1.872449005199809 C-50.79816523863524 1.4223465543680258, -50.82706277476111 0.9722441035362428, -50.84935621591342 0.6250057626472781 M-50.76926770250937 1.872449005199809 C-50.80129412633897 1.3736116027896286, -50.83332055016859 0.874774200379448, -50.84935621591342 0.6250057626472781 M-50.84935621591342 0.6250057626472781 C-50.84935621591342 0.36705644303806845, -50.84935621591342 0.10910712342885875, -50.84935621591342 -0.6250057626472687 M-50.84935621591342 0.6250057626472781 C-50.84935621591342 0.1456253967569936, -50.84935621591342 -0.33375496913329095, -50.84935621591342 -0.6250057626472687 M-50.84935621591342 -0.6250057626472687 C-50.82890949144237 -0.9434800005827972, -50.80846276697132 -1.2619542385183258, -50.76926770250937 -1.8724490051997822 M-50.84935621591342 -0.6250057626472687 C-50.82580357170822 -0.9918572074953779, -50.80225092750303 -1.358708652343487, -50.76926770250937 -1.8724490051997822 M-50.76926770250937 -1.8724490051997822 C-50.73510441661456 -2.1374127042960556, -50.70094113071975 -2.4023764033923287, -50.609419776581774 -3.112197953150895 M-50.76926770250937 -1.8724490051997822 C-50.7074362725117 -2.3520013662647896, -50.64560484251403 -2.8315537273297977, -50.609419776581774 -3.112197953150895 M-50.609419776581774 -3.112197953150895 C-50.53715578023945 -3.4832583013677025, -50.46489178389712 -3.85431864958451, -50.37046928754556 -4.339158212148126 M-50.609419776581774 -3.112197953150895 C-50.55884841070109 -3.3718712286862713, -50.508277044820396 -3.6315445042216474, -50.37046928754556 -4.339158212148126 M-50.37046928754556 -4.339158212148126 C-50.256743678402955 -4.77284324879968, -50.14301806926035 -5.206528285451234, -50.05339813421489 -5.548287939305123 M-50.37046928754556 -4.339158212148126 C-50.27570701200675 -4.70052783900764, -50.180944736467936 -5.061897465867156, -50.05339813421489 -5.548287939305123 M-50.05339813421489 -5.548287939305123 C-49.94703487408256 -5.868637132139581, -49.84067161395024 -6.188986324974039, -49.65950922997033 -6.734618561215485 M-50.05339813421489 -5.548287939305123 C-49.95989676429116 -5.829899168095207, -49.86639539436743 -6.111510396885292, -49.65950922997033 -6.734618561215485 M-49.65950922997033 -6.734618561215485 C-49.52153493492466 -7.075417737529811, -49.38356063987899 -7.416216913844138, -49.19042114880834 -7.893275190886676 M-49.65950922997033 -6.734618561215485 C-49.526849550961344 -7.062290533168094, -49.394189871952356 -7.389962505120702, -49.19042114880834 -7.893275190886676 M-49.19042114880834 -7.893275190886676 C-49.05105843218112 -8.182664853847545, -48.911695715553904 -8.472054516808415, -48.648061474273504 -9.019496659696282 M-49.19042114880834 -7.893275190886676 C-49.001232983873955 -8.286128463351185, -48.81204481893957 -8.678981735815693, -48.648061474273504 -9.019496659696282 M-48.648061474273504 -9.019496659696282 C-48.409679106124166 -9.442768693177737, -48.17129673797482 -9.866040726659191, -48.03465887860425 -10.108655082055243 M-48.648061474273504 -9.019496659696282 C-48.520214241315976 -9.246502367748521, -48.39236700835845 -9.473508075800762, -48.03465887860425 -10.108655082055243 M-48.03465887860425 -10.108655082055243 C-47.78510027819149 -10.492044108156557, -47.53554167777873 -10.875433134257872, -47.35273396464064 -11.156274872382308 M-48.03465887860425 -10.108655082055243 C-47.89253266724941 -10.3269991089278, -47.75040645589457 -10.545343135800358, -47.35273396464064 -11.156274872382308 M-47.35273396464064 -11.156274872382308 C-47.17243215455409 -11.397862872065486, -46.992130344467526 -11.639450871748664, -46.60508890812659 -12.158051136245302 M-47.35273396464064 -11.156274872382308 C-47.14978854740949 -11.428203242764194, -46.94684313017834 -11.700131613146082, -46.60508890812659 -12.158051136245302 M-46.60508890812659 -12.158051136245302 C-46.34711675326512 -12.461079908377036, -46.08914459840365 -12.76410868050877, -45.79479594296866 -13.10986736009567 M-46.60508890812659 -12.158051136245302 C-46.36873161490667 -12.4356898619724, -46.132374321686754 -12.713328587699495, -45.79479594296866 -13.10986736009567 M-45.79479594296866 -13.10986736009567 C-45.56643375228486 -13.345670070861235, -45.338071561601055 -13.581472781626799, -44.925184736767996 -14.007812326905677 M-45.79479594296866 -13.10986736009567 C-45.6164383363619 -13.294036232348985, -45.438080729755136 -13.478205104602301, -44.925184736767996 -14.007812326905677 M-44.925184736767996 -14.007812326905677 C-44.678244928948835 -14.232076526697758, -44.431305121129675 -14.456340726489838, -43.99982870850189 -14.848196188198107 M-44.925184736767996 -14.007812326905677 C-44.64050914551585 -14.266347166777479, -44.355833554263704 -14.524882006649282, -43.99982870850189 -14.848196188198107 M-43.99982870850189 -14.848196188198107 C-43.68812875693571 -15.096768604888068, -43.376428805369535 -15.345341021578028, -43.02253034457872 -15.627565626425149 M-43.99982870850189 -14.848196188198107 C-43.62362544781841 -15.14820827740397, -43.24742218713494 -15.448220366609833, -43.02253034457872 -15.627565626425149 M-43.02253034457872 -15.627565626425149 C-42.68363597372249 -15.863963669033588, -42.344741602866264 -16.100361711642027, -41.997305573605715 -16.342718045390885 M-43.02253034457872 -15.627565626425149 C-42.675827487422765 -15.869410531052353, -42.32912463026681 -16.111255435679556, -41.997305573605715 -16.342718045390885 M-41.997305573605715 -16.342718045390885 C-41.60683143023165 -16.579425765785015, -41.21635728685759 -16.816133486179144, -40.92836726407679 -16.99071473040609 M-41.997305573605715 -16.342718045390885 C-41.63816326895938 -16.56043222102194, -41.279020964313055 -16.778146396652996, -40.92836726407679 -16.99071473040609 M-40.92836726407679 -16.99071473040609 C-40.49757136829847 -17.2154606732957, -40.06677547252015 -17.440206616185307, -39.82010791279239 -17.56889292409717 M-40.92836726407679 -16.99071473040609 C-40.657698348889916 -17.131922530087365, -40.38702943370305 -17.273130329768644, -39.82010791279239 -17.56889292409717 M-39.82010791279239 -17.56889292409717 C-39.392430999429 -17.75821280705826, -38.96475408606561 -17.947532690019354, -38.677081595147804 -18.07487676824742 M-39.82010791279239 -17.56889292409717 C-39.40471527312356 -17.752774923493714, -38.989322633454734 -17.936656922890254, -38.677081595147804 -18.07487676824742 M-38.677081595147804 -18.07487676824742 C-38.20794351139506 -18.24752391973334, -37.73880542764231 -18.420171071219254, -37.50398525146062 -18.506587066708033 M-38.677081595147804 -18.07487676824742 C-38.31815856104381 -18.20696376264585, -37.959235526939814 -18.339050757044273, -37.50398525146062 -18.506587066708033 M-37.50398525146062 -18.506587066708033 C-37.08894996873082 -18.62976736005758, -36.67391468600103 -18.75294765340713, -36.30563938623541 -18.862249829261067 M-37.50398525146062 -18.506587066708033 C-37.240466224731584 -18.584798130601612, -36.97694719800255 -18.663009194495192, -36.30563938623541 -18.862249829261067 M-36.30563938623541 -18.862249829261067 C-35.880234364188425 -18.95934574951609, -35.45482934214144 -19.056441669771115, -35.086968259676766 -19.140403561325773 M-36.30563938623541 -18.862249829261067 C-35.8853204507837 -18.958184883440534, -35.46500151533199 -19.05411993762, -35.086968259676766 -19.140403561325773 M-35.086968259676766 -19.140403561325773 C-34.65482666255982 -19.210268863439502, -34.222685065442874 -19.280134165553235, -33.85297965284788 -19.3399052695533 M-35.086968259676766 -19.140403561325773 C-34.7406624502953 -19.196391598944906, -34.39435664091383 -19.25237963656404, -33.85297965284788 -19.3399052695533 M-33.85297965284788 -19.3399052695533 C-33.51365298159957 -19.372639705428593, -33.17432631035126 -19.405374141303888, -32.6087442896239 -19.45993515863156 M-33.85297965284788 -19.3399052695533 C-33.38404498079703 -19.385142833389587, -32.91511030874618 -19.43038039722588, -32.6087442896239 -19.45993515863156 M-32.6087442896239 -19.45993515863156 C-32.28919073399167 -19.470182619187423, -31.969637178359434 -19.480430079743282, -31.359375000000007 -19.5 M-32.6087442896239 -19.45993515863156 C-32.24364167701263 -19.47164328878888, -31.878539064401362 -19.483351418946196, -31.359375000000007 -19.5 M-31.359375000000007 -19.5 C-31.359375000000004 -19.5, -31.359375000000004 -19.5, -31.359375 -19.5 M-31.359375000000007 -19.5 C-31.359375000000004 -19.5, -31.359375000000004 -19.5, -31.359375 -19.5" stroke="#999" stroke-width="1.3" fill="none" stroke-dasharray="0 0" style=""/></g><g class="label" style="" transform="translate(-38.484375, -12)"><rect/><foreignObject width="76.96875" height="24"><div xmlns="http://www.w3.org/1999/xhtml" style="display: table-cell; white-space: nowrap; line-height: 1.5; max-width: 200px; text-align: center;"><span class="nodeLabel"><p>Унос ISBN</p></span></div></foreignObject></g></g><g class="node default" id="my-svg-flowchart-B-1" data-look="classic" transform="translate(205.1875, 124)"><rect class="basic label-container" style="" x="-111.953125" y="-27" width="223.90625" height="54"/><g class="label" style="" transform="translate(-81.953125, -12)"><rect/><foreignObject width="163.90625" height="24"><div xmlns="http://www.w3.org/1999/xhtml" style="display: table-cell; white-space: nowrap; line-height: 1.5; max-width: 200px; text-align: center;"><span class="nodeLabel"><p>Нормализуј и потврди</p></span></div></foreignObject></g></g><g class="node default" id="my-svg-flowchart-C-3" data-look="classic" transform="translate(205.1875, 306.203125)"><polygon points="105.203125,0 210.40625,-105.203125 105.203125,-210.40625 0,-105.203125" class="label-container" transform="translate(-104.703125, 105.203125)"/><g class="label" style="" transform="translate(-66.203125, -24)"><rect/><foreignObject width="132.40625" height="48"><div xmlns="http://www.w3.org/1999/xhtml" style="display: table-cell; white-space: nowrap; line-height: 1.5; max-width: 200px; text-align: center;"><span class="nodeLabel"><p>Контролна цифра<br />исправна?</p></span></div></foreignObject></g></g><g class="node default" id="my-svg-flowchart-D-5" data-look="classic" transform="translate(283.984375, 1128.5078125)"><rect class="basic label-container" style="fill:#ffebee !important;stroke:#c62828 !important" x="-130" y="-39" width="260" height="78"/><g class="label" style="" transform="translate(-100, -24)"><rect/><foreignObject width="200" height="48"><div xmlns="http://www.w3.org/1999/xhtml" style="display: table; white-space: break-spaces; line-height: 1.5; max-width: 200px; text-align: center; width: 200px;"><span class="nodeLabel"><p>Покажи грешку валидације</p></span></div></foreignObject></g></g><g class="node default" id="my-svg-flowchart-E-7" data-look="classic" transform="translate(324.4921875, 1353.875)"><rect class="basic label-container" style="fill:#fff3e0 !important;stroke:#e65100 !important" x="-87.734375" y="-39" width="175.46875" height="78"/><g class="label" style="" transform="translate(-57.734375, -24)"><rect/><foreignObject width="115.46875" height="48"><div xmlns="http://www.w3.org/1999/xhtml" style="display: table-cell; white-space: nowrap; line-height: 1.5; max-width: 200px; text-align: center;"><span class="nodeLabel"><p>Ручни унос<br />(увек доступан)</p></span></div></foreignObject></g></g><g class="node default" id="my-svg-flowchart-F-9" data-look="classic" transform="translate(126.390625, 512.40625)"><rect class="basic label-container" style="" x="-101.796875" y="-27" width="203.59375" height="54"/><g class="label" style="" transform="translate(-71.796875, -12)"><rect/><foreignObject width="143.59375" height="24"><div xmlns="http://www.w3.org/1999/xhtml" style="display: table-cell; white-space: nowrap; line-height: 1.5; max-width: 200px; text-align: center;"><span class="nodeLabel"><p>Упитај Open Library</p></span></div></foreignObject></g></g><g class="node default" id="my-svg-flowchart-G-11" data-look="classic" transform="translate(126.390625, 701.7734375)"><polygon points="112.3671875,0 224.734375,-112.3671875 112.3671875,-224.734375 0,-112.3671875" class="label-container" transform="translate(-111.8671875, 112.3671875)"/><g class="label" style="" transform="translate(-73.3671875, -24)"><rect/><foreignObject width="146.734375" height="48"><div xmlns="http://www.w3.org/1999/xhtml" style="display: table-cell; white-space: nowrap; line-height: 1.5; max-width: 200px; text-align: center;"><span class="nodeLabel"><p>Пронађени корисни<br />метаподаци?</p></span></div></foreignObject></g></g><g class="node default" id="my-svg-flowchart-H-13" data-look="classic" transform="translate(126.390625, 927.140625)"><rect class="basic label-container" style="fill:#e8f5e9 !important;stroke:#2e7d32 !important" x="-118.390625" y="-39" width="236.78125" height="78"/><g class="label" style="" transform="translate(-88.390625, -24)"><rect/><foreignObject width="176.78125" height="48"><div xmlns="http://www.w3.org/1999/xhtml" style="display: table-cell; white-space: nowrap; line-height: 1.5; max-width: 200px; text-align: center;"><span class="nodeLabel"><p>Врати метаподатке<br />Пружалац: Open Library</p></span></div></foreignObject></g></g><g class="node default" id="my-svg-flowchart-I-15" data-look="classic" transform="translate(600.7421875, 927.140625)"><rect class="basic label-container" style="" x="-105.2109375" y="-39" width="210.421875" height="78"/><g class="label" style="" transform="translate(-75.2109375, -24)"><rect/><foreignObject width="150.421875" height="48"><div xmlns="http://www.w3.org/1999/xhtml" style="display: table-cell; white-space: nowrap; line-height: 1.5; max-width: 200px; text-align: center;"><span class="nodeLabel"><p>Упитај Let Books<br />метаподатковни API</p></span></div></foreignObject></g></g><g class="node default" id="my-svg-flowchart-J-17" data-look="classic" transform="translate(600.7421875, 1128.5078125)"><polygon points="112.3671875,0 224.734375,-112.3671875 112.3671875,-224.734375 0,-112.3671875" class="label-container" transform="translate(-111.8671875, 112.3671875)"/><g class="label" style="" transform="translate(-73.3671875, -24)"><rect/><foreignObject width="146.734375" height="48"><div xmlns="http://www.w3.org/1999/xhtml" style="display: table-cell; white-space: nowrap; line-height: 1.5; max-width: 200px; text-align: center;"><span class="nodeLabel"><p>Пронађени корисни<br />метаподаци?</p></span></div></foreignObject></g></g><g class="node default" id="my-svg-flowchart-K-19" data-look="classic" transform="translate(646.18359375, 1353.875)"><rect class="basic label-container" style="fill:#e8f5e9 !important;stroke:#2e7d32 !important" x="-122.3984375" y="-39" width="244.796875" height="78"/><g class="label" style="" transform="translate(-92.3984375, -24)"><rect/><foreignObject width="184.796875" height="48"><div xmlns="http://www.w3.org/1999/xhtml" style="display: table-cell; white-space: nowrap; line-height: 1.5; max-width: 200px; text-align: center;"><span class="nodeLabel"><p>Врати метаподатке<br />Пружалац: Let Books API</p></span></div></foreignObject></g></g></g></g></g><defs><filter id="my-svg-drop-shadow" height="130%" width="130%"><feDropShadow dx="4" dy="4" stdDeviation="0" flood-opacity="0.06" flood-color="#000000"/></filter></defs><defs><filter id="my-svg-drop-shadow-small" height="150%" width="150%"><feDropShadow dx="2" dy="2" stdDeviation="0" flood-opacity="0.06" flood-color="#000000"/></filter></defs><linearGradient id="my-svg-gradient" gradientUnits="objectBoundingBox" x1="0%" y1="0%" x2="100%" y2="0%"><stop offset="0%" stop-color="hsl(0, 0%, 83.3333333333%)" stop-opacity="1"/><stop offset="100%" stop-color="hsl(0, 0%, 88.9215686275%)" stop-opacity="1"/></linearGradient><text text-anchor="middle" x="388.291015625" y="-25" class="flowchartTitleText">Ланац претраживања метаподатака ISBN</text></svg>