<svg id="my-svg" width="100%" xmlns="http://www.w3.org/2000/svg" xmlns:xlink="http://www.w3.org/1999/xlink" class="flowchart" style="max-width: 750.234px; background-color: transparent;" viewBox="0 -49 750.2340087890625 1353.0155029296875" role="graphics-document document" aria-roledescription="flowchart-v2"><style>#my-svg{font-family:"trebuchet ms",verdana,arial,sans-serif;font-size:16px;fill:#000000;}@keyframes edge-animation-frame{from{stroke-dashoffset:0;}}@keyframes dash{to{stroke-dashoffset:0;}}#my-svg .edge-animation-slow{stroke-dasharray:9,5!important;stroke-dashoffset:900;animation:dash 50s linear infinite;stroke-linecap:round;}#my-svg .edge-animation-fast{stroke-dasharray:9,5!important;stroke-dashoffset:900;animation:dash 20s linear infinite;stroke-linecap:round;}#my-svg .error-icon{fill:#552222;}#my-svg .error-text{fill:#552222;stroke:#552222;}#my-svg .edge-thickness-normal{stroke-width:1px;}#my-svg .edge-thickness-thick{stroke-width:3.5px;}#my-svg .edge-pattern-solid{stroke-dasharray:0;}#my-svg .edge-thickness-invisible{stroke-width:0;fill:none;}#my-svg .edge-pattern-dashed{stroke-dasharray:3;}#my-svg .edge-pattern-dotted{stroke-dasharray:2;}#my-svg .marker{fill:#666;stroke:#666;}#my-svg .marker.cross{stroke:#666;}#my-svg svg{font-family:"trebuchet ms",verdana,arial,sans-serif;font-size:16px;}#my-svg p{margin:0;}#my-svg .label{font-family:"trebuchet ms",verdana,arial,sans-serif;color:#000000;}#my-svg .cluster-label text{fill:#333;}#my-svg .cluster-label span{color:#333;}#my-svg .cluster-label span p{background-color:transparent;}#my-svg .label text,#my-svg span{fill:#000000;color:#000000;}#my-svg .node rect,#my-svg .node circle,#my-svg .node ellipse,#my-svg .node polygon,#my-svg .node path{fill:#eee;stroke:#999;stroke-width:1px;}#my-svg .rough-node .label text,#my-svg .node .label text,#my-svg .image-shape .label,#my-svg .icon-shape .label{text-anchor:middle;}#my-svg .node .katex path{fill:#000;stroke:#000;stroke-width:1px;}#my-svg .rough-node .label,#my-svg .node .label,#my-svg .image-shape .label,#my-svg .icon-shape .label{text-align:center;}#my-svg .node.clickable{cursor:pointer;}#my-svg .root .anchor path{fill:#666!important;stroke-width:0;stroke:#666;}#my-svg .arrowheadPath{fill:#333333;}#my-svg .edgePath .path{stroke:#666;stroke-width:1px;}#my-svg .flowchart-link{stroke:#666;fill:none;}#my-svg .edgeLabel{background-color:white;text-align:center;}#my-svg .edgeLabel p{background-color:white;}#my-svg .edgeLabel rect{opacity:0.5;background-color:white;fill:white;}#my-svg .labelBkg{background-color:rgba(255, 255, 255, 0.5);}#my-svg .cluster rect{fill:hsl(0, 0%, 98.9215686275%);stroke:#707070;stroke-width:1px;}#my-svg .cluster text{fill:#333;}#my-svg .cluster span{color:#333;}#my-svg div.mermaidTooltip{position:absolute;text-align:center;max-width:200px;padding:2px;font-family:"trebuchet ms",verdana,arial,sans-serif;font-size:12px;background:hsl(-160, 0%, 93.3333333333%);border:1px solid #707070;border-radius:2px;pointer-events:none;z-index:100;}#my-svg .flowchartTitleText{text-anchor:middle;font-size:18px;fill:#000000;}#my-svg rect.text{fill:none;stroke-width:0;}#my-svg .icon-shape,#my-svg .image-shape{background-color:white;text-align:center;}#my-svg .icon-shape p,#my-svg .image-shape p{background-color:white;padding:2px;}#my-svg .icon-shape .label rect,#my-svg .image-shape .label rect{opacity:0.5;background-color:white;fill:white;}#my-svg .label-icon{display:inline-block;height:1em;overflow:visible;vertical-align:-0.125em;}#my-svg .node .label-icon path{fill:currentColor;stroke:revert;stroke-width:revert;}#my-svg .node .neo-node{stroke:#999;}#my-svg [data-look="neo"].node rect,#my-svg [data-look="neo"].cluster rect,#my-svg [data-look="neo"].node polygon{stroke:url(#my-svg-gradient);filter:drop-shadow( 1px 2px 2px rgba(185,185,185,1));}#my-svg [data-look="neo"].node path{stroke:url(#my-svg-gradient);stroke-width:1px;}#my-svg [data-look="neo"].node .outer-path{filter:drop-shadow( 1px 2px 2px rgba(185,185,185,1));}#my-svg [data-look="neo"].node .neo-line path{stroke:#999;filter:none;}#my-svg [data-look="neo"].node circle{stroke:url(#my-svg-gradient);filter:drop-shadow( 1px 2px 2px rgba(185,185,185,1));}#my-svg [data-look="neo"].node circle .state-start{fill:#000000;}#my-svg [data-look="neo"].icon-shape .icon{fill:url(#my-svg-gradient);filter:drop-shadow( 1px 2px 2px rgba(185,185,185,1));}#my-svg [data-look="neo"].icon-shape .icon-neo path{stroke:url(#my-svg-gradient);filter:drop-shadow( 1px 2px 2px rgba(185,185,185,1));}#my-svg :root{--mermaid-font-family:"trebuchet ms",verdana,arial,sans-serif;}</style><g><marker id="my-svg_flowchart-v2-pointEnd" class="marker flowchart-v2" viewBox="0 0 10 10" refX="5" refY="5" markerUnits="userSpaceOnUse" markerWidth="8" markerHeight="8" orient="auto"><path d="M 0 0 L 10 5 L 0 10 z" class="arrowMarkerPath" style="stroke-width: 1; stroke-dasharray: 1, 0;"/></marker><marker id="my-svg_flowchart-v2-pointStart" class="marker flowchart-v2" viewBox="0 0 10 10" refX="4.5" refY="5" markerUnits="userSpaceOnUse" markerWidth="8" markerHeight="8" orient="auto"><path d="M 0 5 L 10 10 L 10 0 z" class="arrowMarkerPath" style="stroke-width: 1; stroke-dasharray: 1, 0;"/></marker><marker id="my-svg_flowchart-v2-pointEnd-margin" class="marker flowchart-v2" viewBox="0 0 11.5 14" refX="11.5" refY="7" markerUnits="userSpaceOnUse" markerWidth="10.5" markerHeight="14" orient="auto"><path d="M 0 0 L 11.5 7 L 0 14 z" class="arrowMarkerPath" style="stroke-width: 0; stroke-dasharray: 1, 0;"/></marker><marker id="my-svg_flowchart-v2-pointStart-margin" class="marker flowchart-v2" viewBox="0 0 11.5 14" refX="1" refY="7" markerUnits="userSpaceOnUse" markerWidth="11.5" markerHeight="14" orient="auto"><polygon points="0,7 11.5,14 11.5,0" class="arrowMarkerPath" style="stroke-width: 0; stroke-dasharray: 1, 0;"/></marker><marker id="my-svg_flowchart-v2-circleEnd" class="marker flowchart-v2" viewBox="0 0 10 10" refX="11" refY="5" markerUnits="userSpaceOnUse" markerWidth="11" markerHeight="11" orient="auto"><circle cx="5" cy="5" r="5" class="arrowMarkerPath" style="stroke-width: 1; stroke-dasharray: 1, 0;"/></marker><marker id="my-svg_flowchart-v2-circleStart" class="marker flowchart-v2" viewBox="0 0 10 10" refX="-1" refY="5" markerUnits="userSpaceOnUse" markerWidth="11" markerHeight="11" orient="auto"><circle cx="5" cy="5" r="5" class="arrowMarkerPath" style="stroke-width: 1; stroke-dasharray: 1, 0;"/></marker><marker id="my-svg_flowchart-v2-circleEnd-margin" class="marker flowchart-v2" viewBox="0 0 10 10" refY="5" refX="12.25" markerUnits="userSpaceOnUse" markerWidth="14" markerHeight="14" orient="auto"><circle cx="5" cy="5" r="5" class="arrowMarkerPath" style="stroke-width: 0; stroke-dasharray: 1, 0;"/></marker><marker id="my-svg_flowchart-v2-circleStart-margin" class="marker flowchart-v2" viewBox="0 0 10 10" refX="-2" refY="5" markerUnits="userSpaceOnUse" markerWidth="14" markerHeight="14" orient="auto"><circle cx="5" cy="5" r="5" class="arrowMarkerPath" style="stroke-width: 0; stroke-dasharray: 1, 0;"/></marker><marker id="my-svg_flowchart-v2-crossEnd" class="marker cross flowchart-v2" viewBox="0 0 11 11" refX="12" refY="5.2" markerUnits="userSpaceOnUse" markerWidth="11" markerHeight="11" orient="auto"><path d="M 1,1 l 9,9 M 10,1 l -9,9" class="arrowMarkerPath" style="stroke-width: 2; stroke-dasharray: 1, 0;"/></marker><marker id="my-svg_flowchart-v2-crossStart" class="marker cross flowchart-v2" viewBox="0 0 11 11" refX="-1" refY="5.2" markerUnits="userSpaceOnUse" markerWidth="11" markerHeight="11" orient="auto"><path d="M 1,1 l 9,9 M 10,1 l -9,9" class="arrowMarkerPath" style="stroke-width: 2; stroke-dasharray: 1, 0;"/></marker><marker id="my-svg_flowchart-v2-crossEnd-margin" class="marker cross flowchart-v2" viewBox="0 0 15 15" refX="17.7" refY="7.5" markerUnits="userSpaceOnUse" markerWidth="12" markerHeight="12" orient="auto"><path d="M 1,1 L 14,14 M 1,14 L 14,1" class="arrowMarkerPath" style="stroke-width: 2.5;"/></marker><marker id="my-svg_flowchart-v2-crossStart-margin" class="marker cross flowchart-v2" viewBox="0 0 15 15" refX="-3.5" refY="7.5" markerUnits="userSpaceOnUse" markerWidth="12" markerHeight="12" orient="auto"><path d="M 1,1 L 14,14 M 1,14 L 14,1" class="arrowMarkerPath" style="stroke-width: 2.5; stroke-dasharray: 1, 0;"/></marker><g class="root"><g class="clusters"/><g class="edgePaths"><path d="M203.598,40.5L203.514,44.583C203.431,48.667,203.264,56.833,203.181,64.417C203.098,72,203.098,79,203.098,82.5L203.098,86" id="my-svg-L_A_B_0" class="edge-thickness-normal edge-pattern-solid edge-thickness-normal edge-pattern-solid flowchart-link" style=";" data-edge="true" data-et="edge" data-id="L_A_B_0" data-points="W3sieCI6MjAzLjU5NzY1NjI1LCJ5Ijo0MC41MDAwMDAwMDAwMDAwMTR9LHsieCI6MjAzLjA5NzY1NjI1LCJ5Ijo2NX0seyJ4IjoyMDMuMDk3NjU2MjUsInkiOjkwfV0=" data-look="classic" marker-end="url(#my-svg_flowchart-v2-pointEnd)"/><path d="M203.098,137L203.098,141.167C203.098,145.333,203.098,153.667,203.098,161.333C203.098,169,203.098,176,203.098,179.5L203.098,183" id="my-svg-L_B_C_0" class="edge-thickness-normal edge-pattern-solid edge-thickness-normal edge-pattern-solid flowchart-link" style=";" data-edge="true" data-et="edge" data-id="L_B_C_0" data-points="W3sieCI6MjAzLjA5NzY1NjI1LCJ5IjoxMzd9LHsieCI6MjAzLjA5NzY1NjI1LCJ5IjoxNjJ9LHsieCI6MjAzLjA5NzY1NjI1LCJ5IjoxODd9XQ==" data-look="classic" marker-end="url(#my-svg_flowchart-v2-pointEnd)"/><path d="M238.965,348.248L245.77,360.143C252.576,372.037,266.186,395.826,272.992,417.554C279.797,439.282,279.797,458.949,279.797,476.866C279.797,494.782,279.797,510.949,279.797,540.811C279.797,570.674,279.797,614.232,279.797,659.541C279.797,704.849,279.797,751.907,279.797,786.736C279.797,821.566,279.797,844.166,279.797,865.016C279.797,885.866,279.797,904.966,279.797,930.245C279.797,955.524,279.797,986.982,279.797,1002.711L279.797,1018.441" id="my-svg-L_C_D_0" class="edge-thickness-normal edge-pattern-solid edge-thickness-normal edge-pattern-solid flowchart-link" style=";" data-edge="true" data-et="edge" data-id="L_C_D_0" data-points="W3sieCI6MjM4Ljk2NTA1OTEwODMyMjQ0LCJ5IjozNDguMjQ4MjI4MjQ1MTkzMTZ9LHsieCI6Mjc5Ljc5Njg3NSwieSI6NDE5LjYxNTYzMTEwMzUxNTZ9LHsieCI6Mjc5Ljc5Njg3NSwieSI6NDc4LjYxNTYzMTEwMzUxNTZ9LHsieCI6Mjc5Ljc5Njg3NSwieSI6NTI3LjExNTYzMTEwMzUxNTZ9LHsieCI6Mjc5Ljc5Njg3NSwieSI6NjU3Ljc5MDYyNjUyNTg3ODl9LHsieCI6Mjc5Ljc5Njg3NSwieSI6Nzk4Ljk2NTYyMTk0ODI0MjJ9LHsieCI6Mjc5Ljc5Njg3NSwieSI6ODY2Ljc2NTYyMTE4NTMwMjd9LHsieCI6Mjc5Ljc5Njg3NSwieSI6OTI0LjA2NTYyMDQyMjM2MzN9LHsieCI6Mjc5Ljc5Njg3NSwieSI6MTAyMi40NDA2MTY2MDc2NjZ9XQ==" data-look="classic" marker-end="url(#my-svg_flowchart-v2-pointEnd)"/><path d="M279.797,1087.041L279.797,1105.186C279.797,1123.332,279.797,1159.624,283.073,1183.118C286.349,1206.612,292.902,1217.308,296.178,1222.657L299.454,1228.005" id="my-svg-L_D_E_0" class="edge-thickness-normal edge-pattern-solid edge-thickness-normal edge-pattern-solid flowchart-link" style=";" data-edge="true" data-et="edge" data-id="L_D_E_0" data-points="W3sieCI6Mjc5Ljc5Njg3NSwieSI6MTA4Ny4wNDA2MTUwODE3ODd9LHsieCI6Mjc5Ljc5Njg3NSwieSI6MTE5NS45MTU2MTEyNjcwODk4fSx7IngiOjMwMS41NDM2MTEzOTQyMzIyLCJ5IjoxMjMxLjQxNTYxMTI2NzA4OTh9XQ==" data-look="classic" marker-end="url(#my-svg_flowchart-v2-pointEnd)"/><path d="M167.23,348.248L160.425,360.143C153.62,372.037,140.009,395.826,133.204,412.971C126.398,430.116,126.398,440.616,126.398,445.866L126.398,451.116" id="my-svg-L_C_F_0" class="edge-thickness-normal edge-pattern-solid edge-thickness-normal edge-pattern-solid flowchart-link" style=";" data-edge="true" data-et="edge" data-id="L_C_F_0" data-points="W3sieCI6MTY3LjIzMDI1MzM5MTY3NzYsInkiOjM0OC4yNDgyMjgyNDUxOTMyfSx7IngiOjEyNi4zOTg0Mzc1LCJ5Ijo0MTkuNjE1NjMxMTAzNTE1Nn0seyJ4IjoxMjYuMzk4NDM3NSwieSI6NDU1LjExNTYzMTEwMzUxNTZ9XQ==" data-look="classic" marker-end="url(#my-svg_flowchart-v2-pointEnd)"/><path d="M126.398,502.116L126.398,506.282C126.398,510.449,126.398,518.782,126.398,526.449C126.398,534.116,126.398,541.116,126.398,544.616L126.398,548.116" id="my-svg-L_F_G_0" class="edge-thickness-normal edge-pattern-solid edge-thickness-normal edge-pattern-solid flowchart-link" style=";" data-edge="true" data-et="edge" data-id="L_F_G_0" data-points="W3sieCI6MTI2LjM5ODQzNzUsInkiOjUwMi4xMTU2MzExMDM1MTU2fSx7IngiOjEyNi4zOTg0Mzc1LCJ5Ijo1MjcuMTE1NjMxMTAzNTE1Nn0seyJ4IjoxMjYuMzk4NDM3NSwieSI6NTUyLjExNTYzMTEwMzUxNTZ9XQ==" data-look="classic" marker-end="url(#my-svg_flowchart-v2-pointEnd)"/><path d="M126.398,763.466L126.398,769.382C126.398,775.299,126.398,787.132,126.398,798.299C126.398,809.466,126.398,819.966,126.398,825.216L126.398,830.466" id="my-svg-L_G_H_0" class="edge-thickness-normal edge-pattern-solid edge-thickness-normal edge-pattern-solid flowchart-link" style=";" data-edge="true" data-et="edge" data-id="L_G_H_0" data-points="W3sieCI6MTI2LjM5ODQzNzUsInkiOjc2My40NjU2MjE5NDgyNDIyfSx7IngiOjEyNi4zOTg0Mzc1LCJ5Ijo3OTguOTY1NjIxOTQ4MjQyMn0seyJ4IjoxMjYuMzk4NDM3NSwieSI6ODM0LjQ2NTYyMTk0ODI0MjJ9XQ==" data-look="classic" marker-end="url(#my-svg_flowchart-v2-pointEnd)"/><path d="M206.663,683.201L267.609,702.495C328.554,721.789,450.445,760.377,511.39,784.921C572.336,809.466,572.336,819.966,572.336,825.216L572.336,830.466" id="my-svg-L_G_I_0" class="edge-thickness-normal edge-pattern-solid edge-thickness-normal edge-pattern-solid flowchart-link" style=";" data-edge="true" data-et="edge" data-id="L_G_I_0" data-points="W3sieCI6MjA2LjY2MzE4MDA0MDA0NzIyLCJ5Ijo2ODMuMjAwODc5NDA4MTk1fSx7IngiOjU3Mi4zMzU1NDQ1ODYxODE2LCJ5Ijo3OTguOTY1NjIxOTQ4MjQyMn0seyJ4Ijo1NzIuMzM1NTQ0NTg2MTgxNiwieSI6ODM0LjQ2NTYyMTk0ODI0MjJ9XQ==" data-look="classic" marker-end="url(#my-svg_flowchart-v2-pointEnd)"/><path d="M572.336,899.066L572.336,903.232C572.336,907.399,572.336,915.732,572.336,923.399C572.336,931.066,572.336,938.066,572.336,941.566L572.336,945.066" id="my-svg-L_I_J_0" class="edge-thickness-normal edge-pattern-solid edge-thickness-normal edge-pattern-solid flowchart-link" style=";" data-edge="true" data-et="edge" data-id="L_I_J_0" data-points="W3sieCI6NTcyLjMzNTU0NDU4NjE4MTYsInkiOjg5OS4wNjU2MjA0MjIzNjMzfSx7IngiOjU3Mi4zMzU1NDQ1ODYxODE2LCJ5Ijo5MjQuMDY1NjIwNDIyMzYzM30seyJ4Ijo1NzIuMzM1NTQ0NTg2MTgxNCwieSI6OTQ5LjA2NTYyMDQyMjM2Mjh9XQ==" data-look="classic" marker-end="url(#my-svg_flowchart-v2-pointEnd)"/><path d="M598.937,1133.815L602.418,1144.165C605.9,1154.515,612.864,1175.215,616.346,1190.815C619.828,1206.416,619.828,1216.916,619.828,1222.166L619.828,1227.416" id="my-svg-L_J_K_0" class="edge-thickness-normal edge-pattern-solid edge-thickness-normal edge-pattern-solid flowchart-link" style=";" data-edge="true" data-et="edge" data-id="L_J_K_0" data-points="W3sieCI6NTk4LjkzNjU0OTY5NDM0NTIsInkiOjExMzMuODE0NjA2MTU4OTI2Nn0seyJ4Ijo2MTkuODI3NzMyMDg2MTgxNiwieSI6MTE5NS45MTU2MTEyNjcwODk4fSx7IngiOjYxOS44Mjc3MzIwODYxODE2LCJ5IjoxMjMxLjQxNTYxMTI2NzA4OTh9XQ==" data-look="classic" marker-end="url(#my-svg_flowchart-v2-pointEnd)"/><path d="M521.661,1109.741L508.429,1124.104C495.196,1138.466,468.731,1167.191,445.526,1187.144C422.321,1207.097,402.377,1218.278,392.405,1223.869L382.433,1229.46" id="my-svg-L_J_E_0" class="edge-thickness-normal edge-pattern-solid edge-thickness-normal edge-pattern-solid flowchart-link" style=";" data-edge="true" data-et="edge" data-id="L_J_E_0" data-points="W3sieCI6NTIxLjY2MTE5NDU1NDgxODMsInkiOjExMDkuNzQxMjYxMjM1NzI2MX0seyJ4Ijo0NDIuMjY1MjMyMDg2MTgxNjQsInkiOjExOTUuOTE1NjExMjY3MDg5OH0seyJ4IjozNzguOTQzNzI3NDU1OTA5OTQsInkiOjEyMzEuNDE1NjExMjY3MDg5OH1d" data-look="classic" marker-end="url(#my-svg_flowchart-v2-pointEnd)"/></g><g class="edgeLabels"><g class="edgeLabel"><g class="label" data-id="L_A_B_0" transform="translate(0, 0)"><text y="-10.1" text-anchor="middle"><tspan class="text-outer-tspan row" x="0" y="-0.1em" dy="1.1em" text-anchor="middle"/></text></g></g><g><rect class="background" style="stroke: none"/></g><g class="edgeLabel"><g class="label" data-id="L_B_C_0" transform="translate(0, 0)"><text y="-10.1" text-anchor="middle"><tspan class="text-outer-tspan row" x="0" y="-0.1em" dy="1.1em" text-anchor="middle"/></text></g></g><g><rect class="background" style="stroke: none"/></g><g class="edgeLabel" transform="translate(279.796875, 657.7906265258789)"><g class="label" data-id="L_C_D_0" transform="translate(-0.05078125, -10.5)"><g><rect class="background" style="" x="-12.2265625" y="0" width="24.5546875" height="21"/><text y="-10.1" text-anchor="middle" style=""><tspan class="text-outer-tspan row" x="0" y="-0.1em" dy="1.1em" text-anchor="middle"><tspan font-style="normal" class="text-inner-tspan" font-weight="normal">Не</tspan></tspan></text></g></g></g><g class="edgeLabel"><g class="label" data-id="L_D_E_0" transform="translate(0, 0)"><text y="-10.1" text-anchor="middle"><tspan class="text-outer-tspan row" x="0" y="-0.1em" dy="1.1em" text-anchor="middle"/></text></g></g><g><rect class="background" style="stroke: none"/></g><g class="edgeLabel" transform="translate(126.3984375, 419.6156311035156)"><g class="label" data-id="L_C_F_0" transform="translate(-0.05078125, -10.5)"><g><rect class="background" style="" x="-11.8671875" y="0" width="23.8359375" height="21"/><text y="-10.1" text-anchor="middle" style=""><tspan class="text-outer-tspan row" x="0" y="-0.1em" dy="1.1em" text-anchor="middle"><tspan font-style="normal" class="text-inner-tspan" font-weight="normal">Да</tspan></tspan></text></g></g></g><g class="edgeLabel"><g class="label" data-id="L_F_G_0" transform="translate(0, 0)"><text y="-10.1" text-anchor="middle"><tspan class="text-outer-tspan row" x="0" y="-0.1em" dy="1.1em" text-anchor="middle"/></text></g></g><g><rect class="background" style="stroke: none"/></g><g class="edgeLabel" transform="translate(126.3984375, 798.9656219482422)"><g class="label" data-id="L_G_H_0" transform="translate(-0.05078125, -10.5)"><g><rect class="background" style="" x="-11.8671875" y="0" width="23.8359375" height="21"/><text y="-10.1" text-anchor="middle" style=""><tspan class="text-outer-tspan row" x="0" y="-0.1em" dy="1.1em" text-anchor="middle"><tspan font-style="normal" class="text-inner-tspan" font-weight="normal">Да</tspan></tspan></text></g></g></g><g class="edgeLabel" transform="translate(572.3355445861816, 798.9656219482422)"><g class="label" data-id="L_G_I_0" transform="translate(-0.05078125, -10.5)"><g><rect class="background" style="" x="-63.015625" y="0" width="126.1328125" height="21"/><text y="-10.1" text-anchor="middle" style=""><tspan class="text-outer-tspan row" x="0" y="-0.1em" dy="1.1em" text-anchor="middle"><tspan font-style="normal" class="text-inner-tspan" font-weight="normal">Не</tspan><tspan font-style="normal" class="text-inner-tspan" font-weight="normal"> /</tspan><tspan font-style="normal" class="text-inner-tspan" font-weight="normal"> Недоступно</tspan></tspan></text></g></g></g><g class="edgeLabel"><g class="label" data-id="L_I_J_0" transform="translate(0, 0)"><text y="-10.1" text-anchor="middle"><tspan class="text-outer-tspan row" x="0" y="-0.1em" dy="1.1em" text-anchor="middle"/></text></g></g><g><rect class="background" style="stroke: none"/></g><g class="edgeLabel" transform="translate(619.8277320861816, 1195.9156112670898)"><g class="label" data-id="L_J_K_0" transform="translate(-0.05078125, -10.5)"><g><rect class="background" style="" x="-11.8671875" y="0" width="23.8359375" height="21"/><text y="-10.1" text-anchor="middle" style=""><tspan class="text-outer-tspan row" x="0" y="-0.1em" dy="1.1em" text-anchor="middle"><tspan font-style="normal" class="text-inner-tspan" font-weight="normal">Да</tspan></tspan></text></g></g></g><g class="edgeLabel" transform="translate(457.36877, 1179.52262)"><g class="label" data-id="L_J_E_0" transform="translate(-0.05078125, -10.5)"><g><rect class="background" style="" x="-63.015625" y="0" width="126.1328125" height="21"/><text y="-10.1" text-anchor="middle" style=""><tspan class="text-outer-tspan row" x="0" y="-0.1em" dy="1.1em" text-anchor="middle"><tspan font-style="normal" class="text-inner-tspan" font-weight="normal">Не</tspan><tspan font-style="normal" class="text-inner-tspan" font-weight="normal"> /</tspan><tspan font-style="normal" class="text-inner-tspan" font-weight="normal"> Недоступно</tspan></tspan></text></g></g></g></g><g class="nodes"><g class="node default" id="my-svg-flowchart-A-0" data-look="classic" transform="translate(203.09765625, 24)"><g class="basic label-container outer-path"><path d="M-33.9921875 -16 C-16.09356416846659 -16, 1.8050591630668222 -16, 33.9921875 -16 C33.9921875 -16, 33.9921875 -16, 33.9921875 -16 C34.34053427214779 -15.988829197033079, 34.688881044295584 -15.97765839406616, 35.017311019691405 -15.967126284005381 C35.38641574886955 -15.93151919469495, 35.75552047804771 -15.895912105384516, 36.038222086952096 -15.868640221171939 C36.3302025832283 -15.821435078876569, 36.622183079504495 -15.7742299365812, 37.05072555922195 -15.704946511857047 C37.33495363496145 -15.640073308331036, 37.61918171070095 -15.575200104805027, 38.05066084255211 -15.476717808624471 C38.417858929643934 -15.367735343837712, 38.78505701673575 -15.258752879050952, 39.033918988377934 -15.184891952170698 C39.29406599861453 -15.089155447631029, 39.55421300885112 -14.993418943091362, 39.99645957806999 -14.830668117536348 C40.22285949131513 -14.730447591857533, 40.449259404560266 -14.63022706617872, 40.93432732588093 -14.415501886438706 C41.17173884964028 -14.291644446562792, 41.40915037339963 -14.167787006686877, 41.843668332063004 -13.941099265974232 C42.095817434860926 -13.788244998065528, 42.34796653765885 -13.635390730156825, 42.72074591936878 -13.409409678269451 C42.969556291255294 -13.235850333668822, 43.21836666314181 -13.062290989068194, 43.561955987859456 -12.822617949887306 C43.816441491501976 -12.619672532876061, 44.0709269951445 -12.416727115864814, 44.36384182492461 -12.183135333906153 C44.57949836131519 -11.987281773515507, 44.795154897705764 -11.791428213124863, 45.123108309655784 -11.493589601563642 C45.28380114361134 -11.3276610573775, 45.44449397756691 -11.161732513191359, 45.83663545320505 -10.756814244181072 C46.046301063039294 -10.510529088558599, 46.255966672873534 -10.264243932936123, 46.50149121948848 -9.975836829739738 C46.63518957806793 -9.796693209414304, 46.76888793664739 -9.61754958908887, 47.11494357355129 -9.153866561954718 C47.32078496277821 -8.83763891194976, 47.526626352005145 -8.5214112619448, 47.674471708085534 -8.294281092968403 C47.79037685155207 -8.088479774075115, 47.9062819950186 -7.882678455181826, 48.177776401968 -7.400612643853364 C48.28750277392871 -7.172763484708708, 48.39722914588941 -6.944914325564051, 48.622789468252996 -6.476533489958305 C48.73166156025083 -6.207617317824962, 48.84053365224866 -5.938701145691619, 49.007682252796165 -5.52584087074093 C49.109748916667826 -5.218432341273939, 49.211815580539486 -4.911023811806948, 49.33087314858657 -4.552441386096524 C49.422665098683986 -4.202398897492258, 49.514457048781395 -3.852356408887992, 49.591034094909176 -3.560334943301032 C49.63187107647408 -3.3506456738643973, 49.67270805803897 -3.1409564044277625, 49.787096034631205 -2.5535983205340735 C49.818533989102676 -2.3097717537796485, 49.84997194357414 -2.065945187025224, 49.91825330718717 -1.536368414522911 C49.93496246225933 -1.2761098368868018, 49.95167161733149 -1.0158512592506925, 49.983966959211 -0.5128252411464826 C49.983966959211 -0.19127616979514261, 49.983966959211 0.13027290155619742, 49.983966959211 0.5128252411464788 C49.96125553354236 0.8665740282685395, 49.9385441078737 1.2203228153906003, 49.91825330718717 1.5363684145229002 C49.891691902142796 1.7423734269044076, 49.86513049709841 1.9483784392859147, 49.787096034631205 2.5535983205340624 C49.74184721081299 2.785941467498273, 49.69659838699478 3.018284614462484, 49.591034094909176 3.5603349433010285 C49.499674286220525 3.9087294894224187, 49.40831447753187 4.257124035543809, 49.33087314858657 4.552441386096513 C49.26089273635992 4.763211237858681, 49.190912324133265 4.97398108962085, 49.007682252796165 5.525840870740919 C48.8580637840936 5.895401381112556, 48.708445315391046 6.264961891484194, 48.622789468253 6.4765334899583005 C48.49507766834182 6.741729775068636, 48.36736586843064 7.006926060178972, 48.177776401968 7.400612643853361 C48.02651018918177 7.669201122020326, 47.87524397639553 7.937789600187291, 47.67447170808554 8.294281092968399 C47.55343051527614 8.480232869234914, 47.43238932246674 8.66618464550143, 47.1149435735513 9.15386656195471 C46.89480008923204 9.448838775458514, 46.674656604912784 9.743810988962316, 46.50149121948848 9.975836829739734 C46.29234637758924 10.221510261713215, 46.08320153569 10.467183693686698, 45.836635453205055 10.756814244181063 C45.667829094009385 10.93112066931043, 45.499022734813714 11.105427094439795, 45.123108309655784 11.493589601563638 C44.93043734363262 11.668568275111468, 44.737766377609454 11.843546948659299, 44.36384182492463 12.183135333906142 C44.12527611869298 12.37338513612582, 43.886710412461326 12.5636349383455, 43.56195598785946 12.822617949887304 C43.31400071656113 12.995580813334323, 43.0660454452628 13.168543676781342, 42.72074591936879 13.409409678269446 C42.48117475538279 13.55463912575419, 42.241603591396796 13.699868573238932, 41.843668332063004 13.94109926597423 C41.512484161258016 14.113877835749605, 41.181299990453034 14.28665640552498, 40.93432732588093 14.415501886438705 C40.57336577514019 14.57528885740767, 40.21240422439944 14.735075828376635, 39.996459578069995 14.830668117536346 C39.646871791577766 14.95931965451956, 39.297284005085544 15.08797119150277, 39.03391898837794 15.184891952170695 C38.71111553556221 15.280698322536503, 38.38831208274648 15.376504692902312, 38.05066084255213 15.476717808624468 C37.745931339100046 15.546270329241556, 37.441201835647966 15.615822849858645, 37.05072555922196 15.704946511857045 C36.69832449793246 15.761919982535284, 36.34592343664296 15.818893453213525, 36.0382220869521 15.868640221171937 C35.75390478807143 15.896067969053377, 35.46958748919075 15.923495716934815, 35.017311019691405 15.967126284005381 C34.62781137158505 15.97961677960508, 34.23831172347869 15.992107275204777, 33.9921875 16 C33.9921875 16, 33.9921875 16, 33.9921875 16 C9.07737630121191 16, -15.83743489757618 16, -33.9921875 16 C-34.38178600183622 15.987506334353592, -34.77138450367244 15.975012668707185, -35.0173110196914 15.967126284005381 C-35.422718482906404 15.928017113602838, -35.82812594612141 15.888907943200296, -36.038222086952096 15.868640221171937 C-36.40857955755799 15.808763697489455, -36.778937028163895 15.748887173806976, -37.05072555922196 15.704946511857045 C-37.40377436966948 15.624365424731195, -37.75682318011699 15.543784337605343, -38.05066084255211 15.476717808624471 C-38.428345608084506 15.364622952722247, -38.8060303736169 15.252528096820024, -39.03391898837792 15.184891952170702 C-39.3275225618943 15.076843123074994, -39.62112613541067 14.968794293979286, -39.99645957806999 14.830668117536348 C-40.23953176193756 14.72306727221832, -40.48260394580514 14.615466426900289, -40.93432732588093 14.415501886438708 C-41.125793723399745 14.315613989493222, -41.31726012091856 14.215726092547735, -41.843668332063 13.941099265974234 C-42.13797634850166 13.762688016863237, -42.43228436494032 13.584276767752238, -42.72074591936877 13.409409678269457 C-42.93437946482629 13.26038816500542, -43.14801301028381 13.111366651741383, -43.561955987859456 12.822617949887308 C-43.79533424495454 12.636505000310224, -44.02871250204962 12.450392050733141, -44.36384182492461 12.183135333906154 C-44.62449097244822 11.946420674523745, -44.88514011997183 11.709706015141336, -45.12310830965578 11.493589601563649 C-45.34586086061027 11.263579304378583, -45.56861341156476 11.033569007193519, -45.83663545320505 10.756814244181069 C-46.002287659974094 10.56222973623256, -46.16793986674314 10.367645228284049, -46.50149121948847 9.97583682973974 C-46.736555418111266 9.660872218374237, -46.97161961673405 9.345907607008735, -47.11494357355129 9.15386656195472 C-47.27227837940412 8.912158049853797, -47.429613185256954 8.670449537752877, -47.674471708085534 8.29428109296841 C-47.77734138692979 8.111625561495902, -47.88021106577405 7.928970030023395, -48.177776401968 7.400612643853366 C-48.32769140477701 7.08931093285326, -48.477606407586016 6.778009221853154, -48.622789468252996 6.476533489958307 C-48.731392502512676 6.208281895640065, -48.83999553677236 5.940030301321823, -49.007682252796165 5.525840870740931 C-49.13684643469077 5.136818934392011, -49.266010616585376 4.74779699804309, -49.33087314858657 4.552441386096519 C-49.40063071395991 4.2864255562078775, -49.47038827933326 4.020409726319235, -49.591034094909176 3.5603349433010343 C-49.634402688477046 3.337646381285524, -49.677771282044915 3.114957819270013, -49.787096034631205 2.5535983205340753 C-49.83009501374252 2.2201067296555297, -49.87309399285384 1.886615138776984, -49.91825330718717 1.5363684145229202 C-49.94090733118358 1.1835137047797812, -49.96356135517999 0.8306589950366424, -49.983966959211 0.5128252411464846 C-49.983966959211 0.16023165967216513, -49.983966959211 -0.1923619218021544, -49.983966959211 -0.5128252411464769 C-49.96585580022874 -0.7949211613596762, -49.94774464124647 -1.0770170815728755, -49.91825330718717 -1.5363684145228982 C-49.882155705900026 -1.816334281828349, -49.84605810461289 -2.0963001491338, -49.787096034631205 -2.5535983205340678 C-49.72371405793314 -2.8790513750931037, -49.660332081235076 -3.2045044296521397, -49.591034094909176 -3.5603349433010267 C-49.53463833233632 -3.7753964280694414, -49.47824256976347 -3.9904579128378566, -49.330873148586576 -4.552441386096511 C-49.230627676455974 -4.8543647762069275, -49.13038220432538 -5.156288166317344, -49.00768225279617 -5.525840870740911 C-48.896736057090116 -5.799880119133636, -48.78578986138407 -6.0739193675263605, -48.622789468253 -6.476533489958299 C-48.468185350685765 -6.797572248084859, -48.31358123311852 -7.118611006211419, -48.177776401968 -7.400612643853359 C-48.00493231571622 -7.707514821355031, -47.832088229464425 -8.014416998856703, -47.674471708085534 -8.294281092968404 C-47.4682742803147 -8.611055713786532, -47.26207685254388 -8.927830334604659, -47.114943573551294 -9.153866561954715 C-46.928387542032226 -9.403834648586157, -46.741831510513165 -9.6538027352176, -46.50149121948848 -9.975836829739734 C-46.25135584185572 -10.269660077413372, -46.00122046422295 -10.563483325087008, -45.836635453205055 -10.756814244181063 C-45.582072078579415 -11.019671828523778, -45.327508703953775 -11.282529412866495, -45.12310830965579 -11.493589601563633 C-44.95162726502696 -11.649324149155726, -44.78014622039812 -11.80505869674782, -44.36384182492463 -12.18313533390614 C-44.15093821883296 -12.352920294161347, -43.93803461274129 -12.522705254416554, -43.56195598785946 -12.822617949887302 C-43.340660204446365 -12.976984308656215, -43.11936442103326 -13.131350667425128, -42.72074591936879 -13.409409678269444 C-42.4193721113019 -13.592104251788676, -42.117998303235 -13.77479882530791, -41.843668332063004 -13.941099265974229 C-41.66097974935589 -14.036407782554909, -41.47829116664877 -14.131716299135588, -40.934327325880936 -14.415501886438705 C-40.641408378543126 -14.545168415293306, -40.34848943120531 -14.674834944147909, -39.996459578069995 -14.830668117536344 C-39.62813028456346 -14.966216702345415, -39.25980099105692 -15.101765287154487, -39.03391898837794 -15.184891952170695 C-38.64970004669974 -15.298926117254403, -38.26548110502154 -15.412960282338112, -38.05066084255213 -15.476717808624466 C-37.69372630103088 -15.558185788511134, -37.33679175950962 -15.6396537683978, -37.050725559221966 -15.704946511857043 C-36.73652598964132 -15.755743861612789, -36.422326420060685 -15.806541211368533, -36.0382220869521 -15.868640221171937 C-35.7549561014247 -15.895966550118574, -35.4716901158973 -15.923292879065214, -35.017311019691405 -15.967126284005381 C-34.67433980653402 -15.97812470325837, -34.33136859337663 -15.989123122511359, -33.99218750000001 -16 C-33.99218750000001 -16, -33.9921875 -16, -33.9921875 -16" stroke="none" stroke-width="0" fill="#eee" style=""/><path d="M-33.9921875 -16 C-13.391979519801659 -16, 7.208228460396683 -16, 33.9921875 -16 M-33.9921875 -16 C-18.851643032012568 -16, -3.7110985640251393 -16, 33.9921875 -16 M33.9921875 -16 C33.9921875 -16, 33.9921875 -16, 33.9921875 -16 M33.9921875 -16 C33.9921875 -16, 33.9921875 -16, 33.9921875 -16 M33.9921875 -16 C34.23602139155906 -15.992180721691579, 34.479855283118134 -15.984361443383158, 35.017311019691405 -15.967126284005381 M33.9921875 -16 C34.24654075470627 -15.991843386190146, 34.50089400941254 -15.983686772380292, 35.017311019691405 -15.967126284005381 M35.017311019691405 -15.967126284005381 C35.22568494012419 -15.947024702507536, 35.43405886055697 -15.926923121009688, 36.038222086952096 -15.868640221171939 M35.017311019691405 -15.967126284005381 C35.38855392204331 -15.931312927700407, 35.75979682439521 -15.895499571395431, 36.038222086952096 -15.868640221171939 M36.038222086952096 -15.868640221171939 C36.39082823686134 -15.811633593356145, 36.74343438677057 -15.754626965540352, 37.05072555922195 -15.704946511857047 M36.038222086952096 -15.868640221171939 C36.345180939304285 -15.81901349442509, 36.65213979165648 -15.76938676767824, 37.05072555922195 -15.704946511857047 M37.05072555922195 -15.704946511857047 C37.2961262790988 -15.648935398934512, 37.54152699897565 -15.592924286011975, 38.05066084255211 -15.476717808624471 M37.05072555922195 -15.704946511857047 C37.41234822502158 -15.62240849819671, 37.77397089082121 -15.539870484536374, 38.05066084255211 -15.476717808624471 M38.05066084255211 -15.476717808624471 C38.303603256235476 -15.401645827965073, 38.55654566991883 -15.326573847305676, 39.033918988377934 -15.184891952170698 M38.05066084255211 -15.476717808624471 C38.43610938721661 -15.362318703828748, 38.82155793188111 -15.247919599033024, 39.033918988377934 -15.184891952170698 M39.033918988377934 -15.184891952170698 C39.30044711723905 -15.08680713699079, 39.56697524610018 -14.988722321810883, 39.99645957806999 -14.830668117536348 M39.033918988377934 -15.184891952170698 C39.30399129530638 -15.08550284669999, 39.57406360223484 -14.986113741229282, 39.99645957806999 -14.830668117536348 M39.99645957806999 -14.830668117536348 C40.349424774911576 -14.67442089523513, 40.702389971753156 -14.518173672933914, 40.93432732588093 -14.415501886438706 M39.99645957806999 -14.830668117536348 C40.24860824109231 -14.719049384140696, 40.500756904114645 -14.607430650745046, 40.93432732588093 -14.415501886438706 M40.93432732588093 -14.415501886438706 C41.26647509274841 -14.24222060921474, 41.598622859615894 -14.068939331990775, 41.843668332063004 -13.941099265974232 M40.93432732588093 -14.415501886438706 C41.244812668978206 -14.253521881820213, 41.55529801207548 -14.091541877201717, 41.843668332063004 -13.941099265974232 M41.843668332063004 -13.941099265974232 C42.19101602791858 -13.730535051504948, 42.538363723774154 -13.519970837035663, 42.72074591936878 -13.409409678269451 M41.843668332063004 -13.941099265974232 C42.17995496522084 -13.737240332714338, 42.51624159837867 -13.533381399454443, 42.72074591936878 -13.409409678269451 M42.72074591936878 -13.409409678269451 C43.02204090033223 -13.199239342398862, 43.32333588129568 -12.989069006528274, 43.561955987859456 -12.822617949887306 M42.72074591936878 -13.409409678269451 C43.043628620754674 -13.184180683149519, 43.36651132214057 -12.958951688029584, 43.561955987859456 -12.822617949887306 M43.561955987859456 -12.822617949887306 C43.852538650535095 -12.59088600913289, 44.14312131321074 -12.359154068378473, 44.36384182492461 -12.183135333906153 M43.561955987859456 -12.822617949887306 C43.72571830098963 -12.692021863064168, 43.8894806141198 -12.561425776241029, 44.36384182492461 -12.183135333906153 M44.36384182492461 -12.183135333906153 C44.66598265007468 -11.908739030713027, 44.96812347522474 -11.634342727519902, 45.123108309655784 -11.493589601563642 M44.36384182492461 -12.183135333906153 C44.59209300204166 -11.975843654043665, 44.820344179158695 -11.768551974181175, 45.123108309655784 -11.493589601563642 M45.123108309655784 -11.493589601563642 C45.293786000473204 -11.31735087289563, 45.46446369129063 -11.14111214422762, 45.83663545320505 -10.756814244181072 M45.123108309655784 -11.493589601563642 C45.2950312490839 -11.31606505146828, 45.46695418851201 -11.13854050137292, 45.83663545320505 -10.756814244181072 M45.83663545320505 -10.756814244181072 C46.04660378056537 -10.510173499327351, 46.25657210792569 -10.26353275447363, 46.50149121948848 -9.975836829739738 M45.83663545320505 -10.756814244181072 C46.00044000174096 -10.564400100727928, 46.164244550276884 -10.371985957274783, 46.50149121948848 -9.975836829739738 M46.50149121948848 -9.975836829739738 C46.71207541456724 -9.69367319294903, 46.922659609646004 -9.41150955615832, 47.11494357355129 -9.153866561954718 M46.50149121948848 -9.975836829739738 C46.68703146289539 -9.727229806638372, 46.87257170630231 -9.478622783537006, 47.11494357355129 -9.153866561954718 M47.11494357355129 -9.153866561954718 C47.253124530515 -8.941583505276066, 47.39130548747872 -8.729300448597415, 47.674471708085534 -8.294281092968403 M47.11494357355129 -9.153866561954718 C47.313772508737934 -8.848411924463196, 47.51260144392459 -8.542957286971676, 47.674471708085534 -8.294281092968403 M47.674471708085534 -8.294281092968403 C47.84969049367177 -7.983162396334035, 48.02490927925801 -7.6720436996996675, 48.177776401968 -7.400612643853364 M47.674471708085534 -8.294281092968403 C47.79769751376436 -8.07548119701975, 47.9209233194432 -7.856681301071098, 48.177776401968 -7.400612643853364 M48.177776401968 -7.400612643853364 C48.27791066270321 -7.192681708906742, 48.37804492343843 -6.984750773960119, 48.622789468252996 -6.476533489958305 M48.177776401968 -7.400612643853364 C48.292771436175926 -7.161822994821047, 48.40776647038385 -6.923033345788729, 48.622789468252996 -6.476533489958305 M48.622789468252996 -6.476533489958305 C48.70609303148673 -6.270772078206152, 48.789396594720465 -6.065010666453999, 49.007682252796165 -5.52584087074093 M48.622789468252996 -6.476533489958305 C48.73905642458972 -6.189351859937915, 48.85532338092645 -5.902170229917525, 49.007682252796165 -5.52584087074093 M49.007682252796165 -5.52584087074093 C49.13515053672361 -5.141926708864468, 49.26261882065104 -4.758012546988007, 49.33087314858657 -4.552441386096524 M49.007682252796165 -5.52584087074093 C49.11036980254077 -5.216562331949376, 49.21305735228536 -4.907283793157823, 49.33087314858657 -4.552441386096524 M49.33087314858657 -4.552441386096524 C49.41099907330269 -4.246886508358515, 49.491124998018805 -3.9413316306205073, 49.591034094909176 -3.560334943301032 M49.33087314858657 -4.552441386096524 C49.41355150857147 -4.23715296644619, 49.496229868556384 -3.921864546795855, 49.591034094909176 -3.560334943301032 M49.591034094909176 -3.560334943301032 C49.63899929765265 -3.3140437646624585, 49.68696450039614 -3.067752586023885, 49.787096034631205 -2.5535983205340735 M49.591034094909176 -3.560334943301032 C49.63139366644779 -3.353097073448693, 49.671753237986415 -3.1458592035963537, 49.787096034631205 -2.5535983205340735 M49.787096034631205 -2.5535983205340735 C49.83441531428518 -2.186599331786469, 49.881734593939164 -1.8196003430388652, 49.91825330718717 -1.536368414522911 M49.787096034631205 -2.5535983205340735 C49.83836033860061 -2.156002502229212, 49.88962464257001 -1.7584066839243502, 49.91825330718717 -1.536368414522911 M49.91825330718717 -1.536368414522911 C49.93383086094449 -1.293735440777648, 49.9494084147018 -1.0511024670323852, 49.983966959211 -0.5128252411464826 M49.91825330718717 -1.536368414522911 C49.940980077531684 -1.182380621688255, 49.963706847876196 -0.828392828853599, 49.983966959211 -0.5128252411464826 M49.983966959211 -0.5128252411464826 C49.983966959211 -0.11352707995502187, 49.983966959211 0.2857710812364389, 49.983966959211 0.5128252411464788 M49.983966959211 -0.5128252411464826 C49.983966959211 -0.18554016176092186, 49.983966959211 0.14174491762463892, 49.983966959211 0.5128252411464788 M49.983966959211 0.5128252411464788 C49.95768578693451 0.9221757131332947, 49.93140461465802 1.3315261851201106, 49.91825330718717 1.5363684145229002 M49.983966959211 0.5128252411464788 C49.9705179700387 0.7223041033337436, 49.9570689808664 0.9317829655210086, 49.91825330718717 1.5363684145229002 M49.91825330718717 1.5363684145229002 C49.88494730877017 1.7946831612318546, 49.85164131035317 2.052997907940809, 49.787096034631205 2.5535983205340624 M49.91825330718717 1.5363684145229002 C49.87734040975121 1.8536807678708085, 49.83642751231525 2.170993121218717, 49.787096034631205 2.5535983205340624 M49.787096034631205 2.5535983205340624 C49.735562608700064 2.8182115710970375, 49.684029182768924 3.0828248216600125, 49.591034094909176 3.5603349433010285 M49.787096034631205 2.5535983205340624 C49.74774370945556 2.7556641931941006, 49.70839138427993 2.957730065854139, 49.591034094909176 3.5603349433010285 M49.591034094909176 3.5603349433010285 C49.48847139647384 3.951450963389636, 49.38590869803851 4.342566983478243, 49.33087314858657 4.552441386096513 M49.591034094909176 3.5603349433010285 C49.50008359779227 3.9071686070025837, 49.40913310067537 4.254002270704138, 49.33087314858657 4.552441386096513 M49.33087314858657 4.552441386096513 C49.21892137360959 4.889622295234151, 49.10696959863262 5.226803204371789, 49.007682252796165 5.525840870740919 M49.33087314858657 4.552441386096513 C49.214943378392356 4.901603383021002, 49.09901360819814 5.250765379945491, 49.007682252796165 5.525840870740919 M49.007682252796165 5.525840870740919 C48.89226555304428 5.810922350558156, 48.77684885329241 6.096003830375395, 48.622789468253 6.4765334899583005 M49.007682252796165 5.525840870740919 C48.907840606717876 5.772451666861212, 48.80799896063958 6.0190624629815055, 48.622789468253 6.4765334899583005 M48.622789468253 6.4765334899583005 C48.46152693774166 6.811398585030504, 48.300264407230316 7.146263680102707, 48.177776401968 7.400612643853361 M48.622789468253 6.4765334899583005 C48.44996725713621 6.835402509145265, 48.27714504601941 7.194271528332229, 48.177776401968 7.400612643853361 M48.177776401968 7.400612643853361 C48.028307123792494 7.666010482659624, 47.87883784561698 7.931408321465888, 47.67447170808554 8.294281092968399 M48.177776401968 7.400612643853361 C48.05917890570815 7.611194507761468, 47.9405814094483 7.821776371669576, 47.67447170808554 8.294281092968399 M47.67447170808554 8.294281092968399 C47.454647781789284 8.631989674748777, 47.234823855493026 8.969698256529156, 47.1149435735513 9.15386656195471 M47.67447170808554 8.294281092968399 C47.56141090545123 8.467972846891154, 47.448350102816924 8.64166460081391, 47.1149435735513 9.15386656195471 M47.1149435735513 9.15386656195471 C46.87615415641914 9.473822626748378, 46.63736473928698 9.793778691542048, 46.50149121948848 9.975836829739734 M47.1149435735513 9.15386656195471 C46.898349474303494 9.444082922818396, 46.681755375055694 9.734299283682082, 46.50149121948848 9.975836829739734 M46.50149121948848 9.975836829739734 C46.3374130070488 10.168572434386155, 46.17333479460912 10.361308039032576, 45.836635453205055 10.756814244181063 M46.50149121948848 9.975836829739734 C46.25895170802728 10.26073754079122, 46.01641219656609 10.545638251842707, 45.836635453205055 10.756814244181063 M45.836635453205055 10.756814244181063 C45.65472138288011 10.944655457214498, 45.472807312555176 11.132496670247932, 45.123108309655784 11.493589601563638 M45.836635453205055 10.756814244181063 C45.56856044737816 11.033623697064627, 45.30048544155127 11.31043314994819, 45.123108309655784 11.493589601563638 M45.123108309655784 11.493589601563638 C44.94542943355281 11.65495285571491, 44.76775055744984 11.816316109866184, 44.36384182492463 12.183135333906142 M45.123108309655784 11.493589601563638 C44.91407886647651 11.683424611243057, 44.70504942329724 11.873259620922475, 44.36384182492463 12.183135333906142 M44.36384182492463 12.183135333906142 C44.18141200292652 12.328618262288186, 43.998982180928415 12.474101190670229, 43.56195598785946 12.822617949887304 M44.36384182492463 12.183135333906142 C44.04576417426788 12.436793795903132, 43.72768652361113 12.690452257900121, 43.56195598785946 12.822617949887304 M43.56195598785946 12.822617949887304 C43.31531371591957 12.994664921820704, 43.06867144397968 13.166711893754101, 42.72074591936879 13.409409678269446 M43.56195598785946 12.822617949887304 C43.34017524014754 12.977322598757313, 43.118394492435606 13.13202724762732, 42.72074591936879 13.409409678269446 M42.72074591936879 13.409409678269446 C42.41446771014716 13.595077328590142, 42.10818950092552 13.780744978910837, 41.843668332063004 13.94109926597423 M42.72074591936879 13.409409678269446 C42.41180099123836 13.596693909264035, 42.10285606310793 13.783978140258622, 41.843668332063004 13.94109926597423 M41.843668332063004 13.94109926597423 C41.52892274081139 14.105301839326025, 41.214177149559774 14.269504412677819, 40.93432732588093 14.415501886438705 M41.843668332063004 13.94109926597423 C41.590746945941135 14.073048191110129, 41.337825559819265 14.204997116246027, 40.93432732588093 14.415501886438705 M40.93432732588093 14.415501886438705 C40.673850357471444 14.530807313578848, 40.41337338906197 14.646112740718992, 39.996459578069995 14.830668117536346 M40.93432732588093 14.415501886438705 C40.69046682778677 14.52345169508033, 40.44660632969262 14.631401503721959, 39.996459578069995 14.830668117536346 M39.996459578069995 14.830668117536346 C39.77851365763073 14.910874230927996, 39.56056773719148 14.991080344319647, 39.03391898837794 15.184891952170695 M39.996459578069995 14.830668117536346 C39.722146577448896 14.93161783748649, 39.447833576827804 15.032567557436634, 39.03391898837794 15.184891952170695 M39.03391898837794 15.184891952170695 C38.752776632646246 15.268333527605524, 38.47163427691454 15.351775103040353, 38.05066084255213 15.476717808624468 M39.03391898837794 15.184891952170695 C38.79393148929453 15.256118982178563, 38.553943990211124 15.32734601218643, 38.05066084255213 15.476717808624468 M38.05066084255213 15.476717808624468 C37.764033442414735 15.542138642287242, 37.477406042277345 15.607559475950017, 37.05072555922196 15.704946511857045 M38.05066084255213 15.476717808624468 C37.729082557151074 15.550115953772833, 37.40750427175001 15.623514098921198, 37.05072555922196 15.704946511857045 M37.05072555922196 15.704946511857045 C36.832197399189326 15.74027645005993, 36.61366923915669 15.775606388262815, 36.0382220869521 15.868640221171937 M37.05072555922196 15.704946511857045 C36.737736797876224 15.755548107527328, 36.42474803653048 15.806149703197612, 36.0382220869521 15.868640221171937 M36.0382220869521 15.868640221171937 C35.704233106109584 15.900859736473297, 35.37024412526707 15.933079251774657, 35.017311019691405 15.967126284005381 M36.0382220869521 15.868640221171937 C35.75784920273361 15.895687456114768, 35.477476318515116 15.922734691057599, 35.017311019691405 15.967126284005381 M35.017311019691405 15.967126284005381 C34.68868144992649 15.977664794669089, 34.36005188016158 15.988203305332798, 33.9921875 16 M35.017311019691405 15.967126284005381 C34.63443020363389 15.979404526544048, 34.251549387576375 15.991682769082715, 33.9921875 16 M33.9921875 16 C33.9921875 16, 33.9921875 16, 33.9921875 16 M33.9921875 16 C33.9921875 16, 33.9921875 16, 33.9921875 16 M33.9921875 16 C7.722627052227139 16, -18.54693339554572 16, -33.9921875 16 M33.9921875 16 C12.804325106840938 16, -8.383537286318123 16, -33.9921875 16 M-33.9921875 16 C-34.31999753304449 15.989487770283784, -34.647807566088986 15.97897554056757, -35.0173110196914 15.967126284005381 M-33.9921875 16 C-34.24820024417503 15.991790169592884, -34.50421298835006 15.983580339185767, -35.0173110196914 15.967126284005381 M-35.0173110196914 15.967126284005381 C-35.29986408910967 15.939868729218384, -35.582417158527946 15.912611174431387, -36.038222086952096 15.868640221171937 M-35.0173110196914 15.967126284005381 C-35.3406481299131 15.935934341852063, -35.6639852401348 15.904742399698744, -36.038222086952096 15.868640221171937 M-36.038222086952096 15.868640221171937 C-36.29615717090399 15.826939277115047, -36.55409225485588 15.785238333058155, -37.05072555922196 15.704946511857045 M-36.038222086952096 15.868640221171937 C-36.409555735598765 15.808605876594198, -36.78088938424543 15.748571532016461, -37.05072555922196 15.704946511857045 M-37.05072555922196 15.704946511857045 C-37.26121611155032 15.65690341686732, -37.47170666387867 15.608860321877593, -38.05066084255211 15.476717808624471 M-37.05072555922196 15.704946511857045 C-37.352357499028386 15.636100989928584, -37.65398943883482 15.567255468000125, -38.05066084255211 15.476717808624471 M-38.05066084255211 15.476717808624471 C-38.37837283510276 15.379454609430791, -38.70608482765341 15.282191410237111, -39.03391898837792 15.184891952170702 M-38.05066084255211 15.476717808624471 C-38.25930662709535 15.41479283497611, -38.467952411638585 15.35286786132775, -39.03391898837792 15.184891952170702 M-39.03391898837792 15.184891952170702 C-39.29107786352628 15.09025510896552, -39.54823673867465 14.995618265760339, -39.99645957806999 14.830668117536348 M-39.03391898837792 15.184891952170702 C-39.374981681644414 15.059377728299657, -39.71604437491091 14.933863504428613, -39.99645957806999 14.830668117536348 M-39.99645957806999 14.830668117536348 C-40.19109171413481 14.744510244457636, -40.38572385019962 14.658352371378925, -40.93432732588093 14.415501886438708 M-39.99645957806999 14.830668117536348 C-40.32214972274626 14.686494751743039, -40.64783986742254 14.54232138594973, -40.93432732588093 14.415501886438708 M-40.93432732588093 14.415501886438708 C-41.24839106229279 14.251655036320065, -41.56245479870464 14.087808186201423, -41.843668332063 13.941099265974234 M-40.93432732588093 14.415501886438708 C-41.25019105660842 14.250715980438551, -41.56605478733591 14.085930074438394, -41.843668332063 13.941099265974234 M-41.843668332063 13.941099265974234 C-42.076641506264075 13.799869558671201, -42.30961468046515 13.65863985136817, -42.72074591936877 13.409409678269457 M-41.843668332063 13.941099265974234 C-42.043692383883176 13.819843510289038, -42.24371643570335 13.698587754603844, -42.72074591936877 13.409409678269457 M-42.72074591936877 13.409409678269457 C-42.899614946000014 13.284638388406867, -43.078483972631254 13.159867098544277, -43.561955987859456 12.822617949887308 M-42.72074591936877 13.409409678269457 C-42.91067698766827 13.276921987007155, -43.100608055967776 13.144434295744855, -43.561955987859456 12.822617949887308 M-43.561955987859456 12.822617949887308 C-43.82249611075484 12.614844135142084, -44.08303623365023 12.40707032039686, -44.36384182492461 12.183135333906154 M-43.561955987859456 12.822617949887308 C-43.79784828696084 12.634500118711664, -44.03374058606223 12.446382287536018, -44.36384182492461 12.183135333906154 M-44.36384182492461 12.183135333906154 C-44.648587134945444 11.924537177293288, -44.93333244496628 11.66593902068042, -45.12310830965578 11.493589601563649 M-44.36384182492461 12.183135333906154 C-44.52745343931438 12.03454759464347, -44.691065053704136 11.885959855380788, -45.12310830965578 11.493589601563649 M-45.12310830965578 11.493589601563649 C-45.373154968986995 11.235395896591644, -45.62320162831821 10.977202191619638, -45.83663545320505 10.756814244181069 M-45.12310830965578 11.493589601563649 C-45.4026521246199 11.204937661639152, -45.68219593958403 10.916285721714656, -45.83663545320505 10.756814244181069 M-45.83663545320505 10.756814244181069 C-46.02317307302091 10.537696541654103, -46.209710692836765 10.318578839127138, -46.50149121948847 9.97583682973974 M-45.83663545320505 10.756814244181069 C-46.02050330162386 10.540832607051371, -46.20437115004267 10.324850969921675, -46.50149121948847 9.97583682973974 M-46.50149121948847 9.97583682973974 C-46.642997801731966 9.786230901048304, -46.78450438397546 9.59662497235687, -47.11494357355129 9.15386656195472 M-46.50149121948847 9.97583682973974 C-46.72892803517884 9.6710922166348, -46.956364850869214 9.366347603529864, -47.11494357355129 9.15386656195472 M-47.11494357355129 9.15386656195472 C-47.2268809840872 8.981900639968117, -47.33881839462311 8.809934717981514, -47.674471708085534 8.29428109296841 M-47.11494357355129 9.15386656195472 C-47.28906647635373 8.88636702470395, -47.46318937915618 8.618867487453182, -47.674471708085534 8.29428109296841 M-47.674471708085534 8.29428109296841 C-47.80776805147851 8.057599937555773, -47.94106439487148 7.820918782143138, -48.177776401968 7.400612643853366 M-47.674471708085534 8.29428109296841 C-47.82307381888761 8.0304229976439, -47.97167592968969 7.766564902319389, -48.177776401968 7.400612643853366 M-48.177776401968 7.400612643853366 C-48.30116533248164 7.144392889541628, -48.42455426299527 6.88817313522989, -48.622789468252996 6.476533489958307 M-48.177776401968 7.400612643853366 C-48.31824721801214 7.108921988743746, -48.45871803405627 6.817231333634125, -48.622789468252996 6.476533489958307 M-48.622789468252996 6.476533489958307 C-48.77640996843852 6.097087884449748, -48.93003046862404 5.71764227894119, -49.007682252796165 5.525840870740931 M-48.622789468252996 6.476533489958307 C-48.71798687724769 6.241394049224726, -48.81318428624238 6.006254608491147, -49.007682252796165 5.525840870740931 M-49.007682252796165 5.525840870740931 C-49.08018590084342 5.307471434710136, -49.15268954889068 5.0891019986793395, -49.33087314858657 4.552441386096519 M-49.007682252796165 5.525840870740931 C-49.12174174027541 5.18231186736484, -49.235801227754656 4.838782863988749, -49.33087314858657 4.552441386096519 M-49.33087314858657 4.552441386096519 C-49.41196547459788 4.243201201378994, -49.49305780060918 3.933961016661469, -49.591034094909176 3.5603349433010343 M-49.33087314858657 4.552441386096519 C-49.397330806385675 4.299009533977445, -49.46378846418478 4.045577681858371, -49.591034094909176 3.5603349433010343 M-49.591034094909176 3.5603349433010343 C-49.66773515179322 3.1664912269756065, -49.74443620867726 2.7726475106501787, -49.787096034631205 2.5535983205340753 M-49.591034094909176 3.5603349433010343 C-49.65716892274655 3.220746579956925, -49.72330375058393 2.8811582166128153, -49.787096034631205 2.5535983205340753 M-49.787096034631205 2.5535983205340753 C-49.822937095457604 2.2756221303825113, -49.858778156284004 1.9976459402309472, -49.91825330718717 1.5363684145229202 M-49.787096034631205 2.5535983205340753 C-49.82970257926515 2.2231503739670435, -49.8723091238991 1.8927024274000115, -49.91825330718717 1.5363684145229202 M-49.91825330718717 1.5363684145229202 C-49.93165189777384 1.3276745509878534, -49.945050488360515 1.1189806874527866, -49.983966959211 0.5128252411464846 M-49.91825330718717 1.5363684145229202 C-49.94047627078739 1.1902278183960902, -49.962699234387614 0.8440872222692601, -49.983966959211 0.5128252411464846 M-49.983966959211 0.5128252411464846 C-49.983966959211 0.30405774418530884, -49.983966959211 0.0952902472241331, -49.983966959211 -0.5128252411464769 M-49.983966959211 0.5128252411464846 C-49.983966959211 0.30493782954177284, -49.983966959211 0.0970504179370611, -49.983966959211 -0.5128252411464769 M-49.983966959211 -0.5128252411464769 C-49.96754977693102 -0.7685361068682459, -49.951132594651035 -1.024246972590015, -49.91825330718717 -1.5363684145228982 M-49.983966959211 -0.5128252411464769 C-49.970248891533885 -0.7264952182425686, -49.95653082385676 -0.9401651953386602, -49.91825330718717 -1.5363684145228982 M-49.91825330718717 -1.5363684145228982 C-49.876739063315846 -1.858344692074194, -49.83522481944453 -2.1803209696254897, -49.787096034631205 -2.5535983205340678 M-49.91825330718717 -1.5363684145228982 C-49.86868570639893 -1.9208049380066528, -49.81911810561068 -2.3052414614904073, -49.787096034631205 -2.5535983205340678 M-49.787096034631205 -2.5535983205340678 C-49.74175857721211 -2.7863965823060783, -49.69642111979302 -3.0191948440780885, -49.591034094909176 -3.5603349433010267 M-49.787096034631205 -2.5535983205340678 C-49.74521841476577 -2.768631047704968, -49.70334079490034 -2.9836637748758683, -49.591034094909176 -3.5603349433010267 M-49.591034094909176 -3.5603349433010267 C-49.49791385089723 -3.915442792287645, -49.40479360688528 -4.270550641274263, -49.330873148586576 -4.552441386096511 M-49.591034094909176 -3.5603349433010267 C-49.51342301193175 -3.856299639550112, -49.435811928954315 -4.152264335799197, -49.330873148586576 -4.552441386096511 M-49.330873148586576 -4.552441386096511 C-49.25558032357195 -4.77921137875804, -49.18028749855731 -5.005981371419568, -49.00768225279617 -5.525840870740911 M-49.330873148586576 -4.552441386096511 C-49.22923084056841 -4.858571823344688, -49.127588532550256 -5.164702260592865, -49.00768225279617 -5.525840870740911 M-49.00768225279617 -5.525840870740911 C-48.87779834490883 -5.846656634357167, -48.74791443702149 -6.167472397973422, -48.622789468253 -6.476533489958299 M-49.00768225279617 -5.525840870740911 C-48.86650271252169 -5.8745570647396175, -48.7253231722472 -6.223273258738323, -48.622789468253 -6.476533489958299 M-48.622789468253 -6.476533489958299 C-48.46361680785995 -6.807058925013811, -48.3044441474669 -7.137584360069324, -48.177776401968 -7.400612643853359 M-48.622789468253 -6.476533489958299 C-48.4745869105015 -6.784279272156045, -48.32638435274999 -7.09202505435379, -48.177776401968 -7.400612643853359 M-48.177776401968 -7.400612643853359 C-48.06189759818188 -7.606367193976896, -47.946018794395755 -7.812121744100435, -47.674471708085534 -8.294281092968404 M-48.177776401968 -7.400612643853359 C-47.9889487433133 -7.73589527266862, -47.80012108465859 -8.071177901483882, -47.674471708085534 -8.294281092968404 M-47.674471708085534 -8.294281092968404 C-47.556743210402516 -8.475143679937604, -47.43901471271949 -8.656006266906804, -47.114943573551294 -9.153866561954715 M-47.674471708085534 -8.294281092968404 C-47.542767014029835 -8.496614870700249, -47.41106231997414 -8.698948648432092, -47.114943573551294 -9.153866561954715 M-47.114943573551294 -9.153866561954715 C-46.872628264520046 -9.478547000677803, -46.63031295548879 -9.803227439400892, -46.50149121948848 -9.975836829739734 M-47.114943573551294 -9.153866561954715 C-46.954418406992104 -9.368955661000511, -46.79389324043291 -9.584044760046307, -46.50149121948848 -9.975836829739734 M-46.50149121948848 -9.975836829739734 C-46.316758986679574 -10.192833821958901, -46.13202675387067 -10.409830814178068, -45.836635453205055 -10.756814244181063 M-46.50149121948848 -9.975836829739734 C-46.30662326109856 -10.204739821965488, -46.11175530270863 -10.433642814191241, -45.836635453205055 -10.756814244181063 M-45.836635453205055 -10.756814244181063 C-45.630395740966414 -10.969773679662742, -45.424156028727765 -11.18273311514442, -45.12310830965579 -11.493589601563633 M-45.836635453205055 -10.756814244181063 C-45.679160573577654 -10.919419986324414, -45.52168569395026 -11.082025728467764, -45.12310830965579 -11.493589601563633 M-45.12310830965579 -11.493589601563633 C-44.82838449104107 -11.761249975664597, -44.53366067242635 -12.02891034976556, -44.36384182492463 -12.18313533390614 M-45.12310830965579 -11.493589601563633 C-44.82739661150386 -11.762147141722432, -44.53168491335193 -12.030704681881232, -44.36384182492463 -12.18313533390614 M-44.36384182492463 -12.18313533390614 C-44.155400929127346 -12.349361401459285, -43.94696003333006 -12.515587469012429, -43.56195598785946 -12.822617949887302 M-44.36384182492463 -12.18313533390614 C-44.086451147160254 -12.404347017747282, -43.80906046939588 -12.625558701588423, -43.56195598785946 -12.822617949887302 M-43.56195598785946 -12.822617949887302 C-43.25336207036442 -13.037879707916465, -42.94476815286937 -13.253141465945626, -42.72074591936879 -13.409409678269444 M-43.56195598785946 -12.822617949887302 C-43.23854950645545 -13.048212311273804, -42.915143025051435 -13.273806672660307, -42.72074591936879 -13.409409678269444 M-42.72074591936879 -13.409409678269444 C-42.45336832552323 -13.57149554694377, -42.18599073167768 -13.733581415618099, -41.843668332063004 -13.941099265974229 M-42.72074591936879 -13.409409678269444 C-42.45868020968327 -13.568275451549857, -42.196614499997764 -13.72714122483027, -41.843668332063004 -13.941099265974229 M-41.843668332063004 -13.941099265974229 C-41.6237724769991 -14.055818792711051, -41.4038766219352 -14.170538319447871, -40.934327325880936 -14.415501886438705 M-41.843668332063004 -13.941099265974229 C-41.545717141188966 -14.096540211406367, -41.247765950314935 -14.251981156838507, -40.934327325880936 -14.415501886438705 M-40.934327325880936 -14.415501886438705 C-40.726991998093276 -14.507283085666327, -40.519656670305615 -14.599064284893949, -39.996459578069995 -14.830668117536344 M-40.934327325880936 -14.415501886438705 C-40.65798343748174 -14.537831128382834, -40.38163954908255 -14.660160370326963, -39.996459578069995 -14.830668117536344 M-39.996459578069995 -14.830668117536344 C-39.687817243579815 -14.944251349687194, -39.37917490908964 -15.057834581838044, -39.03391898837794 -15.184891952170695 M-39.996459578069995 -14.830668117536344 C-39.69009156788561 -14.943414377319039, -39.38372355770123 -15.056160637101733, -39.03391898837794 -15.184891952170695 M-39.03391898837794 -15.184891952170695 C-38.710767912169146 -15.280801495334853, -38.38761683596035 -15.376711038499009, -38.05066084255213 -15.476717808624466 M-39.03391898837794 -15.184891952170695 C-38.65017632517676 -15.298784760302462, -38.26643366197557 -15.412677568434232, -38.05066084255213 -15.476717808624466 M-38.05066084255213 -15.476717808624466 C-37.80015612018701 -15.533893876808222, -37.54965139782188 -15.591069944991977, -37.050725559221966 -15.704946511857043 M-38.05066084255213 -15.476717808624466 C-37.70320880988157 -15.556021467745115, -37.35575677721102 -15.635325126865762, -37.050725559221966 -15.704946511857043 M-37.050725559221966 -15.704946511857043 C-36.737505688363605 -15.755585471521046, -36.42428581750524 -15.80622443118505, -36.0382220869521 -15.868640221171937 M-37.050725559221966 -15.704946511857043 C-36.74120409042678 -15.754987542557009, -36.431682621631595 -15.805028573256974, -36.0382220869521 -15.868640221171937 M-36.0382220869521 -15.868640221171937 C-35.75773437680364 -15.895698533234134, -35.477246666655184 -15.92275684529633, -35.017311019691405 -15.967126284005381 M-36.0382220869521 -15.868640221171937 C-35.66321531456747 -15.904816673492252, -35.28820854218284 -15.94099312581257, -35.017311019691405 -15.967126284005381 M-35.017311019691405 -15.967126284005381 C-34.74161548560925 -15.975967303174594, -34.4659199515271 -15.984808322343804, -33.99218750000001 -16 M-35.017311019691405 -15.967126284005381 C-34.77107577211584 -15.975022569127296, -34.52484052454029 -15.98291885424921, -33.99218750000001 -16 M-33.99218750000001 -16 C-33.99218750000001 -16, -33.9921875 -16, -33.9921875 -16 M-33.99218750000001 -16 C-33.99218750000001 -16, -33.9921875 -16, -33.9921875 -16" stroke="#999" stroke-width="1.3" fill="none" stroke-dasharray="0 0" style=""/></g><g class="label" style="" transform="translate(0, -8.5)"><rect/><g><rect class="background" style="stroke: none"/><text y="-10.1" style=""><tspan class="text-outer-tspan row" x="0" y="-0.1em" dy="1.1em"><tspan font-style="normal" class="text-inner-tspan" font-weight="normal">Унос</tspan><tspan font-style="normal" class="text-inner-tspan" font-weight="normal"> ISBN</tspan></tspan></text></g></g></g><g class="node default" id="my-svg-flowchart-B-1" data-look="classic" transform="translate(203.09765625, 113.5)"><rect class="basic label-container" style="" x="-111.9609375" y="-23.5" width="223.921875" height="47"/><g class="label" style="" transform="translate(0, -8.5)"><rect/><g><rect class="background" style="stroke: none"/><text y="-10.1" style=""><tspan class="text-outer-tspan row" x="0" y="-0.1em" dy="1.1em"><tspan font-style="normal" class="text-inner-tspan" font-weight="normal">Нормализуј</tspan><tspan font-style="normal" class="text-inner-tspan" font-weight="normal"> и</tspan><tspan font-style="normal" class="text-inner-tspan" font-weight="normal"> потврди</tspan></tspan></text></g></g></g><g class="node default" id="my-svg-flowchart-C-3" data-look="classic" transform="translate(203.09765625, 285.5578155517578)"><polygon points="98.55781173706055,0 197.1156234741211,-98.55781173706055 98.55781173706055,-197.1156234741211 0,-98.55781173706055" class="label-container" transform="translate(-98.05781173706055, 98.55781173706055)"/><g class="label" style="" transform="translate(0, -17.299999237060547)"><rect/><g><rect class="background" style="stroke: none"/><text y="-10.1" style=""><tspan class="text-outer-tspan row" x="0" y="-0.1em" dy="1.1em"><tspan font-style="normal" class="text-inner-tspan" font-weight="normal">Контролна</tspan><tspan font-style="normal" class="text-inner-tspan" font-weight="normal"> цифра</tspan></tspan><tspan class="text-outer-tspan row" x="0" y="1em" dy="1.1em"><tspan font-style="normal" class="text-inner-tspan" font-weight="normal">исправна?</tspan></tspan></text></g></g></g><g class="node default" id="my-svg-flowchart-D-5" data-look="classic" transform="translate(279.796875, 1054.7406158447266)"><rect class="basic label-container" style="fill:#ffebee !important;stroke:#c62828 !important" x="-86.1953125" y="-32.29999923706055" width="172.390625" height="64.5999984741211"/><g class="label" style="" transform="translate(0, -17.299999237060547)"><rect/><g><rect class="background" style="stroke: none"/><text y="-10.1" style=""><tspan class="text-outer-tspan row" x="0" y="-0.1em" dy="1.1em"><tspan font-style="normal" class="text-inner-tspan" font-weight="normal">Покажи</tspan><tspan font-style="normal" class="text-inner-tspan" font-weight="normal"> грешку</tspan></tspan><tspan class="text-outer-tspan row" x="0" y="1em" dy="1.1em"><tspan font-style="normal" class="text-inner-tspan" font-weight="normal">валидације</tspan></tspan></text></g></g></g><g class="node default" id="my-svg-flowchart-E-7" data-look="classic" transform="translate(321.330078125, 1263.7156105041504)"><rect class="basic label-container" style="fill:#fff3e0 !important;stroke:#e65100 !important" x="-87.734375" y="-32.29999923706055" width="175.46875" height="64.5999984741211"/><g class="label" style="" transform="translate(0, -17.299999237060547)"><rect/><g><rect class="background" style="stroke: none"/><text y="-10.1" style=""><tspan class="text-outer-tspan row" x="0" y="-0.1em" dy="1.1em"><tspan font-style="normal" class="text-inner-tspan" font-weight="normal">Ручни</tspan><tspan font-style="normal" class="text-inner-tspan" font-weight="normal"> унос</tspan></tspan><tspan class="text-outer-tspan row" x="0" y="1em" dy="1.1em"><tspan font-style="normal" class="text-inner-tspan" font-weight="normal">(увек</tspan><tspan font-style="normal" class="text-inner-tspan" font-weight="normal"> доступан)</tspan></tspan></text></g></g></g><g class="node default" id="my-svg-flowchart-F-9" data-look="classic" transform="translate(126.3984375, 478.6156311035156)"><rect class="basic label-container" style="" x="-101.8046875" y="-23.5" width="203.609375" height="47"/><g class="label" style="" transform="translate(0, -8.5)"><rect/><g><rect class="background" style="stroke: none"/><text y="-10.1" style=""><tspan class="text-outer-tspan row" x="0" y="-0.1em" dy="1.1em"><tspan font-style="normal" class="text-inner-tspan" font-weight="normal">Упитај</tspan><tspan font-style="normal" class="text-inner-tspan" font-weight="normal"> Open</tspan><tspan font-style="normal" class="text-inner-tspan" font-weight="normal"> Library</tspan></tspan></text></g></g></g><g class="node default" id="my-svg-flowchart-G-11" data-look="classic" transform="translate(126.3984375, 657.7906265258789)"><polygon points="105.67499923706055,0 211.3499984741211,-105.67499923706055 105.67499923706055,-211.3499984741211 0,-105.67499923706055" class="label-container" transform="translate(-105.17499923706055, 105.67499923706055)"/><g class="label" style="" transform="translate(0, -17.299999237060547)"><rect/><g><rect class="background" style="stroke: none"/><text y="-10.1" style=""><tspan class="text-outer-tspan row" x="0" y="-0.1em" dy="1.1em"><tspan font-style="normal" class="text-inner-tspan" font-weight="normal">Пронађени</tspan><tspan font-style="normal" class="text-inner-tspan" font-weight="normal"> корисни</tspan></tspan><tspan class="text-outer-tspan row" x="0" y="1em" dy="1.1em"><tspan font-style="normal" class="text-inner-tspan" font-weight="normal">метаподаци?</tspan></tspan></text></g></g></g><g class="node default" id="my-svg-flowchart-H-13" data-look="classic" transform="translate(126.3984375, 866.7656211853027)"><rect class="basic label-container" style="fill:#e8f5e9 !important;stroke:#2e7d32 !important" x="-118.3984375" y="-32.29999923706055" width="236.796875" height="64.5999984741211"/><g class="label" style="" transform="translate(0, -17.299999237060547)"><rect/><g><rect class="background" style="stroke: none"/><text y="-10.1" style=""><tspan class="text-outer-tspan row" x="0" y="-0.1em" dy="1.1em"><tspan font-style="normal" class="text-inner-tspan" font-weight="normal">Врати</tspan><tspan font-style="normal" class="text-inner-tspan" font-weight="normal"> метаподатке</tspan></tspan><tspan class="text-outer-tspan row" x="0" y="1em" dy="1.1em"><tspan font-style="normal" class="text-inner-tspan" font-weight="normal">Пружалац:</tspan><tspan font-style="normal" class="text-inner-tspan" font-weight="normal"> Open</tspan><tspan font-style="normal" class="text-inner-tspan" font-weight="normal"> Library</tspan></tspan></text></g></g></g><g class="node default" id="my-svg-flowchart-I-15" data-look="classic" transform="translate(572.3355445861816, 866.7656211853027)"><rect class="basic label-container" style="" x="-105.2109375" y="-32.29999923706055" width="210.421875" height="64.5999984741211"/><g class="label" style="" transform="translate(0, -17.299999237060547)"><rect/><g><rect class="background" style="stroke: none"/><text y="-10.1" style=""><tspan class="text-outer-tspan row" x="0" y="-0.1em" dy="1.1em"><tspan font-style="normal" class="text-inner-tspan" font-weight="normal">Упитај</tspan><tspan font-style="normal" class="text-inner-tspan" font-weight="normal"> Let</tspan><tspan font-style="normal" class="text-inner-tspan" font-weight="normal"> Books</tspan></tspan><tspan class="text-outer-tspan row" x="0" y="1em" dy="1.1em"><tspan font-style="normal" class="text-inner-tspan" font-weight="normal">метаподатковни</tspan><tspan font-style="normal" class="text-inner-tspan" font-weight="normal"> API</tspan></tspan></text></g></g></g><g class="node default" id="my-svg-flowchart-J-17" data-look="classic" transform="translate(572.3355445861816, 1054.7406158447266)"><polygon points="105.67499923706055,0 211.3499984741211,-105.67499923706055 105.67499923706055,-211.3499984741211 0,-105.67499923706055" class="label-container" transform="translate(-105.17499923706055, 105.67499923706055)"/><g class="label" style="" transform="translate(0, -17.299999237060547)"><rect/><g><rect class="background" style="stroke: none"/><text y="-10.1" style=""><tspan class="text-outer-tspan row" x="0" y="-0.1em" dy="1.1em"><tspan font-style="normal" class="text-inner-tspan" font-weight="normal">Пронађени</tspan><tspan font-style="normal" class="text-inner-tspan" font-weight="normal"> корисни</tspan></tspan><tspan class="text-outer-tspan row" x="0" y="1em" dy="1.1em"><tspan font-style="normal" class="text-inner-tspan" font-weight="normal">метаподаци?</tspan></tspan></text></g></g></g><g class="node default" id="my-svg-flowchart-K-19" data-look="classic" transform="translate(619.8277320861816, 1263.7156105041504)"><rect class="basic label-container" style="fill:#e8f5e9 !important;stroke:#2e7d32 !important" x="-122.40625" y="-32.29999923706055" width="244.8125" height="64.5999984741211"/><g class="label" style="" transform="translate(0, -17.299999237060547)"><rect/><g><rect class="background" style="stroke: none"/><text y="-10.1" style=""><tspan class="text-outer-tspan row" x="0" y="-0.1em" dy="1.1em"><tspan font-style="normal" class="text-inner-tspan" font-weight="normal">Врати</tspan><tspan font-style="normal" class="text-inner-tspan" font-weight="normal"> метаподатке</tspan></tspan><tspan class="text-outer-tspan row" x="0" y="1em" dy="1.1em"><tspan font-style="normal" class="text-inner-tspan" font-weight="normal">Пружалац:</tspan><tspan font-style="normal" class="text-inner-tspan" font-weight="normal"> Let</tspan><tspan font-style="normal" class="text-inner-tspan" font-weight="normal"> Books</tspan><tspan font-style="normal" class="text-inner-tspan" font-weight="normal"> API</tspan></tspan></text></g></g></g></g></g></g><defs><filter id="my-svg-drop-shadow" height="130%" width="130%"><feDropShadow dx="4" dy="4" stdDeviation="0" flood-opacity="0.06" flood-color="#000000"/></filter></defs><defs><filter id="my-svg-drop-shadow-small" height="150%" width="150%"><feDropShadow dx="2" dy="2" stdDeviation="0" flood-opacity="0.06" flood-color="#000000"/></filter></defs><linearGradient id="my-svg-gradient" gradientUnits="objectBoundingBox" x1="0%" y1="0%" x2="100%" y2="0%"><stop offset="0%" stop-color="hsl(0, 0%, 83.3333333333%)" stop-opacity="1"/><stop offset="100%" stop-color="hsl(0, 0%, 88.9215686275%)" stop-opacity="1"/></linearGradient><text text-anchor="middle" x="375.11700439453125" y="-25" class="flowchartTitleText">Ланац претраживања метаподатака ISBN</text></svg>