<svg id="my-svg" width="100%" xmlns="http://www.w3.org/2000/svg" xmlns:xlink="http://www.w3.org/1999/xlink" class="flowchart" style="max-width: 772.306px; background-color: transparent;" viewBox="0 -49 772.3062744140625 1282.8436279296875" role="graphics-document document" aria-roledescription="flowchart-v2"><style>#my-svg{font-family:"trebuchet ms",verdana,arial,sans-serif;font-size:16px;fill:#000000;}@keyframes edge-animation-frame{from{stroke-dashoffset:0;}}@keyframes dash{to{stroke-dashoffset:0;}}#my-svg .edge-animation-slow{stroke-dasharray:9,5!important;stroke-dashoffset:900;animation:dash 50s linear infinite;stroke-linecap:round;}#my-svg .edge-animation-fast{stroke-dasharray:9,5!important;stroke-dashoffset:900;animation:dash 20s linear infinite;stroke-linecap:round;}#my-svg .error-icon{fill:#552222;}#my-svg .error-text{fill:#552222;stroke:#552222;}#my-svg .edge-thickness-normal{stroke-width:1px;}#my-svg .edge-thickness-thick{stroke-width:3.5px;}#my-svg .edge-pattern-solid{stroke-dasharray:0;}#my-svg .edge-thickness-invisible{stroke-width:0;fill:none;}#my-svg .edge-pattern-dashed{stroke-dasharray:3;}#my-svg .edge-pattern-dotted{stroke-dasharray:2;}#my-svg .marker{fill:#666;stroke:#666;}#my-svg .marker.cross{stroke:#666;}#my-svg svg{font-family:"trebuchet ms",verdana,arial,sans-serif;font-size:16px;}#my-svg p{margin:0;}#my-svg .label{font-family:"trebuchet ms",verdana,arial,sans-serif;color:#000000;}#my-svg .cluster-label text{fill:#333;}#my-svg .cluster-label span{color:#333;}#my-svg .cluster-label span p{background-color:transparent;}#my-svg .label text,#my-svg span{fill:#000000;color:#000000;}#my-svg .node rect,#my-svg .node circle,#my-svg .node ellipse,#my-svg .node polygon,#my-svg .node path{fill:#eee;stroke:#999;stroke-width:1px;}#my-svg .rough-node .label text,#my-svg .node .label text,#my-svg .image-shape .label,#my-svg .icon-shape .label{text-anchor:middle;}#my-svg .node .katex path{fill:#000;stroke:#000;stroke-width:1px;}#my-svg .rough-node .label,#my-svg .node .label,#my-svg .image-shape .label,#my-svg .icon-shape .label{text-align:center;}#my-svg .node.clickable{cursor:pointer;}#my-svg .root .anchor path{fill:#666!important;stroke-width:0;stroke:#666;}#my-svg .arrowheadPath{fill:#333333;}#my-svg .edgePath .path{stroke:#666;stroke-width:1px;}#my-svg .flowchart-link{stroke:#666;fill:none;}#my-svg .edgeLabel{background-color:white;text-align:center;}#my-svg .edgeLabel p{background-color:white;}#my-svg .edgeLabel rect{opacity:0.5;background-color:white;fill:white;}#my-svg .labelBkg{background-color:rgba(255, 255, 255, 0.5);}#my-svg .cluster rect{fill:hsl(0, 0%, 98.9215686275%);stroke:#707070;stroke-width:1px;}#my-svg .cluster text{fill:#333;}#my-svg .cluster span{color:#333;}#my-svg div.mermaidTooltip{position:absolute;text-align:center;max-width:200px;padding:2px;font-family:"trebuchet ms",verdana,arial,sans-serif;font-size:12px;background:hsl(-160, 0%, 93.3333333333%);border:1px solid #707070;border-radius:2px;pointer-events:none;z-index:100;}#my-svg .flowchartTitleText{text-anchor:middle;font-size:18px;fill:#000000;}#my-svg rect.text{fill:none;stroke-width:0;}#my-svg .icon-shape,#my-svg .image-shape{background-color:white;text-align:center;}#my-svg .icon-shape p,#my-svg .image-shape p{background-color:white;padding:2px;}#my-svg .icon-shape .label rect,#my-svg .image-shape .label rect{opacity:0.5;background-color:white;fill:white;}#my-svg .label-icon{display:inline-block;height:1em;overflow:visible;vertical-align:-0.125em;}#my-svg .node .label-icon path{fill:currentColor;stroke:revert;stroke-width:revert;}#my-svg .node .neo-node{stroke:#999;}#my-svg [data-look="neo"].node rect,#my-svg [data-look="neo"].cluster rect,#my-svg [data-look="neo"].node polygon{stroke:url(#my-svg-gradient);filter:drop-shadow( 1px 2px 2px rgba(185,185,185,1));}#my-svg [data-look="neo"].node path{stroke:url(#my-svg-gradient);stroke-width:1px;}#my-svg [data-look="neo"].node .outer-path{filter:drop-shadow( 1px 2px 2px rgba(185,185,185,1));}#my-svg [data-look="neo"].node .neo-line path{stroke:#999;filter:none;}#my-svg [data-look="neo"].node circle{stroke:url(#my-svg-gradient);filter:drop-shadow( 1px 2px 2px rgba(185,185,185,1));}#my-svg [data-look="neo"].node circle .state-start{fill:#000000;}#my-svg [data-look="neo"].icon-shape .icon{fill:url(#my-svg-gradient);filter:drop-shadow( 1px 2px 2px rgba(185,185,185,1));}#my-svg [data-look="neo"].icon-shape .icon-neo path{stroke:url(#my-svg-gradient);filter:drop-shadow( 1px 2px 2px rgba(185,185,185,1));}#my-svg :root{--mermaid-font-family:"trebuchet ms",verdana,arial,sans-serif;}</style><g><marker id="my-svg_flowchart-v2-pointEnd" class="marker flowchart-v2" viewBox="0 0 10 10" refX="5" refY="5" markerUnits="userSpaceOnUse" markerWidth="8" markerHeight="8" orient="auto"><path d="M 0 0 L 10 5 L 0 10 z" class="arrowMarkerPath" style="stroke-width: 1; stroke-dasharray: 1, 0;"/></marker><marker id="my-svg_flowchart-v2-pointStart" class="marker flowchart-v2" viewBox="0 0 10 10" refX="4.5" refY="5" markerUnits="userSpaceOnUse" markerWidth="8" markerHeight="8" orient="auto"><path d="M 0 5 L 10 10 L 10 0 z" class="arrowMarkerPath" style="stroke-width: 1; stroke-dasharray: 1, 0;"/></marker><marker id="my-svg_flowchart-v2-pointEnd-margin" class="marker flowchart-v2" viewBox="0 0 11.5 14" refX="11.5" refY="7" markerUnits="userSpaceOnUse" markerWidth="10.5" markerHeight="14" orient="auto"><path d="M 0 0 L 11.5 7 L 0 14 z" class="arrowMarkerPath" style="stroke-width: 0; stroke-dasharray: 1, 0;"/></marker><marker id="my-svg_flowchart-v2-pointStart-margin" class="marker flowchart-v2" viewBox="0 0 11.5 14" refX="1" refY="7" markerUnits="userSpaceOnUse" markerWidth="11.5" markerHeight="14" orient="auto"><polygon points="0,7 11.5,14 11.5,0" class="arrowMarkerPath" style="stroke-width: 0; stroke-dasharray: 1, 0;"/></marker><marker id="my-svg_flowchart-v2-circleEnd" class="marker flowchart-v2" viewBox="0 0 10 10" refX="11" refY="5" markerUnits="userSpaceOnUse" markerWidth="11" markerHeight="11" orient="auto"><circle cx="5" cy="5" r="5" class="arrowMarkerPath" style="stroke-width: 1; stroke-dasharray: 1, 0;"/></marker><marker id="my-svg_flowchart-v2-circleStart" class="marker flowchart-v2" viewBox="0 0 10 10" refX="-1" refY="5" markerUnits="userSpaceOnUse" markerWidth="11" markerHeight="11" orient="auto"><circle cx="5" cy="5" r="5" class="arrowMarkerPath" style="stroke-width: 1; stroke-dasharray: 1, 0;"/></marker><marker id="my-svg_flowchart-v2-circleEnd-margin" class="marker flowchart-v2" viewBox="0 0 10 10" refY="5" refX="12.25" markerUnits="userSpaceOnUse" markerWidth="14" markerHeight="14" orient="auto"><circle cx="5" cy="5" r="5" class="arrowMarkerPath" style="stroke-width: 0; stroke-dasharray: 1, 0;"/></marker><marker id="my-svg_flowchart-v2-circleStart-margin" class="marker flowchart-v2" viewBox="0 0 10 10" refX="-2" refY="5" markerUnits="userSpaceOnUse" markerWidth="14" markerHeight="14" orient="auto"><circle cx="5" cy="5" r="5" class="arrowMarkerPath" style="stroke-width: 0; stroke-dasharray: 1, 0;"/></marker><marker id="my-svg_flowchart-v2-crossEnd" class="marker cross flowchart-v2" viewBox="0 0 11 11" refX="12" refY="5.2" markerUnits="userSpaceOnUse" markerWidth="11" markerHeight="11" orient="auto"><path d="M 1,1 l 9,9 M 10,1 l -9,9" class="arrowMarkerPath" style="stroke-width: 2; stroke-dasharray: 1, 0;"/></marker><marker id="my-svg_flowchart-v2-crossStart" class="marker cross flowchart-v2" viewBox="0 0 11 11" refX="-1" refY="5.2" markerUnits="userSpaceOnUse" markerWidth="11" markerHeight="11" orient="auto"><path d="M 1,1 l 9,9 M 10,1 l -9,9" class="arrowMarkerPath" style="stroke-width: 2; stroke-dasharray: 1, 0;"/></marker><marker id="my-svg_flowchart-v2-crossEnd-margin" class="marker cross flowchart-v2" viewBox="0 0 15 15" refX="17.7" refY="7.5" markerUnits="userSpaceOnUse" markerWidth="12" markerHeight="12" orient="auto"><path d="M 1,1 L 14,14 M 1,14 L 14,1" class="arrowMarkerPath" style="stroke-width: 2.5;"/></marker><marker id="my-svg_flowchart-v2-crossStart-margin" class="marker cross flowchart-v2" viewBox="0 0 15 15" refX="-3.5" refY="7.5" markerUnits="userSpaceOnUse" markerWidth="12" markerHeight="12" orient="auto"><path d="M 1,1 L 14,14 M 1,14 L 14,1" class="arrowMarkerPath" style="stroke-width: 2.5; stroke-dasharray: 1, 0;"/></marker><g class="root"><g class="clusters"/><g class="edgePaths"><path d="M202.414,40.5L202.331,44.583C202.247,48.667,202.081,56.833,201.997,64.417C201.914,72,201.914,79,201.914,82.5L201.914,86" id="my-svg-L_A_B_0" class="edge-thickness-normal edge-pattern-solid edge-thickness-normal edge-pattern-solid flowchart-link" style=";" data-edge="true" data-et="edge" data-id="L_A_B_0" data-points="W3sieCI6MjAyLjQxNDA2MjUsInkiOjQwLjUwMDAwMDAwMDAwMDAxfSx7IngiOjIwMS45MTQwNjI1LCJ5Ijo2NX0seyJ4IjoyMDEuOTE0MDYyNSwieSI6OTB9XQ==" data-look="classic" marker-end="url(#my-svg_flowchart-v2-pointEnd)"/><path d="M201.914,137L201.914,141.167C201.914,145.333,201.914,153.667,201.914,161.333C201.914,169,201.914,176,201.914,179.5L201.914,183" id="my-svg-L_B_C_0" class="edge-thickness-normal edge-pattern-solid edge-thickness-normal edge-pattern-solid flowchart-link" style=";" data-edge="true" data-et="edge" data-id="L_B_C_0" data-points="W3sieCI6MjAxLjkxNDA2MjUsInkiOjEzN30seyJ4IjoyMDEuOTE0MDYyNSwieSI6MTYyfSx7IngiOjIwMS45MTQwNjI1LCJ5IjoxODd9XQ==" data-look="classic" marker-end="url(#my-svg_flowchart-v2-pointEnd)"/><path d="M234.635,322.16L241.899,333.53C249.163,344.9,263.691,367.641,270.955,388.844C278.219,410.048,278.219,429.715,278.219,447.631C278.219,465.548,278.219,481.715,278.219,509.871C278.219,538.028,278.219,578.175,278.219,620.072C278.219,661.969,278.219,705.616,278.219,738.739C278.219,771.862,278.219,794.462,278.219,815.312C278.219,836.162,278.219,855.262,278.219,880.303C278.219,905.343,278.219,936.323,278.219,951.813L278.219,967.303" id="my-svg-L_C_D_0" class="edge-thickness-normal edge-pattern-solid edge-thickness-normal edge-pattern-solid flowchart-link" style=";" data-edge="true" data-et="edge" data-id="L_C_D_0" data-points="W3sieCI6MjM0LjYzNTQ3NDIwNTE3ODMsInkiOjMyMi4xNTk4MjkxMzk1NDgyNn0seyJ4IjoyNzguMjE4NzUsInkiOjM5MC4zODEyNDA4NDQ3MjY1Nn0seyJ4IjoyNzguMjE4NzUsInkiOjQ0OS4zODEyNDA4NDQ3MjY1Nn0seyJ4IjoyNzguMjE4NzUsInkiOjQ5Ny44ODEyNDA4NDQ3MjY1Nn0seyJ4IjoyNzguMjE4NzUsInkiOjYxOC4zMjE4NjEyNjcwODk4fSx7IngiOjI3OC4yMTg3NSwieSI6NzQ5LjI2MjQ4MTY4OTQ1MzF9LHsieCI6Mjc4LjIxODc1LCJ5Ijo4MTcuMDYyNDgwOTI2NTEzN30seyJ4IjoyNzguMjE4NzUsInkiOjg3NC4zNjI0ODAxNjM1NzQyfSx7IngiOjI3OC4yMTg3NSwieSI6OTcxLjMwMzEwMDU4NTkzNzV9XQ==" data-look="classic" marker-end="url(#my-svg_flowchart-v2-pointEnd)"/><path d="M278.219,1018.303L278.219,1036.21C278.219,1054.117,278.219,1089.93,281.672,1113.193C285.126,1136.456,292.032,1147.169,295.486,1152.526L298.939,1157.882" id="my-svg-L_D_E_0" class="edge-thickness-normal edge-pattern-solid edge-thickness-normal edge-pattern-solid flowchart-link" style=";" data-edge="true" data-et="edge" data-id="L_D_E_0" data-points="W3sieCI6Mjc4LjIxODc1LCJ5IjoxMDE4LjMwMzEwMDU4NTkzNzV9LHsieCI6Mjc4LjIxODc1LCJ5IjoxMTI1Ljc0MzcyMTAwODMwMDh9LHsieCI6MzAxLjEwNjc2ODIxMDE3MjE2LCJ5IjoxMTYxLjI0MzcyMTAwODMwMDh9XQ==" data-look="classic" marker-end="url(#my-svg_flowchart-v2-pointEnd)"/><path d="M169.193,322.16L161.929,333.53C154.665,344.9,140.137,367.641,132.873,384.261C125.609,400.881,125.609,411.381,125.609,416.631L125.609,421.881" id="my-svg-L_C_F_0" class="edge-thickness-normal edge-pattern-solid edge-thickness-normal edge-pattern-solid flowchart-link" style=";" data-edge="true" data-et="edge" data-id="L_C_F_0" data-points="W3sieCI6MTY5LjE5MjY1MDc5NDgyMTcsInkiOjMyMi4xNTk4MjkxMzk1NDgyNn0seyJ4IjoxMjUuNjA5Mzc1LCJ5IjozOTAuMzgxMjQwODQ0NzI2NTZ9LHsieCI6MTI1LjYwOTM3NSwieSI6NDI1Ljg4MTI0MDg0NDcyNjU2fV0=" data-look="classic" marker-end="url(#my-svg_flowchart-v2-pointEnd)"/><path d="M125.609,472.881L125.609,477.048C125.609,481.215,125.609,489.548,125.609,497.215C125.609,504.881,125.609,511.881,125.609,515.381L125.609,518.881" id="my-svg-L_F_G_0" class="edge-thickness-normal edge-pattern-solid edge-thickness-normal edge-pattern-solid flowchart-link" style=";" data-edge="true" data-et="edge" data-id="L_F_G_0" data-points="W3sieCI6MTI1LjYwOTM3NSwieSI6NDcyLjg4MTI0MDg0NDcyNjU2fSx7IngiOjEyNS42MDkzNzUsInkiOjQ5Ny44ODEyNDA4NDQ3MjY1Nn0seyJ4IjoxMjUuNjA5Mzc0OTk5OTk5OTksInkiOjUyMi44ODEyNDA4NDQ3MjY2fV0=" data-look="classic" marker-end="url(#my-svg_flowchart-v2-pointEnd)"/><path d="M125.609,713.762L125.609,719.679C125.609,725.596,125.609,737.429,125.609,748.596C125.609,759.762,125.609,770.262,125.609,775.512L125.609,780.762" id="my-svg-L_G_H_0" class="edge-thickness-normal edge-pattern-solid edge-thickness-normal edge-pattern-solid flowchart-link" style=";" data-edge="true" data-et="edge" data-id="L_G_H_0" data-points="W3sieCI6MTI1LjYwOTM3NDk5OTk5OTk5LCJ5Ijo3MTMuNzYyNDgxNjg5NDUzMX0seyJ4IjoxMjUuNjA5Mzc1LCJ5Ijo3NDkuMjYyNDgxNjg5NDUzMX0seyJ4IjoxMjUuNjA5Mzc1LCJ5Ijo3ODQuNzYyNDgxNjg5NDUzMX1d" data-look="classic" marker-end="url(#my-svg_flowchart-v2-pointEnd)"/><path d="M200.2,639.172L265.843,657.52C331.486,675.868,462.772,712.565,528.415,736.164C594.058,759.762,594.058,770.262,594.058,775.512L594.058,780.762" id="my-svg-L_G_I_0" class="edge-thickness-normal edge-pattern-solid edge-thickness-normal edge-pattern-solid flowchart-link" style=";" data-edge="true" data-et="edge" data-id="L_G_I_0" data-points="W3sieCI6MjAwLjIwMDM1NTYyNzA1NTY0LCJ5Ijo2MzkuMTcxNTAxMDYyMzk3NX0seyJ4Ijo1OTQuMDU4MjAwODM2MTgxNiwieSI6NzQ5LjI2MjQ4MTY4OTQ1MzF9LHsieCI6NTk0LjA1ODIwMDgzNjE4MTYsInkiOjc4NC43NjI0ODE2ODk0NTMxfV0=" data-look="classic" marker-end="url(#my-svg_flowchart-v2-pointEnd)"/><path d="M594.058,849.362L594.058,853.529C594.058,857.696,594.058,866.029,594.058,873.696C594.058,881.362,594.058,888.362,594.058,891.862L594.058,895.362" id="my-svg-L_I_J_0" class="edge-thickness-normal edge-pattern-solid edge-thickness-normal edge-pattern-solid flowchart-link" style=";" data-edge="true" data-et="edge" data-id="L_I_J_0" data-points="W3sieCI6NTk0LjA1ODIwMDgzNjE4MTYsInkiOjg0OS4zNjI0ODAxNjM1NzQyfSx7IngiOjU5NC4wNTgyMDA4MzYxODE2LCJ5Ijo4NzQuMzYyNDgwMTYzNTc0Mn0seyJ4Ijo1OTQuMDU4MjAwODM2MTgxNCwieSI6ODk5LjM2MjQ4MDE2MzU3NDh9XQ==" data-look="classic" marker-end="url(#my-svg_flowchart-v2-pointEnd)"/><path d="M619.905,1064.397L623.702,1074.621C627.5,1084.846,635.094,1105.295,638.892,1120.769C642.689,1136.244,642.689,1146.744,642.689,1151.994L642.689,1157.244" id="my-svg-L_J_K_0" class="edge-thickness-normal edge-pattern-solid edge-thickness-normal edge-pattern-solid flowchart-link" style=";" data-edge="true" data-et="edge" data-id="L_J_K_0" data-points="W3sieCI6NjE5LjkwNTA2MzU3NjYzNTgsInkiOjEwNjQuMzk2ODU4MjY3ODQ3Mn0seyJ4Ijo2NDIuNjg5MDYwMjExMTgxNiwieSI6MTEyNS43NDM3MjEwMDgzMDA4fSx7IngiOjY0Mi42ODkwNjAyMTExODE2LCJ5IjoxMTYxLjI0MzcyMTAwODMwMDh9XQ==" data-look="classic" marker-end="url(#my-svg_flowchart-v2-pointEnd)"/><path d="M545.289,1041.475L530.613,1055.52C515.938,1069.564,486.586,1097.654,460.699,1117.317C434.811,1136.98,412.389,1148.216,401.177,1153.834L389.966,1159.452" id="my-svg-L_J_E_0" class="edge-thickness-normal edge-pattern-solid edge-thickness-normal edge-pattern-solid flowchart-link" style=";" data-edge="true" data-et="edge" data-id="L_J_E_0" data-points="W3sieCI6NTQ1LjI4OTMzMTk3ODQ2MjgsInkiOjEwNDEuNDc0ODUyMTUwNTgxN30seyJ4Ijo0NTcuMjMzOTgyMDg2MTgxNjQsInkiOjExMjUuNzQzNzIxMDA4MzAwOH0seyJ4IjozODYuMzg5ODM0OTQ4NjkyOCwieSI6MTE2MS4yNDM3MjEwMDgzMDA4fV0=" data-look="classic" marker-end="url(#my-svg_flowchart-v2-pointEnd)"/></g><g class="edgeLabels"><g class="edgeLabel"><g class="label" data-id="L_A_B_0" transform="translate(0, 0)"><text y="-10.1" text-anchor="middle"><tspan class="text-outer-tspan row" x="0" y="-0.1em" dy="1.1em" text-anchor="middle"/></text></g></g><g><rect class="background" style="stroke: none"/></g><g class="edgeLabel"><g class="label" data-id="L_B_C_0" transform="translate(0, 0)"><text y="-10.1" text-anchor="middle"><tspan class="text-outer-tspan row" x="0" y="-0.1em" dy="1.1em" text-anchor="middle"/></text></g></g><g><rect class="background" style="stroke: none"/></g><g class="edgeLabel" transform="translate(278.21875, 618.3218612670898)"><g class="label" data-id="L_C_D_0" transform="translate(-0.05078125, -10.5)"><g><rect class="background" style="" x="-12.2265625" y="0" width="24.5546875" height="21"/><text y="-10.1" text-anchor="middle" style=""><tspan class="text-outer-tspan row" x="0" y="-0.1em" dy="1.1em" text-anchor="middle"><tspan font-style="normal" class="text-inner-tspan" font-weight="normal">No</tspan></tspan></text></g></g></g><g class="edgeLabel"><g class="label" data-id="L_D_E_0" transform="translate(0, 0)"><text y="-10.1" text-anchor="middle"><tspan class="text-outer-tspan row" x="0" y="-0.1em" dy="1.1em" text-anchor="middle"/></text></g></g><g><rect class="background" style="stroke: none"/></g><g class="edgeLabel" transform="translate(125.609375, 390.38124084472656)"><g class="label" data-id="L_C_F_0" transform="translate(-0.2734375, -10.5)"><g><rect class="background" style="" x="-9.5625" y="0" width="19.671875" height="21"/><text y="-10.1" text-anchor="middle" style=""><tspan class="text-outer-tspan row" x="0" y="-0.1em" dy="1.1em" text-anchor="middle"><tspan font-style="normal" class="text-inner-tspan" font-weight="normal">Sí</tspan></tspan></text></g></g></g><g class="edgeLabel"><g class="label" data-id="L_F_G_0" transform="translate(0, 0)"><text y="-10.1" text-anchor="middle"><tspan class="text-outer-tspan row" x="0" y="-0.1em" dy="1.1em" text-anchor="middle"/></text></g></g><g><rect class="background" style="stroke: none"/></g><g class="edgeLabel" transform="translate(125.609375, 749.2624816894531)"><g class="label" data-id="L_G_H_0" transform="translate(-0.2734375, -10.5)"><g><rect class="background" style="" x="-9.5625" y="0" width="19.671875" height="21"/><text y="-10.1" text-anchor="middle" style=""><tspan class="text-outer-tspan row" x="0" y="-0.1em" dy="1.1em" text-anchor="middle"><tspan font-style="normal" class="text-inner-tspan" font-weight="normal">Sí</tspan></tspan></text></g></g></g><g class="edgeLabel" transform="translate(594.0582008361816, 749.2624816894531)"><g class="label" data-id="L_G_I_0" transform="translate(-0.05078125, -10.5)"><g><rect class="background" style="" x="-67.375" y="0" width="134.8515625" height="21"/><text y="-10.1" text-anchor="middle" style=""><tspan class="text-outer-tspan row" x="0" y="-0.1em" dy="1.1em" text-anchor="middle"><tspan font-style="normal" class="text-inner-tspan" font-weight="normal">No</tspan><tspan font-style="normal" class="text-inner-tspan" font-weight="normal"> /</tspan><tspan font-style="normal" class="text-inner-tspan" font-weight="normal"> No</tspan><tspan font-style="normal" class="text-inner-tspan" font-weight="normal"> disponible</tspan></tspan></text></g></g></g><g class="edgeLabel"><g class="label" data-id="L_I_J_0" transform="translate(0, 0)"><text y="-10.1" text-anchor="middle"><tspan class="text-outer-tspan row" x="0" y="-0.1em" dy="1.1em" text-anchor="middle"/></text></g></g><g><rect class="background" style="stroke: none"/></g><g class="edgeLabel" transform="translate(642.6890602111816, 1125.7437210083008)"><g class="label" data-id="L_J_K_0" transform="translate(-0.2734375, -10.5)"><g><rect class="background" style="" x="-9.5625" y="0" width="19.671875" height="21"/><text y="-10.1" text-anchor="middle" style=""><tspan class="text-outer-tspan row" x="0" y="-0.1em" dy="1.1em" text-anchor="middle"><tspan font-style="normal" class="text-inner-tspan" font-weight="normal">Sí</tspan></tspan></text></g></g></g><g class="edgeLabel" transform="translate(472.63703, 1111.00302)"><g class="label" data-id="L_J_E_0" transform="translate(-0.05078125, -10.5)"><g><rect class="background" style="" x="-67.375" y="0" width="134.8515625" height="21"/><text y="-10.1" text-anchor="middle" style=""><tspan class="text-outer-tspan row" x="0" y="-0.1em" dy="1.1em" text-anchor="middle"><tspan font-style="normal" class="text-inner-tspan" font-weight="normal">No</tspan><tspan font-style="normal" class="text-inner-tspan" font-weight="normal"> /</tspan><tspan font-style="normal" class="text-inner-tspan" font-weight="normal"> No</tspan><tspan font-style="normal" class="text-inner-tspan" font-weight="normal"> disponible</tspan></tspan></text></g></g></g></g><g class="nodes"><g class="node default" id="my-svg-flowchart-A-0" data-look="classic" transform="translate(201.9140625, 24)"><g class="basic label-container outer-path"><path d="M-51.58203125 -16 C-14.97669095829741 -16, 21.62864933340518 -16, 51.58203125 -16 C51.58203125 -16, 51.58203125 -16, 51.58203125 -16 C51.84550001716388 -15.9915510694479, 52.10896878432775 -15.983102138895799, 52.607154769691405 -15.967126284005381 C52.99607716262654 -15.92960740850654, 53.38499955556168 -15.8920885330077, 53.628065836952096 -15.868640221171939 C54.02077717168682 -15.805149698093915, 54.41348850642154 -15.741659175015892, 54.64056930922195 -15.704946511857047 C54.91609351516291 -15.642059909814495, 55.19161772110387 -15.579173307771944, 55.64050459255211 -15.476717808624471 C55.906112619332006 -15.397886740481182, 56.17172064611191 -15.31905567233789, 56.623762738377934 -15.184891952170698 C56.96279565358791 -15.060124705387514, 57.30182856879789 -14.935357458604328, 57.58630332806999 -14.830668117536348 C57.77659246652928 -14.746432760667153, 57.96688160498858 -14.66219740379796, 58.52417107588093 -14.415501886438706 C58.88592601800112 -14.226774564849702, 59.247680960121315 -14.038047243260698, 59.433512082063004 -13.941099265974232 C59.757440805426015 -13.7447317702551, 60.081369528789025 -13.548364274535967, 60.31058966936878 -13.409409678269451 C60.52312211616705 -13.261156243764317, 60.735654562965316 -13.11290280925918, 61.151799737859456 -12.822617949887306 C61.345925499564224 -12.667807820831229, 61.540051261268985 -12.512997691775151, 61.95368557492461 -12.183135333906153 C62.13033633355531 -12.022705788840701, 62.30698709218601 -11.862276243775252, 62.712952059655784 -11.493589601563642 C62.94723894931259 -11.251669152681616, 63.18152583896941 -11.009748703799591, 63.42647920320505 -10.756814244181072 C63.56082570051484 -10.599003203908735, 63.695172197824625 -10.441192163636396, 64.09133496948847 -9.975836829739738 C64.30790160559557 -9.685657266982654, 64.52446824170266 -9.39547770422557, 64.70478732355129 -9.153866561954718 C64.85489902644855 -8.923254675668266, 65.00501072934583 -8.692642789381816, 65.26431545808553 -8.294281092968403 C65.37200320359173 -8.10307059625547, 65.47969094909793 -7.9118600995425385, 65.767620151968 -7.400612643853364 C65.92390470263464 -7.0760844304404, 66.08018925330128 -6.751556217027434, 66.212633218253 -6.476533489958305 C66.36432017274748 -6.101863779689158, 66.51600712724198 -5.727194069420013, 66.59752600279616 -5.52584087074093 C66.6850696895326 -5.262173234483047, 66.77261337626904 -4.998505598225164, 66.92071689858656 -4.552441386096524 C66.98369451580515 -4.312280436970066, 67.04667213302375 -4.072119487843608, 67.18087784490918 -3.560334943301032 C67.25244343514315 -3.192860762842466, 67.32400902537711 -2.8253865823838997, 67.3769397846312 -2.5535983205340735 C67.4225228684984 -2.2000649234580836, 67.4681059523656 -1.8465315263820932, 67.50809705718717 -1.536368414522911 C67.5302637021326 -1.191105026904018, 67.55243034707804 -0.8458416392851249, 67.573810709211 -0.5128252411464826 C67.573810709211 -0.248632750655579, 67.573810709211 0.01555973983532466, 67.573810709211 0.5128252411464788 C67.55878026319297 0.7469365702349217, 67.54374981717496 0.9810478993233644, 67.50809705718717 1.5363684145229002 C67.47211569000862 1.8154327930351795, 67.43613432283006 2.094497171547459, 67.3769397846312 2.5535983205340624 C67.30528186082802 2.921546614355833, 67.23362393702484 3.2894949081776033, 67.18087784490918 3.5603349433010285 C67.08009231252858 3.944673858994281, 66.979306780148 4.329012774687533, 66.92071689858658 4.552441386096513 C66.80360887550171 4.905152092998536, 66.68650085241686 5.257862799900559, 66.59752600279617 5.525840870740919 C66.46177675151971 5.861144145927027, 66.32602750024323 6.196447421113135, 66.212633218253 6.4765334899583005 C66.08485758557855 6.741862325167361, 65.9570819529041 7.00719116037642, 65.767620151968 7.400612643853361 C65.62178046063619 7.659565783683125, 65.47594076930436 7.91851892351289, 65.26431545808553 8.294281092968399 C65.13562144187006 8.49198966105747, 65.00692742565458 8.689698229146542, 64.7047873235513 9.15386656195471 C64.46393401087361 9.476588058754626, 64.22308069819594 9.799309555554542, 64.09133496948849 9.975836829739734 C63.855951459540435 10.252331694225852, 63.62056794959239 10.528826558711971, 63.426479203205055 10.756814244181063 C63.24056325183635 10.948787727952732, 63.05464730046764 11.1407612117244, 62.712952059655784 11.493589601563638 C62.412733053805105 11.766240559317616, 62.11251404795442 12.038891517071596, 61.95368557492463 12.183135333906142 C61.71566712096701 12.372948717000273, 61.47764866700939 12.562762100094407, 61.15179973785946 12.822617949887304 C60.902081996189004 12.996810236369807, 60.652364254518545 13.17100252285231, 60.31058966936879 13.409409678269446 C60.05153723891337 13.566448783972582, 59.79248480845795 13.723487889675718, 59.433512082063004 13.94109926597423 C59.17067849273471 14.07821938117385, 58.90784490340642 14.215339496373472, 58.52417107588093 14.415501886438705 C58.28721217540872 14.520396562541716, 58.05025327493651 14.625291238644726, 57.586303328069995 14.830668117536346 C57.226869883140935 14.962942947836583, 56.867436438211875 15.095217778136819, 56.62376273837794 15.184891952170695 C56.239816578954176 15.298845156913151, 55.85587041953042 15.412798361655607, 55.64050459255213 15.476717808624468 C55.28914309944036 15.55691377657921, 54.93778160632858 15.637109744533953, 54.64056930922196 15.704946511857045 C54.40003104839903 15.743834872464824, 54.1594927875761 15.782723233072604, 53.6280658369521 15.868640221171937 C53.323921741960454 15.89798063622899, 53.019777646968805 15.927321051286045, 52.607154769691405 15.967126284005381 C52.3086149014766 15.976699876506428, 52.01007503326179 15.986273469007475, 51.58203125 16 C51.58203125 16, 51.58203125 16, 51.58203125 16 C21.647190517421382 16, -8.287650215157235 16, -51.58203125 16 C-51.93819907378826 15.988578391129723, -52.29436689757652 15.977156782259446, -52.6071547696914 15.967126284005381 C-52.92474646173481 15.936488595433845, -53.24233815377823 15.905850906862309, -53.628065836952096 15.868640221171937 C-53.96431045246685 15.81427879935145, -54.3005550679816 15.759917377530964, -54.64056930922196 15.704946511857045 C-55.01237665342971 15.620083911811292, -55.384183997637464 15.535221311765541, -55.64050459255211 15.476717808624471 C-55.856465214275026 15.412621829697546, -56.07242583599794 15.34852585077062, -56.62376273837792 15.184891952170702 C-56.82181286221667 15.112007675842767, -57.01986298605542 15.039123399514832, -57.58630332806999 14.830668117536348 C-57.87234335382559 14.704046683210233, -58.15838337958119 14.577425248884117, -58.52417107588093 14.415501886438708 C-58.80931849496733 14.266740660546972, -59.09446591405372 14.117979434655236, -59.433512082063 13.941099265974234 C-59.6286590133972 13.822800049388778, -59.823805944731404 13.704500832803323, -60.31058966936877 13.409409678269457 C-60.63947358466365 13.179994496114979, -60.96835749995853 12.950579313960503, -61.151799737859456 12.822617949887308 C-61.42153453971658 12.607511623350783, -61.69126934157371 12.392405296814257, -61.95368557492461 12.183135333906154 C-62.14813407820354 12.006542348053703, -62.34258258148246 11.829949362201253, -62.71295205965578 11.493589601563649 C-62.96989414177374 11.228275806439584, -63.226836223891716 10.962962011315518, -63.42647920320505 10.756814244181069 C-63.597014442345184 10.55649384855706, -63.76754968148532 10.356173452933053, -64.09133496948847 9.97583682973974 C-64.28777865043136 9.71262019366377, -64.48422233137424 9.449403557587802, -64.70478732355129 9.15386656195472 C-64.837634981751 8.949776884368825, -64.9704826399507 8.74568720678293, -65.26431545808553 8.29428109296841 C-65.41694310883597 8.023275243835462, -65.56957075958641 7.752269394702513, -65.767620151968 7.400612643853366 C-65.89859936849003 7.1286314982391215, -66.02957858501203 6.856650352624877, -66.212633218253 6.476533489958307 C-66.3079731733476 6.241041957602007, -66.4033131284422 6.005550425245707, -66.59752600279616 5.525840870740931 C-66.71183827341177 5.181550524833634, -66.82615054402739 4.837260178926336, -66.92071689858656 4.552441386096519 C-67.02058303759463 4.171608515800308, -67.1204491766027 3.790775645504098, -67.18087784490918 3.5603349433010343 C-67.24179543019949 3.2475360177715173, -67.3027130154898 2.934737092242, -67.3769397846312 2.5535983205340753 C-67.42913003506669 2.148821044287105, -67.48132028550218 1.7440437680401344, -67.50809705718717 1.5363684145229202 C-67.53404661045384 1.1321831762921737, -67.5599961637205 0.7279979380614273, -67.573810709211 0.5128252411464846 C-67.573810709211 0.1179802746206764, -67.573810709211 -0.27686469190513185, -67.573810709211 -0.5128252411464769 C-67.5532987367626 -0.832315768996571, -67.5327867643142 -1.1518062968466651, -67.50809705718717 -1.5363684145228982 C-67.47150321927536 -1.820182995096279, -67.43490938136355 -2.1039975756696596, -67.3769397846312 -2.5535983205340678 C-67.301709838576 -2.9398881936727816, -67.2264798925208 -3.3261780668114955, -67.18087784490918 -3.5603349433010267 C-67.10018694126849 -3.868044330541837, -67.0194960376278 -4.175753717782647, -66.92071689858658 -4.552441386096511 C-66.82317680384949 -4.846216610541021, -66.7256367091124 -5.1399918349855325, -66.59752600279617 -5.525840870740911 C-66.5186669335604 -5.720624296389653, -66.43980786432464 -5.9154077220383945, -66.212633218253 -6.476533489958299 C-66.03786108275763 -6.839451568839075, -65.86308894726226 -7.20236964771985, -65.767620151968 -7.400612643853359 C-65.59866320570724 -7.700612810685361, -65.42970625944648 -8.000612977517363, -65.26431545808553 -8.294281092968404 C-65.04480158312978 -8.63151335262933, -64.82528770817403 -8.968745612290256, -64.7047873235513 -9.153866561954715 C-64.52001533011385 -9.401444200086004, -64.3352433366764 -9.649021838217292, -64.09133496948849 -9.975836829739734 C-63.94274698501046 -10.150376731203455, -63.79415900053244 -10.324916632667174, -63.426479203205055 -10.756814244181063 C-63.14297191852034 -11.049558791998985, -62.85946463383563 -11.342303339816905, -62.71295205965579 -11.493589601563633 C-62.42588149091528 -11.754299496622735, -62.13881092217477 -12.015009391681838, -61.95368557492463 -12.18313533390614 C-61.6596332855314 -12.417634209637187, -61.36558099613818 -12.652133085368233, -61.15179973785946 -12.822617949887302 C-60.92172108404287 -12.983110858845357, -60.69164243022628 -13.143603767803414, -60.31058966936879 -13.409409678269444 C-60.02306006640212 -13.583711813299344, -59.73553046343544 -13.758013948329243, -59.433512082063004 -13.941099265974229 C-59.177774428460765 -14.074517436050733, -58.922036774858526 -14.207935606127238, -58.524171075880936 -14.415501886438705 C-58.158056068202775 -14.577570139921994, -57.79194106052462 -14.739638393405281, -57.586303328069995 -14.830668117536344 C-57.37969388318414 -14.90670230313111, -57.17308443829829 -14.982736488725877, -56.62376273837794 -15.184891952170695 C-56.30717638612071 -15.278853119724968, -55.990590033863484 -15.372814287279239, -55.64050459255213 -15.476717808624466 C-55.24783058128558 -15.566343089258663, -54.85515657001901 -15.65596836989286, -54.640569309221966 -15.704946511857043 C-54.28369735362056 -15.76264280205533, -53.926825398019155 -15.820339092253615, -53.6280658369521 -15.868640221171937 C-53.275994822094255 -15.902604088547928, -52.923923807236406 -15.93656795592392, -52.607154769691405 -15.967126284005381 C-52.217074444015665 -15.97963540080451, -51.82699411833993 -15.992144517603636, -51.58203125000001 -16 C-51.58203125000001 -16, -51.58203125000001 -16, -51.58203125 -16" stroke="none" stroke-width="0" fill="#eee" style=""/><path d="M-51.58203125 -16 C-24.433213244161134 -16, 2.7156047616777315 -16, 51.58203125 -16 M-51.58203125 -16 C-28.103012367621556 -16, -4.623993485243112 -16, 51.58203125 -16 M51.58203125 -16 C51.58203125 -16, 51.58203125 -16, 51.58203125 -16 M51.58203125 -16 C51.58203125 -16, 51.58203125 -16, 51.58203125 -16 M51.58203125 -16 C51.98564441167029 -15.987056911490594, 52.389257573340586 -15.974113822981188, 52.607154769691405 -15.967126284005381 M51.58203125 -16 C51.94725862772121 -15.988287868868445, 52.312486005442416 -15.97657573773689, 52.607154769691405 -15.967126284005381 M52.607154769691405 -15.967126284005381 C52.95527521474482 -15.933543523347169, 53.30339565979824 -15.899960762688954, 53.628065836952096 -15.868640221171939 M52.607154769691405 -15.967126284005381 C52.95236316490127 -15.933824445293324, 53.29757156011114 -15.900522606581264, 53.628065836952096 -15.868640221171939 M53.628065836952096 -15.868640221171939 C53.946453292200985 -15.81716580653889, 54.26484074744988 -15.765691391905841, 54.64056930922195 -15.704946511857047 M53.628065836952096 -15.868640221171939 C53.940324491442155 -15.81815666351602, 54.252583145932206 -15.7676731058601, 54.64056930922195 -15.704946511857047 M54.64056930922195 -15.704946511857047 C54.980969196205116 -15.627252458969995, 55.32136908318828 -15.549558406082943, 55.64050459255211 -15.476717808624471 M54.64056930922195 -15.704946511857047 C54.84087061535872 -15.659229045819506, 55.04117192149548 -15.613511579781965, 55.64050459255211 -15.476717808624471 M55.64050459255211 -15.476717808624471 C55.9148481325768 -15.395294086003773, 56.18919167260149 -15.313870363383074, 56.623762738377934 -15.184891952170698 M55.64050459255211 -15.476717808624471 C55.86404296637616 -15.410372792650362, 56.08758134020022 -15.344027776676253, 56.623762738377934 -15.184891952170698 M56.623762738377934 -15.184891952170698 C56.887604086554894 -15.087795897118891, 57.15144543473185 -14.990699842067084, 57.58630332806999 -14.830668117536348 M56.623762738377934 -15.184891952170698 C56.94475181379561 -15.066765005226506, 57.26574088921329 -14.948638058282313, 57.58630332806999 -14.830668117536348 M57.58630332806999 -14.830668117536348 C57.808906356553926 -14.732128360110734, 58.031509385037864 -14.63358860268512, 58.52417107588093 -14.415501886438706 M57.58630332806999 -14.830668117536348 C57.79281300834036 -14.739252407972666, 57.99932268861074 -14.647836698408982, 58.52417107588093 -14.415501886438706 M58.52417107588093 -14.415501886438706 C58.74238994849244 -14.30165724037314, 58.96060882110395 -14.187812594307573, 59.433512082063004 -13.941099265974232 M58.52417107588093 -14.415501886438706 C58.84812643928111 -14.246494580856146, 59.17208180268129 -14.077487275273585, 59.433512082063004 -13.941099265974232 M59.433512082063004 -13.941099265974232 C59.77735583032155 -13.732659165129752, 60.12119957858008 -13.52421906428527, 60.31058966936878 -13.409409678269451 M59.433512082063004 -13.941099265974232 C59.753550347418475 -13.747090188762138, 60.073588612773946 -13.553081111550044, 60.31058966936878 -13.409409678269451 M60.31058966936878 -13.409409678269451 C60.4849771542332 -13.28776451794058, 60.65936463909762 -13.166119357611711, 61.151799737859456 -12.822617949887306 M60.31058966936878 -13.409409678269451 C60.59836409043915 -13.208670699684669, 60.88613851150952 -13.007931721099885, 61.151799737859456 -12.822617949887306 M61.151799737859456 -12.822617949887306 C61.385694538327286 -12.636093070716251, 61.619589338795116 -12.449568191545197, 61.95368557492461 -12.183135333906153 M61.151799737859456 -12.822617949887306 C61.470578020815104 -12.56840075227655, 61.78935630377075 -12.314183554665794, 61.95368557492461 -12.183135333906153 M61.95368557492461 -12.183135333906153 C62.22920699201306 -11.932914072803648, 62.5047284091015 -11.682692811701145, 62.712952059655784 -11.493589601563642 M61.95368557492461 -12.183135333906153 C62.20883085749546 -11.951419139049555, 62.46397614006631 -11.71970294419296, 62.712952059655784 -11.493589601563642 M62.712952059655784 -11.493589601563642 C62.965604545433564 -11.23270516684323, 63.218257031211344 -10.97182073212282, 63.42647920320505 -10.756814244181072 M62.712952059655784 -11.493589601563642 C62.92089091150149 -11.278875664935722, 63.128829763347184 -11.064161728307804, 63.42647920320505 -10.756814244181072 M63.42647920320505 -10.756814244181072 C63.66902032420731 -10.47191164247106, 63.91156144520958 -10.187009040761048, 64.09133496948847 -9.975836829739738 M63.42647920320505 -10.756814244181072 C63.67959566252179 -10.459489248333078, 63.93271212183853 -10.162164252485084, 64.09133496948847 -9.975836829739738 M64.09133496948847 -9.975836829739738 C64.26110347175998 -9.74836250292465, 64.43087197403148 -9.520888176109564, 64.70478732355129 -9.153866561954718 M64.09133496948847 -9.975836829739738 C64.25911968469275 -9.751020596868013, 64.42690439989703 -9.52620436399629, 64.70478732355129 -9.153866561954718 M64.70478732355129 -9.153866561954718 C64.89721192116028 -8.858250706787926, 65.08963651876925 -8.562634851621132, 65.26431545808553 -8.294281092968403 M64.70478732355129 -9.153866561954718 C64.8927822989823 -8.8650557959734, 65.08077727441331 -8.576245029992084, 65.26431545808553 -8.294281092968403 M65.26431545808553 -8.294281092968403 C65.39064390815027 -8.069972137735775, 65.516972358215 -7.845663182503146, 65.767620151968 -7.400612643853364 M65.26431545808553 -8.294281092968403 C65.45560149090767 -7.9546333718814966, 65.6468875237298 -7.614985650794591, 65.767620151968 -7.400612643853364 M65.767620151968 -7.400612643853364 C65.87545610786432 -7.176688974114833, 65.98329206376064 -6.9527653043763005, 66.212633218253 -6.476533489958305 M65.767620151968 -7.400612643853364 C65.89234804023324 -7.141612515121308, 66.01707592849849 -6.882612386389252, 66.212633218253 -6.476533489958305 M66.212633218253 -6.476533489958305 C66.3220730082958 -6.2062150926781765, 66.4315127983386 -5.935896695398048, 66.59752600279616 -5.52584087074093 M66.212633218253 -6.476533489958305 C66.3139491729042 -6.226281123159125, 66.41526512755539 -5.976028756359944, 66.59752600279616 -5.52584087074093 M66.59752600279616 -5.52584087074093 C66.68647696366797 -5.257934749005994, 66.77542792453978 -4.990028627271059, 66.92071689858656 -4.552441386096524 M66.59752600279616 -5.52584087074093 C66.6740782185398 -5.295277793860269, 66.75063043428345 -5.064714716979608, 66.92071689858656 -4.552441386096524 M66.92071689858656 -4.552441386096524 C66.9997063197972 -4.2512204887886655, 67.07869574100783 -3.949999591480808, 67.18087784490918 -3.560334943301032 M66.92071689858656 -4.552441386096524 C66.9764892196761 -4.33975735390526, 67.03226154076563 -4.127073321713997, 67.18087784490918 -3.560334943301032 M67.18087784490918 -3.560334943301032 C67.25614142529585 -3.1738723649787794, 67.33140500568254 -2.7874097866565273, 67.3769397846312 -2.5535983205340735 M67.18087784490918 -3.560334943301032 C67.24324716517596 -3.2400816654916196, 67.30561648544274 -2.9198283876822066, 67.3769397846312 -2.5535983205340735 M67.3769397846312 -2.5535983205340735 C67.4284062948011 -2.1544342308682465, 67.47987280497101 -1.7552701412024192, 67.50809705718717 -1.536368414522911 M67.3769397846312 -2.5535983205340735 C67.4161945767665 -2.249145904468244, 67.45544936890178 -1.9446934884024145, 67.50809705718717 -1.536368414522911 M67.50809705718717 -1.536368414522911 C67.52714013824176 -1.2397570557993594, 67.54618321929634 -0.9431456970758079, 67.573810709211 -0.5128252411464826 M67.50809705718717 -1.536368414522911 C67.53280919624535 -1.1514569014119893, 67.55752133530355 -0.7665453883010676, 67.573810709211 -0.5128252411464826 M67.573810709211 -0.5128252411464826 C67.573810709211 -0.18199790934041027, 67.573810709211 0.1488294224656621, 67.573810709211 0.5128252411464788 M67.573810709211 -0.5128252411464826 C67.573810709211 -0.28303054344099243, 67.573810709211 -0.05323584573550216, 67.573810709211 0.5128252411464788 M67.573810709211 0.5128252411464788 C67.55139211557484 0.8620129329928182, 67.52897352193868 1.2112006248391576, 67.50809705718717 1.5363684145229002 M67.573810709211 0.5128252411464788 C67.55776654948875 0.7627259794332316, 67.54172238976649 1.0126267177199846, 67.50809705718717 1.5363684145229002 M67.50809705718717 1.5363684145229002 C67.47512454102669 1.7920967387038487, 67.4421520248662 2.0478250628847974, 67.3769397846312 2.5535983205340624 M67.50809705718717 1.5363684145229002 C67.46364711679796 1.8811133745481448, 67.41919717640873 2.2258583345733896, 67.3769397846312 2.5535983205340624 M67.3769397846312 2.5535983205340624 C67.31791262474859 2.856690311136668, 67.25888546486595 3.159782301739274, 67.18087784490918 3.5603349433010285 M67.3769397846312 2.5535983205340624 C67.32253802035852 2.8329398822573673, 67.26813625608582 3.112281443980672, 67.18087784490918 3.5603349433010285 M67.18087784490918 3.5603349433010285 C67.10502716793579 3.849586448491899, 67.02917649096241 4.138837953682769, 66.92071689858658 4.552441386096513 M67.18087784490918 3.5603349433010285 C67.1278184448316 3.7626734318862898, 67.07475904475402 3.965011920471551, 66.92071689858658 4.552441386096513 M66.92071689858658 4.552441386096513 C66.81082280509233 4.883424886455213, 66.70092871159807 5.214408386813913, 66.59752600279617 5.525840870740919 M66.92071689858658 4.552441386096513 C66.81951348713629 4.857249936810924, 66.718310075686 5.162058487525336, 66.59752600279617 5.525840870740919 M66.59752600279617 5.525840870740919 C66.45567553336485 5.876214272728522, 66.31382506393355 6.226587674716125, 66.212633218253 6.4765334899583005 M66.59752600279617 5.525840870740919 C66.51454917672771 5.730795235377828, 66.43157235065924 5.935749600014738, 66.212633218253 6.4765334899583005 M66.212633218253 6.4765334899583005 C66.03674697621672 6.841765034909343, 65.86086073418043 7.206996579860384, 65.767620151968 7.400612643853361 M66.212633218253 6.4765334899583005 C66.1024926384637 6.7052427605216804, 65.99235205867438 6.933952031085061, 65.767620151968 7.400612643853361 M65.767620151968 7.400612643853361 C65.57555988505703 7.741635095964696, 65.38349961814606 8.082657548076032, 65.26431545808553 8.294281092968399 M65.767620151968 7.400612643853361 C65.62160199944029 7.659882659607605, 65.47558384691256 7.919152675361849, 65.26431545808553 8.294281092968399 M65.26431545808553 8.294281092968399 C65.05645624616463 8.613608660492583, 64.84859703424371 8.932936228016768, 64.7047873235513 9.15386656195471 M65.26431545808553 8.294281092968399 C65.1392127810238 8.486472399707717, 65.01411010396208 8.678663706447034, 64.7047873235513 9.15386656195471 M64.7047873235513 9.15386656195471 C64.53192014030776 9.385492838976687, 64.35905295706422 9.617119115998664, 64.09133496948849 9.975836829739734 M64.7047873235513 9.15386656195471 C64.45969207425043 9.482271867381325, 64.21459682494955 9.810677172807939, 64.09133496948849 9.975836829739734 M64.09133496948849 9.975836829739734 C63.950520797971826 10.14124516815655, 63.80970662645516 10.306653506573364, 63.426479203205055 10.756814244181063 M64.09133496948849 9.975836829739734 C63.956180382477406 10.134597098156814, 63.82102579546632 10.293357366573893, 63.426479203205055 10.756814244181063 M63.426479203205055 10.756814244181063 C63.27512600639919 10.91309884621167, 63.12377280959333 11.069383448242277, 62.712952059655784 11.493589601563638 M63.426479203205055 10.756814244181063 C63.20659823436291 10.983859397073852, 62.98671726552076 11.21090454996664, 62.712952059655784 11.493589601563638 M62.712952059655784 11.493589601563638 C62.426954850221485 11.753324700100373, 62.140957640787185 12.013059798637107, 61.95368557492463 12.183135333906142 M62.712952059655784 11.493589601563638 C62.47378557258874 11.710794277119446, 62.23461908552169 11.927998952675255, 61.95368557492463 12.183135333906142 M61.95368557492463 12.183135333906142 C61.760862320920694 12.33690674773199, 61.56803906691677 12.490678161557838, 61.15179973785946 12.822617949887304 M61.95368557492463 12.183135333906142 C61.7427255008523 12.351370379095485, 61.53176542677997 12.519605424284828, 61.15179973785946 12.822617949887304 M61.15179973785946 12.822617949887304 C60.856443620722175 13.028645591442034, 60.561087503584886 13.234673232996766, 60.31058966936879 13.409409678269446 M61.15179973785946 12.822617949887304 C60.912524019501085 12.9895263329352, 60.67324830114271 13.1564347159831, 60.31058966936879 13.409409678269446 M60.31058966936879 13.409409678269446 C60.11084778850039 13.530494380265456, 59.91110590763198 13.651579082261465, 59.433512082063004 13.94109926597423 M60.31058966936879 13.409409678269446 C60.070304261776045 13.55507210442596, 59.830018854183294 13.700734530582476, 59.433512082063004 13.94109926597423 M59.433512082063004 13.94109926597423 C59.2281203102073 14.048252021791642, 59.0227285383516 14.155404777609052, 58.52417107588093 14.415501886438705 M59.433512082063004 13.94109926597423 C59.101507978234956 14.114305594282547, 58.7695038744069 14.287511922590863, 58.52417107588093 14.415501886438705 M58.52417107588093 14.415501886438705 C58.27890503823848 14.524073885744512, 58.033639000596025 14.63264588505032, 57.586303328069995 14.830668117536346 M58.52417107588093 14.415501886438705 C58.15234574396841 14.580097931069796, 57.78052041205589 14.744693975700887, 57.586303328069995 14.830668117536346 M57.586303328069995 14.830668117536346 C57.30559100945404 14.933972845663245, 57.024878690838094 15.037277573790142, 56.62376273837794 15.184891952170695 M57.586303328069995 14.830668117536346 C57.22067790093319 14.965221654527088, 56.855052473796384 15.099775191517832, 56.62376273837794 15.184891952170695 M56.62376273837794 15.184891952170695 C56.28451071212367 15.28558017279274, 55.94525868586939 15.386268393414785, 55.64050459255213 15.476717808624468 M56.62376273837794 15.184891952170695 C56.24695003180869 15.296727985550191, 55.87013732523943 15.408564018929686, 55.64050459255213 15.476717808624468 M55.64050459255213 15.476717808624468 C55.28302154737746 15.558310980890706, 54.925538502202784 15.639904153156944, 54.64056930922196 15.704946511857045 M55.64050459255213 15.476717808624468 C55.38601877826423 15.534802535060544, 55.131532963976326 15.592887261496623, 54.64056930922196 15.704946511857045 M54.64056930922196 15.704946511857045 C54.25354674118661 15.767517319252159, 53.86652417315127 15.830088126647272, 53.6280658369521 15.868640221171937 M54.64056930922196 15.704946511857045 C54.31678182431376 15.757293961407555, 53.992994339405556 15.809641410958067, 53.6280658369521 15.868640221171937 M53.6280658369521 15.868640221171937 C53.4098115228116 15.889694952367854, 53.19155720867111 15.910749683563772, 52.607154769691405 15.967126284005381 M53.6280658369521 15.868640221171937 C53.35417089249501 15.895062537056848, 53.080275948037915 15.92148485294176, 52.607154769691405 15.967126284005381 M52.607154769691405 15.967126284005381 C52.317178869759275 15.976425246712356, 52.02720296982715 15.985724209419331, 51.58203125 16 M52.607154769691405 15.967126284005381 C52.332063020463714 15.975947940969506, 52.05697127123602 15.984769597933632, 51.58203125 16 M51.58203125 16 C51.58203125 16, 51.58203125 16, 51.58203125 16 M51.58203125 16 C51.58203125 16, 51.58203125 16, 51.58203125 16 M51.58203125 16 C18.338442315331406 16, -14.905146619337188 16, -51.58203125 16 M51.58203125 16 C19.026487932521967 16, -13.529055384956067 16, -51.58203125 16 M-51.58203125 16 C-51.90907308932425 15.989512404761195, -52.23611492864851 15.97902480952239, -52.6071547696914 15.967126284005381 M-51.58203125 16 C-51.878396783805854 15.990496134171362, -52.174762317611716 15.980992268342726, -52.6071547696914 15.967126284005381 M-52.6071547696914 15.967126284005381 C-52.859136454698245 15.942817913905085, -53.11111813970509 15.918509543804788, -53.628065836952096 15.868640221171937 M-52.6071547696914 15.967126284005381 C-52.913281944018784 15.93759456366981, -53.21940911834618 15.908062843334239, -53.628065836952096 15.868640221171937 M-53.628065836952096 15.868640221171937 C-53.88088103041959 15.82776702130322, -54.13369622388708 15.786893821434504, -54.64056930922196 15.704946511857045 M-53.628065836952096 15.868640221171937 C-53.83386644457861 15.83536797493843, -54.039667052205125 15.802095728704925, -54.64056930922196 15.704946511857045 M-54.64056930922196 15.704946511857045 C-54.98511155936407 15.62630699161041, -55.32965380950619 15.547667471363772, -55.64050459255211 15.476717808624471 M-54.64056930922196 15.704946511857045 C-54.88718497983897 15.648658094356362, -55.133800650455974 15.592369676855679, -55.64050459255211 15.476717808624471 M-55.64050459255211 15.476717808624471 C-55.90124503120369 15.399331415087175, -56.16198546985527 15.321945021549878, -56.62376273837792 15.184891952170702 M-55.64050459255211 15.476717808624471 C-55.89176204387534 15.402145915949013, -56.143019495198565 15.327574023273556, -56.62376273837792 15.184891952170702 M-56.62376273837792 15.184891952170702 C-56.99830550603764 15.047056751436536, -57.37284827369735 14.90922155070237, -57.58630332806999 14.830668117536348 M-56.62376273837792 15.184891952170702 C-56.9261008671731 15.073628725991052, -57.22843899596827 14.962365499811401, -57.58630332806999 14.830668117536348 M-57.58630332806999 14.830668117536348 C-57.7931174160775 14.739117655697369, -57.99993150408501 14.64756719385839, -58.52417107588093 14.415501886438708 M-57.58630332806999 14.830668117536348 C-57.93450511724709 14.67652951450673, -58.282706906424195 14.52239091147711, -58.52417107588093 14.415501886438708 M-58.52417107588093 14.415501886438708 C-58.777125297196875 14.28353583120309, -59.03007951851283 14.151569775967468, -59.433512082063 13.941099265974234 M-58.52417107588093 14.415501886438708 C-58.709890360386595 14.318612254670981, -58.89560964489226 14.221722622903254, -59.433512082063 13.941099265974234 M-59.433512082063 13.941099265974234 C-59.756486772775936 13.745310110454092, -60.07946146348887 13.549520954933952, -60.31058966936877 13.409409678269457 M-59.433512082063 13.941099265974234 C-59.65965759965434 13.804008524231786, -59.885803117245686 13.666917782489339, -60.31058966936877 13.409409678269457 M-60.31058966936877 13.409409678269457 C-60.51711254222736 13.265348262394381, -60.723635415085944 13.121286846519304, -61.151799737859456 12.822617949887308 M-60.31058966936877 13.409409678269457 C-60.47963079722711 13.291493905147963, -60.64867192508545 13.173578132026469, -61.151799737859456 12.822617949887308 M-61.151799737859456 12.822617949887308 C-61.33258266118621 12.678448379369856, -61.51336558451296 12.534278808852402, -61.95368557492461 12.183135333906154 M-61.151799737859456 12.822617949887308 C-61.31617862511947 12.691530161603346, -61.480557512379484 12.560442373319384, -61.95368557492461 12.183135333906154 M-61.95368557492461 12.183135333906154 C-62.16418323111172 11.99196693201981, -62.37468088729882 11.800798530133468, -62.71295205965578 11.493589601563649 M-61.95368557492461 12.183135333906154 C-62.200285836338566 11.959179501175374, -62.446886097752525 11.735223668444595, -62.71295205965578 11.493589601563649 M-62.71295205965578 11.493589601563649 C-62.983241520455536 11.214493542110468, -63.253530981255295 10.935397482657285, -63.42647920320505 10.756814244181069 M-62.71295205965578 11.493589601563649 C-62.91787665539735 11.281988131838265, -63.12280125113893 11.070386662112883, -63.42647920320505 10.756814244181069 M-63.42647920320505 10.756814244181069 C-63.66649464807098 10.47487844537584, -63.906510092936905 10.19294264657061, -64.09133496948847 9.97583682973974 M-63.42647920320505 10.756814244181069 C-63.67648734978542 10.463140449341221, -63.92649549636579 10.169466654501374, -64.09133496948847 9.97583682973974 M-64.09133496948847 9.97583682973974 C-64.2855032860427 9.71566897465461, -64.47967160259692 9.455501119569481, -64.70478732355129 9.15386656195472 M-64.09133496948847 9.97583682973974 C-64.30542598567644 9.688974372140676, -64.5195170018644 9.40211191454161, -64.70478732355129 9.15386656195472 M-64.70478732355129 9.15386656195472 C-64.82492147785668 8.96930824040431, -64.94505563216207 8.7847499188539, -65.26431545808553 8.29428109296841 M-64.70478732355129 9.15386656195472 C-64.86594481920595 8.90628537178225, -65.02710231486061 8.65870418160978, -65.26431545808553 8.29428109296841 M-65.26431545808553 8.29428109296841 C-65.45286750548418 7.9594878398469575, -65.64141955288281 7.624694586725505, -65.767620151968 7.400612643853366 M-65.26431545808553 8.29428109296841 C-65.40415278422111 8.045985760349948, -65.5439901103567 7.797690427731487, -65.767620151968 7.400612643853366 M-65.767620151968 7.400612643853366 C-65.89390329121741 7.1383830031756315, -66.02018643046684 6.876153362497897, -66.212633218253 6.476533489958307 M-65.767620151968 7.400612643853366 C-65.9067818427051 7.111640415454603, -66.0459435334422 6.82266818705584, -66.212633218253 6.476533489958307 M-66.212633218253 6.476533489958307 C-66.3366511550554 6.170206788332658, -66.46066909185782 5.86388008670701, -66.59752600279616 5.525840870740931 M-66.212633218253 6.476533489958307 C-66.30444810755122 6.249748938271574, -66.39626299684944 6.02296438658484, -66.59752600279616 5.525840870740931 M-66.59752600279616 5.525840870740931 C-66.71139874339026 5.182874319228811, -66.82527148398437 4.83990776771669, -66.92071689858656 4.552441386096519 M-66.59752600279616 5.525840870740931 C-66.67064316335001 5.305623632790235, -66.74376032390384 5.085406394839539, -66.92071689858656 4.552441386096519 M-66.92071689858656 4.552441386096519 C-67.02167894966657 4.167429328098767, -67.12264100074655 3.782417270101014, -67.18087784490918 3.5603349433010343 M-66.92071689858656 4.552441386096519 C-67.01031753619225 4.210755321744085, -67.09991817379792 3.8690692573916516, -67.18087784490918 3.5603349433010343 M-67.18087784490918 3.5603349433010343 C-67.25274134475377 3.1913310599551346, -67.32460484459835 2.822327176609235, -67.3769397846312 2.5535983205340753 M-67.18087784490918 3.5603349433010343 C-67.24011401943136 3.2561697066995405, -67.29935019395354 2.9520044700980463, -67.3769397846312 2.5535983205340753 M-67.3769397846312 2.5535983205340753 C-67.42372659068026 2.1907290919174125, -67.47051339672933 1.8278598633007501, -67.50809705718717 1.5363684145229202 M-67.3769397846312 2.5535983205340753 C-67.42936808202987 2.1469747990483365, -67.48179637942854 1.7403512775625978, -67.50809705718717 1.5363684145229202 M-67.50809705718717 1.5363684145229202 C-67.52426126254461 1.284597868568924, -67.54042546790207 1.0328273226149283, -67.573810709211 0.5128252411464846 M-67.50809705718717 1.5363684145229202 C-67.52932074161725 1.2057923980745726, -67.55054442604734 0.8752163816262248, -67.573810709211 0.5128252411464846 M-67.573810709211 0.5128252411464846 C-67.573810709211 0.20467222020559617, -67.573810709211 -0.10348080073529231, -67.573810709211 -0.5128252411464769 M-67.573810709211 0.5128252411464846 C-67.573810709211 0.2774405469741285, -67.573810709211 0.042055852801772375, -67.573810709211 -0.5128252411464769 M-67.573810709211 -0.5128252411464769 C-67.55764205436309 -0.7646650915059832, -67.54147339951518 -1.0165049418654895, -67.50809705718717 -1.5363684145228982 M-67.573810709211 -0.5128252411464769 C-67.55065166349249 -0.873546071857504, -67.52749261777399 -1.234266902568531, -67.50809705718717 -1.5363684145228982 M-67.50809705718717 -1.5363684145228982 C-67.46246730089419 -1.8902637937166842, -67.41683754460122 -2.24415917291047, -67.3769397846312 -2.5535983205340678 M-67.50809705718717 -1.5363684145228982 C-67.46883850883441 -1.8408499630697097, -67.42957996048165 -2.1453315116165212, -67.3769397846312 -2.5535983205340678 M-67.3769397846312 -2.5535983205340678 C-67.31135518520651 -2.890361377269911, -67.2457705857818 -3.227124434005754, -67.18087784490918 -3.5603349433010267 M-67.3769397846312 -2.5535983205340678 C-67.31152164673696 -2.8895066324926635, -67.24610350884272 -3.2254149444512588, -67.18087784490918 -3.5603349433010267 M-67.18087784490918 -3.5603349433010267 C-67.08706399302785 -3.918087819705097, -66.99325014114655 -4.275840696109167, -66.92071689858658 -4.552441386096511 M-67.18087784490918 -3.5603349433010267 C-67.09517348263915 -3.887162821142188, -67.00946912036913 -4.213990698983349, -66.92071689858658 -4.552441386096511 M-66.92071689858658 -4.552441386096511 C-66.8234973236696 -4.845251255910721, -66.72627774875264 -5.138061125724932, -66.59752600279617 -5.525840870740911 M-66.92071689858658 -4.552441386096511 C-66.79448111284209 -4.932643459817812, -66.66824532709762 -5.312845533539113, -66.59752600279617 -5.525840870740911 M-66.59752600279617 -5.525840870740911 C-66.46599833728618 -5.850716747465006, -66.33447067177619 -6.1755926241891, -66.212633218253 -6.476533489958299 M-66.59752600279617 -5.525840870740911 C-66.50596618088314 -5.751995401054849, -66.4144063589701 -5.978149931368787, -66.212633218253 -6.476533489958299 M-66.212633218253 -6.476533489958299 C-66.06084497652043 -6.7917250216640905, -65.90905673478785 -7.1069165533698815, -65.767620151968 -7.400612643853359 M-66.212633218253 -6.476533489958299 C-66.08677847944405 -6.737873547955121, -65.96092374063508 -6.999213605951943, -65.767620151968 -7.400612643853359 M-65.767620151968 -7.400612643853359 C-65.60042987172558 -7.697475916275453, -65.43323959148317 -7.994339188697546, -65.26431545808553 -8.294281092968404 M-65.767620151968 -7.400612643853359 C-65.57850676440238 -7.736402613283159, -65.38939337683674 -8.07219258271296, -65.26431545808553 -8.294281092968404 M-65.26431545808553 -8.294281092968404 C-65.07994761871346 -8.577519603940784, -64.8955797793414 -8.860758114913166, -64.7047873235513 -9.153866561954715 M-65.26431545808553 -8.294281092968404 C-65.09820932323753 -8.549464721837541, -64.93210318838953 -8.804648350706678, -64.7047873235513 -9.153866561954715 M-64.7047873235513 -9.153866561954715 C-64.53205676298748 -9.385309777032449, -64.35932620242366 -9.616752992110182, -64.09133496948849 -9.975836829739734 M-64.7047873235513 -9.153866561954715 C-64.54835162992966 -9.363476139822852, -64.39191593630801 -9.57308571769099, -64.09133496948849 -9.975836829739734 M-64.09133496948849 -9.975836829739734 C-63.935014015207386 -10.159460317552591, -63.77869306092629 -10.34308380536545, -63.426479203205055 -10.756814244181063 M-64.09133496948849 -9.975836829739734 C-63.906764471693144 -10.19264383880898, -63.72219397389781 -10.409450847878226, -63.426479203205055 -10.756814244181063 M-63.426479203205055 -10.756814244181063 C-63.23070502647131 -10.958967155017485, -63.03493084973757 -11.161120065853906, -62.71295205965579 -11.493589601563633 M-63.426479203205055 -10.756814244181063 C-63.1949488894038 -10.995888302173142, -62.963418575602546 -11.23496236016522, -62.71295205965579 -11.493589601563633 M-62.71295205965579 -11.493589601563633 C-62.42313856026094 -11.756790553669044, -62.13332506086608 -12.019991505774454, -61.95368557492463 -12.18313533390614 M-62.71295205965579 -11.493589601563633 C-62.45864506602427 -11.724544484585447, -62.204338072392744 -11.95549936760726, -61.95368557492463 -12.18313533390614 M-61.95368557492463 -12.18313533390614 C-61.78639209847426 -12.316547429508935, -61.61909862202389 -12.449959525111728, -61.15179973785946 -12.822617949887302 M-61.95368557492463 -12.18313533390614 C-61.70661519358925 -12.38016738820213, -61.459544812253874 -12.577199442498122, -61.15179973785946 -12.822617949887302 M-61.15179973785946 -12.822617949887302 C-60.934051887025426 -12.974509424476587, -60.71630403619139 -13.126400899065871, -60.31058966936879 -13.409409678269444 M-61.15179973785946 -12.822617949887302 C-60.88416292609038 -13.009309803966561, -60.6165261143213 -13.196001658045821, -60.31058966936879 -13.409409678269444 M-60.31058966936879 -13.409409678269444 C-60.0992690781033 -13.537513462552221, -59.887948486837814 -13.665617246834998, -59.433512082063004 -13.941099265974229 M-60.31058966936879 -13.409409678269444 C-60.12830850418722 -13.51990959180554, -59.94602733900565 -13.630409505341634, -59.433512082063004 -13.941099265974229 M-59.433512082063004 -13.941099265974229 C-59.17387796452059 -14.076550218792518, -58.91424384697818 -14.212001171610805, -58.524171075880936 -14.415501886438705 M-59.433512082063004 -13.941099265974229 C-59.14978933411878 -14.08911724184364, -58.86606658617455 -14.237135217713051, -58.524171075880936 -14.415501886438705 M-58.524171075880936 -14.415501886438705 C-58.173074859560835 -14.570921766504398, -57.82197864324073 -14.726341646570091, -57.586303328069995 -14.830668117536344 M-58.524171075880936 -14.415501886438705 C-58.2110088080642 -14.554129532772558, -57.89784654024747 -14.692757179106412, -57.586303328069995 -14.830668117536344 M-57.586303328069995 -14.830668117536344 C-57.31524067874102 -14.93042167816507, -57.044178029412045 -15.030175238793795, -56.62376273837794 -15.184891952170695 M-57.586303328069995 -14.830668117536344 C-57.29266226850837 -14.93873074184322, -56.99902120894676 -15.046793366150094, -56.62376273837794 -15.184891952170695 M-56.62376273837794 -15.184891952170695 C-56.23168782277909 -15.301257729077205, -55.83961290718023 -15.417623505983716, -55.64050459255213 -15.476717808624466 M-56.62376273837794 -15.184891952170695 C-56.24382735166331 -15.297654780626054, -55.863891964948685 -15.410417609081414, -55.64050459255213 -15.476717808624466 M-55.64050459255213 -15.476717808624466 C-55.41351529623783 -15.528526634264619, -55.186525999923525 -15.58033545990477, -54.640569309221966 -15.704946511857043 M-55.64050459255213 -15.476717808624466 C-55.43829091832691 -15.522871760198829, -55.23607724410169 -15.569025711773191, -54.640569309221966 -15.704946511857043 M-54.640569309221966 -15.704946511857043 C-54.32877192975077 -15.755355494145155, -54.016974550279585 -15.805764476433266, -53.6280658369521 -15.868640221171937 M-54.640569309221966 -15.704946511857043 C-54.28673602652136 -15.762151532985989, -53.932902743820755 -15.819356554114933, -53.6280658369521 -15.868640221171937 M-53.6280658369521 -15.868640221171937 C-53.327861876974154 -15.897600536142924, -53.027657916996205 -15.926560851113912, -52.607154769691405 -15.967126284005381 M-53.6280658369521 -15.868640221171937 C-53.281643108819715 -15.902059205120583, -52.93522038068732 -15.935478189069228, -52.607154769691405 -15.967126284005381 M-52.607154769691405 -15.967126284005381 C-52.24276946410611 -15.97881141152253, -51.87838415852082 -15.99049653903968, -51.58203125000001 -16 M-52.607154769691405 -15.967126284005381 C-52.29937271746198 -15.976996255358957, -51.99159066523255 -15.986866226712534, -51.58203125000001 -16 M-51.58203125000001 -16 C-51.58203125000001 -16, -51.58203125 -16, -51.58203125 -16 M-51.58203125000001 -16 C-51.58203125000001 -16, -51.58203125 -16, -51.58203125 -16" stroke="#999" stroke-width="1.3" fill="none" stroke-dasharray="0 0" style=""/></g><g class="label" style="" transform="translate(0, -8.5)"><rect/><g><rect class="background" style="stroke: none"/><text y="-10.1" style=""><tspan class="text-outer-tspan row" x="0" y="-0.1em" dy="1.1em"><tspan font-style="normal" class="text-inner-tspan" font-weight="normal">ISBN</tspan><tspan font-style="normal" class="text-inner-tspan" font-weight="normal"> ingresado</tspan></tspan></text></g></g></g><g class="node default" id="my-svg-flowchart-B-1" data-look="classic" transform="translate(201.9140625, 113.5)"><rect class="basic label-container" style="" x="-101.0234375" y="-23.5" width="202.046875" height="47"/><g class="label" style="" transform="translate(0, -8.5)"><rect/><g><rect class="background" style="stroke: none"/><text y="-10.1" style=""><tspan class="text-outer-tspan row" x="0" y="-0.1em" dy="1.1em"><tspan font-style="normal" class="text-inner-tspan" font-weight="normal">Normalizar</tspan><tspan font-style="normal" class="text-inner-tspan" font-weight="normal"> y</tspan><tspan font-style="normal" class="text-inner-tspan" font-weight="normal"> validar</tspan></tspan></text></g></g></g><g class="node default" id="my-svg-flowchart-C-3" data-look="classic" transform="translate(201.9140625, 270.9406204223633)"><polygon points="83.94062423706055,0 167.8812484741211,-83.94062423706055 83.94062423706055,-167.8812484741211 0,-83.94062423706055" class="label-container" transform="translate(-83.44062423706055, 83.94062423706055)"/><g class="label" style="" transform="translate(0, -17.299999237060547)"><rect/><g><rect class="background" style="stroke: none"/><text y="-10.1" style=""><tspan class="text-outer-tspan row" x="0" y="-0.1em" dy="1.1em"><tspan font-style="normal" class="text-inner-tspan" font-weight="normal">Dígito</tspan><tspan font-style="normal" class="text-inner-tspan" font-weight="normal"> de</tspan></tspan><tspan class="text-outer-tspan row" x="0" y="1em" dy="1.1em"><tspan font-style="normal" class="text-inner-tspan" font-weight="normal">control</tspan><tspan font-style="normal" class="text-inner-tspan" font-weight="normal"> válido?</tspan></tspan></text></g></g></g><g class="node default" id="my-svg-flowchart-D-5" data-look="classic" transform="translate(278.21875, 994.8031005859375)"><rect class="basic label-container" style="fill:#ffebee !important;stroke:#c62828 !important" x="-125.1640625" y="-23.5" width="250.328125" height="47"/><g class="label" style="" transform="translate(0, -8.5)"><rect/><g><rect class="background" style="stroke: none"/><text y="-10.1" style=""><tspan class="text-outer-tspan row" x="0" y="-0.1em" dy="1.1em"><tspan font-style="normal" class="text-inner-tspan" font-weight="normal">Mostrar</tspan><tspan font-style="normal" class="text-inner-tspan" font-weight="normal"> error</tspan><tspan font-style="normal" class="text-inner-tspan" font-weight="normal"> de</tspan><tspan font-style="normal" class="text-inner-tspan" font-weight="normal"> validación</tspan></tspan></text></g></g></g><g class="node default" id="my-svg-flowchart-E-7" data-look="classic" transform="translate(321.931640625, 1193.5437202453613)"><rect class="basic label-container" style="fill:#fff3e0 !important;stroke:#e65100 !important" x="-102.03125" y="-32.29999923706055" width="204.0625" height="64.5999984741211"/><g class="label" style="" transform="translate(0, -17.299999237060547)"><rect/><g><rect class="background" style="stroke: none"/><text y="-10.1" style=""><tspan class="text-outer-tspan row" x="0" y="-0.1em" dy="1.1em"><tspan font-style="normal" class="text-inner-tspan" font-weight="normal">Ingreso</tspan><tspan font-style="normal" class="text-inner-tspan" font-weight="normal"> manual</tspan></tspan><tspan class="text-outer-tspan row" x="0" y="1em" dy="1.1em"><tspan font-style="normal" class="text-inner-tspan" font-weight="normal">(siempre</tspan><tspan font-style="normal" class="text-inner-tspan" font-weight="normal"> disponible)</tspan></tspan></text></g></g></g><g class="node default" id="my-svg-flowchart-F-9" data-look="classic" transform="translate(125.609375, 449.38124084472656)"><rect class="basic label-container" style="" x="-112.71875" y="-23.5" width="225.4375" height="47"/><g class="label" style="" transform="translate(0, -8.5)"><rect/><g><rect class="background" style="stroke: none"/><text y="-10.1" style=""><tspan class="text-outer-tspan row" x="0" y="-0.1em" dy="1.1em"><tspan font-style="normal" class="text-inner-tspan" font-weight="normal">Consultar</tspan><tspan font-style="normal" class="text-inner-tspan" font-weight="normal"> Open</tspan><tspan font-style="normal" class="text-inner-tspan" font-weight="normal"> Library</tspan></tspan></text></g></g></g><g class="node default" id="my-svg-flowchart-G-11" data-look="classic" transform="translate(125.609375, 618.3218612670898)"><polygon points="95.44062423706055,0 190.8812484741211,-95.44062423706055 95.44062423706055,-190.8812484741211 0,-95.44062423706055" class="label-container" transform="translate(-94.94062423706055, 95.44062423706055)"/><g class="label" style="" transform="translate(0, -17.299999237060547)"><rect/><g><rect class="background" style="stroke: none"/><text y="-10.1" style=""><tspan class="text-outer-tspan row" x="0" y="-0.1em" dy="1.1em"><tspan font-style="normal" class="text-inner-tspan" font-weight="normal">¿Metadatos</tspan><tspan font-style="normal" class="text-inner-tspan" font-weight="normal"> útiles</tspan></tspan><tspan class="text-outer-tspan row" x="0" y="1em" dy="1.1em"><tspan font-style="normal" class="text-inner-tspan" font-weight="normal">encontrados?</tspan></tspan></text></g></g></g><g class="node default" id="my-svg-flowchart-H-13" data-look="classic" transform="translate(125.609375, 817.0624809265137)"><rect class="basic label-container" style="fill:#e8f5e9 !important;stroke:#2e7d32 !important" x="-117.609375" y="-32.29999923706055" width="235.21875" height="64.5999984741211"/><g class="label" style="" transform="translate(0, -17.299999237060547)"><rect/><g><rect class="background" style="stroke: none"/><text y="-10.1" style=""><tspan class="text-outer-tspan row" x="0" y="-0.1em" dy="1.1em"><tspan font-style="normal" class="text-inner-tspan" font-weight="normal">Devolver</tspan><tspan font-style="normal" class="text-inner-tspan" font-weight="normal"> metadatos</tspan></tspan><tspan class="text-outer-tspan row" x="0" y="1em" dy="1.1em"><tspan font-style="normal" class="text-inner-tspan" font-weight="normal">Proveedor:</tspan><tspan font-style="normal" class="text-inner-tspan" font-weight="normal"> Open</tspan><tspan font-style="normal" class="text-inner-tspan" font-weight="normal"> Library</tspan></tspan></text></g></g></g><g class="node default" id="my-svg-flowchart-I-15" data-look="classic" transform="translate(594.0582008361816, 817.0624809265137)"><rect class="basic label-container" style="" x="-116.2890625" y="-32.29999923706055" width="232.578125" height="64.5999984741211"/><g class="label" style="" transform="translate(0, -17.299999237060547)"><rect/><g><rect class="background" style="stroke: none"/><text y="-10.1" style=""><tspan class="text-outer-tspan row" x="0" y="-0.1em" dy="1.1em"><tspan font-style="normal" class="text-inner-tspan" font-weight="normal">Consultar</tspan><tspan font-style="normal" class="text-inner-tspan" font-weight="normal"> API</tspan><tspan font-style="normal" class="text-inner-tspan" font-weight="normal"> de</tspan></tspan><tspan class="text-outer-tspan row" x="0" y="1em" dy="1.1em"><tspan font-style="normal" class="text-inner-tspan" font-weight="normal">metadatos</tspan><tspan font-style="normal" class="text-inner-tspan" font-weight="normal"> de</tspan><tspan font-style="normal" class="text-inner-tspan" font-weight="normal"> Let</tspan><tspan font-style="normal" class="text-inner-tspan" font-weight="normal"> Books</tspan></tspan></text></g></g></g><g class="node default" id="my-svg-flowchart-J-17" data-look="classic" transform="translate(594.0582008361816, 994.8031005859375)"><polygon points="95.44062423706055,0 190.8812484741211,-95.44062423706055 95.44062423706055,-190.8812484741211 0,-95.44062423706055" class="label-container" transform="translate(-94.94062423706055, 95.44062423706055)"/><g class="label" style="" transform="translate(0, -17.299999237060547)"><rect/><g><rect class="background" style="stroke: none"/><text y="-10.1" style=""><tspan class="text-outer-tspan row" x="0" y="-0.1em" dy="1.1em"><tspan font-style="normal" class="text-inner-tspan" font-weight="normal">¿Metadatos</tspan><tspan font-style="normal" class="text-inner-tspan" font-weight="normal"> útiles</tspan></tspan><tspan class="text-outer-tspan row" x="0" y="1em" dy="1.1em"><tspan font-style="normal" class="text-inner-tspan" font-weight="normal">encontrados?</tspan></tspan></text></g></g></g><g class="node default" id="my-svg-flowchart-K-19" data-look="classic" transform="translate(642.6890602111816, 1193.5437202453613)"><rect class="basic label-container" style="fill:#e8f5e9 !important;stroke:#2e7d32 !important" x="-121.6171875" y="-32.29999923706055" width="243.234375" height="64.5999984741211"/><g class="label" style="" transform="translate(0, -17.299999237060547)"><rect/><g><rect class="background" style="stroke: none"/><text y="-10.1" style=""><tspan class="text-outer-tspan row" x="0" y="-0.1em" dy="1.1em"><tspan font-style="normal" class="text-inner-tspan" font-weight="normal">Devolver</tspan><tspan font-style="normal" class="text-inner-tspan" font-weight="normal"> metadatos</tspan></tspan><tspan class="text-outer-tspan row" x="0" y="1em" dy="1.1em"><tspan font-style="normal" class="text-inner-tspan" font-weight="normal">Proveedor:</tspan><tspan font-style="normal" class="text-inner-tspan" font-weight="normal"> Let</tspan><tspan font-style="normal" class="text-inner-tspan" font-weight="normal"> Books</tspan><tspan font-style="normal" class="text-inner-tspan" font-weight="normal"> API</tspan></tspan></text></g></g></g></g></g></g><defs><filter id="my-svg-drop-shadow" height="130%" width="130%"><feDropShadow dx="4" dy="4" stdDeviation="0" flood-opacity="0.06" flood-color="#000000"/></filter></defs><defs><filter id="my-svg-drop-shadow-small" height="150%" width="150%"><feDropShadow dx="2" dy="2" stdDeviation="0" flood-opacity="0.06" flood-color="#000000"/></filter></defs><linearGradient id="my-svg-gradient" gradientUnits="objectBoundingBox" x1="0%" y1="0%" x2="100%" y2="0%"><stop offset="0%" stop-color="hsl(0, 0%, 83.3333333333%)" stop-opacity="1"/><stop offset="100%" stop-color="hsl(0, 0%, 88.9215686275%)" stop-opacity="1"/></linearGradient><text text-anchor="middle" x="386.15313720703125" y="-25" class="flowchartTitleText">Cadena de búsqueda de metadatos ISBN</text></svg>