<svg id="my-svg" width="100%" xmlns="http://www.w3.org/2000/svg" xmlns:xlink="http://www.w3.org/1999/xlink" class="flowchart" style="max-width: 730.007px; background-color: transparent;" viewBox="0 -49 730.0074462890625 1282.8436279296875" role="graphics-document document" aria-roledescription="flowchart-v2"><style>#my-svg{font-family:"trebuchet ms",verdana,arial,sans-serif;font-size:16px;fill:#000000;}@keyframes edge-animation-frame{from{stroke-dashoffset:0;}}@keyframes dash{to{stroke-dashoffset:0;}}#my-svg .edge-animation-slow{stroke-dasharray:9,5!important;stroke-dashoffset:900;animation:dash 50s linear infinite;stroke-linecap:round;}#my-svg .edge-animation-fast{stroke-dasharray:9,5!important;stroke-dashoffset:900;animation:dash 20s linear infinite;stroke-linecap:round;}#my-svg .error-icon{fill:#552222;}#my-svg .error-text{fill:#552222;stroke:#552222;}#my-svg .edge-thickness-normal{stroke-width:1px;}#my-svg .edge-thickness-thick{stroke-width:3.5px;}#my-svg .edge-pattern-solid{stroke-dasharray:0;}#my-svg .edge-thickness-invisible{stroke-width:0;fill:none;}#my-svg .edge-pattern-dashed{stroke-dasharray:3;}#my-svg .edge-pattern-dotted{stroke-dasharray:2;}#my-svg .marker{fill:#666;stroke:#666;}#my-svg .marker.cross{stroke:#666;}#my-svg svg{font-family:"trebuchet ms",verdana,arial,sans-serif;font-size:16px;}#my-svg p{margin:0;}#my-svg .label{font-family:"trebuchet ms",verdana,arial,sans-serif;color:#000000;}#my-svg .cluster-label text{fill:#333;}#my-svg .cluster-label span{color:#333;}#my-svg .cluster-label span p{background-color:transparent;}#my-svg .label text,#my-svg span{fill:#000000;color:#000000;}#my-svg .node rect,#my-svg .node circle,#my-svg .node ellipse,#my-svg .node polygon,#my-svg .node path{fill:#eee;stroke:#999;stroke-width:1px;}#my-svg .rough-node .label text,#my-svg .node .label text,#my-svg .image-shape .label,#my-svg .icon-shape .label{text-anchor:middle;}#my-svg .node .katex path{fill:#000;stroke:#000;stroke-width:1px;}#my-svg .rough-node .label,#my-svg .node .label,#my-svg .image-shape .label,#my-svg .icon-shape .label{text-align:center;}#my-svg .node.clickable{cursor:pointer;}#my-svg .root .anchor path{fill:#666!important;stroke-width:0;stroke:#666;}#my-svg .arrowheadPath{fill:#333333;}#my-svg .edgePath .path{stroke:#666;stroke-width:1px;}#my-svg .flowchart-link{stroke:#666;fill:none;}#my-svg .edgeLabel{background-color:white;text-align:center;}#my-svg .edgeLabel p{background-color:white;}#my-svg .edgeLabel rect{opacity:0.5;background-color:white;fill:white;}#my-svg .labelBkg{background-color:rgba(255, 255, 255, 0.5);}#my-svg .cluster rect{fill:hsl(0, 0%, 98.9215686275%);stroke:#707070;stroke-width:1px;}#my-svg .cluster text{fill:#333;}#my-svg .cluster span{color:#333;}#my-svg div.mermaidTooltip{position:absolute;text-align:center;max-width:200px;padding:2px;font-family:"trebuchet ms",verdana,arial,sans-serif;font-size:12px;background:hsl(-160, 0%, 93.3333333333%);border:1px solid #707070;border-radius:2px;pointer-events:none;z-index:100;}#my-svg .flowchartTitleText{text-anchor:middle;font-size:18px;fill:#000000;}#my-svg rect.text{fill:none;stroke-width:0;}#my-svg .icon-shape,#my-svg .image-shape{background-color:white;text-align:center;}#my-svg .icon-shape p,#my-svg .image-shape p{background-color:white;padding:2px;}#my-svg .icon-shape .label rect,#my-svg .image-shape .label rect{opacity:0.5;background-color:white;fill:white;}#my-svg .label-icon{display:inline-block;height:1em;overflow:visible;vertical-align:-0.125em;}#my-svg .node .label-icon path{fill:currentColor;stroke:revert;stroke-width:revert;}#my-svg .node .neo-node{stroke:#999;}#my-svg [data-look="neo"].node rect,#my-svg [data-look="neo"].cluster rect,#my-svg [data-look="neo"].node polygon{stroke:url(#my-svg-gradient);filter:drop-shadow( 1px 2px 2px rgba(185,185,185,1));}#my-svg [data-look="neo"].node path{stroke:url(#my-svg-gradient);stroke-width:1px;}#my-svg [data-look="neo"].node .outer-path{filter:drop-shadow( 1px 2px 2px rgba(185,185,185,1));}#my-svg [data-look="neo"].node .neo-line path{stroke:#999;filter:none;}#my-svg [data-look="neo"].node circle{stroke:url(#my-svg-gradient);filter:drop-shadow( 1px 2px 2px rgba(185,185,185,1));}#my-svg [data-look="neo"].node circle .state-start{fill:#000000;}#my-svg [data-look="neo"].icon-shape .icon{fill:url(#my-svg-gradient);filter:drop-shadow( 1px 2px 2px rgba(185,185,185,1));}#my-svg [data-look="neo"].icon-shape .icon-neo path{stroke:url(#my-svg-gradient);filter:drop-shadow( 1px 2px 2px rgba(185,185,185,1));}#my-svg :root{--mermaid-font-family:"trebuchet ms",verdana,arial,sans-serif;}</style><g><marker id="my-svg_flowchart-v2-pointEnd" class="marker flowchart-v2" viewBox="0 0 10 10" refX="5" refY="5" markerUnits="userSpaceOnUse" markerWidth="8" markerHeight="8" orient="auto"><path d="M 0 0 L 10 5 L 0 10 z" class="arrowMarkerPath" style="stroke-width: 1; stroke-dasharray: 1, 0;"/></marker><marker id="my-svg_flowchart-v2-pointStart" class="marker flowchart-v2" viewBox="0 0 10 10" refX="4.5" refY="5" markerUnits="userSpaceOnUse" markerWidth="8" markerHeight="8" orient="auto"><path d="M 0 5 L 10 10 L 10 0 z" class="arrowMarkerPath" style="stroke-width: 1; stroke-dasharray: 1, 0;"/></marker><marker id="my-svg_flowchart-v2-pointEnd-margin" class="marker flowchart-v2" viewBox="0 0 11.5 14" refX="11.5" refY="7" markerUnits="userSpaceOnUse" markerWidth="10.5" markerHeight="14" orient="auto"><path d="M 0 0 L 11.5 7 L 0 14 z" class="arrowMarkerPath" style="stroke-width: 0; stroke-dasharray: 1, 0;"/></marker><marker id="my-svg_flowchart-v2-pointStart-margin" class="marker flowchart-v2" viewBox="0 0 11.5 14" refX="1" refY="7" markerUnits="userSpaceOnUse" markerWidth="11.5" markerHeight="14" orient="auto"><polygon points="0,7 11.5,14 11.5,0" class="arrowMarkerPath" style="stroke-width: 0; stroke-dasharray: 1, 0;"/></marker><marker id="my-svg_flowchart-v2-circleEnd" class="marker flowchart-v2" viewBox="0 0 10 10" refX="11" refY="5" markerUnits="userSpaceOnUse" markerWidth="11" markerHeight="11" orient="auto"><circle cx="5" cy="5" r="5" class="arrowMarkerPath" style="stroke-width: 1; stroke-dasharray: 1, 0;"/></marker><marker id="my-svg_flowchart-v2-circleStart" class="marker flowchart-v2" viewBox="0 0 10 10" refX="-1" refY="5" markerUnits="userSpaceOnUse" markerWidth="11" markerHeight="11" orient="auto"><circle cx="5" cy="5" r="5" class="arrowMarkerPath" style="stroke-width: 1; stroke-dasharray: 1, 0;"/></marker><marker id="my-svg_flowchart-v2-circleEnd-margin" class="marker flowchart-v2" viewBox="0 0 10 10" refY="5" refX="12.25" markerUnits="userSpaceOnUse" markerWidth="14" markerHeight="14" orient="auto"><circle cx="5" cy="5" r="5" class="arrowMarkerPath" style="stroke-width: 0; stroke-dasharray: 1, 0;"/></marker><marker id="my-svg_flowchart-v2-circleStart-margin" class="marker flowchart-v2" viewBox="0 0 10 10" refX="-2" refY="5" markerUnits="userSpaceOnUse" markerWidth="14" markerHeight="14" orient="auto"><circle cx="5" cy="5" r="5" class="arrowMarkerPath" style="stroke-width: 0; stroke-dasharray: 1, 0;"/></marker><marker id="my-svg_flowchart-v2-crossEnd" class="marker cross flowchart-v2" viewBox="0 0 11 11" refX="12" refY="5.2" markerUnits="userSpaceOnUse" markerWidth="11" markerHeight="11" orient="auto"><path d="M 1,1 l 9,9 M 10,1 l -9,9" class="arrowMarkerPath" style="stroke-width: 2; stroke-dasharray: 1, 0;"/></marker><marker id="my-svg_flowchart-v2-crossStart" class="marker cross flowchart-v2" viewBox="0 0 11 11" refX="-1" refY="5.2" markerUnits="userSpaceOnUse" markerWidth="11" markerHeight="11" orient="auto"><path d="M 1,1 l 9,9 M 10,1 l -9,9" class="arrowMarkerPath" style="stroke-width: 2; stroke-dasharray: 1, 0;"/></marker><marker id="my-svg_flowchart-v2-crossEnd-margin" class="marker cross flowchart-v2" viewBox="0 0 15 15" refX="17.7" refY="7.5" markerUnits="userSpaceOnUse" markerWidth="12" markerHeight="12" orient="auto"><path d="M 1,1 L 14,14 M 1,14 L 14,1" class="arrowMarkerPath" style="stroke-width: 2.5;"/></marker><marker id="my-svg_flowchart-v2-crossStart-margin" class="marker cross flowchart-v2" viewBox="0 0 15 15" refX="-3.5" refY="7.5" markerUnits="userSpaceOnUse" markerWidth="12" markerHeight="12" orient="auto"><path d="M 1,1 L 14,14 M 1,14 L 14,1" class="arrowMarkerPath" style="stroke-width: 2.5; stroke-dasharray: 1, 0;"/></marker><g class="root"><g class="clusters"/><g class="edgePaths"><path d="M202.414,40.5L202.331,44.583C202.247,48.667,202.081,56.833,201.997,64.417C201.914,72,201.914,79,201.914,82.5L201.914,86" id="my-svg-L_A_B_0" class="edge-thickness-normal edge-pattern-solid edge-thickness-normal edge-pattern-solid flowchart-link" style=";" data-edge="true" data-et="edge" data-id="L_A_B_0" data-points="W3sieCI6MjAyLjQxNDA2MjUsInkiOjQwLjUwMDAwMDAwMDAwMDAxfSx7IngiOjIwMS45MTQwNjI1LCJ5Ijo2NX0seyJ4IjoyMDEuOTE0MDYyNSwieSI6OTB9XQ==" data-look="classic" marker-end="url(#my-svg_flowchart-v2-pointEnd)"/><path d="M201.914,137L201.914,141.167C201.914,145.333,201.914,153.667,201.914,161.333C201.914,169,201.914,176,201.914,179.5L201.914,183" id="my-svg-L_B_C_0" class="edge-thickness-normal edge-pattern-solid edge-thickness-normal edge-pattern-solid flowchart-link" style=";" data-edge="true" data-et="edge" data-id="L_B_C_0" data-points="W3sieCI6MjAxLjkxNDA2MjUsInkiOjEzN30seyJ4IjoyMDEuOTE0MDYyNSwieSI6MTYyfSx7IngiOjIwMS45MTQwNjI1LCJ5IjoxODd9XQ==" data-look="classic" marker-end="url(#my-svg_flowchart-v2-pointEnd)"/><path d="M234.635,322.16L241.899,333.53C249.163,344.9,263.691,367.641,270.955,388.844C278.219,410.048,278.219,429.715,278.219,447.631C278.219,465.548,278.219,481.715,278.219,509.871C278.219,538.028,278.219,578.175,278.219,620.072C278.219,661.969,278.219,705.616,278.219,738.739C278.219,771.862,278.219,794.462,278.219,815.312C278.219,836.162,278.219,855.262,278.219,880.303C278.219,905.343,278.219,936.323,278.219,951.813L278.219,967.303" id="my-svg-L_C_D_0" class="edge-thickness-normal edge-pattern-solid edge-thickness-normal edge-pattern-solid flowchart-link" style=";" data-edge="true" data-et="edge" data-id="L_C_D_0" data-points="W3sieCI6MjM0LjYzNTQ3NDIwNTE3ODMsInkiOjMyMi4xNTk4MjkxMzk1NDgyNn0seyJ4IjoyNzguMjE4NzUsInkiOjM5MC4zODEyNDA4NDQ3MjY1Nn0seyJ4IjoyNzguMjE4NzUsInkiOjQ0OS4zODEyNDA4NDQ3MjY1Nn0seyJ4IjoyNzguMjE4NzUsInkiOjQ5Ny44ODEyNDA4NDQ3MjY1Nn0seyJ4IjoyNzguMjE4NzUsInkiOjYxOC4zMjE4NjEyNjcwODk4fSx7IngiOjI3OC4yMTg3NSwieSI6NzQ5LjI2MjQ4MTY4OTQ1MzF9LHsieCI6Mjc4LjIxODc1LCJ5Ijo4MTcuMDYyNDgwOTI2NTEzN30seyJ4IjoyNzguMjE4NzUsInkiOjg3NC4zNjI0ODAxNjM1NzQyfSx7IngiOjI3OC4yMTg3NSwieSI6OTcxLjMwMzEwMDU4NTkzNzV9XQ==" data-look="classic" marker-end="url(#my-svg_flowchart-v2-pointEnd)"/><path d="M278.219,1018.303L278.219,1036.21C278.219,1054.117,278.219,1089.93,281.672,1113.193C285.126,1136.456,292.032,1147.169,295.486,1152.526L298.939,1157.882" id="my-svg-L_D_E_0" class="edge-thickness-normal edge-pattern-solid edge-thickness-normal edge-pattern-solid flowchart-link" style=";" data-edge="true" data-et="edge" data-id="L_D_E_0" data-points="W3sieCI6Mjc4LjIxODc1LCJ5IjoxMDE4LjMwMzEwMDU4NTkzNzV9LHsieCI6Mjc4LjIxODc1LCJ5IjoxMTI1Ljc0MzcyMTAwODMwMDh9LHsieCI6MzAxLjEwNjc2ODIxMDE3MjE2LCJ5IjoxMTYxLjI0MzcyMTAwODMwMDh9XQ==" data-look="classic" marker-end="url(#my-svg_flowchart-v2-pointEnd)"/><path d="M169.193,322.16L161.929,333.53C154.665,344.9,140.137,367.641,132.873,384.261C125.609,400.881,125.609,411.381,125.609,416.631L125.609,421.881" id="my-svg-L_C_F_0" class="edge-thickness-normal edge-pattern-solid edge-thickness-normal edge-pattern-solid flowchart-link" style=";" data-edge="true" data-et="edge" data-id="L_C_F_0" data-points="W3sieCI6MTY5LjE5MjY1MDc5NDgyMTcsInkiOjMyMi4xNTk4MjkxMzk1NDgyNn0seyJ4IjoxMjUuNjA5Mzc1LCJ5IjozOTAuMzgxMjQwODQ0NzI2NTZ9LHsieCI6MTI1LjYwOTM3NSwieSI6NDI1Ljg4MTI0MDg0NDcyNjU2fV0=" data-look="classic" marker-end="url(#my-svg_flowchart-v2-pointEnd)"/><path d="M125.609,472.881L125.609,477.048C125.609,481.215,125.609,489.548,125.609,497.215C125.609,504.881,125.609,511.881,125.609,515.381L125.609,518.881" id="my-svg-L_F_G_0" class="edge-thickness-normal edge-pattern-solid edge-thickness-normal edge-pattern-solid flowchart-link" style=";" data-edge="true" data-et="edge" data-id="L_F_G_0" data-points="W3sieCI6MTI1LjYwOTM3NSwieSI6NDcyLjg4MTI0MDg0NDcyNjU2fSx7IngiOjEyNS42MDkzNzUsInkiOjQ5Ny44ODEyNDA4NDQ3MjY1Nn0seyJ4IjoxMjUuNjA5Mzc0OTk5OTk5OTksInkiOjUyMi44ODEyNDA4NDQ3MjY2fV0=" data-look="classic" marker-end="url(#my-svg_flowchart-v2-pointEnd)"/><path d="M125.609,713.762L125.609,719.679C125.609,725.596,125.609,737.429,125.609,748.596C125.609,759.762,125.609,770.262,125.609,775.512L125.609,780.762" id="my-svg-L_G_H_0" class="edge-thickness-normal edge-pattern-solid edge-thickness-normal edge-pattern-solid flowchart-link" style=";" data-edge="true" data-et="edge" data-id="L_G_H_0" data-points="W3sieCI6MTI1LjYwOTM3NDk5OTk5OTk5LCJ5Ijo3MTMuNzYyNDgxNjg5NDUzMX0seyJ4IjoxMjUuNjA5Mzc1LCJ5Ijo3NDkuMjYyNDgxNjg5NDUzMX0seyJ4IjoxMjUuNjA5Mzc1LCJ5Ijo3ODQuNzYyNDgxNjg5NDUzMX1d" data-look="classic" marker-end="url(#my-svg_flowchart-v2-pointEnd)"/><path d="M199.09,640.282L259.868,658.445C320.647,676.609,442.203,712.936,502.981,736.349C563.759,759.762,563.759,770.262,563.759,775.512L563.759,780.762" id="my-svg-L_G_I_0" class="edge-thickness-normal edge-pattern-solid edge-thickness-normal edge-pattern-solid flowchart-link" style=";" data-edge="true" data-et="edge" data-id="L_G_I_0" data-points="W3sieCI6MTk5LjA5MDMwNDU1MTcxMzY0LCJ5Ijo2NDAuMjgxNTUyMTM3NzM5NH0seyJ4Ijo1NjMuNzU5MzcyNzExMTgxNiwieSI6NzQ5LjI2MjQ4MTY4OTQ1MzF9LHsieCI6NTYzLjc1OTM3MjcxMTE4MTYsInkiOjc4NC43NjI0ODE2ODk0NTMxfV0=" data-look="classic" marker-end="url(#my-svg_flowchart-v2-pointEnd)"/><path d="M563.759,849.362L563.759,853.529C563.759,857.696,563.759,866.029,563.759,873.696C563.759,881.362,563.759,888.362,563.759,891.862L563.759,895.362" id="my-svg-L_I_J_0" class="edge-thickness-normal edge-pattern-solid edge-thickness-normal edge-pattern-solid flowchart-link" style=";" data-edge="true" data-et="edge" data-id="L_I_J_0" data-points="W3sieCI6NTYzLjc1OTM3MjcxMTE4MTYsInkiOjg0OS4zNjI0ODAxNjM1NzQyfSx7IngiOjU2My43NTkzNzI3MTExODE2LCJ5Ijo4NzQuMzYyNDgwMTYzNTc0Mn0seyJ4Ijo1NjMuNzU5MzcyNzExMTgxNCwieSI6ODk5LjM2MjQ4MDE2MzU3NDd9XQ==" data-look="classic" marker-end="url(#my-svg_flowchart-v2-pointEnd)"/><path d="M589.606,1064.397L593.404,1074.621C597.201,1084.846,604.796,1105.295,608.593,1120.769C612.39,1136.244,612.39,1146.744,612.39,1151.994L612.39,1157.244" id="my-svg-L_J_K_0" class="edge-thickness-normal edge-pattern-solid edge-thickness-normal edge-pattern-solid flowchart-link" style=";" data-edge="true" data-et="edge" data-id="L_J_K_0" data-points="W3sieCI6NTg5LjYwNjIzNTQ1MTYzNTgsInkiOjEwNjQuMzk2ODU4MjY3ODQ3fSx7IngiOjYxMi4zOTAyMzIwODYxODE2LCJ5IjoxMTI1Ljc0MzcyMTAwODMwMDh9LHsieCI6NjEyLjM5MDIzMjA4NjE4MTYsInkiOjExNjEuMjQzNzIxMDA4MzAwOH1d" data-look="classic" marker-end="url(#my-svg_flowchart-v2-pointEnd)"/><path d="M516.06,1042.545L502.206,1056.411C488.352,1070.278,460.644,1098.011,437.671,1117.446C414.699,1136.882,396.463,1148.02,387.345,1153.59L378.227,1159.159" id="my-svg-L_J_E_0" class="edge-thickness-normal edge-pattern-solid edge-thickness-normal edge-pattern-solid flowchart-link" style=";" data-edge="true" data-et="edge" data-id="L_J_E_0" data-points="W3sieCI6NTE2LjA2MDI4Mjc4Mjc5OTcsInkiOjEwNDIuNTQ0NjMxMDc5OTE4Nn0seyJ4Ijo0MzIuOTM1MTUzOTYxMTgxNjQsInkiOjExMjUuNzQzNzIxMDA4MzAwOH0seyJ4IjozNzQuODEzODQ0NzAxOTI2NjYsInkiOjExNjEuMjQzNzIxMDA4MzAwOH1d" data-look="classic" marker-end="url(#my-svg_flowchart-v2-pointEnd)"/></g><g class="edgeLabels"><g class="edgeLabel"><g class="label" data-id="L_A_B_0" transform="translate(0, 0)"><text y="-10.1" text-anchor="middle"><tspan class="text-outer-tspan row" x="0" y="-0.1em" dy="1.1em" text-anchor="middle"/></text></g></g><g><rect class="background" style="stroke: none"/></g><g class="edgeLabel"><g class="label" data-id="L_B_C_0" transform="translate(0, 0)"><text y="-10.1" text-anchor="middle"><tspan class="text-outer-tspan row" x="0" y="-0.1em" dy="1.1em" text-anchor="middle"/></text></g></g><g><rect class="background" style="stroke: none"/></g><g class="edgeLabel" transform="translate(278.21875, 618.3218612670898)"><g class="label" data-id="L_C_D_0" transform="translate(-0.05078125, -10.5)"><g><rect class="background" style="" x="-12.2265625" y="0" width="24.5546875" height="21"/><text y="-10.1" text-anchor="middle" style=""><tspan class="text-outer-tspan row" x="0" y="-0.1em" dy="1.1em" text-anchor="middle"><tspan font-style="normal" class="text-inner-tspan" font-weight="normal">No</tspan></tspan></text></g></g></g><g class="edgeLabel"><g class="label" data-id="L_D_E_0" transform="translate(0, 0)"><text y="-10.1" text-anchor="middle"><tspan class="text-outer-tspan row" x="0" y="-0.1em" dy="1.1em" text-anchor="middle"/></text></g></g><g><rect class="background" style="stroke: none"/></g><g class="edgeLabel" transform="translate(125.609375, 390.38124084472656)"><g class="label" data-id="L_C_F_0" transform="translate(-0.2734375, -10.5)"><g><rect class="background" style="" x="-9.5625" y="0" width="19.671875" height="21"/><text y="-10.1" text-anchor="middle" style=""><tspan class="text-outer-tspan row" x="0" y="-0.1em" dy="1.1em" text-anchor="middle"><tspan font-style="normal" class="text-inner-tspan" font-weight="normal">Sí</tspan></tspan></text></g></g></g><g class="edgeLabel"><g class="label" data-id="L_F_G_0" transform="translate(0, 0)"><text y="-10.1" text-anchor="middle"><tspan class="text-outer-tspan row" x="0" y="-0.1em" dy="1.1em" text-anchor="middle"/></text></g></g><g><rect class="background" style="stroke: none"/></g><g class="edgeLabel" transform="translate(125.609375, 749.2624816894531)"><g class="label" data-id="L_G_H_0" transform="translate(-0.2734375, -10.5)"><g><rect class="background" style="" x="-9.5625" y="0" width="19.671875" height="21"/><text y="-10.1" text-anchor="middle" style=""><tspan class="text-outer-tspan row" x="0" y="-0.1em" dy="1.1em" text-anchor="middle"><tspan font-style="normal" class="text-inner-tspan" font-weight="normal">Sí</tspan></tspan></text></g></g></g><g class="edgeLabel" transform="translate(563.7593727111816, 749.2624816894531)"><g class="label" data-id="L_G_I_0" transform="translate(-0.05078125, -10.5)"><g><rect class="background" style="" x="-67.375" y="0" width="134.8515625" height="21"/><text y="-10.1" text-anchor="middle" style=""><tspan class="text-outer-tspan row" x="0" y="-0.1em" dy="1.1em" text-anchor="middle"><tspan font-style="normal" class="text-inner-tspan" font-weight="normal">No</tspan><tspan font-style="normal" class="text-inner-tspan" font-weight="normal"> /</tspan><tspan font-style="normal" class="text-inner-tspan" font-weight="normal"> No</tspan><tspan font-style="normal" class="text-inner-tspan" font-weight="normal"> disponible</tspan></tspan></text></g></g></g><g class="edgeLabel"><g class="label" data-id="L_I_J_0" transform="translate(0, 0)"><text y="-10.1" text-anchor="middle"><tspan class="text-outer-tspan row" x="0" y="-0.1em" dy="1.1em" text-anchor="middle"/></text></g></g><g><rect class="background" style="stroke: none"/></g><g class="edgeLabel" transform="translate(612.3902320861816, 1125.7437210083008)"><g class="label" data-id="L_J_K_0" transform="translate(-0.2734375, -10.5)"><g><rect class="background" style="" x="-9.5625" y="0" width="19.671875" height="21"/><text y="-10.1" text-anchor="middle" style=""><tspan class="text-outer-tspan row" x="0" y="-0.1em" dy="1.1em" text-anchor="middle"><tspan font-style="normal" class="text-inner-tspan" font-weight="normal">Sí</tspan></tspan></text></g></g></g><g class="edgeLabel" transform="translate(450.42956, 1108.23375)"><g class="label" data-id="L_J_E_0" transform="translate(-0.05078125, -10.5)"><g><rect class="background" style="" x="-67.375" y="0" width="134.8515625" height="21"/><text y="-10.1" text-anchor="middle" style=""><tspan class="text-outer-tspan row" x="0" y="-0.1em" dy="1.1em" text-anchor="middle"><tspan font-style="normal" class="text-inner-tspan" font-weight="normal">No</tspan><tspan font-style="normal" class="text-inner-tspan" font-weight="normal"> /</tspan><tspan font-style="normal" class="text-inner-tspan" font-weight="normal"> No</tspan><tspan font-style="normal" class="text-inner-tspan" font-weight="normal"> disponible</tspan></tspan></text></g></g></g></g><g class="nodes"><g class="node default" id="my-svg-flowchart-A-0" data-look="classic" transform="translate(201.9140625, 24)"><g class="basic label-container outer-path"><path d="M-51.58203125 -16 C-27.08448920947156 -16, -2.5869471689431194 -16, 51.58203125 -16 C51.58203125 -16, 51.58203125 -16, 51.58203125 -16 C51.94873476209957 -15.988240532112053, 52.31543827419914 -15.976481064224105, 52.607154769691405 -15.967126284005381 C52.94441737138308 -15.934590966437808, 53.281679973074766 -15.902055648870235, 53.628065836952096 -15.868640221171939 C53.99736764208509 -15.80893436929631, 54.36666944721807 -15.749228517420681, 54.64056930922195 -15.704946511857047 C54.85603672534347 -15.655767480183602, 55.071504141465 -15.606588448510157, 55.64050459255211 -15.476717808624471 C55.900802728325786 -15.399462688259643, 56.16110086409945 -15.322207567894814, 56.623762738377934 -15.184891952170698 C56.892487847053644 -15.085998628110364, 57.16121295572935 -14.98710530405003, 57.58630332806999 -14.830668117536348 C57.79858698445474 -14.736696440025748, 58.010870640839485 -14.642724762515146, 58.52417107588093 -14.415501886438706 C58.87308077216398 -14.233475921375167, 59.221990468447025 -14.051449956311627, 59.433512082063004 -13.941099265974232 C59.74018711140123 -13.755191060966883, 60.04686214073946 -13.569282855959536, 60.31058966936878 -13.409409678269451 C60.49116799990997 -13.283446051993858, 60.67174633045116 -13.157482425718264, 61.151799737859456 -12.822617949887306 C61.46206965092252 -12.57518595084865, 61.7723395639856 -12.327753951809997, 61.95368557492461 -12.183135333906153 C62.12304601038437 -12.029326667453171, 62.29240644584412 -11.875518001000192, 62.712952059655784 -11.493589601563642 C62.86314547972425 -11.338502564233833, 63.01333889979272 -11.183415526904023, 63.42647920320505 -10.756814244181072 C63.58955923763081 -10.565251156227736, 63.75263927205657 -10.373688068274399, 64.09133496948847 -9.975836829739738 C64.25205123763452 -9.760491671977265, 64.41276750578056 -9.545146514214794, 64.70478732355129 -9.153866561954718 C64.90734199268397 -8.842688196622449, 65.10989666181665 -8.531509831290181, 65.26431545808553 -8.294281092968403 C65.43886170225093 -7.984356561728927, 65.61340794641634 -7.674432030489453, 65.767620151968 -7.400612643853364 C65.92750311515977 -7.068612249838279, 66.08738607835153 -6.736611855823194, 66.212633218253 -6.476533489958305 C66.29285690348647 -6.278379436412219, 66.37308058871992 -6.080225382866133, 66.59752600279616 -5.52584087074093 C66.70185760272825 -5.211610714728458, 66.80618920266035 -4.897380558715986, 66.92071689858656 -4.552441386096524 C66.98240835253637 -4.31718513494064, 67.04409980648617 -4.081928883784757, 67.18087784490918 -3.560334943301032 C67.24622740838335 -3.2247787464963324, 67.3115769718575 -2.889222549691633, 67.3769397846312 -2.5535983205340735 C67.42111395218066 -2.210992200196468, 67.46528811973013 -1.868386079858862, 67.50809705718717 -1.536368414522911 C67.52352120208296 -1.296124907625229, 67.53894534697876 -1.055881400727547, 67.573810709211 -0.5128252411464826 C67.573810709211 -0.2052639896707928, 67.573810709211 0.10229726180489707, 67.573810709211 0.5128252411464788 C67.548039167215 0.9142378101485843, 67.52226762521899 1.3156503791506897, 67.50809705718717 1.5363684145229002 C67.4702907079537 1.8295869934696856, 67.43248435872022 2.122805572416471, 67.3769397846312 2.5535983205340624 C67.32416720818978 2.8245743470727884, 67.27139463174835 3.095550373611514, 67.18087784490918 3.5603349433010285 C67.08617150266697 3.9214912722589292, 66.99146516042477 4.28264760121683, 66.92071689858658 4.552441386096513 C66.79953896281059 4.917410021571699, 66.67836102703458 5.282378657046886, 66.59752600279617 5.525840870740919 C66.51165067108869 5.737954600344981, 66.42577533938122 5.950068329949042, 66.212633218253 6.4765334899583005 C66.06012457832661 6.793220943927612, 65.90761593840021 7.109908397896923, 65.767620151968 7.400612643853361 C65.61326953352643 7.674677796591307, 65.45891891508487 7.948742949329253, 65.26431545808553 8.294281092968399 C65.041432569547 8.636689062199295, 64.81854968100846 8.979097031430191, 64.7047873235513 9.15386656195471 C64.57515236151885 9.32756560109021, 64.44551739948638 9.501264640225711, 64.09133496948849 9.975836829739734 C63.88144466523492 10.22238592421261, 63.67155436098136 10.468935018685487, 63.426479203205055 10.756814244181063 C63.224063285459955 10.965825297908792, 63.02164736771485 11.17483635163652, 62.712952059655784 11.493589601563638 C62.50189809827525 11.685263225107626, 62.29084413689472 11.876936848651614, 61.95368557492463 12.183135333906142 C61.69295597123337 12.39106025454378, 61.4322263675421 12.598985175181419, 61.15179973785946 12.822617949887304 C60.83606586391979 13.042860232448504, 60.520331989980114 13.263102515009706, 60.31058966936879 13.409409678269446 C59.99116952124298 13.603044049184458, 59.67174937311717 13.796678420099472, 59.433512082063004 13.94109926597423 C59.14741575145896 14.090355538396913, 58.86131942085492 14.239611810819596, 58.52417107588093 14.415501886438705 C58.29467988080973 14.5170908308823, 58.065188685738526 14.618679775325894, 57.586303328069995 14.830668117536346 C57.27210968703266 14.946294281812264, 56.957916045995326 15.061920446088182, 56.62376273837794 15.184891952170695 C56.26880480579701 15.290241603348505, 55.91384687321608 15.395591254526318, 55.64050459255213 15.476717808624468 C55.30422150910959 15.553472227968026, 54.96793842566705 15.630226647311584, 54.64056930922196 15.704946511857045 C54.280195236897924 15.763208997127725, 53.91982116457389 15.821471482398405, 53.6280658369521 15.868640221171937 C53.422632149454 15.888458161934722, 53.217198461955896 15.908276102697508, 52.607154769691405 15.967126284005381 C52.383353984786304 15.974303139575486, 52.159553199881195 15.981479995145591, 51.58203125 16 C51.58203125 16, 51.58203125 16, 51.58203125 16 C23.06215725152123 16, -5.457716746957537 16, -51.58203125 16 C-51.90562954010836 15.989622832682086, -52.22922783021672 15.979245665364171, -52.6071547696914 15.967126284005381 C-52.98488774158274 15.930686838497387, -53.36262071347408 15.894247392989394, -53.628065836952096 15.868640221171937 C-53.98283034005993 15.811284647549275, -54.33759484316776 15.753929073926614, -54.64056930922196 15.704946511857045 C-55.01206852867434 15.620154239276005, -55.38356774812673 15.535361966694962, -55.64050459255211 15.476717808624471 C-55.95242958781521 15.384140107358098, -56.2643545830783 15.291562406091723, -56.62376273837792 15.184891952170702 C-56.93715033152589 15.069562420969094, -57.250537924673864 14.954232889767487, -57.58630332806999 14.830668117536348 C-57.9441358656769 14.672266267862856, -58.30196840328381 14.513864418189364, -58.52417107588093 14.415501886438708 C-58.76393271934793 14.290418390616638, -59.00369436281492 14.165334894794569, -59.433512082063 13.941099265974234 C-59.732836401718316 13.759647104374228, -60.032160721373636 13.578194942774223, -60.31058966936877 13.409409678269457 C-60.60665838415927 13.2028849594397, -60.90272709894977 12.996360240609945, -61.151799737859456 12.822617949887308 C-61.35239274474825 12.662650364897587, -61.55298575163705 12.502682779907865, -61.95368557492461 12.183135333906154 C-62.11985770971622 12.032222197762168, -62.28602984450784 11.881309061618182, -62.71295205965578 11.493589601563649 C-62.95539501320556 11.243247347086829, -63.197837966755344 10.992905092610009, -63.42647920320505 10.756814244181069 C-63.59584040985267 10.557872933927108, -63.7652016165003 10.358931623673147, -64.09133496948847 9.97583682973974 C-64.244437261506 9.770693706342003, -64.3975395535235 9.565550582944269, -64.70478732355129 9.15386656195472 C-64.85222487640551 8.927362888244208, -64.99966242925974 8.700859214533695, -65.26431545808553 8.29428109296841 C-65.37315933207749 8.101017773058292, -65.48200320606946 7.907754453148174, -65.767620151968 7.400612643853366 C-65.92365346534008 7.076606130058176, -66.07968677871216 6.752599616262986, -66.212633218253 6.476533489958307 C-66.34925073099639 6.139085592162202, -66.48586824373979 5.8016376943660966, -66.59752600279616 5.525840870740931 C-66.6885471663995 5.251699628220652, -66.77956833000283 4.977558385700373, -66.92071689858656 4.552441386096519 C-67.00744961606188 4.2216919441656255, -67.09418233353719 3.890942502234731, -67.18087784490918 3.5603349433010343 C-67.25619318637612 3.1736065827713134, -67.33150852784307 2.786878222241592, -67.3769397846312 2.5535983205340753 C-67.41979944813929 2.2211872339632555, -67.46265911164737 1.8887761473924356, -67.50809705718717 1.5363684145229202 C-67.52933534189285 1.2055649869972491, -67.5505736265985 0.8747615594715781, -67.573810709211 0.5128252411464846 C-67.573810709211 0.20565505258403854, -67.573810709211 -0.10151513597840756, -67.573810709211 -0.5128252411464769 C-67.54765495006895 -0.9202223023327156, -67.5214991909269 -1.3276193635189544, -67.50809705718717 -1.5363684145228982 C-67.4660509855079 -1.8624694435313525, -67.42400491382863 -2.1885704725398067, -67.3769397846312 -2.5535983205340678 C-67.3108866995743 -2.892766951976811, -67.24483361451739 -3.2319355834195544, -67.18087784490918 -3.5603349433010267 C-67.0942489220021 -3.890688571558405, -67.00761999909503 -4.221042199815783, -66.92071689858658 -4.552441386096511 C-66.80083709886615 -4.9135002426022005, -66.68095729914573 -5.274559099107891, -66.59752600279617 -5.525840870740911 C-66.51760072248442 -5.723257858361108, -66.43767544217268 -5.920674845981305, -66.212633218253 -6.476533489958299 C-66.05475604007339 -6.8043688284787365, -65.89687886189377 -7.132204166999174, -65.767620151968 -7.400612643853359 C-65.63204567225742 -7.6413388609842245, -65.49647119254684 -7.882065078115089, -65.26431545808553 -8.294281092968404 C-65.13748492764516 -8.48912684649092, -65.01065439720479 -8.683972600013435, -64.7047873235513 -9.153866561954715 C-64.48683653488818 -9.445900763037981, -64.26888574622505 -9.73793496412125, -64.09133496948849 -9.975836829739734 C-63.958051959608596 -10.132398637162757, -63.824768949728714 -10.28896044458578, -63.426479203205055 -10.756814244181063 C-63.246541680610804 -10.942614509404976, -63.06660415801655 -11.128414774628887, -62.71295205965579 -11.493589601563633 C-62.41466540275719 -11.764485651126487, -62.116378745858576 -12.03538170068934, -61.95368557492463 -12.18313533390614 C-61.663533743552534 -12.414523698160881, -61.37338191218044 -12.64591206241562, -61.15179973785946 -12.822617949887302 C-60.94414550244051 -12.96746855530859, -60.73649126702156 -13.112319160729877, -60.31058966936879 -13.409409678269444 C-59.98383526258383 -13.60749011988452, -59.657080855798874 -13.805570561499595, -59.433512082063004 -13.941099265974229 C-59.09793017089941 -14.116172134077804, -58.76234825973582 -14.291245002181377, -58.524171075880936 -14.415501886438705 C-58.310738736448066 -14.509982051860236, -58.097306397015196 -14.604462217281766, -57.586303328069995 -14.830668117536344 C-57.277790085028926 -14.944203842840615, -56.96927684198785 -15.057739568144887, -56.62376273837794 -15.184891952170695 C-56.278311879971916 -15.287419953637045, -55.93286102156589 -15.389947955103395, -55.64050459255213 -15.476717808624466 C-55.254788257958175 -15.564755044961226, -54.86907192336422 -15.652792281297984, -54.640569309221966 -15.704946511857043 C-54.417071429265064 -15.741079915836531, -54.19357354930816 -15.777213319816017, -53.6280658369521 -15.868640221171937 C-53.31647550315829 -15.898698965930823, -53.00488516936447 -15.92875771068971, -52.607154769691405 -15.967126284005381 C-52.38568513694599 -15.974228384063037, -52.16421550420057 -15.981330484120695, -51.58203125000001 -16 C-51.58203125000001 -16, -51.58203125 -16, -51.58203125 -16" stroke="none" stroke-width="0" fill="#eee" style=""/><path d="M-51.58203125 -16 C-26.03700971843241 -16, -0.49198818686482326 -16, 51.58203125 -16 M-51.58203125 -16 C-15.98685433921893 -16, 19.60832257156214 -16, 51.58203125 -16 M51.58203125 -16 C51.58203125 -16, 51.58203125 -16, 51.58203125 -16 M51.58203125 -16 C51.58203125 -16, 51.58203125 -16, 51.58203125 -16 M51.58203125 -16 C51.92664482551809 -15.988948913382767, 52.27125840103618 -15.977897826765535, 52.607154769691405 -15.967126284005381 M51.58203125 -16 C51.82575069094948 -15.992184391899864, 52.06947013189896 -15.984368783799727, 52.607154769691405 -15.967126284005381 M52.607154769691405 -15.967126284005381 C52.839483933172104 -15.944713769021098, 53.071813096652804 -15.922301254036814, 53.628065836952096 -15.868640221171939 M52.607154769691405 -15.967126284005381 C52.957200271305005 -15.933357815456027, 53.3072457729186 -15.899589346906673, 53.628065836952096 -15.868640221171939 M53.628065836952096 -15.868640221171939 C53.84913905752495 -15.832898817318151, 54.070212278097806 -15.797157413464362, 54.64056930922195 -15.704946511857047 M53.628065836952096 -15.868640221171939 C53.964782126965645 -15.814202542676377, 54.301498416979186 -15.759764864180816, 54.64056930922195 -15.704946511857047 M54.64056930922195 -15.704946511857047 C54.990585800503204 -15.625057531793164, 55.34060229178446 -15.545168551729281, 55.64050459255211 -15.476717808624471 M54.64056930922195 -15.704946511857047 C54.929835440971274 -15.638923404923183, 55.2191015727206 -15.57290029798932, 55.64050459255211 -15.476717808624471 M55.64050459255211 -15.476717808624471 C55.96293739049425 -15.38102144667954, 56.28537018843638 -15.285325084734609, 56.623762738377934 -15.184891952170698 M55.64050459255211 -15.476717808624471 C56.033734404157634 -15.360009264645354, 56.42696421576316 -15.24330072066624, 56.623762738377934 -15.184891952170698 M56.623762738377934 -15.184891952170698 C56.841654023042025 -15.104705945249357, 57.05954530770612 -15.024519938328014, 57.58630332806999 -14.830668117536348 M56.623762738377934 -15.184891952170698 C56.92019530635391 -15.075802026962918, 57.216627874329895 -14.966712101755137, 57.58630332806999 -14.830668117536348 M57.58630332806999 -14.830668117536348 C57.85462153482674 -14.71189160678194, 58.122939741583494 -14.593115096027532, 58.52417107588093 -14.415501886438706 M57.58630332806999 -14.830668117536348 C57.846738510780035 -14.715381187685818, 58.107173693490076 -14.600094257835286, 58.52417107588093 -14.415501886438706 M58.52417107588093 -14.415501886438706 C58.869126257417356 -14.23553898918549, 59.21408143895379 -14.055576091932275, 59.433512082063004 -13.941099265974232 M58.52417107588093 -14.415501886438706 C58.79343336984172 -14.275027920150091, 59.06269566380252 -14.134553953861476, 59.433512082063004 -13.941099265974232 M59.433512082063004 -13.941099265974232 C59.673525836884444 -13.795601517324092, 59.91353959170588 -13.650103768673954, 60.31058966936878 -13.409409678269451 M59.433512082063004 -13.941099265974232 C59.62612866965684 -13.824333958634135, 59.81874525725068 -13.707568651294036, 60.31058966936878 -13.409409678269451 M60.31058966936878 -13.409409678269451 C60.50473502420217 -13.273982283154634, 60.69888037903556 -13.138554888039817, 61.151799737859456 -12.822617949887306 M60.31058966936878 -13.409409678269451 C60.64157596702484 -13.178527965190478, 60.9725622646809 -12.947646252111504, 61.151799737859456 -12.822617949887306 M61.151799737859456 -12.822617949887306 C61.33646171989366 -12.675354933276743, 61.52112370192788 -12.528091916666181, 61.95368557492461 -12.183135333906153 M61.151799737859456 -12.822617949887306 C61.39049512760059 -12.632264728519838, 61.629190517341726 -12.44191150715237, 61.95368557492461 -12.183135333906153 M61.95368557492461 -12.183135333906153 C62.10923233082852 -12.041871885735864, 62.264779086732425 -11.900608437565573, 62.712952059655784 -11.493589601563642 M61.95368557492461 -12.183135333906153 C62.25475268600495 -11.909714149422236, 62.55581979708529 -11.63629296493832, 62.712952059655784 -11.493589601563642 M62.712952059655784 -11.493589601563642 C62.92493990937068 -11.274694742206874, 63.136927759085566 -11.055799882850106, 63.42647920320505 -10.756814244181072 M62.712952059655784 -11.493589601563642 C62.91023074679048 -11.289883160215629, 63.10750943392519 -11.086176718867616, 63.42647920320505 -10.756814244181072 M63.42647920320505 -10.756814244181072 C63.636063448795284 -10.510624663629367, 63.84564769438552 -10.26443508307766, 64.09133496948847 -9.975836829739738 M63.42647920320505 -10.756814244181072 C63.63252906192002 -10.514776355565365, 63.83857892063499 -10.272738466949656, 64.09133496948847 -9.975836829739738 M64.09133496948847 -9.975836829739738 C64.32238942882992 -9.666244903716471, 64.55344388817137 -9.356652977693203, 64.70478732355129 -9.153866561954718 M64.09133496948847 -9.975836829739738 C64.28021873129016 -9.722749796590161, 64.46910249309187 -9.469662763440587, 64.70478732355129 -9.153866561954718 M64.70478732355129 -9.153866561954718 C64.84688496145505 -8.935566431576062, 64.9889825993588 -8.717266301197403, 65.26431545808553 -8.294281092968403 M64.70478732355129 -9.153866561954718 C64.89640271947887 -8.859493857871636, 65.08801811540646 -8.565121153788553, 65.26431545808553 -8.294281092968403 M65.26431545808553 -8.294281092968403 C65.41520122923976 -8.02636812744298, 65.56608700039398 -7.758455161917557, 65.767620151968 -7.400612643853364 M65.26431545808553 -8.294281092968403 C65.42590936515421 -8.007354747810513, 65.58750327222289 -7.720428402652625, 65.767620151968 -7.400612643853364 M65.767620151968 -7.400612643853364 C65.88415876942771 -7.158617711171325, 66.00069738688742 -6.916622778489287, 66.212633218253 -6.476533489958305 M65.767620151968 -7.400612643853364 C65.92815613642999 -7.067256237198243, 66.08869212089198 -6.733899830543121, 66.212633218253 -6.476533489958305 M66.212633218253 -6.476533489958305 C66.296756260365 -6.268747949533288, 66.380879302477 -6.060962409108272, 66.59752600279616 -5.52584087074093 M66.212633218253 -6.476533489958305 C66.3170879293053 -6.21852833416466, 66.4215426403576 -5.960523178371016, 66.59752600279616 -5.52584087074093 M66.59752600279616 -5.52584087074093 C66.684615132236 -5.263542288636507, 66.77170426167586 -5.001243706532084, 66.92071689858656 -4.552441386096524 M66.59752600279616 -5.52584087074093 C66.71249771714189 -5.179564385386594, 66.82746943148763 -4.833287900032257, 66.92071689858656 -4.552441386096524 M66.92071689858656 -4.552441386096524 C67.01240641384632 -4.202789525923756, 67.1040959291061 -3.8531376657509893, 67.18087784490918 -3.560334943301032 M66.92071689858656 -4.552441386096524 C67.0165331587664 -4.187052459000914, 67.11234941894627 -3.8216635319053047, 67.18087784490918 -3.560334943301032 M67.18087784490918 -3.560334943301032 C67.24600259802125 -3.225933100191957, 67.31112735113334 -2.891531257082882, 67.3769397846312 -2.5535983205340735 M67.18087784490918 -3.560334943301032 C67.22160140183551 -3.3512280854111194, 67.26232495876184 -3.142121227521207, 67.3769397846312 -2.5535983205340735 M67.3769397846312 -2.5535983205340735 C67.40410899849613 -2.342879262965815, 67.43127821236106 -2.1321602053975557, 67.50809705718717 -1.536368414522911 M67.3769397846312 -2.5535983205340735 C67.42295794140966 -2.1966905838732385, 67.46897609818812 -1.8397828472124038, 67.50809705718717 -1.536368414522911 M67.50809705718717 -1.536368414522911 C67.53168417978448 -1.16897994088721, 67.55527130238178 -0.8015914672515089, 67.573810709211 -0.5128252411464826 M67.50809705718717 -1.536368414522911 C67.53041476515067 -1.1887520984618307, 67.55273247311416 -0.8411357824007502, 67.573810709211 -0.5128252411464826 M67.573810709211 -0.5128252411464826 C67.573810709211 -0.12125547868018716, 67.573810709211 0.27031428378610833, 67.573810709211 0.5128252411464788 M67.573810709211 -0.5128252411464826 C67.573810709211 -0.2135167205356437, 67.573810709211 0.08579180007519527, 67.573810709211 0.5128252411464788 M67.573810709211 0.5128252411464788 C67.5526865920859 0.8418504164502587, 67.53156247496082 1.1708755917540385, 67.50809705718717 1.5363684145229002 M67.573810709211 0.5128252411464788 C67.55962383592065 0.7337972440818872, 67.54543696263028 0.9547692470172955, 67.50809705718717 1.5363684145229002 M67.50809705718717 1.5363684145229002 C67.47442360166252 1.79753308599615, 67.44075014613787 2.0586977574693996, 67.3769397846312 2.5535983205340624 M67.50809705718717 1.5363684145229002 C67.46619986490384 1.8613147643359753, 67.42430267262051 2.1862611141490507, 67.3769397846312 2.5535983205340624 M67.3769397846312 2.5535983205340624 C67.32803037540104 2.8047377999236724, 67.27912096617086 3.0558772793132825, 67.18087784490918 3.5603349433010285 M67.3769397846312 2.5535983205340624 C67.33752617192792 2.7559788916953987, 67.29811255922465 2.9583594628567353, 67.18087784490918 3.5603349433010285 M67.18087784490918 3.5603349433010285 C67.12540474480112 3.771877916206725, 67.06993164469306 3.983420889112422, 66.92071689858658 4.552441386096513 M67.18087784490918 3.5603349433010285 C67.10856636986318 3.836089937642956, 67.03625489481718 4.1118449319848835, 66.92071689858658 4.552441386096513 M66.92071689858658 4.552441386096513 C66.79304232394193 4.936976862745217, 66.6653677492973 5.321512339393922, 66.59752600279617 5.525840870740919 M66.92071689858658 4.552441386096513 C66.83699570292603 4.804596288265054, 66.75327450726547 5.0567511904335944, 66.59752600279617 5.525840870740919 M66.59752600279617 5.525840870740919 C66.49905980243526 5.7690542893468635, 66.40059360207434 6.012267707952808, 66.212633218253 6.4765334899583005 M66.59752600279617 5.525840870740919 C66.51307316489454 5.734441013142505, 66.4286203269929 5.943041155544092, 66.212633218253 6.4765334899583005 M66.212633218253 6.4765334899583005 C66.10706898485093 6.6957398793304606, 66.00150475144886 6.914946268702621, 65.767620151968 7.400612643853361 M66.212633218253 6.4765334899583005 C66.09948534919181 6.711487461040438, 65.98633748013062 6.946441432122575, 65.767620151968 7.400612643853361 M65.767620151968 7.400612643853361 C65.63818815194834 7.630432266299491, 65.50875615192867 7.860251888745621, 65.26431545808553 8.294281092968399 M65.767620151968 7.400612643853361 C65.58519928391351 7.724519367200052, 65.40277841585902 8.048426090546743, 65.26431545808553 8.294281092968399 M65.26431545808553 8.294281092968399 C65.07126653768643 8.590856075594964, 64.87821761728733 8.887431058221527, 64.7047873235513 9.15386656195471 M65.26431545808553 8.294281092968399 C65.11290331173731 8.526890809613487, 64.96149116538909 8.759500526258575, 64.7047873235513 9.15386656195471 M64.7047873235513 9.15386656195471 C64.54917202171865 9.36237688956482, 64.393556719886 9.57088721717493, 64.09133496948849 9.975836829739734 M64.7047873235513 9.15386656195471 C64.52701953877032 9.392059198582865, 64.34925175398935 9.630251835211022, 64.09133496948849 9.975836829739734 M64.09133496948849 9.975836829739734 C63.859435811528385 10.248238776115567, 63.62753665356828 10.5206407224914, 63.426479203205055 10.756814244181063 M64.09133496948849 9.975836829739734 C63.86057767555894 10.24689747765137, 63.62982038162939 10.517958125563007, 63.426479203205055 10.756814244181063 M63.426479203205055 10.756814244181063 C63.15772908179666 11.034320809330547, 62.888978960388265 11.311827374480028, 62.712952059655784 11.493589601563638 M63.426479203205055 10.756814244181063 C63.168002264597014 11.023712904645187, 62.90952532598897 11.290611565109309, 62.712952059655784 11.493589601563638 M62.712952059655784 11.493589601563638 C62.425285580433744 11.754840686755136, 62.13761910121171 12.016091771946634, 61.95368557492463 12.183135333906142 M62.712952059655784 11.493589601563638 C62.480586522649894 11.704617834217183, 62.248220985644004 11.915646066870726, 61.95368557492463 12.183135333906142 M61.95368557492463 12.183135333906142 C61.78108833291429 12.320777041403886, 61.60849109090395 12.45841874890163, 61.15179973785946 12.822617949887304 M61.95368557492463 12.183135333906142 C61.78387917894436 12.318551415962435, 61.61407278296409 12.453967498018729, 61.15179973785946 12.822617949887304 M61.15179973785946 12.822617949887304 C60.9139401276555 12.988538517189017, 60.67608051745154 13.15445908449073, 60.31058966936879 13.409409678269446 M61.15179973785946 12.822617949887304 C60.92644511641201 12.979815578364713, 60.70109049496456 13.137013206842123, 60.31058966936879 13.409409678269446 M60.31058966936879 13.409409678269446 C59.96562595383402 13.618528709858433, 59.62066223829925 13.827647741447421, 59.433512082063004 13.94109926597423 M60.31058966936879 13.409409678269446 C60.10277064217823 13.535390793832526, 59.89495161498767 13.661371909395607, 59.433512082063004 13.94109926597423 M59.433512082063004 13.94109926597423 C59.074621263641646 14.128332376064114, 58.71573044522028 14.315565486153996, 58.52417107588093 14.415501886438705 M59.433512082063004 13.94109926597423 C59.179963414654765 14.073375443355435, 58.92641474724653 14.20565162073664, 58.52417107588093 14.415501886438705 M58.52417107588093 14.415501886438705 C58.23355302968395 14.54414987461207, 57.94293498348696 14.672797862785437, 57.586303328069995 14.830668117536346 M58.52417107588093 14.415501886438705 C58.18268890766825 14.566665912597847, 57.84120673945557 14.71782993875699, 57.586303328069995 14.830668117536346 M57.586303328069995 14.830668117536346 C57.36600644273651 14.911739407741152, 57.14570955740303 14.992810697945957, 56.62376273837794 15.184891952170695 M57.586303328069995 14.830668117536346 C57.26255630647488 14.949810014168008, 56.93880928487977 15.068951910799672, 56.62376273837794 15.184891952170695 M56.62376273837794 15.184891952170695 C56.24328677632627 15.297815220548552, 55.862810814274596 15.410738488926409, 55.64050459255213 15.476717808624468 M56.62376273837794 15.184891952170695 C56.28718849618535 15.284785420539206, 55.95061425399276 15.38467888890772, 55.64050459255213 15.476717808624468 M55.64050459255213 15.476717808624468 C55.38488047414955 15.535062345546594, 55.12925635574695 15.59340688246872, 54.64056930922196 15.704946511857045 M55.64050459255213 15.476717808624468 C55.42171554940797 15.526654979990187, 55.20292650626381 15.576592151355907, 54.64056930922196 15.704946511857045 M54.64056930922196 15.704946511857045 C54.313035308756014 15.75789966898827, 53.985501308290075 15.810852826119493, 53.6280658369521 15.868640221171937 M54.64056930922196 15.704946511857045 C54.297735385529535 15.76037324192285, 53.95490146183712 15.815799971988655, 53.6280658369521 15.868640221171937 M53.6280658369521 15.868640221171937 C53.27414715201764 15.902782331058072, 52.920228467083184 15.936924440944205, 52.607154769691405 15.967126284005381 M53.6280658369521 15.868640221171937 C53.33927008800089 15.896499999745556, 53.05047433904967 15.924359778319177, 52.607154769691405 15.967126284005381 M52.607154769691405 15.967126284005381 C52.25798318503851 15.97832353710394, 51.90881160038561 15.9895207902025, 51.58203125 16 M52.607154769691405 15.967126284005381 C52.3201508242438 15.976329941916596, 52.03314687879618 15.98553359982781, 51.58203125 16 M51.58203125 16 C51.58203125 16, 51.58203125 16, 51.58203125 16 M51.58203125 16 C51.58203125 16, 51.58203125 16, 51.58203125 16 M51.58203125 16 C22.24373389054681 16, -7.0945634689063795 16, -51.58203125 16 M51.58203125 16 C16.576227827027985 16, -18.42957559594403 16, -51.58203125 16 M-51.58203125 16 C-51.81935490899048 15.992389492178654, -52.05667856798097 15.984778984357309, -52.6071547696914 15.967126284005381 M-51.58203125 16 C-51.84077153946724 15.991702702524206, -52.09951182893449 15.983405405048414, -52.6071547696914 15.967126284005381 M-52.6071547696914 15.967126284005381 C-52.83062242668794 15.945568627894103, -53.054090083684486 15.924010971782826, -53.628065836952096 15.868640221171937 M-52.6071547696914 15.967126284005381 C-52.927157462210616 15.936256009117598, -53.247160154729826 15.905385734229814, -53.628065836952096 15.868640221171937 M-53.628065836952096 15.868640221171937 C-53.83645987165339 15.834948689761308, -54.044853906354675 15.80125715835068, -54.64056930922196 15.704946511857045 M-53.628065836952096 15.868640221171937 C-53.97778606981092 15.812100166044234, -54.32750630266974 15.755560110916532, -54.64056930922196 15.704946511857045 M-54.64056930922196 15.704946511857045 C-54.980392409396316 15.627384106795217, -55.32021550957067 15.549821701733391, -55.64050459255211 15.476717808624471 M-54.64056930922196 15.704946511857045 C-54.96564413263308 15.630750304724925, -55.29071895604421 15.556554097592805, -55.64050459255211 15.476717808624471 M-55.64050459255211 15.476717808624471 C-55.86096556617324 15.411286148876986, -56.08142653979437 15.345854489129499, -56.62376273837792 15.184891952170702 M-55.64050459255211 15.476717808624471 C-55.95416939543897 15.383623741587803, -56.267834198325815 15.290529674551134, -56.62376273837792 15.184891952170702 M-56.62376273837792 15.184891952170702 C-56.91517039478866 15.077651240868702, -57.2065780511994 14.970410529566704, -57.58630332806999 14.830668117536348 M-56.62376273837792 15.184891952170702 C-56.89890503810947 15.083637042481953, -57.174047337841024 14.982382132793205, -57.58630332806999 14.830668117536348 M-57.58630332806999 14.830668117536348 C-57.88689005931668 14.697607288202015, -58.187476790563366 14.56454645886768, -58.52417107588093 14.415501886438708 M-57.58630332806999 14.830668117536348 C-57.95089948942173 14.669272212266788, -58.31549565077347 14.50787630699723, -58.52417107588093 14.415501886438708 M-58.52417107588093 14.415501886438708 C-58.76684147451998 14.288900894906526, -59.00951187315902 14.162299903374343, -59.433512082063 13.941099265974234 M-58.52417107588093 14.415501886438708 C-58.867332382291934 14.236474852689392, -59.21049368870294 14.057447818940076, -59.433512082063 13.941099265974234 M-59.433512082063 13.941099265974234 C-59.63828615195878 13.8169640214174, -59.843060221854564 13.692828776860567, -60.31058966936877 13.409409678269457 M-59.433512082063 13.941099265974234 C-59.63271821708918 13.82033933625617, -59.831924352115365 13.699579406538106, -60.31058966936877 13.409409678269457 M-60.31058966936877 13.409409678269457 C-60.48233234711547 13.289609420894053, -60.654075024862166 13.16980916351865, -61.151799737859456 12.822617949887308 M-60.31058966936877 13.409409678269457 C-60.50228859218796 13.275688808223409, -60.69398751500715 13.14196793817736, -61.151799737859456 12.822617949887308 M-61.151799737859456 12.822617949887308 C-61.37197661884677 12.647032746452792, -61.5921534998341 12.471447543018275, -61.95368557492461 12.183135333906154 M-61.151799737859456 12.822617949887308 C-61.32512009731369 12.684399575471017, -61.49844045676794 12.54618120105473, -61.95368557492461 12.183135333906154 M-61.95368557492461 12.183135333906154 C-62.12023623063952 12.031878435074743, -62.286786886354435 11.880621536243334, -62.71295205965578 11.493589601563649 M-61.95368557492461 12.183135333906154 C-62.112850591355496 12.03858587725919, -62.27201560778638 11.894036420612224, -62.71295205965578 11.493589601563649 M-62.71295205965578 11.493589601563649 C-62.943418552053494 11.255614026512085, -63.17388504445121 11.01763845146052, -63.42647920320505 10.756814244181069 M-62.71295205965578 11.493589601563649 C-62.96662078720039 11.23165581378398, -63.220289514745005 10.96972202600431, -63.42647920320505 10.756814244181069 M-63.42647920320505 10.756814244181069 C-63.62277041847705 10.52623941343601, -63.81906163374906 10.29566458269095, -64.09133496948847 9.97583682973974 M-63.42647920320505 10.756814244181069 C-63.56618529147754 10.592707523394575, -63.705891379750035 10.42860080260808, -64.09133496948847 9.97583682973974 M-64.09133496948847 9.97583682973974 C-64.25800828273026 9.75250977424696, -64.42468159597203 9.52918271875418, -64.70478732355129 9.15386656195472 M-64.09133496948847 9.97583682973974 C-64.3300305809365 9.656006456016936, -64.56872619238453 9.336176082294132, -64.70478732355129 9.15386656195472 M-64.70478732355129 9.15386656195472 C-64.84460847789704 8.939063721642599, -64.9844296322428 8.724260881330478, -65.26431545808553 8.29428109296841 M-64.70478732355129 9.15386656195472 C-64.85131237122457 8.928764741244102, -64.99783741889784 8.703662920533485, -65.26431545808553 8.29428109296841 M-65.26431545808553 8.29428109296841 C-65.41535931887566 8.026087423286125, -65.56640317966578 7.757893753603842, -65.767620151968 7.400612643853366 M-65.26431545808553 8.29428109296841 C-65.45306960390607 7.959128993634195, -65.64182374972661 7.623976894299981, -65.767620151968 7.400612643853366 M-65.767620151968 7.400612643853366 C-65.91371514803059 7.097243258597256, -66.05981014409318 6.793873873341146, -66.212633218253 6.476533489958307 M-65.767620151968 7.400612643853366 C-65.88843854453398 7.1497306665906235, -66.00925693709998 6.89884868932788, -66.212633218253 6.476533489958307 M-66.212633218253 6.476533489958307 C-66.36433502586543 6.1018270922006685, -66.51603683347787 5.727120694443031, -66.59752600279616 5.525840870740931 M-66.212633218253 6.476533489958307 C-66.36297044611175 6.105197630574648, -66.51330767397047 5.7338617711909885, -66.59752600279616 5.525840870740931 M-66.59752600279616 5.525840870740931 C-66.70680962417337 5.196696015133208, -66.8160932455506 4.867551159525485, -66.92071689858656 4.552441386096519 M-66.59752600279616 5.525840870740931 C-66.68593446738261 5.25956866138248, -66.77434293196904 4.99329645202403, -66.92071689858656 4.552441386096519 M-66.92071689858656 4.552441386096519 C-66.98457239291335 4.308932711082163, -67.04842788724015 4.065424036067807, -67.18087784490918 3.5603349433010343 M-66.92071689858656 4.552441386096519 C-67.01358834247796 4.198282319800247, -67.10645978636936 3.844123253503974, -67.18087784490918 3.5603349433010343 M-67.18087784490918 3.5603349433010343 C-67.24696304072239 3.2210014299112615, -67.31304823653561 2.8816679165214882, -67.3769397846312 2.5535983205340753 M-67.18087784490918 3.5603349433010343 C-67.2563303035541 3.1729025150421797, -67.33178276219901 2.7854700867833255, -67.3769397846312 2.5535983205340753 M-67.3769397846312 2.5535983205340753 C-67.4256586402087 2.1757444973012863, -67.47437749578617 1.7978906740684975, -67.50809705718717 1.5363684145229202 M-67.3769397846312 2.5535983205340753 C-67.42726698497738 2.1632704928789237, -67.47759418532355 1.772942665223772, -67.50809705718717 1.5363684145229202 M-67.50809705718717 1.5363684145229202 C-67.52951219597871 1.2028103418557654, -67.55092733477025 0.8692522691886106, -67.573810709211 0.5128252411464846 M-67.50809705718717 1.5363684145229202 C-67.52687083136975 1.2439517277115224, -67.54564460555233 0.9515350409001248, -67.573810709211 0.5128252411464846 M-67.573810709211 0.5128252411464846 C-67.573810709211 0.1746165224178038, -67.573810709211 -0.16359219631087707, -67.573810709211 -0.5128252411464769 M-67.573810709211 0.5128252411464846 C-67.573810709211 0.23542381001671553, -67.573810709211 -0.04197762111305359, -67.573810709211 -0.5128252411464769 M-67.573810709211 -0.5128252411464769 C-67.55479931013672 -0.8089431274537293, -67.53578791106241 -1.1050610137609818, -67.50809705718717 -1.5363684145228982 M-67.573810709211 -0.5128252411464769 C-67.55253685766965 -0.8441826508470458, -67.53126300612828 -1.1755400605476147, -67.50809705718717 -1.5363684145228982 M-67.50809705718717 -1.5363684145228982 C-67.46066951083564 -1.9042070983970345, -67.41324196448411 -2.272045782271171, -67.3769397846312 -2.5535983205340678 M-67.50809705718717 -1.5363684145228982 C-67.46564618699986 -1.865608980823166, -67.42319531681257 -2.1948495471234337, -67.3769397846312 -2.5535983205340678 M-67.3769397846312 -2.5535983205340678 C-67.32486148770316 -2.8210093685075934, -67.27278319077513 -3.0884204164811195, -67.18087784490918 -3.5603349433010267 M-67.3769397846312 -2.5535983205340678 C-67.3090959128643 -2.901962263249781, -67.24125204109738 -3.2503262059654934, -67.18087784490918 -3.5603349433010267 M-67.18087784490918 -3.5603349433010267 C-67.10762399371781 -3.839683626313632, -67.03437014252646 -4.119032309326238, -66.92071689858658 -4.552441386096511 M-67.18087784490918 -3.5603349433010267 C-67.11018475731053 -3.8299183248926183, -67.0394916697119 -4.09950170648421, -66.92071689858658 -4.552441386096511 M-66.92071689858658 -4.552441386096511 C-66.84642263111098 -4.7762038825489945, -66.77212836363539 -4.999966379001477, -66.59752600279617 -5.525840870740911 M-66.92071689858658 -4.552441386096511 C-66.83884138058839 -4.799037401214818, -66.7569658625902 -5.045633416333125, -66.59752600279617 -5.525840870740911 M-66.59752600279617 -5.525840870740911 C-66.46325032798853 -5.857504383559341, -66.3289746531809 -6.189167896377771, -66.212633218253 -6.476533489958299 M-66.59752600279617 -5.525840870740911 C-66.44519001337586 -5.902113709825056, -66.29285402395557 -6.2783865489092, -66.212633218253 -6.476533489958299 M-66.212633218253 -6.476533489958299 C-66.11134357777728 -6.686863595657253, -66.01005393730156 -6.897193701356207, -65.767620151968 -7.400612643853359 M-66.212633218253 -6.476533489958299 C-66.0418748031177 -6.8311169926315465, -65.87111638798238 -7.185700495304793, -65.767620151968 -7.400612643853359 M-65.767620151968 -7.400612643853359 C-65.649480925456 -7.610380803419316, -65.53134169894399 -7.820148962985273, -65.26431545808553 -8.294281092968404 M-65.767620151968 -7.400612643853359 C-65.61113682401852 -7.678464638282863, -65.45465349606904 -7.956316632712367, -65.26431545808553 -8.294281092968404 M-65.26431545808553 -8.294281092968404 C-65.09505918104071 -8.554304186183481, -64.92580290399589 -8.814327279398558, -64.7047873235513 -9.153866561954715 M-65.26431545808553 -8.294281092968404 C-65.04652263932189 -8.628869348149959, -64.82872982055824 -8.963457603331511, -64.7047873235513 -9.153866561954715 M-64.7047873235513 -9.153866561954715 C-64.47791501044507 -9.457854793024149, -64.25104269733883 -9.761843024093583, -64.09133496948849 -9.975836829739734 M-64.7047873235513 -9.153866561954715 C-64.47022773692215 -9.468155039219836, -64.235668150293 -9.782443516484957, -64.09133496948849 -9.975836829739734 M-64.09133496948849 -9.975836829739734 C-63.872656975692934 -10.232708444382332, -63.65397898189738 -10.48958005902493, -63.426479203205055 -10.756814244181063 M-64.09133496948849 -9.975836829739734 C-63.84847093612608 -10.261118742682196, -63.605606902763675 -10.54640065562466, -63.426479203205055 -10.756814244181063 M-63.426479203205055 -10.756814244181063 C-63.20964170125935 -10.980716767629996, -62.992804199313646 -11.204619291078929, -62.71295205965579 -11.493589601563633 M-63.426479203205055 -10.756814244181063 C-63.250451855928 -10.93857693235861, -63.074424508650935 -11.120339620536157, -62.71295205965579 -11.493589601563633 M-62.71295205965579 -11.493589601563633 C-62.50682311855691 -11.680790451996721, -62.30069417745803 -11.86799130242981, -61.95368557492463 -12.18313533390614 M-62.71295205965579 -11.493589601563633 C-62.535302226959054 -11.65492647926181, -62.35765239426232 -11.816263356959986, -61.95368557492463 -12.18313533390614 M-61.95368557492463 -12.18313533390614 C-61.712018637209674 -12.375858285706517, -61.47035169949472 -12.568581237506894, -61.15179973785946 -12.822617949887302 M-61.95368557492463 -12.18313533390614 C-61.64509548771164 -12.429227716531399, -61.33650540049865 -12.675320099156655, -61.15179973785946 -12.822617949887302 M-61.15179973785946 -12.822617949887302 C-60.93907911416636 -12.971002648448227, -60.72635849047325 -13.119387347009152, -60.31058966936879 -13.409409678269444 M-61.15179973785946 -12.822617949887302 C-60.90357803057479 -12.995766667544565, -60.65535632329012 -13.16891538520183, -60.31058966936879 -13.409409678269444 M-60.31058966936879 -13.409409678269444 C-60.08559215299788 -13.545804494925656, -59.860594636626985 -13.682199311581869, -59.433512082063004 -13.941099265974229 M-60.31058966936879 -13.409409678269444 C-60.051921116368646 -13.566216075203275, -59.79325256336851 -13.723022472137107, -59.433512082063004 -13.941099265974229 M-59.433512082063004 -13.941099265974229 C-59.07559345441392 -14.127825184760935, -58.717674826764835 -14.314551103547641, -58.524171075880936 -14.415501886438705 M-59.433512082063004 -13.941099265974229 C-59.13341292593202 -14.09766080350508, -58.83331376980104 -14.254222341035932, -58.524171075880936 -14.415501886438705 M-58.524171075880936 -14.415501886438705 C-58.15022787682061 -14.581035448031834, -57.77628467776027 -14.746569009624963, -57.586303328069995 -14.830668117536344 M-58.524171075880936 -14.415501886438705 C-58.28249702679308 -14.522483818963945, -58.04082297770523 -14.629465751489187, -57.586303328069995 -14.830668117536344 M-57.586303328069995 -14.830668117536344 C-57.33144816033328 -14.9244571751188, -57.07659299259657 -15.018246232701257, -56.62376273837794 -15.184891952170695 M-57.586303328069995 -14.830668117536344 C-57.30948311306649 -14.932540515555651, -57.03266289806298 -15.034412913574958, -56.62376273837794 -15.184891952170695 M-56.62376273837794 -15.184891952170695 C-56.368743416097104 -15.260580348399909, -56.113724093816266 -15.336268744629123, -55.64050459255213 -15.476717808624466 M-56.62376273837794 -15.184891952170695 C-56.26807889470731 -15.290457049949545, -55.912395051036675 -15.396022147728393, -55.64050459255213 -15.476717808624466 M-55.64050459255213 -15.476717808624466 C-55.422549442340504 -15.526464649369997, -55.204594292128874 -15.576211490115526, -54.640569309221966 -15.704946511857043 M-55.64050459255213 -15.476717808624466 C-55.313081171876085 -15.551450067756276, -54.98565775120003 -15.626182326888085, -54.640569309221966 -15.704946511857043 M-54.640569309221966 -15.704946511857043 C-54.265828046980104 -15.765531772974414, -53.89108678473825 -15.826117034091787, -53.6280658369521 -15.868640221171937 M-54.640569309221966 -15.704946511857043 C-54.421963976564484 -15.74028892673143, -54.20335864390701 -15.775631341605818, -53.6280658369521 -15.868640221171937 M-53.6280658369521 -15.868640221171937 C-53.4182222807205 -15.8888835766678, -53.208378724488895 -15.909126932163662, -52.607154769691405 -15.967126284005381 M-53.6280658369521 -15.868640221171937 C-53.41946607130009 -15.888763589686464, -53.210866305648075 -15.908886958200991, -52.607154769691405 -15.967126284005381 M-52.607154769691405 -15.967126284005381 C-52.25728815476246 -15.978345825372099, -51.90742153983352 -15.989565366738816, -51.58203125000001 -16 M-52.607154769691405 -15.967126284005381 C-52.389959115722014 -15.974091325882485, -52.172763461752616 -15.98105636775959, -51.58203125000001 -16 M-51.58203125000001 -16 C-51.58203125000001 -16, -51.58203125 -16, -51.58203125 -16 M-51.58203125000001 -16 C-51.58203125000001 -16, -51.58203125 -16, -51.58203125 -16" stroke="#999" stroke-width="1.3" fill="none" stroke-dasharray="0 0" style=""/></g><g class="label" style="" transform="translate(0, -8.5)"><rect/><g><rect class="background" style="stroke: none"/><text y="-10.1" style=""><tspan class="text-outer-tspan row" x="0" y="-0.1em" dy="1.1em"><tspan font-style="normal" class="text-inner-tspan" font-weight="normal">ISBN</tspan><tspan font-style="normal" class="text-inner-tspan" font-weight="normal"> ingresado</tspan></tspan></text></g></g></g><g class="node default" id="my-svg-flowchart-B-1" data-look="classic" transform="translate(201.9140625, 113.5)"><rect class="basic label-container" style="" x="-101.0234375" y="-23.5" width="202.046875" height="47"/><g class="label" style="" transform="translate(0, -8.5)"><rect/><g><rect class="background" style="stroke: none"/><text y="-10.1" style=""><tspan class="text-outer-tspan row" x="0" y="-0.1em" dy="1.1em"><tspan font-style="normal" class="text-inner-tspan" font-weight="normal">Normalizar</tspan><tspan font-style="normal" class="text-inner-tspan" font-weight="normal"> y</tspan><tspan font-style="normal" class="text-inner-tspan" font-weight="normal"> validar</tspan></tspan></text></g></g></g><g class="node default" id="my-svg-flowchart-C-3" data-look="classic" transform="translate(201.9140625, 270.9406204223633)"><polygon points="83.94062423706055,0 167.8812484741211,-83.94062423706055 83.94062423706055,-167.8812484741211 0,-83.94062423706055" class="label-container" transform="translate(-83.44062423706055, 83.94062423706055)"/><g class="label" style="" transform="translate(0, -17.299999237060547)"><rect/><g><rect class="background" style="stroke: none"/><text y="-10.1" style=""><tspan class="text-outer-tspan row" x="0" y="-0.1em" dy="1.1em"><tspan font-style="normal" class="text-inner-tspan" font-weight="normal">Dígito</tspan><tspan font-style="normal" class="text-inner-tspan" font-weight="normal"> de</tspan></tspan><tspan class="text-outer-tspan row" x="0" y="1em" dy="1.1em"><tspan font-style="normal" class="text-inner-tspan" font-weight="normal">control</tspan><tspan font-style="normal" class="text-inner-tspan" font-weight="normal"> válido?</tspan></tspan></text></g></g></g><g class="node default" id="my-svg-flowchart-D-5" data-look="classic" transform="translate(278.21875, 994.8031005859375)"><rect class="basic label-container" style="fill:#ffebee !important;stroke:#c62828 !important" x="-76.56640625" y="-23.5" width="153.1328125" height="47"/><g class="label" style="" transform="translate(0, -8.5)"><rect/><g><rect class="background" style="stroke: none"/><text y="-10.1" style=""><tspan class="text-outer-tspan row" x="0" y="-0.1em" dy="1.1em"><tspan font-style="normal" class="text-inner-tspan" font-weight="normal">Mostrar</tspan><tspan font-style="normal" class="text-inner-tspan" font-weight="normal"> error</tspan></tspan></text></g></g></g><g class="node default" id="my-svg-flowchart-E-7" data-look="classic" transform="translate(321.931640625, 1193.5437202453613)"><rect class="basic label-container" style="fill:#fff3e0 !important;stroke:#e65100 !important" x="-102.03125" y="-32.29999923706055" width="204.0625" height="64.5999984741211"/><g class="label" style="" transform="translate(0, -17.299999237060547)"><rect/><g><rect class="background" style="stroke: none"/><text y="-10.1" style=""><tspan class="text-outer-tspan row" x="0" y="-0.1em" dy="1.1em"><tspan font-style="normal" class="text-inner-tspan" font-weight="normal">Ingreso</tspan><tspan font-style="normal" class="text-inner-tspan" font-weight="normal"> manual</tspan></tspan><tspan class="text-outer-tspan row" x="0" y="1em" dy="1.1em"><tspan font-style="normal" class="text-inner-tspan" font-weight="normal">(siempre</tspan><tspan font-style="normal" class="text-inner-tspan" font-weight="normal"> disponible)</tspan></tspan></text></g></g></g><g class="node default" id="my-svg-flowchart-F-9" data-look="classic" transform="translate(125.609375, 449.38124084472656)"><rect class="basic label-container" style="" x="-112.71875" y="-23.5" width="225.4375" height="47"/><g class="label" style="" transform="translate(0, -8.5)"><rect/><g><rect class="background" style="stroke: none"/><text y="-10.1" style=""><tspan class="text-outer-tspan row" x="0" y="-0.1em" dy="1.1em"><tspan font-style="normal" class="text-inner-tspan" font-weight="normal">Consultar</tspan><tspan font-style="normal" class="text-inner-tspan" font-weight="normal"> Open</tspan><tspan font-style="normal" class="text-inner-tspan" font-weight="normal"> Library</tspan></tspan></text></g></g></g><g class="node default" id="my-svg-flowchart-G-11" data-look="classic" transform="translate(125.609375, 618.3218612670898)"><polygon points="95.44062423706055,0 190.8812484741211,-95.44062423706055 95.44062423706055,-190.8812484741211 0,-95.44062423706055" class="label-container" transform="translate(-94.94062423706055, 95.44062423706055)"/><g class="label" style="" transform="translate(0, -17.299999237060547)"><rect/><g><rect class="background" style="stroke: none"/><text y="-10.1" style=""><tspan class="text-outer-tspan row" x="0" y="-0.1em" dy="1.1em"><tspan font-style="normal" class="text-inner-tspan" font-weight="normal">¿Metadatos</tspan><tspan font-style="normal" class="text-inner-tspan" font-weight="normal"> útiles</tspan></tspan><tspan class="text-outer-tspan row" x="0" y="1em" dy="1.1em"><tspan font-style="normal" class="text-inner-tspan" font-weight="normal">encontrados?</tspan></tspan></text></g></g></g><g class="node default" id="my-svg-flowchart-H-13" data-look="classic" transform="translate(125.609375, 817.0624809265137)"><rect class="basic label-container" style="fill:#e8f5e9 !important;stroke:#2e7d32 !important" x="-117.609375" y="-32.29999923706055" width="235.21875" height="64.5999984741211"/><g class="label" style="" transform="translate(0, -17.299999237060547)"><rect/><g><rect class="background" style="stroke: none"/><text y="-10.1" style=""><tspan class="text-outer-tspan row" x="0" y="-0.1em" dy="1.1em"><tspan font-style="normal" class="text-inner-tspan" font-weight="normal">Devolver</tspan><tspan font-style="normal" class="text-inner-tspan" font-weight="normal"> metadatos</tspan></tspan><tspan class="text-outer-tspan row" x="0" y="1em" dy="1.1em"><tspan font-style="normal" class="text-inner-tspan" font-weight="normal">Proveedor:</tspan><tspan font-style="normal" class="text-inner-tspan" font-weight="normal"> Open</tspan><tspan font-style="normal" class="text-inner-tspan" font-weight="normal"> Library</tspan></tspan></text></g></g></g><g class="node default" id="my-svg-flowchart-I-15" data-look="classic" transform="translate(563.7593727111816, 817.0624809265137)"><rect class="basic label-container" style="" x="-116.2890625" y="-32.29999923706055" width="232.578125" height="64.5999984741211"/><g class="label" style="" transform="translate(0, -17.299999237060547)"><rect/><g><rect class="background" style="stroke: none"/><text y="-10.1" style=""><tspan class="text-outer-tspan row" x="0" y="-0.1em" dy="1.1em"><tspan font-style="normal" class="text-inner-tspan" font-weight="normal">Consultar</tspan><tspan font-style="normal" class="text-inner-tspan" font-weight="normal"> API</tspan><tspan font-style="normal" class="text-inner-tspan" font-weight="normal"> de</tspan></tspan><tspan class="text-outer-tspan row" x="0" y="1em" dy="1.1em"><tspan font-style="normal" class="text-inner-tspan" font-weight="normal">metadatos</tspan><tspan font-style="normal" class="text-inner-tspan" font-weight="normal"> de</tspan><tspan font-style="normal" class="text-inner-tspan" font-weight="normal"> Let</tspan><tspan font-style="normal" class="text-inner-tspan" font-weight="normal"> Books</tspan></tspan></text></g></g></g><g class="node default" id="my-svg-flowchart-J-17" data-look="classic" transform="translate(563.7593727111816, 994.8031005859375)"><polygon points="95.44062423706055,0 190.8812484741211,-95.44062423706055 95.44062423706055,-190.8812484741211 0,-95.44062423706055" class="label-container" transform="translate(-94.94062423706055, 95.44062423706055)"/><g class="label" style="" transform="translate(0, -17.299999237060547)"><rect/><g><rect class="background" style="stroke: none"/><text y="-10.1" style=""><tspan class="text-outer-tspan row" x="0" y="-0.1em" dy="1.1em"><tspan font-style="normal" class="text-inner-tspan" font-weight="normal">¿Metadatos</tspan><tspan font-style="normal" class="text-inner-tspan" font-weight="normal"> útiles</tspan></tspan><tspan class="text-outer-tspan row" x="0" y="1em" dy="1.1em"><tspan font-style="normal" class="text-inner-tspan" font-weight="normal">encontrados?</tspan></tspan></text></g></g></g><g class="node default" id="my-svg-flowchart-K-19" data-look="classic" transform="translate(612.3902320861816, 1193.5437202453613)"><rect class="basic label-container" style="fill:#e8f5e9 !important;stroke:#2e7d32 !important" x="-109.6171875" y="-32.29999923706055" width="219.234375" height="64.5999984741211"/><g class="label" style="" transform="translate(0, -17.299999237060547)"><rect/><g><rect class="background" style="stroke: none"/><text y="-10.1" style=""><tspan class="text-outer-tspan row" x="0" y="-0.1em" dy="1.1em"><tspan font-style="normal" class="text-inner-tspan" font-weight="normal">Devolver</tspan><tspan font-style="normal" class="text-inner-tspan" font-weight="normal"> metadatos</tspan></tspan><tspan class="text-outer-tspan row" x="0" y="1em" dy="1.1em"><tspan font-style="normal" class="text-inner-tspan" font-weight="normal">Fuente:</tspan><tspan font-style="normal" class="text-inner-tspan" font-weight="normal"> Let</tspan><tspan font-style="normal" class="text-inner-tspan" font-weight="normal"> Books</tspan><tspan font-style="normal" class="text-inner-tspan" font-weight="normal"> API</tspan></tspan></text></g></g></g></g></g></g><defs><filter id="my-svg-drop-shadow" height="130%" width="130%"><feDropShadow dx="4" dy="4" stdDeviation="0" flood-opacity="0.06" flood-color="#000000"/></filter></defs><defs><filter id="my-svg-drop-shadow-small" height="150%" width="150%"><feDropShadow dx="2" dy="2" stdDeviation="0" flood-opacity="0.06" flood-color="#000000"/></filter></defs><linearGradient id="my-svg-gradient" gradientUnits="objectBoundingBox" x1="0%" y1="0%" x2="100%" y2="0%"><stop offset="0%" stop-color="hsl(0, 0%, 83.3333333333%)" stop-opacity="1"/><stop offset="100%" stop-color="hsl(0, 0%, 88.9215686275%)" stop-opacity="1"/></linearGradient><text text-anchor="middle" x="365.00372314453125" y="-25" class="flowchartTitleText">Cadena de búsqueda de metadatos ISBN</text></svg>