<svg id="my-svg" width="100%" xmlns="http://www.w3.org/2000/svg" xmlns:xlink="http://www.w3.org/1999/xlink" class="flowchart" style="max-width: 693.317px; background-color: transparent;" viewBox="0 -49 693.3171997070312 1316.7030029296875" role="graphics-document document" aria-roledescription="flowchart-v2"><style>#my-svg{font-family:"trebuchet ms",verdana,arial,sans-serif;font-size:16px;fill:#000000;}@keyframes edge-animation-frame{from{stroke-dashoffset:0;}}@keyframes dash{to{stroke-dashoffset:0;}}#my-svg .edge-animation-slow{stroke-dasharray:9,5!important;stroke-dashoffset:900;animation:dash 50s linear infinite;stroke-linecap:round;}#my-svg .edge-animation-fast{stroke-dasharray:9,5!important;stroke-dashoffset:900;animation:dash 20s linear infinite;stroke-linecap:round;}#my-svg .error-icon{fill:#552222;}#my-svg .error-text{fill:#552222;stroke:#552222;}#my-svg .edge-thickness-normal{stroke-width:1px;}#my-svg .edge-thickness-thick{stroke-width:3.5px;}#my-svg .edge-pattern-solid{stroke-dasharray:0;}#my-svg .edge-thickness-invisible{stroke-width:0;fill:none;}#my-svg .edge-pattern-dashed{stroke-dasharray:3;}#my-svg .edge-pattern-dotted{stroke-dasharray:2;}#my-svg .marker{fill:#666;stroke:#666;}#my-svg .marker.cross{stroke:#666;}#my-svg svg{font-family:"trebuchet ms",verdana,arial,sans-serif;font-size:16px;}#my-svg p{margin:0;}#my-svg .label{font-family:"trebuchet ms",verdana,arial,sans-serif;color:#000000;}#my-svg .cluster-label text{fill:#333;}#my-svg .cluster-label span{color:#333;}#my-svg .cluster-label span p{background-color:transparent;}#my-svg .label text,#my-svg span{fill:#000000;color:#000000;}#my-svg .node rect,#my-svg .node circle,#my-svg .node ellipse,#my-svg .node polygon,#my-svg .node path{fill:#eee;stroke:#999;stroke-width:1px;}#my-svg .rough-node .label text,#my-svg .node .label text,#my-svg .image-shape .label,#my-svg .icon-shape .label{text-anchor:middle;}#my-svg .node .katex path{fill:#000;stroke:#000;stroke-width:1px;}#my-svg .rough-node .label,#my-svg .node .label,#my-svg .image-shape .label,#my-svg .icon-shape .label{text-align:center;}#my-svg .node.clickable{cursor:pointer;}#my-svg .root .anchor path{fill:#666!important;stroke-width:0;stroke:#666;}#my-svg .arrowheadPath{fill:#333333;}#my-svg .edgePath .path{stroke:#666;stroke-width:1px;}#my-svg .flowchart-link{stroke:#666;fill:none;}#my-svg .edgeLabel{background-color:white;text-align:center;}#my-svg .edgeLabel p{background-color:white;}#my-svg .edgeLabel rect{opacity:0.5;background-color:white;fill:white;}#my-svg .labelBkg{background-color:rgba(255, 255, 255, 0.5);}#my-svg .cluster rect{fill:hsl(0, 0%, 98.9215686275%);stroke:#707070;stroke-width:1px;}#my-svg .cluster text{fill:#333;}#my-svg .cluster span{color:#333;}#my-svg div.mermaidTooltip{position:absolute;text-align:center;max-width:200px;padding:2px;font-family:"trebuchet ms",verdana,arial,sans-serif;font-size:12px;background:hsl(-160, 0%, 93.3333333333%);border:1px solid #707070;border-radius:2px;pointer-events:none;z-index:100;}#my-svg .flowchartTitleText{text-anchor:middle;font-size:18px;fill:#000000;}#my-svg rect.text{fill:none;stroke-width:0;}#my-svg .icon-shape,#my-svg .image-shape{background-color:white;text-align:center;}#my-svg .icon-shape p,#my-svg .image-shape p{background-color:white;padding:2px;}#my-svg .icon-shape .label rect,#my-svg .image-shape .label rect{opacity:0.5;background-color:white;fill:white;}#my-svg .label-icon{display:inline-block;height:1em;overflow:visible;vertical-align:-0.125em;}#my-svg .node .label-icon path{fill:currentColor;stroke:revert;stroke-width:revert;}#my-svg .node .neo-node{stroke:#999;}#my-svg [data-look="neo"].node rect,#my-svg [data-look="neo"].cluster rect,#my-svg [data-look="neo"].node polygon{stroke:url(#my-svg-gradient);filter:drop-shadow( 1px 2px 2px rgba(185,185,185,1));}#my-svg [data-look="neo"].node path{stroke:url(#my-svg-gradient);stroke-width:1px;}#my-svg [data-look="neo"].node .outer-path{filter:drop-shadow( 1px 2px 2px rgba(185,185,185,1));}#my-svg [data-look="neo"].node .neo-line path{stroke:#999;filter:none;}#my-svg [data-look="neo"].node circle{stroke:url(#my-svg-gradient);filter:drop-shadow( 1px 2px 2px rgba(185,185,185,1));}#my-svg [data-look="neo"].node circle .state-start{fill:#000000;}#my-svg [data-look="neo"].icon-shape .icon{fill:url(#my-svg-gradient);filter:drop-shadow( 1px 2px 2px rgba(185,185,185,1));}#my-svg [data-look="neo"].icon-shape .icon-neo path{stroke:url(#my-svg-gradient);filter:drop-shadow( 1px 2px 2px rgba(185,185,185,1));}#my-svg :root{--mermaid-font-family:"trebuchet ms",verdana,arial,sans-serif;}</style><g><marker id="my-svg_flowchart-v2-pointEnd" class="marker flowchart-v2" viewBox="0 0 10 10" refX="5" refY="5" markerUnits="userSpaceOnUse" markerWidth="8" markerHeight="8" orient="auto"><path d="M 0 0 L 10 5 L 0 10 z" class="arrowMarkerPath" style="stroke-width: 1; stroke-dasharray: 1, 0;"/></marker><marker id="my-svg_flowchart-v2-pointStart" class="marker flowchart-v2" viewBox="0 0 10 10" refX="4.5" refY="5" markerUnits="userSpaceOnUse" markerWidth="8" markerHeight="8" orient="auto"><path d="M 0 5 L 10 10 L 10 0 z" class="arrowMarkerPath" style="stroke-width: 1; stroke-dasharray: 1, 0;"/></marker><marker id="my-svg_flowchart-v2-pointEnd-margin" class="marker flowchart-v2" viewBox="0 0 11.5 14" refX="11.5" refY="7" markerUnits="userSpaceOnUse" markerWidth="10.5" markerHeight="14" orient="auto"><path d="M 0 0 L 11.5 7 L 0 14 z" class="arrowMarkerPath" style="stroke-width: 0; stroke-dasharray: 1, 0;"/></marker><marker id="my-svg_flowchart-v2-pointStart-margin" class="marker flowchart-v2" viewBox="0 0 11.5 14" refX="1" refY="7" markerUnits="userSpaceOnUse" markerWidth="11.5" markerHeight="14" orient="auto"><polygon points="0,7 11.5,14 11.5,0" class="arrowMarkerPath" style="stroke-width: 0; stroke-dasharray: 1, 0;"/></marker><marker id="my-svg_flowchart-v2-circleEnd" class="marker flowchart-v2" viewBox="0 0 10 10" refX="11" refY="5" markerUnits="userSpaceOnUse" markerWidth="11" markerHeight="11" orient="auto"><circle cx="5" cy="5" r="5" class="arrowMarkerPath" style="stroke-width: 1; stroke-dasharray: 1, 0;"/></marker><marker id="my-svg_flowchart-v2-circleStart" class="marker flowchart-v2" viewBox="0 0 10 10" refX="-1" refY="5" markerUnits="userSpaceOnUse" markerWidth="11" markerHeight="11" orient="auto"><circle cx="5" cy="5" r="5" class="arrowMarkerPath" style="stroke-width: 1; stroke-dasharray: 1, 0;"/></marker><marker id="my-svg_flowchart-v2-circleEnd-margin" class="marker flowchart-v2" viewBox="0 0 10 10" refY="5" refX="12.25" markerUnits="userSpaceOnUse" markerWidth="14" markerHeight="14" orient="auto"><circle cx="5" cy="5" r="5" class="arrowMarkerPath" style="stroke-width: 0; stroke-dasharray: 1, 0;"/></marker><marker id="my-svg_flowchart-v2-circleStart-margin" class="marker flowchart-v2" viewBox="0 0 10 10" refX="-2" refY="5" markerUnits="userSpaceOnUse" markerWidth="14" markerHeight="14" orient="auto"><circle cx="5" cy="5" r="5" class="arrowMarkerPath" style="stroke-width: 0; stroke-dasharray: 1, 0;"/></marker><marker id="my-svg_flowchart-v2-crossEnd" class="marker cross flowchart-v2" viewBox="0 0 11 11" refX="12" refY="5.2" markerUnits="userSpaceOnUse" markerWidth="11" markerHeight="11" orient="auto"><path d="M 1,1 l 9,9 M 10,1 l -9,9" class="arrowMarkerPath" style="stroke-width: 2; stroke-dasharray: 1, 0;"/></marker><marker id="my-svg_flowchart-v2-crossStart" class="marker cross flowchart-v2" viewBox="0 0 11 11" refX="-1" refY="5.2" markerUnits="userSpaceOnUse" markerWidth="11" markerHeight="11" orient="auto"><path d="M 1,1 l 9,9 M 10,1 l -9,9" class="arrowMarkerPath" style="stroke-width: 2; stroke-dasharray: 1, 0;"/></marker><marker id="my-svg_flowchart-v2-crossEnd-margin" class="marker cross flowchart-v2" viewBox="0 0 15 15" refX="17.7" refY="7.5" markerUnits="userSpaceOnUse" markerWidth="12" markerHeight="12" orient="auto"><path d="M 1,1 L 14,14 M 1,14 L 14,1" class="arrowMarkerPath" style="stroke-width: 2.5;"/></marker><marker id="my-svg_flowchart-v2-crossStart-margin" class="marker cross flowchart-v2" viewBox="0 0 15 15" refX="-3.5" refY="7.5" markerUnits="userSpaceOnUse" markerWidth="12" markerHeight="12" orient="auto"><path d="M 1,1 L 14,14 M 1,14 L 14,1" class="arrowMarkerPath" style="stroke-width: 2.5; stroke-dasharray: 1, 0;"/></marker><g class="root"><g class="clusters"/><g class="edgePaths"><path d="M201.463,40.5L201.379,44.583C201.296,48.667,201.129,56.833,201.046,64.417C200.963,72,200.963,79,200.963,82.5L200.963,86" id="my-svg-L_A_B_0" class="edge-thickness-normal edge-pattern-solid edge-thickness-normal edge-pattern-solid flowchart-link" style=";" data-edge="true" data-et="edge" data-id="L_A_B_0" data-points="W3sieCI6MjAxLjQ2MjUwMTUyNTg3ODksInkiOjQwLjUwMDAwMDAwMDAwMDAxNH0seyJ4IjoyMDAuOTYyNTAxNTI1ODc4OSwieSI6NjV9LHsieCI6MjAwLjk2MjUwMTUyNTg3ODksInkiOjkwfV0=" data-look="classic" marker-end="url(#my-svg_flowchart-v2-pointEnd)"/><path d="M200.963,137L200.963,141.167C200.963,145.333,200.963,153.667,200.963,161.333C200.963,169,200.963,176,200.963,179.5L200.963,183" id="my-svg-L_B_C_0" class="edge-thickness-normal edge-pattern-solid edge-thickness-normal edge-pattern-solid flowchart-link" style=";" data-edge="true" data-et="edge" data-id="L_B_C_0" data-points="W3sieCI6MjAwLjk2MjUwMTUyNTg3ODksInkiOjEzN30seyJ4IjoyMDAuOTYyNTAxNTI1ODc4OSwieSI6MTYyfSx7IngiOjIwMC45NjI1MDE1MjU4Nzg5LCJ5IjoxODYuOTk5OTk5OTk5OTk5OTd9XQ==" data-look="classic" marker-end="url(#my-svg_flowchart-v2-pointEnd)"/><path d="M234.754,329.98L241.903,341.529C249.051,353.077,263.347,376.175,270.496,397.557C277.644,418.939,277.644,438.605,277.644,456.522C277.644,474.439,277.644,490.605,277.644,519.802C277.644,548.999,277.644,591.227,277.644,635.205C277.644,679.182,277.644,724.91,277.644,759.074C277.644,793.237,277.644,815.837,277.644,836.687C277.644,857.537,277.644,876.637,277.644,902.718C277.644,928.798,277.644,961.859,277.644,978.39L277.644,994.92" id="my-svg-L_C_D_0" class="edge-thickness-normal edge-pattern-solid edge-thickness-normal edge-pattern-solid flowchart-link" style=";" data-edge="true" data-et="edge" data-id="L_C_D_0" data-points="W3sieCI6MjM0Ljc1NDM5MDEyNjI3MDUyLCJ5IjozMjkuOTc5OTc3MjQ0MzM1fSx7IngiOjI3Ny42NDM3NTMwNTE3NTc4LCJ5IjozOTkuMjcxODY1ODQ0NzI2NTZ9LHsieCI6Mjc3LjY0Mzc1MzA1MTc1NzgsInkiOjQ1OC4yNzE4NjU4NDQ3MjY1Nn0seyJ4IjoyNzcuNjQzNzUzMDUxNzU3OCwieSI6NTA2Ljc3MTg2NTg0NDcyNjU2fSx7IngiOjI3Ny42NDM3NTMwNTE3NTc4LCJ5Ijo2MzMuNDU0NjgxMzk2NDg0NH0seyJ4IjoyNzcuNjQzNzUzMDUxNzU3OCwieSI6NzcwLjYzNzQ5Njk0ODI0MjJ9LHsieCI6Mjc3LjY0Mzc1MzA1MTc1NzgsInkiOjgzOC40Mzc0OTYxODUzMDI3fSx7IngiOjI3Ny42NDM3NTMwNTE3NTc4LCJ5Ijo4OTUuNzM3NDk1NDIyMzYzM30seyJ4IjoyNzcuNjQzNzUzMDUxNzU3OCwieSI6OTk4LjkyMDMxMDk3NDEyMTF9XQ==" data-look="classic" marker-end="url(#my-svg_flowchart-v2-pointEnd)"/><path d="M277.644,1045.92L277.644,1064.867C277.644,1083.815,277.644,1121.709,281.043,1146.01C284.442,1170.311,291.241,1181.019,294.641,1186.372L298.04,1191.726" id="my-svg-L_D_E_0" class="edge-thickness-normal edge-pattern-solid edge-thickness-normal edge-pattern-solid flowchart-link" style=";" data-edge="true" data-et="edge" data-id="L_D_E_0" data-points="W3sieCI6Mjc3LjY0Mzc1MzA1MTc1NzgsInkiOjEwNDUuOTIwMzEwOTc0MTIxfSx7IngiOjI3Ny42NDM3NTMwNTE3NTc4LCJ5IjoxMTU5LjYwMzEyNjUyNTg3OX0seyJ4IjozMDAuMTg0MDY4OTE2NTcxOSwieSI6MTE5NS4xMDMxMjY1MjU4Nzl9XQ==" data-look="classic" marker-end="url(#my-svg_flowchart-v2-pointEnd)"/><path d="M167.171,329.98L160.022,341.529C152.874,353.077,138.578,376.175,131.429,392.973C124.281,409.772,124.281,420.272,124.281,425.522L124.281,430.772" id="my-svg-L_C_F_0" class="edge-thickness-normal edge-pattern-solid edge-thickness-normal edge-pattern-solid flowchart-link" style=";" data-edge="true" data-et="edge" data-id="L_C_F_0" data-points="W3sieCI6MTY3LjE3MDYxMjkyNTQ4NzI2LCJ5IjozMjkuOTc5OTc3MjQ0MzM1fSx7IngiOjEyNC4yODEyNSwieSI6Mzk5LjI3MTg2NTg0NDcyNjU2fSx7IngiOjEyNC4yODEyNSwieSI6NDM0Ljc3MTg2NTg0NDcyNjU2fV0=" data-look="classic" marker-end="url(#my-svg_flowchart-v2-pointEnd)"/><path d="M124.281,481.772L124.281,485.939C124.281,490.105,124.281,498.439,124.281,506.105C124.281,513.772,124.281,520.772,124.281,524.272L124.281,527.772" id="my-svg-L_F_G_0" class="edge-thickness-normal edge-pattern-solid edge-thickness-normal edge-pattern-solid flowchart-link" style=";" data-edge="true" data-et="edge" data-id="L_F_G_0" data-points="W3sieCI6MTI0LjI4MTI1LCJ5Ijo0ODEuNzcxODY1ODQ0NzI2NTZ9LHsieCI6MTI0LjI4MTI1LCJ5Ijo1MDYuNzcxODY1ODQ0NzI2NTZ9LHsieCI6MTI0LjI4MTI1LCJ5Ijo1MzEuNzcxODY1ODQ0NzI2NH1d" data-look="classic" marker-end="url(#my-svg_flowchart-v2-pointEnd)"/><path d="M124.281,735.137L124.281,741.054C124.281,746.971,124.281,758.804,124.281,769.971C124.281,781.137,124.281,791.637,124.281,796.887L124.281,802.137" id="my-svg-L_G_H_0" class="edge-thickness-normal edge-pattern-solid edge-thickness-normal edge-pattern-solid flowchart-link" style=";" data-edge="true" data-et="edge" data-id="L_G_H_0" data-points="W3sieCI6MTI0LjI4MTI1LCJ5Ijo3MzUuMTM3NDk2OTQ4MjQyM30seyJ4IjoxMjQuMjgxMjUsInkiOjc3MC42Mzc0OTY5NDgyNDIyfSx7IngiOjEyNC4yODEyNSwieSI6ODA2LjEzNzQ5Njk0ODI0MjJ9XQ==" data-look="classic" marker-end="url(#my-svg_flowchart-v2-pointEnd)"/><path d="M201.392,658.027L260.289,676.795C319.187,695.564,436.981,733.101,495.879,757.119C554.776,781.137,554.776,791.637,554.776,796.887L554.776,802.137" id="my-svg-L_G_I_0" class="edge-thickness-normal edge-pattern-solid edge-thickness-normal edge-pattern-solid flowchart-link" style=";" data-edge="true" data-et="edge" data-id="L_G_I_0" data-points="W3sieCI6MjAxLjM5MTc4ODE4NjQ5MTIzLCJ5Ijo2NTguMDI2OTU4NzYxNzUwOH0seyJ4Ijo1NTQuNzc2MTc2NDUyNjM2NywieSI6NzcwLjYzNzQ5Njk0ODI0MjJ9LHsieCI6NTU0Ljc3NjE3NjQ1MjYzNjcsInkiOjgwNi4xMzc0OTY5NDgyNDIyfV0=" data-look="classic" marker-end="url(#my-svg_flowchart-v2-pointEnd)"/><path d="M554.776,870.737L554.776,874.904C554.776,879.071,554.776,887.404,554.776,895.071C554.776,902.737,554.776,909.737,554.776,913.237L554.776,916.737" id="my-svg-L_I_J_0" class="edge-thickness-normal edge-pattern-solid edge-thickness-normal edge-pattern-solid flowchart-link" style=";" data-edge="true" data-et="edge" data-id="L_I_J_0" data-points="W3sieCI6NTU0Ljc3NjE3NjQ1MjYzNjcsInkiOjg3MC43Mzc0OTU0MjIzNjMzfSx7IngiOjU1NC43NzYxNzY0NTI2MzY3LCJ5Ijo4OTUuNzM3NDk1NDIyMzYzM30seyJ4Ijo1NTQuNzc2MTc2NDUyNjM2MywieSI6OTIwLjczNzQ5NTQyMjM2MzR9XQ==" data-look="classic" marker-end="url(#my-svg_flowchart-v2-pointEnd)"/><path d="M582.047,1096.832L585.881,1107.294C589.715,1117.756,597.383,1138.68,601.217,1154.391C605.052,1170.103,605.052,1180.603,605.052,1185.853L605.052,1191.103" id="my-svg-L_J_K_0" class="edge-thickness-normal edge-pattern-solid edge-thickness-normal edge-pattern-solid flowchart-link" style=";" data-edge="true" data-et="edge" data-id="L_J_K_0" data-points="W3sieCI6NTgyLjA0NzAxOTI0OTk1OTksInkiOjEwOTYuODMyMjgzNzI4NTU1N30seyJ4Ijo2MDUuMDUxNTY3MDc3NjM2NywieSI6MTE1OS42MDMxMjY1MjU4Nzl9LHsieCI6NjA1LjA1MTU2NzA3NzYzNjcsInkiOjExOTUuMTAzMTI2NTI1ODc5fV0=" data-look="classic" marker-end="url(#my-svg_flowchart-v2-pointEnd)"/><path d="M508.155,1077.482L496.567,1091.169C484.978,1104.856,461.801,1132.23,440.499,1151.501C419.197,1170.772,399.77,1181.941,390.056,1187.525L380.343,1193.109" id="my-svg-L_J_E_0" class="edge-thickness-normal edge-pattern-solid edge-thickness-normal edge-pattern-solid flowchart-link" style=";" data-edge="true" data-et="edge" data-id="L_J_E_0" data-points="W3sieCI6NTA4LjE1NTMzODc1MjkzNDMsInkiOjEwNzcuNDgyMjg4ODI2MTc2fSx7IngiOjQzOC42MjM4MzI3MDI2MzY3LCJ5IjoxMTU5LjYwMzEyNjUyNTg3OX0seyJ4IjozNzYuODc1MTY3ODYwNzYwNywieSI6MTE5NS4xMDMxMjY1MjU4Nzl9XQ==" data-look="classic" marker-end="url(#my-svg_flowchart-v2-pointEnd)"/></g><g class="edgeLabels"><g class="edgeLabel"><g class="label" data-id="L_A_B_0" transform="translate(0, 0)"><text y="-10.1" text-anchor="middle"><tspan class="text-outer-tspan row" x="0" y="-0.1em" dy="1.1em" text-anchor="middle"/></text></g></g><g><rect class="background" style="stroke: none"/></g><g class="edgeLabel"><g class="label" data-id="L_B_C_0" transform="translate(0, 0)"><text y="-10.1" text-anchor="middle"><tspan class="text-outer-tspan row" x="0" y="-0.1em" dy="1.1em" text-anchor="middle"/></text></g></g><g><rect class="background" style="stroke: none"/></g><g class="edgeLabel" transform="translate(277.6437530517578, 633.4546813964844)"><g class="label" data-id="L_C_D_0" transform="translate(0, -10.5)"><g><rect class="background" style="" x="-16.6796875" y="0" width="33.359375" height="21"/><text y="-10.1" text-anchor="middle" style=""><tspan class="text-outer-tspan row" x="0" y="-0.1em" dy="1.1em" text-anchor="middle"><tspan font-style="normal" class="text-inner-tspan" font-weight="normal">Non</tspan></tspan></text></g></g></g><g class="edgeLabel"><g class="label" data-id="L_D_E_0" transform="translate(0, 0)"><text y="-10.1" text-anchor="middle"><tspan class="text-outer-tspan row" x="0" y="-0.1em" dy="1.1em" text-anchor="middle"/></text></g></g><g><rect class="background" style="stroke: none"/></g><g class="edgeLabel" transform="translate(124.28125, 399.27186584472656)"><g class="label" data-id="L_C_F_0" transform="translate(0, -10.5)"><g><rect class="background" style="" x="-14.453125" y="0" width="28.90625" height="21"/><text y="-10.1" text-anchor="middle" style=""><tspan class="text-outer-tspan row" x="0" y="-0.1em" dy="1.1em" text-anchor="middle"><tspan font-style="normal" class="text-inner-tspan" font-weight="normal">Oui</tspan></tspan></text></g></g></g><g class="edgeLabel"><g class="label" data-id="L_F_G_0" transform="translate(0, 0)"><text y="-10.1" text-anchor="middle"><tspan class="text-outer-tspan row" x="0" y="-0.1em" dy="1.1em" text-anchor="middle"/></text></g></g><g><rect class="background" style="stroke: none"/></g><g class="edgeLabel" transform="translate(124.28125, 770.6374969482422)"><g class="label" data-id="L_G_H_0" transform="translate(0, -10.5)"><g><rect class="background" style="" x="-14.453125" y="0" width="28.90625" height="21"/><text y="-10.1" text-anchor="middle" style=""><tspan class="text-outer-tspan row" x="0" y="-0.1em" dy="1.1em" text-anchor="middle"><tspan font-style="normal" class="text-inner-tspan" font-weight="normal">Oui</tspan></tspan></text></g></g></g><g class="edgeLabel" transform="translate(554.7761764526367, 770.6374969482422)"><g class="label" data-id="L_G_I_0" transform="translate(-0.05078125, -10.5)"><g><rect class="background" style="" x="-66.046875" y="0" width="132.1953125" height="21"/><text y="-10.1" text-anchor="middle" style=""><tspan class="text-outer-tspan row" x="0" y="-0.1em" dy="1.1em" text-anchor="middle"><tspan font-style="normal" class="text-inner-tspan" font-weight="normal">Non</tspan><tspan font-style="normal" class="text-inner-tspan" font-weight="normal"> /</tspan><tspan font-style="normal" class="text-inner-tspan" font-weight="normal"> Indisponible</tspan></tspan></text></g></g></g><g class="edgeLabel"><g class="label" data-id="L_I_J_0" transform="translate(0, 0)"><text y="-10.1" text-anchor="middle"><tspan class="text-outer-tspan row" x="0" y="-0.1em" dy="1.1em" text-anchor="middle"/></text></g></g><g><rect class="background" style="stroke: none"/></g><g class="edgeLabel" transform="translate(605.0515670776367, 1159.603126525879)"><g class="label" data-id="L_J_K_0" transform="translate(0, -10.5)"><g><rect class="background" style="" x="-14.453125" y="0" width="28.90625" height="21"/><text y="-10.1" text-anchor="middle" style=""><tspan class="text-outer-tspan row" x="0" y="-0.1em" dy="1.1em" text-anchor="middle"><tspan font-style="normal" class="text-inner-tspan" font-weight="normal">Oui</tspan></tspan></text></g></g></g><g class="edgeLabel" transform="translate(450.37703, 1145.72191)"><g class="label" data-id="L_J_E_0" transform="translate(-0.05078125, -10.5)"><g><rect class="background" style="" x="-66.046875" y="0" width="132.1953125" height="21"/><text y="-10.1" text-anchor="middle" style=""><tspan class="text-outer-tspan row" x="0" y="-0.1em" dy="1.1em" text-anchor="middle"><tspan font-style="normal" class="text-inner-tspan" font-weight="normal">Non</tspan><tspan font-style="normal" class="text-inner-tspan" font-weight="normal"> /</tspan><tspan font-style="normal" class="text-inner-tspan" font-weight="normal"> Indisponible</tspan></tspan></text></g></g></g></g><g class="nodes"><g class="node default" id="my-svg-flowchart-A-0" data-look="classic" transform="translate(200.9625015258789, 24)"><g class="basic label-container outer-path"><path d="M-32.3984375 -16 C-7.220530308207547 -16, 17.957376883584907 -16, 32.3984375 -16 C32.3984375 -16, 32.3984375 -16, 32.3984375 -16 C32.69483811681834 -15.990495009127438, 32.99123873363667 -15.980990018254875, 33.423561019691405 -15.967126284005381 C33.68228977936725 -15.942167031726312, 33.94101853904309 -15.917207779447242, 34.444472086952096 -15.868640221171939 C34.80379886258076 -15.810547054709058, 35.16312563820943 -15.75245388824618, 35.45697555922195 -15.704946511857047 C35.76083759708135 -15.635591984600747, 36.064699634940744 -15.566237457344448, 36.45691084255211 -15.476717808624471 C36.71157719804477 -15.401134171085229, 36.96624355353744 -15.325550533545986, 37.440168988377934 -15.184891952170698 C37.78525096960003 -15.057898593178102, 38.130332950822115 -14.930905234185506, 38.40270957806999 -14.830668117536348 C38.67891957308468 -14.708398146221732, 38.955129568099366 -14.586128174907117, 39.34057732588093 -14.415501886438706 C39.63199284161401 -14.263470598541307, 39.92340835734708 -14.11143931064391, 40.249918332063004 -13.941099265974232 C40.48326094786832 -13.79964560099963, 40.71660356367364 -13.65819193602503, 41.12699591936878 -13.409409678269451 C41.31031315765299 -13.28153550851773, 41.49363039593721 -13.153661338766005, 41.968205987859456 -12.822617949887306 C42.272398988355924 -12.580032126907081, 42.57659198885239 -12.337446303926857, 42.77009182492461 -12.183135333906153 C43.02894597779383 -11.948050841175906, 43.28780013066305 -11.712966348445658, 43.529358309655784 -11.493589601563642 C43.74590068230898 -11.269991823339787, 43.96244305496218 -11.046394045115932, 44.24288545320505 -10.756814244181072 C44.46382875864528 -10.497281665580747, 44.68477206408551 -10.237749086980422, 44.90774121948848 -9.975836829739738 C45.03801665157134 -9.801279619084715, 45.16829208365421 -9.626722408429695, 45.52119357355129 -9.153866561954718 C45.71167739797913 -8.861232255564724, 45.90216122240698 -8.568597949174729, 46.080721708085534 -8.294281092968403 C46.27713425231315 -7.9455307317655, 46.47354679654075 -7.596780370562598, 46.584026401968 -7.400612643853364 C46.72920687522482 -7.09914228477109, 46.87438734848163 -6.797671925688816, 47.029039468252996 -6.476533489958305 C47.11686261533174 -6.259608618728778, 47.20468576241048 -6.042683747499249, 47.413932252796165 -5.52584087074093 C47.49380583825732 -5.285274357459527, 47.57367942371848 -5.0447078441781255, 47.73712314858657 -4.552441386096524 C47.83323214091719 -4.185936144439113, 47.9293411332478 -3.8194309027817024, 47.997284094909176 -3.560334943301032 C48.05611108310082 -3.2582707920253147, 48.11493807129246 -2.9562066407495973, 48.193346034631205 -2.5535983205340735 C48.237577453348806 -2.210548171441935, 48.2818088720664 -1.8674980223497966, 48.32450330718717 -1.536368414522911 C48.33878358978679 -1.3139414861971805, 48.35306387238641 -1.09151455787145, 48.390216959211 -0.5128252411464826 C48.390216959211 -0.19713502536268784, 48.390216959211 0.11855519042110696, 48.390216959211 0.5128252411464788 C48.37293458889445 0.7820121089049787, 48.3556522185779 1.0511989766634788, 48.32450330718717 1.5363684145229002 C48.284735785866914 1.8447974568975218, 48.24496826454666 2.1532264992721433, 48.193346034631205 2.5535983205340624 C48.129518534950826 2.881339041445979, 48.06569103527044 3.209079762357896, 47.997284094909176 3.5603349433010285 C47.89728950556228 3.9416576504099323, 47.79729491621537 4.322980357518836, 47.73712314858657 4.552441386096513 C47.66737566869215 4.762509682786727, 47.59762818879773 4.9725779794769425, 47.413932252796165 5.525840870740919 C47.26719788210627 5.88827760326103, 47.120463511416375 6.250714335781142, 47.029039468253 6.4765334899583005 C46.868747117289544 6.8093839864408015, 46.708454766326085 7.142234482923302, 46.584026401968 7.400612643853361 C46.45138553252489 7.636129938894089, 46.31874466308177 7.871647233934818, 46.08072170808554 8.294281092968399 C45.90485910325463 8.564453279710301, 45.72899649842372 8.834625466452202, 45.5211935735513 9.15386656195471 C45.39334060774653 9.325177888488305, 45.26548764194175 9.4964892150219, 44.90774121948848 9.975836829739734 C44.69310983090821 10.227955071638103, 44.47847844232794 10.480073313536472, 44.242885453205055 10.756814244181063 C44.09767411575402 10.906756872171782, 43.95246277830298 11.056699500162502, 43.529358309655784 11.493589601563638 C43.27376740397526 11.725710499537898, 43.01817649829475 11.957831397512159, 42.77009182492463 12.183135333906142 C42.57586795576004 12.338023701050682, 42.38164408659544 12.49291206819522, 41.96820598785946 12.822617949887304 C41.635735945201816 13.054534659249098, 41.30326590254417 13.28645136861089, 41.12699591936879 13.409409678269446 C40.783124968205094 13.617866269674892, 40.43925401704141 13.826322861080337, 40.249918332063004 13.94109926597423 C40.02810588470133 14.05681867768516, 39.80629343733967 14.172538089396088, 39.34057732588093 14.415501886438705 C38.96829020898044 14.580302349585606, 38.59600309207995 14.745102812732508, 38.402709578069995 14.830668117536346 C38.04072570566694 14.963881528722908, 37.67874183326387 15.09709493990947, 37.44016898837794 15.184891952170695 C37.1232146247203 15.278962343576877, 36.80626026106266 15.373032734983061, 36.45691084255213 15.476717808624468 C36.108535163922895 15.556232283907832, 35.760159485293656 15.635746759191196, 35.45697555922196 15.704946511857045 C35.22118143830507 15.743067876716172, 34.98538731738817 15.781189241575296, 34.4444720869521 15.868640221171937 C34.203711436158194 15.891866111596979, 33.96295078536429 15.915092002022021, 33.423561019691405 15.967126284005381 C33.19133220435682 15.974573410107194, 32.95910338902223 15.982020536209006, 32.3984375 16 C32.3984375 16, 32.3984375 16, 32.3984375 16 C14.997664443561394 16, -2.4031086128772117 16, -32.3984375 16 C-32.79061668704985 15.98742357680179, -33.18279587409969 15.974847153603582, -33.4235610196914 15.967126284005381 C-33.70472815284722 15.94000242882279, -33.985895286003036 15.9128785736402, -34.444472086952096 15.868640221171937 C-34.71210556196227 15.82537131646089, -34.97973903697244 15.782102411749841, -35.45697555922196 15.704946511857045 C-35.72077934961804 15.644735018179752, -35.984583140014124 15.58452352450246, -36.45691084255211 15.476717808624471 C-36.75569169584679 15.388041219699314, -37.054472549141465 15.299364630774157, -37.44016898837792 15.184891952170702 C-37.635449231060555 15.113027017712717, -37.83072947374319 15.041162083254733, -38.40270957806999 14.830668117536348 C-38.738283284063584 14.682119592333288, -39.07385699005719 14.533571067130229, -39.34057732588093 14.415501886438708 C-39.66564368476568 14.24591497522347, -39.99071004365044 14.076328064008235, -40.249918332063 13.941099265974234 C-40.48874431988773 13.79632154865759, -40.72757030771247 13.651543831340945, -41.12699591936877 13.409409678269457 C-41.30237209552918 13.287074849692258, -41.47774827168959 13.164740021115062, -41.968205987859456 12.822617949887308 C-42.280192653263256 12.57381688654162, -42.59217931866706 12.32501582319593, -42.77009182492461 12.183135333906154 C-43.001913670234785 11.972600867665369, -43.23373551554496 11.762066401424583, -43.52935830965578 11.493589601563649 C-43.71106312123348 11.305964465367197, -43.89276793281119 11.118339329170745, -44.24288545320505 10.756814244181069 C-44.44704587640363 10.51699579403484, -44.65120629960221 10.277177343888608, -44.90774121948847 9.97583682973974 C-45.12150741470287 9.689409602653463, -45.33527360991726 9.402982375567188, -45.52119357355129 9.15386656195472 C-45.732319141178486 8.829520994926371, -45.94344470880568 8.505175427898024, -46.080721708085534 8.29428109296841 C-46.185543855622804 8.108158755622561, -46.290366003160074 7.922036418276714, -46.584026401968 7.400612643853366 C-46.743859607419196 7.068715572851215, -46.90369281287039 6.736818501849065, -47.029039468252996 6.476533489958307 C-47.13343144857728 6.218683280275706, -47.23782342890155 5.960833070593106, -47.413932252796165 5.525840870740931 C-47.52441930903823 5.193071461061621, -47.63490636528029 4.860302051382311, -47.73712314858657 4.552441386096519 C-47.82792351693061 4.206180228472116, -47.91872388527465 3.8599190708477114, -47.997284094909176 3.5603349433010343 C-48.05962690230822 3.2402178034639597, -48.121969709707265 2.9201006636268856, -48.193346034631205 2.5535983205340753 C-48.22491972383568 2.3087190219942992, -48.25649341304016 2.063839723454523, -48.32450330718717 1.5363684145229202 C-48.34014416381667 1.2927494474462475, -48.35578502044616 1.0491304803695751, -48.390216959211 0.5128252411464846 C-48.390216959211 0.1716579078627224, -48.390216959211 -0.16950942542103986, -48.390216959211 -0.5128252411464769 C-48.37313788346593 -0.7788456318578527, -48.35605880772085 -1.0448660225692286, -48.32450330718717 -1.5363684145228982 C-48.29456506514463 -1.7685635078302588, -48.26462682310209 -2.0007586011376195, -48.193346034631205 -2.5535983205340678 C-48.130469332821185 -2.876456895332885, -48.06759263101116 -3.199315470131702, -47.997284094909176 -3.5603349433010267 C-47.94164070451731 -3.7725273068631453, -47.885997314125454 -3.984719670425264, -47.737123148586576 -4.552441386096511 C-47.664653642024305 -4.770707993414229, -47.59218413546204 -4.9889746007319475, -47.41393225279617 -5.525840870740911 C-47.305275994278645 -5.794223930005047, -47.196619735761125 -6.062606989269183, -47.029039468253 -6.476533489958299 C-46.87871307931006 -6.788689453067772, -46.72838669036712 -7.100845416177245, -46.584026401968 -7.400612643853359 C-46.41268374095797 -7.70484888880251, -46.24134107994793 -8.009085133751661, -46.080721708085534 -8.294281092968404 C-45.889225118869426 -8.588471278038595, -45.69772852965332 -8.882661463108784, -45.521193573551294 -9.153866561954715 C-45.35943566726149 -9.370607419934638, -45.19767776097167 -9.587348277914563, -44.90774121948848 -9.975836829739734 C-44.73455390318108 -10.179272506111875, -44.561366586873675 -10.382708182484016, -44.242885453205055 -10.756814244181063 C-43.99633517614543 -11.011397647399326, -43.7497848990858 -11.265981050617588, -43.52935830965579 -11.493589601563633 C-43.25437883448907 -11.743318685351829, -42.97939935932234 -11.993047769140025, -42.77009182492463 -12.18313533390614 C-42.47130074300271 -12.421413270574254, -42.17250966108079 -12.659691207242368, -41.96820598785946 -12.822617949887302 C-41.695465732214004 -13.012869745490198, -41.422725476568544 -13.203121541093093, -41.12699591936879 -13.409409678269444 C-40.800397780022934 -13.607395389644607, -40.47379964067708 -13.80538110101977, -40.249918332063004 -13.941099265974229 C-40.067747194426275 -14.036137831793129, -39.885576056789546 -14.13117639761203, -39.340577325880936 -14.415501886438705 C-39.005401132884074 -14.563874444429914, -38.67022493988721 -14.71224700242112, -38.402709578069995 -14.830668117536344 C-38.1630152347625 -14.918877851583725, -37.923320891455 -15.007087585631103, -37.44016898837794 -15.184891952170695 C-37.16108052415455 -15.267723943386954, -36.88199205993116 -15.350555934603213, -36.45691084255213 -15.476717808624466 C-36.122455030543684 -15.553055165187253, -35.78799921853524 -15.62939252175004, -35.456975559221966 -15.704946511857043 C-35.06114536718765 -15.768941267596167, -34.66531517515333 -15.83293602333529, -34.4444720869521 -15.868640221171937 C-34.136738334498325 -15.898326926167169, -33.82900458204454 -15.928013631162399, -33.423561019691405 -15.967126284005381 C-33.17735409616665 -15.975021660830116, -32.93114717264189 -15.98291703765485, -32.39843750000001 -16 C-32.39843750000001 -16, -32.3984375 -16, -32.3984375 -16" stroke="none" stroke-width="0" fill="#eee" style=""/><path d="M-32.3984375 -16 C-14.519328752223188 -16, 3.359779995553623 -16, 32.3984375 -16 M-32.3984375 -16 C-10.728007991685448 -16, 10.942421516629103 -16, 32.3984375 -16 M32.3984375 -16 C32.3984375 -16, 32.3984375 -16, 32.3984375 -16 M32.3984375 -16 C32.3984375 -16, 32.3984375 -16, 32.3984375 -16 M32.3984375 -16 C32.78728020761942 -15.987530571203061, 33.176122915238835 -15.975061142406123, 33.423561019691405 -15.967126284005381 M32.3984375 -16 C32.68329013925772 -15.990865330291031, 32.96814277851545 -15.981730660582064, 33.423561019691405 -15.967126284005381 M33.423561019691405 -15.967126284005381 C33.77633373863649 -15.933094724080016, 34.12910645758158 -15.899063164154652, 34.444472086952096 -15.868640221171939 M33.423561019691405 -15.967126284005381 C33.78084823563184 -15.932659215984353, 34.13813545157226 -15.898192147963325, 34.444472086952096 -15.868640221171939 M34.444472086952096 -15.868640221171939 C34.71357628298099 -15.825133541692196, 34.98268047900988 -15.781626862212454, 35.45697555922195 -15.704946511857047 M34.444472086952096 -15.868640221171939 C34.681065474041155 -15.830389637156498, 34.91765886113022 -15.79213905314106, 35.45697555922195 -15.704946511857047 M35.45697555922195 -15.704946511857047 C35.771007732805806 -15.633270717487976, 36.08503990638967 -15.561594923118905, 36.45691084255211 -15.476717808624471 M35.45697555922195 -15.704946511857047 C35.68571971125048 -15.652737151851628, 35.914463863278996 -15.60052779184621, 36.45691084255211 -15.476717808624471 M36.45691084255211 -15.476717808624471 C36.73939252166022 -15.392878729041778, 37.02187420076833 -15.309039649459082, 37.440168988377934 -15.184891952170698 M36.45691084255211 -15.476717808624471 C36.76018121703232 -15.386708753377427, 37.063451591512525 -15.296699698130382, 37.440168988377934 -15.184891952170698 M37.440168988377934 -15.184891952170698 C37.822619553114244 -15.044146609013472, 38.205070117850546 -14.903401265856246, 38.40270957806999 -14.830668117536348 M37.440168988377934 -15.184891952170698 C37.758506926078425 -15.067740648413281, 38.07684486377891 -14.950589344655864, 38.40270957806999 -14.830668117536348 M38.40270957806999 -14.830668117536348 C38.740504230235445 -14.681136445345034, 39.0782988824009 -14.53160477315372, 39.34057732588093 -14.415501886438706 M38.40270957806999 -14.830668117536348 C38.70269097756724 -14.697875250610963, 39.002672377064485 -14.565082383685578, 39.34057732588093 -14.415501886438706 M39.34057732588093 -14.415501886438706 C39.61834347519703 -14.270591464258207, 39.89610962451313 -14.125681042077707, 40.249918332063004 -13.941099265974232 M39.34057732588093 -14.415501886438706 C39.57269343673575 -14.294407060083211, 39.80480954759057 -14.173312233727717, 40.249918332063004 -13.941099265974232 M40.249918332063004 -13.941099265974232 C40.48757094608362 -13.797032854753155, 40.72522356010424 -13.652966443532076, 41.12699591936878 -13.409409678269451 M40.249918332063004 -13.941099265974232 C40.58531591842429 -13.737779278107022, 40.92071350478558 -13.53445929023981, 41.12699591936878 -13.409409678269451 M41.12699591936878 -13.409409678269451 C41.31820463667896 -13.276030754365832, 41.50941335398915 -13.142651830462212, 41.968205987859456 -12.822617949887306 M41.12699591936878 -13.409409678269451 C41.362860650012344 -13.244880652592128, 41.59872538065591 -13.080351626914803, 41.968205987859456 -12.822617949887306 M41.968205987859456 -12.822617949887306 C42.208755915403366 -12.630785783973447, 42.449305842947275 -12.43895361805959, 42.77009182492461 -12.183135333906153 M41.968205987859456 -12.822617949887306 C42.16492969884173 -12.665736025416745, 42.361653409824015 -12.508854100946184, 42.77009182492461 -12.183135333906153 M42.77009182492461 -12.183135333906153 C42.94693729461894 -12.02252895740449, 43.12378276431326 -11.861922580902826, 43.529358309655784 -11.493589601563642 M42.77009182492461 -12.183135333906153 C43.014714510149616 -11.96097548354638, 43.25933719537463 -11.738815633186604, 43.529358309655784 -11.493589601563642 M43.529358309655784 -11.493589601563642 C43.73243732910855 -11.283893840881086, 43.935516348561315 -11.07419808019853, 44.24288545320505 -10.756814244181072 M43.529358309655784 -11.493589601563642 C43.707099719281466 -11.310057003284005, 43.88484112890715 -11.126524405004366, 44.24288545320505 -10.756814244181072 M44.24288545320505 -10.756814244181072 C44.496486918473785 -10.458919532744247, 44.75008838374252 -10.16102482130742, 44.90774121948848 -9.975836829739738 M44.24288545320505 -10.756814244181072 C44.48946299713678 -10.467170230419136, 44.73604054106852 -10.177526216657201, 44.90774121948848 -9.975836829739738 M44.90774121948848 -9.975836829739738 C45.1382197248484 -9.667016629581232, 45.36869823020832 -9.358196429422726, 45.52119357355129 -9.153866561954718 M44.90774121948848 -9.975836829739738 C45.14301007298919 -9.660597999482256, 45.37827892648991 -9.345359169224773, 45.52119357355129 -9.153866561954718 M45.52119357355129 -9.153866561954718 C45.70207304440801 -8.875987121780012, 45.88295251526473 -8.598107681605306, 46.080721708085534 -8.294281092968403 M45.52119357355129 -9.153866561954718 C45.70217509736817 -8.875830341028148, 45.88315662118506 -8.597794120101579, 46.080721708085534 -8.294281092968403 M46.080721708085534 -8.294281092968403 C46.24794938485694 -7.997351419222279, 46.41517706162835 -7.700421745476156, 46.584026401968 -7.400612643853364 M46.080721708085534 -8.294281092968403 C46.21307130069162 -8.059280989446805, 46.3454208932977 -7.824280885925205, 46.584026401968 -7.400612643853364 M46.584026401968 -7.400612643853364 C46.692415408728955 -7.175540552161016, 46.800804415489914 -6.950468460468668, 47.029039468252996 -6.476533489958305 M46.584026401968 -7.400612643853364 C46.68542243510644 -7.190061611513839, 46.78681846824488 -6.979510579174314, 47.029039468252996 -6.476533489958305 M47.029039468252996 -6.476533489958305 C47.155645676489755 -6.163813707848997, 47.28225188472651 -5.851093925739689, 47.413932252796165 -5.52584087074093 M47.029039468252996 -6.476533489958305 C47.15859842650595 -6.156520358221469, 47.2881573847589 -5.836507226484633, 47.413932252796165 -5.52584087074093 M47.413932252796165 -5.52584087074093 C47.52070844419737 -5.204247994716262, 47.62748463559857 -4.882655118691595, 47.73712314858657 -4.552441386096524 M47.413932252796165 -5.52584087074093 C47.48767140401789 -5.303750295999327, 47.56141055523962 -5.081659721257725, 47.73712314858657 -4.552441386096524 M47.73712314858657 -4.552441386096524 C47.82806020532799 -4.205658976371769, 47.91899726206942 -3.8588765666470137, 47.997284094909176 -3.560334943301032 M47.73712314858657 -4.552441386096524 C47.80919961110736 -4.277582596368291, 47.88127607362815 -4.00272380664006, 47.997284094909176 -3.560334943301032 M47.997284094909176 -3.560334943301032 C48.071355908169046 -3.179991837294877, 48.145427721428916 -2.799648731288723, 48.193346034631205 -2.5535983205340735 M47.997284094909176 -3.560334943301032 C48.07538228642405 -3.159317235930767, 48.153480477938935 -2.758299528560502, 48.193346034631205 -2.5535983205340735 M48.193346034631205 -2.5535983205340735 C48.24317107812934 -2.1671651222302284, 48.292996121627475 -1.7807319239263832, 48.32450330718717 -1.536368414522911 M48.193346034631205 -2.5535983205340735 C48.23770311928954 -2.209573531221121, 48.28206020394788 -1.865548741908169, 48.32450330718717 -1.536368414522911 M48.32450330718717 -1.536368414522911 C48.341265527686076 -1.2752833000315555, 48.35802774818499 -1.0141981855402, 48.390216959211 -0.5128252411464826 M48.32450330718717 -1.536368414522911 C48.33797685274053 -1.3265070668790457, 48.3514503982939 -1.1166457192351802, 48.390216959211 -0.5128252411464826 M48.390216959211 -0.5128252411464826 C48.390216959211 -0.1871912319591823, 48.390216959211 0.13844277722811804, 48.390216959211 0.5128252411464788 M48.390216959211 -0.5128252411464826 C48.390216959211 -0.18221595514529604, 48.390216959211 0.14839333085589057, 48.390216959211 0.5128252411464788 M48.390216959211 0.5128252411464788 C48.3759500360201 0.7350440858979429, 48.3616831128292 0.957262930649407, 48.32450330718717 1.5363684145229002 M48.390216959211 0.5128252411464788 C48.37528021301236 0.7454771199148691, 48.36034346681372 0.9781289986832595, 48.32450330718717 1.5363684145229002 M48.32450330718717 1.5363684145229002 C48.29036030764847 1.801174776647213, 48.25621730810977 2.0659811387715257, 48.193346034631205 2.5535983205340624 M48.32450330718717 1.5363684145229002 C48.28054337817963 1.877312943035542, 48.23658344917209 2.2182574715481835, 48.193346034631205 2.5535983205340624 M48.193346034631205 2.5535983205340624 C48.13639043829388 2.8460532701566597, 48.07943484195656 3.138508219779257, 47.997284094909176 3.5603349433010285 M48.193346034631205 2.5535983205340624 C48.11525140228802 2.9545977523099296, 48.03715676994483 3.3555971840857963, 47.997284094909176 3.5603349433010285 M47.997284094909176 3.5603349433010285 C47.89873732995628 3.936136468504515, 47.80019056500339 4.311937993708002, 47.73712314858657 4.552441386096513 M47.997284094909176 3.5603349433010285 C47.91399836917779 3.8779395117766637, 47.830712643446404 4.195544080252299, 47.73712314858657 4.552441386096513 M47.73712314858657 4.552441386096513 C47.664101210898764 4.772371827946403, 47.59107927321096 4.992302269796292, 47.413932252796165 5.525840870740919 M47.73712314858657 4.552441386096513 C47.65990398029499 4.785013217787079, 47.58268481200342 5.0175850494776455, 47.413932252796165 5.525840870740919 M47.413932252796165 5.525840870740919 C47.28584964716436 5.842207382960189, 47.157767041532566 6.158573895179458, 47.029039468253 6.4765334899583005 M47.413932252796165 5.525840870740919 C47.32823724644746 5.737509193222459, 47.24254224009876 5.949177515703998, 47.029039468253 6.4765334899583005 M47.029039468253 6.4765334899583005 C46.87357646701066 6.799355738413383, 46.71811346576831 7.122177986868465, 46.584026401968 7.400612643853361 M47.029039468253 6.4765334899583005 C46.928336118877624 6.685646149642776, 46.827632769502245 6.894758809327251, 46.584026401968 7.400612643853361 M46.584026401968 7.400612643853361 C46.42821870936278 7.677264979313636, 46.27241101675756 7.95391731477391, 46.08072170808554 8.294281092968399 M46.584026401968 7.400612643853361 C46.394650949059056 7.736867936837211, 46.205275496150115 8.07312322982106, 46.08072170808554 8.294281092968399 M46.08072170808554 8.294281092968399 C45.913772043414085 8.550760610165833, 45.74682237874262 8.807240127363269, 45.5211935735513 9.15386656195471 M46.08072170808554 8.294281092968399 C45.94132648463272 8.508429589050532, 45.80193126117989 8.722578085132664, 45.5211935735513 9.15386656195471 M45.5211935735513 9.15386656195471 C45.31795861941894 9.426182885406858, 45.11472366528658 9.698499208859007, 44.90774121948848 9.975836829739734 M45.5211935735513 9.15386656195471 C45.388557859243896 9.331586335764483, 45.255922144936484 9.509306109574256, 44.90774121948848 9.975836829739734 M44.90774121948848 9.975836829739734 C44.74858530819979 10.162790419367331, 44.58942939691111 10.349744008994927, 44.242885453205055 10.756814244181063 M44.90774121948848 9.975836829739734 C44.759150163160484 10.150380339573223, 44.61055910683249 10.324923849406712, 44.242885453205055 10.756814244181063 M44.242885453205055 10.756814244181063 C43.98305566831833 11.025109829498678, 43.723225883431596 11.293405414816291, 43.529358309655784 11.493589601563638 M44.242885453205055 10.756814244181063 C44.03889865445144 10.967447361521813, 43.83491185569782 11.178080478862562, 43.529358309655784 11.493589601563638 M43.529358309655784 11.493589601563638 C43.263547706998295 11.734991757934019, 42.99773710434081 11.976393914304397, 42.77009182492463 12.183135333906142 M43.529358309655784 11.493589601563638 C43.272223890775074 11.727112277387192, 43.01508947189436 11.960634953210748, 42.77009182492463 12.183135333906142 M42.77009182492463 12.183135333906142 C42.57959935377451 12.335048010430807, 42.3891068826244 12.486960686955474, 41.96820598785946 12.822617949887304 M42.77009182492463 12.183135333906142 C42.53012735867468 12.37450061001784, 42.290162892424746 12.565865886129538, 41.96820598785946 12.822617949887304 M41.96820598785946 12.822617949887304 C41.688583881232766 13.017670226824183, 41.40896177460607 13.212722503761062, 41.12699591936879 13.409409678269446 M41.96820598785946 12.822617949887304 C41.78958827965801 12.94721393089267, 41.61097057145656 13.071809911898036, 41.12699591936879 13.409409678269446 M41.12699591936879 13.409409678269446 C40.82302026473075 13.593681506470254, 40.51904461009271 13.77795333467106, 40.249918332063004 13.94109926597423 M41.12699591936879 13.409409678269446 C40.85805330437564 13.572444271960531, 40.58911068938248 13.735478865651617, 40.249918332063004 13.94109926597423 M40.249918332063004 13.94109926597423 C40.01956227392925 14.06127587395251, 39.7892062157955 14.18145248193079, 39.34057732588093 14.415501886438705 M40.249918332063004 13.94109926597423 C40.06248567564943 14.038882762768846, 39.87505301923586 14.13666625956346, 39.34057732588093 14.415501886438705 M39.34057732588093 14.415501886438705 C39.02715587353284 14.554244266076154, 38.71373442118475 14.692986645713603, 38.402709578069995 14.830668117536346 M39.34057732588093 14.415501886438705 C39.0255537991719 14.554953456871894, 38.710530272462876 14.694405027305084, 38.402709578069995 14.830668117536346 M38.402709578069995 14.830668117536346 C38.040663424965736 14.963904448596665, 37.67861727186148 15.097140779656984, 37.44016898837794 15.184891952170695 M38.402709578069995 14.830668117536346 C38.079526958500416 14.949602309005337, 37.75634433893084 15.068536500474329, 37.44016898837794 15.184891952170695 M37.44016898837794 15.184891952170695 C37.198999029033544 15.256469930177163, 36.95782906968914 15.328047908183633, 36.45691084255213 15.476717808624468 M37.44016898837794 15.184891952170695 C37.04846260217826 15.301148351485983, 36.65675621597858 15.41740475080127, 36.45691084255213 15.476717808624468 M36.45691084255213 15.476717808624468 C36.071733962456406 15.564631917992275, 35.686557082360686 15.65254602736008, 35.45697555922196 15.704946511857045 M36.45691084255213 15.476717808624468 C36.14928519962169 15.546931354178417, 35.84165955669124 15.617144899732365, 35.45697555922196 15.704946511857045 M35.45697555922196 15.704946511857045 C35.193681646433234 15.747513829801937, 34.93038773364451 15.790081147746829, 34.4444720869521 15.868640221171937 M35.45697555922196 15.704946511857045 C35.0944895542018 15.763550438027751, 34.73200354918164 15.822154364198457, 34.4444720869521 15.868640221171937 M34.4444720869521 15.868640221171937 C34.10461031951344 15.901426277133169, 33.76474855207477 15.9342123330944, 33.423561019691405 15.967126284005381 M34.4444720869521 15.868640221171937 C34.192335997439876 15.892963486489169, 33.94019990792765 15.917286751806401, 33.423561019691405 15.967126284005381 M33.423561019691405 15.967126284005381 C33.17011876010402 15.975253683974916, 32.91667650051663 15.983381083944453, 32.3984375 16 M33.423561019691405 15.967126284005381 C33.03680211898439 15.979528889170524, 32.650043218277375 15.991931494335665, 32.3984375 16 M32.3984375 16 C32.3984375 16, 32.3984375 16, 32.3984375 16 M32.3984375 16 C32.3984375 16, 32.3984375 16, 32.3984375 16 M32.3984375 16 C18.268746352747918 16, 4.139055205495833 16, -32.3984375 16 M32.3984375 16 C6.61791304852661 16, -19.16261140294678 16, -32.3984375 16 M-32.3984375 16 C-32.64034113707913 15.992242621195738, -32.88224477415827 15.984485242391475, -33.4235610196914 15.967126284005381 M-32.3984375 16 C-32.62193394264077 15.992832904093946, -32.845430385281546 15.98566580818789, -33.4235610196914 15.967126284005381 M-33.4235610196914 15.967126284005381 C-33.714769336405006 15.939033767921261, -34.00597765311861 15.91094125183714, -34.444472086952096 15.868640221171937 M-33.4235610196914 15.967126284005381 C-33.65222007475707 15.945067819965944, -33.88087912982274 15.923009355926506, -34.444472086952096 15.868640221171937 M-34.444472086952096 15.868640221171937 C-34.7485555414006 15.819478366459112, -35.052638995849094 15.77031651174629, -35.45697555922196 15.704946511857045 M-34.444472086952096 15.868640221171937 C-34.67171708169963 15.83190101273241, -34.89896207644718 15.795161804292881, -35.45697555922196 15.704946511857045 M-35.45697555922196 15.704946511857045 C-35.76416070419972 15.634833507086281, -36.07134584917747 15.564720502315515, -36.45691084255211 15.476717808624471 M-35.45697555922196 15.704946511857045 C-35.7652618341148 15.634582181368707, -36.07354810900764 15.564217850880366, -36.45691084255211 15.476717808624471 M-36.45691084255211 15.476717808624471 C-36.681482472074 15.410066127782914, -36.906054101595885 15.343414446941356, -37.44016898837792 15.184891952170702 M-36.45691084255211 15.476717808624471 C-36.7305155108728 15.395513379247104, -37.00412017919348 15.314308949869737, -37.44016898837792 15.184891952170702 M-37.44016898837792 15.184891952170702 C-37.65895735945573 15.104375809156537, -37.87774573053353 15.023859666142373, -38.40270957806999 14.830668117536348 M-37.44016898837792 15.184891952170702 C-37.81969922362508 15.045221317260712, -38.199229458872246 14.90555068235072, -38.40270957806999 14.830668117536348 M-38.40270957806999 14.830668117536348 C-38.678006358389126 14.708802399277904, -38.95330313870826 14.58693668101946, -39.34057732588093 14.415501886438708 M-38.40270957806999 14.830668117536348 C-38.75153870510468 14.676251810646491, -39.100367832139376 14.521835503756634, -39.34057732588093 14.415501886438708 M-39.34057732588093 14.415501886438708 C-39.56206551722855 14.299951638882613, -39.783553708576164 14.184401391326519, -40.249918332063 13.941099265974234 M-39.34057732588093 14.415501886438708 C-39.67082319277573 14.243212829212265, -40.00106905967052 14.070923771985822, -40.249918332063 13.941099265974234 M-40.249918332063 13.941099265974234 C-40.47688420431636 13.80351122041473, -40.70385007656973 13.665923174855225, -41.12699591936877 13.409409678269457 M-40.249918332063 13.941099265974234 C-40.441951430299596 13.824687673311459, -40.633984528536196 13.708276080648684, -41.12699591936877 13.409409678269457 M-41.12699591936877 13.409409678269457 C-41.411769600545185 13.21076388593476, -41.6965432817216 13.012118093600064, -41.968205987859456 12.822617949887308 M-41.12699591936877 13.409409678269457 C-41.31161621990081 13.280626548702305, -41.49623652043285 13.151843419135153, -41.968205987859456 12.822617949887308 M-41.968205987859456 12.822617949887308 C-42.245275677643214 12.601662245418861, -42.522345367426965 12.380706540950413, -42.77009182492461 12.183135333906154 M-41.968205987859456 12.822617949887308 C-42.27636070363146 12.57687276440051, -42.58451541940347 12.331127578913714, -42.77009182492461 12.183135333906154 M-42.77009182492461 12.183135333906154 C-42.92469820243752 12.042725912509523, -43.07930457995042 11.902316491112892, -43.52935830965578 11.493589601563649 M-42.77009182492461 12.183135333906154 C-42.94679858006548 12.02265493429175, -43.12350533520636 11.862174534677347, -43.52935830965578 11.493589601563649 M-43.52935830965578 11.493589601563649 C-43.75744697625998 11.258069326867016, -43.985535642864185 11.022549052170383, -44.24288545320505 10.756814244181069 M-43.52935830965578 11.493589601563649 C-43.74037780192384 11.275694650774357, -43.951397294191906 11.057799699985063, -44.24288545320505 10.756814244181069 M-44.24288545320505 10.756814244181069 C-44.40402420745525 10.567531494383918, -44.56516296170545 10.378248744586768, -44.90774121948847 9.97583682973974 M-44.24288545320505 10.756814244181069 C-44.503599719293284 10.450564432171822, -44.76431398538153 10.144314620162575, -44.90774121948847 9.97583682973974 M-44.90774121948847 9.97583682973974 C-45.033750335060745 9.80699609453948, -45.15975945063302 9.638155359339219, -45.52119357355129 9.15386656195472 M-44.90774121948847 9.97583682973974 C-45.0872665268152 9.735289273013878, -45.26679183414193 9.494741716288017, -45.52119357355129 9.15386656195472 M-45.52119357355129 9.15386656195472 C-45.67990390119465 8.910044879004229, -45.838614228838004 8.666223196053739, -46.080721708085534 8.29428109296841 M-45.52119357355129 9.15386656195472 C-45.64266650166181 8.967251524328521, -45.764139429772335 8.780636486702324, -46.080721708085534 8.29428109296841 M-46.080721708085534 8.29428109296841 C-46.22767152037832 8.033356820960506, -46.37462133267111 7.772432548952604, -46.584026401968 7.400612643853366 M-46.080721708085534 8.29428109296841 C-46.18642594654245 8.10659251387334, -46.292130184999365 7.918903934778268, -46.584026401968 7.400612643853366 M-46.584026401968 7.400612643853366 C-46.73839315528337 7.080066777674603, -46.892759908598734 6.759520911495841, -47.029039468252996 6.476533489958307 M-46.584026401968 7.400612643853366 C-46.69459001400783 7.171024937770349, -46.80515362604765 6.941437231687334, -47.029039468252996 6.476533489958307 M-47.029039468252996 6.476533489958307 C-47.16750812003566 6.134513242945857, -47.30597677181834 5.792492995933409, -47.413932252796165 5.525840870740931 M-47.029039468252996 6.476533489958307 C-47.12978823897954 6.227682078418762, -47.2305370097061 5.978830666879217, -47.413932252796165 5.525840870740931 M-47.413932252796165 5.525840870740931 C-47.533477050123764 5.165790988067028, -47.65302184745137 4.805741105393125, -47.73712314858657 4.552441386096519 M-47.413932252796165 5.525840870740931 C-47.5073307901782 5.244539357182281, -47.60072932756024 4.96323784362363, -47.73712314858657 4.552441386096519 M-47.73712314858657 4.552441386096519 C-47.83560491180866 4.176887740664525, -47.93408667503074 3.8013340952325305, -47.997284094909176 3.5603349433010343 M-47.73712314858657 4.552441386096519 C-47.79173251610345 4.34419219990504, -47.84634188362034 4.13594301371356, -47.997284094909176 3.5603349433010343 M-47.997284094909176 3.5603349433010343 C-48.0525732894295 3.276436614814576, -48.10786248394982 2.9925382863281182, -48.193346034631205 2.5535983205340753 M-47.997284094909176 3.5603349433010343 C-48.04750831459795 3.3024441900917725, -48.09773253428673 3.0445534368825107, -48.193346034631205 2.5535983205340753 M-48.193346034631205 2.5535983205340753 C-48.22816223280239 2.283570762754345, -48.26297843097357 2.0135432049746154, -48.32450330718717 1.5363684145229202 M-48.193346034631205 2.5535983205340753 C-48.22446701814261 2.3122301179528852, -48.25558800165402 2.070861915371695, -48.32450330718717 1.5363684145229202 M-48.32450330718717 1.5363684145229202 C-48.344388896766546 1.2266343054651867, -48.36427448634591 0.9169001964074532, -48.390216959211 0.5128252411464846 M-48.32450330718717 1.5363684145229202 C-48.34384102863382 1.235167793863616, -48.36317875008046 0.9339671732043119, -48.390216959211 0.5128252411464846 M-48.390216959211 0.5128252411464846 C-48.390216959211 0.2838090261828757, -48.390216959211 0.05479281121926671, -48.390216959211 -0.5128252411464769 M-48.390216959211 0.5128252411464846 C-48.390216959211 0.13925791346200295, -48.390216959211 -0.23430941422247875, -48.390216959211 -0.5128252411464769 M-48.390216959211 -0.5128252411464769 C-48.37006120720323 -0.8267673480977954, -48.34990545519545 -1.140709455049114, -48.32450330718717 -1.5363684145228982 M-48.390216959211 -0.5128252411464769 C-48.37441715149242 -0.7589199997386256, -48.358617343773844 -1.0050147583307742, -48.32450330718717 -1.5363684145228982 M-48.32450330718717 -1.5363684145228982 C-48.274267406403816 -1.9259881407979527, -48.22403150562046 -2.315607867073007, -48.193346034631205 -2.5535983205340678 M-48.32450330718717 -1.5363684145228982 C-48.2740435538798 -1.9277242967695682, -48.22358380057242 -2.3190801790162383, -48.193346034631205 -2.5535983205340678 M-48.193346034631205 -2.5535983205340678 C-48.12656116326154 -2.896524520029718, -48.05977629189188 -3.239450719525368, -47.997284094909176 -3.5603349433010267 M-48.193346034631205 -2.5535983205340678 C-48.117548779769066 -2.9428012044956326, -48.041751524906935 -3.3320040884571975, -47.997284094909176 -3.5603349433010267 M-47.997284094909176 -3.5603349433010267 C-47.9307827296943 -3.8139334707393555, -47.864281364479424 -4.067531998177684, -47.737123148586576 -4.552441386096511 M-47.997284094909176 -3.5603349433010267 C-47.932035665198875 -3.8091554846347355, -47.86678723548857 -4.057976025968444, -47.737123148586576 -4.552441386096511 M-47.737123148586576 -4.552441386096511 C-47.63600309867841 -4.85699886512791, -47.53488304877025 -5.161556344159308, -47.41393225279617 -5.525840870740911 M-47.737123148586576 -4.552441386096511 C-47.609773234224626 -4.935999037701352, -47.482423319862676 -5.319556689306194, -47.41393225279617 -5.525840870740911 M-47.41393225279617 -5.525840870740911 C-47.30764349898766 -5.788376147601192, -47.20135474517915 -6.050911424461473, -47.029039468253 -6.476533489958299 M-47.41393225279617 -5.525840870740911 C-47.31586198100046 -5.768076338136042, -47.21779170920475 -6.010311805531172, -47.029039468253 -6.476533489958299 M-47.029039468253 -6.476533489958299 C-46.8666133363659 -6.813814828184341, -46.7041872044788 -7.151096166410383, -46.584026401968 -7.400612643853359 M-47.029039468253 -6.476533489958299 C-46.93155322006024 -6.678965770202138, -46.83406697186747 -6.881398050445977, -46.584026401968 -7.400612643853359 M-46.584026401968 -7.400612643853359 C-46.46923550874455 -7.604435498609975, -46.3544446155211 -7.8082583533665915, -46.080721708085534 -8.294281092968404 M-46.584026401968 -7.400612643853359 C-46.4154202664739 -7.699989910645716, -46.24681413097979 -7.999367177438073, -46.080721708085534 -8.294281092968404 M-46.080721708085534 -8.294281092968404 C-45.892749691667255 -8.583056587740815, -45.70477767524898 -8.871832082513226, -45.521193573551294 -9.153866561954715 M-46.080721708085534 -8.294281092968404 C-45.86337412679487 -8.628185343828461, -45.64602654550419 -8.962089594688516, -45.521193573551294 -9.153866561954715 M-45.521193573551294 -9.153866561954715 C-45.39015557897025 -9.329445536886418, -45.259117584389216 -9.505024511818121, -44.90774121948848 -9.975836829739734 M-45.521193573551294 -9.153866561954715 C-45.33621695421113 -9.401718380153842, -45.15124033487096 -9.649570198352968, -44.90774121948848 -9.975836829739734 M-44.90774121948848 -9.975836829739734 C-44.658857265822235 -10.26819008361426, -44.40997331215599 -10.560543337488783, -44.242885453205055 -10.756814244181063 M-44.90774121948848 -9.975836829739734 C-44.718599036933696 -10.198013999863655, -44.52945685437892 -10.420191169987575, -44.242885453205055 -10.756814244181063 M-44.242885453205055 -10.756814244181063 C-44.06234606502334 -10.943235985038115, -43.88180667684163 -11.129657725895164, -43.52935830965579 -11.493589601563633 M-44.242885453205055 -10.756814244181063 C-44.047179931543745 -10.958896263018516, -43.85147440988243 -11.160978281855968, -43.52935830965579 -11.493589601563633 M-43.52935830965579 -11.493589601563633 C-43.226925732890365 -11.768250865854501, -42.924493156124946 -12.04291213014537, -42.77009182492463 -12.18313533390614 M-43.52935830965579 -11.493589601563633 C-43.3723081773304 -11.636218376422756, -43.21525804500501 -11.778847151281878, -42.77009182492463 -12.18313533390614 M-42.77009182492463 -12.18313533390614 C-42.52407620766347 -12.379326241921394, -42.278060590402305 -12.57551714993665, -41.96820598785946 -12.822617949887302 M-42.77009182492463 -12.18313533390614 C-42.57970482541594 -12.33496389960349, -42.38931782590724 -12.486792465300839, -41.96820598785946 -12.822617949887302 M-41.96820598785946 -12.822617949887302 C-41.63715963187013 -13.053541557059683, -41.30611327588079 -13.284465164232065, -41.12699591936879 -13.409409678269444 M-41.96820598785946 -12.822617949887302 C-41.68405499279001 -13.020829383349426, -41.399903997720564 -13.21904081681155, -41.12699591936879 -13.409409678269444 M-41.12699591936879 -13.409409678269444 C-40.90331328573169 -13.545007405285315, -40.679630652094595 -13.680605132301185, -40.249918332063004 -13.941099265974229 M-41.12699591936879 -13.409409678269444 C-40.81137781442435 -13.600739228264624, -40.49575970947991 -13.792068778259804, -40.249918332063004 -13.941099265974229 M-40.249918332063004 -13.941099265974229 C-39.94819215549524 -14.09850961902479, -39.64646597892748 -14.255919972075352, -39.340577325880936 -14.415501886438705 M-40.249918332063004 -13.941099265974229 C-39.962732908094836 -14.090923717707378, -39.675547484126675 -14.24074816944053, -39.340577325880936 -14.415501886438705 M-39.340577325880936 -14.415501886438705 C-38.98657674603584 -14.57220744208203, -38.632576166190745 -14.728912997725356, -38.402709578069995 -14.830668117536344 M-39.340577325880936 -14.415501886438705 C-39.0928811673034 -14.525149628195498, -38.84518500872586 -14.63479736995229, -38.402709578069995 -14.830668117536344 M-38.402709578069995 -14.830668117536344 C-38.13851367769751 -14.92789465107355, -37.87431777732502 -15.025121184610759, -37.44016898837794 -15.184891952170695 M-38.402709578069995 -14.830668117536344 C-38.09116693741799 -14.945318689164884, -37.77962429676599 -15.059969260793421, -37.44016898837794 -15.184891952170695 M-37.44016898837794 -15.184891952170695 C-37.099257664928956 -15.2860726434903, -36.75834634147998 -15.387253334809904, -36.45691084255213 -15.476717808624466 M-37.44016898837794 -15.184891952170695 C-37.24157672123798 -15.243833094625753, -37.04298445409802 -15.30277423708081, -36.45691084255213 -15.476717808624466 M-36.45691084255213 -15.476717808624466 C-36.06440548741718 -15.566304594597208, -35.67190013228223 -15.655891380569948, -35.456975559221966 -15.704946511857043 M-36.45691084255213 -15.476717808624466 C-36.25616402868321 -15.522536958894662, -36.055417214814284 -15.568356109164858, -35.456975559221966 -15.704946511857043 M-35.456975559221966 -15.704946511857043 C-35.144428245879595 -15.755476737637624, -34.83188093253722 -15.806006963418204, -34.4444720869521 -15.868640221171937 M-35.456975559221966 -15.704946511857043 C-35.07186168033781 -15.767208737192298, -34.686747801453656 -15.829470962527553, -34.4444720869521 -15.868640221171937 M-34.4444720869521 -15.868640221171937 C-34.115901548312145 -15.900337025870646, -33.787331009672194 -15.932033830569356, -33.423561019691405 -15.967126284005381 M-34.4444720869521 -15.868640221171937 C-34.20758794458926 -15.891492149490817, -33.97070380222642 -15.914344077809698, -33.423561019691405 -15.967126284005381 M-33.423561019691405 -15.967126284005381 C-33.05802956438708 -15.978848166313176, -32.69249810908275 -15.99057004862097, -32.39843750000001 -16 M-33.423561019691405 -15.967126284005381 C-33.08685111140108 -15.977923915398174, -32.75014120311076 -15.988721546790966, -32.39843750000001 -16 M-32.39843750000001 -16 C-32.39843750000001 -16, -32.3984375 -16, -32.3984375 -16 M-32.39843750000001 -16 C-32.39843750000001 -16, -32.39843750000001 -16, -32.3984375 -16" stroke="#999" stroke-width="1.3" fill="none" stroke-dasharray="0 0" style=""/></g><g class="label" style="" transform="translate(0, -8.5)"><rect/><g><rect class="background" style="stroke: none"/><text y="-10.1" style=""><tspan class="text-outer-tspan row" x="0" y="-0.1em" dy="1.1em"><tspan font-style="normal" class="text-inner-tspan" font-weight="normal">ISBN</tspan><tspan font-style="normal" class="text-inner-tspan" font-weight="normal"> saisi</tspan></tspan></text></g></g></g><g class="node default" id="my-svg-flowchart-B-1" data-look="classic" transform="translate(200.9625015258789, 113.5)"><rect class="basic label-container" style="" x="-103.6953125" y="-23.5" width="207.390625" height="47"/><g class="label" style="" transform="translate(0, -8.5)"><rect/><g><rect class="background" style="stroke: none"/><text y="-10.1" style=""><tspan class="text-outer-tspan row" x="0" y="-0.1em" dy="1.1em"><tspan font-style="normal" class="text-inner-tspan" font-weight="normal">Normaliser</tspan><tspan font-style="normal" class="text-inner-tspan" font-weight="normal"> et</tspan><tspan font-style="normal" class="text-inner-tspan" font-weight="normal"> valider</tspan></tspan></text></g></g></g><g class="node default" id="my-svg-flowchart-C-3" data-look="classic" transform="translate(200.9625015258789, 275.3859329223633)"><polygon points="88.38593673706055,0 176.7718734741211,-88.38593673706055 88.38593673706055,-176.7718734741211 0,-88.38593673706055" class="label-container" transform="translate(-87.88593673706055, 88.38593673706055)"/><g class="label" style="" transform="translate(0, -17.299999237060547)"><rect/><g><rect class="background" style="stroke: none"/><text y="-10.1" style=""><tspan class="text-outer-tspan row" x="0" y="-0.1em" dy="1.1em"><tspan font-style="normal" class="text-inner-tspan" font-weight="normal">Chiffre</tspan><tspan font-style="normal" class="text-inner-tspan" font-weight="normal"> de</tspan></tspan><tspan class="text-outer-tspan row" x="0" y="1em" dy="1.1em"><tspan font-style="normal" class="text-inner-tspan" font-weight="normal">contrôle</tspan><tspan font-style="normal" class="text-inner-tspan" font-weight="normal"> valide?</tspan></tspan></text></g></g></g><g class="node default" id="my-svg-flowchart-D-5" data-look="classic" transform="translate(277.6437530517578, 1022.4203109741211)"><rect class="basic label-container" style="fill:#ffebee !important;stroke:#c62828 !important" x="-84.1796875" y="-23.5" width="168.359375" height="47"/><g class="label" style="" transform="translate(0, -8.5)"><rect/><g><rect class="background" style="stroke: none"/><text y="-10.1" style=""><tspan class="text-outer-tspan row" x="0" y="-0.1em" dy="1.1em"><tspan font-style="normal" class="text-inner-tspan" font-weight="normal">Afficher</tspan><tspan font-style="normal" class="text-inner-tspan" font-weight="normal"> l'erreur</tspan></tspan></text></g></g></g><g class="node default" id="my-svg-flowchart-E-7" data-look="classic" transform="translate(320.6925811767578, 1227.4031257629395)"><rect class="basic label-container" style="fill:#fff3e0 !important;stroke:#e65100 !important" x="-102.0390625" y="-32.29999923706055" width="204.078125" height="64.5999984741211"/><g class="label" style="" transform="translate(0, -17.299999237060547)"><rect/><g><rect class="background" style="stroke: none"/><text y="-10.1" style=""><tspan class="text-outer-tspan row" x="0" y="-0.1em" dy="1.1em"><tspan font-style="normal" class="text-inner-tspan" font-weight="normal">Saisie</tspan><tspan font-style="normal" class="text-inner-tspan" font-weight="normal"> manuelle</tspan></tspan><tspan class="text-outer-tspan row" x="0" y="1em" dy="1.1em"><tspan font-style="normal" class="text-inner-tspan" font-weight="normal">(toujours</tspan><tspan font-style="normal" class="text-inner-tspan" font-weight="normal"> disponible)</tspan></tspan></text></g></g></g><g class="node default" id="my-svg-flowchart-F-9" data-look="classic" transform="translate(124.28125, 458.27186584472656)"><rect class="basic label-container" style="" x="-113.1640625" y="-23.5" width="226.328125" height="47"/><g class="label" style="" transform="translate(0, -8.5)"><rect/><g><rect class="background" style="stroke: none"/><text y="-10.1" style=""><tspan class="text-outer-tspan row" x="0" y="-0.1em" dy="1.1em"><tspan font-style="normal" class="text-inner-tspan" font-weight="normal">Interroger</tspan><tspan font-style="normal" class="text-inner-tspan" font-weight="normal"> Open</tspan><tspan font-style="normal" class="text-inner-tspan" font-weight="normal"> Library</tspan></tspan></text></g></g></g><g class="node default" id="my-svg-flowchart-G-11" data-look="classic" transform="translate(124.28125, 633.4546813964844)"><polygon points="101.68281173706055,0 203.3656234741211,-101.68281173706055 101.68281173706055,-203.3656234741211 0,-101.68281173706055" class="label-container" transform="translate(-101.18281173706055, 101.68281173706055)"/><g class="label" style="" transform="translate(0, -17.299999237060547)"><rect/><g><rect class="background" style="stroke: none"/><text y="-10.1" style=""><tspan class="text-outer-tspan row" x="0" y="-0.1em" dy="1.1em"><tspan font-style="normal" class="text-inner-tspan" font-weight="normal">Métadonnées</tspan><tspan font-style="normal" class="text-inner-tspan" font-weight="normal"> utiles</tspan></tspan><tspan class="text-outer-tspan row" x="0" y="1em" dy="1.1em"><tspan font-style="normal" class="text-inner-tspan" font-weight="normal">trouvées?</tspan></tspan></text></g></g></g><g class="node default" id="my-svg-flowchart-H-13" data-look="classic" transform="translate(124.28125, 838.4374961853027)"><rect class="basic label-container" style="fill:#e8f5e9 !important;stroke:#2e7d32 !important" x="-116.28125" y="-32.29999923706055" width="232.5625" height="64.5999984741211"/><g class="label" style="" transform="translate(0, -17.299999237060547)"><rect/><g><rect class="background" style="stroke: none"/><text y="-10.1" style=""><tspan class="text-outer-tspan row" x="0" y="-0.1em" dy="1.1em"><tspan font-style="normal" class="text-inner-tspan" font-weight="normal">Retourner</tspan><tspan font-style="normal" class="text-inner-tspan" font-weight="normal"> métadonnées</tspan></tspan><tspan class="text-outer-tspan row" x="0" y="1em" dy="1.1em"><tspan font-style="normal" class="text-inner-tspan" font-weight="normal">Source:</tspan><tspan font-style="normal" class="text-inner-tspan" font-weight="normal"> Open</tspan><tspan font-style="normal" class="text-inner-tspan" font-weight="normal"> Library</tspan></tspan></text></g></g></g><g class="node default" id="my-svg-flowchart-I-15" data-look="classic" transform="translate(554.7761764526367, 838.4374961853027)"><rect class="basic label-container" style="" x="-116.2890625" y="-32.29999923706055" width="232.578125" height="64.5999984741211"/><g class="label" style="" transform="translate(0, -17.299999237060547)"><rect/><g><rect class="background" style="stroke: none"/><text y="-10.1" style=""><tspan class="text-outer-tspan row" x="0" y="-0.1em" dy="1.1em"><tspan font-style="normal" class="text-inner-tspan" font-weight="normal">Interroger</tspan><tspan font-style="normal" class="text-inner-tspan" font-weight="normal"> l'API</tspan></tspan><tspan class="text-outer-tspan row" x="0" y="1em" dy="1.1em"><tspan font-style="normal" class="text-inner-tspan" font-weight="normal">métadonnées</tspan><tspan font-style="normal" class="text-inner-tspan" font-weight="normal"> Let</tspan><tspan font-style="normal" class="text-inner-tspan" font-weight="normal"> Books</tspan></tspan></text></g></g></g><g class="node default" id="my-svg-flowchart-J-17" data-look="classic" transform="translate(554.7761764526367, 1022.4203109741211)"><polygon points="101.68281173706055,0 203.3656234741211,-101.68281173706055 101.68281173706055,-203.3656234741211 0,-101.68281173706055" class="label-container" transform="translate(-101.18281173706055, 101.68281173706055)"/><g class="label" style="" transform="translate(0, -17.299999237060547)"><rect/><g><rect class="background" style="stroke: none"/><text y="-10.1" style=""><tspan class="text-outer-tspan row" x="0" y="-0.1em" dy="1.1em"><tspan font-style="normal" class="text-inner-tspan" font-weight="normal">Métadonnées</tspan><tspan font-style="normal" class="text-inner-tspan" font-weight="normal"> utiles</tspan></tspan><tspan class="text-outer-tspan row" x="0" y="1em" dy="1.1em"><tspan font-style="normal" class="text-inner-tspan" font-weight="normal">trouvées?</tspan></tspan></text></g></g></g><g class="node default" id="my-svg-flowchart-K-19" data-look="classic" transform="translate(605.0515670776367, 1227.4031257629395)"><rect class="basic label-container" style="fill:#e8f5e9 !important;stroke:#2e7d32 !important" x="-80.265625" y="-32.29999923706055" width="160.53125" height="64.5999984741211"/><g class="label" style="" transform="translate(0, -17.299999237060547)"><rect/><g><rect class="background" style="stroke: none"/><text y="-10.1" style=""><tspan class="text-outer-tspan row" x="0" y="-0.1em" dy="1.1em"><tspan font-style="normal" class="text-inner-tspan" font-weight="normal">Métadonnées</tspan></tspan><tspan class="text-outer-tspan row" x="0" y="1em" dy="1.1em"><tspan font-style="normal" class="text-inner-tspan" font-weight="normal">Let</tspan><tspan font-style="normal" class="text-inner-tspan" font-weight="normal"> Books</tspan><tspan font-style="normal" class="text-inner-tspan" font-weight="normal"> API</tspan></tspan></text></g></g></g></g></g></g><defs><filter id="my-svg-drop-shadow" height="130%" width="130%"><feDropShadow dx="4" dy="4" stdDeviation="0" flood-opacity="0.06" flood-color="#000000"/></filter></defs><defs><filter id="my-svg-drop-shadow-small" height="150%" width="150%"><feDropShadow dx="2" dy="2" stdDeviation="0" flood-opacity="0.06" flood-color="#000000"/></filter></defs><linearGradient id="my-svg-gradient" gradientUnits="objectBoundingBox" x1="0%" y1="0%" x2="100%" y2="0%"><stop offset="0%" stop-color="hsl(0, 0%, 83.3333333333%)" stop-opacity="1"/><stop offset="100%" stop-color="hsl(0, 0%, 88.9215686275%)" stop-opacity="1"/></linearGradient><text text-anchor="middle" x="346.6585998535156" y="-25" class="flowchartTitleText">Chaîne de recherche de métadonnées ISBN</text></svg>