<svg id="my-svg" width="100%" xmlns="http://www.w3.org/2000/svg" xmlns:xlink="http://www.w3.org/1999/xlink" class="flowchart" style="max-width: 779.986px; background-color: transparent;" viewBox="0 -49 779.9859619140625 1316.7030029296875" role="graphics-document document" aria-roledescription="flowchart-v2"><style>#my-svg{font-family:"trebuchet ms",verdana,arial,sans-serif;font-size:16px;fill:#000000;}@keyframes edge-animation-frame{from{stroke-dashoffset:0;}}@keyframes dash{to{stroke-dashoffset:0;}}#my-svg .edge-animation-slow{stroke-dasharray:9,5!important;stroke-dashoffset:900;animation:dash 50s linear infinite;stroke-linecap:round;}#my-svg .edge-animation-fast{stroke-dasharray:9,5!important;stroke-dashoffset:900;animation:dash 20s linear infinite;stroke-linecap:round;}#my-svg .error-icon{fill:#552222;}#my-svg .error-text{fill:#552222;stroke:#552222;}#my-svg .edge-thickness-normal{stroke-width:1px;}#my-svg .edge-thickness-thick{stroke-width:3.5px;}#my-svg .edge-pattern-solid{stroke-dasharray:0;}#my-svg .edge-thickness-invisible{stroke-width:0;fill:none;}#my-svg .edge-pattern-dashed{stroke-dasharray:3;}#my-svg .edge-pattern-dotted{stroke-dasharray:2;}#my-svg .marker{fill:#666;stroke:#666;}#my-svg .marker.cross{stroke:#666;}#my-svg svg{font-family:"trebuchet ms",verdana,arial,sans-serif;font-size:16px;}#my-svg p{margin:0;}#my-svg .label{font-family:"trebuchet ms",verdana,arial,sans-serif;color:#000000;}#my-svg .cluster-label text{fill:#333;}#my-svg .cluster-label span{color:#333;}#my-svg .cluster-label span p{background-color:transparent;}#my-svg .label text,#my-svg span{fill:#000000;color:#000000;}#my-svg .node rect,#my-svg .node circle,#my-svg .node ellipse,#my-svg .node polygon,#my-svg .node path{fill:#eee;stroke:#999;stroke-width:1px;}#my-svg .rough-node .label text,#my-svg .node .label text,#my-svg .image-shape .label,#my-svg .icon-shape .label{text-anchor:middle;}#my-svg .node .katex path{fill:#000;stroke:#000;stroke-width:1px;}#my-svg .rough-node .label,#my-svg .node .label,#my-svg .image-shape .label,#my-svg .icon-shape .label{text-align:center;}#my-svg .node.clickable{cursor:pointer;}#my-svg .root .anchor path{fill:#666!important;stroke-width:0;stroke:#666;}#my-svg .arrowheadPath{fill:#333333;}#my-svg .edgePath .path{stroke:#666;stroke-width:1px;}#my-svg .flowchart-link{stroke:#666;fill:none;}#my-svg .edgeLabel{background-color:white;text-align:center;}#my-svg .edgeLabel p{background-color:white;}#my-svg .edgeLabel rect{opacity:0.5;background-color:white;fill:white;}#my-svg .labelBkg{background-color:rgba(255, 255, 255, 0.5);}#my-svg .cluster rect{fill:hsl(0, 0%, 98.9215686275%);stroke:#707070;stroke-width:1px;}#my-svg .cluster text{fill:#333;}#my-svg .cluster span{color:#333;}#my-svg div.mermaidTooltip{position:absolute;text-align:center;max-width:200px;padding:2px;font-family:"trebuchet ms",verdana,arial,sans-serif;font-size:12px;background:hsl(-160, 0%, 93.3333333333%);border:1px solid #707070;border-radius:2px;pointer-events:none;z-index:100;}#my-svg .flowchartTitleText{text-anchor:middle;font-size:18px;fill:#000000;}#my-svg rect.text{fill:none;stroke-width:0;}#my-svg .icon-shape,#my-svg .image-shape{background-color:white;text-align:center;}#my-svg .icon-shape p,#my-svg .image-shape p{background-color:white;padding:2px;}#my-svg .icon-shape .label rect,#my-svg .image-shape .label rect{opacity:0.5;background-color:white;fill:white;}#my-svg .label-icon{display:inline-block;height:1em;overflow:visible;vertical-align:-0.125em;}#my-svg .node .label-icon path{fill:currentColor;stroke:revert;stroke-width:revert;}#my-svg .node .neo-node{stroke:#999;}#my-svg [data-look="neo"].node rect,#my-svg [data-look="neo"].cluster rect,#my-svg [data-look="neo"].node polygon{stroke:url(#my-svg-gradient);filter:drop-shadow( 1px 2px 2px rgba(185,185,185,1));}#my-svg [data-look="neo"].node path{stroke:url(#my-svg-gradient);stroke-width:1px;}#my-svg [data-look="neo"].node .outer-path{filter:drop-shadow( 1px 2px 2px rgba(185,185,185,1));}#my-svg [data-look="neo"].node .neo-line path{stroke:#999;filter:none;}#my-svg [data-look="neo"].node circle{stroke:url(#my-svg-gradient);filter:drop-shadow( 1px 2px 2px rgba(185,185,185,1));}#my-svg [data-look="neo"].node circle .state-start{fill:#000000;}#my-svg [data-look="neo"].icon-shape .icon{fill:url(#my-svg-gradient);filter:drop-shadow( 1px 2px 2px rgba(185,185,185,1));}#my-svg [data-look="neo"].icon-shape .icon-neo path{stroke:url(#my-svg-gradient);filter:drop-shadow( 1px 2px 2px rgba(185,185,185,1));}#my-svg :root{--mermaid-font-family:"trebuchet ms",verdana,arial,sans-serif;}</style><g><marker id="my-svg_flowchart-v2-pointEnd" class="marker flowchart-v2" viewBox="0 0 10 10" refX="5" refY="5" markerUnits="userSpaceOnUse" markerWidth="8" markerHeight="8" orient="auto"><path d="M 0 0 L 10 5 L 0 10 z" class="arrowMarkerPath" style="stroke-width: 1; stroke-dasharray: 1, 0;"/></marker><marker id="my-svg_flowchart-v2-pointStart" class="marker flowchart-v2" viewBox="0 0 10 10" refX="4.5" refY="5" markerUnits="userSpaceOnUse" markerWidth="8" markerHeight="8" orient="auto"><path d="M 0 5 L 10 10 L 10 0 z" class="arrowMarkerPath" style="stroke-width: 1; stroke-dasharray: 1, 0;"/></marker><marker id="my-svg_flowchart-v2-pointEnd-margin" class="marker flowchart-v2" viewBox="0 0 11.5 14" refX="11.5" refY="7" markerUnits="userSpaceOnUse" markerWidth="10.5" markerHeight="14" orient="auto"><path d="M 0 0 L 11.5 7 L 0 14 z" class="arrowMarkerPath" style="stroke-width: 0; stroke-dasharray: 1, 0;"/></marker><marker id="my-svg_flowchart-v2-pointStart-margin" class="marker flowchart-v2" viewBox="0 0 11.5 14" refX="1" refY="7" markerUnits="userSpaceOnUse" markerWidth="11.5" markerHeight="14" orient="auto"><polygon points="0,7 11.5,14 11.5,0" class="arrowMarkerPath" style="stroke-width: 0; stroke-dasharray: 1, 0;"/></marker><marker id="my-svg_flowchart-v2-circleEnd" class="marker flowchart-v2" viewBox="0 0 10 10" refX="11" refY="5" markerUnits="userSpaceOnUse" markerWidth="11" markerHeight="11" orient="auto"><circle cx="5" cy="5" r="5" class="arrowMarkerPath" style="stroke-width: 1; stroke-dasharray: 1, 0;"/></marker><marker id="my-svg_flowchart-v2-circleStart" class="marker flowchart-v2" viewBox="0 0 10 10" refX="-1" refY="5" markerUnits="userSpaceOnUse" markerWidth="11" markerHeight="11" orient="auto"><circle cx="5" cy="5" r="5" class="arrowMarkerPath" style="stroke-width: 1; stroke-dasharray: 1, 0;"/></marker><marker id="my-svg_flowchart-v2-circleEnd-margin" class="marker flowchart-v2" viewBox="0 0 10 10" refY="5" refX="12.25" markerUnits="userSpaceOnUse" markerWidth="14" markerHeight="14" orient="auto"><circle cx="5" cy="5" r="5" class="arrowMarkerPath" style="stroke-width: 0; stroke-dasharray: 1, 0;"/></marker><marker id="my-svg_flowchart-v2-circleStart-margin" class="marker flowchart-v2" viewBox="0 0 10 10" refX="-2" refY="5" markerUnits="userSpaceOnUse" markerWidth="14" markerHeight="14" orient="auto"><circle cx="5" cy="5" r="5" class="arrowMarkerPath" style="stroke-width: 0; stroke-dasharray: 1, 0;"/></marker><marker id="my-svg_flowchart-v2-crossEnd" class="marker cross flowchart-v2" viewBox="0 0 11 11" refX="12" refY="5.2" markerUnits="userSpaceOnUse" markerWidth="11" markerHeight="11" orient="auto"><path d="M 1,1 l 9,9 M 10,1 l -9,9" class="arrowMarkerPath" style="stroke-width: 2; stroke-dasharray: 1, 0;"/></marker><marker id="my-svg_flowchart-v2-crossStart" class="marker cross flowchart-v2" viewBox="0 0 11 11" refX="-1" refY="5.2" markerUnits="userSpaceOnUse" markerWidth="11" markerHeight="11" orient="auto"><path d="M 1,1 l 9,9 M 10,1 l -9,9" class="arrowMarkerPath" style="stroke-width: 2; stroke-dasharray: 1, 0;"/></marker><marker id="my-svg_flowchart-v2-crossEnd-margin" class="marker cross flowchart-v2" viewBox="0 0 15 15" refX="17.7" refY="7.5" markerUnits="userSpaceOnUse" markerWidth="12" markerHeight="12" orient="auto"><path d="M 1,1 L 14,14 M 1,14 L 14,1" class="arrowMarkerPath" style="stroke-width: 2.5;"/></marker><marker id="my-svg_flowchart-v2-crossStart-margin" class="marker cross flowchart-v2" viewBox="0 0 15 15" refX="-3.5" refY="7.5" markerUnits="userSpaceOnUse" markerWidth="12" markerHeight="12" orient="auto"><path d="M 1,1 L 14,14 M 1,14 L 14,1" class="arrowMarkerPath" style="stroke-width: 2.5; stroke-dasharray: 1, 0;"/></marker><g class="root"><g class="clusters"/><g class="edgePaths"><path d="M210.406,40.5L210.323,44.583C210.24,48.667,210.073,56.833,209.99,64.417C209.906,72,209.906,79,209.906,82.5L209.906,86" id="my-svg-L_A_B_0" class="edge-thickness-normal edge-pattern-solid edge-thickness-normal edge-pattern-solid flowchart-link" style=";" data-edge="true" data-et="edge" data-id="L_A_B_0" data-points="W3sieCI6MjEwLjQwNjI1LCJ5Ijo0MC41MDAwMDAwMDAwMDAwMTR9LHsieCI6MjA5LjkwNjI1LCJ5Ijo2NX0seyJ4IjoyMDkuOTA2MjUsInkiOjkwfV0=" data-look="classic" marker-end="url(#my-svg_flowchart-v2-pointEnd)"/><path d="M209.906,137L209.906,141.167C209.906,145.333,209.906,153.667,209.906,161.333C209.906,169,209.906,176,209.906,179.5L209.906,183" id="my-svg-L_B_C_0" class="edge-thickness-normal edge-pattern-solid edge-thickness-normal edge-pattern-solid flowchart-link" style=";" data-edge="true" data-et="edge" data-id="L_B_C_0" data-points="W3sieCI6MjA5LjkwNjI1LCJ5IjoxMzd9LHsieCI6MjA5LjkwNjI1LCJ5IjoxNjJ9LHsieCI6MjA5LjkwNjI1LCJ5IjoxODYuOTk5OTk5OTk5OTk5OTd9XQ==" data-look="classic" marker-end="url(#my-svg_flowchart-v2-pointEnd)"/><path d="M244.314,329.364L251.741,341.016C259.168,352.667,274.021,375.969,281.448,397.454C288.875,418.939,288.875,438.605,288.875,456.522C288.875,474.439,288.875,490.605,288.875,519.802C288.875,548.999,288.875,591.227,288.875,635.205C288.875,679.182,288.875,724.91,288.875,759.074C288.875,793.237,288.875,815.837,288.875,836.687C288.875,857.537,288.875,876.637,288.875,901.251C288.875,925.865,288.875,955.993,288.875,971.057L288.875,986.12" id="my-svg-L_C_D_0" class="edge-thickness-normal edge-pattern-solid edge-thickness-normal edge-pattern-solid flowchart-link" style=";" data-edge="true" data-et="edge" data-id="L_C_D_0" data-points="W3sieCI6MjQ0LjMxMzc3MDM5NzkxMDQ3LCJ5IjozMjkuMzY0MzQ1NDQ2ODE2MDZ9LHsieCI6Mjg4Ljg3NSwieSI6Mzk5LjI3MTg2NTg0NDcyNjU2fSx7IngiOjI4OC44NzUsInkiOjQ1OC4yNzE4NjU4NDQ3MjY1Nn0seyJ4IjoyODguODc1LCJ5Ijo1MDYuNzcxODY1ODQ0NzI2NTZ9LHsieCI6Mjg4Ljg3NSwieSI6NjMzLjQ1NDY4MTM5NjQ4NDR9LHsieCI6Mjg4Ljg3NSwieSI6NzcwLjYzNzQ5Njk0ODI0MjJ9LHsieCI6Mjg4Ljg3NSwieSI6ODM4LjQzNzQ5NjE4NTMwMjd9LHsieCI6Mjg4Ljg3NSwieSI6ODk1LjczNzQ5NTQyMjM2MzN9LHsieCI6Mjg4Ljg3NSwieSI6OTkwLjEyMDMxMTczNzA2MDV9XQ==" data-look="classic" marker-end="url(#my-svg_flowchart-v2-pointEnd)"/><path d="M288.875,1054.72L288.875,1072.201C288.875,1089.681,288.875,1124.642,292.274,1147.477C295.674,1170.311,302.472,1181.019,305.872,1186.372L309.271,1191.726" id="my-svg-L_D_E_0" class="edge-thickness-normal edge-pattern-solid edge-thickness-normal edge-pattern-solid flowchart-link" style=";" data-edge="true" data-et="edge" data-id="L_D_E_0" data-points="W3sieCI6Mjg4Ljg3NSwieSI6MTA1NC43MjAzMTAyMTExODE2fSx7IngiOjI4OC44NzUsInkiOjExNTkuNjAzMTI2NTI1ODc5fSx7IngiOjMxMS40MTUzMTU4NjQ4MTQxLCJ5IjoxMTk1LjEwMzEyNjUyNTg3OX1d" data-look="classic" marker-end="url(#my-svg_flowchart-v2-pointEnd)"/><path d="M175.499,329.364L168.072,341.016C160.645,352.667,145.791,375.969,138.364,392.871C130.938,409.772,130.938,420.272,130.938,425.522L130.938,430.772" id="my-svg-L_C_F_0" class="edge-thickness-normal edge-pattern-solid edge-thickness-normal edge-pattern-solid flowchart-link" style=";" data-edge="true" data-et="edge" data-id="L_C_F_0" data-points="W3sieCI6MTc1LjQ5ODcyOTYwMjA4OTUzLCJ5IjozMjkuMzY0MzQ1NDQ2ODE2MDZ9LHsieCI6MTMwLjkzNzUsInkiOjM5OS4yNzE4NjU4NDQ3MjY1Nn0seyJ4IjoxMzAuOTM3NSwieSI6NDM0Ljc3MTg2NTg0NDcyNjU2fV0=" data-look="classic" marker-end="url(#my-svg_flowchart-v2-pointEnd)"/><path d="M130.938,481.772L130.938,485.939C130.938,490.105,130.938,498.439,130.938,506.105C130.938,513.772,130.937,520.772,130.937,524.272L130.937,527.772" id="my-svg-L_F_G_0" class="edge-thickness-normal edge-pattern-solid edge-thickness-normal edge-pattern-solid flowchart-link" style=";" data-edge="true" data-et="edge" data-id="L_F_G_0" data-points="W3sieCI6MTMwLjkzNzUsInkiOjQ4MS43NzE4NjU4NDQ3MjY1Nn0seyJ4IjoxMzAuOTM3NSwieSI6NTA2Ljc3MTg2NTg0NDcyNjU2fSx7IngiOjEzMC45Mzc0OTk5OTk5OTk5NywieSI6NTMxLjc3MTg2NTg0NDcyNjZ9XQ==" data-look="classic" marker-end="url(#my-svg_flowchart-v2-pointEnd)"/><path d="M130.937,735.137L130.937,741.054C130.937,746.971,130.938,758.804,130.938,769.971C130.938,781.137,130.938,791.637,130.938,796.887L130.938,802.137" id="my-svg-L_G_H_0" class="edge-thickness-normal edge-pattern-solid edge-thickness-normal edge-pattern-solid flowchart-link" style=";" data-edge="true" data-et="edge" data-id="L_G_H_0" data-points="W3sieCI6MTMwLjkzNzQ5OTk5OTk5OTk3LCJ5Ijo3MzUuMTM3NDk2OTQ4MjQyM30seyJ4IjoxMzAuOTM3NSwieSI6NzcwLjYzNzQ5Njk0ODI0MjJ9LHsieCI6MTMwLjkzNzUsInkiOjgwNi4xMzc0OTY5NDgyNDIyfV0=" data-look="classic" marker-end="url(#my-svg_flowchart-v2-pointEnd)"/><path d="M209.411,656.664L273.637,675.66C337.862,694.655,466.314,732.646,530.54,756.892C594.765,781.137,594.765,791.637,594.765,796.887L594.765,802.137" id="my-svg-L_G_I_0" class="edge-thickness-normal edge-pattern-solid edge-thickness-normal edge-pattern-solid flowchart-link" style=";" data-edge="true" data-et="edge" data-id="L_G_I_0" data-points="W3sieCI6MjA5LjQxMDg0NzkzNjA4MDc2LCJ5Ijo2NTYuNjY0MTQ5MDEyMTYxNX0seyJ4Ijo1OTQuNzY1MjM1OTAwODc4OSwieSI6NzcwLjYzNzQ5Njk0ODI0MjJ9LHsieCI6NTk0Ljc2NTIzNTkwMDg3ODksInkiOjgwNi4xMzc0OTY5NDgyNDIyfV0=" data-look="classic" marker-end="url(#my-svg_flowchart-v2-pointEnd)"/><path d="M594.765,870.737L594.765,874.904C594.765,879.071,594.765,887.404,594.765,895.071C594.765,902.737,594.765,909.737,594.765,913.237L594.765,916.737" id="my-svg-L_I_J_0" class="edge-thickness-normal edge-pattern-solid edge-thickness-normal edge-pattern-solid flowchart-link" style=";" data-edge="true" data-et="edge" data-id="L_I_J_0" data-points="W3sieCI6NTk0Ljc2NTIzNTkwMDg3ODksInkiOjg3MC43Mzc0OTU0MjIzNjMzfSx7IngiOjU5NC43NjUyMzU5MDA4Nzg5LCJ5Ijo4OTUuNzM3NDk1NDIyMzYzM30seyJ4Ijo1OTQuNzY1MjM1OTAwODc5OCwieSI6OTIwLjczNzQ5NTQyMjM2NDJ9XQ==" data-look="classic" marker-end="url(#my-svg_flowchart-v2-pointEnd)"/><path d="M622.036,1096.832L625.87,1107.294C629.704,1117.756,637.372,1138.68,641.207,1154.391C645.041,1170.103,645.041,1180.603,645.041,1185.853L645.041,1191.103" id="my-svg-L_J_K_0" class="edge-thickness-normal edge-pattern-solid edge-thickness-normal edge-pattern-solid flowchart-link" style=";" data-edge="true" data-et="edge" data-id="L_J_K_0" data-points="W3sieCI6NjIyLjAzNjA3ODY5ODIwMDksInkiOjEwOTYuODMyMjgzNzI4NTU2OH0seyJ4Ijo2NDUuMDQwNjI2NTI1ODc4OSwieSI6MTE1OS42MDMxMjY1MjU4Nzl9LHsieCI6NjQ1LjA0MDYyNjUyNTg3ODksInkiOjExOTUuMTAzMTI2NTI1ODc5fV0=" data-look="classic" marker-end="url(#my-svg_flowchart-v2-pointEnd)"/><path d="M543.499,1072.837L528.795,1087.298C514.091,1101.759,484.682,1130.681,459.797,1150.738C434.913,1170.794,414.553,1181.985,404.373,1187.581L394.193,1193.176" id="my-svg-L_J_E_0" class="edge-thickness-normal edge-pattern-solid edge-thickness-normal edge-pattern-solid flowchart-link" style=";" data-edge="true" data-et="edge" data-id="L_J_E_0" data-points="W3sieCI6NTQzLjQ5OTQ2MTE5NzYyNDEsInkiOjEwNzIuODM3MzUxODIyNjI0fSx7IngiOjQ1NS4yNzMwNDg0MDA4Nzg5LCJ5IjoxMTU5LjYwMzEyNjUyNTg3OX0seyJ4IjozOTAuNjg3NTQxNDgyNDY0LCJ5IjoxMTk1LjEwMzEyNjUyNTg3OX1d" data-look="classic" marker-end="url(#my-svg_flowchart-v2-pointEnd)"/></g><g class="edgeLabels"><g class="edgeLabel"><g class="label" data-id="L_A_B_0" transform="translate(0, 0)"><text y="-10.1" text-anchor="middle"><tspan class="text-outer-tspan row" x="0" y="-0.1em" dy="1.1em" text-anchor="middle"/></text></g></g><g><rect class="background" style="stroke: none"/></g><g class="edgeLabel"><g class="label" data-id="L_B_C_0" transform="translate(0, 0)"><text y="-10.1" text-anchor="middle"><tspan class="text-outer-tspan row" x="0" y="-0.1em" dy="1.1em" text-anchor="middle"/></text></g></g><g><rect class="background" style="stroke: none"/></g><g class="edgeLabel" transform="translate(288.875, 633.4546813964844)"><g class="label" data-id="L_C_D_0" transform="translate(0, -10.5)"><g><rect class="background" style="" x="-16.6796875" y="0" width="33.359375" height="21"/><text y="-10.1" text-anchor="middle" style=""><tspan class="text-outer-tspan row" x="0" y="-0.1em" dy="1.1em" text-anchor="middle"><tspan font-style="normal" class="text-inner-tspan" font-weight="normal">Non</tspan></tspan></text></g></g></g><g class="edgeLabel"><g class="label" data-id="L_D_E_0" transform="translate(0, 0)"><text y="-10.1" text-anchor="middle"><tspan class="text-outer-tspan row" x="0" y="-0.1em" dy="1.1em" text-anchor="middle"/></text></g></g><g><rect class="background" style="stroke: none"/></g><g class="edgeLabel" transform="translate(130.9375, 399.27186584472656)"><g class="label" data-id="L_C_F_0" transform="translate(0, -10.5)"><g><rect class="background" style="" x="-14.453125" y="0" width="28.90625" height="21"/><text y="-10.1" text-anchor="middle" style=""><tspan class="text-outer-tspan row" x="0" y="-0.1em" dy="1.1em" text-anchor="middle"><tspan font-style="normal" class="text-inner-tspan" font-weight="normal">Oui</tspan></tspan></text></g></g></g><g class="edgeLabel"><g class="label" data-id="L_F_G_0" transform="translate(0, 0)"><text y="-10.1" text-anchor="middle"><tspan class="text-outer-tspan row" x="0" y="-0.1em" dy="1.1em" text-anchor="middle"/></text></g></g><g><rect class="background" style="stroke: none"/></g><g class="edgeLabel" transform="translate(130.9375, 770.6374969482422)"><g class="label" data-id="L_G_H_0" transform="translate(0, -10.5)"><g><rect class="background" style="" x="-14.453125" y="0" width="28.90625" height="21"/><text y="-10.1" text-anchor="middle" style=""><tspan class="text-outer-tspan row" x="0" y="-0.1em" dy="1.1em" text-anchor="middle"><tspan font-style="normal" class="text-inner-tspan" font-weight="normal">Oui</tspan></tspan></text></g></g></g><g class="edgeLabel" transform="translate(594.7652359008789, 770.6374969482422)"><g class="label" data-id="L_G_I_0" transform="translate(-0.05078125, -10.5)"><g><rect class="background" style="" x="-66.046875" y="0" width="132.1953125" height="21"/><text y="-10.1" text-anchor="middle" style=""><tspan class="text-outer-tspan row" x="0" y="-0.1em" dy="1.1em" text-anchor="middle"><tspan font-style="normal" class="text-inner-tspan" font-weight="normal">Non</tspan><tspan font-style="normal" class="text-inner-tspan" font-weight="normal"> /</tspan><tspan font-style="normal" class="text-inner-tspan" font-weight="normal"> Indisponible</tspan></tspan></text></g></g></g><g class="edgeLabel"><g class="label" data-id="L_I_J_0" transform="translate(0, 0)"><text y="-10.1" text-anchor="middle"><tspan class="text-outer-tspan row" x="0" y="-0.1em" dy="1.1em" text-anchor="middle"/></text></g></g><g><rect class="background" style="stroke: none"/></g><g class="edgeLabel" transform="translate(645.0406265258789, 1159.603126525879)"><g class="label" data-id="L_J_K_0" transform="translate(0, -10.5)"><g><rect class="background" style="" x="-14.453125" y="0" width="28.90625" height="21"/><text y="-10.1" text-anchor="middle" style=""><tspan class="text-outer-tspan row" x="0" y="-0.1em" dy="1.1em" text-anchor="middle"><tspan font-style="normal" class="text-inner-tspan" font-weight="normal">Oui</tspan></tspan></text></g></g></g><g class="edgeLabel" transform="translate(473.11316, 1142.05837)"><g class="label" data-id="L_J_E_0" transform="translate(-0.05078125, -10.5)"><g><rect class="background" style="" x="-66.046875" y="0" width="132.1953125" height="21"/><text y="-10.1" text-anchor="middle" style=""><tspan class="text-outer-tspan row" x="0" y="-0.1em" dy="1.1em" text-anchor="middle"><tspan font-style="normal" class="text-inner-tspan" font-weight="normal">Non</tspan><tspan font-style="normal" class="text-inner-tspan" font-weight="normal"> /</tspan><tspan font-style="normal" class="text-inner-tspan" font-weight="normal"> Indisponible</tspan></tspan></text></g></g></g></g><g class="nodes"><g class="node default" id="my-svg-flowchart-A-0" data-look="classic" transform="translate(209.90625, 24)"><g class="basic label-container outer-path"><path d="M-32.3984375 -16 C-10.177554239421823 -16, 12.043329021156353 -16, 32.3984375 -16 C32.3984375 -16, 32.3984375 -16, 32.3984375 -16 C32.78009572690643 -15.987760963515782, 33.16175395381287 -15.975521927031567, 33.423561019691405 -15.967126284005381 C33.82987822878245 -15.927929351512308, 34.236195437873484 -15.888732419019234, 34.444472086952096 -15.868640221171939 C34.723522049727215 -15.823525587255238, 35.002572012502334 -15.77841095333854, 35.45697555922195 -15.704946511857047 C35.74210549392541 -15.639867464907693, 36.027235428628856 -15.574788417958342, 36.45691084255211 -15.476717808624471 C36.82009197875223 -15.368927553776963, 37.18327311495235 -15.261137298929455, 37.440168988377934 -15.184891952170698 C37.71779074958142 -15.082724577740386, 37.99541251078491 -14.980557203310074, 38.40270957806999 -14.830668117536348 C38.60642079957176 -14.740491202656198, 38.81013202107352 -14.650314287776048, 39.34057732588093 -14.415501886438706 C39.63689209360632 -14.260914661915036, 39.93320686133171 -14.106327437391368, 40.249918332063004 -13.941099265974232 C40.53179702813628 -13.770222743911525, 40.81367572420956 -13.599346221848817, 41.12699591936878 -13.409409678269451 C41.419157174109806 -13.205610634418985, 41.71131842885084 -13.00181159056852, 41.968205987859456 -12.822617949887306 C42.21610107010904 -12.624928218558447, 42.463996152358625 -12.427238487229587, 42.77009182492461 -12.183135333906153 C43.06756797730803 -11.912975363099218, 43.36504412969145 -11.642815392292283, 43.529358309655784 -11.493589601563642 C43.74626401539769 -11.26961665209549, 43.96316972113961 -11.045643702627338, 44.24288545320505 -10.756814244181072 C44.502201335355394 -10.452207053515572, 44.76151721750575 -10.147599862850072, 44.90774121948848 -9.975836829739738 C45.12385219784381 -9.686267806858742, 45.33996317619914 -9.396698783977747, 45.52119357355129 -9.153866561954718 C45.63957728415414 -8.971997391991351, 45.757960994757 -8.790128222027983, 46.080721708085534 -8.294281092968403 C46.20494380156007 -8.073712187153399, 46.329165895034606 -7.853143281338394, 46.584026401968 -7.400612643853364 C46.70651578145281 -7.146260826500292, 46.82900516093762 -6.891909009147219, 47.029039468252996 -6.476533489958305 C47.171222772396575 -6.125337979796498, 47.31340607654015 -5.774142469634691, 47.413932252796165 -5.52584087074093 C47.48603330063379 -5.308684002395909, 47.55813434847141 -5.091527134050889, 47.73712314858657 -4.552441386096524 C47.81040335910144 -4.272992183559174, 47.883683569616316 -3.993542981021826, 47.997284094909176 -3.560334943301032 C48.0638969323966 -3.2182921014312873, 48.13050976988403 -2.876249259561542, 48.193346034631205 -2.5535983205340735 C48.240659955772976 -2.1866408913489908, 48.28797387691475 -1.819683462163908, 48.32450330718717 -1.536368414522911 C48.35062724539192 -1.129466990120605, 48.37675118359666 -0.722565565718299, 48.390216959211 -0.5128252411464826 C48.390216959211 -0.27545582946085106, 48.390216959211 -0.03808641777521948, 48.390216959211 0.5128252411464788 C48.36889447148824 0.8449401986308808, 48.34757198376547 1.1770551561152827, 48.32450330718717 1.5363684145229002 C48.2728899867086 1.9366711359517619, 48.22127666623003 2.336973857380624, 48.193346034631205 2.5535983205340624 C48.12406535992569 2.9093399426710933, 48.05478468522018 3.2650815648081246, 47.997284094909176 3.5603349433010285 C47.92535497482013 3.834631852478407, 47.853425854731086 4.108928761655785, 47.73712314858657 4.552441386096513 C47.661614642242576 4.779860976557934, 47.58610613589858 5.007280567019356, 47.413932252796165 5.525840870740919 C47.30128172418542 5.804089854359263, 47.18863119557468 6.082338837977606, 47.029039468253 6.4765334899583005 C46.86512662095123 6.81690202455353, 46.70121377364945 7.157270559148759, 46.584026401968 7.400612643853361 C46.41276988493991 7.70469593143955, 46.241513367911814 8.008779219025739, 46.08072170808554 8.294281092968399 C45.93137125632454 8.523723493084992, 45.782020804563544 8.753165893201585, 45.5211935735513 9.15386656195471 C45.3961311400952 9.321438829363807, 45.271068706639106 9.489011096772906, 44.90774121948848 9.975836829739734 C44.676109880529175 10.247924180677902, 44.444478541569865 10.52001153161607, 44.242885453205055 10.756814244181063 C44.00286259817816 11.004657548239212, 43.76283974315127 11.252500852297361, 43.529358309655784 11.493589601563638 C43.3382122523511 11.667183393360215, 43.14706619504642 11.840777185156792, 42.77009182492463 12.183135333906142 C42.460421473062894 12.430089198841728, 42.150751121201154 12.677043063777312, 41.96820598785946 12.822617949887304 C41.75919092135046 12.968417812167583, 41.55017585484146 13.114217674447865, 41.12699591936879 13.409409678269446 C40.93910769612962 13.523308623350788, 40.751219472890455 13.63720756843213, 40.249918332063004 13.94109926597423 C39.92460450163623 14.110815282934423, 39.59929067120947 14.280531299894616, 39.34057732588093 14.415501886438705 C39.07905629293336 14.531269489978785, 38.81753525998579 14.647037093518865, 38.402709578069995 14.830668117536346 C38.03729800275542 14.965142955079681, 37.67188642744085 15.099617792623018, 37.44016898837794 15.184891952170695 C37.21468775415171 15.25181359891389, 36.98920651992548 15.318735245657084, 36.45691084255213 15.476717808624468 C36.23725727053163 15.526852303064635, 36.01760369851112 15.576986797504803, 35.45697555922196 15.704946511857045 C35.0926946274205 15.763840627869888, 34.72841369561903 15.82273474388273, 34.4444720869521 15.868640221171937 C34.198605011649576 15.892358722227952, 33.95273793634705 15.916077223283967, 33.423561019691405 15.967126284005381 C33.18915418081607 15.97464325508288, 32.95474734194074 15.98216022616038, 32.3984375 16 C32.3984375 16, 32.3984375 16, 32.3984375 16 C11.636594138303494 16, -9.125249223393013 16, -32.3984375 16 C-32.67302854996104 15.991194399486805, -32.947619599922085 15.98238879897361, -33.4235610196914 15.967126284005381 C-33.68746778587008 15.941667515666445, -33.95137455204877 15.916208747327511, -34.444472086952096 15.868640221171937 C-34.781560537784095 15.814142374601397, -35.1186489886161 15.75964452803086, -35.45697555922196 15.704946511857045 C-35.845841662084304 15.616190361467186, -36.23470776494664 15.527434211077328, -36.45691084255211 15.476717808624471 C-36.77534780993987 15.382207388213535, -37.093784777327635 15.2876969678026, -37.44016898837792 15.184891952170702 C-37.753759087834545 15.069487896775561, -38.06734918729117 14.954083841380422, -38.40270957806999 14.830668117536348 C-38.67449526908501 14.710356654360071, -38.946280960100026 14.590045191183796, -39.34057732588093 14.415501886438708 C-39.56567013696849 14.298071111073153, -39.790762948056056 14.180640335707597, -40.249918332063 13.941099265974234 C-40.478904356167945 13.80228659249057, -40.707890380272886 13.663473919006908, -41.12699591936877 13.409409678269457 C-41.31589794925187 13.277639799660083, -41.50479997913497 13.145869921050709, -41.968205987859456 12.822617949887308 C-42.16212638354549 12.667971594766147, -42.356046779231534 12.513325239644987, -42.77009182492461 12.183135333906154 C-42.95354596734937 12.016527135686609, -43.137000109774135 11.849918937467063, -43.52935830965578 11.493589601563649 C-43.73689212017732 11.27929390335743, -43.94442593069886 11.064998205151213, -44.24288545320505 10.756814244181069 C-44.46328306201735 10.497922671890931, -44.683680670829645 10.239031099600792, -44.90774121948847 9.97583682973974 C-45.1217419124165 9.689095397080372, -45.335742605344535 9.402353964421005, -45.52119357355129 9.15386656195472 C-45.729367113916055 8.834056101531772, -45.937540654280824 8.514245641108824, -46.080721708085534 8.29428109296841 C-46.20632427032728 8.071261025069603, -46.331926832569025 7.8482409571707965, -46.584026401968 7.400612643853366 C-46.69490775610017 7.170365139517007, -46.80578911023233 6.940117635180648, -47.029039468252996 6.476533489958307 C-47.11581963873475 6.262184791087918, -47.2025998092165 6.047836092217531, -47.413932252796165 5.525840870740931 C-47.52093917980327 5.203553055834002, -47.627946106810384 4.881265240927072, -47.73712314858657 4.552441386096519 C-47.83758347789145 4.169342610674865, -47.93804380719634 3.7862438352532095, -47.997284094909176 3.5603349433010343 C-48.07244101652686 3.1744200352152476, -48.14759793814454 2.788505127129461, -48.193346034631205 2.5535983205340753 C-48.22078411522218 2.3407939857323328, -48.248222195813156 2.1279896509305902, -48.32450330718717 1.5363684145229202 C-48.34278999806778 1.2515384433062489, -48.36107668894839 0.9667084720895776, -48.390216959211 0.5128252411464846 C-48.390216959211 0.28407243931798665, -48.390216959211 0.05531963748948865, -48.390216959211 -0.5128252411464769 C-48.37225069866927 -0.7926642511885245, -48.35428443812753 -1.072503261230572, -48.32450330718717 -1.5363684145228982 C-48.292331605991585 -1.7858857759749152, -48.260159904796 -2.035403137426932, -48.193346034631205 -2.5535983205340678 C-48.12585555406237 -2.9001476741369125, -48.05836507349353 -3.2466970277397573, -47.997284094909176 -3.5603349433010267 C-47.91026060245264 -3.892193236258034, -47.82323710999609 -4.224051529215041, -47.737123148586576 -4.552441386096511 C-47.66923659779787 -4.756904860819107, -47.60135004700916 -4.961368335541704, -47.41393225279617 -5.525840870740911 C-47.279848558109904 -5.857030188947885, -47.14576486342363 -6.188219507154858, -47.029039468253 -6.476533489958299 C-46.8807691934716 -6.784419888017536, -46.732498918690204 -7.092306286076772, -46.584026401968 -7.400612643853359 C-46.41687066292169 -7.697414584884096, -46.24971492387537 -7.994216525914834, -46.080721708085534 -8.294281092968404 C-45.886438808259435 -8.592751799364708, -45.69215590843333 -8.89122250576101, -45.521193573551294 -9.153866561954715 C-45.3408694017886 -9.39548452424672, -45.16054523002591 -9.637102486538726, -44.90774121948848 -9.975836829739734 C-44.656772332229274 -10.270639165248635, -44.40580344497006 -10.565441500757537, -44.242885453205055 -10.756814244181063 C-44.026861605813345 -10.979876602500715, -43.810837758421634 -11.202938960820367, -43.52935830965579 -11.493589601563633 C-43.296444422350625 -11.705115831450426, -43.06353053504546 -11.916642061337221, -42.77009182492463 -12.18313533390614 C-42.45269431056442 -12.436251405305827, -42.135296796204216 -12.689367476705513, -41.96820598785946 -12.822617949887302 C-41.74297732476898 -12.97972771526754, -41.517748661678496 -13.136837480647777, -41.12699591936879 -13.409409678269444 C-40.790598114285714 -13.613336004603736, -40.45420030920264 -13.817262330938028, -40.249918332063004 -13.941099265974229 C-39.967665890600145 -14.088350183894086, -39.685413449137286 -14.235601101813943, -39.340577325880936 -14.415501886438705 C-39.0346011814929 -14.55094844909945, -38.72862503710488 -14.686395011760194, -38.402709578069995 -14.830668117536344 C-38.15012377668415 -14.923622027323889, -37.8975379752983 -15.016575937111433, -37.44016898837794 -15.184891952170695 C-37.091613392483964 -15.288341423426369, -36.743057796589994 -15.391790894682043, -36.45691084255213 -15.476717808624466 C-36.22578789087821 -15.52947011412583, -35.99466493920428 -15.582222419627195, -35.456975559221966 -15.704946511857043 C-35.06830234077325 -15.767784183610006, -34.679629122324535 -15.830621855362969, -34.4444720869521 -15.868640221171937 C-34.2369925055307 -15.888655526860955, -34.0295129241093 -15.908670832549975, -33.423561019691405 -15.967126284005381 C-33.093591046238195 -15.977707778806435, -32.76362107278499 -15.988289273607489, -32.39843750000001 -16 C-32.39843750000001 -16, -32.3984375 -16, -32.3984375 -16" stroke="none" stroke-width="0" fill="#eee" style=""/><path d="M-32.3984375 -16 C-8.218566044256882 -16, 15.961305411486236 -16, 32.3984375 -16 M-32.3984375 -16 C-17.683388170566964 -16, -2.968338841133928 -16, 32.3984375 -16 M32.3984375 -16 C32.3984375 -16, 32.3984375 -16, 32.3984375 -16 M32.3984375 -16 C32.3984375 -16, 32.3984375 -16, 32.3984375 -16 M32.3984375 -16 C32.641210180386224 -15.99221475266837, 32.88398286077245 -15.98442950533674, 33.423561019691405 -15.967126284005381 M32.3984375 -16 C32.77085330803895 -15.988057349899586, 33.1432691160779 -15.976114699799172, 33.423561019691405 -15.967126284005381 M33.423561019691405 -15.967126284005381 C33.769146606275164 -15.933788058095123, 34.11473219285893 -15.900449832184863, 34.444472086952096 -15.868640221171939 M33.423561019691405 -15.967126284005381 C33.66416411883801 -15.943915592398271, 33.904767217984606 -15.920704900791161, 34.444472086952096 -15.868640221171939 M34.444472086952096 -15.868640221171939 C34.84123262846633 -15.80449505374387, 35.237993169980555 -15.740349886315805, 35.45697555922195 -15.704946511857047 M34.444472086952096 -15.868640221171939 C34.70282309181873 -15.826872034247067, 34.96117409668537 -15.785103847322196, 35.45697555922195 -15.704946511857047 M35.45697555922195 -15.704946511857047 C35.82169813888702 -15.621700963085752, 36.18642071855209 -15.538455414314457, 36.45691084255211 -15.476717808624471 M35.45697555922195 -15.704946511857047 C35.81420078202079 -15.623412185865645, 36.17142600481962 -15.541877859874242, 36.45691084255211 -15.476717808624471 M36.45691084255211 -15.476717808624471 C36.655445832234555 -15.41779366581815, 36.853980821917 -15.358869523011828, 37.440168988377934 -15.184891952170698 M36.45691084255211 -15.476717808624471 C36.8104676330749 -15.371784009054773, 37.16402442359769 -15.266850209485074, 37.440168988377934 -15.184891952170698 M37.440168988377934 -15.184891952170698 C37.67756127374205 -15.097529396726474, 37.914953559106166 -15.010166841282249, 38.40270957806999 -14.830668117536348 M37.440168988377934 -15.184891952170698 C37.749603846926576 -15.071017063840321, 38.05903870547522 -14.957142175509945, 38.40270957806999 -14.830668117536348 M38.40270957806999 -14.830668117536348 C38.641106195734686 -14.725137006680587, 38.87950281339939 -14.619605895824826, 39.34057732588093 -14.415501886438706 M38.40270957806999 -14.830668117536348 C38.711241324458925 -14.694090265679042, 39.019773070847855 -14.557512413821739, 39.34057732588093 -14.415501886438706 M39.34057732588093 -14.415501886438706 C39.68932546112613 -14.233560207665125, 40.03807359637134 -14.051618528891543, 40.249918332063004 -13.941099265974232 M39.34057732588093 -14.415501886438706 C39.56575896320395 -14.29802477048301, 39.790940600526966 -14.180547654527313, 40.249918332063004 -13.941099265974232 M40.249918332063004 -13.941099265974232 C40.506986864428704 -13.785262810951764, 40.764055396794404 -13.629426355929295, 41.12699591936878 -13.409409678269451 M40.249918332063004 -13.941099265974232 C40.44424909976105 -13.823294812581326, 40.63857986745909 -13.705490359188417, 41.12699591936878 -13.409409678269451 M41.12699591936878 -13.409409678269451 C41.32472981546278 -13.271479072116678, 41.52246371155679 -13.133548465963903, 41.968205987859456 -12.822617949887306 M41.12699591936878 -13.409409678269451 C41.32453381011573 -13.271615796961846, 41.52207170086268 -13.133821915654243, 41.968205987859456 -12.822617949887306 M41.968205987859456 -12.822617949887306 C42.27320236756754 -12.579391453364634, 42.57819874727563 -12.336164956841962, 42.77009182492461 -12.183135333906153 M41.968205987859456 -12.822617949887306 C42.2490187515278 -12.59867724360328, 42.529831515196136 -12.374736537319256, 42.77009182492461 -12.183135333906153 M42.77009182492461 -12.183135333906153 C42.94627171300971 -12.023133421011666, 43.12245160109481 -11.86313150811718, 43.529358309655784 -11.493589601563642 M42.77009182492461 -12.183135333906153 C43.01103627575897 -11.964315958699215, 43.25198072659333 -11.74549658349228, 43.529358309655784 -11.493589601563642 M43.529358309655784 -11.493589601563642 C43.68051026956617 -11.337512793149466, 43.83166222947656 -11.181435984735293, 44.24288545320505 -10.756814244181072 M43.529358309655784 -11.493589601563642 C43.760619945136575 -11.254792975996342, 43.99188158061737 -11.015996350429043, 44.24288545320505 -10.756814244181072 M44.24288545320505 -10.756814244181072 C44.42984205719028 -10.537204379007893, 44.6167986611755 -10.317594513834711, 44.90774121948848 -9.975836829739738 M44.24288545320505 -10.756814244181072 C44.385310647801255 -10.589513506385215, 44.527735842397455 -10.422212768589358, 44.90774121948848 -9.975836829739738 M44.90774121948848 -9.975836829739738 C45.03581450993925 -9.804230288252493, 45.163887800390015 -9.632623746765248, 45.52119357355129 -9.153866561954718 M44.90774121948848 -9.975836829739738 C45.09803764751913 -9.720856952539904, 45.28833407554978 -9.46587707534007, 45.52119357355129 -9.153866561954718 M45.52119357355129 -9.153866561954718 C45.69850512076916 -8.88146841061093, 45.87581666798704 -8.60907025926714, 46.080721708085534 -8.294281092968403 M45.52119357355129 -9.153866561954718 C45.70430628758096 -8.8725562605566, 45.88741900161064 -8.591245959158481, 46.080721708085534 -8.294281092968403 M46.080721708085534 -8.294281092968403 C46.27091921282992 -7.9565661637089615, 46.4611167175743 -7.6188512344495205, 46.584026401968 -7.400612643853364 M46.080721708085534 -8.294281092968403 C46.223772623286905 -8.040279707552456, 46.366823538488276 -7.78627832213651, 46.584026401968 -7.400612643853364 M46.584026401968 -7.400612643853364 C46.71569306385253 -7.127204003234892, 46.84735972573705 -6.85379536261642, 47.029039468252996 -6.476533489958305 M46.584026401968 -7.400612643853364 C46.73470685657718 -7.087721455812154, 46.88538731118636 -6.774830267770945, 47.029039468252996 -6.476533489958305 M47.029039468252996 -6.476533489958305 C47.163345761330696 -6.144794349420863, 47.297652054408395 -5.813055208883422, 47.413932252796165 -5.52584087074093 M47.029039468252996 -6.476533489958305 C47.108131417054345 -6.281174847280178, 47.18722336585569 -6.08581620460205, 47.413932252796165 -5.52584087074093 M47.413932252796165 -5.52584087074093 C47.48355496573186 -5.316148352251473, 47.55317767866756 -5.106455833762017, 47.73712314858657 -4.552441386096524 M47.413932252796165 -5.52584087074093 C47.49929271275374 -5.2687487656910275, 47.58465317271133 -5.011656660641124, 47.73712314858657 -4.552441386096524 M47.73712314858657 -4.552441386096524 C47.818948336003956 -4.240406483213481, 47.900773523421336 -3.9283715803304387, 47.997284094909176 -3.560334943301032 M47.73712314858657 -4.552441386096524 C47.80346701085764 -4.299443485645134, 47.86981087312871 -4.046445585193744, 47.997284094909176 -3.560334943301032 M47.997284094909176 -3.560334943301032 C48.065443763537544 -3.210349450445433, 48.13360343216591 -2.860363957589833, 48.193346034631205 -2.5535983205340735 M47.997284094909176 -3.560334943301032 C48.043496162144976 -3.323045744969078, 48.089708229380776 -3.0857565466371244, 48.193346034631205 -2.5535983205340735 M48.193346034631205 -2.5535983205340735 C48.24519982186275 -2.151430586454672, 48.2970536090943 -1.7492628523752707, 48.32450330718717 -1.536368414522911 M48.193346034631205 -2.5535983205340735 C48.234824721701365 -2.2318978145111195, 48.276303408771525 -1.9101973084881658, 48.32450330718717 -1.536368414522911 M48.32450330718717 -1.536368414522911 C48.34459736969106 -1.223387171389559, 48.364691432194945 -0.9104059282562068, 48.390216959211 -0.5128252411464826 M48.32450330718717 -1.536368414522911 C48.34931749183171 -1.1498674590348779, 48.374131676476246 -0.7633665035468445, 48.390216959211 -0.5128252411464826 M48.390216959211 -0.5128252411464826 C48.390216959211 -0.14339547506388994, 48.390216959211 0.22603429101870276, 48.390216959211 0.5128252411464788 M48.390216959211 -0.5128252411464826 C48.390216959211 -0.2590583500667396, 48.390216959211 -0.005291458986996567, 48.390216959211 0.5128252411464788 M48.390216959211 0.5128252411464788 C48.36556495618009 0.8968000870917374, 48.340912953149164 1.280774933036996, 48.32450330718717 1.5363684145229002 M48.390216959211 0.5128252411464788 C48.37214326452029 0.794337624778179, 48.35406956982957 1.0758500084098792, 48.32450330718717 1.5363684145229002 M48.32450330718717 1.5363684145229002 C48.289842015299506 1.8051945497573636, 48.25518072341185 2.074020684991827, 48.193346034631205 2.5535983205340624 M48.32450330718717 1.5363684145229002 C48.284158983856045 1.8492710193913815, 48.24381466052492 2.1621736242598626, 48.193346034631205 2.5535983205340624 M48.193346034631205 2.5535983205340624 C48.13386847730238 2.8590030068313688, 48.07439091997356 3.164407693128675, 47.997284094909176 3.5603349433010285 M48.193346034631205 2.5535983205340624 C48.14282196521443 2.813028738723323, 48.092297895797664 3.0724591569125836, 47.997284094909176 3.5603349433010285 M47.997284094909176 3.5603349433010285 C47.92983796089231 3.8175362836467515, 47.86239182687543 4.074737623992474, 47.73712314858657 4.552441386096513 M47.997284094909176 3.5603349433010285 C47.896646676918834 3.9441090346310674, 47.79600925892849 4.327883125961106, 47.73712314858657 4.552441386096513 M47.73712314858657 4.552441386096513 C47.65142162826072 4.8105607106350385, 47.56572010793488 5.068680035173564, 47.413932252796165 5.525840870740919 M47.73712314858657 4.552441386096513 C47.66551627313493 4.76810988595064, 47.59390939768328 4.983778385804767, 47.413932252796165 5.525840870740919 M47.413932252796165 5.525840870740919 C47.31282282617903 5.775583109303027, 47.211713399561894 6.0253253478651345, 47.029039468253 6.4765334899583005 M47.413932252796165 5.525840870740919 C47.30970552747007 5.783282897383019, 47.20547880214398 6.040724924025119, 47.029039468253 6.4765334899583005 M47.029039468253 6.4765334899583005 C46.92607562182949 6.6903401201301085, 46.823111775405984 6.9041467503019165, 46.584026401968 7.400612643853361 M47.029039468253 6.4765334899583005 C46.860438770254284 6.826636446829665, 46.69183807225557 7.17673940370103, 46.584026401968 7.400612643853361 M46.584026401968 7.400612643853361 C46.41847197708954 7.69457128942844, 46.25291755221107 7.98852993500352, 46.08072170808554 8.294281092968399 M46.584026401968 7.400612643853361 C46.39571981239954 7.734970061742036, 46.20741322283108 8.069327479630712, 46.08072170808554 8.294281092968399 M46.08072170808554 8.294281092968399 C45.905214286010555 8.56390762361728, 45.72970686393556 8.833534154266163, 45.5211935735513 9.15386656195471 M46.08072170808554 8.294281092968399 C45.894010823396485 8.58111915074344, 45.70729993870742 8.867957208518481, 45.5211935735513 9.15386656195471 M45.5211935735513 9.15386656195471 C45.3345719011991 9.403922601322549, 45.1479502288469 9.65397864069039, 44.90774121948848 9.975836829739734 M45.5211935735513 9.15386656195471 C45.300439151030716 9.44965737699067, 45.07968472851014 9.74544819202663, 44.90774121948848 9.975836829739734 M44.90774121948848 9.975836829739734 C44.70336518379697 10.215908550588853, 44.498989148105466 10.455980271437975, 44.242885453205055 10.756814244181063 M44.90774121948848 9.975836829739734 C44.644747434771915 10.284764294038098, 44.381753650055344 10.59369175833646, 44.242885453205055 10.756814244181063 M44.242885453205055 10.756814244181063 C44.026087614886414 10.980675811678607, 43.80928977656777 11.204537379176152, 43.529358309655784 11.493589601563638 M44.242885453205055 10.756814244181063 C44.05852038444024 10.947186314334381, 43.87415531567543 11.1375583844877, 43.529358309655784 11.493589601563638 M43.529358309655784 11.493589601563638 C43.35959388436805 11.647765160889401, 43.18982945908033 11.801940720215162, 42.77009182492463 12.183135333906142 M43.529358309655784 11.493589601563638 C43.3055640194129 11.696833654689787, 43.081769729170006 11.900077707815935, 42.77009182492463 12.183135333906142 M42.77009182492463 12.183135333906142 C42.59156489732112 12.325505807868874, 42.413037969717614 12.467876281831604, 41.96820598785946 12.822617949887304 M42.77009182492463 12.183135333906142 C42.60297654478131 12.31640532269606, 42.43586126463801 12.44967531148598, 41.96820598785946 12.822617949887304 M41.96820598785946 12.822617949887304 C41.72940902052157 12.989192376948107, 41.49061205318369 13.155766804008909, 41.12699591936879 13.409409678269446 M41.96820598785946 12.822617949887304 C41.76474949920244 12.964540388885, 41.56129301054542 13.106462827882698, 41.12699591936879 13.409409678269446 M41.12699591936879 13.409409678269446 C40.860131377692284 13.571184531703864, 40.59326683601578 13.732959385138283, 40.249918332063004 13.94109926597423 M41.12699591936879 13.409409678269446 C40.83438922061964 13.586789578599008, 40.54178252187049 13.76416947892857, 40.249918332063004 13.94109926597423 M40.249918332063004 13.94109926597423 C39.99546599088697 14.073846889381262, 39.74101364971094 14.206594512788294, 39.34057732588093 14.415501886438705 M40.249918332063004 13.94109926597423 C39.97127656639428 14.086466496645032, 39.692634800725564 14.231833727315834, 39.34057732588093 14.415501886438705 M39.34057732588093 14.415501886438705 C39.11498608786617 14.515364435581528, 38.889394849851406 14.615226984724353, 38.402709578069995 14.830668117536346 M39.34057732588093 14.415501886438705 C39.134836826264035 14.506577102544027, 38.92909632664714 14.597652318649349, 38.402709578069995 14.830668117536346 M38.402709578069995 14.830668117536346 C38.08474419979833 14.947682315980055, 37.766778821526664 15.064696514423765, 37.44016898837794 15.184891952170695 M38.402709578069995 14.830668117536346 C38.0816249477697 14.948830229560642, 37.7605403174694 15.066992341584937, 37.44016898837794 15.184891952170695 M37.44016898837794 15.184891952170695 C37.15607571449864 15.269209344622046, 36.87198244061934 15.353526737073398, 36.45691084255213 15.476717808624468 M37.44016898837794 15.184891952170695 C37.147493388249536 15.27175653400323, 36.85481778812114 15.358621115835765, 36.45691084255213 15.476717808624468 M36.45691084255213 15.476717808624468 C36.07367101659007 15.564189798026725, 35.690431190628004 15.651661787428983, 35.45697555922196 15.704946511857045 M36.45691084255213 15.476717808624468 C36.110224342781464 15.555846739856285, 35.76353784301079 15.634975671088103, 35.45697555922196 15.704946511857045 M35.45697555922196 15.704946511857045 C35.21973122497671 15.743302335960527, 34.982486890731465 15.781658160064007, 34.4444720869521 15.868640221171937 M35.45697555922196 15.704946511857045 C35.07362574451973 15.766923536975888, 34.69027592981751 15.828900562094729, 34.4444720869521 15.868640221171937 M34.4444720869521 15.868640221171937 C34.1337545765068 15.898614765712116, 33.823037066061495 15.928589310252296, 33.423561019691405 15.967126284005381 M34.4444720869521 15.868640221171937 C34.23858261902914 15.888502130524152, 34.032693151106166 15.908364039876368, 33.423561019691405 15.967126284005381 M33.423561019691405 15.967126284005381 C33.11350114853101 15.977069300578568, 32.80344127737061 15.987012317151754, 32.3984375 16 M33.423561019691405 15.967126284005381 C33.03916483769725 15.979453121380155, 32.65476865570309 15.991779958754929, 32.3984375 16 M32.3984375 16 C32.3984375 16, 32.3984375 16, 32.3984375 16 M32.3984375 16 C32.3984375 16, 32.3984375 16, 32.3984375 16 M32.3984375 16 C8.817976852253508 16, -14.762483795492983 16, -32.3984375 16 M32.3984375 16 C14.67630871725574 16, -3.0458200654885204 16, -32.3984375 16 M-32.3984375 16 C-32.662041349517 15.991546737619757, -32.925645199034 15.983093475239514, -33.4235610196914 15.967126284005381 M-32.3984375 16 C-32.80761606359182 15.986878439883368, -33.216794627183646 15.973756879766738, -33.4235610196914 15.967126284005381 M-33.4235610196914 15.967126284005381 C-33.74576246162055 15.936043898406403, -34.0679639035497 15.904961512807427, -34.444472086952096 15.868640221171937 M-33.4235610196914 15.967126284005381 C-33.792912125608055 15.931495427027297, -34.16226323152471 15.895864570049211, -34.444472086952096 15.868640221171937 M-34.444472086952096 15.868640221171937 C-34.79918996530361 15.811292185478296, -35.15390784365512 15.753944149784655, -35.45697555922196 15.704946511857045 M-34.444472086952096 15.868640221171937 C-34.73882781806287 15.821051069328735, -35.03318354917365 15.773461917485534, -35.45697555922196 15.704946511857045 M-35.45697555922196 15.704946511857045 C-35.74133081498981 15.640044280319492, -36.02568607075765 15.575142048781938, -36.45691084255211 15.476717808624471 M-35.45697555922196 15.704946511857045 C-35.72665146837846 15.643394745391841, -35.99632737753497 15.581842978926637, -36.45691084255211 15.476717808624471 M-36.45691084255211 15.476717808624471 C-36.695129875815496 15.406015649989122, -36.93334890907888 15.335313491353773, -37.44016898837792 15.184891952170702 M-36.45691084255211 15.476717808624471 C-36.70316227586121 15.403631675818483, -36.94941370917031 15.330545543012493, -37.44016898837792 15.184891952170702 M-37.44016898837792 15.184891952170702 C-37.7904235372618 15.055995040463875, -38.140678086145684 14.92709812875705, -38.40270957806999 14.830668117536348 M-37.44016898837792 15.184891952170702 C-37.80013223041032 15.052422151639046, -38.16009547244272 14.91995235110739, -38.40270957806999 14.830668117536348 M-38.40270957806999 14.830668117536348 C-38.73652155962536 14.682899455482392, -39.07033354118074 14.535130793428436, -39.34057732588093 14.415501886438708 M-38.40270957806999 14.830668117536348 C-38.63642632772381 14.72720864542565, -38.87014307737764 14.623749173314952, -39.34057732588093 14.415501886438708 M-39.34057732588093 14.415501886438708 C-39.63724060406466 14.260732844232155, -39.93390388224839 14.105963802025602, -40.249918332063 13.941099265974234 M-39.34057732588093 14.415501886438708 C-39.57954699259658 14.290831564380529, -39.81851665931223 14.16616124232235, -40.249918332063 13.941099265974234 M-40.249918332063 13.941099265974234 C-40.58088877034334 13.740463041290504, -40.91185920862368 13.539826816606773, -41.12699591936877 13.409409678269457 M-40.249918332063 13.941099265974234 C-40.44913626445609 13.820332184623021, -40.648354196849176 13.69956510327181, -41.12699591936877 13.409409678269457 M-41.12699591936877 13.409409678269457 C-41.38908934869694 13.226584647811816, -41.65118277802512 13.043759617354175, -41.968205987859456 12.822617949887308 M-41.12699591936877 13.409409678269457 C-41.34951268863982 13.254191612621664, -41.57202945791087 13.09897354697387, -41.968205987859456 12.822617949887308 M-41.968205987859456 12.822617949887308 C-42.18349885354891 12.650927618683735, -42.39879171923837 12.479237287480162, -42.77009182492461 12.183135333906154 M-41.968205987859456 12.822617949887308 C-42.13272745474237 12.691416458148282, -42.29724892162529 12.560214966409259, -42.77009182492461 12.183135333906154 M-42.77009182492461 12.183135333906154 C-43.07092990450804 11.909922149767887, -43.37176798409148 11.63670896562962, -43.52935830965578 11.493589601563649 M-42.77009182492461 12.183135333906154 C-43.047624949723115 11.931087093088244, -43.325158074521624 11.679038852270333, -43.52935830965578 11.493589601563649 M-43.52935830965578 11.493589601563649 C-43.795781489973386 11.218485794135816, -44.062204670290996 10.943381986707982, -44.24288545320505 10.756814244181069 M-43.52935830965578 11.493589601563649 C-43.732514072846975 11.283814596670384, -43.93566983603817 11.074039591777119, -44.24288545320505 10.756814244181069 M-44.24288545320505 10.756814244181069 C-44.379173796250925 10.596722201412973, -44.5154621392968 10.43663015864488, -44.90774121948847 9.97583682973974 M-44.24288545320505 10.756814244181069 C-44.46849431479868 10.491801237845285, -44.694103176392325 10.226788231509504, -44.90774121948847 9.97583682973974 M-44.90774121948847 9.97583682973974 C-45.06953931858638 9.759042117058604, -45.23133741768429 9.542247404377468, -45.52119357355129 9.15386656195472 M-44.90774121948847 9.97583682973974 C-45.12657240416077 9.682622978209908, -45.345403588833065 9.389409126680077, -45.52119357355129 9.15386656195472 M-45.52119357355129 9.15386656195472 C-45.70641853180137 8.869311286217064, -45.89164349005146 8.584756010479408, -46.080721708085534 8.29428109296841 M-45.52119357355129 9.15386656195472 C-45.63590458680295 8.977639641380108, -45.750615600054616 8.801412720805496, -46.080721708085534 8.29428109296841 M-46.080721708085534 8.29428109296841 C-46.24585773606096 8.001065353461954, -46.41099376403639 7.707849613955498, -46.584026401968 7.400612643853366 M-46.080721708085534 8.29428109296841 C-46.225724434725116 8.036814068701583, -46.37072716136469 7.779347044434754, -46.584026401968 7.400612643853366 M-46.584026401968 7.400612643853366 C-46.71697657492238 7.124538765035607, -46.84992674787676 6.848464886217847, -47.029039468252996 6.476533489958307 M-46.584026401968 7.400612643853366 C-46.68545526991631 7.1899934293285925, -46.78688413786462 6.979374214803819, -47.029039468252996 6.476533489958307 M-47.029039468252996 6.476533489958307 C-47.15372052195138 6.168568876779128, -47.27840157564975 5.86060426359995, -47.413932252796165 5.525840870740931 M-47.029039468252996 6.476533489958307 C-47.168285504742975 6.132593087689083, -47.30753154123296 5.7886526854198594, -47.413932252796165 5.525840870740931 M-47.413932252796165 5.525840870740931 C-47.48064728607428 5.324905820104266, -47.5473623193524 5.123970769467599, -47.73712314858657 4.552441386096519 M-47.413932252796165 5.525840870740931 C-47.520272348470805 5.205561445562263, -47.626612444145444 4.885282020383594, -47.73712314858657 4.552441386096519 M-47.73712314858657 4.552441386096519 C-47.83057296493775 4.196076734942846, -47.92402278128894 3.839712083789173, -47.997284094909176 3.5603349433010343 M-47.73712314858657 4.552441386096519 C-47.812259773191066 4.265912872060473, -47.88739639779556 3.9793843580244266, -47.997284094909176 3.5603349433010343 M-47.997284094909176 3.5603349433010343 C-48.04079976151346 3.3368911923274145, -48.084315428117755 3.1134474413537947, -48.193346034631205 2.5535983205340753 M-47.997284094909176 3.5603349433010343 C-48.06404702724073 3.2175213961292335, -48.1308099595723 2.8747078489574327, -48.193346034631205 2.5535983205340753 M-48.193346034631205 2.5535983205340753 C-48.241815025310004 2.1776824001141035, -48.2902840159888 1.8017664796941317, -48.32450330718717 1.5363684145229202 M-48.193346034631205 2.5535983205340753 C-48.23412474483494 2.237326696861033, -48.274903455038675 1.9210550731879903, -48.32450330718717 1.5363684145229202 M-48.32450330718717 1.5363684145229202 C-48.347654611637864 1.1757681603067365, -48.37080591608856 0.8151679060905526, -48.390216959211 0.5128252411464846 M-48.32450330718717 1.5363684145229202 C-48.33777060143652 1.3297195974221594, -48.35103789568586 1.1230707803213986, -48.390216959211 0.5128252411464846 M-48.390216959211 0.5128252411464846 C-48.390216959211 0.29285993867160887, -48.390216959211 0.07289463619673314, -48.390216959211 -0.5128252411464769 M-48.390216959211 0.5128252411464846 C-48.390216959211 0.11305186567319497, -48.390216959211 -0.2867215098000947, -48.390216959211 -0.5128252411464769 M-48.390216959211 -0.5128252411464769 C-48.37474673030855 -0.7537865436462126, -48.35927650140609 -0.9947478461459484, -48.32450330718717 -1.5363684145228982 M-48.390216959211 -0.5128252411464769 C-48.3691415188354 -0.8410922367858216, -48.348066078459794 -1.1693592324251663, -48.32450330718717 -1.5363684145228982 M-48.32450330718717 -1.5363684145228982 C-48.280521937105405 -1.87747923577319, -48.236540567023646 -2.2185900570234818, -48.193346034631205 -2.5535983205340678 M-48.32450330718717 -1.5363684145228982 C-48.289931540491445 -1.8045002100474712, -48.25535977379571 -2.072632005572044, -48.193346034631205 -2.5535983205340678 M-48.193346034631205 -2.5535983205340678 C-48.117220262741704 -2.9444880699990517, -48.0410944908522 -3.3353778194640356, -47.997284094909176 -3.5603349433010267 M-48.193346034631205 -2.5535983205340678 C-48.125649333238016 -2.9012065744851907, -48.05795263184482 -3.2488148284363136, -47.997284094909176 -3.5603349433010267 M-47.997284094909176 -3.5603349433010267 C-47.91862130827007 -3.8603102414233517, -47.839958521630955 -4.160285539545677, -47.737123148586576 -4.552441386096511 M-47.997284094909176 -3.5603349433010267 C-47.91043873953082 -3.8915139223738264, -47.82359338415246 -4.222692901446626, -47.737123148586576 -4.552441386096511 M-47.737123148586576 -4.552441386096511 C-47.65348484443934 -4.8043466322339174, -47.569846540292104 -5.056251878371325, -47.41393225279617 -5.525840870740911 M-47.737123148586576 -4.552441386096511 C-47.65752916867853 -4.792165772001045, -47.57793518877048 -5.03189015790558, -47.41393225279617 -5.525840870740911 M-47.41393225279617 -5.525840870740911 C-47.33488149590277 -5.721097768610028, -47.25583073900937 -5.916354666479146, -47.029039468253 -6.476533489958299 M-47.41393225279617 -5.525840870740911 C-47.3087058680399 -5.785752075502644, -47.20347948328364 -6.045663280264377, -47.029039468253 -6.476533489958299 M-47.029039468253 -6.476533489958299 C-46.93927327618449 -6.662934908477395, -46.84950708411597 -6.849336326996491, -46.584026401968 -7.400612643853359 M-47.029039468253 -6.476533489958299 C-46.91583032624366 -6.711614695628299, -46.80262118423431 -6.946695901298298, -46.584026401968 -7.400612643853359 M-46.584026401968 -7.400612643853359 C-46.42184090843686 -7.688589410679974, -46.25965541490572 -7.976566177506589, -46.080721708085534 -8.294281092968404 M-46.584026401968 -7.400612643853359 C-46.44087310549852 -7.6547958175780675, -46.29771980902904 -7.908978991302776, -46.080721708085534 -8.294281092968404 M-46.080721708085534 -8.294281092968404 C-45.886708334220046 -8.59233773511135, -45.69269496035456 -8.890394377254296, -45.521193573551294 -9.153866561954715 M-46.080721708085534 -8.294281092968404 C-45.92250551961972 -8.537343645447237, -45.76428933115391 -8.780406197926071, -45.521193573551294 -9.153866561954715 M-45.521193573551294 -9.153866561954715 C-45.291572484175354 -9.461537902806885, -45.06195139479942 -9.769209243659056, -44.90774121948848 -9.975836829739734 M-45.521193573551294 -9.153866561954715 C-45.33867572013539 -9.398423857813517, -45.15615786671948 -9.642981153672318, -44.90774121948848 -9.975836829739734 M-44.90774121948848 -9.975836829739734 C-44.683207168673995 -10.239587302175854, -44.45867311785952 -10.503337774611975, -44.242885453205055 -10.756814244181063 M-44.90774121948848 -9.975836829739734 C-44.652553611226246 -10.275594714990817, -44.39736600296401 -10.575352600241898, -44.242885453205055 -10.756814244181063 M-44.242885453205055 -10.756814244181063 C-43.99541045803531 -11.012352494768795, -43.74793546286556 -11.267890745356528, -43.52935830965579 -11.493589601563633 M-44.242885453205055 -10.756814244181063 C-43.98878709290627 -11.019191663052917, -43.73468873260749 -11.28156908192477, -43.52935830965579 -11.493589601563633 M-43.52935830965579 -11.493589601563633 C-43.237356367635 -11.758778039358894, -42.94535442561422 -12.023966477154156, -42.77009182492463 -12.18313533390614 M-43.52935830965579 -11.493589601563633 C-43.32044788164117 -11.683316524819482, -43.11153745362655 -11.873043448075332, -42.77009182492463 -12.18313533390614 M-42.77009182492463 -12.18313533390614 C-42.529218394147875 -12.37522548503941, -42.288344963371124 -12.56731563617268, -41.96820598785946 -12.822617949887302 M-42.77009182492463 -12.18313533390614 C-42.516113109397395 -12.385676600881643, -42.26213439387016 -12.588217867857145, -41.96820598785946 -12.822617949887302 M-41.96820598785946 -12.822617949887302 C-41.67485499932823 -13.027246900527066, -41.381504010797 -13.23187585116683, -41.12699591936879 -13.409409678269444 M-41.96820598785946 -12.822617949887302 C-41.775495193560545 -12.957044657674395, -41.58278439926163 -13.091471365461489, -41.12699591936879 -13.409409678269444 M-41.12699591936879 -13.409409678269444 C-40.808336343239375 -13.602582985970624, -40.48967676710996 -13.795756293671802, -40.249918332063004 -13.941099265974229 M-41.12699591936879 -13.409409678269444 C-40.80428957305223 -13.605036161839534, -40.48158322673567 -13.800662645409624, -40.249918332063004 -13.941099265974229 M-40.249918332063004 -13.941099265974229 C-40.064807300449296 -14.037671572597826, -39.87969626883559 -14.134243879221426, -39.340577325880936 -14.415501886438705 M-40.249918332063004 -13.941099265974229 C-40.05757598970269 -14.041444142782456, -39.86523364734237 -14.141789019590682, -39.340577325880936 -14.415501886438705 M-39.340577325880936 -14.415501886438705 C-39.15154720572159 -14.499179913253963, -38.96251708556225 -14.58285794006922, -38.402709578069995 -14.830668117536344 M-39.340577325880936 -14.415501886438705 C-39.07949372867634 -14.53107585015144, -38.818410131471744 -14.646649813864176, -38.402709578069995 -14.830668117536344 M-38.402709578069995 -14.830668117536344 C-38.147216952197454 -14.924691765605383, -37.89172432632491 -15.018715413674423, -37.44016898837794 -15.184891952170695 M-38.402709578069995 -14.830668117536344 C-38.14286653449643 -14.926292759534183, -37.88302349092285 -15.021917401532022, -37.44016898837794 -15.184891952170695 M-37.44016898837794 -15.184891952170695 C-37.10512792540781 -15.284330380993802, -36.77008686243768 -15.38376880981691, -36.45691084255213 -15.476717808624466 M-37.44016898837794 -15.184891952170695 C-37.07224978745163 -15.294088439758328, -36.70433058652532 -15.403284927345961, -36.45691084255213 -15.476717808624466 M-36.45691084255213 -15.476717808624466 C-36.16006240297614 -15.544471527840587, -35.863213963400135 -15.612225247056706, -35.456975559221966 -15.704946511857043 M-36.45691084255213 -15.476717808624466 C-36.11552769223152 -15.554636284951899, -35.7741445419109 -15.632554761279332, -35.456975559221966 -15.704946511857043 M-35.456975559221966 -15.704946511857043 C-35.09974835488204 -15.762700235916379, -34.74252115054211 -15.820453959975714, -34.4444720869521 -15.868640221171937 M-35.456975559221966 -15.704946511857043 C-35.12076338000789 -15.759302689627985, -34.78455120079381 -15.813658867398926, -34.4444720869521 -15.868640221171937 M-34.4444720869521 -15.868640221171937 C-34.18692470033055 -15.893485507813269, -33.92937731370899 -15.9183307944546, -33.423561019691405 -15.967126284005381 M-34.4444720869521 -15.868640221171937 C-34.1032094436359 -15.901561417944276, -33.76194680031969 -15.934482614716613, -33.423561019691405 -15.967126284005381 M-33.423561019691405 -15.967126284005381 C-33.21718060970115 -15.97374450205867, -33.0108001997109 -15.980362720111959, -32.39843750000001 -16 M-33.423561019691405 -15.967126284005381 C-33.15340528088115 -15.975789652722781, -32.88324954207091 -15.98445302144018, -32.39843750000001 -16 M-32.39843750000001 -16 C-32.39843750000001 -16, -32.3984375 -16, -32.3984375 -16 M-32.39843750000001 -16 C-32.39843750000001 -16, -32.3984375 -16, -32.3984375 -16" stroke="#999" stroke-width="1.3" fill="none" stroke-dasharray="0 0" style=""/></g><g class="label" style="" transform="translate(0, -8.5)"><rect/><g><rect class="background" style="stroke: none"/><text y="-10.1" style=""><tspan class="text-outer-tspan row" x="0" y="-0.1em" dy="1.1em"><tspan font-style="normal" class="text-inner-tspan" font-weight="normal">ISBN</tspan><tspan font-style="normal" class="text-inner-tspan" font-weight="normal"> saisi</tspan></tspan></text></g></g></g><g class="node default" id="my-svg-flowchart-B-1" data-look="classic" transform="translate(209.90625, 113.5)"><rect class="basic label-container" style="" x="-103.6953125" y="-23.5" width="207.390625" height="47"/><g class="label" style="" transform="translate(0, -8.5)"><rect/><g><rect class="background" style="stroke: none"/><text y="-10.1" style=""><tspan class="text-outer-tspan row" x="0" y="-0.1em" dy="1.1em"><tspan font-style="normal" class="text-inner-tspan" font-weight="normal">Normaliser</tspan><tspan font-style="normal" class="text-inner-tspan" font-weight="normal"> et</tspan><tspan font-style="normal" class="text-inner-tspan" font-weight="normal"> valider</tspan></tspan></text></g></g></g><g class="node default" id="my-svg-flowchart-C-3" data-look="classic" transform="translate(209.90625, 275.3859329223633)"><polygon points="88.38593673706055,0 176.7718734741211,-88.38593673706055 88.38593673706055,-176.7718734741211 0,-88.38593673706055" class="label-container" transform="translate(-87.88593673706055, 88.38593673706055)"/><g class="label" style="" transform="translate(0, -17.299999237060547)"><rect/><g><rect class="background" style="stroke: none"/><text y="-10.1" style=""><tspan class="text-outer-tspan row" x="0" y="-0.1em" dy="1.1em"><tspan font-style="normal" class="text-inner-tspan" font-weight="normal">Chiffre</tspan><tspan font-style="normal" class="text-inner-tspan" font-weight="normal"> de</tspan></tspan><tspan class="text-outer-tspan row" x="0" y="1em" dy="1.1em"><tspan font-style="normal" class="text-inner-tspan" font-weight="normal">contrôle</tspan><tspan font-style="normal" class="text-inner-tspan" font-weight="normal"> valide?</tspan></tspan></text></g></g></g><g class="node default" id="my-svg-flowchart-D-5" data-look="classic" transform="translate(288.875, 1022.4203109741211)"><rect class="basic label-container" style="fill:#ffebee !important;stroke:#c62828 !important" x="-95.015625" y="-32.29999923706055" width="190.03125" height="64.5999984741211"/><g class="label" style="" transform="translate(0, -17.299999237060547)"><rect/><g><rect class="background" style="stroke: none"/><text y="-10.1" style=""><tspan class="text-outer-tspan row" x="0" y="-0.1em" dy="1.1em"><tspan font-style="normal" class="text-inner-tspan" font-weight="normal">Afficher</tspan><tspan font-style="normal" class="text-inner-tspan" font-weight="normal"> l'erreur</tspan><tspan font-style="normal" class="text-inner-tspan" font-weight="normal"> de</tspan></tspan><tspan class="text-outer-tspan row" x="0" y="1em" dy="1.1em"><tspan font-style="normal" class="text-inner-tspan" font-weight="normal">validation</tspan></tspan></text></g></g></g><g class="node default" id="my-svg-flowchart-E-7" data-look="classic" transform="translate(331.923828125, 1227.4031257629395)"><rect class="basic label-container" style="fill:#fff3e0 !important;stroke:#e65100 !important" x="-102.0390625" y="-32.29999923706055" width="204.078125" height="64.5999984741211"/><g class="label" style="" transform="translate(0, -17.299999237060547)"><rect/><g><rect class="background" style="stroke: none"/><text y="-10.1" style=""><tspan class="text-outer-tspan row" x="0" y="-0.1em" dy="1.1em"><tspan font-style="normal" class="text-inner-tspan" font-weight="normal">Saisie</tspan><tspan font-style="normal" class="text-inner-tspan" font-weight="normal"> manuelle</tspan></tspan><tspan class="text-outer-tspan row" x="0" y="1em" dy="1.1em"><tspan font-style="normal" class="text-inner-tspan" font-weight="normal">(toujours</tspan><tspan font-style="normal" class="text-inner-tspan" font-weight="normal"> disponible)</tspan></tspan></text></g></g></g><g class="node default" id="my-svg-flowchart-F-9" data-look="classic" transform="translate(130.9375, 458.27186584472656)"><rect class="basic label-container" style="" x="-113.1640625" y="-23.5" width="226.328125" height="47"/><g class="label" style="" transform="translate(0, -8.5)"><rect/><g><rect class="background" style="stroke: none"/><text y="-10.1" style=""><tspan class="text-outer-tspan row" x="0" y="-0.1em" dy="1.1em"><tspan font-style="normal" class="text-inner-tspan" font-weight="normal">Interroger</tspan><tspan font-style="normal" class="text-inner-tspan" font-weight="normal"> Open</tspan><tspan font-style="normal" class="text-inner-tspan" font-weight="normal"> Library</tspan></tspan></text></g></g></g><g class="node default" id="my-svg-flowchart-G-11" data-look="classic" transform="translate(130.9375, 633.4546813964844)"><polygon points="101.68281173706055,0 203.3656234741211,-101.68281173706055 101.68281173706055,-203.3656234741211 0,-101.68281173706055" class="label-container" transform="translate(-101.18281173706055, 101.68281173706055)"/><g class="label" style="" transform="translate(0, -17.299999237060547)"><rect/><g><rect class="background" style="stroke: none"/><text y="-10.1" style=""><tspan class="text-outer-tspan row" x="0" y="-0.1em" dy="1.1em"><tspan font-style="normal" class="text-inner-tspan" font-weight="normal">Métadonnées</tspan><tspan font-style="normal" class="text-inner-tspan" font-weight="normal"> utiles</tspan></tspan><tspan class="text-outer-tspan row" x="0" y="1em" dy="1.1em"><tspan font-style="normal" class="text-inner-tspan" font-weight="normal">trouvées?</tspan></tspan></text></g></g></g><g class="node default" id="my-svg-flowchart-H-13" data-look="classic" transform="translate(130.9375, 838.4374961853027)"><rect class="basic label-container" style="fill:#e8f5e9 !important;stroke:#2e7d32 !important" x="-122.9375" y="-32.29999923706055" width="245.875" height="64.5999984741211"/><g class="label" style="" transform="translate(0, -17.299999237060547)"><rect/><g><rect class="background" style="stroke: none"/><text y="-10.1" style=""><tspan class="text-outer-tspan row" x="0" y="-0.1em" dy="1.1em"><tspan font-style="normal" class="text-inner-tspan" font-weight="normal">Retourner</tspan><tspan font-style="normal" class="text-inner-tspan" font-weight="normal"> métadonnées</tspan></tspan><tspan class="text-outer-tspan row" x="0" y="1em" dy="1.1em"><tspan font-style="normal" class="text-inner-tspan" font-weight="normal">Fournisseur:</tspan><tspan font-style="normal" class="text-inner-tspan" font-weight="normal"> Open</tspan><tspan font-style="normal" class="text-inner-tspan" font-weight="normal"> Library</tspan></tspan></text></g></g></g><g class="node default" id="my-svg-flowchart-I-15" data-look="classic" transform="translate(594.7652359008789, 838.4374961853027)"><rect class="basic label-container" style="" x="-116.2890625" y="-32.29999923706055" width="232.578125" height="64.5999984741211"/><g class="label" style="" transform="translate(0, -17.299999237060547)"><rect/><g><rect class="background" style="stroke: none"/><text y="-10.1" style=""><tspan class="text-outer-tspan row" x="0" y="-0.1em" dy="1.1em"><tspan font-style="normal" class="text-inner-tspan" font-weight="normal">Interroger</tspan><tspan font-style="normal" class="text-inner-tspan" font-weight="normal"> l'API</tspan></tspan><tspan class="text-outer-tspan row" x="0" y="1em" dy="1.1em"><tspan font-style="normal" class="text-inner-tspan" font-weight="normal">métadonnées</tspan><tspan font-style="normal" class="text-inner-tspan" font-weight="normal"> Let</tspan><tspan font-style="normal" class="text-inner-tspan" font-weight="normal"> Books</tspan></tspan></text></g></g></g><g class="node default" id="my-svg-flowchart-J-17" data-look="classic" transform="translate(594.7652359008789, 1022.4203109741211)"><polygon points="101.68281173706055,0 203.3656234741211,-101.68281173706055 101.68281173706055,-203.3656234741211 0,-101.68281173706055" class="label-container" transform="translate(-101.18281173706055, 101.68281173706055)"/><g class="label" style="" transform="translate(0, -17.299999237060547)"><rect/><g><rect class="background" style="stroke: none"/><text y="-10.1" style=""><tspan class="text-outer-tspan row" x="0" y="-0.1em" dy="1.1em"><tspan font-style="normal" class="text-inner-tspan" font-weight="normal">Métadonnées</tspan><tspan font-style="normal" class="text-inner-tspan" font-weight="normal"> utiles</tspan></tspan><tspan class="text-outer-tspan row" x="0" y="1em" dy="1.1em"><tspan font-style="normal" class="text-inner-tspan" font-weight="normal">trouvées?</tspan></tspan></text></g></g></g><g class="node default" id="my-svg-flowchart-K-19" data-look="classic" transform="translate(645.0406265258789, 1227.4031257629395)"><rect class="basic label-container" style="fill:#e8f5e9 !important;stroke:#2e7d32 !important" x="-126.9453125" y="-32.29999923706055" width="253.890625" height="64.5999984741211"/><g class="label" style="" transform="translate(0, -17.299999237060547)"><rect/><g><rect class="background" style="stroke: none"/><text y="-10.1" style=""><tspan class="text-outer-tspan row" x="0" y="-0.1em" dy="1.1em"><tspan font-style="normal" class="text-inner-tspan" font-weight="normal">Retourner</tspan><tspan font-style="normal" class="text-inner-tspan" font-weight="normal"> métadonnées</tspan></tspan><tspan class="text-outer-tspan row" x="0" y="1em" dy="1.1em"><tspan font-style="normal" class="text-inner-tspan" font-weight="normal">Fournisseur:</tspan><tspan font-style="normal" class="text-inner-tspan" font-weight="normal"> Let</tspan><tspan font-style="normal" class="text-inner-tspan" font-weight="normal"> Books</tspan><tspan font-style="normal" class="text-inner-tspan" font-weight="normal"> API</tspan></tspan></text></g></g></g></g></g></g><defs><filter id="my-svg-drop-shadow" height="130%" width="130%"><feDropShadow dx="4" dy="4" stdDeviation="0" flood-opacity="0.06" flood-color="#000000"/></filter></defs><defs><filter id="my-svg-drop-shadow-small" height="150%" width="150%"><feDropShadow dx="2" dy="2" stdDeviation="0" flood-opacity="0.06" flood-color="#000000"/></filter></defs><linearGradient id="my-svg-gradient" gradientUnits="objectBoundingBox" x1="0%" y1="0%" x2="100%" y2="0%"><stop offset="0%" stop-color="hsl(0, 0%, 83.3333333333%)" stop-opacity="1"/><stop offset="100%" stop-color="hsl(0, 0%, 88.9215686275%)" stop-opacity="1"/></linearGradient><text text-anchor="middle" x="389.99298095703125" y="-25" class="flowchartTitleText">Chaîne de recherche de métadonnées ISBN</text></svg>