<svg id="my-svg" width="100%" xmlns="http://www.w3.org/2000/svg" xmlns:xlink="http://www.w3.org/1999/xlink" class="flowchart" style="max-width: 708.195px; background-color: transparent;" viewBox="0 -49 708.1949462890625 1222.3905029296875" role="graphics-document document" aria-roledescription="flowchart-v2"><style>#my-svg{font-family:"trebuchet ms",verdana,arial,sans-serif;font-size:16px;fill:#000000;}@keyframes edge-animation-frame{from{stroke-dashoffset:0;}}@keyframes dash{to{stroke-dashoffset:0;}}#my-svg .edge-animation-slow{stroke-dasharray:9,5!important;stroke-dashoffset:900;animation:dash 50s linear infinite;stroke-linecap:round;}#my-svg .edge-animation-fast{stroke-dasharray:9,5!important;stroke-dashoffset:900;animation:dash 20s linear infinite;stroke-linecap:round;}#my-svg .error-icon{fill:#552222;}#my-svg .error-text{fill:#552222;stroke:#552222;}#my-svg .edge-thickness-normal{stroke-width:1px;}#my-svg .edge-thickness-thick{stroke-width:3.5px;}#my-svg .edge-pattern-solid{stroke-dasharray:0;}#my-svg .edge-thickness-invisible{stroke-width:0;fill:none;}#my-svg .edge-pattern-dashed{stroke-dasharray:3;}#my-svg .edge-pattern-dotted{stroke-dasharray:2;}#my-svg .marker{fill:#666;stroke:#666;}#my-svg .marker.cross{stroke:#666;}#my-svg svg{font-family:"trebuchet ms",verdana,arial,sans-serif;font-size:16px;}#my-svg p{margin:0;}#my-svg .label{font-family:"trebuchet ms",verdana,arial,sans-serif;color:#000000;}#my-svg .cluster-label text{fill:#333;}#my-svg .cluster-label span{color:#333;}#my-svg .cluster-label span p{background-color:transparent;}#my-svg .label text,#my-svg span{fill:#000000;color:#000000;}#my-svg .node rect,#my-svg .node circle,#my-svg .node ellipse,#my-svg .node polygon,#my-svg .node path{fill:#eee;stroke:#999;stroke-width:1px;}#my-svg .rough-node .label text,#my-svg .node .label text,#my-svg .image-shape .label,#my-svg .icon-shape .label{text-anchor:middle;}#my-svg .node .katex path{fill:#000;stroke:#000;stroke-width:1px;}#my-svg .rough-node .label,#my-svg .node .label,#my-svg .image-shape .label,#my-svg .icon-shape .label{text-align:center;}#my-svg .node.clickable{cursor:pointer;}#my-svg .root .anchor path{fill:#666!important;stroke-width:0;stroke:#666;}#my-svg .arrowheadPath{fill:#333333;}#my-svg .edgePath .path{stroke:#666;stroke-width:1px;}#my-svg .flowchart-link{stroke:#666;fill:none;}#my-svg .edgeLabel{background-color:white;text-align:center;}#my-svg .edgeLabel p{background-color:white;}#my-svg .edgeLabel rect{opacity:0.5;background-color:white;fill:white;}#my-svg .labelBkg{background-color:rgba(255, 255, 255, 0.5);}#my-svg .cluster rect{fill:hsl(0, 0%, 98.9215686275%);stroke:#707070;stroke-width:1px;}#my-svg .cluster text{fill:#333;}#my-svg .cluster span{color:#333;}#my-svg div.mermaidTooltip{position:absolute;text-align:center;max-width:200px;padding:2px;font-family:"trebuchet ms",verdana,arial,sans-serif;font-size:12px;background:hsl(-160, 0%, 93.3333333333%);border:1px solid #707070;border-radius:2px;pointer-events:none;z-index:100;}#my-svg .flowchartTitleText{text-anchor:middle;font-size:18px;fill:#000000;}#my-svg rect.text{fill:none;stroke-width:0;}#my-svg .icon-shape,#my-svg .image-shape{background-color:white;text-align:center;}#my-svg .icon-shape p,#my-svg .image-shape p{background-color:white;padding:2px;}#my-svg .icon-shape .label rect,#my-svg .image-shape .label rect{opacity:0.5;background-color:white;fill:white;}#my-svg .label-icon{display:inline-block;height:1em;overflow:visible;vertical-align:-0.125em;}#my-svg .node .label-icon path{fill:currentColor;stroke:revert;stroke-width:revert;}#my-svg .node .neo-node{stroke:#999;}#my-svg [data-look="neo"].node rect,#my-svg [data-look="neo"].cluster rect,#my-svg [data-look="neo"].node polygon{stroke:url(#my-svg-gradient);filter:drop-shadow( 1px 2px 2px rgba(185,185,185,1));}#my-svg [data-look="neo"].node path{stroke:url(#my-svg-gradient);stroke-width:1px;}#my-svg [data-look="neo"].node .outer-path{filter:drop-shadow( 1px 2px 2px rgba(185,185,185,1));}#my-svg [data-look="neo"].node .neo-line path{stroke:#999;filter:none;}#my-svg [data-look="neo"].node circle{stroke:url(#my-svg-gradient);filter:drop-shadow( 1px 2px 2px rgba(185,185,185,1));}#my-svg [data-look="neo"].node circle .state-start{fill:#000000;}#my-svg [data-look="neo"].icon-shape .icon{fill:url(#my-svg-gradient);filter:drop-shadow( 1px 2px 2px rgba(185,185,185,1));}#my-svg [data-look="neo"].icon-shape .icon-neo path{stroke:url(#my-svg-gradient);filter:drop-shadow( 1px 2px 2px rgba(185,185,185,1));}#my-svg :root{--mermaid-font-family:"trebuchet ms",verdana,arial,sans-serif;}</style><g><marker id="my-svg_flowchart-v2-pointEnd" class="marker flowchart-v2" viewBox="0 0 10 10" refX="5" refY="5" markerUnits="userSpaceOnUse" markerWidth="8" markerHeight="8" orient="auto"><path d="M 0 0 L 10 5 L 0 10 z" class="arrowMarkerPath" style="stroke-width: 1; stroke-dasharray: 1, 0;"/></marker><marker id="my-svg_flowchart-v2-pointStart" class="marker flowchart-v2" viewBox="0 0 10 10" refX="4.5" refY="5" markerUnits="userSpaceOnUse" markerWidth="8" markerHeight="8" orient="auto"><path d="M 0 5 L 10 10 L 10 0 z" class="arrowMarkerPath" style="stroke-width: 1; stroke-dasharray: 1, 0;"/></marker><marker id="my-svg_flowchart-v2-pointEnd-margin" class="marker flowchart-v2" viewBox="0 0 11.5 14" refX="11.5" refY="7" markerUnits="userSpaceOnUse" markerWidth="10.5" markerHeight="14" orient="auto"><path d="M 0 0 L 11.5 7 L 0 14 z" class="arrowMarkerPath" style="stroke-width: 0; stroke-dasharray: 1, 0;"/></marker><marker id="my-svg_flowchart-v2-pointStart-margin" class="marker flowchart-v2" viewBox="0 0 11.5 14" refX="1" refY="7" markerUnits="userSpaceOnUse" markerWidth="11.5" markerHeight="14" orient="auto"><polygon points="0,7 11.5,14 11.5,0" class="arrowMarkerPath" style="stroke-width: 0; stroke-dasharray: 1, 0;"/></marker><marker id="my-svg_flowchart-v2-circleEnd" class="marker flowchart-v2" viewBox="0 0 10 10" refX="11" refY="5" markerUnits="userSpaceOnUse" markerWidth="11" markerHeight="11" orient="auto"><circle cx="5" cy="5" r="5" class="arrowMarkerPath" style="stroke-width: 1; stroke-dasharray: 1, 0;"/></marker><marker id="my-svg_flowchart-v2-circleStart" class="marker flowchart-v2" viewBox="0 0 10 10" refX="-1" refY="5" markerUnits="userSpaceOnUse" markerWidth="11" markerHeight="11" orient="auto"><circle cx="5" cy="5" r="5" class="arrowMarkerPath" style="stroke-width: 1; stroke-dasharray: 1, 0;"/></marker><marker id="my-svg_flowchart-v2-circleEnd-margin" class="marker flowchart-v2" viewBox="0 0 10 10" refY="5" refX="12.25" markerUnits="userSpaceOnUse" markerWidth="14" markerHeight="14" orient="auto"><circle cx="5" cy="5" r="5" class="arrowMarkerPath" style="stroke-width: 0; stroke-dasharray: 1, 0;"/></marker><marker id="my-svg_flowchart-v2-circleStart-margin" class="marker flowchart-v2" viewBox="0 0 10 10" refX="-2" refY="5" markerUnits="userSpaceOnUse" markerWidth="14" markerHeight="14" orient="auto"><circle cx="5" cy="5" r="5" class="arrowMarkerPath" style="stroke-width: 0; stroke-dasharray: 1, 0;"/></marker><marker id="my-svg_flowchart-v2-crossEnd" class="marker cross flowchart-v2" viewBox="0 0 11 11" refX="12" refY="5.2" markerUnits="userSpaceOnUse" markerWidth="11" markerHeight="11" orient="auto"><path d="M 1,1 l 9,9 M 10,1 l -9,9" class="arrowMarkerPath" style="stroke-width: 2; stroke-dasharray: 1, 0;"/></marker><marker id="my-svg_flowchart-v2-crossStart" class="marker cross flowchart-v2" viewBox="0 0 11 11" refX="-1" refY="5.2" markerUnits="userSpaceOnUse" markerWidth="11" markerHeight="11" orient="auto"><path d="M 1,1 l 9,9 M 10,1 l -9,9" class="arrowMarkerPath" style="stroke-width: 2; stroke-dasharray: 1, 0;"/></marker><marker id="my-svg_flowchart-v2-crossEnd-margin" class="marker cross flowchart-v2" viewBox="0 0 15 15" refX="17.7" refY="7.5" markerUnits="userSpaceOnUse" markerWidth="12" markerHeight="12" orient="auto"><path d="M 1,1 L 14,14 M 1,14 L 14,1" class="arrowMarkerPath" style="stroke-width: 2.5;"/></marker><marker id="my-svg_flowchart-v2-crossStart-margin" class="marker cross flowchart-v2" viewBox="0 0 15 15" refX="-3.5" refY="7.5" markerUnits="userSpaceOnUse" markerWidth="12" markerHeight="12" orient="auto"><path d="M 1,1 L 14,14 M 1,14 L 14,1" class="arrowMarkerPath" style="stroke-width: 2.5; stroke-dasharray: 1, 0;"/></marker><g class="root"><g class="clusters"/><g class="edgePaths"><path d="M191.75,40.5L191.667,44.583C191.583,48.667,191.417,56.833,191.333,64.417C191.25,72,191.25,79,191.25,82.5L191.25,86" id="my-svg-L_A_B_0" class="edge-thickness-normal edge-pattern-solid edge-thickness-normal edge-pattern-solid flowchart-link" style=";" data-edge="true" data-et="edge" data-id="L_A_B_0" data-points="W3sieCI6MTkxLjc1LCJ5Ijo0MC41MDAwMDAwMDAwMDAwMX0seyJ4IjoxOTEuMjUsInkiOjY1fSx7IngiOjE5MS4yNSwieSI6OTB9XQ==" data-look="classic" marker-end="url(#my-svg_flowchart-v2-pointEnd)"/><path d="M191.25,137L191.25,141.167C191.25,145.333,191.25,153.667,191.25,161.333C191.25,169,191.25,176,191.25,179.5L191.25,183" id="my-svg-L_B_C_0" class="edge-thickness-normal edge-pattern-solid edge-thickness-normal edge-pattern-solid flowchart-link" style=";" data-edge="true" data-et="edge" data-id="L_B_C_0" data-points="W3sieCI6MTkxLjI1LCJ5IjoxMzd9LHsieCI6MTkxLjI1LCJ5IjoxNjJ9LHsieCI6MTkxLjI1LCJ5IjoxODd9XQ==" data-look="classic" marker-end="url(#my-svg_flowchart-v2-pointEnd)"/><path d="M224.31,334.274L230.925,345.701C237.54,357.128,250.77,379.981,257.385,401.241C264,422.501,264,442.168,264,460.084C264,478.001,264,494.168,264,519.287C264,544.406,264,578.477,264,614.298C264,650.12,264,687.691,264,717.777C264,747.862,264,770.462,264,791.312C264,812.162,264,831.262,264,853.265C264,875.267,264,900.172,264,912.624L264,925.077" id="my-svg-L_C_D_0" class="edge-thickness-normal edge-pattern-solid edge-thickness-normal edge-pattern-solid flowchart-link" style=";" data-edge="true" data-et="edge" data-id="L_C_D_0" data-points="W3sieCI6MjI0LjMwOTk1MzU5Nzc2Njg4LCJ5IjozMzQuMjc0NDI3NTA1NzQ4NzV9LHsieCI6MjY0LCJ5Ijo0MDIuODM0MzgxMTAzNTE1Nn0seyJ4IjoyNjQsInkiOjQ2MS44MzQzODExMDM1MTU2fSx7IngiOjI2NCwieSI6NTEwLjMzNDM4MTEwMzUxNTZ9LHsieCI6MjY0LCJ5Ijo2MTIuNTQ4NDM5MDI1ODc4OX0seyJ4IjoyNjQsInkiOjcyNS4yNjI0OTY5NDgyNDIyfSx7IngiOjI2NCwieSI6NzkzLjA2MjQ5NjE4NTMwMjd9LHsieCI6MjY0LCJ5Ijo4NTAuMzYyNDk1NDIyMzYzM30seyJ4IjoyNjQsInkiOjkyOS4wNzY1NTMzNDQ3MjY2fV0=" data-look="classic" marker-end="url(#my-svg_flowchart-v2-pointEnd)"/><path d="M264,976.077L264,990.946C264,1005.815,264,1035.553,267.707,1055.79C271.415,1076.027,278.829,1086.763,282.537,1092.131L286.244,1097.499" id="my-svg-L_D_E_0" class="edge-thickness-normal edge-pattern-solid edge-thickness-normal edge-pattern-solid flowchart-link" style=";" data-edge="true" data-et="edge" data-id="L_D_E_0" data-points="W3sieCI6MjY0LCJ5Ijo5NzYuMDc2NTUzMzQ0NzI2Nn0seyJ4IjoyNjQsInkiOjEwNjUuMjkwNjExMjY3MDg5OH0seyJ4IjoyODguNTE3MTA1OTYzNTcwMywieSI6MTEwMC43OTA2MTEyNjcwODk4fV0=" data-look="classic" marker-end="url(#my-svg_flowchart-v2-pointEnd)"/><path d="M158.19,334.274L151.575,345.701C144.96,357.128,131.73,379.981,125.115,396.658C118.5,413.334,118.5,423.834,118.5,429.084L118.5,434.334" id="my-svg-L_C_F_0" class="edge-thickness-normal edge-pattern-solid edge-thickness-normal edge-pattern-solid flowchart-link" style=";" data-edge="true" data-et="edge" data-id="L_C_F_0" data-points="W3sieCI6MTU4LjE5MDA0NjQwMjIzMzEyLCJ5IjozMzQuMjc0NDI3NTA1NzQ4NzV9LHsieCI6MTE4LjUsInkiOjQwMi44MzQzODExMDM1MTU2fSx7IngiOjExOC41LCJ5Ijo0MzguMzM0MzgxMTAzNTE1Nn1d" data-look="classic" marker-end="url(#my-svg_flowchart-v2-pointEnd)"/><path d="M118.5,485.334L118.5,489.501C118.5,493.668,118.5,502.001,118.5,509.668C118.5,517.334,118.5,524.334,118.5,527.834L118.5,531.334" id="my-svg-L_F_G_0" class="edge-thickness-normal edge-pattern-solid edge-thickness-normal edge-pattern-solid flowchart-link" style=";" data-edge="true" data-et="edge" data-id="L_F_G_0" data-points="W3sieCI6MTE4LjUsInkiOjQ4NS4zMzQzODExMDM1MTU2fSx7IngiOjExOC41LCJ5Ijo1MTAuMzM0MzgxMTAzNTE1Nn0seyJ4IjoxMTguNDk5OTk5OTk5OTk5OTksInkiOjUzNS4zMzQzODExMDM1MTU2fV0=" data-look="classic" marker-end="url(#my-svg_flowchart-v2-pointEnd)"/><path d="M118.5,689.762L118.5,695.679C118.5,701.596,118.5,713.429,118.5,724.596C118.5,735.762,118.5,746.262,118.5,751.512L118.5,756.762" id="my-svg-L_G_H_0" class="edge-thickness-normal edge-pattern-solid edge-thickness-normal edge-pattern-solid flowchart-link" style=";" data-edge="true" data-et="edge" data-id="L_G_H_0" data-points="W3sieCI6MTE4LjUsInkiOjY4OS43NjI0OTY5NDgyNDIyfSx7IngiOjExOC41LCJ5Ijo3MjUuMjYyNDk2OTQ4MjQyMn0seyJ4IjoxMTguNSwieSI6NzYwLjc2MjQ5Njk0ODI0MjJ9XQ==" data-look="classic" marker-end="url(#my-svg_flowchart-v2-pointEnd)"/><path d="M179.526,628.736L240.176,644.824C300.826,660.912,422.126,693.087,482.776,714.425C543.425,735.762,543.425,746.262,543.425,751.512L543.425,756.762" id="my-svg-L_G_I_0" class="edge-thickness-normal edge-pattern-solid edge-thickness-normal edge-pattern-solid flowchart-link" style=";" data-edge="true" data-et="edge" data-id="L_G_I_0" data-points="W3sieCI6MTc5LjUyNjQyNTM3ODU2OTgsInkiOjYyOC43MzYwNzE1Njk2NzI0fSx7IngiOjU0My40MjUzODgzMzYxODE2LCJ5Ijo3MjUuMjYyNDk2OTQ4MjQyMn0seyJ4Ijo1NDMuNDI1Mzg4MzM2MTgxNiwieSI6NzYwLjc2MjQ5Njk0ODI0MjJ9XQ==" data-look="classic" marker-end="url(#my-svg_flowchart-v2-pointEnd)"/><path d="M543.425,825.362L543.425,829.529C543.425,833.696,543.425,842.029,543.425,849.696C543.425,857.362,543.425,864.362,543.425,867.862L543.425,871.362" id="my-svg-L_I_J_0" class="edge-thickness-normal edge-pattern-solid edge-thickness-normal edge-pattern-solid flowchart-link" style=";" data-edge="true" data-et="edge" data-id="L_I_J_0" data-points="W3sieCI6NTQzLjQyNTM4ODMzNjE4MTYsInkiOjgyNS4zNjI0OTU0MjIzNjMzfSx7IngiOjU0My40MjUzODgzMzYxODE2LCJ5Ijo4NTAuMzYyNDk1NDIyMzYzM30seyJ4Ijo1NDMuNDI1Mzg4MzM2MTgyLCJ5Ijo4NzUuMzYyNDk1NDIyMzY0fV0=" data-look="classic" marker-end="url(#my-svg_flowchart-v2-pointEnd)"/><path d="M567.675,1005.541L572.234,1015.499C576.794,1025.458,585.912,1045.374,590.472,1060.582C595.031,1075.791,595.031,1086.291,595.031,1091.541L595.031,1096.791" id="my-svg-L_J_K_0" class="edge-thickness-normal edge-pattern-solid edge-thickness-normal edge-pattern-solid flowchart-link" style=";" data-edge="true" data-et="edge" data-id="L_J_K_0" data-points="W3sieCI6NTY3LjY3NDg5NjE5MzYyNzcsInkiOjEwMDUuNTQxMTAzNDA5NjQzNX0seyJ4Ijo1OTUuMDMwODU3MDg2MTgxNiwieSI6MTA2NS4yOTA2MTEyNjcwODk4fSx7IngiOjU5NS4wMzA4NTcwODYxODE2LCJ5IjoxMTAwLjc5MDYxMTI2NzA4OTh9XQ==" data-look="classic" marker-end="url(#my-svg_flowchart-v2-pointEnd)"/><path d="M502.075,988.44L487.306,1001.248C472.538,1014.057,443.001,1039.674,419.832,1058.031C396.663,1076.389,379.861,1087.487,371.461,1093.037L363.06,1098.586" id="my-svg-L_J_E_0" class="edge-thickness-normal edge-pattern-solid edge-thickness-normal edge-pattern-solid flowchart-link" style=";" data-edge="true" data-et="edge" data-id="L_J_E_0" data-points="W3sieCI6NTAyLjA3NDU2Mjk3Mjc5OTc1LCJ5Ijo5ODguNDM5Nzg1OTAzNzA4Mn0seyJ4Ijo0MTMuNDY0NDUwODM2MTgxNjQsInkiOjEwNjUuMjkwNjExMjY3MDg5OH0seyJ4IjozNTkuNzIyMTQ1ODIwNTI0MjUsInkiOjExMDAuNzkwNjExMjY3MDg5OH1d" data-look="classic" marker-end="url(#my-svg_flowchart-v2-pointEnd)"/></g><g class="edgeLabels"><g class="edgeLabel"><g class="label" data-id="L_A_B_0" transform="translate(0, 0)"><text y="-10.1" text-anchor="middle"><tspan class="text-outer-tspan row" x="0" y="-0.1em" dy="1.1em" text-anchor="middle"/></text></g></g><g><rect class="background" style="stroke: none"/></g><g class="edgeLabel"><g class="label" data-id="L_B_C_0" transform="translate(0, 0)"><text y="-10.1" text-anchor="middle"><tspan class="text-outer-tspan row" x="0" y="-0.1em" dy="1.1em" text-anchor="middle"/></text></g></g><g><rect class="background" style="stroke: none"/></g><g class="edgeLabel" transform="translate(264, 612.5484390258789)"><g class="label" data-id="L_C_D_0" transform="translate(-0.05078125, -10.5)"><g><rect class="background" style="" x="-12.2265625" y="0" width="24.5546875" height="21"/><text y="-10.1" text-anchor="middle" style=""><tspan class="text-outer-tspan row" x="0" y="-0.1em" dy="1.1em" text-anchor="middle"><tspan font-style="normal" class="text-inner-tspan" font-weight="normal">No</tspan></tspan></text></g></g></g><g class="edgeLabel"><g class="label" data-id="L_D_E_0" transform="translate(0, 0)"><text y="-10.1" text-anchor="middle"><tspan class="text-outer-tspan row" x="0" y="-0.1em" dy="1.1em" text-anchor="middle"/></text></g></g><g><rect class="background" style="stroke: none"/></g><g class="edgeLabel" transform="translate(118.5, 402.8343811035156)"><g class="label" data-id="L_C_F_0" transform="translate(0, -10.5)"><g><rect class="background" style="" x="-9.5625" y="0" width="19.125" height="21"/><text y="-10.1" text-anchor="middle" style=""><tspan class="text-outer-tspan row" x="0" y="-0.1em" dy="1.1em" text-anchor="middle"><tspan font-style="normal" class="text-inner-tspan" font-weight="normal">Sì</tspan></tspan></text></g></g></g><g class="edgeLabel"><g class="label" data-id="L_F_G_0" transform="translate(0, 0)"><text y="-10.1" text-anchor="middle"><tspan class="text-outer-tspan row" x="0" y="-0.1em" dy="1.1em" text-anchor="middle"/></text></g></g><g><rect class="background" style="stroke: none"/></g><g class="edgeLabel" transform="translate(118.5, 725.2624969482422)"><g class="label" data-id="L_G_H_0" transform="translate(0, -10.5)"><g><rect class="background" style="" x="-9.5625" y="0" width="19.125" height="21"/><text y="-10.1" text-anchor="middle" style=""><tspan class="text-outer-tspan row" x="0" y="-0.1em" dy="1.1em" text-anchor="middle"><tspan font-style="normal" class="text-inner-tspan" font-weight="normal">Sì</tspan></tspan></text></g></g></g><g class="edgeLabel" transform="translate(543.4253883361816, 725.2624969482422)"><g class="label" data-id="L_G_I_0" transform="translate(-0.046875, -10.5)"><g><rect class="background" style="" x="-73.6015625" y="0" width="147.296875" height="21"/><text y="-10.1" text-anchor="middle" style=""><tspan class="text-outer-tspan row" x="0" y="-0.1em" dy="1.1em" text-anchor="middle"><tspan font-style="normal" class="text-inner-tspan" font-weight="normal">No</tspan><tspan font-style="normal" class="text-inner-tspan" font-weight="normal"> /</tspan><tspan font-style="normal" class="text-inner-tspan" font-weight="normal"> Non</tspan><tspan font-style="normal" class="text-inner-tspan" font-weight="normal"> disponibile</tspan></tspan></text></g></g></g><g class="edgeLabel"><g class="label" data-id="L_I_J_0" transform="translate(0, 0)"><text y="-10.1" text-anchor="middle"><tspan class="text-outer-tspan row" x="0" y="-0.1em" dy="1.1em" text-anchor="middle"/></text></g></g><g><rect class="background" style="stroke: none"/></g><g class="edgeLabel" transform="translate(595.0308570861816, 1065.2906112670898)"><g class="label" data-id="L_J_K_0" transform="translate(0, -10.5)"><g><rect class="background" style="" x="-9.5625" y="0" width="19.125" height="21"/><text y="-10.1" text-anchor="middle" style=""><tspan class="text-outer-tspan row" x="0" y="-0.1em" dy="1.1em" text-anchor="middle"><tspan font-style="normal" class="text-inner-tspan" font-weight="normal">Sì</tspan></tspan></text></g></g></g><g class="edgeLabel" transform="translate(433.44055, 1047.96551)"><g class="label" data-id="L_J_E_0" transform="translate(-0.046875, -10.5)"><g><rect class="background" style="" x="-73.6015625" y="0" width="147.296875" height="21"/><text y="-10.1" text-anchor="middle" style=""><tspan class="text-outer-tspan row" x="0" y="-0.1em" dy="1.1em" text-anchor="middle"><tspan font-style="normal" class="text-inner-tspan" font-weight="normal">No</tspan><tspan font-style="normal" class="text-inner-tspan" font-weight="normal"> /</tspan><tspan font-style="normal" class="text-inner-tspan" font-weight="normal"> Non</tspan><tspan font-style="normal" class="text-inner-tspan" font-weight="normal"> disponibile</tspan></tspan></text></g></g></g></g><g class="nodes"><g class="node default" id="my-svg-flowchart-A-0" data-look="classic" transform="translate(191.25, 24)"><g class="basic label-container outer-path"><path d="M-42.234375 -16 C-16.007239099223746 -16, 10.219896801552508 -16, 42.234375 -16 C42.234375 -16, 42.234375 -16, 42.234375 -16 C42.54699167002104 -15.98997499186386, 42.85960834004208 -15.97994998372772, 43.259498519691405 -15.967126284005381 C43.53605254990147 -15.940447449315899, 43.812606580111535 -15.913768614626418, 44.280409586952096 -15.868640221171939 C44.65751147207313 -15.807673312854366, 45.03461335719417 -15.746706404536793, 45.29291305922195 -15.704946511857047 C45.68303142102537 -15.61590454153564, 46.07314978282879 -15.526862571214235, 46.29284834255211 -15.476717808624471 C46.573653166803766 -15.393376410761181, 46.854457991055426 -15.310035012897892, 47.276106488377934 -15.184891952170698 C47.631262079597505 -15.054191411579598, 47.98641767081708 -14.923490870988498, 48.23864707806999 -14.830668117536348 C48.599153424935466 -14.671082651819821, 48.959659771800936 -14.511497186103297, 49.17651482588093 -14.415501886438706 C49.48255282383646 -14.255842058932, 49.78859082179199 -14.096182231425294, 50.085855832063004 -13.941099265974232 C50.34888002949545 -13.78165245178893, 50.6119042269279 -13.622205637603628, 50.96293341936878 -13.409409678269451 C51.22857629716884 -13.224108706210968, 51.494219174968904 -13.038807734152485, 51.804143487859456 -12.822617949887306 C52.094073214274914 -12.591406708425023, 52.38400294069037 -12.360195466962741, 52.60602932492461 -12.183135333906153 C52.89224751720862 -11.923199544592208, 53.17846570949261 -11.663263755278264, 53.365295809655784 -11.493589601563642 C53.51062951767532 -11.343520615914136, 53.655963225694855 -11.193451630264631, 54.07882295320505 -10.756814244181072 C54.32977839911441 -10.462027697646533, 54.58073384502378 -10.167241151111993, 54.74367871948848 -9.975836829739738 C54.96526193854802 -9.678935502846482, 55.186845157607564 -9.382034175953228, 55.35713107355129 -9.153866561954718 C55.52243066012267 -8.89992200782701, 55.68773024669406 -8.6459774536993, 55.916659208085534 -8.294281092968403 C56.0932618262232 -7.980705261510736, 56.26986444436086 -7.66712943005307, 56.419963901968 -7.400612643853364 C56.52800474542505 -7.17626352071108, 56.6360455888821 -6.951914397568795, 56.864976968252996 -6.476533489958305 C57.013505685944224 -6.10966468565358, 57.162034403635445 -5.7427958813488535, 57.249869752796165 -5.52584087074093 C57.35235980643796 -5.217157158744288, 57.454849860079754 -4.908473446747648, 57.57306064858657 -4.552441386096524 C57.66181008429408 -4.2140013234950215, 57.750559520001595 -3.8755612608935195, 57.833221594909176 -3.560334943301032 C57.90341933150995 -3.199884402152933, 57.973617068110734 -2.8394338610048337, 58.029283534631205 -2.5535983205340735 C58.0780283292996 -2.1755433188344617, 58.12677312396799 -1.79748831713485, 58.16044080718717 -1.536368414522911 C58.18196049769779 -1.2011818644385637, 58.203480188208395 -0.8659953143542162, 58.226154459211 -0.5128252411464826 C58.226154459211 -0.11051578906667076, 58.226154459211 0.29179366301314114, 58.226154459211 0.5128252411464788 C58.205640568681446 0.8323456446587242, 58.18512667815189 1.1518660481709695, 58.16044080718717 1.5363684145229002 C58.11423802440594 1.8947080740027065, 58.06803524162471 2.2530477334825125, 58.029283534631205 2.5535983205340624 C57.962807145407204 2.894940529409451, 57.89633075618321 3.2362827382848396, 57.833221594909176 3.5603349433010285 C57.742188604494736 3.907483189698917, 57.65115561408029 4.254631436096806, 57.57306064858657 4.552441386096513 C57.50812334391137 4.748022201423765, 57.44318603923618 4.943603016751017, 57.249869752796165 5.525840870740919 C57.11351312425067 5.862644379524351, 56.97715649570519 6.199447888307784, 56.864976968253 6.4765334899583005 C56.703151050126166 6.812568471468646, 56.54132513199932 7.148603452978991, 56.419963901968 7.400612643853361 C56.23726846251171 7.725006896527318, 56.05457302305542 8.049401149201275, 55.91665920808554 8.294281092968399 C55.767842920216886 8.522902873903266, 55.61902663234822 8.751524654838134, 55.3571310735513 9.15386656195471 C55.134441560873825 9.452250221510573, 54.91175204819634 9.750633881066435, 54.74367871948848 9.975836829739734 C54.609369001300784 10.133604667162464, 54.47505928311309 10.291372504585194, 54.078822953205055 10.756814244181063 C53.82100591731733 11.023031500907443, 53.563188881429596 11.289248757633825, 53.365295809655784 11.493589601563638 C53.128511007188195 11.70863129418214, 52.891726204720605 11.923672986800641, 52.60602932492463 12.183135333906142 C52.35619191626691 12.382374018858014, 52.10635450760918 12.581612703809887, 51.80414348785946 12.822617949887304 C51.48152535483361 13.047662393572251, 51.15890722180776 13.272706837257198, 50.96293341936879 13.409409678269446 C50.73794634997058 13.54579816190942, 50.51295928057236 13.682186645549397, 50.085855832063004 13.94109926597423 C49.87249154100042 14.05241127995523, 49.65912724993784 14.163723293936227, 49.17651482588093 14.415501886438705 C48.88918047331335 14.542696280849642, 48.601846120745776 14.669890675260579, 48.238647078069995 14.830668117536346 C47.92079251097322 14.947641536443367, 47.602937943876455 15.064614955350386, 47.27610648837794 15.184891952170695 C46.92762876951588 15.288318309932082, 46.57915105065381 15.391744667693471, 46.29284834255213 15.476717808624468 C45.93186326155657 15.559110297713904, 45.57087818056101 15.641502786803342, 45.29291305922196 15.704946511857045 C44.938917005673396 15.76217784851438, 44.58492095212484 15.819409185171715, 44.2804095869521 15.868640221171937 C43.98456214019278 15.897180268552198, 43.688714693433454 15.925720315932459, 43.259498519691405 15.967126284005381 C42.98537856204928 15.975916777504835, 42.71125860440715 15.984707271004288, 42.234375 16 C42.234375 16, 42.234375 16, 42.234375 16 C9.551330570477077 16, -23.131713859045846 16, -42.234375 16 C-42.555931838322024 15.98968829806743, -42.87748867664405 15.979376596134857, -43.2594985196914 15.967126284005381 C-43.48861451967044 15.945023739039708, -43.717730519649486 15.922921194074034, -44.280409586952096 15.868640221171937 C-44.57804132524851 15.820521429892775, -44.87567306354493 15.772402638613615, -45.29291305922196 15.704946511857045 C-45.61538079711377 15.631345354981885, -45.93784853500558 15.557744198106727, -46.29284834255211 15.476717808624471 C-46.51050257592671 15.412119174649277, -46.7281568093013 15.347520540674083, -47.27610648837792 15.184891952170702 C-47.49267573300891 15.105192468202347, -47.7092449776399 15.025492984233992, -48.23864707806999 14.830668117536348 C-48.60854851621927 14.666923723603963, -48.97844995436855 14.503179329671577, -49.17651482588093 14.415501886438708 C-49.48753454743763 14.253243096920215, -49.79855426899434 14.09098430740172, -50.085855832063 13.941099265974234 C-50.34495735695043 13.784030398937897, -50.60405888183787 13.62696153190156, -50.96293341936877 13.409409678269457 C-51.23388954269342 13.220402416139713, -51.50484566601807 13.031395154009967, -51.804143487859456 12.822617949887308 C-52.06565603247248 12.614068654699494, -52.327168577085516 12.40551935951168, -52.60602932492461 12.183135333906154 C-52.84267245544764 11.968222303999271, -53.07931558597066 11.753309274092388, -53.36529580965578 11.493589601563649 C-53.57057100785878 11.28162610601184, -53.77584620606179 11.069662610460034, -54.07882295320505 10.756814244181069 C-54.25973713849502 10.544302147830704, -54.440651323784984 10.331790051480338, -54.74367871948847 9.97583682973974 C-54.966160365587776 9.677731692461597, -55.18864201168707 9.379626555183457, -55.35713107355129 9.15386656195472 C-55.52547206946996 8.895249586336806, -55.693813065388646 8.636632610718895, -55.916659208085534 8.29428109296841 C-56.02933516226707 8.094213526641516, -56.1420111164486 7.894145960314623, -56.419963901968 7.400612643853366 C-56.56296007161545 7.103678037952548, -56.7059562412629 6.80674343205173, -56.864976968252996 6.476533489958307 C-56.99407948810689 6.157647769891769, -57.123182007960786 5.83876204982523, -57.249869752796165 5.525840870740931 C-57.36013121608557 5.193750911091675, -57.47039267937497 4.861660951442417, -57.57306064858657 4.552441386096519 C-57.6578482538184 4.229109500166997, -57.742635859050225 3.9057776142374756, -57.833221594909176 3.5603349433010343 C-57.91092088793048 3.1613654953880292, -57.98862018095179 2.762396047475024, -58.029283534631205 2.5535983205340753 C-58.05579055944144 2.348015070509971, -58.08229758425168 2.1424318204858666, -58.16044080718717 1.5363684145229202 C-58.177389816392584 1.2723739151546527, -58.19433882559799 1.008379415786385, -58.226154459211 0.5128252411464846 C-58.226154459211 0.2227356358398439, -58.226154459211 -0.06735396946679684, -58.226154459211 -0.5128252411464769 C-58.208049580504394 -0.7948233409969319, -58.18994470179779 -1.0768214408473868, -58.16044080718717 -1.5363684145228982 C-58.1095508821281 -1.9310606239287165, -58.05866095706903 -2.3257528333345348, -58.029283534631205 -2.5535983205340678 C-57.98498322102013 -2.7810710680523485, -57.94068290740905 -3.008543815570629, -57.833221594909176 -3.5603349433010267 C-57.76933535589927 -3.8039608611169267, -57.70544911688937 -4.047586778932827, -57.573060648586576 -4.552441386096511 C-57.478666085044566 -4.836742771753789, -57.38427152150255 -5.121044157411067, -57.24986975279617 -5.525840870740911 C-57.13583283411958 -5.8075142646259295, -57.021795915442986 -6.089187658510948, -56.864976968253 -6.476533489958299 C-56.77131297530916 -6.6710287753945945, -56.67764898236531 -6.86552406083089, -56.419963901968 -7.400612643853359 C-56.23443148410489 -7.730044238963838, -56.04889906624177 -8.059475834074318, -55.916659208085534 -8.294281092968404 C-55.750121758747724 -8.550127336718035, -55.58358430940992 -8.805973580467663, -55.357131073551294 -9.153866561954715 C-55.230048732328584 -9.324145321753686, -55.10296639110588 -9.494424081552657, -54.74367871948848 -9.975836829739734 C-54.52008425329845 -10.238483612612095, -54.29648978710842 -10.501130395484456, -54.078822953205055 -10.756814244181063 C-53.84559064768042 -10.997645748363649, -53.61235834215579 -11.238477252546234, -53.36529580965579 -11.493589601563633 C-53.076922505376736 -11.755482606570348, -52.78854920109768 -12.017375611577064, -52.60602932492463 -12.18313533390614 C-52.28630828182455 -12.438104357644175, -51.96658723872448 -12.693073381382211, -51.80414348785946 -12.822617949887302 C-51.58584341197037 -12.974894632769553, -51.36754333608129 -13.127171315651804, -50.96293341936879 -13.409409678269444 C-50.699736965728086 -13.568960915180483, -50.43654051208738 -13.72851215209152, -50.085855832063004 -13.941099265974229 C-49.730318043149516 -14.126583102717575, -49.37478025423603 -14.31206693946092, -49.176514825880936 -14.415501886438705 C-48.84825058516922 -14.560814728189058, -48.5199863444575 -14.706127569939413, -48.238647078069995 -14.830668117536344 C-47.98135980555311 -14.925352212160032, -47.724072533036235 -15.02003630678372, -47.27610648837794 -15.184891952170695 C-46.912904492868904 -15.292688397951597, -46.549702497359874 -15.400484843732501, -46.29284834255213 -15.476717808624466 C-46.000039762394465 -15.543549456290899, -45.7072311822368 -15.610381103957334, -45.292913059221966 -15.704946511857043 C-44.928857711160084 -15.7638041572403, -44.5648023630982 -15.822661802623553, -44.2804095869521 -15.868640221171937 C-43.952452126304046 -15.900277882974102, -43.624494665655995 -15.931915544776267, -43.259498519691405 -15.967126284005381 C-42.88419228167193 -15.97916162456939, -42.508886043652446 -15.991196965133398, -42.23437500000001 -16 C-42.23437500000001 -16, -42.234375 -16, -42.234375 -16" stroke="none" stroke-width="0" fill="#eee" style=""/><path d="M-42.234375 -16 C-19.86373000532791 -16, 2.5069149893441818 -16, 42.234375 -16 M-42.234375 -16 C-17.304869859257995 -16, 7.624635281484011 -16, 42.234375 -16 M42.234375 -16 C42.234375 -16, 42.234375 -16, 42.234375 -16 M42.234375 -16 C42.234375 -16, 42.234375 -16, 42.234375 -16 M42.234375 -16 C42.620060322934975 -15.987631822384415, 43.00574564586996 -15.97526364476883, 43.259498519691405 -15.967126284005381 M42.234375 -16 C42.47020278234622 -15.992437462031088, 42.70603056469244 -15.984874924062177, 43.259498519691405 -15.967126284005381 M43.259498519691405 -15.967126284005381 C43.59279043799704 -15.934974013488613, 43.92608235630268 -15.902821742971847, 44.280409586952096 -15.868640221171939 M43.259498519691405 -15.967126284005381 C43.47070639203731 -15.946751314574803, 43.68191426438321 -15.926376345144224, 44.280409586952096 -15.868640221171939 M44.280409586952096 -15.868640221171939 C44.65484676722316 -15.808104121669414, 45.029283947494235 -15.747568022166888, 45.29291305922195 -15.704946511857047 M44.280409586952096 -15.868640221171939 C44.68288650792681 -15.803570873843885, 45.08536342890153 -15.738501526515831, 45.29291305922195 -15.704946511857047 M45.29291305922195 -15.704946511857047 C45.53061909927911 -15.650691659390876, 45.76832513933627 -15.596436806924707, 46.29284834255211 -15.476717808624471 M45.29291305922195 -15.704946511857047 C45.51735201037489 -15.653719785857419, 45.74179096152783 -15.60249305985779, 46.29284834255211 -15.476717808624471 M46.29284834255211 -15.476717808624471 C46.528208957718725 -15.4068640134761, 46.76356957288534 -15.337010218327729, 47.276106488377934 -15.184891952170698 M46.29284834255211 -15.476717808624471 C46.628611740053124 -15.377064994704211, 46.96437513755413 -15.277412180783951, 47.276106488377934 -15.184891952170698 M47.276106488377934 -15.184891952170698 C47.562743992649274 -15.0794067009508, 47.849381496920614 -14.973921449730904, 48.23864707806999 -14.830668117536348 M47.276106488377934 -15.184891952170698 C47.53223969930202 -15.090632562881188, 47.7883729102261 -14.996373173591678, 48.23864707806999 -14.830668117536348 M48.23864707806999 -14.830668117536348 C48.58889030911121 -14.675625828750707, 48.939133540152426 -14.520583539965065, 49.17651482588093 -14.415501886438706 M48.23864707806999 -14.830668117536348 C48.53280889242596 -14.700451408321145, 48.826970706781935 -14.570234699105944, 49.17651482588093 -14.415501886438706 M49.17651482588093 -14.415501886438706 C49.44026302774424 -14.277904618465405, 49.704011229607545 -14.140307350492105, 50.085855832063004 -13.941099265974232 M49.17651482588093 -14.415501886438706 C49.3624028394536 -14.3185242288248, 49.548290853026266 -14.221546571210894, 50.085855832063004 -13.941099265974232 M50.085855832063004 -13.941099265974232 C50.27880880590417 -13.82413003931418, 50.471761779745336 -13.707160812654127, 50.96293341936878 -13.409409678269451 M50.085855832063004 -13.941099265974232 C50.43247009614752 -13.730979662154688, 50.779084360232034 -13.520860058335145, 50.96293341936878 -13.409409678269451 M50.96293341936878 -13.409409678269451 C51.149860512773195 -13.279017429853987, 51.33678760617761 -13.148625181438522, 51.804143487859456 -12.822617949887306 M50.96293341936878 -13.409409678269451 C51.2746242790251 -13.19198762745305, 51.58631513868142 -12.974565576636648, 51.804143487859456 -12.822617949887306 M51.804143487859456 -12.822617949887306 C52.07999417421469 -12.60263436821406, 52.355844860569924 -12.382650786540815, 52.60602932492461 -12.183135333906153 M51.804143487859456 -12.822617949887306 C52.0492852722568 -12.627123900327275, 52.29442705665415 -12.431629850767244, 52.60602932492461 -12.183135333906153 M52.60602932492461 -12.183135333906153 C52.76459044445813 -12.039134320443141, 52.923151563991645 -11.89513330698013, 53.365295809655784 -11.493589601563642 M52.60602932492461 -12.183135333906153 C52.84720275527146 -11.964108005564437, 53.088376185618316 -11.745080677222722, 53.365295809655784 -11.493589601563642 M53.365295809655784 -11.493589601563642 C53.55464599196287 -11.298069992392488, 53.74399617426997 -11.102550383221335, 54.07882295320505 -10.756814244181072 M53.365295809655784 -11.493589601563642 C53.58300752707459 -11.268784378864304, 53.8007192444934 -11.043979156164967, 54.07882295320505 -10.756814244181072 M54.07882295320505 -10.756814244181072 C54.332160208117365 -10.45922988926289, 54.58549746302969 -10.161645534344707, 54.74367871948848 -9.975836829739738 M54.07882295320505 -10.756814244181072 C54.273054241657704 -10.528659120691175, 54.46728553011037 -10.300503997201279, 54.74367871948848 -9.975836829739738 M54.74367871948848 -9.975836829739738 C54.94620209571244 -9.704473955858761, 55.148725471936395 -9.433111081977787, 55.35713107355129 -9.153866561954718 M54.74367871948848 -9.975836829739738 C54.98019538030505 -9.658926051356593, 55.216712041121625 -9.342015272973448, 55.35713107355129 -9.153866561954718 M55.35713107355129 -9.153866561954718 C55.52070156755836 -8.902578358332152, 55.684272061565444 -8.651290154709585, 55.916659208085534 -8.294281092968403 M55.35713107355129 -9.153866561954718 C55.52642610848111 -8.893783926220339, 55.695721143410935 -8.63370129048596, 55.916659208085534 -8.294281092968403 M55.916659208085534 -8.294281092968403 C56.10370355303003 -7.962164918225709, 56.29074789797453 -7.630048743483015, 56.419963901968 -7.400612643853364 M55.916659208085534 -8.294281092968403 C56.09092837979949 -7.984848531923096, 56.26519755151345 -7.67541597087779, 56.419963901968 -7.400612643853364 M56.419963901968 -7.400612643853364 C56.55689367605907 -7.116275038125445, 56.693823450150134 -6.831937432397525, 56.864976968252996 -6.476533489958305 M56.419963901968 -7.400612643853364 C56.58567361676996 -7.056512875447202, 56.751383331571915 -6.712413107041041, 56.864976968252996 -6.476533489958305 M56.864976968252996 -6.476533489958305 C57.01286946367546 -6.111236166957953, 57.16076195909791 -5.745938843957602, 57.249869752796165 -5.52584087074093 M56.864976968252996 -6.476533489958305 C56.97212003505496 -6.211888043487183, 57.079263101856924 -5.947242597016061, 57.249869752796165 -5.52584087074093 M57.249869752796165 -5.52584087074093 C57.352723199342265 -5.216062677215316, 57.45557664588837 -4.906284483689701, 57.57306064858657 -4.552441386096524 M57.249869752796165 -5.52584087074093 C57.355875986701825 -5.206566984016779, 57.461882220607485 -4.887293097292627, 57.57306064858657 -4.552441386096524 M57.57306064858657 -4.552441386096524 C57.627155307855794 -4.346155005529338, 57.68124996712502 -4.139868624962152, 57.833221594909176 -3.560334943301032 M57.57306064858657 -4.552441386096524 C57.670561243334916 -4.180629361296017, 57.768061838083256 -3.80881733649551, 57.833221594909176 -3.560334943301032 M57.833221594909176 -3.560334943301032 C57.87306648164311 -3.3557398711420845, 57.912911368377046 -3.151144798983137, 58.029283534631205 -2.5535983205340735 M57.833221594909176 -3.560334943301032 C57.87667538371258 -3.3372089217570817, 57.92012917251598 -3.114082900213131, 58.029283534631205 -2.5535983205340735 M58.029283534631205 -2.5535983205340735 C58.060782172880046 -2.309301102385701, 58.092280811128894 -2.0650038842373277, 58.16044080718717 -1.536368414522911 M58.029283534631205 -2.5535983205340735 C58.06617297913885 -2.2674910735775717, 58.103062423646485 -1.98138382662107, 58.16044080718717 -1.536368414522911 M58.16044080718717 -1.536368414522911 C58.1863694083269 -1.132509522581533, 58.21229800946662 -0.7286506306401546, 58.226154459211 -0.5128252411464826 M58.16044080718717 -1.536368414522911 C58.18436790425479 -1.1636845640896087, 58.208295001322405 -0.7910007136563064, 58.226154459211 -0.5128252411464826 M58.226154459211 -0.5128252411464826 C58.226154459211 -0.2806055203459931, 58.226154459211 -0.048385799545503594, 58.226154459211 0.5128252411464788 M58.226154459211 -0.5128252411464826 C58.226154459211 -0.26789843246319733, 58.226154459211 -0.022971623779911965, 58.226154459211 0.5128252411464788 M58.226154459211 0.5128252411464788 C58.20363533477523 0.8635787813437337, 58.18111621033946 1.2143323215409885, 58.16044080718717 1.5363684145229002 M58.226154459211 0.5128252411464788 C58.2105566430968 0.755773817455782, 58.19495882698259 0.9987223937650853, 58.16044080718717 1.5363684145229002 M58.16044080718717 1.5363684145229002 C58.12730605404975 1.793355016659667, 58.09417130091233 2.0503416187964336, 58.029283534631205 2.5535983205340624 M58.16044080718717 1.5363684145229002 C58.1175704778951 1.868862222808166, 58.07470014860303 2.201356031093432, 58.029283534631205 2.5535983205340624 M58.029283534631205 2.5535983205340624 C57.972520795316015 2.8450629901083704, 57.91575805600082 3.136527659682678, 57.833221594909176 3.5603349433010285 M58.029283534631205 2.5535983205340624 C57.951794180773625 2.95148977521199, 57.874304826916045 3.349381229889918, 57.833221594909176 3.5603349433010285 M57.833221594909176 3.5603349433010285 C57.73811592959908 3.923014064184508, 57.64301026428898 4.285693185067988, 57.57306064858657 4.552441386096513 M57.833221594909176 3.5603349433010285 C57.768031181520534 3.808934243255801, 57.70284076813189 4.057533543210574, 57.57306064858657 4.552441386096513 M57.57306064858657 4.552441386096513 C57.446611441354776 4.933286251333517, 57.32016223412298 5.314131116570521, 57.249869752796165 5.525840870740919 M57.57306064858657 4.552441386096513 C57.49746651364866 4.780118876239737, 57.42187237871075 5.00779636638296, 57.249869752796165 5.525840870740919 M57.249869752796165 5.525840870740919 C57.142432356168335 5.791213317572417, 57.034994959540505 6.056585764403916, 56.864976968253 6.4765334899583005 M57.249869752796165 5.525840870740919 C57.13669652476682 5.805380932028918, 57.02352329673747 6.084920993316916, 56.864976968253 6.4765334899583005 M56.864976968253 6.4765334899583005 C56.689978580287054 6.839921386935263, 56.514980192321104 7.203309283912225, 56.419963901968 7.400612643853361 M56.864976968253 6.4765334899583005 C56.69230301720279 6.835094643944757, 56.51962906615257 7.193655797931214, 56.419963901968 7.400612643853361 M56.419963901968 7.400612643853361 C56.24938832210852 7.703486858544307, 56.07881274224905 8.006361073235253, 55.91665920808554 8.294281092968399 M56.419963901968 7.400612643853361 C56.25334647404765 7.696458758970037, 56.0867290461273 7.992304874086713, 55.91665920808554 8.294281092968399 M55.91665920808554 8.294281092968399 C55.79536768833304 8.48061743864171, 55.67407616858054 8.666953784315021, 55.3571310735513 9.15386656195471 M55.91665920808554 8.294281092968399 C55.75812915981902 8.537825818384272, 55.59959911155251 8.781370543800145, 55.3571310735513 9.15386656195471 M55.3571310735513 9.15386656195471 C55.16837218357191 9.406786278238448, 54.97961329359253 9.659705994522188, 54.74367871948848 9.975836829739734 M55.3571310735513 9.15386656195471 C55.14682727083994 9.435654498517364, 54.936523468128584 9.717442435080018, 54.74367871948848 9.975836829739734 M54.74367871948848 9.975836829739734 C54.48657323220427 10.277847564820437, 54.22946774492006 10.57985829990114, 54.078822953205055 10.756814244181063 M54.74367871948848 9.975836829739734 C54.60078954813033 10.143682581041197, 54.45790037677218 10.311528332342661, 54.078822953205055 10.756814244181063 M54.078822953205055 10.756814244181063 C53.91173230014155 10.929349061866876, 53.74464164707804 11.10188387955269, 53.365295809655784 11.493589601563638 M54.078822953205055 10.756814244181063 C53.79679872565609 11.048027413745066, 53.51477449810713 11.339240583309069, 53.365295809655784 11.493589601563638 M53.365295809655784 11.493589601563638 C53.18586641285192 11.65654263229922, 53.00643701604806 11.819495663034798, 52.60602932492463 12.183135333906142 M53.365295809655784 11.493589601563638 C53.210485295224814 11.634184414708091, 53.055674780793844 11.774779227852543, 52.60602932492463 12.183135333906142 M52.60602932492463 12.183135333906142 C52.3316875248489 12.401915618924631, 52.05734572477317 12.62069590394312, 51.80414348785946 12.822617949887304 M52.60602932492463 12.183135333906142 C52.405852919239194 12.342770690522402, 52.20567651355377 12.502406047138662, 51.80414348785946 12.822617949887304 M51.80414348785946 12.822617949887304 C51.51639681771281 13.023337570629021, 51.22865014756615 13.224057191370738, 50.96293341936879 13.409409678269446 M51.80414348785946 12.822617949887304 C51.57322232560702 12.983698556258606, 51.342301163354584 13.14477916262991, 50.96293341936879 13.409409678269446 M50.96293341936879 13.409409678269446 C50.65278491980538 13.597423521339678, 50.342636420241966 13.78543736440991, 50.085855832063004 13.94109926597423 M50.96293341936879 13.409409678269446 C50.704056219695545 13.566342558042654, 50.44517902002231 13.723275437815863, 50.085855832063004 13.94109926597423 M50.085855832063004 13.94109926597423 C49.869741523336664 14.053845962408941, 49.653627214610324 14.166592658843651, 49.17651482588093 14.415501886438705 M50.085855832063004 13.94109926597423 C49.849228655564275 14.064547512386678, 49.61260147906554 14.187995758799127, 49.17651482588093 14.415501886438705 M49.17651482588093 14.415501886438705 C48.88365363407993 14.545142848630418, 48.590792442278925 14.674783810822133, 48.238647078069995 14.830668117536346 M49.17651482588093 14.415501886438705 C48.867644976058806 14.552229406656403, 48.558775126236675 14.688956926874102, 48.238647078069995 14.830668117536346 M48.238647078069995 14.830668117536346 C48.03452031410178 14.90578865360377, 47.830393550133564 14.980909189671195, 47.27610648837794 15.184891952170695 M48.238647078069995 14.830668117536346 C47.88913881816393 14.959290388000715, 47.53963055825787 15.087912658465084, 47.27610648837794 15.184891952170695 M47.27610648837794 15.184891952170695 C47.014927051321415 15.26240863813023, 46.753747614264896 15.339925324089766, 46.29284834255213 15.476717808624468 M47.27610648837794 15.184891952170695 C46.96601847334742 15.27692444734655, 46.65593045831689 15.368956942522404, 46.29284834255213 15.476717808624468 M46.29284834255213 15.476717808624468 C46.04560814760843 15.533148769727317, 45.79836795266472 15.589579730830167, 45.29291305922196 15.704946511857045 M46.29284834255213 15.476717808624468 C46.00803795068337 15.541723922007014, 45.72322755881461 15.60673003538956, 45.29291305922196 15.704946511857045 M45.29291305922196 15.704946511857045 C44.999894884719865 15.752319417920663, 44.70687671021776 15.79969232398428, 44.2804095869521 15.868640221171937 M45.29291305922196 15.704946511857045 C45.06557855980469 15.741700190717456, 44.83824406038742 15.778453869577866, 44.2804095869521 15.868640221171937 M44.2804095869521 15.868640221171937 C44.014075972585076 15.894333104636889, 43.747742358218055 15.920025988101841, 43.259498519691405 15.967126284005381 M44.2804095869521 15.868640221171937 C44.020615495879426 15.893702244689612, 43.76082140480674 15.918764268207285, 43.259498519691405 15.967126284005381 M43.259498519691405 15.967126284005381 C43.024977554227064 15.974646914900456, 42.79045658876272 15.98216754579553, 42.234375 16 M43.259498519691405 15.967126284005381 C42.941033638609106 15.977338832887403, 42.622568757526814 15.987551381769427, 42.234375 16 M42.234375 16 C42.234375 16, 42.234375 16, 42.234375 16 M42.234375 16 C42.234375 16, 42.234375 16, 42.234375 16 M42.234375 16 C18.850821460533062 16, -4.532732078933876 16, -42.234375 16 M42.234375 16 C18.337925399603257 16, -5.558524200793485 16, -42.234375 16 M-42.234375 16 C-42.54333558733877 15.990092235319347, -42.852296174677534 15.980184470638694, -43.2594985196914 15.967126284005381 M-42.234375 16 C-42.485062004483076 15.99196095569888, -42.73574900896616 15.983921911397761, -43.2594985196914 15.967126284005381 M-43.2594985196914 15.967126284005381 C-43.59407189816042 15.934850392567833, -43.92864527662944 15.902574501130285, -44.280409586952096 15.868640221171937 M-43.2594985196914 15.967126284005381 C-43.501520075509866 15.94377875558908, -43.743541631328334 15.920431227172779, -44.280409586952096 15.868640221171937 M-44.280409586952096 15.868640221171937 C-44.60912859748319 15.81549548080327, -44.93784760801429 15.762350740434602, -45.29291305922196 15.704946511857045 M-44.280409586952096 15.868640221171937 C-44.61890361271496 15.813915132146972, -44.95739763847782 15.75919004312201, -45.29291305922196 15.704946511857045 M-45.29291305922196 15.704946511857045 C-45.54804314476968 15.646714734710178, -45.80317323031739 15.588482957563311, -46.29284834255211 15.476717808624471 M-45.29291305922196 15.704946511857045 C-45.61994568900785 15.630303448195766, -45.94697831879373 15.555660384534487, -46.29284834255211 15.476717808624471 M-46.29284834255211 15.476717808624471 C-46.56243374522705 15.396706276193207, -46.832019147901974 15.316694743761943, -47.27610648837792 15.184891952170702 M-46.29284834255211 15.476717808624471 C-46.61808479108464 15.380189337900973, -46.94332123961718 15.283660867177474, -47.27610648837792 15.184891952170702 M-47.27610648837792 15.184891952170702 C-47.540649002434286 15.087537861593768, -47.805191516490645 14.990183771016833, -48.23864707806999 14.830668117536348 M-47.27610648837792 15.184891952170702 C-47.62693365864772 15.055784310500604, -47.97776082891752 14.926676668830506, -48.23864707806999 14.830668117536348 M-48.23864707806999 14.830668117536348 C-48.46162283719991 14.731963363310419, -48.68459859632983 14.63325860908449, -49.17651482588093 14.415501886438708 M-48.23864707806999 14.830668117536348 C-48.453537275866466 14.73554260146308, -48.66842747366294 14.640417085389812, -49.17651482588093 14.415501886438708 M-49.17651482588093 14.415501886438708 C-49.46214345239222 14.266489614941634, -49.74777207890351 14.11747734344456, -50.085855832063 13.941099265974234 M-49.17651482588093 14.415501886438708 C-49.488524832009496 14.252726466093382, -49.80053483813806 14.089951045748053, -50.085855832063 13.941099265974234 M-50.085855832063 13.941099265974234 C-50.43228467553059 13.73109206522232, -50.77871351899818 13.521084864470405, -50.96293341936877 13.409409678269457 M-50.085855832063 13.941099265974234 C-50.324942185941225 13.796163713225882, -50.56402853981945 13.651228160477531, -50.96293341936877 13.409409678269457 M-50.96293341936877 13.409409678269457 C-51.15530807114953 13.275217448951656, -51.34768272293029 13.141025219633855, -51.804143487859456 12.822617949887308 M-50.96293341936877 13.409409678269457 C-51.25054620689205 13.208783448250124, -51.53815899441532 13.008157218230792, -51.804143487859456 12.822617949887308 M-51.804143487859456 12.822617949887308 C-52.0194956031388 12.650880368712494, -52.234847718418145 12.479142787537683, -52.60602932492461 12.183135333906154 M-51.804143487859456 12.822617949887308 C-52.07239862733744 12.608691614722677, -52.34065376681543 12.394765279558047, -52.60602932492461 12.183135333906154 M-52.60602932492461 12.183135333906154 C-52.81495248976549 11.993396843401696, -53.02387565460637 11.803658352897237, -53.36529580965578 11.493589601563649 M-52.60602932492461 12.183135333906154 C-52.87673490605238 11.937287687603105, -53.14744048718014 11.691440041300053, -53.36529580965578 11.493589601563649 M-53.36529580965578 11.493589601563649 C-53.63565325708667 11.214423340332006, -53.90601070451758 10.935257079100364, -54.07882295320505 10.756814244181069 M-53.36529580965578 11.493589601563649 C-53.563633305534694 11.288789853257418, -53.76197080141361 11.083990104951189, -54.07882295320505 10.756814244181069 M-54.07882295320505 10.756814244181069 C-54.29476534536173 10.503156022883626, -54.510707737518416 10.249497801586182, -54.74367871948847 9.97583682973974 M-54.07882295320505 10.756814244181069 C-54.33388791067075 10.457200431534627, -54.588952868136445 10.157586618888185, -54.74367871948847 9.97583682973974 M-54.74367871948847 9.97583682973974 C-54.9274447429884 9.729607099678981, -55.11121076648833 9.483377369618221, -55.35713107355129 9.15386656195472 M-54.74367871948847 9.97583682973974 C-54.904846124416174 9.759887189789254, -55.066013529343884 9.543937549838766, -55.35713107355129 9.15386656195472 M-55.35713107355129 9.15386656195472 C-55.57935690147763 8.812468014269635, -55.801582729403975 8.471069466584549, -55.916659208085534 8.29428109296841 M-55.35713107355129 9.15386656195472 C-55.579969371402214 8.81152709599427, -55.80280766925314 8.469187630033819, -55.916659208085534 8.29428109296841 M-55.916659208085534 8.29428109296841 C-56.01915832834643 8.112283525783791, -56.12165744860732 7.930285958599173, -56.419963901968 7.400612643853366 M-55.916659208085534 8.29428109296841 C-56.03181875415593 8.089803657751887, -56.14697830022633 7.885326222535364, -56.419963901968 7.400612643853366 M-56.419963901968 7.400612643853366 C-56.574850959953686 7.078986353893947, -56.729738017939376 6.757360063934527, -56.864976968252996 6.476533489958307 M-56.419963901968 7.400612643853366 C-56.58789069214037 7.051909071002728, -56.755817482312736 6.703205498152092, -56.864976968252996 6.476533489958307 M-56.864976968252996 6.476533489958307 C-56.965853756016365 6.227365873862776, -57.066730543779734 5.978198257767245, -57.249869752796165 5.525840870740931 M-56.864976968252996 6.476533489958307 C-57.00195282484412 6.138200475930212, -57.13892868143524 5.799867461902117, -57.249869752796165 5.525840870740931 M-57.249869752796165 5.525840870740931 C-57.347500159842795 5.231793640009402, -57.44513056688942 4.937746409277872, -57.57306064858657 4.552441386096519 M-57.249869752796165 5.525840870740931 C-57.34715023880756 5.232847546415184, -57.44443072481895 4.939854222089436, -57.57306064858657 4.552441386096519 M-57.57306064858657 4.552441386096519 C-57.65685778891725 4.232886572105267, -57.74065492924794 3.9133317581140155, -57.833221594909176 3.5603349433010343 M-57.57306064858657 4.552441386096519 C-57.6509424271347 4.255444410316137, -57.72882420568284 3.9584474345357554, -57.833221594909176 3.5603349433010343 M-57.833221594909176 3.5603349433010343 C-57.89310787762213 3.2528315385403657, -57.95299416033508 2.945328133779697, -58.029283534631205 2.5535983205340753 M-57.833221594909176 3.5603349433010343 C-57.87847012755635 3.327993291438576, -57.92371866020352 3.0956516395761184, -58.029283534631205 2.5535983205340753 M-58.029283534631205 2.5535983205340753 C-58.0788904926445 2.1688565501848087, -58.1284974506578 1.7841147798355421, -58.16044080718717 1.5363684145229202 M-58.029283534631205 2.5535983205340753 C-58.07350867162084 2.2105968912835214, -58.11773380861048 1.8675954620329676, -58.16044080718717 1.5363684145229202 M-58.16044080718717 1.5363684145229202 C-58.184950270091406 1.1546137461070782, -58.20945973299564 0.7728590776912362, -58.226154459211 0.5128252411464846 M-58.16044080718717 1.5363684145229202 C-58.17776828180718 1.2664790108304218, -58.1950957564272 0.9965896071379237, -58.226154459211 0.5128252411464846 M-58.226154459211 0.5128252411464846 C-58.226154459211 0.22299550170195698, -58.226154459211 -0.06683423774257069, -58.226154459211 -0.5128252411464769 M-58.226154459211 0.5128252411464846 C-58.226154459211 0.13500446738648708, -58.226154459211 -0.24281630637351048, -58.226154459211 -0.5128252411464769 M-58.226154459211 -0.5128252411464769 C-58.206826316252055 -0.8138766691283347, -58.1874981732931 -1.1149280971101925, -58.16044080718717 -1.5363684145228982 M-58.226154459211 -0.5128252411464769 C-58.20616998959615 -0.8240994865713738, -58.186185519981294 -1.1353737319962707, -58.16044080718717 -1.5363684145228982 M-58.16044080718717 -1.5363684145228982 C-58.12809215381646 -1.787258182102017, -58.09574350044575 -2.038147949681136, -58.029283534631205 -2.5535983205340678 M-58.16044080718717 -1.5363684145228982 C-58.121953147168256 -1.8348711053815105, -58.08346548714934 -2.133373796240123, -58.029283534631205 -2.5535983205340678 M-58.029283534631205 -2.5535983205340678 C-57.953934738384255 -2.940498464288403, -57.87858594213731 -3.3273986080427385, -57.833221594909176 -3.5603349433010267 M-58.029283534631205 -2.5535983205340678 C-57.96793320962678 -2.868619273035992, -57.90658288462236 -3.183640225537916, -57.833221594909176 -3.5603349433010267 M-57.833221594909176 -3.5603349433010267 C-57.761953502304046 -3.832111068191119, -57.690685409698915 -4.103887193081211, -57.573060648586576 -4.552441386096511 M-57.833221594909176 -3.5603349433010267 C-57.76845311933928 -3.8073252114839247, -57.703684643769385 -4.054315479666823, -57.573060648586576 -4.552441386096511 M-57.573060648586576 -4.552441386096511 C-57.45969797045347 -4.893871710743526, -57.34633529232036 -5.235302035390541, -57.24986975279617 -5.525840870740911 M-57.573060648586576 -4.552441386096511 C-57.49715703338951 -4.781050981471334, -57.42125341819244 -5.009660576846158, -57.24986975279617 -5.525840870740911 M-57.24986975279617 -5.525840870740911 C-57.11786513656494 -5.851894824967695, -56.9858605203337 -6.1779487791944785, -56.864976968253 -6.476533489958299 M-57.24986975279617 -5.525840870740911 C-57.122166477961365 -5.841270428557746, -56.99446320312656 -6.156699986374582, -56.864976968253 -6.476533489958299 M-56.864976968253 -6.476533489958299 C-56.76039028226991 -6.693709981198784, -56.655803596286816 -6.910886472439269, -56.419963901968 -7.400612643853359 M-56.864976968253 -6.476533489958299 C-56.771089540805534 -6.671492741922097, -56.67720211335807 -6.866451993885895, -56.419963901968 -7.400612643853359 M-56.419963901968 -7.400612643853359 C-56.2326861712245 -7.733143218715064, -56.045408440481 -8.06567379357677, -55.916659208085534 -8.294281092968404 M-56.419963901968 -7.400612643853359 C-56.24881042499255 -7.704512973392148, -56.07765694801709 -8.008413302930936, -55.916659208085534 -8.294281092968404 M-55.916659208085534 -8.294281092968404 C-55.7918872494724 -8.485964327360339, -55.66711529085927 -8.677647561752275, -55.357131073551294 -9.153866561954715 M-55.916659208085534 -8.294281092968404 C-55.71184503430992 -8.608930664194181, -55.5070308605343 -8.923580235419958, -55.357131073551294 -9.153866561954715 M-55.357131073551294 -9.153866561954715 C-55.1195341234458 -9.472224829568624, -54.88193717334031 -9.790583097182536, -54.74367871948848 -9.975836829739734 M-55.357131073551294 -9.153866561954715 C-55.195395312048944 -9.370577747936874, -55.033659550546595 -9.587288933919032, -54.74367871948848 -9.975836829739734 M-54.74367871948848 -9.975836829739734 C-54.50619834388022 -10.254794791945377, -54.26871796827196 -10.533752754151019, -54.078822953205055 -10.756814244181063 M-54.74367871948848 -9.975836829739734 C-54.595119853520664 -10.150342526944476, -54.44656098755284 -10.324848224149216, -54.078822953205055 -10.756814244181063 M-54.078822953205055 -10.756814244181063 C-53.90621248862478 -10.935048720442897, -53.7336020240445 -11.11328319670473, -53.36529580965579 -11.493589601563633 M-54.078822953205055 -10.756814244181063 C-53.89113071790536 -10.950621886947097, -53.70343848260567 -11.144429529713129, -53.36529580965579 -11.493589601563633 M-53.36529580965579 -11.493589601563633 C-53.201499020576804 -11.642345511579615, -53.037702231497825 -11.791101421595597, -52.60602932492463 -12.18313533390614 M-53.36529580965579 -11.493589601563633 C-53.084421821056935 -11.748671926490609, -52.80354783245809 -12.003754251417583, -52.60602932492463 -12.18313533390614 M-52.60602932492463 -12.18313533390614 C-52.39695226886489 -12.349868722339659, -52.187875212805146 -12.516602110773178, -51.80414348785946 -12.822617949887302 M-52.60602932492463 -12.18313533390614 C-52.32763959013779 -12.405143739136674, -52.04924985535095 -12.627152144367209, -51.80414348785946 -12.822617949887302 M-51.80414348785946 -12.822617949887302 C-51.586461438091305 -12.97446352450151, -51.36877938832315 -13.126309099115721, -50.96293341936879 -13.409409678269444 M-51.80414348785946 -12.822617949887302 C-51.56099035976387 -12.99223104611752, -51.31783723166827 -13.161844142347741, -50.96293341936879 -13.409409678269444 M-50.96293341936879 -13.409409678269444 C-50.66280134073931 -13.591351508106506, -50.36266926210982 -13.773293337943569, -50.085855832063004 -13.941099265974229 M-50.96293341936879 -13.409409678269444 C-50.64319646692347 -13.603236097824691, -50.32345951447815 -13.797062517379938, -50.085855832063004 -13.941099265974229 M-50.085855832063004 -13.941099265974229 C-49.731902526455855 -14.125756478791569, -49.3779492208487 -14.31041369160891, -49.176514825880936 -14.415501886438705 M-50.085855832063004 -13.941099265974229 C-49.90039332534641 -14.037854936933874, -49.7149308186298 -14.134610607893519, -49.176514825880936 -14.415501886438705 M-49.176514825880936 -14.415501886438705 C-48.988236455508 -14.498847135923384, -48.79995808513506 -14.582192385408066, -48.238647078069995 -14.830668117536344 M-49.176514825880936 -14.415501886438705 C-48.896671029585434 -14.53938043378745, -48.61682723328993 -14.663258981136197, -48.238647078069995 -14.830668117536344 M-48.238647078069995 -14.830668117536344 C-47.94472381280295 -14.9388345961515, -47.650800547535894 -15.047001074766653, -47.27610648837794 -15.184891952170695 M-48.238647078069995 -14.830668117536344 C-47.989271540501214 -14.922440620563854, -47.73989600293243 -15.014213123591366, -47.27610648837794 -15.184891952170695 M-47.27610648837794 -15.184891952170695 C-47.01025599628438 -15.263794982746356, -46.74440550419081 -15.342698013322016, -46.29284834255213 -15.476717808624466 M-47.27610648837794 -15.184891952170695 C-46.91794352476435 -15.291192839735448, -46.55978056115075 -15.397493727300203, -46.29284834255213 -15.476717808624466 M-46.29284834255213 -15.476717808624466 C-46.01664939669154 -15.539758415650585, -45.74045045083094 -15.602799022676704, -45.292913059221966 -15.704946511857043 M-46.29284834255213 -15.476717808624466 C-45.923767764200925 -15.560958042157273, -45.554687185849716 -15.645198275690078, -45.292913059221966 -15.704946511857043 M-45.292913059221966 -15.704946511857043 C-44.958395656979675 -15.759028691230377, -44.62387825473739 -15.813110870603712, -44.2804095869521 -15.868640221171937 M-45.292913059221966 -15.704946511857043 C-45.067383170100776 -15.741408435319746, -44.84185328097958 -15.77787035878245, -44.2804095869521 -15.868640221171937 M-44.2804095869521 -15.868640221171937 C-43.97372951297896 -15.898225279071374, -43.66704943900582 -15.927810336970811, -43.259498519691405 -15.967126284005381 M-44.2804095869521 -15.868640221171937 C-43.988108610732226 -15.896838144804512, -43.695807634512356 -15.925036068437088, -43.259498519691405 -15.967126284005381 M-43.259498519691405 -15.967126284005381 C-42.92318510825185 -15.977911200515905, -42.5868716968123 -15.988696117026427, -42.23437500000001 -16 M-43.259498519691405 -15.967126284005381 C-42.92522315568159 -15.977845844301651, -42.59094779167178 -15.98856540459792, -42.23437500000001 -16 M-42.23437500000001 -16 C-42.23437500000001 -16, -42.234375 -16, -42.234375 -16 M-42.23437500000001 -16 C-42.23437500000001 -16, -42.234375 -16, -42.234375 -16" stroke="#999" stroke-width="1.3" fill="none" stroke-dasharray="0 0" style=""/></g><g class="label" style="" transform="translate(0, -8.5)"><rect/><g><rect class="background" style="stroke: none"/><text y="-10.1" style=""><tspan class="text-outer-tspan row" x="0" y="-0.1em" dy="1.1em"><tspan font-style="normal" class="text-inner-tspan" font-weight="normal">ISBN</tspan><tspan font-style="normal" class="text-inner-tspan" font-weight="normal"> inserito</tspan></tspan></text></g></g></g><g class="node default" id="my-svg-flowchart-B-1" data-look="classic" transform="translate(191.25, 113.5)"><rect class="basic label-container" style="" x="-112.75390625" y="-23.5" width="225.5078125" height="47"/><g class="label" style="" transform="translate(0, -8.5)"><rect/><g><rect class="background" style="stroke: none"/><text y="-10.1" style=""><tspan class="text-outer-tspan row" x="0" y="-0.1em" dy="1.1em"><tspan font-style="normal" class="text-inner-tspan" font-weight="normal">Normalizza</tspan><tspan font-style="normal" class="text-inner-tspan" font-weight="normal"> e</tspan><tspan font-style="normal" class="text-inner-tspan" font-weight="normal"> convalida</tspan></tspan></text></g></g></g><g class="node default" id="my-svg-flowchart-C-3" data-look="classic" transform="translate(191.25, 277.1671905517578)"><polygon points="90.16718673706055,0 180.3343734741211,-90.16718673706055 90.16718673706055,-180.3343734741211 0,-90.16718673706055" class="label-container" transform="translate(-89.66718673706055, 90.16718673706055)"/><g class="label" style="" transform="translate(0, -17.299999237060547)"><rect/><g><rect class="background" style="stroke: none"/><text y="-10.1" style=""><tspan class="text-outer-tspan row" x="0" y="-0.1em" dy="1.1em"><tspan font-style="normal" class="text-inner-tspan" font-weight="normal">Carattere</tspan><tspan font-style="normal" class="text-inner-tspan" font-weight="normal"> di</tspan></tspan><tspan class="text-outer-tspan row" x="0" y="1em" dy="1.1em"><tspan font-style="normal" class="text-inner-tspan" font-weight="normal">controllo</tspan><tspan font-style="normal" class="text-inner-tspan" font-weight="normal"> valido?</tspan></tspan></text></g></g></g><g class="node default" id="my-svg-flowchart-D-5" data-look="classic" transform="translate(264, 952.5765533447266)"><rect class="basic label-container" style="fill:#ffebee !important;stroke:#c62828 !important" x="-78.06640625" y="-23.5" width="156.1328125" height="47"/><g class="label" style="" transform="translate(0, -8.5)"><rect/><g><rect class="background" style="stroke: none"/><text y="-10.1" style=""><tspan class="text-outer-tspan row" x="0" y="-0.1em" dy="1.1em"><tspan font-style="normal" class="text-inner-tspan" font-weight="normal">Mostra</tspan><tspan font-style="normal" class="text-inner-tspan" font-weight="normal"> errore</tspan></tspan></text></g></g></g><g class="node default" id="my-svg-flowchart-E-7" data-look="classic" transform="translate(310.82421875, 1133.0906105041504)"><rect class="basic label-container" style="fill:#fff3e0 !important;stroke:#e65100 !important" x="-104.7578125" y="-32.29999923706055" width="209.515625" height="64.5999984741211"/><g class="label" style="" transform="translate(0, -17.299999237060547)"><rect/><g><rect class="background" style="stroke: none"/><text y="-10.1" style=""><tspan class="text-outer-tspan row" x="0" y="-0.1em" dy="1.1em"><tspan font-style="normal" class="text-inner-tspan" font-weight="normal">Inserimento</tspan><tspan font-style="normal" class="text-inner-tspan" font-weight="normal"> manuale</tspan></tspan><tspan class="text-outer-tspan row" x="0" y="1em" dy="1.1em"><tspan font-style="normal" class="text-inner-tspan" font-weight="normal">(sempre</tspan><tspan font-style="normal" class="text-inner-tspan" font-weight="normal"> disponibile)</tspan></tspan></text></g></g></g><g class="node default" id="my-svg-flowchart-F-9" data-look="classic" transform="translate(118.5, 461.8343811035156)"><rect class="basic label-container" style="" x="-110.5" y="-23.5" width="221" height="47"/><g class="label" style="" transform="translate(0, -8.5)"><rect/><g><rect class="background" style="stroke: none"/><text y="-10.1" style=""><tspan class="text-outer-tspan row" x="0" y="-0.1em" dy="1.1em"><tspan font-style="normal" class="text-inner-tspan" font-weight="normal">Interroga</tspan><tspan font-style="normal" class="text-inner-tspan" font-weight="normal"> Open</tspan><tspan font-style="normal" class="text-inner-tspan" font-weight="normal"> Library</tspan></tspan></text></g></g></g><g class="node default" id="my-svg-flowchart-G-11" data-look="classic" transform="translate(118.5, 612.5484390258789)"><polygon points="77.21406173706055,0 154.4281234741211,-77.21406173706055 77.21406173706055,-154.4281234741211 0,-77.21406173706055" class="label-container" transform="translate(-76.71406173706055, 77.21406173706055)"/><g class="label" style="" transform="translate(0, -17.299999237060547)"><rect/><g><rect class="background" style="stroke: none"/><text y="-10.1" style=""><tspan class="text-outer-tspan row" x="0" y="-0.1em" dy="1.1em"><tspan font-style="normal" class="text-inner-tspan" font-weight="normal">Metadati</tspan><tspan font-style="normal" class="text-inner-tspan" font-weight="normal"> utili</tspan></tspan><tspan class="text-outer-tspan row" x="0" y="1em" dy="1.1em"><tspan font-style="normal" class="text-inner-tspan" font-weight="normal">trovati?</tspan></tspan></text></g></g></g><g class="node default" id="my-svg-flowchart-H-13" data-look="classic" transform="translate(118.5, 793.0624961853027)"><rect class="basic label-container" style="fill:#e8f5e9 !important;stroke:#2e7d32 !important" x="-101.15625" y="-32.29999923706055" width="202.3125" height="64.5999984741211"/><g class="label" style="" transform="translate(0, -17.299999237060547)"><rect/><g><rect class="background" style="stroke: none"/><text y="-10.1" style=""><tspan class="text-outer-tspan row" x="0" y="-0.1em" dy="1.1em"><tspan font-style="normal" class="text-inner-tspan" font-weight="normal">Restituisci</tspan><tspan font-style="normal" class="text-inner-tspan" font-weight="normal"> metadati</tspan></tspan><tspan class="text-outer-tspan row" x="0" y="1em" dy="1.1em"><tspan font-style="normal" class="text-inner-tspan" font-weight="normal">Fonte:</tspan><tspan font-style="normal" class="text-inner-tspan" font-weight="normal"> Open</tspan><tspan font-style="normal" class="text-inner-tspan" font-weight="normal"> Library</tspan></tspan></text></g></g></g><g class="node default" id="my-svg-flowchart-I-15" data-look="classic" transform="translate(543.4253883361816, 793.0624961853027)"><rect class="basic label-container" style="" x="-98.4921875" y="-32.29999923706055" width="196.984375" height="64.5999984741211"/><g class="label" style="" transform="translate(0, -17.299999237060547)"><rect/><g><rect class="background" style="stroke: none"/><text y="-10.1" style=""><tspan class="text-outer-tspan row" x="0" y="-0.1em" dy="1.1em"><tspan font-style="normal" class="text-inner-tspan" font-weight="normal">Interroga</tspan><tspan font-style="normal" class="text-inner-tspan" font-weight="normal"> API</tspan></tspan><tspan class="text-outer-tspan row" x="0" y="1em" dy="1.1em"><tspan font-style="normal" class="text-inner-tspan" font-weight="normal">metadati</tspan><tspan font-style="normal" class="text-inner-tspan" font-weight="normal"> Let</tspan><tspan font-style="normal" class="text-inner-tspan" font-weight="normal"> Books</tspan></tspan></text></g></g></g><g class="node default" id="my-svg-flowchart-J-17" data-look="classic" transform="translate(543.4253883361816, 952.5765533447266)"><polygon points="77.21406173706055,0 154.4281234741211,-77.21406173706055 77.21406173706055,-154.4281234741211 0,-77.21406173706055" class="label-container" transform="translate(-76.71406173706055, 77.21406173706055)"/><g class="label" style="" transform="translate(0, -17.299999237060547)"><rect/><g><rect class="background" style="stroke: none"/><text y="-10.1" style=""><tspan class="text-outer-tspan row" x="0" y="-0.1em" dy="1.1em"><tspan font-style="normal" class="text-inner-tspan" font-weight="normal">Metadati</tspan><tspan font-style="normal" class="text-inner-tspan" font-weight="normal"> utili</tspan></tspan><tspan class="text-outer-tspan row" x="0" y="1em" dy="1.1em"><tspan font-style="normal" class="text-inner-tspan" font-weight="normal">trovati?</tspan></tspan></text></g></g></g><g class="node default" id="my-svg-flowchart-K-19" data-look="classic" transform="translate(595.0308570861816, 1133.0906105041504)"><rect class="basic label-container" style="fill:#e8f5e9 !important;stroke:#2e7d32 !important" x="-105.1640625" y="-32.29999923706055" width="210.328125" height="64.5999984741211"/><g class="label" style="" transform="translate(0, -17.299999237060547)"><rect/><g><rect class="background" style="stroke: none"/><text y="-10.1" style=""><tspan class="text-outer-tspan row" x="0" y="-0.1em" dy="1.1em"><tspan font-style="normal" class="text-inner-tspan" font-weight="normal">Restituisci</tspan><tspan font-style="normal" class="text-inner-tspan" font-weight="normal"> metadati</tspan></tspan><tspan class="text-outer-tspan row" x="0" y="1em" dy="1.1em"><tspan font-style="normal" class="text-inner-tspan" font-weight="normal">Fonte:</tspan><tspan font-style="normal" class="text-inner-tspan" font-weight="normal"> Let</tspan><tspan font-style="normal" class="text-inner-tspan" font-weight="normal"> Books</tspan><tspan font-style="normal" class="text-inner-tspan" font-weight="normal"> API</tspan></tspan></text></g></g></g></g></g></g><defs><filter id="my-svg-drop-shadow" height="130%" width="130%"><feDropShadow dx="4" dy="4" stdDeviation="0" flood-opacity="0.06" flood-color="#000000"/></filter></defs><defs><filter id="my-svg-drop-shadow-small" height="150%" width="150%"><feDropShadow dx="2" dy="2" stdDeviation="0" flood-opacity="0.06" flood-color="#000000"/></filter></defs><linearGradient id="my-svg-gradient" gradientUnits="objectBoundingBox" x1="0%" y1="0%" x2="100%" y2="0%"><stop offset="0%" stop-color="hsl(0, 0%, 83.3333333333%)" stop-opacity="1"/><stop offset="100%" stop-color="hsl(0, 0%, 88.9215686275%)" stop-opacity="1"/></linearGradient><text text-anchor="middle" x="354.09747314453125" y="-25" class="flowchartTitleText">Catena di ricerca metadati ISBN</text></svg>