<svg id="my-svg" width="100%" xmlns="http://www.w3.org/2000/svg" xmlns:xlink="http://www.w3.org/1999/xlink" class="flowchart" style="max-width: 755.3px; background-color: transparent;" viewBox="0 -49 755.3004150390625 1222.3905029296875" role="graphics-document document" aria-roledescription="flowchart-v2"><style>#my-svg{font-family:"trebuchet ms",verdana,arial,sans-serif;font-size:16px;fill:#000000;}@keyframes edge-animation-frame{from{stroke-dashoffset:0;}}@keyframes dash{to{stroke-dashoffset:0;}}#my-svg .edge-animation-slow{stroke-dasharray:9,5!important;stroke-dashoffset:900;animation:dash 50s linear infinite;stroke-linecap:round;}#my-svg .edge-animation-fast{stroke-dasharray:9,5!important;stroke-dashoffset:900;animation:dash 20s linear infinite;stroke-linecap:round;}#my-svg .error-icon{fill:#552222;}#my-svg .error-text{fill:#552222;stroke:#552222;}#my-svg .edge-thickness-normal{stroke-width:1px;}#my-svg .edge-thickness-thick{stroke-width:3.5px;}#my-svg .edge-pattern-solid{stroke-dasharray:0;}#my-svg .edge-thickness-invisible{stroke-width:0;fill:none;}#my-svg .edge-pattern-dashed{stroke-dasharray:3;}#my-svg .edge-pattern-dotted{stroke-dasharray:2;}#my-svg .marker{fill:#666;stroke:#666;}#my-svg .marker.cross{stroke:#666;}#my-svg svg{font-family:"trebuchet ms",verdana,arial,sans-serif;font-size:16px;}#my-svg p{margin:0;}#my-svg .label{font-family:"trebuchet ms",verdana,arial,sans-serif;color:#000000;}#my-svg .cluster-label text{fill:#333;}#my-svg .cluster-label span{color:#333;}#my-svg .cluster-label span p{background-color:transparent;}#my-svg .label text,#my-svg span{fill:#000000;color:#000000;}#my-svg .node rect,#my-svg .node circle,#my-svg .node ellipse,#my-svg .node polygon,#my-svg .node path{fill:#eee;stroke:#999;stroke-width:1px;}#my-svg .rough-node .label text,#my-svg .node .label text,#my-svg .image-shape .label,#my-svg .icon-shape .label{text-anchor:middle;}#my-svg .node .katex path{fill:#000;stroke:#000;stroke-width:1px;}#my-svg .rough-node .label,#my-svg .node .label,#my-svg .image-shape .label,#my-svg .icon-shape .label{text-align:center;}#my-svg .node.clickable{cursor:pointer;}#my-svg .root .anchor path{fill:#666!important;stroke-width:0;stroke:#666;}#my-svg .arrowheadPath{fill:#333333;}#my-svg .edgePath .path{stroke:#666;stroke-width:1px;}#my-svg .flowchart-link{stroke:#666;fill:none;}#my-svg .edgeLabel{background-color:white;text-align:center;}#my-svg .edgeLabel p{background-color:white;}#my-svg .edgeLabel rect{opacity:0.5;background-color:white;fill:white;}#my-svg .labelBkg{background-color:rgba(255, 255, 255, 0.5);}#my-svg .cluster rect{fill:hsl(0, 0%, 98.9215686275%);stroke:#707070;stroke-width:1px;}#my-svg .cluster text{fill:#333;}#my-svg .cluster span{color:#333;}#my-svg div.mermaidTooltip{position:absolute;text-align:center;max-width:200px;padding:2px;font-family:"trebuchet ms",verdana,arial,sans-serif;font-size:12px;background:hsl(-160, 0%, 93.3333333333%);border:1px solid #707070;border-radius:2px;pointer-events:none;z-index:100;}#my-svg .flowchartTitleText{text-anchor:middle;font-size:18px;fill:#000000;}#my-svg rect.text{fill:none;stroke-width:0;}#my-svg .icon-shape,#my-svg .image-shape{background-color:white;text-align:center;}#my-svg .icon-shape p,#my-svg .image-shape p{background-color:white;padding:2px;}#my-svg .icon-shape .label rect,#my-svg .image-shape .label rect{opacity:0.5;background-color:white;fill:white;}#my-svg .label-icon{display:inline-block;height:1em;overflow:visible;vertical-align:-0.125em;}#my-svg .node .label-icon path{fill:currentColor;stroke:revert;stroke-width:revert;}#my-svg .node .neo-node{stroke:#999;}#my-svg [data-look="neo"].node rect,#my-svg [data-look="neo"].cluster rect,#my-svg [data-look="neo"].node polygon{stroke:url(#my-svg-gradient);filter:drop-shadow( 1px 2px 2px rgba(185,185,185,1));}#my-svg [data-look="neo"].node path{stroke:url(#my-svg-gradient);stroke-width:1px;}#my-svg [data-look="neo"].node .outer-path{filter:drop-shadow( 1px 2px 2px rgba(185,185,185,1));}#my-svg [data-look="neo"].node .neo-line path{stroke:#999;filter:none;}#my-svg [data-look="neo"].node circle{stroke:url(#my-svg-gradient);filter:drop-shadow( 1px 2px 2px rgba(185,185,185,1));}#my-svg [data-look="neo"].node circle .state-start{fill:#000000;}#my-svg [data-look="neo"].icon-shape .icon{fill:url(#my-svg-gradient);filter:drop-shadow( 1px 2px 2px rgba(185,185,185,1));}#my-svg [data-look="neo"].icon-shape .icon-neo path{stroke:url(#my-svg-gradient);filter:drop-shadow( 1px 2px 2px rgba(185,185,185,1));}#my-svg :root{--mermaid-font-family:"trebuchet ms",verdana,arial,sans-serif;}</style><g><marker id="my-svg_flowchart-v2-pointEnd" class="marker flowchart-v2" viewBox="0 0 10 10" refX="5" refY="5" markerUnits="userSpaceOnUse" markerWidth="8" markerHeight="8" orient="auto"><path d="M 0 0 L 10 5 L 0 10 z" class="arrowMarkerPath" style="stroke-width: 1; stroke-dasharray: 1, 0;"/></marker><marker id="my-svg_flowchart-v2-pointStart" class="marker flowchart-v2" viewBox="0 0 10 10" refX="4.5" refY="5" markerUnits="userSpaceOnUse" markerWidth="8" markerHeight="8" orient="auto"><path d="M 0 5 L 10 10 L 10 0 z" class="arrowMarkerPath" style="stroke-width: 1; stroke-dasharray: 1, 0;"/></marker><marker id="my-svg_flowchart-v2-pointEnd-margin" class="marker flowchart-v2" viewBox="0 0 11.5 14" refX="11.5" refY="7" markerUnits="userSpaceOnUse" markerWidth="10.5" markerHeight="14" orient="auto"><path d="M 0 0 L 11.5 7 L 0 14 z" class="arrowMarkerPath" style="stroke-width: 0; stroke-dasharray: 1, 0;"/></marker><marker id="my-svg_flowchart-v2-pointStart-margin" class="marker flowchart-v2" viewBox="0 0 11.5 14" refX="1" refY="7" markerUnits="userSpaceOnUse" markerWidth="11.5" markerHeight="14" orient="auto"><polygon points="0,7 11.5,14 11.5,0" class="arrowMarkerPath" style="stroke-width: 0; stroke-dasharray: 1, 0;"/></marker><marker id="my-svg_flowchart-v2-circleEnd" class="marker flowchart-v2" viewBox="0 0 10 10" refX="11" refY="5" markerUnits="userSpaceOnUse" markerWidth="11" markerHeight="11" orient="auto"><circle cx="5" cy="5" r="5" class="arrowMarkerPath" style="stroke-width: 1; stroke-dasharray: 1, 0;"/></marker><marker id="my-svg_flowchart-v2-circleStart" class="marker flowchart-v2" viewBox="0 0 10 10" refX="-1" refY="5" markerUnits="userSpaceOnUse" markerWidth="11" markerHeight="11" orient="auto"><circle cx="5" cy="5" r="5" class="arrowMarkerPath" style="stroke-width: 1; stroke-dasharray: 1, 0;"/></marker><marker id="my-svg_flowchart-v2-circleEnd-margin" class="marker flowchart-v2" viewBox="0 0 10 10" refY="5" refX="12.25" markerUnits="userSpaceOnUse" markerWidth="14" markerHeight="14" orient="auto"><circle cx="5" cy="5" r="5" class="arrowMarkerPath" style="stroke-width: 0; stroke-dasharray: 1, 0;"/></marker><marker id="my-svg_flowchart-v2-circleStart-margin" class="marker flowchart-v2" viewBox="0 0 10 10" refX="-2" refY="5" markerUnits="userSpaceOnUse" markerWidth="14" markerHeight="14" orient="auto"><circle cx="5" cy="5" r="5" class="arrowMarkerPath" style="stroke-width: 0; stroke-dasharray: 1, 0;"/></marker><marker id="my-svg_flowchart-v2-crossEnd" class="marker cross flowchart-v2" viewBox="0 0 11 11" refX="12" refY="5.2" markerUnits="userSpaceOnUse" markerWidth="11" markerHeight="11" orient="auto"><path d="M 1,1 l 9,9 M 10,1 l -9,9" class="arrowMarkerPath" style="stroke-width: 2; stroke-dasharray: 1, 0;"/></marker><marker id="my-svg_flowchart-v2-crossStart" class="marker cross flowchart-v2" viewBox="0 0 11 11" refX="-1" refY="5.2" markerUnits="userSpaceOnUse" markerWidth="11" markerHeight="11" orient="auto"><path d="M 1,1 l 9,9 M 10,1 l -9,9" class="arrowMarkerPath" style="stroke-width: 2; stroke-dasharray: 1, 0;"/></marker><marker id="my-svg_flowchart-v2-crossEnd-margin" class="marker cross flowchart-v2" viewBox="0 0 15 15" refX="17.7" refY="7.5" markerUnits="userSpaceOnUse" markerWidth="12" markerHeight="12" orient="auto"><path d="M 1,1 L 14,14 M 1,14 L 14,1" class="arrowMarkerPath" style="stroke-width: 2.5;"/></marker><marker id="my-svg_flowchart-v2-crossStart-margin" class="marker cross flowchart-v2" viewBox="0 0 15 15" refX="-3.5" refY="7.5" markerUnits="userSpaceOnUse" markerWidth="12" markerHeight="12" orient="auto"><path d="M 1,1 L 14,14 M 1,14 L 14,1" class="arrowMarkerPath" style="stroke-width: 2.5; stroke-dasharray: 1, 0;"/></marker><g class="root"><g class="clusters"/><g class="edgePaths"><path d="M195.066,40.5L194.983,44.583C194.9,48.667,194.733,56.833,194.65,64.417C194.566,72,194.566,79,194.566,82.5L194.566,86" id="my-svg-L_A_B_0" class="edge-thickness-normal edge-pattern-solid edge-thickness-normal edge-pattern-solid flowchart-link" style=";" data-edge="true" data-et="edge" data-id="L_A_B_0" data-points="W3sieCI6MTk1LjA2NjQwNjI1LCJ5Ijo0MC41MDAwMDAwMDAwMDAwMX0seyJ4IjoxOTQuNTY2NDA2MjUsInkiOjY1fSx7IngiOjE5NC41NjY0MDYyNSwieSI6OTB9XQ==" data-look="classic" marker-end="url(#my-svg_flowchart-v2-pointEnd)"/><path d="M194.566,137L194.566,141.167C194.566,145.333,194.566,153.667,194.566,161.333C194.566,169,194.566,176,194.566,179.5L194.566,183" id="my-svg-L_B_C_0" class="edge-thickness-normal edge-pattern-solid edge-thickness-normal edge-pattern-solid flowchart-link" style=";" data-edge="true" data-et="edge" data-id="L_B_C_0" data-points="W3sieCI6MTk0LjU2NjQwNjI1LCJ5IjoxMzd9LHsieCI6MTk0LjU2NjQwNjI1LCJ5IjoxNjJ9LHsieCI6MTk0LjU2NjQwNjI1LCJ5IjoxODd9XQ==" data-look="classic" marker-end="url(#my-svg_flowchart-v2-pointEnd)"/><path d="M227.943,333.958L234.689,345.437C241.436,356.917,254.929,379.876,261.675,401.188C268.422,422.501,268.422,442.168,268.422,460.084C268.422,478.001,268.422,494.168,268.422,519.287C268.422,544.406,268.422,578.477,268.422,614.298C268.422,650.12,268.422,687.691,268.422,717.777C268.422,747.862,268.422,770.462,268.422,791.312C268.422,812.162,268.422,831.262,268.422,853.265C268.422,875.267,268.422,900.172,268.422,912.624L268.422,925.077" id="my-svg-L_C_D_0" class="edge-thickness-normal edge-pattern-solid edge-thickness-normal edge-pattern-solid flowchart-link" style=";" data-edge="true" data-et="edge" data-id="L_C_D_0" data-points="W3sieCI6MjI3Ljk0Mjc2NjM0NTUxNzEzLCJ5IjozMzMuOTU4MDIxMDA3OTk4NX0seyJ4IjoyNjguNDIxODc1LCJ5Ijo0MDIuODM0MzgxMTAzNTE1Nn0seyJ4IjoyNjguNDIxODc1LCJ5Ijo0NjEuODM0MzgxMTAzNTE1Nn0seyJ4IjoyNjguNDIxODc1LCJ5Ijo1MTAuMzM0MzgxMTAzNTE1Nn0seyJ4IjoyNjguNDIxODc1LCJ5Ijo2MTIuNTQ4NDM5MDI1ODc4OX0seyJ4IjoyNjguNDIxODc1LCJ5Ijo3MjUuMjYyNDk2OTQ4MjQyMn0seyJ4IjoyNjguNDIxODc1LCJ5Ijo3OTMuMDYyNDk2MTg1MzAyN30seyJ4IjoyNjguNDIxODc1LCJ5Ijo4NTAuMzYyNDk1NDIyMzYzM30seyJ4IjoyNjguNDIxODc1LCJ5Ijo5MjkuMDc2NTUzMzQ0NzI2Nn1d" data-look="classic" marker-end="url(#my-svg_flowchart-v2-pointEnd)"/><path d="M268.422,976.077L268.422,990.946C268.422,1005.815,268.422,1035.553,272.129,1055.79C275.837,1076.027,283.251,1086.763,286.959,1092.131L290.666,1097.499" id="my-svg-L_D_E_0" class="edge-thickness-normal edge-pattern-solid edge-thickness-normal edge-pattern-solid flowchart-link" style=";" data-edge="true" data-et="edge" data-id="L_D_E_0" data-points="W3sieCI6MjY4LjQyMTg3NSwieSI6OTc2LjA3NjU1MzM0NDcyNjZ9LHsieCI6MjY4LjQyMTg3NSwieSI6MTA2NS4yOTA2MTEyNjcwODk4fSx7IngiOjI5Mi45Mzg5ODA5NjM1NzAzLCJ5IjoxMTAwLjc5MDYxMTI2NzA4OTh9XQ==" data-look="classic" marker-end="url(#my-svg_flowchart-v2-pointEnd)"/><path d="M161.19,333.958L154.444,345.437C147.697,356.917,134.204,379.876,127.457,396.605C120.711,413.334,120.711,423.834,120.711,429.084L120.711,434.334" id="my-svg-L_C_F_0" class="edge-thickness-normal edge-pattern-solid edge-thickness-normal edge-pattern-solid flowchart-link" style=";" data-edge="true" data-et="edge" data-id="L_C_F_0" data-points="W3sieCI6MTYxLjE5MDA0NjE1NDQ4Mjg3LCJ5IjozMzMuOTU4MDIxMDA3OTk4NDd9LHsieCI6MTIwLjcxMDkzNzUsInkiOjQwMi44MzQzODExMDM1MTU2fSx7IngiOjEyMC43MTA5Mzc1LCJ5Ijo0MzguMzM0MzgxMTAzNTE1Nn1d" data-look="classic" marker-end="url(#my-svg_flowchart-v2-pointEnd)"/><path d="M120.711,485.334L120.711,489.501C120.711,493.668,120.711,502.001,120.711,509.668C120.711,517.334,120.711,524.334,120.711,527.834L120.711,531.334" id="my-svg-L_F_G_0" class="edge-thickness-normal edge-pattern-solid edge-thickness-normal edge-pattern-solid flowchart-link" style=";" data-edge="true" data-et="edge" data-id="L_F_G_0" data-points="W3sieCI6MTIwLjcxMDkzNzUsInkiOjQ4NS4zMzQzODExMDM1MTU2fSx7IngiOjEyMC43MTA5Mzc1LCJ5Ijo1MTAuMzM0MzgxMTAzNTE1Nn0seyJ4IjoxMjAuNzEwOTM3NSwieSI6NTM1LjMzNDM4MTEwMzUxNTZ9XQ==" data-look="classic" marker-end="url(#my-svg_flowchart-v2-pointEnd)"/><path d="M120.711,689.762L120.711,695.679C120.711,701.596,120.711,713.429,120.711,724.596C120.711,735.762,120.711,746.262,120.711,751.512L120.711,756.762" id="my-svg-L_G_H_0" class="edge-thickness-normal edge-pattern-solid edge-thickness-normal edge-pattern-solid flowchart-link" style=";" data-edge="true" data-et="edge" data-id="L_G_H_0" data-points="W3sieCI6MTIwLjcxMDkzNzUwMDAwMDAxLCJ5Ijo2ODkuNzYyNDk2OTQ4MjQyM30seyJ4IjoxMjAuNzEwOTM3NSwieSI6NzI1LjI2MjQ5Njk0ODI0MjJ9LHsieCI6MTIwLjcxMDkzNzUsInkiOjc2MC43NjI0OTY5NDgyNDIyfV0=" data-look="classic" marker-end="url(#my-svg_flowchart-v2-pointEnd)"/><path d="M182.683,627.791L248.732,644.036C314.78,660.281,446.878,692.772,512.927,714.267C578.976,735.762,578.976,746.262,578.976,751.512L578.976,756.762" id="my-svg-L_G_I_0" class="edge-thickness-normal edge-pattern-solid edge-thickness-normal edge-pattern-solid flowchart-link" style=";" data-edge="true" data-et="edge" data-id="L_G_I_0" data-points="W3sieCI6MTgyLjY4MjU2OTAzNDI2ODM0LCJ5Ijo2MjcuNzkwODY1NDEzOTczN30seyJ4Ijo1NzguOTc2MTY5NTg2MTgxNiwieSI6NzI1LjI2MjQ5Njk0ODI0MjJ9LHsieCI6NTc4Ljk3NjE2OTU4NjE4MTYsInkiOjc2MC43NjI0OTY5NDgyNDIyfV0=" data-look="classic" marker-end="url(#my-svg_flowchart-v2-pointEnd)"/><path d="M578.976,825.362L578.976,829.529C578.976,833.696,578.976,842.029,578.976,849.696C578.976,857.362,578.976,864.362,578.976,867.862L578.976,871.362" id="my-svg-L_I_J_0" class="edge-thickness-normal edge-pattern-solid edge-thickness-normal edge-pattern-solid flowchart-link" style=";" data-edge="true" data-et="edge" data-id="L_I_J_0" data-points="W3sieCI6NTc4Ljk3NjE2OTU4NjE4MTYsInkiOjgyNS4zNjI0OTU0MjIzNjMzfSx7IngiOjU3OC45NzYxNjk1ODYxODE2LCJ5Ijo4NTAuMzYyNDk1NDIyMzYzM30seyJ4Ijo1NzguOTc2MTY5NTg2MTgxNCwieSI6ODc1LjM2MjQ5NTQyMjM2MjV9XQ==" data-look="classic" marker-end="url(#my-svg_flowchart-v2-pointEnd)"/><path d="M603.226,1005.541L607.785,1015.499C612.344,1025.458,621.463,1045.374,626.022,1060.582C630.582,1075.791,630.582,1086.291,630.582,1091.541L630.582,1096.791" id="my-svg-L_J_K_0" class="edge-thickness-normal edge-pattern-solid edge-thickness-normal edge-pattern-solid flowchart-link" style=";" data-edge="true" data-et="edge" data-id="L_J_K_0" data-points="W3sieCI6NjAzLjIyNTY3NzQ0MzYyNzgsInkiOjEwMDUuNTQxMTAzNDA5NjQ0fSx7IngiOjYzMC41ODE2MzgzMzYxODE2LCJ5IjoxMDY1LjI5MDYxMTI2NzA4OTh9LHsieCI6NjMwLjU4MTYzODMzNjE4MTYsInkiOjExMDAuNzkwNjExMjY3MDg5OH1d" data-look="classic" marker-end="url(#my-svg_flowchart-v2-pointEnd)"/><path d="M536.791,987.606L521.199,1000.553C505.607,1013.501,474.422,1039.396,448.25,1057.948C422.077,1076.5,400.917,1087.709,390.337,1093.314L379.756,1098.918" id="my-svg-L_J_E_0" class="edge-thickness-normal edge-pattern-solid edge-thickness-normal edge-pattern-solid flowchart-link" style=";" data-edge="true" data-et="edge" data-id="L_J_E_0" data-points="W3sieCI6NTM2Ljc5MTQwNDcxMDgyMTIsInkiOjk4Ny42MDU4NDYzOTE3MjkxfSx7IngiOjQ0My4yMzc4ODgzMzYxODE2NCwieSI6MTA2NS4yOTA2MTEyNjcwODk4fSx7IngiOjM3Ni4yMjE1MzQ5NTk1MDIxNSwieSI6MTEwMC43OTA2MTEyNjcwODk4fV0=" data-look="classic" marker-end="url(#my-svg_flowchart-v2-pointEnd)"/></g><g class="edgeLabels"><g class="edgeLabel"><g class="label" data-id="L_A_B_0" transform="translate(0, 0)"><text y="-10.1" text-anchor="middle"><tspan class="text-outer-tspan row" x="0" y="-0.1em" dy="1.1em" text-anchor="middle"/></text></g></g><g><rect class="background" style="stroke: none"/></g><g class="edgeLabel"><g class="label" data-id="L_B_C_0" transform="translate(0, 0)"><text y="-10.1" text-anchor="middle"><tspan class="text-outer-tspan row" x="0" y="-0.1em" dy="1.1em" text-anchor="middle"/></text></g></g><g><rect class="background" style="stroke: none"/></g><g class="edgeLabel" transform="translate(268.421875, 612.5484390258789)"><g class="label" data-id="L_C_D_0" transform="translate(-0.05078125, -10.5)"><g><rect class="background" style="" x="-12.2265625" y="0" width="24.5546875" height="21"/><text y="-10.1" text-anchor="middle" style=""><tspan class="text-outer-tspan row" x="0" y="-0.1em" dy="1.1em" text-anchor="middle"><tspan font-style="normal" class="text-inner-tspan" font-weight="normal">No</tspan></tspan></text></g></g></g><g class="edgeLabel"><g class="label" data-id="L_D_E_0" transform="translate(0, 0)"><text y="-10.1" text-anchor="middle"><tspan class="text-outer-tspan row" x="0" y="-0.1em" dy="1.1em" text-anchor="middle"/></text></g></g><g><rect class="background" style="stroke: none"/></g><g class="edgeLabel" transform="translate(120.7109375, 402.8343811035156)"><g class="label" data-id="L_C_F_0" transform="translate(0, -10.5)"><g><rect class="background" style="" x="-9.5625" y="0" width="19.125" height="21"/><text y="-10.1" text-anchor="middle" style=""><tspan class="text-outer-tspan row" x="0" y="-0.1em" dy="1.1em" text-anchor="middle"><tspan font-style="normal" class="text-inner-tspan" font-weight="normal">Sì</tspan></tspan></text></g></g></g><g class="edgeLabel"><g class="label" data-id="L_F_G_0" transform="translate(0, 0)"><text y="-10.1" text-anchor="middle"><tspan class="text-outer-tspan row" x="0" y="-0.1em" dy="1.1em" text-anchor="middle"/></text></g></g><g><rect class="background" style="stroke: none"/></g><g class="edgeLabel" transform="translate(120.7109375, 725.2624969482422)"><g class="label" data-id="L_G_H_0" transform="translate(0, -10.5)"><g><rect class="background" style="" x="-9.5625" y="0" width="19.125" height="21"/><text y="-10.1" text-anchor="middle" style=""><tspan class="text-outer-tspan row" x="0" y="-0.1em" dy="1.1em" text-anchor="middle"><tspan font-style="normal" class="text-inner-tspan" font-weight="normal">Sì</tspan></tspan></text></g></g></g><g class="edgeLabel" transform="translate(578.9761695861816, 725.2624969482422)"><g class="label" data-id="L_G_I_0" transform="translate(-0.046875, -10.5)"><g><rect class="background" style="" x="-73.6015625" y="0" width="147.296875" height="21"/><text y="-10.1" text-anchor="middle" style=""><tspan class="text-outer-tspan row" x="0" y="-0.1em" dy="1.1em" text-anchor="middle"><tspan font-style="normal" class="text-inner-tspan" font-weight="normal">No</tspan><tspan font-style="normal" class="text-inner-tspan" font-weight="normal"> /</tspan><tspan font-style="normal" class="text-inner-tspan" font-weight="normal"> Non</tspan><tspan font-style="normal" class="text-inner-tspan" font-weight="normal"> disponibile</tspan></tspan></text></g></g></g><g class="edgeLabel"><g class="label" data-id="L_I_J_0" transform="translate(0, 0)"><text y="-10.1" text-anchor="middle"><tspan class="text-outer-tspan row" x="0" y="-0.1em" dy="1.1em" text-anchor="middle"/></text></g></g><g><rect class="background" style="stroke: none"/></g><g class="edgeLabel" transform="translate(630.5816383361816, 1065.2906112670898)"><g class="label" data-id="L_J_K_0" transform="translate(0, -10.5)"><g><rect class="background" style="" x="-9.5625" y="0" width="19.125" height="21"/><text y="-10.1" text-anchor="middle" style=""><tspan class="text-outer-tspan row" x="0" y="-0.1em" dy="1.1em" text-anchor="middle"><tspan font-style="normal" class="text-inner-tspan" font-weight="normal">Sì</tspan></tspan></text></g></g></g><g class="edgeLabel" transform="translate(460.84201, 1050.67254)"><g class="label" data-id="L_J_E_0" transform="translate(-0.046875, -10.5)"><g><rect class="background" style="" x="-73.6015625" y="0" width="147.296875" height="21"/><text y="-10.1" text-anchor="middle" style=""><tspan class="text-outer-tspan row" x="0" y="-0.1em" dy="1.1em" text-anchor="middle"><tspan font-style="normal" class="text-inner-tspan" font-weight="normal">No</tspan><tspan font-style="normal" class="text-inner-tspan" font-weight="normal"> /</tspan><tspan font-style="normal" class="text-inner-tspan" font-weight="normal"> Non</tspan><tspan font-style="normal" class="text-inner-tspan" font-weight="normal"> disponibile</tspan></tspan></text></g></g></g></g><g class="nodes"><g class="node default" id="my-svg-flowchart-A-0" data-look="classic" transform="translate(194.56640625, 24)"><g class="basic label-container outer-path"><path d="M-42.234375 -16 C-12.999392253704933 -16, 16.235590492590134 -16, 42.234375 -16 C42.234375 -16, 42.234375 -16, 42.234375 -16 C42.51903399344941 -15.990871540135196, 42.803692986898824 -15.981743080270391, 43.259498519691405 -15.967126284005381 C43.51247531108747 -15.942721917188509, 43.76545210248353 -15.918317550371635, 44.280409586952096 -15.868640221171939 C44.49938399893384 -15.833238136414659, 44.71835841091558 -15.797836051657377, 45.29291305922195 -15.704946511857047 C45.67065249807514 -15.61872994991901, 46.04839193692833 -15.532513387980972, 46.29284834255211 -15.476717808624471 C46.53939342713827 -15.403544521660857, 46.78593851172443 -15.330371234697244, 47.276106488377934 -15.184891952170698 C47.597340604486874 -15.06667482798699, 47.91857472059582 -14.94845770380328, 48.23864707806999 -14.830668117536348 C48.57270080570367 -14.682792441664667, 48.906754533337356 -14.534916765792985, 49.17651482588093 -14.415501886438706 C49.49495706775254 -14.249370772826278, 49.813399309624145 -14.083239659213852, 50.085855832063004 -13.941099265974232 C50.39844638670181 -13.751605034766184, 50.71103694134062 -13.562110803558134, 50.96293341936878 -13.409409678269451 C51.20899376149522 -13.237768635382578, 51.45505410362167 -13.066127592495704, 51.804143487859456 -12.822617949887306 C52.10684827298961 -12.581218939058642, 52.40955305811976 -12.33981992822998, 52.60602932492461 -12.183135333906153 C52.83618568508042 -11.97411341721624, 53.066342045236226 -11.765091500526324, 53.365295809655784 -11.493589601563642 C53.58082559891267 -11.271037398831124, 53.79635538816955 -11.048485196098605, 54.07882295320505 -10.756814244181072 C54.23011072859076 -10.579103014694725, 54.38139850397648 -10.401391785208377, 54.74367871948848 -9.975836829739738 C54.973402793622874 -9.668027498693338, 55.20312686775726 -9.360218167646938, 55.35713107355129 -9.153866561954718 C55.5281292283572 -8.891167476738943, 55.699127383163116 -8.628468391523166, 55.916659208085534 -8.294281092968403 C56.04645570666079 -8.063814266427356, 56.17625220523603 -7.833347439886308, 56.419963901968 -7.400612643853364 C56.51460064084803 -7.204097430667158, 56.60923737972806 -7.007582217480951, 56.864976968252996 -6.476533489958305 C57.009625926228594 -6.119247767161222, 57.1542748842042 -5.7619620443641395, 57.249869752796165 -5.52584087074093 C57.31938351354793 -5.316476498870289, 57.38889727429971 -5.107112126999648, 57.57306064858657 -4.552441386096524 C57.6452783709822 -4.277043911243109, 57.71749609337783 -4.001646436389695, 57.833221594909176 -3.560334943301032 C57.8968239987008 -3.23375004220385, 57.96042640249242 -2.9071651411066677, 58.029283534631205 -2.5535983205340735 C58.073753530517294 -2.208697814035527, 58.118223526403376 -1.8637973075369803, 58.16044080718717 -1.536368414522911 C58.178464595103435 -1.255633369187305, 58.196488383019705 -0.974898323851699, 58.226154459211 -0.5128252411464826 C58.226154459211 -0.1834547141951356, 58.226154459211 0.14591581275621146, 58.226154459211 0.5128252411464788 C58.20600331991101 0.8266955014507693, 58.185852180611015 1.14056576175506, 58.16044080718717 1.5363684145229002 C58.1188476817398 1.85895648200109, 58.07725455629243 2.18154454947928, 58.029283534631205 2.5535983205340624 C57.97648464161861 2.824709477103727, 57.92368574860602 3.0958206336733913, 57.833221594909176 3.5603349433010285 C57.74145505889489 3.910280516991781, 57.64968852288061 4.260226090682534, 57.57306064858657 4.552441386096513 C57.46719857953129 4.871281071260868, 57.361336510476015 5.190120756425222, 57.249869752796165 5.525840870740919 C57.164096448375616 5.737702590973714, 57.07832314395506 5.949564311206509, 56.864976968253 6.4765334899583005 C56.71253368014808 6.793085239472024, 56.56009039204314 7.109636988985748, 56.419963901968 7.400612643853361 C56.27030632654425 7.666344823491039, 56.1206487511205 7.932077003128718, 55.91665920808554 8.294281092968399 C55.76008869911799 8.534815439811078, 55.603518190150446 8.775349786653756, 55.3571310735513 9.15386656195471 C55.151323849644015 9.429629492566658, 54.94551662573674 9.705392423178605, 54.74367871948848 9.975836829739734 C54.508993017355465 10.251512009459924, 54.27430731522245 10.527187189180115, 54.078822953205055 10.756814244181063 C53.86312023312961 10.979545012181632, 53.647417513054165 11.202275780182198, 53.365295809655784 11.493589601563638 C53.1091952823664 11.726173324399221, 52.85309475507702 11.958757047234805, 52.60602932492463 12.183135333906142 C52.33205288095724 12.401624257150765, 52.05807643698985 12.62011318039539, 51.80414348785946 12.822617949887304 C51.574274504420266 12.982964601866575, 51.34440552098106 13.143311253845848, 50.96293341936879 13.409409678269446 C50.70380969589621 13.566492002218547, 50.444685972423635 13.723574326167649, 50.085855832063004 13.94109926597423 C49.751906514206375 14.115320411195286, 49.41795719634975 14.28954155641634, 49.17651482588093 14.415501886438705 C48.87355843143912 14.549611695375958, 48.570602036997315 14.68372150431321, 48.238647078069995 14.830668117536346 C47.927555659940474 14.945152635105556, 47.616464241810945 15.059637152674766, 47.27610648837794 15.184891952170695 C46.929469950356044 15.287771857123278, 46.58283341233414 15.39065176207586, 46.29284834255213 15.476717808624468 C45.96357063904504 15.551873295712138, 45.63429293553794 15.627028782799806, 45.29291305922196 15.704946511857045 C44.95383728195202 15.759765653954123, 44.614761504682086 15.814584796051202, 44.2804095869521 15.868640221171937 C43.8926804420627 15.906043985466898, 43.50495129717329 15.943447749761857, 43.259498519691405 15.967126284005381 C42.9108057765132 15.978308181589854, 42.562113033335 15.98949007917433, 42.234375 16 C42.234375 16, 42.234375 16, 42.234375 16 C24.58544868604958 16, 6.936522372099162 16, -42.234375 16 C-42.54214448311083 15.990130431713593, -42.84991396622167 15.980260863427185, -43.2594985196914 15.967126284005381 C-43.56901679177274 15.937267428547878, -43.87853506385407 15.907408573090377, -44.280409586952096 15.868640221171937 C-44.63566800900725 15.81120479456427, -44.9909264310624 15.753769367956604, -45.29291305922196 15.704946511857045 C-45.588317315996306 15.637522417941227, -45.88372157277065 15.57009832402541, -46.29284834255211 15.476717808624471 C-46.52914166082424 15.406587192090242, -46.76543497909636 15.336456575556015, -47.27610648837792 15.184891952170702 C-47.56641677825477 15.07805508189712, -47.85672706813162 14.971218211623537, -48.23864707806999 14.830668117536348 C-48.43061597471085 14.745689181548432, -48.6225848713517 14.660710245560516, -49.17651482588093 14.415501886438708 C-49.38307424595068 14.307739969295941, -49.58963366602043 14.199978052153172, -50.085855832063 13.941099265974234 C-50.427168759119006 13.734193363815484, -50.768481686175015 13.527287461656735, -50.96293341936877 13.409409678269457 C-51.16830390355536 13.266152118845861, -51.37367438774196 13.122894559422265, -51.804143487859456 12.822617949887308 C-52.12262921512384 12.568634057655107, -52.44111494238821 12.314650165422906, -52.60602932492461 12.183135333906154 C-52.891586360753955 11.923799989391087, -53.1771433965833 11.664464644876022, -53.36529580965578 11.493589601563649 C-53.64830725250956 11.201357051145534, -53.931318695363345 10.909124500727419, -54.07882295320505 10.756814244181069 C-54.27473232247383 10.526687951479047, -54.470641691742614 10.296561658777026, -54.74367871948847 9.97583682973974 C-54.88536644198746 9.785988189608156, -55.02705416448645 9.596139549476574, -55.35713107355129 9.15386656195472 C-55.493762385864564 8.943964175596996, -55.63039369817784 8.734061789239274, -55.916659208085534 8.29428109296841 C-56.0333842348041 8.087023988338947, -56.15010926152268 7.879766883709483, -56.419963901968 7.400612643853366 C-56.526777712721625 7.178811480374045, -56.63359152347524 6.957010316894723, -56.864976968252996 6.476533489958307 C-56.98989279431963 6.167988984490528, -57.11480862038626 5.859444479022749, -57.249869752796165 5.525840870740931 C-57.37427346051438 5.151156724132735, -57.4986771682326 4.776472577524539, -57.57306064858657 4.552441386096519 C-57.64885547809719 4.263402851485607, -57.72465030760782 3.974364316874694, -57.833221594909176 3.5603349433010343 C-57.87764225187231 3.3322442581045215, -57.92206290883544 3.104153572908009, -58.029283534631205 2.5535983205340753 C-58.06266887342595 2.294668225522844, -58.0960542122207 2.0357381305116125, -58.16044080718717 1.5363684145229202 C-58.1851325485316 1.1517746122685744, -58.209824289876025 0.7671808100142284, -58.226154459211 0.5128252411464846 C-58.226154459211 0.24439961831394102, -58.226154459211 -0.024026004518602595, -58.226154459211 -0.5128252411464769 C-58.20425035715275 -0.8539993113766484, -58.18234625509451 -1.19517338160682, -58.16044080718717 -1.5363684145228982 C-58.116753817600845 -1.8751960787826119, -58.07306682801451 -2.2140237430423255, -58.029283534631205 -2.5535983205340678 C-57.96393566274769 -2.8891458313782916, -57.89858779086418 -3.2246933422225155, -57.833221594909176 -3.5603349433010267 C-57.740445962918834 -3.9141286372934636, -57.64767033092849 -4.2679223312859005, -57.573060648586576 -4.552441386096511 C-57.46738242545743 -4.870727356623234, -57.361704202328276 -5.189013327149957, -57.24986975279617 -5.525840870740911 C-57.12436592339536 -5.835837755812388, -56.998862093994546 -6.145834640883866, -56.864976968253 -6.476533489958299 C-56.71656755500116 -6.784708812028496, -56.568158141749315 -7.092884134098695, -56.419963901968 -7.400612643853359 C-56.271356199113285 -7.664480668433588, -56.122748496258566 -7.928348693013818, -55.916659208085534 -8.294281092968404 C-55.785419295286815 -8.495900841878292, -55.65417938248809 -8.697520590788182, -55.357131073551294 -9.153866561954715 C-55.19386870552104 -9.372623261607545, -55.030606337490795 -9.591379961260376, -54.74367871948848 -9.975836829739734 C-54.52096691874657 -10.237446783551638, -54.29825511800467 -10.499056737363542, -54.078822953205055 -10.756814244181063 C-53.89342015925162 -10.948257850790455, -53.70801736529819 -11.139701457399847, -53.36529580965579 -11.493589601563633 C-53.14686687613237 -11.691960979676717, -52.92843794260896 -11.8903323577898, -52.60602932492463 -12.18313533390614 C-52.30583687900337 -12.42253082107186, -52.005644433082125 -12.661926308237579, -51.80414348785946 -12.822617949887302 C-51.494203800387545 -13.038818458794886, -51.184264112915635 -13.255018967702467, -50.96293341936879 -13.409409678269444 C-50.62749416801488 -13.612754923700033, -50.292054916660966 -13.816100169130621, -50.085855832063004 -13.941099265974229 C-49.89521722850264 -14.040555303341819, -49.70457862494227 -14.140011340709409, -49.176514825880936 -14.415501886438705 C-48.80229205737381 -14.581159205132797, -48.42806928886668 -14.746816523826892, -48.238647078069995 -14.830668117536344 C-47.93978876233946 -14.940650740341168, -47.64093044660893 -15.050633363145991, -47.27610648837794 -15.184891952170695 C-46.93440564574305 -15.286306968640407, -46.592704803108155 -15.387721985110119, -46.29284834255213 -15.476717808624466 C-45.972490165293046 -15.549837472051376, -45.65213198803396 -15.622957135478286, -45.292913059221966 -15.704946511857043 C-45.041105339491 -15.745656831185114, -44.789297619760035 -15.786367150513186, -44.2804095869521 -15.868640221171937 C-43.92442904919915 -15.90298123551973, -43.56844851144619 -15.937322249867524, -43.259498519691405 -15.967126284005381 C-42.85332830080668 -15.980151372362645, -42.44715808192195 -15.993176460719907, -42.23437500000001 -16 C-42.23437500000001 -16, -42.234375 -16, -42.234375 -16" stroke="none" stroke-width="0" fill="#eee" style=""/><path d="M-42.234375 -16 C-14.5927592485695 -16, 13.048856502861 -16, 42.234375 -16 M-42.234375 -16 C-14.111269390150028 -16, 14.011836219699944 -16, 42.234375 -16 M42.234375 -16 C42.234375 -16, 42.234375 -16, 42.234375 -16 M42.234375 -16 C42.234375 -16, 42.234375 -16, 42.234375 -16 M42.234375 -16 C42.45955230600267 -15.992779002077532, 42.68472961200535 -15.985558004155063, 43.259498519691405 -15.967126284005381 M42.234375 -16 C42.53076561808501 -15.990495329767354, 42.82715623617002 -15.980990659534708, 43.259498519691405 -15.967126284005381 M43.259498519691405 -15.967126284005381 C43.56910790868517 -15.937258638608922, 43.87871729767893 -15.907390993212461, 44.280409586952096 -15.868640221171939 M43.259498519691405 -15.967126284005381 C43.585164951056996 -15.93570963504273, 43.910831382422586 -15.90429298608008, 44.280409586952096 -15.868640221171939 M44.280409586952096 -15.868640221171939 C44.54715519509945 -15.825514859889761, 44.813900803246796 -15.782389498607584, 45.29291305922195 -15.704946511857047 M44.280409586952096 -15.868640221171939 C44.53377049467208 -15.827678794454956, 44.78713140239208 -15.786717367737971, 45.29291305922195 -15.704946511857047 M45.29291305922195 -15.704946511857047 C45.65446139592694 -15.622425463327522, 46.016009732631915 -15.539904414797997, 46.29284834255211 -15.476717808624471 M45.29291305922195 -15.704946511857047 C45.59738193884561 -15.635453476928067, 45.90185081846926 -15.565960441999087, 46.29284834255211 -15.476717808624471 M46.29284834255211 -15.476717808624471 C46.51635697814261 -15.41038161880198, 46.739865613733116 -15.34404542897949, 47.276106488377934 -15.184891952170698 M46.29284834255211 -15.476717808624471 C46.57955266409547 -15.391625470932096, 46.86625698563883 -15.306533133239723, 47.276106488377934 -15.184891952170698 M47.276106488377934 -15.184891952170698 C47.510826001370795 -15.098513001665934, 47.74554551436365 -15.01213405116117, 48.23864707806999 -14.830668117536348 M47.276106488377934 -15.184891952170698 C47.63231206781285 -15.05380500621037, 47.98851764724776 -14.92271806025004, 48.23864707806999 -14.830668117536348 M48.23864707806999 -14.830668117536348 C48.522780210864376 -14.704890808158193, 48.806913343658756 -14.579113498780037, 49.17651482588093 -14.415501886438706 M48.23864707806999 -14.830668117536348 C48.61051139278333 -14.666054816375715, 48.98237570749668 -14.501441515215083, 49.17651482588093 -14.415501886438706 M49.17651482588093 -14.415501886438706 C49.47058453533466 -14.262085907377335, 49.76465424478838 -14.108669928315965, 50.085855832063004 -13.941099265974232 M49.17651482588093 -14.415501886438706 C49.44516444949176 -14.275347549879232, 49.7138140731026 -14.135193213319758, 50.085855832063004 -13.941099265974232 M50.085855832063004 -13.941099265974232 C50.429128409805145 -13.733005412053362, 50.772400987547286 -13.524911558132494, 50.96293341936878 -13.409409678269451 M50.085855832063004 -13.941099265974232 C50.41767329339758 -13.739949570937366, 50.74949075473216 -13.538799875900498, 50.96293341936878 -13.409409678269451 M50.96293341936878 -13.409409678269451 C51.17228811100045 -13.263372908205731, 51.38164280263212 -13.117336138142011, 51.804143487859456 -12.822617949887306 M50.96293341936878 -13.409409678269451 C51.21622708970451 -13.23272297874951, 51.46952076004024 -13.05603627922957, 51.804143487859456 -12.822617949887306 M51.804143487859456 -12.822617949887306 C52.029569346775844 -12.64284682623553, 52.254995205692225 -12.463075702583755, 52.60602932492461 -12.183135333906153 M51.804143487859456 -12.822617949887306 C51.997284456016914 -12.668593167478749, 52.19042542417437 -12.514568385070191, 52.60602932492461 -12.183135333906153 M52.60602932492461 -12.183135333906153 C52.88383252609651 -11.930841816871755, 53.16163572726841 -11.678548299837356, 53.365295809655784 -11.493589601563642 M52.60602932492461 -12.183135333906153 C52.837535097836806 -11.972887916254392, 53.069040870749006 -11.76264049860263, 53.365295809655784 -11.493589601563642 M53.365295809655784 -11.493589601563642 C53.63563095790014 -11.214446366072902, 53.9059661061445 -10.935303130582163, 54.07882295320505 -10.756814244181072 M53.365295809655784 -11.493589601563642 C53.58620359675065 -11.265484174521571, 53.80711138384552 -11.037378747479499, 54.07882295320505 -10.756814244181072 M54.07882295320505 -10.756814244181072 C54.264662443435014 -10.538516604390393, 54.45050193366498 -10.320218964599714, 54.74367871948848 -9.975836829739738 M54.07882295320505 -10.756814244181072 C54.25475461394939 -10.550154904675683, 54.43068627469372 -10.343495565170295, 54.74367871948848 -9.975836829739738 M54.74367871948848 -9.975836829739738 C54.93919901488358 -9.713857446175643, 55.13471931027868 -9.451878062611549, 55.35713107355129 -9.153866561954718 M54.74367871948848 -9.975836829739738 C54.982482743983056 -9.655861192411184, 55.22128676847763 -9.335885555082628, 55.35713107355129 -9.153866561954718 M55.35713107355129 -9.153866561954718 C55.513454784972936 -8.913711362416961, 55.669778496394585 -8.673556162879207, 55.916659208085534 -8.294281092968403 M55.35713107355129 -9.153866561954718 C55.49169525385594 -8.94713984546491, 55.62625943416059 -8.740413128975103, 55.916659208085534 -8.294281092968403 M55.916659208085534 -8.294281092968403 C56.08127581018661 -8.001987646699435, 56.24589241228768 -7.7096942004304685, 56.419963901968 -7.400612643853364 M55.916659208085534 -8.294281092968403 C56.09395726268793 -7.979470443647029, 56.271255317290326 -7.664659794325656, 56.419963901968 -7.400612643853364 M56.419963901968 -7.400612643853364 C56.58670228464747 -7.054376824589573, 56.75344066732695 -6.708141005325782, 56.864976968252996 -6.476533489958305 M56.419963901968 -7.400612643853364 C56.527060893815126 -7.178223448774275, 56.634157885662255 -6.955834253695185, 56.864976968252996 -6.476533489958305 M56.864976968252996 -6.476533489958305 C56.959259041460534 -6.243654946315816, 57.053541114668064 -6.0107764026733275, 57.249869752796165 -5.52584087074093 M56.864976968252996 -6.476533489958305 C56.95773776759383 -6.247412522178412, 57.05049856693465 -6.01829155439852, 57.249869752796165 -5.52584087074093 M57.249869752796165 -5.52584087074093 C57.36113079839551 -5.190740328435947, 57.47239184399485 -4.855639786130963, 57.57306064858657 -4.552441386096524 M57.249869752796165 -5.52584087074093 C57.33384333141429 -5.272925831315932, 57.417816910032414 -5.020010791890934, 57.57306064858657 -4.552441386096524 M57.57306064858657 -4.552441386096524 C57.64444190414221 -4.280233721830989, 57.71582315969786 -4.008026057565454, 57.833221594909176 -3.560334943301032 M57.57306064858657 -4.552441386096524 C57.66783901246269 -4.191010407434115, 57.76261737633882 -3.8295794287717078, 57.833221594909176 -3.560334943301032 M57.833221594909176 -3.560334943301032 C57.873732629585106 -3.352319342250352, 57.914243664261036 -3.144303741199672, 58.029283534631205 -2.5535983205340735 M57.833221594909176 -3.560334943301032 C57.892172194389126 -3.2576360741851076, 57.951122793869075 -2.954937205069183, 58.029283534631205 -2.5535983205340735 M58.029283534631205 -2.5535983205340735 C58.07919733648973 -2.1664767299143817, 58.12911113834825 -1.7793551392946898, 58.16044080718717 -1.536368414522911 M58.029283534631205 -2.5535983205340735 C58.066207389803935 -2.267224191254261, 58.10313124497667 -1.9808500619744485, 58.16044080718717 -1.536368414522911 M58.16044080718717 -1.536368414522911 C58.18295126864473 -1.1857498072040198, 58.20546173010228 -0.8351311998851286, 58.226154459211 -0.5128252411464826 M58.16044080718717 -1.536368414522911 C58.18547310575416 -1.1464701586343184, 58.21050540432115 -0.7565719027457258, 58.226154459211 -0.5128252411464826 M58.226154459211 -0.5128252411464826 C58.226154459211 -0.29791401804918916, 58.226154459211 -0.08300279495189566, 58.226154459211 0.5128252411464788 M58.226154459211 -0.5128252411464826 C58.226154459211 -0.13792278865538993, 58.226154459211 0.2369796638357028, 58.226154459211 0.5128252411464788 M58.226154459211 0.5128252411464788 C58.20597570224454 0.8271256688987128, 58.185796945278064 1.1414260966509466, 58.16044080718717 1.5363684145229002 M58.226154459211 0.5128252411464788 C58.208643463256855 0.7855731377538913, 58.19113246730271 1.0583210343613039, 58.16044080718717 1.5363684145229002 M58.16044080718717 1.5363684145229002 C58.11276265324774 1.9061507613606872, 58.06508449930832 2.2759331081984744, 58.029283534631205 2.5535983205340624 M58.16044080718717 1.5363684145229002 C58.132980861051536 1.749342334171181, 58.10552091491591 1.9623162538194614, 58.029283534631205 2.5535983205340624 M58.029283534631205 2.5535983205340624 C57.95791259049851 2.9200730344010775, 57.88654164636581 3.286547748268092, 57.833221594909176 3.5603349433010285 M58.029283534631205 2.5535983205340624 C57.96704007977589 2.8732053060572573, 57.90479662492057 3.1928122915804527, 57.833221594909176 3.5603349433010285 M57.833221594909176 3.5603349433010285 C57.747885186415274 3.885759653921677, 57.66254877792137 4.2111843645423255, 57.57306064858657 4.552441386096513 M57.833221594909176 3.5603349433010285 C57.77200205172406 3.7937915941837375, 57.71078250853894 4.027248245066447, 57.57306064858657 4.552441386096513 M57.57306064858657 4.552441386096513 C57.50120523307161 4.768858449021866, 57.42934981755665 4.985275511947218, 57.249869752796165 5.525840870740919 M57.57306064858657 4.552441386096513 C57.459791018958896 4.893591463470433, 57.346521389331215 5.234741540844353, 57.249869752796165 5.525840870740919 M57.249869752796165 5.525840870740919 C57.13762851018075 5.803078910037806, 57.02538726756533 6.080316949334693, 56.864976968253 6.4765334899583005 M57.249869752796165 5.525840870740919 C57.15798384498042 5.752800839538991, 57.06609793716467 5.979760808337062, 56.864976968253 6.4765334899583005 M56.864976968253 6.4765334899583005 C56.76717932973388 6.6796123788775095, 56.66938169121475 6.882691267796718, 56.419963901968 7.400612643853361 M56.864976968253 6.4765334899583005 C56.70838577322956 6.801698456939309, 56.55179457820612 7.126863423920318, 56.419963901968 7.400612643853361 M56.419963901968 7.400612643853361 C56.30805063497846 7.599325981840435, 56.196137367988904 7.7980393198275095, 55.91665920808554 8.294281092968399 M56.419963901968 7.400612643853361 C56.233323693227156 7.732011233843248, 56.04668348448631 8.063409823833135, 55.91665920808554 8.294281092968399 M55.91665920808554 8.294281092968399 C55.76057295537143 8.534071492164786, 55.60448670265732 8.773861891361173, 55.3571310735513 9.15386656195471 M55.91665920808554 8.294281092968399 C55.69819019182209 8.629908169094094, 55.47972117555865 8.965535245219789, 55.3571310735513 9.15386656195471 M55.3571310735513 9.15386656195471 C55.19674844158856 9.36876467762643, 55.03636580962582 9.583662793298151, 54.74367871948848 9.975836829739734 M55.3571310735513 9.15386656195471 C55.22969287443348 9.324622138913808, 55.10225467531566 9.495377715872907, 54.74367871948848 9.975836829739734 M54.74367871948848 9.975836829739734 C54.59853289314138 10.146333376398522, 54.453387066794285 10.31682992305731, 54.078822953205055 10.756814244181063 M54.74367871948848 9.975836829739734 C54.52473174763747 10.233024401311562, 54.30578477578646 10.490211972883388, 54.078822953205055 10.756814244181063 M54.078822953205055 10.756814244181063 C53.85594009420738 10.986959095119204, 53.6330572352097 11.217103946057343, 53.365295809655784 11.493589601563638 M54.078822953205055 10.756814244181063 C53.843083408269415 11.000234678903698, 53.607343863333774 11.243655113626332, 53.365295809655784 11.493589601563638 M53.365295809655784 11.493589601563638 C53.158922718726075 11.681012182413232, 52.952549627796365 11.868434763262826, 52.60602932492463 12.183135333906142 M53.365295809655784 11.493589601563638 C53.19682214852042 11.646592923037973, 53.028348487385045 11.79959624451231, 52.60602932492463 12.183135333906142 M52.60602932492463 12.183135333906142 C52.38284772473811 12.36111672094308, 52.1596661245516 12.53909810798002, 51.80414348785946 12.822617949887304 M52.60602932492463 12.183135333906142 C52.31175143183469 12.417814122581747, 52.01747353874475 12.652492911257355, 51.80414348785946 12.822617949887304 M51.80414348785946 12.822617949887304 C51.54476143217813 13.003551643462385, 51.285379376496785 13.184485337037469, 50.96293341936879 13.409409678269446 M51.80414348785946 12.822617949887304 C51.485910056082545 13.044603815791653, 51.16767662430562 13.266589681696003, 50.96293341936879 13.409409678269446 M50.96293341936879 13.409409678269446 C50.76862481016684 13.5272006990518, 50.574316200964894 13.644991719834154, 50.085855832063004 13.94109926597423 M50.96293341936879 13.409409678269446 C50.770982120084874 13.525771683926397, 50.579030820800966 13.64213368958335, 50.085855832063004 13.94109926597423 M50.085855832063004 13.94109926597423 C49.805873112391126 14.087166071489557, 49.52589039271925 14.233232877004884, 49.17651482588093 14.415501886438705 M50.085855832063004 13.94109926597423 C49.734133944136566 14.12459234961683, 49.382412056210136 14.308085433259428, 49.17651482588093 14.415501886438705 M49.17651482588093 14.415501886438705 C48.91199408426268 14.532597372024098, 48.64747334264444 14.649692857609491, 48.238647078069995 14.830668117536346 M49.17651482588093 14.415501886438705 C48.93935370801923 14.520486078181474, 48.702192590157544 14.625470269924243, 48.238647078069995 14.830668117536346 M48.238647078069995 14.830668117536346 C47.86923030673444 14.96661690423903, 47.49981353539888 15.102565690941717, 47.27610648837794 15.184891952170695 M48.238647078069995 14.830668117536346 C48.02511147560804 14.909251193143817, 47.81157587314609 14.987834268751286, 47.27610648837794 15.184891952170695 M47.27610648837794 15.184891952170695 C47.001237982932274 15.266471481772742, 46.72636947748661 15.348051011374789, 46.29284834255213 15.476717808624468 M47.27610648837794 15.184891952170695 C47.07768781661229 15.243781572429878, 46.87926914484664 15.302671192689063, 46.29284834255213 15.476717808624468 M46.29284834255213 15.476717808624468 C46.07533623747755 15.526363527208606, 45.85782413240297 15.576009245792743, 45.29291305922196 15.704946511857045 M46.29284834255213 15.476717808624468 C45.96874300045894 15.550692737972225, 45.644637658365745 15.624667667319985, 45.29291305922196 15.704946511857045 M45.29291305922196 15.704946511857045 C45.02300804416095 15.748582661547456, 44.75310302909994 15.792218811237868, 44.2804095869521 15.868640221171937 M45.29291305922196 15.704946511857045 C44.994134431291926 15.753250723357908, 44.6953558033619 15.80155493485877, 44.2804095869521 15.868640221171937 M44.2804095869521 15.868640221171937 C43.89682927975776 15.905643752084162, 43.51324897256342 15.942647282996386, 43.259498519691405 15.967126284005381 M44.2804095869521 15.868640221171937 C43.99151018499501 15.896509999026373, 43.70261078303791 15.924379776880809, 43.259498519691405 15.967126284005381 M43.259498519691405 15.967126284005381 C42.95547074601161 15.976875862953131, 42.65144297233183 15.986625441900879, 42.234375 16 M43.259498519691405 15.967126284005381 C42.85577344853495 15.980072961234189, 42.45204837737849 15.993019638462998, 42.234375 16 M42.234375 16 C42.234375 16, 42.234375 16, 42.234375 16 M42.234375 16 C42.234375 16, 42.234375 16, 42.234375 16 M42.234375 16 C19.552495477741846 16, -3.129384044516307 16, -42.234375 16 M42.234375 16 C17.436765898410425 16, -7.360843203179151 16, -42.234375 16 M-42.234375 16 C-42.45544790476101 15.99291062223662, -42.67652080952201 15.98582124447324, -43.2594985196914 15.967126284005381 M-42.234375 16 C-42.56593846233211 15.989367405112137, -42.89750192466422 15.978734810224275, -43.2594985196914 15.967126284005381 M-43.2594985196914 15.967126284005381 C-43.64255180623017 15.930173594141964, -44.02560509276894 15.893220904278547, -44.280409586952096 15.868640221171937 M-43.2594985196914 15.967126284005381 C-43.5735105442625 15.93683392164972, -43.887522568833596 15.906541559294059, -44.280409586952096 15.868640221171937 M-44.280409586952096 15.868640221171937 C-44.63601373231633 15.811148900700783, -44.99161787768056 15.753657580229628, -45.29291305922196 15.704946511857045 M-44.280409586952096 15.868640221171937 C-44.6376375693027 15.810886371329872, -44.99486555165329 15.753132521487805, -45.29291305922196 15.704946511857045 M-45.29291305922196 15.704946511857045 C-45.649096257983395 15.623650021052338, -46.00527945674483 15.542353530247631, -46.29284834255211 15.476717808624471 M-45.29291305922196 15.704946511857045 C-45.67385369074781 15.617999298581207, -46.054794322273665 15.531052085305367, -46.29284834255211 15.476717808624471 M-46.29284834255211 15.476717808624471 C-46.52909375427057 15.406601410503907, -46.76533916598902 15.33648501238334, -47.27610648837792 15.184891952170702 M-46.29284834255211 15.476717808624471 C-46.665552843312334 15.366101069164685, -47.038257344072555 15.255484329704899, -47.27610648837792 15.184891952170702 M-47.27610648837792 15.184891952170702 C-47.489661878719346 15.10630159444067, -47.703217269060765 15.027711236710639, -48.23864707806999 14.830668117536348 M-47.27610648837792 15.184891952170702 C-47.65250333118276 15.04637443464425, -48.02890017398759 14.907856917117797, -48.23864707806999 14.830668117536348 M-48.23864707806999 14.830668117536348 C-48.504057129339756 14.71317896094866, -48.76946718060953 14.595689804360973, -49.17651482588093 14.415501886438708 M-48.23864707806999 14.830668117536348 C-48.558135223027065 14.689240193042941, -48.87762336798414 14.547812268549535, -49.17651482588093 14.415501886438708 M-49.17651482588093 14.415501886438708 C-49.45542703110683 14.26999356762415, -49.73433923633272 14.124485248809592, -50.085855832063 13.941099265974234 M-49.17651482588093 14.415501886438708 C-49.36991973903619 14.314602667127367, -49.563324652191454 14.213703447816027, -50.085855832063 13.941099265974234 M-50.085855832063 13.941099265974234 C-50.34516803731874 13.783902683260534, -50.60448024257449 13.626706100546834, -50.96293341936877 13.409409678269457 M-50.085855832063 13.941099265974234 C-50.38676291542332 13.758687623714902, -50.68766999878365 13.57627598145557, -50.96293341936877 13.409409678269457 M-50.96293341936877 13.409409678269457 C-51.155494416501334 13.275087462500995, -51.3480554136339 13.140765246732533, -51.804143487859456 12.822617949887308 M-50.96293341936877 13.409409678269457 C-51.1939961976518 13.248230286685672, -51.42505897593484 13.087050895101886, -51.804143487859456 12.822617949887308 M-51.804143487859456 12.822617949887308 C-52.01840394780337 12.65175093479233, -52.232664407747286 12.480883919697353, -52.60602932492461 12.183135333906154 M-51.804143487859456 12.822617949887308 C-52.10386297683687 12.583599633298386, -52.40358246581429 12.344581316709464, -52.60602932492461 12.183135333906154 M-52.60602932492461 12.183135333906154 C-52.759015574657006 12.044197269693548, -52.91200182438941 11.905259205480942, -53.36529580965578 11.493589601563649 M-52.60602932492461 12.183135333906154 C-52.77177978854887 12.032605148359554, -52.937530252173126 11.882074962812954, -53.36529580965578 11.493589601563649 M-53.36529580965578 11.493589601563649 C-53.52911148099005 11.324436471394263, -53.69292715232433 11.155283341224877, -54.07882295320505 10.756814244181069 M-53.36529580965578 11.493589601563649 C-53.5635130337106 11.2889140437903, -53.761730257765414 11.084238486016948, -54.07882295320505 10.756814244181069 M-54.07882295320505 10.756814244181069 C-54.24589835834026 10.560557966449378, -54.41297376347547 10.364301688717688, -54.74367871948847 9.97583682973974 M-54.07882295320505 10.756814244181069 C-54.32265943867985 10.470390033653292, -54.566495924154644 10.183965823125515, -54.74367871948847 9.97583682973974 M-54.74367871948847 9.97583682973974 C-54.9049021441238 9.759812128484535, -55.066125568759134 9.543787427229333, -55.35713107355129 9.15386656195472 M-54.74367871948847 9.97583682973974 C-54.91223105112057 9.749992060786026, -55.08078338275267 9.524147291832314, -55.35713107355129 9.15386656195472 M-55.35713107355129 9.15386656195472 C-55.55730507008321 8.846345549037315, -55.75747906661513 8.53882453611991, -55.916659208085534 8.29428109296841 M-55.35713107355129 9.15386656195472 C-55.50781696895623 8.922372561784211, -55.65850286436116 8.690878561613703, -55.916659208085534 8.29428109296841 M-55.916659208085534 8.29428109296841 C-56.04352559916995 8.069016968982881, -56.17039199025438 7.843752844997353, -56.419963901968 7.400612643853366 M-55.916659208085534 8.29428109296841 C-56.088089722319765 7.989888855723598, -56.259520236553996 7.685496618478788, -56.419963901968 7.400612643853366 M-56.419963901968 7.400612643853366 C-56.57234039407957 7.084199597649064, -56.72471688619113 6.767786551444763, -56.864976968252996 6.476533489958307 M-56.419963901968 7.400612643853366 C-56.54280294075656 7.1455347514745435, -56.66564197954512 6.89045685909572, -56.864976968252996 6.476533489958307 M-56.864976968252996 6.476533489958307 C-57.00983319459244 6.118735810295269, -57.15468942093189 5.760938130632231, -57.249869752796165 5.525840870740931 M-56.864976968252996 6.476533489958307 C-56.953163881308335 6.2587101097336495, -57.04135079436367 6.040886729508992, -57.249869752796165 5.525840870740931 M-57.249869752796165 5.525840870740931 C-57.35074776040156 5.222012384561265, -57.45162576800696 4.9181838983815975, -57.57306064858657 4.552441386096519 M-57.249869752796165 5.525840870740931 C-57.35134660221911 5.220208768419308, -57.45282345164205 4.914576666097684, -57.57306064858657 4.552441386096519 M-57.57306064858657 4.552441386096519 C-57.62956075801172 4.33698198155609, -57.68606086743687 4.121522577015662, -57.833221594909176 3.5603349433010343 M-57.57306064858657 4.552441386096519 C-57.6343162839423 4.3188471001248185, -57.69557191929803 4.085252814153118, -57.833221594909176 3.5603349433010343 M-57.833221594909176 3.5603349433010343 C-57.90504024800958 3.191561338508203, -57.97685890110997 2.822787733715372, -58.029283534631205 2.5535983205340753 M-57.833221594909176 3.5603349433010343 C-57.90676496114914 3.182705301054759, -57.98030832738912 2.8050756588084833, -58.029283534631205 2.5535983205340753 M-58.029283534631205 2.5535983205340753 C-58.062574959282315 2.295396605075455, -58.09586638393342 2.037194889616834, -58.16044080718717 1.5363684145229202 M-58.029283534631205 2.5535983205340753 C-58.07640959240786 2.1880979225109876, -58.12353565018453 1.8225975244878996, -58.16044080718717 1.5363684145229202 M-58.16044080718717 1.5363684145229202 C-58.18219615203889 1.1975113578590875, -58.20395149689061 0.8586543011952549, -58.226154459211 0.5128252411464846 M-58.16044080718717 1.5363684145229202 C-58.17460858279064 1.3156938734762798, -58.18877635839411 1.0950193324296391, -58.226154459211 0.5128252411464846 M-58.226154459211 0.5128252411464846 C-58.226154459211 0.28715475419288083, -58.226154459211 0.061484267239277024, -58.226154459211 -0.5128252411464769 M-58.226154459211 0.5128252411464846 C-58.226154459211 0.1570073794144014, -58.226154459211 -0.19881048231768184, -58.226154459211 -0.5128252411464769 M-58.226154459211 -0.5128252411464769 C-58.20987673648362 -0.7663639117667422, -58.19359901375624 -1.0199025823870076, -58.16044080718717 -1.5363684145228982 M-58.226154459211 -0.5128252411464769 C-58.20777818827419 -0.7990504940463179, -58.18940191733737 -1.085275746946159, -58.16044080718717 -1.5363684145228982 M-58.16044080718717 -1.5363684145228982 C-58.12706720620444 -1.7952074733820385, -58.09369360522171 -2.0540465322411787, -58.029283534631205 -2.5535983205340678 M-58.16044080718717 -1.5363684145228982 C-58.1094093024003 -1.9321586883394193, -58.05837779761344 -2.3279489621559404, -58.029283534631205 -2.5535983205340678 M-58.029283534631205 -2.5535983205340678 C-57.95318676132304 -2.9443391684127618, -57.87708998801487 -3.3350800162914553, -57.833221594909176 -3.5603349433010267 M-58.029283534631205 -2.5535983205340678 C-57.97774265521164 -2.8182498431847782, -57.92620177579209 -3.0829013658354887, -57.833221594909176 -3.5603349433010267 M-57.833221594909176 -3.5603349433010267 C-57.73459096840788 -3.9364562689344074, -57.63596034190658 -4.312577594567788, -57.573060648586576 -4.552441386096511 M-57.833221594909176 -3.5603349433010267 C-57.77984515001705 -3.7638824611722552, -57.72646870512493 -3.9674299790434837, -57.573060648586576 -4.552441386096511 M-57.573060648586576 -4.552441386096511 C-57.45993459062427 -4.893159048489365, -57.34680853266197 -5.233876710882219, -57.24986975279617 -5.525840870740911 M-57.573060648586576 -4.552441386096511 C-57.483720299455555 -4.821520283227579, -57.39437995032454 -5.090599180358646, -57.24986975279617 -5.525840870740911 M-57.24986975279617 -5.525840870740911 C-57.136404619294744 -5.80610194418856, -57.022939485793316 -6.086363017636209, -56.864976968253 -6.476533489958299 M-57.24986975279617 -5.525840870740911 C-57.10141050566387 -5.892538081421974, -56.95295125853157 -6.259235292103037, -56.864976968253 -6.476533489958299 M-56.864976968253 -6.476533489958299 C-56.75711020204123 -6.700521137976106, -56.64924343582946 -6.924508785993914, -56.419963901968 -7.400612643853359 M-56.864976968253 -6.476533489958299 C-56.688852409905465 -6.842259903828818, -56.51272785155792 -7.207986317699337, -56.419963901968 -7.400612643853359 M-56.419963901968 -7.400612643853359 C-56.2509664575211 -7.700684719315739, -56.08196901307419 -8.00075679477812, -55.916659208085534 -8.294281092968404 M-56.419963901968 -7.400612643853359 C-56.22704606017209 -7.743157807011788, -56.03412821837618 -8.085702970170217, -55.916659208085534 -8.294281092968404 M-55.916659208085534 -8.294281092968404 C-55.71149992707236 -8.609460841585332, -55.50634064605919 -8.92464059020226, -55.357131073551294 -9.153866561954715 M-55.916659208085534 -8.294281092968404 C-55.695738458888876 -8.633674689261985, -55.474817709692225 -8.973068285555568, -55.357131073551294 -9.153866561954715 M-55.357131073551294 -9.153866561954715 C-55.12480038639873 -9.465168516978125, -54.89246969924617 -9.776470472001535, -54.74367871948848 -9.975836829739734 M-55.357131073551294 -9.153866561954715 C-55.22259302158401 -9.334135294922191, -55.088054969616735 -9.51440402788967, -54.74367871948848 -9.975836829739734 M-54.74367871948848 -9.975836829739734 C-54.543297063870185 -10.211216524468194, -54.34291540825189 -10.446596219196651, -54.078822953205055 -10.756814244181063 M-54.74367871948848 -9.975836829739734 C-54.5455935869781 -10.20851889774977, -54.34750845446772 -10.441200965759803, -54.078822953205055 -10.756814244181063 M-54.078822953205055 -10.756814244181063 C-53.88301910639715 -10.958997791805018, -53.68721525958924 -11.161181339428975, -53.36529580965579 -11.493589601563633 M-54.078822953205055 -10.756814244181063 C-53.88545949290347 -10.956477892377784, -53.69209603260189 -11.156141540574502, -53.36529580965579 -11.493589601563633 M-53.36529580965579 -11.493589601563633 C-53.16777627611863 -11.672971615841606, -52.97025674258147 -11.85235363011958, -52.60602932492463 -12.18313533390614 M-53.36529580965579 -11.493589601563633 C-53.19330428944466 -11.649787749573123, -53.02131276923353 -11.805985897582614, -52.60602932492463 -12.18313533390614 M-52.60602932492463 -12.18313533390614 C-52.29615974545411 -12.430248077558058, -51.9862901659836 -12.677360821209978, -51.80414348785946 -12.822617949887302 M-52.60602932492463 -12.18313533390614 C-52.36608257413978 -12.374486482405855, -52.12613582335493 -12.565837630905571, -51.80414348785946 -12.822617949887302 M-51.80414348785946 -12.822617949887302 C-51.563797276434904 -12.990273062557272, -51.323451065010346 -13.157928175227239, -50.96293341936879 -13.409409678269444 M-51.80414348785946 -12.822617949887302 C-51.47900055203353 -13.049423586708633, -51.1538576162076 -13.276229223529963, -50.96293341936879 -13.409409678269444 M-50.96293341936879 -13.409409678269444 C-50.707760057531125 -13.564097269780559, -50.45258669569346 -13.718784861291672, -50.085855832063004 -13.941099265974229 M-50.96293341936879 -13.409409678269444 C-50.705395801968436 -13.56553049539657, -50.44785818456808 -13.721651312523697, -50.085855832063004 -13.941099265974229 M-50.085855832063004 -13.941099265974229 C-49.84017299070165 -14.069271846945078, -49.594490149340295 -14.197444427915928, -49.176514825880936 -14.415501886438705 M-50.085855832063004 -13.941099265974229 C-49.89676624527031 -14.03974718228632, -49.70767665847761 -14.13839509859841, -49.176514825880936 -14.415501886438705 M-49.176514825880936 -14.415501886438705 C-48.90870959154279 -14.53405131952018, -48.64090435720464 -14.652600752601659, -48.238647078069995 -14.830668117536344 M-49.176514825880936 -14.415501886438705 C-48.903221496473336 -14.536480736408873, -48.629928167065735 -14.657459586379042, -48.238647078069995 -14.830668117536344 M-48.238647078069995 -14.830668117536344 C-47.95932880045372 -14.933459825688988, -47.68001052283744 -15.036251533841632, -47.27610648837794 -15.184891952170695 M-48.238647078069995 -14.830668117536344 C-48.02476054891739 -14.909380337409903, -47.810874019764796 -14.988092557283462, -47.27610648837794 -15.184891952170695 M-47.27610648837794 -15.184891952170695 C-47.06469991008541 -15.247636314912144, -46.85329333179288 -15.310380677653594, -46.29284834255213 -15.476717808624466 M-47.27610648837794 -15.184891952170695 C-46.96412688679043 -15.27748586030752, -46.65214728520293 -15.370079768444345, -46.29284834255213 -15.476717808624466 M-46.29284834255213 -15.476717808624466 C-45.956583152397265 -15.553468143941878, -45.6203179622424 -15.63021847925929, -45.292913059221966 -15.704946511857043 M-46.29284834255213 -15.476717808624466 C-46.08827429650684 -15.523410499663894, -45.883700250461544 -15.570103190703323, -45.292913059221966 -15.704946511857043 M-45.292913059221966 -15.704946511857043 C-44.955794107112325 -15.75944928963761, -44.618675155002684 -15.813952067418178, -44.2804095869521 -15.868640221171937 M-45.292913059221966 -15.704946511857043 C-44.99198690745067 -15.753597918358265, -44.69106075567938 -15.802249324859487, -44.2804095869521 -15.868640221171937 M-44.2804095869521 -15.868640221171937 C-44.036677965913185 -15.8921527175234, -43.79294634487426 -15.915665213874865, -43.259498519691405 -15.967126284005381 M-44.2804095869521 -15.868640221171937 C-43.91436812517582 -15.90395180076023, -43.54832666339953 -15.939263380348523, -43.259498519691405 -15.967126284005381 M-43.259498519691405 -15.967126284005381 C-42.92150236381512 -15.977965162854726, -42.58350620793884 -15.988804041704073, -42.23437500000001 -16 M-43.259498519691405 -15.967126284005381 C-42.87734503804312 -15.979381202345214, -42.495191556394836 -15.991636120685047, -42.23437500000001 -16 M-42.23437500000001 -16 C-42.23437500000001 -16, -42.23437500000001 -16, -42.234375 -16 M-42.23437500000001 -16 C-42.23437500000001 -16, -42.234375 -16, -42.234375 -16" stroke="#999" stroke-width="1.3" fill="none" stroke-dasharray="0 0" style=""/></g><g class="label" style="" transform="translate(0, -8.5)"><rect/><g><rect class="background" style="stroke: none"/><text y="-10.1" style=""><tspan class="text-outer-tspan row" x="0" y="-0.1em" dy="1.1em"><tspan font-style="normal" class="text-inner-tspan" font-weight="normal">ISBN</tspan><tspan font-style="normal" class="text-inner-tspan" font-weight="normal"> inserito</tspan></tspan></text></g></g></g><g class="node default" id="my-svg-flowchart-B-1" data-look="classic" transform="translate(194.56640625, 113.5)"><rect class="basic label-container" style="" x="-112.75390625" y="-23.5" width="225.5078125" height="47"/><g class="label" style="" transform="translate(0, -8.5)"><rect/><g><rect class="background" style="stroke: none"/><text y="-10.1" style=""><tspan class="text-outer-tspan row" x="0" y="-0.1em" dy="1.1em"><tspan font-style="normal" class="text-inner-tspan" font-weight="normal">Normalizza</tspan><tspan font-style="normal" class="text-inner-tspan" font-weight="normal"> e</tspan><tspan font-style="normal" class="text-inner-tspan" font-weight="normal"> convalida</tspan></tspan></text></g></g></g><g class="node default" id="my-svg-flowchart-C-3" data-look="classic" transform="translate(194.56640625, 277.1671905517578)"><polygon points="90.16718673706055,0 180.3343734741211,-90.16718673706055 90.16718673706055,-180.3343734741211 0,-90.16718673706055" class="label-container" transform="translate(-89.66718673706055, 90.16718673706055)"/><g class="label" style="" transform="translate(0, -17.299999237060547)"><rect/><g><rect class="background" style="stroke: none"/><text y="-10.1" style=""><tspan class="text-outer-tspan row" x="0" y="-0.1em" dy="1.1em"><tspan font-style="normal" class="text-inner-tspan" font-weight="normal">Carattere</tspan><tspan font-style="normal" class="text-inner-tspan" font-weight="normal"> di</tspan></tspan><tspan class="text-outer-tspan row" x="0" y="1em" dy="1.1em"><tspan font-style="normal" class="text-inner-tspan" font-weight="normal">controllo</tspan><tspan font-style="normal" class="text-inner-tspan" font-weight="normal"> valido?</tspan></tspan></text></g></g></g><g class="node default" id="my-svg-flowchart-D-5" data-look="classic" transform="translate(268.421875, 952.5765533447266)"><rect class="basic label-container" style="fill:#ffebee !important;stroke:#c62828 !important" x="-128.76953125" y="-23.5" width="257.5390625" height="47"/><g class="label" style="" transform="translate(0, -8.5)"><rect/><g><rect class="background" style="stroke: none"/><text y="-10.1" style=""><tspan class="text-outer-tspan row" x="0" y="-0.1em" dy="1.1em"><tspan font-style="normal" class="text-inner-tspan" font-weight="normal">Mostra</tspan><tspan font-style="normal" class="text-inner-tspan" font-weight="normal"> errore</tspan><tspan font-style="normal" class="text-inner-tspan" font-weight="normal"> di</tspan><tspan font-style="normal" class="text-inner-tspan" font-weight="normal"> validazione</tspan></tspan></text></g></g></g><g class="node default" id="my-svg-flowchart-E-7" data-look="classic" transform="translate(315.24609375, 1133.0906105041504)"><rect class="basic label-container" style="fill:#fff3e0 !important;stroke:#e65100 !important" x="-104.7578125" y="-32.29999923706055" width="209.515625" height="64.5999984741211"/><g class="label" style="" transform="translate(0, -17.299999237060547)"><rect/><g><rect class="background" style="stroke: none"/><text y="-10.1" style=""><tspan class="text-outer-tspan row" x="0" y="-0.1em" dy="1.1em"><tspan font-style="normal" class="text-inner-tspan" font-weight="normal">Inserimento</tspan><tspan font-style="normal" class="text-inner-tspan" font-weight="normal"> manuale</tspan></tspan><tspan class="text-outer-tspan row" x="0" y="1em" dy="1.1em"><tspan font-style="normal" class="text-inner-tspan" font-weight="normal">(sempre</tspan><tspan font-style="normal" class="text-inner-tspan" font-weight="normal"> disponibile)</tspan></tspan></text></g></g></g><g class="node default" id="my-svg-flowchart-F-9" data-look="classic" transform="translate(120.7109375, 461.8343811035156)"><rect class="basic label-container" style="" x="-110.5" y="-23.5" width="221" height="47"/><g class="label" style="" transform="translate(0, -8.5)"><rect/><g><rect class="background" style="stroke: none"/><text y="-10.1" style=""><tspan class="text-outer-tspan row" x="0" y="-0.1em" dy="1.1em"><tspan font-style="normal" class="text-inner-tspan" font-weight="normal">Interroga</tspan><tspan font-style="normal" class="text-inner-tspan" font-weight="normal"> Open</tspan><tspan font-style="normal" class="text-inner-tspan" font-weight="normal"> Library</tspan></tspan></text></g></g></g><g class="node default" id="my-svg-flowchart-G-11" data-look="classic" transform="translate(120.7109375, 612.5484390258789)"><polygon points="77.21406173706055,0 154.4281234741211,-77.21406173706055 77.21406173706055,-154.4281234741211 0,-77.21406173706055" class="label-container" transform="translate(-76.71406173706055, 77.21406173706055)"/><g class="label" style="" transform="translate(0, -17.299999237060547)"><rect/><g><rect class="background" style="stroke: none"/><text y="-10.1" style=""><tspan class="text-outer-tspan row" x="0" y="-0.1em" dy="1.1em"><tspan font-style="normal" class="text-inner-tspan" font-weight="normal">Metadati</tspan><tspan font-style="normal" class="text-inner-tspan" font-weight="normal"> utili</tspan></tspan><tspan class="text-outer-tspan row" x="0" y="1em" dy="1.1em"><tspan font-style="normal" class="text-inner-tspan" font-weight="normal">trovati?</tspan></tspan></text></g></g></g><g class="node default" id="my-svg-flowchart-H-13" data-look="classic" transform="translate(120.7109375, 793.0624961853027)"><rect class="basic label-container" style="fill:#e8f5e9 !important;stroke:#2e7d32 !important" x="-112.7109375" y="-32.29999923706055" width="225.421875" height="64.5999984741211"/><g class="label" style="" transform="translate(0, -17.299999237060547)"><rect/><g><rect class="background" style="stroke: none"/><text y="-10.1" style=""><tspan class="text-outer-tspan row" x="0" y="-0.1em" dy="1.1em"><tspan font-style="normal" class="text-inner-tspan" font-weight="normal">Restituisci</tspan><tspan font-style="normal" class="text-inner-tspan" font-weight="normal"> metadati</tspan></tspan><tspan class="text-outer-tspan row" x="0" y="1em" dy="1.1em"><tspan font-style="normal" class="text-inner-tspan" font-weight="normal">Fornitore:</tspan><tspan font-style="normal" class="text-inner-tspan" font-weight="normal"> Open</tspan><tspan font-style="normal" class="text-inner-tspan" font-weight="normal"> Library</tspan></tspan></text></g></g></g><g class="node default" id="my-svg-flowchart-I-15" data-look="classic" transform="translate(578.9761695861816, 793.0624961853027)"><rect class="basic label-container" style="" x="-98.4921875" y="-32.29999923706055" width="196.984375" height="64.5999984741211"/><g class="label" style="" transform="translate(0, -17.299999237060547)"><rect/><g><rect class="background" style="stroke: none"/><text y="-10.1" style=""><tspan class="text-outer-tspan row" x="0" y="-0.1em" dy="1.1em"><tspan font-style="normal" class="text-inner-tspan" font-weight="normal">Interroga</tspan><tspan font-style="normal" class="text-inner-tspan" font-weight="normal"> API</tspan></tspan><tspan class="text-outer-tspan row" x="0" y="1em" dy="1.1em"><tspan font-style="normal" class="text-inner-tspan" font-weight="normal">metadati</tspan><tspan font-style="normal" class="text-inner-tspan" font-weight="normal"> Let</tspan><tspan font-style="normal" class="text-inner-tspan" font-weight="normal"> Books</tspan></tspan></text></g></g></g><g class="node default" id="my-svg-flowchart-J-17" data-look="classic" transform="translate(578.9761695861816, 952.5765533447266)"><polygon points="77.21406173706055,0 154.4281234741211,-77.21406173706055 77.21406173706055,-154.4281234741211 0,-77.21406173706055" class="label-container" transform="translate(-76.71406173706055, 77.21406173706055)"/><g class="label" style="" transform="translate(0, -17.299999237060547)"><rect/><g><rect class="background" style="stroke: none"/><text y="-10.1" style=""><tspan class="text-outer-tspan row" x="0" y="-0.1em" dy="1.1em"><tspan font-style="normal" class="text-inner-tspan" font-weight="normal">Metadati</tspan><tspan font-style="normal" class="text-inner-tspan" font-weight="normal"> utili</tspan></tspan><tspan class="text-outer-tspan row" x="0" y="1em" dy="1.1em"><tspan font-style="normal" class="text-inner-tspan" font-weight="normal">trovati?</tspan></tspan></text></g></g></g><g class="node default" id="my-svg-flowchart-K-19" data-look="classic" transform="translate(630.5816383361816, 1133.0906105041504)"><rect class="basic label-container" style="fill:#e8f5e9 !important;stroke:#2e7d32 !important" x="-116.71875" y="-32.29999923706055" width="233.4375" height="64.5999984741211"/><g class="label" style="" transform="translate(0, -17.299999237060547)"><rect/><g><rect class="background" style="stroke: none"/><text y="-10.1" style=""><tspan class="text-outer-tspan row" x="0" y="-0.1em" dy="1.1em"><tspan font-style="normal" class="text-inner-tspan" font-weight="normal">Restituisci</tspan><tspan font-style="normal" class="text-inner-tspan" font-weight="normal"> metadati</tspan></tspan><tspan class="text-outer-tspan row" x="0" y="1em" dy="1.1em"><tspan font-style="normal" class="text-inner-tspan" font-weight="normal">Fornitore:</tspan><tspan font-style="normal" class="text-inner-tspan" font-weight="normal"> Let</tspan><tspan font-style="normal" class="text-inner-tspan" font-weight="normal"> Books</tspan><tspan font-style="normal" class="text-inner-tspan" font-weight="normal"> API</tspan></tspan></text></g></g></g></g></g></g><defs><filter id="my-svg-drop-shadow" height="130%" width="130%"><feDropShadow dx="4" dy="4" stdDeviation="0" flood-opacity="0.06" flood-color="#000000"/></filter></defs><defs><filter id="my-svg-drop-shadow-small" height="150%" width="150%"><feDropShadow dx="2" dy="2" stdDeviation="0" flood-opacity="0.06" flood-color="#000000"/></filter></defs><linearGradient id="my-svg-gradient" gradientUnits="objectBoundingBox" x1="0%" y1="0%" x2="100%" y2="0%"><stop offset="0%" stop-color="hsl(0, 0%, 83.3333333333%)" stop-opacity="1"/><stop offset="100%" stop-color="hsl(0, 0%, 88.9215686275%)" stop-opacity="1"/></linearGradient><text text-anchor="middle" x="377.65020751953125" y="-25" class="flowchartTitleText">Catena di ricerca metadati ISBN</text></svg>