<svg id="my-svg" width="100%" xmlns="http://www.w3.org/2000/svg" xmlns:xlink="http://www.w3.org/1999/xlink" class="flowchart" style="max-width: 716.675px; background-color: transparent;" viewBox="0 -49 716.6746215820312 1320.5765380859375" role="graphics-document document" aria-roledescription="flowchart-v2"><style>#my-svg{font-family:"trebuchet ms",verdana,arial,sans-serif;font-size:16px;fill:#000000;}@keyframes edge-animation-frame{from{stroke-dashoffset:0;}}@keyframes dash{to{stroke-dashoffset:0;}}#my-svg .edge-animation-slow{stroke-dasharray:9,5!important;stroke-dashoffset:900;animation:dash 50s linear infinite;stroke-linecap:round;}#my-svg .edge-animation-fast{stroke-dasharray:9,5!important;stroke-dashoffset:900;animation:dash 20s linear infinite;stroke-linecap:round;}#my-svg .error-icon{fill:#552222;}#my-svg .error-text{fill:#552222;stroke:#552222;}#my-svg .edge-thickness-normal{stroke-width:1px;}#my-svg .edge-thickness-thick{stroke-width:3.5px;}#my-svg .edge-pattern-solid{stroke-dasharray:0;}#my-svg .edge-thickness-invisible{stroke-width:0;fill:none;}#my-svg .edge-pattern-dashed{stroke-dasharray:3;}#my-svg .edge-pattern-dotted{stroke-dasharray:2;}#my-svg .marker{fill:#666;stroke:#666;}#my-svg .marker.cross{stroke:#666;}#my-svg svg{font-family:"trebuchet ms",verdana,arial,sans-serif;font-size:16px;}#my-svg p{margin:0;}#my-svg .label{font-family:"trebuchet ms",verdana,arial,sans-serif;color:#000000;}#my-svg .cluster-label text{fill:#333;}#my-svg .cluster-label span{color:#333;}#my-svg .cluster-label span p{background-color:transparent;}#my-svg .label text,#my-svg span{fill:#000000;color:#000000;}#my-svg .node rect,#my-svg .node circle,#my-svg .node ellipse,#my-svg .node polygon,#my-svg .node path{fill:#eee;stroke:#999;stroke-width:1px;}#my-svg .rough-node .label text,#my-svg .node .label text,#my-svg .image-shape .label,#my-svg .icon-shape .label{text-anchor:middle;}#my-svg .node .katex path{fill:#000;stroke:#000;stroke-width:1px;}#my-svg .rough-node .label,#my-svg .node .label,#my-svg .image-shape .label,#my-svg .icon-shape .label{text-align:center;}#my-svg .node.clickable{cursor:pointer;}#my-svg .root .anchor path{fill:#666!important;stroke-width:0;stroke:#666;}#my-svg .arrowheadPath{fill:#333333;}#my-svg .edgePath .path{stroke:#666;stroke-width:1px;}#my-svg .flowchart-link{stroke:#666;fill:none;}#my-svg .edgeLabel{background-color:white;text-align:center;}#my-svg .edgeLabel p{background-color:white;}#my-svg .edgeLabel rect{opacity:0.5;background-color:white;fill:white;}#my-svg .labelBkg{background-color:rgba(255, 255, 255, 0.5);}#my-svg .cluster rect{fill:hsl(0, 0%, 98.9215686275%);stroke:#707070;stroke-width:1px;}#my-svg .cluster text{fill:#333;}#my-svg .cluster span{color:#333;}#my-svg div.mermaidTooltip{position:absolute;text-align:center;max-width:200px;padding:2px;font-family:"trebuchet ms",verdana,arial,sans-serif;font-size:12px;background:hsl(-160, 0%, 93.3333333333%);border:1px solid #707070;border-radius:2px;pointer-events:none;z-index:100;}#my-svg .flowchartTitleText{text-anchor:middle;font-size:18px;fill:#000000;}#my-svg rect.text{fill:none;stroke-width:0;}#my-svg .icon-shape,#my-svg .image-shape{background-color:white;text-align:center;}#my-svg .icon-shape p,#my-svg .image-shape p{background-color:white;padding:2px;}#my-svg .icon-shape .label rect,#my-svg .image-shape .label rect{opacity:0.5;background-color:white;fill:white;}#my-svg .label-icon{display:inline-block;height:1em;overflow:visible;vertical-align:-0.125em;}#my-svg .node .label-icon path{fill:currentColor;stroke:revert;stroke-width:revert;}#my-svg .node .neo-node{stroke:#999;}#my-svg [data-look="neo"].node rect,#my-svg [data-look="neo"].cluster rect,#my-svg [data-look="neo"].node polygon{stroke:url(#my-svg-gradient);filter:drop-shadow( 1px 2px 2px rgba(185,185,185,1));}#my-svg [data-look="neo"].node path{stroke:url(#my-svg-gradient);stroke-width:1px;}#my-svg [data-look="neo"].node .outer-path{filter:drop-shadow( 1px 2px 2px rgba(185,185,185,1));}#my-svg [data-look="neo"].node .neo-line path{stroke:#999;filter:none;}#my-svg [data-look="neo"].node circle{stroke:url(#my-svg-gradient);filter:drop-shadow( 1px 2px 2px rgba(185,185,185,1));}#my-svg [data-look="neo"].node circle .state-start{fill:#000000;}#my-svg [data-look="neo"].icon-shape .icon{fill:url(#my-svg-gradient);filter:drop-shadow( 1px 2px 2px rgba(185,185,185,1));}#my-svg [data-look="neo"].icon-shape .icon-neo path{stroke:url(#my-svg-gradient);filter:drop-shadow( 1px 2px 2px rgba(185,185,185,1));}#my-svg :root{--mermaid-font-family:"trebuchet ms",verdana,arial,sans-serif;}</style><g><marker id="my-svg_flowchart-v2-pointEnd" class="marker flowchart-v2" viewBox="0 0 10 10" refX="5" refY="5" markerUnits="userSpaceOnUse" markerWidth="8" markerHeight="8" orient="auto"><path d="M 0 0 L 10 5 L 0 10 z" class="arrowMarkerPath" style="stroke-width: 1; stroke-dasharray: 1, 0;"/></marker><marker id="my-svg_flowchart-v2-pointStart" class="marker flowchart-v2" viewBox="0 0 10 10" refX="4.5" refY="5" markerUnits="userSpaceOnUse" markerWidth="8" markerHeight="8" orient="auto"><path d="M 0 5 L 10 10 L 10 0 z" class="arrowMarkerPath" style="stroke-width: 1; stroke-dasharray: 1, 0;"/></marker><marker id="my-svg_flowchart-v2-pointEnd-margin" class="marker flowchart-v2" viewBox="0 0 11.5 14" refX="11.5" refY="7" markerUnits="userSpaceOnUse" markerWidth="10.5" markerHeight="14" orient="auto"><path d="M 0 0 L 11.5 7 L 0 14 z" class="arrowMarkerPath" style="stroke-width: 0; stroke-dasharray: 1, 0;"/></marker><marker id="my-svg_flowchart-v2-pointStart-margin" class="marker flowchart-v2" viewBox="0 0 11.5 14" refX="1" refY="7" markerUnits="userSpaceOnUse" markerWidth="11.5" markerHeight="14" orient="auto"><polygon points="0,7 11.5,14 11.5,0" class="arrowMarkerPath" style="stroke-width: 0; stroke-dasharray: 1, 0;"/></marker><marker id="my-svg_flowchart-v2-circleEnd" class="marker flowchart-v2" viewBox="0 0 10 10" refX="11" refY="5" markerUnits="userSpaceOnUse" markerWidth="11" markerHeight="11" orient="auto"><circle cx="5" cy="5" r="5" class="arrowMarkerPath" style="stroke-width: 1; stroke-dasharray: 1, 0;"/></marker><marker id="my-svg_flowchart-v2-circleStart" class="marker flowchart-v2" viewBox="0 0 10 10" refX="-1" refY="5" markerUnits="userSpaceOnUse" markerWidth="11" markerHeight="11" orient="auto"><circle cx="5" cy="5" r="5" class="arrowMarkerPath" style="stroke-width: 1; stroke-dasharray: 1, 0;"/></marker><marker id="my-svg_flowchart-v2-circleEnd-margin" class="marker flowchart-v2" viewBox="0 0 10 10" refY="5" refX="12.25" markerUnits="userSpaceOnUse" markerWidth="14" markerHeight="14" orient="auto"><circle cx="5" cy="5" r="5" class="arrowMarkerPath" style="stroke-width: 0; stroke-dasharray: 1, 0;"/></marker><marker id="my-svg_flowchart-v2-circleStart-margin" class="marker flowchart-v2" viewBox="0 0 10 10" refX="-2" refY="5" markerUnits="userSpaceOnUse" markerWidth="14" markerHeight="14" orient="auto"><circle cx="5" cy="5" r="5" class="arrowMarkerPath" style="stroke-width: 0; stroke-dasharray: 1, 0;"/></marker><marker id="my-svg_flowchart-v2-crossEnd" class="marker cross flowchart-v2" viewBox="0 0 11 11" refX="12" refY="5.2" markerUnits="userSpaceOnUse" markerWidth="11" markerHeight="11" orient="auto"><path d="M 1,1 l 9,9 M 10,1 l -9,9" class="arrowMarkerPath" style="stroke-width: 2; stroke-dasharray: 1, 0;"/></marker><marker id="my-svg_flowchart-v2-crossStart" class="marker cross flowchart-v2" viewBox="0 0 11 11" refX="-1" refY="5.2" markerUnits="userSpaceOnUse" markerWidth="11" markerHeight="11" orient="auto"><path d="M 1,1 l 9,9 M 10,1 l -9,9" class="arrowMarkerPath" style="stroke-width: 2; stroke-dasharray: 1, 0;"/></marker><marker id="my-svg_flowchart-v2-crossEnd-margin" class="marker cross flowchart-v2" viewBox="0 0 15 15" refX="17.7" refY="7.5" markerUnits="userSpaceOnUse" markerWidth="12" markerHeight="12" orient="auto"><path d="M 1,1 L 14,14 M 1,14 L 14,1" class="arrowMarkerPath" style="stroke-width: 2.5;"/></marker><marker id="my-svg_flowchart-v2-crossStart-margin" class="marker cross flowchart-v2" viewBox="0 0 15 15" refX="-3.5" refY="7.5" markerUnits="userSpaceOnUse" markerWidth="12" markerHeight="12" orient="auto"><path d="M 1,1 L 14,14 M 1,14 L 14,1" class="arrowMarkerPath" style="stroke-width: 2.5; stroke-dasharray: 1, 0;"/></marker><g class="root"><g class="clusters"/><g class="edgePaths"><path d="M206.16,40.5L206.076,44.583C205.993,48.667,205.826,56.833,205.743,64.417C205.66,72,205.66,79,205.66,82.5L205.66,86" id="my-svg-L_A_B_0" class="edge-thickness-normal edge-pattern-solid edge-thickness-normal edge-pattern-solid flowchart-link" style=";" data-edge="true" data-et="edge" data-id="L_A_B_0" data-points="W3sieCI6MjA2LjE1OTc2NzE1MDg3ODksInkiOjQwLjUwMDAwMDAwMDAwMDAxfSx7IngiOjIwNS42NTk3NjcxNTA4Nzg5LCJ5Ijo2NX0seyJ4IjoyMDUuNjU5NzY3MTUwODc4OSwieSI6OTB9XQ==" data-look="classic" marker-end="url(#my-svg_flowchart-v2-pointEnd)"/><path d="M205.66,154.6L205.66,158.767C205.66,162.933,205.66,171.267,205.66,178.933C205.66,186.6,205.66,193.6,205.66,197.1L205.66,200.6" id="my-svg-L_B_C_0" class="edge-thickness-normal edge-pattern-solid edge-thickness-normal edge-pattern-solid flowchart-link" style=";" data-edge="true" data-et="edge" data-id="L_B_C_0" data-points="W3sieCI6MjA1LjY1OTc2NzE1MDg3ODksInkiOjE1NC41OTk5OTg0NzQxMjExfSx7IngiOjIwNS42NTk3NjcxNTA4Nzg5LCJ5IjoxNzkuNTk5OTk4NDc0MTIxMX0seyJ4IjoyMDUuNjU5NzY3MTUwODc4ODgsInkiOjIwNC41OTk5OTg0NzQxMjExfV0=" data-look="classic" marker-end="url(#my-svg_flowchart-v2-pointEnd)"/><path d="M234.686,304.573L243.485,315.327C252.285,326.081,269.884,347.59,278.684,368.177C287.484,388.765,287.484,408.432,287.484,426.348C287.484,444.265,287.484,460.432,287.484,491.048C287.484,521.663,287.484,566.728,287.484,613.543C287.484,660.358,287.484,708.923,287.484,744.505C287.484,780.088,287.484,802.688,287.484,823.538C287.484,844.388,287.484,863.488,287.484,890.987C287.484,918.486,287.484,954.384,287.484,972.333L287.484,990.282" id="my-svg-L_C_D_0" class="edge-thickness-normal edge-pattern-solid edge-thickness-normal edge-pattern-solid flowchart-link" style=";" data-edge="true" data-et="edge" data-id="L_C_D_0" data-points="W3sieCI6MjM0LjY4NTY0MzEwNjQxNDk0LCJ5IjozMDQuNTcyNTY2MTIyMTAwNn0seyJ4IjoyODcuNDgzNTk2ODAxNzU3OCwieSI6MzY5LjA5ODQ0MjA3NzYzNjd9LHsieCI6Mjg3LjQ4MzU5NjgwMTc1NzgsInkiOjQyOC4wOTg0NDIwNzc2MzY3fSx7IngiOjI4Ny40ODM1OTY4MDE3NTc4LCJ5Ijo0NzYuNTk4NDQyMDc3NjM2N30seyJ4IjoyODcuNDgzNTk2ODAxNzU3OCwieSI6NjExLjc5Mjk3NjM3OTM5NDV9LHsieCI6Mjg3LjQ4MzU5NjgwMTc1NzgsInkiOjc1Ny40ODc1MTA2ODExNTIzfSx7IngiOjI4Ny40ODM1OTY4MDE3NTc4LCJ5Ijo4MjUuMjg3NTA5OTE4MjEyOX0seyJ4IjoyODcuNDgzNTk2ODAxNzU3OCwieSI6ODgyLjU4NzUwOTE1NTI3MzR9LHsieCI6Mjg3LjQ4MzU5NjgwMTc1NzgsInkiOjk5NC4yODIwNDM0NTcwMzEyfV0=" data-look="classic" marker-end="url(#my-svg_flowchart-v2-pointEnd)"/><path d="M287.484,1041.282L287.484,1061.648C287.484,1082.014,287.484,1122.745,291.439,1148.49C295.395,1174.236,303.306,1184.995,307.262,1190.374L311.217,1195.754" id="my-svg-L_D_E_0" class="edge-thickness-normal edge-pattern-solid edge-thickness-normal edge-pattern-solid flowchart-link" style=";" data-edge="true" data-et="edge" data-id="L_D_E_0" data-points="W3sieCI6Mjg3LjQ4MzU5NjgwMTc1NzgsInkiOjEwNDEuMjgyMDQzNDU3MDMxMn0seyJ4IjoyODcuNDgzNTk2ODAxNzU3OCwieSI6MTE2My40NzY1Nzc3NTg3ODl9LHsieCI6MzEzLjU4NjgzOTA1MjUzNSwieSI6MTE5OC45NzY1Nzc3NTg3ODl9XQ==" data-look="classic" marker-end="url(#my-svg_flowchart-v2-pointEnd)"/><path d="M176.634,304.573L167.834,315.327C159.035,326.081,141.435,347.59,132.636,363.594C123.836,379.598,123.836,390.098,123.836,395.348L123.836,400.598" id="my-svg-L_C_F_0" class="edge-thickness-normal edge-pattern-solid edge-thickness-normal edge-pattern-solid flowchart-link" style=";" data-edge="true" data-et="edge" data-id="L_C_F_0" data-points="W3sieCI6MTc2LjYzMzg5MTE5NTM0MjgsInkiOjMwNC41NzI1NjYxMjIxMDA1N30seyJ4IjoxMjMuODM1OTM3NSwieSI6MzY5LjA5ODQ0MjA3NzYzNjd9LHsieCI6MTIzLjgzNTkzNzUsInkiOjQwNC41OTg0NDIwNzc2MzY3fV0=" data-look="classic" marker-end="url(#my-svg_flowchart-v2-pointEnd)"/><path d="M123.836,451.598L123.836,455.765C123.836,459.932,123.836,468.265,123.836,475.932C123.836,483.598,123.836,490.598,123.836,494.098L123.836,497.598" id="my-svg-L_F_G_0" class="edge-thickness-normal edge-pattern-solid edge-thickness-normal edge-pattern-solid flowchart-link" style=";" data-edge="true" data-et="edge" data-id="L_F_G_0" data-points="W3sieCI6MTIzLjgzNTkzNzUsInkiOjQ1MS41OTg0NDIwNzc2MzY3fSx7IngiOjEyMy44MzU5Mzc1LCJ5Ijo0NzYuNTk4NDQyMDc3NjM2N30seyJ4IjoxMjMuODM1OTM3NSwieSI6NTAxLjU5ODQ0MjA3NzYzNjd9XQ==" data-look="classic" marker-end="url(#my-svg_flowchart-v2-pointEnd)"/><path d="M123.836,721.988L123.836,727.904C123.836,733.821,123.836,745.654,123.836,756.821C123.836,767.988,123.836,778.488,123.836,783.738L123.836,788.988" id="my-svg-L_G_H_0" class="edge-thickness-normal edge-pattern-solid edge-thickness-normal edge-pattern-solid flowchart-link" style=";" data-edge="true" data-et="edge" data-id="L_G_H_0" data-points="W3sieCI6MTIzLjgzNTkzNzUsInkiOjcyMS45ODc1MTA2ODExNTIzfSx7IngiOjEyMy44MzU5Mzc1LCJ5Ijo3NTcuNDg3NTEwNjgxMTUyM30seyJ4IjoxMjMuODM1OTM3NSwieSI6NzkyLjk4NzUxMDY4MTE1MjN9XQ==" data-look="classic" marker-end="url(#my-svg_flowchart-v2-pointEnd)"/><path d="M207.055,638.768L268.097,658.555C329.139,678.341,451.222,717.914,512.264,742.951C573.305,767.988,573.305,778.488,573.305,783.738L573.305,788.988" id="my-svg-L_G_I_0" class="edge-thickness-normal edge-pattern-solid edge-thickness-normal edge-pattern-solid flowchart-link" style=";" data-edge="true" data-et="edge" data-id="L_G_I_0" data-points="W3sieCI6MjA3LjA1NTE1MTYxMTEzNjcyLCJ5Ijo2MzguNzY4Mjk2NTcwMDE1N30seyJ4Ijo1NzMuMzA1NDczMzI3NjM2NywieSI6NzU3LjQ4NzUxMDY4MTE1MjN9LHsieCI6NTczLjMwNTQ3MzMyNzYzNjcsInkiOjc5Mi45ODc1MTA2ODExNTIzfV0=" data-look="classic" marker-end="url(#my-svg_flowchart-v2-pointEnd)"/><path d="M573.305,857.588L573.305,861.754C573.305,865.921,573.305,874.254,573.305,881.921C573.305,889.588,573.305,896.588,573.305,900.088L573.305,903.588" id="my-svg-L_I_J_0" class="edge-thickness-normal edge-pattern-solid edge-thickness-normal edge-pattern-solid flowchart-link" style=";" data-edge="true" data-et="edge" data-id="L_I_J_0" data-points="W3sieCI6NTczLjMwNTQ3MzMyNzYzNjcsInkiOjg1Ny41ODc1MDkxNTUyNzM0fSx7IngiOjU3My4zMDU0NzMzMjc2MzY3LCJ5Ijo4ODIuNTg3NTA5MTU1MjczNH0seyJ4Ijo1NzMuMzA1NDczMzI3NjM2OCwieSI6OTA3LjU4NzUwOTE1NTI3MzR9XQ==" data-look="classic" marker-end="url(#my-svg_flowchart-v2-pointEnd)"/><path d="M603.545,1097.737L607.689,1108.693C611.833,1119.65,620.121,1141.563,624.265,1157.77C628.409,1173.977,628.409,1184.477,628.409,1189.727L628.409,1194.977" id="my-svg-L_J_K_0" class="edge-thickness-normal edge-pattern-solid edge-thickness-normal edge-pattern-solid flowchart-link" style=";" data-edge="true" data-et="edge" data-id="L_J_K_0" data-points="W3sieCI6NjAzLjU0NTMzOTkyNDQ1NTYsInkiOjEwOTcuNzM2NzExMTYxOTcwM30seyJ4Ijo2MjguNDA4OTg4OTUyNjM2NywieSI6MTE2My40NzY1Nzc3NTg3ODl9LHsieCI6NjI4LjQwODk4ODk1MjYzNjcsInkiOjExOTguOTc2NTc3NzU4Nzg5fV0=" data-look="classic" marker-end="url(#my-svg_flowchart-v2-pointEnd)"/><path d="M525.368,1080.039L514.66,1093.945C503.953,1107.852,482.537,1135.664,461.612,1155.167C440.687,1174.669,420.252,1185.862,410.034,1191.459L399.817,1197.055" id="my-svg-L_J_E_0" class="edge-thickness-normal edge-pattern-solid edge-thickness-normal edge-pattern-solid flowchart-link" style=";" data-edge="true" data-et="edge" data-id="L_J_E_0" data-points="W3sieCI6NTI1LjM2ODAyNzIwNTQyMTYsInkiOjEwODAuMDM5MTMxNjM2NTczOH0seyJ4Ijo0NjEuMTIxODc5NTc3NjM2NywieSI6MTE2My40NzY1Nzc3NTg3ODl9LHsieCI6Mzk2LjMwODMyMDgyNjgyNTIsInkiOjExOTguOTc2NTc3NzU4Nzg5fV0=" data-look="classic" marker-end="url(#my-svg_flowchart-v2-pointEnd)"/></g><g class="edgeLabels"><g class="edgeLabel"><g class="label" data-id="L_A_B_0" transform="translate(0, 0)"><text y="-10.1" text-anchor="middle"><tspan class="text-outer-tspan row" x="0" y="-0.1em" dy="1.1em" text-anchor="middle"/></text></g></g><g><rect class="background" style="stroke: none"/></g><g class="edgeLabel"><g class="label" data-id="L_B_C_0" transform="translate(0, 0)"><text y="-10.1" text-anchor="middle"><tspan class="text-outer-tspan row" x="0" y="-0.1em" dy="1.1em" text-anchor="middle"/></text></g></g><g><rect class="background" style="stroke: none"/></g><g class="edgeLabel" transform="translate(287.4835968017578, 611.7929763793945)"><g class="label" data-id="L_C_D_0" transform="translate(0, -10.5)"><g><rect class="background" style="" x="-18.453125" y="0" width="36.90625" height="21"/><text y="-10.1" text-anchor="middle" style=""><tspan class="text-outer-tspan row" x="0" y="-0.1em" dy="1.1em" text-anchor="middle"><tspan font-style="normal" class="text-inner-tspan" font-weight="normal">Nein</tspan></tspan></text></g></g></g><g class="edgeLabel"><g class="label" data-id="L_D_E_0" transform="translate(0, 0)"><text y="-10.1" text-anchor="middle"><tspan class="text-outer-tspan row" x="0" y="-0.1em" dy="1.1em" text-anchor="middle"/></text></g></g><g><rect class="background" style="stroke: none"/></g><g class="edgeLabel" transform="translate(123.8359375, 369.0984420776367)"><g class="label" data-id="L_C_F_0" transform="translate(-0.046875, -10.5)"><g><rect class="background" style="" x="-10.453125" y="0" width="21" height="21"/><text y="-10.1" text-anchor="middle" style=""><tspan class="text-outer-tspan row" x="0" y="-0.1em" dy="1.1em" text-anchor="middle"><tspan font-style="normal" class="text-inner-tspan" font-weight="normal">Ja</tspan></tspan></text></g></g></g><g class="edgeLabel"><g class="label" data-id="L_F_G_0" transform="translate(0, 0)"><text y="-10.1" text-anchor="middle"><tspan class="text-outer-tspan row" x="0" y="-0.1em" dy="1.1em" text-anchor="middle"/></text></g></g><g><rect class="background" style="stroke: none"/></g><g class="edgeLabel" transform="translate(123.8359375, 757.4875106811523)"><g class="label" data-id="L_G_H_0" transform="translate(-0.046875, -10.5)"><g><rect class="background" style="" x="-10.453125" y="0" width="21" height="21"/><text y="-10.1" text-anchor="middle" style=""><tspan class="text-outer-tspan row" x="0" y="-0.1em" dy="1.1em" text-anchor="middle"><tspan font-style="normal" class="text-inner-tspan" font-weight="normal">Ja</tspan></tspan></text></g></g></g><g class="edgeLabel" transform="translate(573.3054733276367, 757.4875106811523)"><g class="label" data-id="L_G_I_0" transform="translate(-0.33203125, -10.5)"><g><rect class="background" style="" x="-79.375" y="0" width="159.4140625" height="21"/><text y="-10.1" text-anchor="middle" style=""><tspan class="text-outer-tspan row" x="0" y="-0.1em" dy="1.1em" text-anchor="middle"><tspan font-style="normal" class="text-inner-tspan" font-weight="normal">Nein</tspan><tspan font-style="normal" class="text-inner-tspan" font-weight="normal"> /</tspan><tspan font-style="normal" class="text-inner-tspan" font-weight="normal"> Nicht</tspan><tspan font-style="normal" class="text-inner-tspan" font-weight="normal"> verfügbar</tspan></tspan></text></g></g></g><g class="edgeLabel"><g class="label" data-id="L_I_J_0" transform="translate(0, 0)"><text y="-10.1" text-anchor="middle"><tspan class="text-outer-tspan row" x="0" y="-0.1em" dy="1.1em" text-anchor="middle"/></text></g></g><g><rect class="background" style="stroke: none"/></g><g class="edgeLabel" transform="translate(628.4089889526367, 1163.476577758789)"><g class="label" data-id="L_J_K_0" transform="translate(-0.046875, -10.5)"><g><rect class="background" style="" x="-10.453125" y="0" width="21" height="21"/><text y="-10.1" text-anchor="middle" style=""><tspan class="text-outer-tspan row" x="0" y="-0.1em" dy="1.1em" text-anchor="middle"><tspan font-style="normal" class="text-inner-tspan" font-weight="normal">Ja</tspan></tspan></text></g></g></g><g class="edgeLabel" transform="translate(470.70248, 1151.0341)"><g class="label" data-id="L_J_E_0" transform="translate(-0.33203125, -10.5)"><g><rect class="background" style="" x="-79.375" y="0" width="159.4140625" height="21"/><text y="-10.1" text-anchor="middle" style=""><tspan class="text-outer-tspan row" x="0" y="-0.1em" dy="1.1em" text-anchor="middle"><tspan font-style="normal" class="text-inner-tspan" font-weight="normal">Nein</tspan><tspan font-style="normal" class="text-inner-tspan" font-weight="normal"> /</tspan><tspan font-style="normal" class="text-inner-tspan" font-weight="normal"> Nicht</tspan><tspan font-style="normal" class="text-inner-tspan" font-weight="normal"> verfügbar</tspan></tspan></text></g></g></g></g><g class="nodes"><g class="node default" id="my-svg-flowchart-A-0" data-look="classic" transform="translate(205.6597671508789, 24)"><g class="basic label-container outer-path"><path d="M-58.21875 -16 C-15.821559286072251 -16, 26.575631427855498 -16, 58.21875 -16 C58.21875 -16, 58.21875 -16, 58.21875 -16 C58.56685781384058 -15.988836859960887, 58.91496562768115 -15.977673719921777, 59.243873519691405 -15.967126284005381 C59.57589030269617 -15.935097024257514, 59.90790708570095 -15.903067764509647, 60.264784586952096 -15.868640221171939 C60.63312334802501 -15.809090066791425, 61.001462109097915 -15.749539912410912, 61.27728805922195 -15.704946511857047 C61.66976804995889 -15.615365515142635, 62.06224804069583 -15.525784518428221, 62.27722334255211 -15.476717808624471 C62.52745021604325 -15.402451786039965, 62.777677089534386 -15.328185763455458, 63.260481488377934 -15.184891952170698 C63.51647301595534 -15.090684703662472, 63.77246454353275 -14.996477455154244, 64.22302207806999 -14.830668117536348 C64.5105797469986 -14.703374867596823, 64.79813741592721 -14.5760816176573, 65.16088982588093 -14.415501886438706 C65.50782722778548 -14.234504866089114, 65.85476462969004 -14.05350784573952, 66.070230832063 -13.941099265974232 C66.25894046854755 -13.826702375356382, 66.4476501050321 -13.71230548473853, 66.94730841936878 -13.409409678269451 C67.160755377256 -13.26051832041722, 67.3742023351432 -13.111626962564985, 67.78851848785945 -12.822617949887306 C68.01145493044365 -12.6448320695143, 68.23439137302785 -12.467046189141293, 68.5904043249246 -12.183135333906153 C68.74263498464315 -12.044883476552316, 68.89486564436169 -11.90663161919848, 69.34967080965578 -11.493589601563642 C69.62791924689274 -11.206275245494925, 69.90616768412971 -10.91896088942621, 70.06319795320505 -10.756814244181072 C70.25267690501434 -10.534241485728078, 70.44215585682365 -10.311668727275086, 70.72805371948847 -9.975836829739738 C70.97230621778321 -9.648560733885137, 71.21655871607796 -9.321284638030539, 71.34150607355129 -9.153866561954718 C71.47753733106343 -8.944886020908804, 71.61356858857559 -8.735905479862888, 71.90103420808553 -8.294281092968403 C72.08062631168626 -7.975397127352832, 72.260218415287 -7.656513161737262, 72.404338901968 -7.400612643853364 C72.58218407462972 -7.031313337544212, 72.76002924729144 -6.662014031235059, 72.849351968253 -6.476533489958305 C72.99650117235491 -6.113072110890258, 73.14365037645682 -5.749610731822211, 73.23424475279616 -5.52584087074093 C73.31703846902363 -5.2764793888510635, 73.39983218525109 -5.027117906961197, 73.55743564858656 -4.552441386096524 C73.64063466815345 -4.235167465804793, 73.72383368772034 -3.9178935455130612, 73.81759659490918 -3.560334943301032 C73.86378253539226 -3.3231799003224043, 73.90996847587533 -3.0860248573437765, 74.0136585346312 -2.5535983205340735 C74.06021949185201 -2.1924807308304324, 74.10678044907283 -1.8313631411267912, 74.14481580718717 -1.536368414522911 C74.16233163313973 -1.2635452867916608, 74.17984745909227 -0.9907221590604104, 74.210529459211 -0.5128252411464826 C74.210529459211 -0.17722426613814168, 74.210529459211 0.15837670887019928, 74.210529459211 0.5128252411464788 C74.18509435694061 0.9089974898528383, 74.15965925467022 1.305169738559198, 74.14481580718717 1.5363684145229002 C74.10800904395929 1.8218344018008672, 74.0712022807314 2.107300389078834, 74.0136585346312 2.5535983205340624 C73.95665341179733 2.8463075782490255, 73.89964828896346 3.1390168359639885, 73.81759659490918 3.5603349433010285 C73.76043925908462 3.7783006369461165, 73.70328192326006 3.996266330591205, 73.55743564858658 4.552441386096513 C73.43376708612944 4.924911392307825, 73.31009852367231 5.297381398519138, 73.23424475279617 5.525840870740919 C73.15681391647864 5.717096533468588, 73.07938308016112 5.908352196196258, 72.849351968253 6.4765334899583005 C72.69845259524227 6.789879266744429, 72.54755322223154 7.103225043530558, 72.404338901968 7.400612643853361 C72.20715349492193 7.750735301251308, 72.00996808787583 8.100857958649256, 71.90103420808553 8.294281092968399 C71.75734333575585 8.51502885926863, 71.61365246342616 8.735776625568862, 71.3415060735513 9.15386656195471 C71.16211240600018 9.39423773337389, 70.98271873844907 9.63460890479307, 70.72805371948849 9.975836829739734 C70.57908917002283 10.150819065865079, 70.43012462055718 10.325801301990424, 70.06319795320505 10.756814244181063 C69.84137958436426 10.985859921635955, 69.61956121552346 11.214905599090846, 69.34967080965579 11.493589601563638 C69.06723071253762 11.750094224810889, 68.78479061541945 12.00659884805814, 68.59040432492462 12.183135333906142 C68.3163642666954 12.401674987831727, 68.0423242084662 12.620214641757313, 67.78851848785946 12.822617949887304 C67.57228856523923 12.973450583464691, 67.35605864261899 13.124283217042077, 66.94730841936878 13.409409678269446 C66.68331105572447 13.56944643153134, 66.41931369208017 13.729483184793233, 66.070230832063 13.94109926597423 C65.8632724387958 14.049069327178554, 65.65631404552859 14.157039388382879, 65.16088982588093 14.415501886438705 C64.94032909948818 14.513137577311287, 64.71976837309543 14.610773268183872, 64.22302207806999 14.830668117536346 C63.93793531546555 14.935582681487924, 63.652848552861116 15.040497245439502, 63.26048148837794 15.184891952170695 C63.022130446462725 15.255633290280981, 62.783779404547516 15.326374628391267, 62.27722334255213 15.476717808624468 C61.91541920342939 15.559297242386581, 61.55361506430663 15.641876676148694, 61.27728805922196 15.704946511857045 C61.04171518041736 15.743032108007213, 60.806142301612766 15.78111770415738, 60.2647845869521 15.868640221171937 C59.95644826662734 15.898385055164987, 59.64811194630258 15.928129889158038, 59.243873519691405 15.967126284005381 C58.99366985847458 15.975149828428723, 58.74346619725775 15.983173372852063, 58.21875 16 C58.21875 16, 58.21875 16, 58.21875 16 C21.320543401573048 16, -15.577663196853905 16, -58.21875 16 C-58.50203450016738 15.99091561745946, -58.78531900033477 15.981831234918923, -59.2438735196914 15.967126284005381 C-59.615761501293406 15.931250697680971, -59.98764948289541 15.89537511135656, -60.264784586952096 15.868640221171937 C-60.62568505994363 15.810292631523634, -60.986585532935166 15.751945041875333, -61.27728805922196 15.704946511857045 C-61.5268828196113 15.647978136556205, -61.776477580000645 15.591009761255364, -62.27722334255211 15.476717808624471 C-62.496325847257296 15.411689335320489, -62.71542835196248 15.346660862016506, -63.26048148837792 15.184891952170702 C-63.63521014114079 15.046988344000273, -64.00993879390366 14.909084735829843, -64.22302207806999 14.830668117536348 C-64.45251467800841 14.729078551199708, -64.68200727794684 14.627488984863065, -65.16088982588093 14.415501886438708 C-65.36460288172457 14.309224915689521, -65.56831593756822 14.202947944940334, -66.070230832063 13.941099265974234 C-66.32007936906464 13.78963961457086, -66.56992790606628 13.638179963167484, -66.94730841936877 13.409409678269457 C-67.22672030413499 13.214504043002089, -67.5061321889012 13.01959840773472, -67.78851848785945 12.822617949887308 C-68.01368317885668 12.64305510070108, -68.23884786985393 12.463492251514852, -68.5904043249246 12.183135333906154 C-68.76152034396591 12.027732292894608, -68.93263636300722 11.872329251883063, -69.34967080965578 11.493589601563649 C-69.60096210644402 11.234110706230627, -69.85225340323227 10.974631810897604, -70.06319795320505 10.756814244181069 C-70.30102910187564 10.477444243976853, -70.53886025054624 10.198074243772636, -70.72805371948847 9.97583682973974 C-70.95567660304172 9.67084290264967, -71.18329948659498 9.3658489755596, -71.34150607355129 9.15386656195472 C-71.54544493987628 8.840561698026065, -71.74938380620128 8.52725683409741, -71.90103420808553 8.29428109296841 C-72.04531234748615 8.038100646716785, -72.18959048688676 7.7819202004651595, -72.404338901968 7.400612643853366 C-72.52898335205423 7.141785776285331, -72.65362780214045 6.882958908717295, -72.849351968253 6.476533489958307 C-72.994241702016 6.118653046311271, -73.13913143577899 5.760772602664235, -73.23424475279616 5.525840870740931 C-73.30171003013064 5.322646204541656, -73.36917530746511 5.119451538342381, -73.55743564858656 4.552441386096519 C-73.6345711500883 4.258290288132566, -73.71170665159005 3.964139190168613, -73.81759659490918 3.5603349433010343 C-73.87008490100106 3.290818584926627, -73.92257320709295 3.02130222655222, -74.0136585346312 2.5535983205340753 C-74.04534159146468 2.307870788260888, -74.07702464829815 2.0621432559877007, -74.14481580718717 1.5363684145229202 C-74.16189080120434 1.270411600018542, -74.17896579522149 1.0044547855141635, -74.210529459211 0.5128252411464846 C-74.210529459211 0.17344652771410596, -74.210529459211 -0.16593218571827273, -74.210529459211 -0.5128252411464769 C-74.19483583943584 -0.7572660368066096, -74.17914221966066 -1.0017068324667424, -74.14481580718717 -1.5363684145228982 C-74.10995716309684 -1.806725174469634, -74.07509851900652 -2.07708193441637, -74.0136585346312 -2.5535983205340678 C-73.94453021965826 -2.908557607645585, -73.87540190468532 -3.2635168947571023, -73.81759659490918 -3.5603349433010267 C-73.71606256585301 -3.947528201218763, -73.61452853679684 -4.3347214591364995, -73.55743564858658 -4.552441386096511 C-73.43993775806946 -4.906326311587523, -73.32243986755235 -5.260211237078535, -73.23424475279617 -5.525840870740911 C-73.08369207997774 -5.897708883340378, -72.93313940715929 -6.269576895939846, -72.849351968253 -6.476533489958299 C-72.68343780775153 -6.821057794233946, -72.51752364725006 -7.165582098509593, -72.404338901968 -7.400612643853359 C-72.23579477366047 -7.699879810607047, -72.06725064535294 -7.999146977360736, -71.90103420808553 -8.294281092968404 C-71.73369528630612 -8.551358613613843, -71.56635636452668 -8.808436134259283, -71.3415060735513 -9.153866561954715 C-71.1414551911486 -9.421916519364023, -70.9414043087459 -9.689966476773332, -70.72805371948849 -9.975836829739734 C-70.51515602062639 -10.22591858104539, -70.3022583217643 -10.476000332351047, -70.06319795320505 -10.756814244181063 C-69.81484258494937 -11.013261552259996, -69.56648721669369 -11.269708860338929, -69.34967080965579 -11.493589601563633 C-69.06889779355367 -11.748580225940657, -68.78812477745157 -12.003570850317681, -68.59040432492463 -12.18313533390614 C-68.34614975134228 -12.377921856450882, -68.10189517775993 -12.572708378995625, -67.78851848785946 -12.822617949887302 C-67.61819856077089 -12.941425757993482, -67.44787863368231 -13.06023356609966, -66.9473084193688 -13.409409678269444 C-66.63058234628123 -13.601410885064132, -66.31385627319366 -13.79341209185882, -66.070230832063 -13.941099265974229 C-65.79825047559491 -14.082991243731902, -65.5262701191268 -14.224883221489575, -65.16088982588093 -14.415501886438705 C-64.89437890733483 -14.533478364313556, -64.62786798878872 -14.651454842188409, -64.22302207806999 -14.830668117536344 C-63.936222466211255 -14.936213025846907, -63.64942285435253 -15.041757934157472, -63.26048148837794 -15.184891952170695 C-62.98183804488132 -15.26759186357121, -62.703194601384695 -15.350291774971726, -62.27722334255213 -15.476717808624466 C-62.073553521739676 -15.52320411615512, -61.86988370092722 -15.569690423685776, -61.277288059221966 -15.704946511857043 C-60.896270449724206 -15.76654648412495, -60.51525284022644 -15.828146456392856, -60.2647845869521 -15.868640221171937 C-59.87317358038132 -15.906418463994678, -59.48156257381054 -15.944196706817419, -59.243873519691405 -15.967126284005381 C-59.030782206830835 -15.97395970765174, -58.81769089397027 -15.980793131298102, -58.21875000000001 -16 C-58.21875000000001 -16, -58.21875000000001 -16, -58.21875 -16" stroke="none" stroke-width="0" fill="#eee" style=""/><path d="M-58.21875 -16 C-18.725661015991143 -16, 20.767427968017714 -16, 58.21875 -16 M-58.21875 -16 C-29.85101451241408 -16, -1.4832790248281569 -16, 58.21875 -16 M58.21875 -16 C58.21875 -16, 58.21875 -16, 58.21875 -16 M58.21875 -16 C58.21875 -16, 58.21875 -16, 58.21875 -16 M58.21875 -16 C58.60616810693421 -15.987576255374218, 58.993586213868426 -15.975152510748437, 59.243873519691405 -15.967126284005381 M58.21875 -16 C58.54132083333463 -15.989655781220996, 58.86389166666926 -15.979311562441993, 59.243873519691405 -15.967126284005381 M59.243873519691405 -15.967126284005381 C59.60130610806593 -15.932645192080471, 59.95873869644045 -15.898164100155563, 60.264784586952096 -15.868640221171939 M59.243873519691405 -15.967126284005381 C59.46325102476901 -15.945963199930596, 59.6826285298466 -15.924800115855811, 60.264784586952096 -15.868640221171939 M60.264784586952096 -15.868640221171939 C60.59616254254059 -15.815065603186817, 60.92754049812909 -15.761490985201696, 61.27728805922195 -15.704946511857047 M60.264784586952096 -15.868640221171939 C60.64352570601151 -15.807408294223658, 61.02226682507093 -15.746176367275377, 61.27728805922195 -15.704946511857047 M61.27728805922195 -15.704946511857047 C61.66718058952715 -15.615956086101422, 62.057073119832346 -15.526965660345796, 62.27722334255211 -15.476717808624471 M61.27728805922195 -15.704946511857047 C61.5160828610226 -15.650443156627759, 61.75487766282326 -15.59593980139847, 62.27722334255211 -15.476717808624471 M62.27722334255211 -15.476717808624471 C62.47748021054503 -15.417282621373925, 62.677737078537945 -15.357847434123379, 63.260481488377934 -15.184891952170698 M62.27722334255211 -15.476717808624471 C62.60068425467716 -15.380716307786733, 62.924145166802205 -15.284714806948996, 63.260481488377934 -15.184891952170698 M63.260481488377934 -15.184891952170698 C63.643701643667534 -15.043863392575842, 64.02692179895713 -14.902834832980986, 64.22302207806999 -14.830668117536348 M63.260481488377934 -15.184891952170698 C63.62599984524733 -15.050377818028108, 63.99151820211672 -14.915863683885519, 64.22302207806999 -14.830668117536348 M64.22302207806999 -14.830668117536348 C64.51379964729111 -14.701949513252279, 64.80457721651223 -14.573230908968211, 65.16088982588093 -14.415501886438706 M64.22302207806999 -14.830668117536348 C64.49454181127342 -14.710474385993903, 64.76606154447686 -14.590280654451458, 65.16088982588093 -14.415501886438706 M65.16088982588093 -14.415501886438706 C65.41696423083253 -14.28190803339894, 65.67303863578414 -14.148314180359172, 66.070230832063 -13.941099265974232 M65.16088982588093 -14.415501886438706 C65.48480497409406 -14.24651556109347, 65.8087201223072 -14.077529235748235, 66.070230832063 -13.941099265974232 M66.070230832063 -13.941099265974232 C66.29338812549393 -13.80582000327858, 66.51654541892486 -13.67054074058293, 66.94730841936878 -13.409409678269451 M66.070230832063 -13.941099265974232 C66.28402191898955 -13.811497852703479, 66.4978130059161 -13.681896439432723, 66.94730841936878 -13.409409678269451 M66.94730841936878 -13.409409678269451 C67.18539179889412 -13.243333019175962, 67.42347517841947 -13.07725636008247, 67.78851848785945 -12.822617949887306 M66.94730841936878 -13.409409678269451 C67.14936541581451 -13.26846346445531, 67.35142241226023 -13.127517250641167, 67.78851848785945 -12.822617949887306 M67.78851848785945 -12.822617949887306 C68.0601746206147 -12.605979413088283, 68.33183075336996 -12.38934087628926, 68.5904043249246 -12.183135333906153 M67.78851848785945 -12.822617949887306 C68.00234353527465 -12.652098164697161, 68.21616858268986 -12.481578379507017, 68.5904043249246 -12.183135333906153 M68.5904043249246 -12.183135333906153 C68.78147727425906 -12.009607936833808, 68.97255022359352 -11.836080539761463, 69.34967080965578 -11.493589601563642 M68.5904043249246 -12.183135333906153 C68.8598454524421 -11.938436030916339, 69.1292865799596 -11.693736727926527, 69.34967080965578 -11.493589601563642 M69.34967080965578 -11.493589601563642 C69.55277832254811 -11.283864419065388, 69.75588583544042 -11.074139236567133, 70.06319795320505 -10.756814244181072 M69.34967080965578 -11.493589601563642 C69.60788027066808 -11.226967133677437, 69.86608973168039 -10.960344665791231, 70.06319795320505 -10.756814244181072 M70.06319795320505 -10.756814244181072 C70.27469305120115 -10.508380067662845, 70.48618814919726 -10.259945891144616, 70.72805371948847 -9.975836829739738 M70.06319795320505 -10.756814244181072 C70.31876544832481 -10.45661012221096, 70.57433294344457 -10.15640600024085, 70.72805371948847 -9.975836829739738 M70.72805371948847 -9.975836829739738 C70.8756651495788 -9.778050961096628, 71.02327657966912 -9.580265092453521, 71.34150607355129 -9.153866561954718 M70.72805371948847 -9.975836829739738 C70.89660256750595 -9.749996728512244, 71.06515141552345 -9.524156627284752, 71.34150607355129 -9.153866561954718 M71.34150607355129 -9.153866561954718 C71.53654697839329 -8.854231356301137, 71.7315878832353 -8.554596150647555, 71.90103420808553 -8.294281092968403 M71.34150607355129 -9.153866561954718 C71.49127603349044 -8.923779684622765, 71.64104599342959 -8.693692807290814, 71.90103420808553 -8.294281092968403 M71.90103420808553 -8.294281092968403 C72.07991750708956 -7.976655681688521, 72.2588008060936 -7.659030270408639, 72.404338901968 -7.400612643853364 M71.90103420808553 -8.294281092968403 C72.02377043377857 -8.076350495859886, 72.1465066594716 -7.85841989875137, 72.404338901968 -7.400612643853364 M72.404338901968 -7.400612643853364 C72.52477998746234 -7.150514152797977, 72.64522107295667 -6.90041566174259, 72.849351968253 -6.476533489958305 M72.404338901968 -7.400612643853364 C72.52462338437866 -7.15083934245201, 72.64490786678931 -6.9010660410506555, 72.849351968253 -6.476533489958305 M72.849351968253 -6.476533489958305 C72.98507819722094 -6.141287080319379, 73.12080442618887 -5.806040670680452, 73.23424475279616 -5.52584087074093 M72.849351968253 -6.476533489958305 C72.98438606037334 -6.142996671714512, 73.11942015249366 -5.809459853470719, 73.23424475279616 -5.52584087074093 M73.23424475279616 -5.52584087074093 C73.31378550467235 -5.2862767991876005, 73.39332625654855 -5.0467127276342705, 73.55743564858656 -4.552441386096524 M73.23424475279616 -5.52584087074093 C73.33772747164345 -5.214167409305045, 73.44121019049075 -4.902493947869159, 73.55743564858656 -4.552441386096524 M73.55743564858656 -4.552441386096524 C73.65845527858681 -4.167209754720955, 73.75947490858708 -3.7819781233453864, 73.81759659490918 -3.560334943301032 M73.55743564858656 -4.552441386096524 C73.63934535668466 -4.240084169226449, 73.72125506478275 -3.9277269523563754, 73.81759659490918 -3.560334943301032 M73.81759659490918 -3.560334943301032 C73.88169072653155 -3.2312251237196854, 73.94578485815391 -2.9021153041383383, 74.0136585346312 -2.5535983205340735 M73.81759659490918 -3.560334943301032 C73.87404322998518 -3.270493402186308, 73.93048986506119 -2.9806518610715838, 74.0136585346312 -2.5535983205340735 M74.0136585346312 -2.5535983205340735 C74.04435237157803 -2.315542982358155, 74.07504620852485 -2.077487644182236, 74.14481580718717 -1.536368414522911 M74.0136585346312 -2.5535983205340735 C74.04590116508723 -2.303530845744685, 74.07814379554326 -2.0534633709552956, 74.14481580718717 -1.536368414522911 M74.14481580718717 -1.536368414522911 C74.16194678707971 -1.269539574818504, 74.17907776697226 -1.0027107351140971, 74.210529459211 -0.5128252411464826 M74.14481580718717 -1.536368414522911 C74.16887910383122 -1.1615631457484954, 74.19294240047526 -0.7867578769740798, 74.210529459211 -0.5128252411464826 M74.210529459211 -0.5128252411464826 C74.210529459211 -0.307188939479369, 74.210529459211 -0.10155263781225538, 74.210529459211 0.5128252411464788 M74.210529459211 -0.5128252411464826 C74.210529459211 -0.21595374511982557, 74.210529459211 0.08091775090683151, 74.210529459211 0.5128252411464788 M74.210529459211 0.5128252411464788 C74.18617974735803 0.8920916579902305, 74.16183003550505 1.271358074833982, 74.14481580718717 1.5363684145229002 M74.210529459211 0.5128252411464788 C74.18516203249797 0.9079433884201848, 74.15979460578495 1.303061535693891, 74.14481580718717 1.5363684145229002 M74.14481580718717 1.5363684145229002 C74.09415449652217 1.929287535833376, 74.04349318585716 2.3222066571438518, 74.0136585346312 2.5535983205340624 M74.14481580718717 1.5363684145229002 C74.1105544227108 1.8020929468459377, 74.07629303823445 2.0678174791689754, 74.0136585346312 2.5535983205340624 M74.0136585346312 2.5535983205340624 C73.95205220082164 2.8699338241429406, 73.89044586701206 3.186269327751819, 73.81759659490918 3.5603349433010285 M74.0136585346312 2.5535983205340624 C73.94435335852586 2.9094657521808664, 73.87504818242051 3.26533318382767, 73.81759659490918 3.5603349433010285 M73.81759659490918 3.5603349433010285 C73.7433948239918 3.843298455059927, 73.66919305307442 4.126261966818825, 73.55743564858658 4.552441386096513 M73.81759659490918 3.5603349433010285 C73.73888704536637 3.8604885686423365, 73.66017749582355 4.160642193983644, 73.55743564858658 4.552441386096513 M73.55743564858658 4.552441386096513 C73.44878833596027 4.879669781128495, 73.34014102333397 5.206898176160477, 73.23424475279617 5.525840870740919 M73.55743564858658 4.552441386096513 C73.46163008329576 4.840992484208573, 73.36582451800496 5.129543582320632, 73.23424475279617 5.525840870740919 M73.23424475279617 5.525840870740919 C73.09211248301598 5.8769103250385015, 72.94998021323578 6.227979779336083, 72.849351968253 6.4765334899583005 M73.23424475279617 5.525840870740919 C73.0877186787642 5.887763106488796, 72.94119260473224 6.249685342236673, 72.849351968253 6.4765334899583005 M72.849351968253 6.4765334899583005 C72.75654010337375 6.669259313235832, 72.66372823849451 6.861985136513363, 72.404338901968 7.400612643853361 M72.849351968253 6.4765334899583005 C72.74001067952945 6.703583015521548, 72.6306693908059 6.930632541084796, 72.404338901968 7.400612643853361 M72.404338901968 7.400612643853361 C72.24063240339126 7.691290109156905, 72.07692590481452 7.98196757446045, 71.90103420808553 8.294281092968399 M72.404338901968 7.400612643853361 C72.28252145171345 7.616911862134765, 72.16070400145888 7.83321108041617, 71.90103420808553 8.294281092968399 M71.90103420808553 8.294281092968399 C71.70130569549477 8.601117722923007, 71.501577182904 8.907954352877617, 71.3415060735513 9.15386656195471 M71.90103420808553 8.294281092968399 C71.71768149647555 8.575960095098262, 71.53432878486555 8.857639097228123, 71.3415060735513 9.15386656195471 M71.3415060735513 9.15386656195471 C71.19364914890419 9.351981370938914, 71.04579222425706 9.550096179923116, 70.72805371948849 9.975836829739734 M71.3415060735513 9.15386656195471 C71.11581731062459 9.456268943607224, 70.89012854769788 9.758671325259739, 70.72805371948849 9.975836829739734 M70.72805371948849 9.975836829739734 C70.51634153805408 10.224526004816981, 70.30462935661967 10.473215179894229, 70.06319795320505 10.756814244181063 M70.72805371948849 9.975836829739734 C70.5118337979065 10.229821052891992, 70.29561387632454 10.48380527604425, 70.06319795320505 10.756814244181063 M70.06319795320505 10.756814244181063 C69.80216726312514 11.026349862706782, 69.54113657304525 11.295885481232501, 69.34967080965579 11.493589601563638 M70.06319795320505 10.756814244181063 C69.84772968816047 10.979302918113147, 69.63226142311589 11.201791592045229, 69.34967080965579 11.493589601563638 M69.34967080965579 11.493589601563638 C69.09947648987105 11.720809463013186, 68.84928217008631 11.948029324462734, 68.59040432492462 12.183135333906142 M69.34967080965579 11.493589601563638 C69.08887156765998 11.730440572774413, 68.82807232566418 11.967291543985185, 68.59040432492462 12.183135333906142 M68.59040432492462 12.183135333906142 C68.41797819123443 12.320640587071958, 68.24555205754422 12.458145840237774, 67.78851848785946 12.822617949887304 M68.59040432492462 12.183135333906142 C68.32454449389546 12.395151474324667, 68.05868466286631 12.607167614743192, 67.78851848785946 12.822617949887304 M67.78851848785946 12.822617949887304 C67.4682572755887 13.046018307682953, 67.14799606331793 13.269418665478602, 66.94730841936878 13.409409678269446 M67.78851848785946 12.822617949887304 C67.52707675764015 13.00498838325821, 67.26563502742081 13.187358816629116, 66.94730841936878 13.409409678269446 M66.94730841936878 13.409409678269446 C66.75538033073151 13.525757613496, 66.56345224209426 13.642105548722553, 66.070230832063 13.94109926597423 M66.94730841936878 13.409409678269446 C66.6125806656074 13.61232360967822, 66.27785291184601 13.815237541086995, 66.070230832063 13.94109926597423 M66.070230832063 13.94109926597423 C65.76094341282784 14.102454314481168, 65.45165599359268 14.263809362988106, 65.16088982588093 14.415501886438705 M66.070230832063 13.94109926597423 C65.73591493963418 14.115511652914797, 65.40159904720537 14.289924039855363, 65.16088982588093 14.415501886438705 M65.16088982588093 14.415501886438705 C64.84023569514646 14.557445958248023, 64.519581564412 14.69939003005734, 64.22302207806999 14.830668117536346 M65.16088982588093 14.415501886438705 C64.84845250959022 14.553808618236914, 64.53601519329949 14.692115350035122, 64.22302207806999 14.830668117536346 M64.22302207806999 14.830668117536346 C63.86954252129737 14.960751861957874, 63.51606296452475 15.0908356063794, 63.26048148837794 15.184891952170695 M64.22302207806999 14.830668117536346 C63.99495712212372 14.914598129533914, 63.766892166177456 14.998528141531482, 63.26048148837794 15.184891952170695 M63.26048148837794 15.184891952170695 C62.97824551004479 15.268658109053092, 62.696009531711645 15.35242426593549, 62.27722334255213 15.476717808624468 M63.26048148837794 15.184891952170695 C62.924870938628864 15.284499401680497, 62.58926038887979 15.3841068511903, 62.27722334255213 15.476717808624468 M62.27722334255213 15.476717808624468 C61.96965004012936 15.546919407799095, 61.662076737706585 15.61712100697372, 61.27728805922196 15.704946511857045 M62.27722334255213 15.476717808624468 C61.91411579810757 15.55959473614577, 61.551008253663 15.642471663667074, 61.27728805922196 15.704946511857045 M61.27728805922196 15.704946511857045 C60.96571602326235 15.755319062353768, 60.65414398730274 15.805691612850492, 60.2647845869521 15.868640221171937 M61.27728805922196 15.704946511857045 C61.063545152246704 15.739502807455805, 60.84980224527145 15.774059103054563, 60.2647845869521 15.868640221171937 M60.2647845869521 15.868640221171937 C59.967198345966644 15.897348007939987, 59.66961210498119 15.926055794708036, 59.243873519691405 15.967126284005381 M60.2647845869521 15.868640221171937 C59.91235150171649 15.902639017041817, 59.55991841648089 15.936637812911698, 59.243873519691405 15.967126284005381 M59.243873519691405 15.967126284005381 C58.89731382714827 15.978239778807719, 58.55075413460513 15.989353273610059, 58.21875 16 M59.243873519691405 15.967126284005381 C58.834641423036075 15.980249560823165, 58.425409326380745 15.993372837640946, 58.21875 16 M58.21875 16 C58.21875 16, 58.21875 16, 58.21875 16 M58.21875 16 C58.21875 16, 58.21875 16, 58.21875 16 M58.21875 16 C22.37930530605515 16, -13.460139387889697 16, -58.21875 16 M58.21875 16 C15.098162511848422 16, -28.022424976303157 16, -58.21875 16 M-58.21875 16 C-58.44818066880114 15.992642605011254, -58.677611337602286 15.985285210022505, -59.2438735196914 15.967126284005381 M-58.21875 16 C-58.582158347603645 15.988346201623788, -58.94556669520728 15.976692403247577, -59.2438735196914 15.967126284005381 M-59.2438735196914 15.967126284005381 C-59.6260174382553 15.930261319776825, -60.00816135681921 15.893396355548267, -60.264784586952096 15.868640221171937 M-59.2438735196914 15.967126284005381 C-59.62571300667053 15.930290687925675, -60.00755249364966 15.893455091845968, -60.264784586952096 15.868640221171937 M-60.264784586952096 15.868640221171937 C-60.51835322406892 15.827645210377039, -60.77192186118574 15.786650199582143, -61.27728805922196 15.704946511857045 M-60.264784586952096 15.868640221171937 C-60.551172066663696 15.822339314420242, -60.83755954637529 15.776038407668546, -61.27728805922196 15.704946511857045 M-61.27728805922196 15.704946511857045 C-61.66273274033559 15.616971278654466, -62.048177421449225 15.528996045451887, -62.27722334255211 15.476717808624471 M-61.27728805922196 15.704946511857045 C-61.56007133569712 15.640403074334925, -61.84285461217228 15.575859636812803, -62.27722334255211 15.476717808624471 M-62.27722334255211 15.476717808624471 C-62.657623867893314 15.363816929466308, -63.038024393234515 15.250916050308144, -63.26048148837792 15.184891952170702 M-62.27722334255211 15.476717808624471 C-62.51111994366879 15.407298525161355, -62.74501654478547 15.337879241698237, -63.26048148837792 15.184891952170702 M-63.26048148837792 15.184891952170702 C-63.59807393435319 15.060654811381443, -63.93566638032845 14.936417670592185, -64.22302207806999 14.830668117536348 M-63.26048148837792 15.184891952170702 C-63.623688761966 15.051228318039055, -63.98689603555409 14.91756468390741, -64.22302207806999 14.830668117536348 M-64.22302207806999 14.830668117536348 C-64.59299120094299 14.666893761584566, -64.962960323816 14.503119405632782, -65.16088982588093 14.415501886438708 M-64.22302207806999 14.830668117536348 C-64.46858343578523 14.721965388794676, -64.71414479350047 14.613262660053003, -65.16088982588093 14.415501886438708 M-65.16088982588093 14.415501886438708 C-65.38874470600594 14.29663014142551, -65.61659958613093 14.177758396412312, -66.070230832063 13.941099265974234 M-65.16088982588093 14.415501886438708 C-65.36476669060978 14.30913945669903, -65.56864355533862 14.202777026959355, -66.070230832063 13.941099265974234 M-66.070230832063 13.941099265974234 C-66.3191694543379 13.79019121022547, -66.56810807661277 13.639283154476706, -66.94730841936877 13.409409678269457 M-66.070230832063 13.941099265974234 C-66.26115559759432 13.825359551110687, -66.45208036312563 13.70961983624714, -66.94730841936877 13.409409678269457 M-66.94730841936877 13.409409678269457 C-67.19854626552669 13.234157032700757, -67.44978411168462 13.058904387132058, -67.78851848785945 12.822617949887308 M-66.94730841936877 13.409409678269457 C-67.13425354451896 13.279004851688724, -67.32119866966914 13.148600025107989, -67.78851848785945 12.822617949887308 M-67.78851848785945 12.822617949887308 C-68.0587567504749 12.607110126793668, -68.32899501309036 12.391602303700028, -68.5904043249246 12.183135333906154 M-67.78851848785945 12.822617949887308 C-67.98796323687401 12.663566069995863, -68.18740798588858 12.504514190104418, -68.5904043249246 12.183135333906154 M-68.5904043249246 12.183135333906154 C-68.7966970566037 11.995785733201776, -69.0029897882828 11.808436132497397, -69.34967080965578 11.493589601563649 M-68.5904043249246 12.183135333906154 C-68.8545062115268 11.943284988247047, -69.11860809812899 11.70343464258794, -69.34967080965578 11.493589601563649 M-69.34967080965578 11.493589601563649 C-69.52042041669799 11.317276613489119, -69.69117002374018 11.14096362541459, -70.06319795320505 10.756814244181069 M-69.34967080965578 11.493589601563649 C-69.56347747026886 11.272816670627336, -69.77728413088197 11.052043739691022, -70.06319795320505 10.756814244181069 M-70.06319795320505 10.756814244181069 C-70.27021751239837 10.513637290205958, -70.4772370715917 10.270460336230848, -70.72805371948847 9.97583682973974 M-70.06319795320505 10.756814244181069 C-70.31209178472274 10.464449387220164, -70.56098561624044 10.172084530259259, -70.72805371948847 9.97583682973974 M-70.72805371948847 9.97583682973974 C-70.88287150709846 9.768395098532967, -71.03768929470843 9.560953367326194, -71.34150607355129 9.15386656195472 M-70.72805371948847 9.97583682973974 C-70.95708271384396 9.668958842274012, -71.18611170819943 9.362080854808287, -71.34150607355129 9.15386656195472 M-71.34150607355129 9.15386656195472 C-71.48256788884574 8.937157733261275, -71.6236297041402 8.720448904567828, -71.90103420808553 8.29428109296841 M-71.34150607355129 9.15386656195472 C-71.51933457930777 8.880674223472841, -71.69716308506423 8.607481884990962, -71.90103420808553 8.29428109296841 M-71.90103420808553 8.29428109296841 C-72.08054300455456 7.97554504760096, -72.26005180102356 7.65680900223351, -72.404338901968 7.400612643853366 M-71.90103420808553 8.29428109296841 C-72.0675665948038 7.998585977117389, -72.23409898152207 7.7028908612663685, -72.404338901968 7.400612643853366 M-72.404338901968 7.400612643853366 C-72.50370031904133 7.19428653530687, -72.60306173611464 6.987960426760374, -72.849351968253 6.476533489958307 M-72.404338901968 7.400612643853366 C-72.57486133726712 7.046519158359123, -72.74538377256624 6.692425672864879, -72.849351968253 6.476533489958307 M-72.849351968253 6.476533489958307 C-72.93893991216154 6.255249536439156, -73.02852785607007 6.033965582920007, -73.23424475279616 5.525840870740931 M-72.849351968253 6.476533489958307 C-72.99214799727393 6.123824537503207, -73.13494402629485 5.771115585048107, -73.23424475279616 5.525840870740931 M-73.23424475279616 5.525840870740931 C-73.32459123782408 5.25373165259439, -73.41493772285199 4.98162243444785, -73.55743564858656 4.552441386096519 M-73.23424475279616 5.525840870740931 C-73.31373882330917 5.2864173960158585, -73.39323289382217 5.046993921290786, -73.55743564858656 4.552441386096519 M-73.55743564858656 4.552441386096519 C-73.62839055554542 4.281859573811175, -73.69934546250428 4.011277761525831, -73.81759659490918 3.5603349433010343 M-73.55743564858656 4.552441386096519 C-73.62323392051903 4.301524058066601, -73.68903219245149 4.050606730036684, -73.81759659490918 3.5603349433010343 M-73.81759659490918 3.5603349433010343 C-73.88643203883535 3.2068794871163426, -73.95526748276153 2.8534240309316514, -74.0136585346312 2.5535983205340753 M-73.81759659490918 3.5603349433010343 C-73.87820564051613 3.2491203038356873, -73.93881468612307 2.9379056643703403, -74.0136585346312 2.5535983205340753 M-74.0136585346312 2.5535983205340753 C-74.04600834387561 2.3026995882268557, -74.07835815312 2.051800855919636, -74.14481580718717 1.5363684145229202 M-74.0136585346312 2.5535983205340753 C-74.05946059641671 2.198366573965741, -74.10526265820224 1.843134827397407, -74.14481580718717 1.5363684145229202 M-74.14481580718717 1.5363684145229202 C-74.1682224687827 1.1717907666552905, -74.19162913037823 0.8072131187876607, -74.210529459211 0.5128252411464846 M-74.14481580718717 1.5363684145229202 C-74.15889044560079 1.317144560387228, -74.1729650840144 1.0979207062515361, -74.210529459211 0.5128252411464846 M-74.210529459211 0.5128252411464846 C-74.210529459211 0.2980430199662708, -74.210529459211 0.08326079878605691, -74.210529459211 -0.5128252411464769 M-74.210529459211 0.5128252411464846 C-74.210529459211 0.14893199281783942, -74.210529459211 -0.2149612555108058, -74.210529459211 -0.5128252411464769 M-74.210529459211 -0.5128252411464769 C-74.18630358172703 -0.890162837735601, -74.16207770424307 -1.2675004343247251, -74.14481580718717 -1.5363684145228982 M-74.210529459211 -0.5128252411464769 C-74.18447905601988 -0.918581298355229, -74.15842865282876 -1.324337355563981, -74.14481580718717 -1.5363684145228982 M-74.14481580718717 -1.5363684145228982 C-74.09587064978874 -1.9159773899905888, -74.04692549239032 -2.2955863654582793, -74.0136585346312 -2.5535983205340678 M-74.14481580718717 -1.5363684145228982 C-74.10696334614008 -1.8299446275902698, -74.06911088509298 -2.1235208406576414, -74.0136585346312 -2.5535983205340678 M-74.0136585346312 -2.5535983205340678 C-73.97294348718279 -2.7626614840533583, -73.93222843973437 -2.971724647572649, -73.81759659490918 -3.5603349433010267 M-74.0136585346312 -2.5535983205340678 C-73.96529311896367 -2.80194450795263, -73.91692770329614 -3.050290695371192, -73.81759659490918 -3.5603349433010267 M-73.81759659490918 -3.5603349433010267 C-73.72417699270893 -3.9165843748022833, -73.63075739050869 -4.27283380630354, -73.55743564858658 -4.552441386096511 M-73.81759659490918 -3.5603349433010267 C-73.72349935643764 -3.9191684955941204, -73.62940211796611 -4.278002047887214, -73.55743564858658 -4.552441386096511 M-73.55743564858658 -4.552441386096511 C-73.47018556130726 -4.815224747568244, -73.38293547402795 -5.0780081090399785, -73.23424475279617 -5.525840870740911 M-73.55743564858658 -4.552441386096511 C-73.47011542604042 -4.815435983817444, -73.38279520349425 -5.0784305815383775, -73.23424475279617 -5.525840870740911 M-73.23424475279617 -5.525840870740911 C-73.15224240557242 -5.728388253791106, -73.07024005834867 -5.930935636841301, -72.849351968253 -6.476533489958299 M-73.23424475279617 -5.525840870740911 C-73.09628522286577 -5.8666035769350415, -72.95832569293539 -6.207366283129173, -72.849351968253 -6.476533489958299 M-72.849351968253 -6.476533489958299 C-72.72595952824327 -6.732760531813779, -72.60256708823354 -6.988987573669259, -72.404338901968 -7.400612643853359 M-72.849351968253 -6.476533489958299 C-72.75796932898984 -6.666291495663507, -72.66658668972667 -6.856049501368716, -72.404338901968 -7.400612643853359 M-72.404338901968 -7.400612643853359 C-72.27068842796965 -7.637922594015463, -72.13703795397129 -7.875232544177567, -71.90103420808553 -8.294281092968404 M-72.404338901968 -7.400612643853359 C-72.21193047868974 -7.742253282849489, -72.01952205541147 -8.08389392184562, -71.90103420808553 -8.294281092968404 M-71.90103420808553 -8.294281092968404 C-71.69427850764689 -8.611913370521513, -71.48752280720824 -8.929545648074622, -71.3415060735513 -9.153866561954715 M-71.90103420808553 -8.294281092968404 C-71.7345999422961 -8.549968819079078, -71.56816567650667 -8.805656545189752, -71.3415060735513 -9.153866561954715 M-71.3415060735513 -9.153866561954715 C-71.1832678200349 -9.365891405865236, -71.0250295665185 -9.577916249775756, -70.72805371948849 -9.975836829739734 M-71.3415060735513 -9.153866561954715 C-71.17432749342002 -9.377870629048651, -71.00714891328876 -9.601874696142588, -70.72805371948849 -9.975836829739734 M-70.72805371948849 -9.975836829739734 C-70.5473323124773 -10.188122477754456, -70.36661090546609 -10.400408125769177, -70.06319795320505 -10.756814244181063 M-70.72805371948849 -9.975836829739734 C-70.49296189270808 -10.251989066579892, -70.25787006592768 -10.52814130342005, -70.06319795320505 -10.756814244181063 M-70.06319795320505 -10.756814244181063 C-69.86668642721864 -10.959728528658363, -69.67017490123223 -11.162642813135662, -69.34967080965579 -11.493589601563633 M-70.06319795320505 -10.756814244181063 C-69.80454246279294 -11.023897274042275, -69.54588697238081 -11.290980303903485, -69.34967080965579 -11.493589601563633 M-69.34967080965579 -11.493589601563633 C-69.10734630993393 -11.713662300656104, -68.86502181021208 -11.933734999748573, -68.59040432492463 -12.18313533390614 M-69.34967080965579 -11.493589601563633 C-69.05234343366942 -11.763614457583186, -68.75501605768304 -12.033639313602738, -68.59040432492463 -12.18313533390614 M-68.59040432492463 -12.18313533390614 C-68.42047640624254 -12.318648327083281, -68.25054848756045 -12.454161320260422, -67.78851848785946 -12.822617949887302 M-68.59040432492463 -12.18313533390614 C-68.41387809674185 -12.323910303321686, -68.23735186855909 -12.46468527273723, -67.78851848785946 -12.822617949887302 M-67.78851848785946 -12.822617949887302 C-67.60616701013778 -12.949818446877703, -67.4238155324161 -13.077018943868106, -66.9473084193688 -13.409409678269444 M-67.78851848785946 -12.822617949887302 C-67.51302279606062 -13.014791818469893, -67.23752710426177 -13.206965687052485, -66.9473084193688 -13.409409678269444 M-66.9473084193688 -13.409409678269444 C-66.64236277559672 -13.594269519583591, -66.33741713182465 -13.779129360897738, -66.070230832063 -13.941099265974229 M-66.9473084193688 -13.409409678269444 C-66.72628692329383 -13.54339420805657, -66.50526542721886 -13.677378737843698, -66.070230832063 -13.941099265974229 M-66.070230832063 -13.941099265974229 C-65.73080718876756 -14.118176363270248, -65.3913835454721 -14.295253460566267, -65.16088982588093 -14.415501886438705 M-66.070230832063 -13.941099265974229 C-65.82669313717273 -14.06815272540515, -65.58315544228243 -14.195206184836072, -65.16088982588093 -14.415501886438705 M-65.16088982588093 -14.415501886438705 C-64.95036848958341 -14.508693437124053, -64.73984715328591 -14.601884987809402, -64.22302207806999 -14.830668117536344 M-65.16088982588093 -14.415501886438705 C-64.96394057205684 -14.502685478814591, -64.76699131823275 -14.589869071190478, -64.22302207806999 -14.830668117536344 M-64.22302207806999 -14.830668117536344 C-63.94838674136118 -14.931736460146407, -63.673751404652386 -15.032804802756472, -63.26048148837794 -15.184891952170695 M-64.22302207806999 -14.830668117536344 C-64.02525349715232 -14.90344878346677, -63.827484916234646 -14.976229449397193, -63.26048148837794 -15.184891952170695 M-63.26048148837794 -15.184891952170695 C-63.03325913244479 -15.25233035469717, -62.80603677651163 -15.319768757223645, -62.27722334255213 -15.476717808624466 M-63.26048148837794 -15.184891952170695 C-63.02581990311097 -15.254538278914135, -62.791158317844 -15.324184605657573, -62.27722334255213 -15.476717808624466 M-62.27722334255213 -15.476717808624466 C-62.024717280247984 -15.534350669589342, -61.77221121794383 -15.591983530554218, -61.277288059221966 -15.704946511857043 M-62.27722334255213 -15.476717808624466 C-62.071005065252955 -15.523785784717981, -61.86478678795378 -15.570853760811497, -61.277288059221966 -15.704946511857043 M-61.277288059221966 -15.704946511857043 C-61.04835110837591 -15.741959262637264, -60.819414157529856 -15.778972013417485, -60.2647845869521 -15.868640221171937 M-61.277288059221966 -15.704946511857043 C-60.89394864804121 -15.766921855015214, -60.51060923686046 -15.828897198173387, -60.2647845869521 -15.868640221171937 M-60.2647845869521 -15.868640221171937 C-59.94253409633302 -15.899727338439043, -59.62028360571394 -15.930814455706148, -59.243873519691405 -15.967126284005381 M-60.2647845869521 -15.868640221171937 C-59.93835566731832 -15.900130426460795, -59.611926747684535 -15.931620631749652, -59.243873519691405 -15.967126284005381 M-59.243873519691405 -15.967126284005381 C-58.88330611977925 -15.978688978718695, -58.52273871986709 -15.990251673432011, -58.21875000000001 -16 M-59.243873519691405 -15.967126284005381 C-58.95278453947745 -15.976460941030515, -58.6616955592635 -15.985795598055647, -58.21875000000001 -16 M-58.21875000000001 -16 C-58.21875000000001 -16, -58.21875000000001 -16, -58.21875 -16 M-58.21875000000001 -16 C-58.21875000000001 -16, -58.21875 -16, -58.21875 -16" stroke="#999" stroke-width="1.3" fill="none" stroke-dasharray="0 0" style=""/></g><g class="label" style="" transform="translate(0, -8.5)"><rect/><g><rect class="background" style="stroke: none"/><text y="-10.1" style=""><tspan class="text-outer-tspan row" x="0" y="-0.1em" dy="1.1em"><tspan font-style="normal" class="text-inner-tspan" font-weight="normal">ISBN</tspan><tspan font-style="normal" class="text-inner-tspan" font-weight="normal"> eingegeben</tspan></tspan></text></g></g></g><g class="node default" id="my-svg-flowchart-B-1" data-look="classic" transform="translate(205.6597671508789, 122.29999923706055)"><rect class="basic label-container" style="" x="-94.921875" y="-32.29999923706055" width="189.84375" height="64.5999984741211"/><g class="label" style="" transform="translate(0, -17.299999237060547)"><rect/><g><rect class="background" style="stroke: none"/><text y="-10.1" style=""><tspan class="text-outer-tspan row" x="0" y="-0.1em" dy="1.1em"><tspan font-style="normal" class="text-inner-tspan" font-weight="normal">Normalisieren</tspan><tspan font-style="normal" class="text-inner-tspan" font-weight="normal"> und</tspan></tspan><tspan class="text-outer-tspan row" x="0" y="1em" dy="1.1em"><tspan font-style="normal" class="text-inner-tspan" font-weight="normal">validieren</tspan></tspan></text></g></g></g><g class="node default" id="my-svg-flowchart-C-3" data-look="classic" transform="translate(205.6597671508789, 269.0992202758789)"><polygon points="64.49921798706055,0 128.9984359741211,-64.49921798706055 64.49921798706055,-128.9984359741211 0,-64.49921798706055" class="label-container" transform="translate(-63.99921798706055, 64.49921798706055)"/><g class="label" style="" transform="translate(0, -17.299999237060547)"><rect/><g><rect class="background" style="stroke: none"/><text y="-10.1" style=""><tspan class="text-outer-tspan row" x="0" y="-0.1em" dy="1.1em"><tspan font-style="normal" class="text-inner-tspan" font-weight="normal">Prüfziffer</tspan></tspan><tspan class="text-outer-tspan row" x="0" y="1em" dy="1.1em"><tspan font-style="normal" class="text-inner-tspan" font-weight="normal">gültig?</tspan></tspan></text></g></g></g><g class="node default" id="my-svg-flowchart-D-5" data-look="classic" transform="translate(287.4835968017578, 1017.7820434570312)"><rect class="basic label-container" style="fill:#ffebee !important;stroke:#c62828 !important" x="-87.375" y="-23.5" width="174.75" height="47"/><g class="label" style="" transform="translate(0, -8.5)"><rect/><g><rect class="background" style="stroke: none"/><text y="-10.1" style=""><tspan class="text-outer-tspan row" x="0" y="-0.1em" dy="1.1em"><tspan font-style="normal" class="text-inner-tspan" font-weight="normal">Fehler</tspan><tspan font-style="normal" class="text-inner-tspan" font-weight="normal"> anzeigen</tspan></tspan></text></g></g></g><g class="node default" id="my-svg-flowchart-E-7" data-look="classic" transform="translate(337.3371124267578, 1231.2765769958496)"><rect class="basic label-container" style="fill:#fff3e0 !important;stroke:#e65100 !important" x="-94.1015625" y="-32.29999923706055" width="188.203125" height="64.5999984741211"/><g class="label" style="" transform="translate(0, -17.299999237060547)"><rect/><g><rect class="background" style="stroke: none"/><text y="-10.1" style=""><tspan class="text-outer-tspan row" x="0" y="-0.1em" dy="1.1em"><tspan font-style="normal" class="text-inner-tspan" font-weight="normal">Manuelle</tspan><tspan font-style="normal" class="text-inner-tspan" font-weight="normal"> Eingabe</tspan></tspan><tspan class="text-outer-tspan row" x="0" y="1em" dy="1.1em"><tspan font-style="normal" class="text-inner-tspan" font-weight="normal">(immer</tspan><tspan font-style="normal" class="text-inner-tspan" font-weight="normal"> verfügbar)</tspan></tspan></text></g></g></g><g class="node default" id="my-svg-flowchart-F-9" data-look="classic" transform="translate(123.8359375, 428.0984420776367)"><rect class="basic label-container" style="" x="-110.0546875" y="-23.5" width="220.109375" height="47"/><g class="label" style="" transform="translate(0, -8.5)"><rect/><g><rect class="background" style="stroke: none"/><text y="-10.1" style=""><tspan class="text-outer-tspan row" x="0" y="-0.1em" dy="1.1em"><tspan font-style="normal" class="text-inner-tspan" font-weight="normal">Open</tspan><tspan font-style="normal" class="text-inner-tspan" font-weight="normal"> Library</tspan><tspan font-style="normal" class="text-inner-tspan" font-weight="normal"> abfragen</tspan></tspan></text></g></g></g><g class="node default" id="my-svg-flowchart-G-11" data-look="classic" transform="translate(123.8359375, 611.7929763793945)"><polygon points="110.19453048706055,0 220.3890609741211,-110.19453048706055 110.19453048706055,-220.3890609741211 0,-110.19453048706055" class="label-container" transform="translate(-109.69453048706055, 110.19453048706055)"/><g class="label" style="" transform="translate(0, -17.299999237060547)"><rect/><g><rect class="background" style="stroke: none"/><text y="-10.1" style=""><tspan class="text-outer-tspan row" x="0" y="-0.1em" dy="1.1em"><tspan font-style="normal" class="text-inner-tspan" font-weight="normal">Nützliche</tspan></tspan><tspan class="text-outer-tspan row" x="0" y="1em" dy="1.1em"><tspan font-style="normal" class="text-inner-tspan" font-weight="normal">Metadaten</tspan><tspan font-style="normal" class="text-inner-tspan" font-weight="normal"> gefunden?</tspan></tspan></text></g></g></g><g class="node default" id="my-svg-flowchart-H-13" data-look="classic" transform="translate(123.8359375, 825.2875099182129)"><rect class="basic label-container" style="fill:#e8f5e9 !important;stroke:#2e7d32 !important" x="-115.8359375" y="-32.29999923706055" width="231.671875" height="64.5999984741211"/><g class="label" style="" transform="translate(0, -17.299999237060547)"><rect/><g><rect class="background" style="stroke: none"/><text y="-10.1" style=""><tspan class="text-outer-tspan row" x="0" y="-0.1em" dy="1.1em"><tspan font-style="normal" class="text-inner-tspan" font-weight="normal">Metadaten</tspan><tspan font-style="normal" class="text-inner-tspan" font-weight="normal"> zurückgeben</tspan></tspan><tspan class="text-outer-tspan row" x="0" y="1em" dy="1.1em"><tspan font-style="normal" class="text-inner-tspan" font-weight="normal">Quelle:</tspan><tspan font-style="normal" class="text-inner-tspan" font-weight="normal"> Open</tspan><tspan font-style="normal" class="text-inner-tspan" font-weight="normal"> Library</tspan></tspan></text></g></g></g><g class="node default" id="my-svg-flowchart-I-15" data-look="classic" transform="translate(573.3054733276367, 825.2875099182129)"><rect class="basic label-container" style="" x="-117.171875" y="-32.29999923706055" width="234.34375" height="64.5999984741211"/><g class="label" style="" transform="translate(0, -17.299999237060547)"><rect/><g><rect class="background" style="stroke: none"/><text y="-10.1" style=""><tspan class="text-outer-tspan row" x="0" y="-0.1em" dy="1.1em"><tspan font-style="normal" class="text-inner-tspan" font-weight="normal">Let</tspan><tspan font-style="normal" class="text-inner-tspan" font-weight="normal"> Books</tspan></tspan><tspan class="text-outer-tspan row" x="0" y="1em" dy="1.1em"><tspan font-style="normal" class="text-inner-tspan" font-weight="normal">Metadaten-API</tspan><tspan font-style="normal" class="text-inner-tspan" font-weight="normal"> abfragen</tspan></tspan></text></g></g></g><g class="node default" id="my-svg-flowchart-J-17" data-look="classic" transform="translate(573.3054733276367, 1017.7820434570312)"><polygon points="110.19453048706055,0 220.3890609741211,-110.19453048706055 110.19453048706055,-220.3890609741211 0,-110.19453048706055" class="label-container" transform="translate(-109.69453048706055, 110.19453048706055)"/><g class="label" style="" transform="translate(0, -17.299999237060547)"><rect/><g><rect class="background" style="stroke: none"/><text y="-10.1" style=""><tspan class="text-outer-tspan row" x="0" y="-0.1em" dy="1.1em"><tspan font-style="normal" class="text-inner-tspan" font-weight="normal">Nützliche</tspan></tspan><tspan class="text-outer-tspan row" x="0" y="1em" dy="1.1em"><tspan font-style="normal" class="text-inner-tspan" font-weight="normal">Metadaten</tspan><tspan font-style="normal" class="text-inner-tspan" font-weight="normal"> gefunden?</tspan></tspan></text></g></g></g><g class="node default" id="my-svg-flowchart-K-19" data-look="classic" transform="translate(628.4089889526367, 1231.2765769958496)"><rect class="basic label-container" style="fill:#e8f5e9 !important;stroke:#2e7d32 !important" x="-80.265625" y="-32.29999923706055" width="160.53125" height="64.5999984741211"/><g class="label" style="" transform="translate(0, -17.299999237060547)"><rect/><g><rect class="background" style="stroke: none"/><text y="-10.1" style=""><tspan class="text-outer-tspan row" x="0" y="-0.1em" dy="1.1em"><tspan font-style="normal" class="text-inner-tspan" font-weight="normal">Metadaten</tspan></tspan><tspan class="text-outer-tspan row" x="0" y="1em" dy="1.1em"><tspan font-style="normal" class="text-inner-tspan" font-weight="normal">Let</tspan><tspan font-style="normal" class="text-inner-tspan" font-weight="normal"> Books</tspan><tspan font-style="normal" class="text-inner-tspan" font-weight="normal"> API</tspan></tspan></text></g></g></g></g></g></g><defs><filter id="my-svg-drop-shadow" height="130%" width="130%"><feDropShadow dx="4" dy="4" stdDeviation="0" flood-opacity="0.06" flood-color="#000000"/></filter></defs><defs><filter id="my-svg-drop-shadow-small" height="150%" width="150%"><feDropShadow dx="2" dy="2" stdDeviation="0" flood-opacity="0.06" flood-color="#000000"/></filter></defs><linearGradient id="my-svg-gradient" gradientUnits="objectBoundingBox" x1="0%" y1="0%" x2="100%" y2="0%"><stop offset="0%" stop-color="hsl(0, 0%, 83.3333333333%)" stop-opacity="1"/><stop offset="100%" stop-color="hsl(0, 0%, 88.9215686275%)" stop-opacity="1"/></linearGradient><text text-anchor="middle" x="358.3373107910156" y="-25" class="flowchartTitleText">ISBN-Metadaten-Suchkette</text></svg>