<svg id="my-svg" width="100%" xmlns="http://www.w3.org/2000/svg" xmlns:xlink="http://www.w3.org/1999/xlink" class="flowchart" style="max-width: 790.413px; background-color: transparent;" viewBox="0 -49 790.4129028320312 1320.5765380859375" role="graphics-document document" aria-roledescription="flowchart-v2"><style>#my-svg{font-family:"trebuchet ms",verdana,arial,sans-serif;font-size:16px;fill:#000000;}@keyframes edge-animation-frame{from{stroke-dashoffset:0;}}@keyframes dash{to{stroke-dashoffset:0;}}#my-svg .edge-animation-slow{stroke-dasharray:9,5!important;stroke-dashoffset:900;animation:dash 50s linear infinite;stroke-linecap:round;}#my-svg .edge-animation-fast{stroke-dasharray:9,5!important;stroke-dashoffset:900;animation:dash 20s linear infinite;stroke-linecap:round;}#my-svg .error-icon{fill:#552222;}#my-svg .error-text{fill:#552222;stroke:#552222;}#my-svg .edge-thickness-normal{stroke-width:1px;}#my-svg .edge-thickness-thick{stroke-width:3.5px;}#my-svg .edge-pattern-solid{stroke-dasharray:0;}#my-svg .edge-thickness-invisible{stroke-width:0;fill:none;}#my-svg .edge-pattern-dashed{stroke-dasharray:3;}#my-svg .edge-pattern-dotted{stroke-dasharray:2;}#my-svg .marker{fill:#666;stroke:#666;}#my-svg .marker.cross{stroke:#666;}#my-svg svg{font-family:"trebuchet ms",verdana,arial,sans-serif;font-size:16px;}#my-svg p{margin:0;}#my-svg .label{font-family:"trebuchet ms",verdana,arial,sans-serif;color:#000000;}#my-svg .cluster-label text{fill:#333;}#my-svg .cluster-label span{color:#333;}#my-svg .cluster-label span p{background-color:transparent;}#my-svg .label text,#my-svg span{fill:#000000;color:#000000;}#my-svg .node rect,#my-svg .node circle,#my-svg .node ellipse,#my-svg .node polygon,#my-svg .node path{fill:#eee;stroke:#999;stroke-width:1px;}#my-svg .rough-node .label text,#my-svg .node .label text,#my-svg .image-shape .label,#my-svg .icon-shape .label{text-anchor:middle;}#my-svg .node .katex path{fill:#000;stroke:#000;stroke-width:1px;}#my-svg .rough-node .label,#my-svg .node .label,#my-svg .image-shape .label,#my-svg .icon-shape .label{text-align:center;}#my-svg .node.clickable{cursor:pointer;}#my-svg .root .anchor path{fill:#666!important;stroke-width:0;stroke:#666;}#my-svg .arrowheadPath{fill:#333333;}#my-svg .edgePath .path{stroke:#666;stroke-width:1px;}#my-svg .flowchart-link{stroke:#666;fill:none;}#my-svg .edgeLabel{background-color:white;text-align:center;}#my-svg .edgeLabel p{background-color:white;}#my-svg .edgeLabel rect{opacity:0.5;background-color:white;fill:white;}#my-svg .labelBkg{background-color:rgba(255, 255, 255, 0.5);}#my-svg .cluster rect{fill:hsl(0, 0%, 98.9215686275%);stroke:#707070;stroke-width:1px;}#my-svg .cluster text{fill:#333;}#my-svg .cluster span{color:#333;}#my-svg div.mermaidTooltip{position:absolute;text-align:center;max-width:200px;padding:2px;font-family:"trebuchet ms",verdana,arial,sans-serif;font-size:12px;background:hsl(-160, 0%, 93.3333333333%);border:1px solid #707070;border-radius:2px;pointer-events:none;z-index:100;}#my-svg .flowchartTitleText{text-anchor:middle;font-size:18px;fill:#000000;}#my-svg rect.text{fill:none;stroke-width:0;}#my-svg .icon-shape,#my-svg .image-shape{background-color:white;text-align:center;}#my-svg .icon-shape p,#my-svg .image-shape p{background-color:white;padding:2px;}#my-svg .icon-shape .label rect,#my-svg .image-shape .label rect{opacity:0.5;background-color:white;fill:white;}#my-svg .label-icon{display:inline-block;height:1em;overflow:visible;vertical-align:-0.125em;}#my-svg .node .label-icon path{fill:currentColor;stroke:revert;stroke-width:revert;}#my-svg .node .neo-node{stroke:#999;}#my-svg [data-look="neo"].node rect,#my-svg [data-look="neo"].cluster rect,#my-svg [data-look="neo"].node polygon{stroke:url(#my-svg-gradient);filter:drop-shadow( 1px 2px 2px rgba(185,185,185,1));}#my-svg [data-look="neo"].node path{stroke:url(#my-svg-gradient);stroke-width:1px;}#my-svg [data-look="neo"].node .outer-path{filter:drop-shadow( 1px 2px 2px rgba(185,185,185,1));}#my-svg [data-look="neo"].node .neo-line path{stroke:#999;filter:none;}#my-svg [data-look="neo"].node circle{stroke:url(#my-svg-gradient);filter:drop-shadow( 1px 2px 2px rgba(185,185,185,1));}#my-svg [data-look="neo"].node circle .state-start{fill:#000000;}#my-svg [data-look="neo"].icon-shape .icon{fill:url(#my-svg-gradient);filter:drop-shadow( 1px 2px 2px rgba(185,185,185,1));}#my-svg [data-look="neo"].icon-shape .icon-neo path{stroke:url(#my-svg-gradient);filter:drop-shadow( 1px 2px 2px rgba(185,185,185,1));}#my-svg :root{--mermaid-font-family:"trebuchet ms",verdana,arial,sans-serif;}</style><g><marker id="my-svg_flowchart-v2-pointEnd" class="marker flowchart-v2" viewBox="0 0 10 10" refX="5" refY="5" markerUnits="userSpaceOnUse" markerWidth="8" markerHeight="8" orient="auto"><path d="M 0 0 L 10 5 L 0 10 z" class="arrowMarkerPath" style="stroke-width: 1; stroke-dasharray: 1, 0;"/></marker><marker id="my-svg_flowchart-v2-pointStart" class="marker flowchart-v2" viewBox="0 0 10 10" refX="4.5" refY="5" markerUnits="userSpaceOnUse" markerWidth="8" markerHeight="8" orient="auto"><path d="M 0 5 L 10 10 L 10 0 z" class="arrowMarkerPath" style="stroke-width: 1; stroke-dasharray: 1, 0;"/></marker><marker id="my-svg_flowchart-v2-pointEnd-margin" class="marker flowchart-v2" viewBox="0 0 11.5 14" refX="11.5" refY="7" markerUnits="userSpaceOnUse" markerWidth="10.5" markerHeight="14" orient="auto"><path d="M 0 0 L 11.5 7 L 0 14 z" class="arrowMarkerPath" style="stroke-width: 0; stroke-dasharray: 1, 0;"/></marker><marker id="my-svg_flowchart-v2-pointStart-margin" class="marker flowchart-v2" viewBox="0 0 11.5 14" refX="1" refY="7" markerUnits="userSpaceOnUse" markerWidth="11.5" markerHeight="14" orient="auto"><polygon points="0,7 11.5,14 11.5,0" class="arrowMarkerPath" style="stroke-width: 0; stroke-dasharray: 1, 0;"/></marker><marker id="my-svg_flowchart-v2-circleEnd" class="marker flowchart-v2" viewBox="0 0 10 10" refX="11" refY="5" markerUnits="userSpaceOnUse" markerWidth="11" markerHeight="11" orient="auto"><circle cx="5" cy="5" r="5" class="arrowMarkerPath" style="stroke-width: 1; stroke-dasharray: 1, 0;"/></marker><marker id="my-svg_flowchart-v2-circleStart" class="marker flowchart-v2" viewBox="0 0 10 10" refX="-1" refY="5" markerUnits="userSpaceOnUse" markerWidth="11" markerHeight="11" orient="auto"><circle cx="5" cy="5" r="5" class="arrowMarkerPath" style="stroke-width: 1; stroke-dasharray: 1, 0;"/></marker><marker id="my-svg_flowchart-v2-circleEnd-margin" class="marker flowchart-v2" viewBox="0 0 10 10" refY="5" refX="12.25" markerUnits="userSpaceOnUse" markerWidth="14" markerHeight="14" orient="auto"><circle cx="5" cy="5" r="5" class="arrowMarkerPath" style="stroke-width: 0; stroke-dasharray: 1, 0;"/></marker><marker id="my-svg_flowchart-v2-circleStart-margin" class="marker flowchart-v2" viewBox="0 0 10 10" refX="-2" refY="5" markerUnits="userSpaceOnUse" markerWidth="14" markerHeight="14" orient="auto"><circle cx="5" cy="5" r="5" class="arrowMarkerPath" style="stroke-width: 0; stroke-dasharray: 1, 0;"/></marker><marker id="my-svg_flowchart-v2-crossEnd" class="marker cross flowchart-v2" viewBox="0 0 11 11" refX="12" refY="5.2" markerUnits="userSpaceOnUse" markerWidth="11" markerHeight="11" orient="auto"><path d="M 1,1 l 9,9 M 10,1 l -9,9" class="arrowMarkerPath" style="stroke-width: 2; stroke-dasharray: 1, 0;"/></marker><marker id="my-svg_flowchart-v2-crossStart" class="marker cross flowchart-v2" viewBox="0 0 11 11" refX="-1" refY="5.2" markerUnits="userSpaceOnUse" markerWidth="11" markerHeight="11" orient="auto"><path d="M 1,1 l 9,9 M 10,1 l -9,9" class="arrowMarkerPath" style="stroke-width: 2; stroke-dasharray: 1, 0;"/></marker><marker id="my-svg_flowchart-v2-crossEnd-margin" class="marker cross flowchart-v2" viewBox="0 0 15 15" refX="17.7" refY="7.5" markerUnits="userSpaceOnUse" markerWidth="12" markerHeight="12" orient="auto"><path d="M 1,1 L 14,14 M 1,14 L 14,1" class="arrowMarkerPath" style="stroke-width: 2.5;"/></marker><marker id="my-svg_flowchart-v2-crossStart-margin" class="marker cross flowchart-v2" viewBox="0 0 15 15" refX="-3.5" refY="7.5" markerUnits="userSpaceOnUse" markerWidth="12" markerHeight="12" orient="auto"><path d="M 1,1 L 14,14 M 1,14 L 14,1" class="arrowMarkerPath" style="stroke-width: 2.5; stroke-dasharray: 1, 0;"/></marker><g class="root"><g class="clusters"/><g class="edgePaths"><path d="M206.16,40.5L206.076,44.583C205.993,48.667,205.826,56.833,205.743,64.417C205.66,72,205.66,79,205.66,82.5L205.66,86" id="my-svg-L_A_B_0" class="edge-thickness-normal edge-pattern-solid edge-thickness-normal edge-pattern-solid flowchart-link" style=";" data-edge="true" data-et="edge" data-id="L_A_B_0" data-points="W3sieCI6MjA2LjE1OTc2NzE1MDg3ODksInkiOjQwLjUwMDAwMDAwMDAwMDAxfSx7IngiOjIwNS42NTk3NjcxNTA4Nzg5LCJ5Ijo2NX0seyJ4IjoyMDUuNjU5NzY3MTUwODc4OSwieSI6OTB9XQ==" data-look="classic" marker-end="url(#my-svg_flowchart-v2-pointEnd)"/><path d="M205.66,154.6L205.66,158.767C205.66,162.933,205.66,171.267,205.66,178.933C205.66,186.6,205.66,193.6,205.66,197.1L205.66,200.6" id="my-svg-L_B_C_0" class="edge-thickness-normal edge-pattern-solid edge-thickness-normal edge-pattern-solid flowchart-link" style=";" data-edge="true" data-et="edge" data-id="L_B_C_0" data-points="W3sieCI6MjA1LjY1OTc2NzE1MDg3ODksInkiOjE1NC41OTk5OTg0NzQxMjExfSx7IngiOjIwNS42NTk3NjcxNTA4Nzg5LCJ5IjoxNzkuNTk5OTk4NDc0MTIxMX0seyJ4IjoyMDUuNjU5NzY3MTUwODc4ODgsInkiOjIwNC41OTk5OTg0NzQxMjExfV0=" data-look="classic" marker-end="url(#my-svg_flowchart-v2-pointEnd)"/><path d="M234.686,304.573L243.485,315.327C252.285,326.081,269.884,347.59,278.684,368.177C287.484,388.765,287.484,408.432,287.484,426.348C287.484,444.265,287.484,460.432,287.484,491.048C287.484,521.663,287.484,566.728,287.484,613.543C287.484,660.358,287.484,708.923,287.484,744.505C287.484,780.088,287.484,802.688,287.484,823.538C287.484,844.388,287.484,863.488,287.484,890.987C287.484,918.486,287.484,954.384,287.484,972.333L287.484,990.282" id="my-svg-L_C_D_0" class="edge-thickness-normal edge-pattern-solid edge-thickness-normal edge-pattern-solid flowchart-link" style=";" data-edge="true" data-et="edge" data-id="L_C_D_0" data-points="W3sieCI6MjM0LjY4NTY0MzEwNjQxNDk0LCJ5IjozMDQuNTcyNTY2MTIyMTAwNn0seyJ4IjoyODcuNDgzNTk2ODAxNzU3OCwieSI6MzY5LjA5ODQ0MjA3NzYzNjd9LHsieCI6Mjg3LjQ4MzU5NjgwMTc1NzgsInkiOjQyOC4wOTg0NDIwNzc2MzY3fSx7IngiOjI4Ny40ODM1OTY4MDE3NTc4LCJ5Ijo0NzYuNTk4NDQyMDc3NjM2N30seyJ4IjoyODcuNDgzNTk2ODAxNzU3OCwieSI6NjExLjc5Mjk3NjM3OTM5NDV9LHsieCI6Mjg3LjQ4MzU5NjgwMTc1NzgsInkiOjc1Ny40ODc1MTA2ODExNTIzfSx7IngiOjI4Ny40ODM1OTY4MDE3NTc4LCJ5Ijo4MjUuMjg3NTA5OTE4MjEyOX0seyJ4IjoyODcuNDgzNTk2ODAxNzU3OCwieSI6ODgyLjU4NzUwOTE1NTI3MzR9LHsieCI6Mjg3LjQ4MzU5NjgwMTc1NzgsInkiOjk5NC4yODIwNDM0NTcwMzEyfV0=" data-look="classic" marker-end="url(#my-svg_flowchart-v2-pointEnd)"/><path d="M287.484,1041.282L287.484,1061.648C287.484,1082.014,287.484,1122.745,291.439,1148.49C295.395,1174.236,303.306,1184.995,307.262,1190.374L311.217,1195.754" id="my-svg-L_D_E_0" class="edge-thickness-normal edge-pattern-solid edge-thickness-normal edge-pattern-solid flowchart-link" style=";" data-edge="true" data-et="edge" data-id="L_D_E_0" data-points="W3sieCI6Mjg3LjQ4MzU5NjgwMTc1NzgsInkiOjEwNDEuMjgyMDQzNDU3MDMxMn0seyJ4IjoyODcuNDgzNTk2ODAxNzU3OCwieSI6MTE2My40NzY1Nzc3NTg3ODl9LHsieCI6MzEzLjU4NjgzOTA1MjUzNSwieSI6MTE5OC45NzY1Nzc3NTg3ODl9XQ==" data-look="classic" marker-end="url(#my-svg_flowchart-v2-pointEnd)"/><path d="M176.634,304.573L167.834,315.327C159.035,326.081,141.435,347.59,132.636,363.594C123.836,379.598,123.836,390.098,123.836,395.348L123.836,400.598" id="my-svg-L_C_F_0" class="edge-thickness-normal edge-pattern-solid edge-thickness-normal edge-pattern-solid flowchart-link" style=";" data-edge="true" data-et="edge" data-id="L_C_F_0" data-points="W3sieCI6MTc2LjYzMzg5MTE5NTM0MjgsInkiOjMwNC41NzI1NjYxMjIxMDA1N30seyJ4IjoxMjMuODM1OTM3NSwieSI6MzY5LjA5ODQ0MjA3NzYzNjd9LHsieCI6MTIzLjgzNTkzNzUsInkiOjQwNC41OTg0NDIwNzc2MzY3fV0=" data-look="classic" marker-end="url(#my-svg_flowchart-v2-pointEnd)"/><path d="M123.836,451.598L123.836,455.765C123.836,459.932,123.836,468.265,123.836,475.932C123.836,483.598,123.836,490.598,123.836,494.098L123.836,497.598" id="my-svg-L_F_G_0" class="edge-thickness-normal edge-pattern-solid edge-thickness-normal edge-pattern-solid flowchart-link" style=";" data-edge="true" data-et="edge" data-id="L_F_G_0" data-points="W3sieCI6MTIzLjgzNTkzNzUsInkiOjQ1MS41OTg0NDIwNzc2MzY3fSx7IngiOjEyMy44MzU5Mzc1LCJ5Ijo0NzYuNTk4NDQyMDc3NjM2N30seyJ4IjoxMjMuODM1OTM3NSwieSI6NTAxLjU5ODQ0MjA3NzYzNjd9XQ==" data-look="classic" marker-end="url(#my-svg_flowchart-v2-pointEnd)"/><path d="M123.836,721.988L123.836,727.904C123.836,733.821,123.836,745.654,123.836,756.821C123.836,767.988,123.836,778.488,123.836,783.738L123.836,788.988" id="my-svg-L_G_H_0" class="edge-thickness-normal edge-pattern-solid edge-thickness-normal edge-pattern-solid flowchart-link" style=";" data-edge="true" data-et="edge" data-id="L_G_H_0" data-points="W3sieCI6MTIzLjgzNTkzNzUsInkiOjcyMS45ODc1MTA2ODExNTIzfSx7IngiOjEyMy44MzU5Mzc1LCJ5Ijo3NTcuNDg3NTEwNjgxMTUyM30seyJ4IjoxMjMuODM1OTM3NSwieSI6NzkyLjk4NzUxMDY4MTE1MjN9XQ==" data-look="classic" marker-end="url(#my-svg_flowchart-v2-pointEnd)"/><path d="M208.681,637.143L275.813,657.2C342.945,677.258,477.209,717.373,544.341,742.68C611.473,767.988,611.473,778.488,611.473,783.738L611.473,788.988" id="my-svg-L_G_I_0" class="edge-thickness-normal edge-pattern-solid edge-thickness-normal edge-pattern-solid flowchart-link" style=";" data-edge="true" data-et="edge" data-id="L_G_I_0" data-points="W3sieCI6MjA4LjY4MDgyODM3Mjg1MzM3LCJ5Ijo2MzcuMTQyNjE5ODA4Mjk5fSx7IngiOjYxMS40NzM0NDIwNzc2MzY3LCJ5Ijo3NTcuNDg3NTEwNjgxMTUyM30seyJ4Ijo2MTEuNDczNDQyMDc3NjM2NywieSI6NzkyLjk4NzUxMDY4MTE1MjN9XQ==" data-look="classic" marker-end="url(#my-svg_flowchart-v2-pointEnd)"/><path d="M611.473,857.588L611.473,861.754C611.473,865.921,611.473,874.254,611.473,881.921C611.473,889.588,611.473,896.588,611.473,900.088L611.473,903.588" id="my-svg-L_I_J_0" class="edge-thickness-normal edge-pattern-solid edge-thickness-normal edge-pattern-solid flowchart-link" style=";" data-edge="true" data-et="edge" data-id="L_I_J_0" data-points="W3sieCI6NjExLjQ3MzQ0MjA3NzYzNjcsInkiOjg1Ny41ODc1MDkxNTUyNzM0fSx7IngiOjYxMS40NzM0NDIwNzc2MzY3LCJ5Ijo4ODIuNTg3NTA5MTU1MjczNH0seyJ4Ijo2MTEuNDczNDQyMDc3NjM2OCwieSI6OTA3LjU4NzUwOTE1NTI3MzR9XQ==" data-look="classic" marker-end="url(#my-svg_flowchart-v2-pointEnd)"/><path d="M641.713,1097.737L645.857,1108.693C650.001,1119.65,658.289,1141.563,662.433,1157.77C666.577,1173.977,666.577,1184.477,666.577,1189.727L666.577,1194.977" id="my-svg-L_J_K_0" class="edge-thickness-normal edge-pattern-solid edge-thickness-normal edge-pattern-solid flowchart-link" style=";" data-edge="true" data-et="edge" data-id="L_J_K_0" data-points="W3sieCI6NjQxLjcxMzMwODY3NDQ1NTQsInkiOjEwOTcuNzM2NzExMTYxOTcwM30seyJ4Ijo2NjYuNTc2OTU3NzAyNjM2NywieSI6MTE2My40NzY1Nzc3NTg3ODl9LHsieCI6NjY2LjU3Njk1NzcwMjYzNjcsInkiOjExOTguOTc2NTc3NzU4Nzg5fV0=" data-look="classic" marker-end="url(#my-svg_flowchart-v2-pointEnd)"/><path d="M559.519,1076.022L546.517,1090.598C533.514,1105.174,507.51,1134.325,482.529,1154.534C457.549,1174.742,433.594,1186.008,421.616,1191.641L409.638,1197.274" id="my-svg-L_J_E_0" class="edge-thickness-normal edge-pattern-solid edge-thickness-normal edge-pattern-solid flowchart-link" style=";" data-edge="true" data-et="edge" data-id="L_J_E_0" data-points="W3sieCI6NTU5LjUxOTMxMjkwNzY2NywieSI6MTA3Ni4wMjI0NDg1ODg4MTkzfSx7IngiOjQ4MS41MDQ2OTIwNzc2MzY3LCJ5IjoxMTYzLjQ3NjU3Nzc1ODc4OX0seyJ4Ijo0MDYuMDE4NzE2NjMyMjQ2OSwieSI6MTE5OC45NzY1Nzc3NTg3ODl9XQ==" data-look="classic" marker-end="url(#my-svg_flowchart-v2-pointEnd)"/></g><g class="edgeLabels"><g class="edgeLabel"><g class="label" data-id="L_A_B_0" transform="translate(0, 0)"><text y="-10.1" text-anchor="middle"><tspan class="text-outer-tspan row" x="0" y="-0.1em" dy="1.1em" text-anchor="middle"/></text></g></g><g><rect class="background" style="stroke: none"/></g><g class="edgeLabel"><g class="label" data-id="L_B_C_0" transform="translate(0, 0)"><text y="-10.1" text-anchor="middle"><tspan class="text-outer-tspan row" x="0" y="-0.1em" dy="1.1em" text-anchor="middle"/></text></g></g><g><rect class="background" style="stroke: none"/></g><g class="edgeLabel" transform="translate(287.4835968017578, 611.7929763793945)"><g class="label" data-id="L_C_D_0" transform="translate(0, -10.5)"><g><rect class="background" style="" x="-18.453125" y="0" width="36.90625" height="21"/><text y="-10.1" text-anchor="middle" style=""><tspan class="text-outer-tspan row" x="0" y="-0.1em" dy="1.1em" text-anchor="middle"><tspan font-style="normal" class="text-inner-tspan" font-weight="normal">Nein</tspan></tspan></text></g></g></g><g class="edgeLabel"><g class="label" data-id="L_D_E_0" transform="translate(0, 0)"><text y="-10.1" text-anchor="middle"><tspan class="text-outer-tspan row" x="0" y="-0.1em" dy="1.1em" text-anchor="middle"/></text></g></g><g><rect class="background" style="stroke: none"/></g><g class="edgeLabel" transform="translate(123.8359375, 369.0984420776367)"><g class="label" data-id="L_C_F_0" transform="translate(-0.046875, -10.5)"><g><rect class="background" style="" x="-10.453125" y="0" width="21" height="21"/><text y="-10.1" text-anchor="middle" style=""><tspan class="text-outer-tspan row" x="0" y="-0.1em" dy="1.1em" text-anchor="middle"><tspan font-style="normal" class="text-inner-tspan" font-weight="normal">Ja</tspan></tspan></text></g></g></g><g class="edgeLabel"><g class="label" data-id="L_F_G_0" transform="translate(0, 0)"><text y="-10.1" text-anchor="middle"><tspan class="text-outer-tspan row" x="0" y="-0.1em" dy="1.1em" text-anchor="middle"/></text></g></g><g><rect class="background" style="stroke: none"/></g><g class="edgeLabel" transform="translate(123.8359375, 757.4875106811523)"><g class="label" data-id="L_G_H_0" transform="translate(-0.046875, -10.5)"><g><rect class="background" style="" x="-10.453125" y="0" width="21" height="21"/><text y="-10.1" text-anchor="middle" style=""><tspan class="text-outer-tspan row" x="0" y="-0.1em" dy="1.1em" text-anchor="middle"><tspan font-style="normal" class="text-inner-tspan" font-weight="normal">Ja</tspan></tspan></text></g></g></g><g class="edgeLabel" transform="translate(611.4734420776367, 757.4875106811523)"><g class="label" data-id="L_G_I_0" transform="translate(-0.33203125, -10.5)"><g><rect class="background" style="" x="-79.375" y="0" width="159.4140625" height="21"/><text y="-10.1" text-anchor="middle" style=""><tspan class="text-outer-tspan row" x="0" y="-0.1em" dy="1.1em" text-anchor="middle"><tspan font-style="normal" class="text-inner-tspan" font-weight="normal">Nein</tspan><tspan font-style="normal" class="text-inner-tspan" font-weight="normal"> /</tspan><tspan font-style="normal" class="text-inner-tspan" font-weight="normal"> Nicht</tspan><tspan font-style="normal" class="text-inner-tspan" font-weight="normal"> verfügbar</tspan></tspan></text></g></g></g><g class="edgeLabel"><g class="label" data-id="L_I_J_0" transform="translate(0, 0)"><text y="-10.1" text-anchor="middle"><tspan class="text-outer-tspan row" x="0" y="-0.1em" dy="1.1em" text-anchor="middle"/></text></g></g><g><rect class="background" style="stroke: none"/></g><g class="edgeLabel" transform="translate(666.5769577026367, 1163.476577758789)"><g class="label" data-id="L_J_K_0" transform="translate(-0.046875, -10.5)"><g><rect class="background" style="" x="-10.453125" y="0" width="21" height="21"/><text y="-10.1" text-anchor="middle" style=""><tspan class="text-outer-tspan row" x="0" y="-0.1em" dy="1.1em" text-anchor="middle"><tspan font-style="normal" class="text-inner-tspan" font-weight="normal">Ja</tspan></tspan></text></g></g></g><g class="edgeLabel" transform="translate(492.74726, 1150.8737)"><g class="label" data-id="L_J_E_0" transform="translate(-0.33203125, -10.5)"><g><rect class="background" style="" x="-79.375" y="0" width="159.4140625" height="21"/><text y="-10.1" text-anchor="middle" style=""><tspan class="text-outer-tspan row" x="0" y="-0.1em" dy="1.1em" text-anchor="middle"><tspan font-style="normal" class="text-inner-tspan" font-weight="normal">Nein</tspan><tspan font-style="normal" class="text-inner-tspan" font-weight="normal"> /</tspan><tspan font-style="normal" class="text-inner-tspan" font-weight="normal"> Nicht</tspan><tspan font-style="normal" class="text-inner-tspan" font-weight="normal"> verfügbar</tspan></tspan></text></g></g></g></g><g class="nodes"><g class="node default" id="my-svg-flowchart-A-0" data-look="classic" transform="translate(205.6597671508789, 24)"><g class="basic label-container outer-path"><path d="M-58.21875 -16 C-12.421811622524729 -16, 33.37512675495054 -16, 58.21875 -16 C58.21875 -16, 58.21875 -16, 58.21875 -16 C58.526174317654124 -15.990141500497966, 58.83359863530824 -15.980283000995932, 59.243873519691405 -15.967126284005381 C59.61363098723779 -15.931456225809598, 59.983388454784176 -15.895786167613815, 60.264784586952096 -15.868640221171939 C60.49678003694885 -15.83113299596805, 60.7287754869456 -15.793625770764159, 61.27728805922195 -15.704946511857047 C61.53557886674249 -15.645993320545521, 61.79386967426303 -15.587040129233996, 62.27722334255211 -15.476717808624471 C62.53123421937425 -15.401328713713962, 62.78524509619639 -15.325939618803453, 63.260481488377934 -15.184891952170698 C63.55574731003818 -15.076231400392393, 63.85101313169842 -14.967570848614088, 64.22302207806999 -14.830668117536348 C64.47073811028949 -14.721011578307786, 64.71845414250899 -14.611355039079225, 65.16088982588093 -14.415501886438706 C65.4672649369888 -14.255666187216352, 65.77364004809668 -14.095830487993998, 66.070230832063 -13.941099265974232 C66.25140196387714 -13.83127226118875, 66.43257309569128 -13.721445256403271, 66.94730841936878 -13.409409678269451 C67.12514475188352 -13.285358751117919, 67.30298108439828 -13.161307823966384, 67.78851848785945 -12.822617949887306 C68.091449689923 -12.58103837757947, 68.39438089198654 -12.339458805271633, 68.5904043249246 -12.183135333906153 C68.85229969064801 -11.945288892127815, 69.11419505637141 -11.707442450349477, 69.34967080965578 -11.493589601563642 C69.61577913300917 -11.2188109098016, 69.88188745636256 -10.94403221803956, 70.06319795320505 -10.756814244181072 C70.30774329601988 -10.46955736948656, 70.55228863883472 -10.182300494792049, 70.72805371948847 -9.975836829739738 C70.8732425197565 -9.781297064352378, 71.01843132002455 -9.586757298965017, 71.34150607355129 -9.153866561954718 C71.51370534386827 -8.889322240769262, 71.68590461418526 -8.624777919583806, 71.90103420808553 -8.294281092968403 C72.0075632819343 -8.105127935111483, 72.11409235578304 -7.915974777254562, 72.404338901968 -7.400612643853364 C72.51503189551333 -7.170756274305852, 72.62572488905866 -6.940899904758338, 72.849351968253 -6.476533489958305 C73.00251814992286 -6.0982100599670845, 73.15568433159271 -5.719886629975864, 73.23424475279616 -5.52584087074093 C73.3352862053968 -5.221520114277025, 73.43632765799744 -4.917199357813121, 73.55743564858656 -4.552441386096524 C73.6120696907407 -4.344098104819139, 73.66670373289485 -4.135754823541753, 73.81759659490918 -3.560334943301032 C73.87069341829047 -3.2876939772556617, 73.92379024167178 -3.0150530112102913, 74.0136585346312 -2.5535983205340735 C74.05516683534438 -2.2316681369438025, 74.09667513605754 -1.9097379533535315, 74.14481580718717 -1.536368414522911 C74.1646455879889 -1.2275035722249508, 74.18447536879063 -0.9186387299269904, 74.210529459211 -0.5128252411464826 C74.210529459211 -0.2981344460731298, 74.210529459211 -0.08344365099977691, 74.210529459211 0.5128252411464788 C74.18889043447795 0.8498705180700186, 74.16725140974492 1.1869157949935583, 74.14481580718717 1.5363684145229002 C74.1112075901115 1.7970271094686454, 74.07759937303584 2.057685804414391, 74.0136585346312 2.5535983205340624 C73.94780066735395 2.891764549937613, 73.88194280007669 3.229930779341163, 73.81759659490918 3.5603349433010285 C73.7339733876144 3.8792264752433185, 73.65035018031962 4.198118007185609, 73.55743564858658 4.552441386096513 C73.44910584656586 4.878713489772906, 73.34077604454515 5.204985593449298, 73.23424475279617 5.525840870740919 C73.08782583701174 5.887498423545626, 72.94140692122731 6.249155976350333, 72.849351968253 6.4765334899583005 C72.706042825083 6.77411799207525, 72.562733681913 7.071702494192199, 72.404338901968 7.400612643853361 C72.24477189117746 7.683940029423894, 72.08520488038694 7.967267414994428, 71.90103420808553 8.294281092968399 C71.77200727226912 8.492501114965947, 71.6429803364527 8.690721136963496, 71.3415060735513 9.15386656195471 C71.14146424270683 9.421904391100597, 70.94142241186238 9.689942220246486, 70.72805371948849 9.975836829739734 C70.54034776277561 10.19632692726619, 70.35264180606272 10.416817024792646, 70.06319795320505 10.756814244181063 C69.918265324583 10.906469082423433, 69.77333269596096 11.056123920665803, 69.34967080965579 11.493589601563638 C69.06386958362616 11.753146713157683, 68.77806835759652 12.012703824751728, 68.59040432492462 12.183135333906142 C68.42373543801104 12.316049335974382, 68.25706655109744 12.448963338042622, 67.78851848785946 12.822617949887304 C67.49459460682469 13.027646525537422, 67.2006707257899 13.23267510118754, 66.94730841936878 13.409409678269446 C66.71261329026933 13.5516832447512, 66.4779181611699 13.693956811232953, 66.070230832063 13.94109926597423 C65.84028126058995 14.061063810121993, 65.61033168911689 14.181028354269758, 65.16088982588093 14.415501886438705 C64.88360178618693 14.53824907615379, 64.60631374649294 14.660996265868873, 64.22302207806999 14.830668117536346 C63.959394916173686 14.927685350056956, 63.69576775427738 15.024702582577568, 63.26048148837794 15.184891952170695 C62.87783148428116 15.298460464815761, 62.49518148018438 15.412028977460828, 62.27722334255213 15.476717808624468 C61.884830255391414 15.566278970164706, 61.492437168230694 15.655840131704947, 61.27728805922196 15.704946511857045 C60.93615965887011 15.760097506135677, 60.59503125851826 15.81524850041431, 60.2647845869521 15.868640221171937 C59.8600342216769 15.907686002126503, 59.45528385640169 15.946731783081068, 59.243873519691405 15.967126284005381 C58.882395533606 15.978718179444924, 58.520917547520604 15.990310074884466, 58.21875 16 C58.21875 16, 58.21875 16, 58.21875 16 C30.468978876341325 16, 2.7192077526826495 16, -58.21875 16 C-58.544042939066884 15.98956848858842, -58.869335878133775 15.979136977176841, -59.2438735196914 15.967126284005381 C-59.61788068333991 15.931046262737633, -59.991887846988426 15.894966241469884, -60.264784586952096 15.868640221171937 C-60.56614364884697 15.819918825119204, -60.86750271074183 15.771197429066472, -61.27728805922196 15.704946511857045 C-61.56136700051676 15.640107347294844, -61.845445941811555 15.575268182732644, -62.27722334255211 15.476717808624471 C-62.54883101185968 15.396106078071735, -62.820438681167246 15.315494347518998, -63.26048148837792 15.184891952170702 C-63.62577128096092 15.050461931798331, -63.99106107354392 14.916031911425963, -64.22302207806999 14.830668117536348 C-64.44738841398814 14.731347796216264, -64.67175474990628 14.632027474896182, -65.16088982588093 14.415501886438708 C-65.50025459606508 14.238455503207149, -65.83961936624922 14.061409119975588, -66.070230832063 13.941099265974234 C-66.27398360143818 13.817583139794822, -66.47773637081336 13.694067013615408, -66.94730841936877 13.409409678269457 C-67.1796470696892 13.247340293583997, -67.41198572000962 13.085270908898536, -67.78851848785945 12.822617949887308 C-68.07831039326085 12.591516617016161, -68.36810229866227 12.360415284145013, -68.5904043249246 12.183135333906154 C-68.81519081095445 11.978990194818353, -69.0399772969843 11.774845055730552, -69.34967080965578 11.493589601563649 C-69.56711831863332 11.269057195771838, -69.78456582761085 11.044524789980027, -70.06319795320505 10.756814244181069 C-70.25828441093805 10.52765459019397, -70.45337086867104 10.298494936206872, -70.72805371948847 9.97583682973974 C-70.88933227372173 9.759738259845712, -71.05061082795501 9.543639689951682, -71.34150607355129 9.15386656195472 C-71.49013080736817 8.92553905948283, -71.63875554118508 8.697211557010942, -71.90103420808553 8.29428109296841 C-72.08009335349323 7.976343448592448, -72.25915249890092 7.6584058042164855, -72.404338901968 7.400612643853366 C-72.51894923442555 7.1626218362370055, -72.6335595668831 6.924631028620644, -72.849351968253 6.476533489958307 C-72.93811762566253 6.257280599989544, -73.02688328307205 6.038027710020781, -73.23424475279616 5.525840870740931 C-73.31839260563585 5.27240094512742, -73.40254045847553 5.01896101951391, -73.55743564858656 4.552441386096519 C-73.64924725669181 4.202323932988551, -73.74105886479707 3.852206479880583, -73.81759659490918 3.5603349433010343 C-73.87082536731351 3.2870164469097825, -73.92405413971785 3.0136979505185306, -74.0136585346312 2.5535983205340753 C-74.04304441324412 2.32568724891041, -74.07243029185703 2.097776177286744, -74.14481580718717 1.5363684145229202 C-74.15804071562862 1.3303797905933803, -74.17126562407007 1.1243911666638406, -74.210529459211 0.5128252411464846 C-74.210529459211 0.27225681158147963, -74.210529459211 0.03168838201647456, -74.210529459211 -0.5128252411464769 C-74.18932346520994 -0.8431257148832532, -74.16811747120889 -1.1734261886200295, -74.14481580718717 -1.5363684145228982 C-74.11354150510675 -1.7789257256491766, -74.08226720302633 -2.021483036775455, -74.0136585346312 -2.5535983205340678 C-73.93866031015975 -2.9386983523146473, -73.86366208568829 -3.3237983840952268, -73.81759659490918 -3.5603349433010267 C-73.72366492944215 -3.9185370939681494, -73.62973326397511 -4.276739244635273, -73.55743564858658 -4.552441386096511 C-73.46514903367931 -4.830393966321943, -73.37286241877204 -5.1083465465473745, -73.23424475279617 -5.525840870740911 C-73.12994934354279 -5.783452548011329, -73.02565393428941 -6.0410642252817475, -72.849351968253 -6.476533489958299 C-72.67303797108026 -6.842653277602676, -72.49672397390754 -7.208773065247054, -72.404338901968 -7.400612643853359 C-72.2765153729896 -7.6275762630903685, -72.1486918440112 -7.854539882327378, -71.90103420808553 -8.294281092968404 C-71.69687040565798 -8.607931519154402, -71.49270660323042 -8.921581945340401, -71.3415060735513 -9.153866561954715 C-71.19751929476821 -9.346795728058657, -71.05353251598513 -9.5397248941626, -70.72805371948849 -9.975836829739734 C-70.55535109157333 -10.178703163546798, -70.38264846365816 -10.38156949735386, -70.06319795320505 -10.756814244181063 C-69.91844885117825 -10.906279576146014, -69.77369974915148 -11.055744908110967, -69.34967080965579 -11.493589601563633 C-69.05671293534735 -11.759646191769969, -68.76375506103889 -12.025702781976305, -68.59040432492463 -12.18313533390614 C-68.27365917904503 -12.435731158802797, -67.95691403316543 -12.688326983699456, -67.78851848785946 -12.822617949887302 C-67.50631732180658 -13.019469267034209, -67.22411615575369 -13.216320584181117, -66.9473084193688 -13.409409678269444 C-66.69068379829233 -13.564977031659664, -66.43405917721587 -13.720544385049882, -66.070230832063 -13.941099265974229 C-65.79963192398193 -14.082270542993253, -65.52903301590085 -14.223441820012278, -65.16088982588093 -14.415501886438705 C-64.88025476484333 -14.539730703216744, -64.59961970380571 -14.663959519994783, -64.22302207806999 -14.830668117536344 C-63.97652836868941 -14.921380081151272, -63.73003465930883 -15.012092044766197, -63.26048148837794 -15.184891952170695 C-63.016896604824126 -15.257186667006323, -62.773311721270304 -15.329481381841951, -62.27722334255213 -15.476717808624466 C-61.883663093928305 -15.56654536715222, -61.49010284530448 -15.656372925679975, -61.277288059221966 -15.704946511857043 C-61.000203700080256 -15.749743362221777, -60.72311934093855 -15.79454021258651, -60.2647845869521 -15.868640221171937 C-59.914414602784085 -15.90243999216307, -59.564044618616066 -15.936239763154202, -59.243873519691405 -15.967126284005381 C-58.96198998885788 -15.976165740186204, -58.680106458024355 -15.985205196367028, -58.21875000000001 -16 C-58.21875000000001 -16, -58.21875 -16, -58.21875 -16" stroke="none" stroke-width="0" fill="#eee" style=""/><path d="M-58.21875 -16 C-20.886059814497976 -16, 16.446630371004048 -16, 58.21875 -16 M-58.21875 -16 C-25.730090309475536 -16, 6.758569381048929 -16, 58.21875 -16 M58.21875 -16 C58.21875 -16, 58.21875 -16, 58.21875 -16 M58.21875 -16 C58.21875 -16, 58.21875 -16, 58.21875 -16 M58.21875 -16 C58.54331039564071 -15.989591979830289, 58.867870791281426 -15.979183959660578, 59.243873519691405 -15.967126284005381 M58.21875 -16 C58.58041117856518 -15.988402229934193, 58.94207235713036 -15.976804459868388, 59.243873519691405 -15.967126284005381 M59.243873519691405 -15.967126284005381 C59.58956784592724 -15.933777568111665, 59.935262172163085 -15.90042885221795, 60.264784586952096 -15.868640221171939 M59.243873519691405 -15.967126284005381 C59.57566433684271 -15.935118822911633, 59.90745515399403 -15.903111361817885, 60.264784586952096 -15.868640221171939 M60.264784586952096 -15.868640221171939 C60.520254596250524 -15.82733781126808, 60.77572460554895 -15.786035401364222, 61.27728805922195 -15.704946511857047 M60.264784586952096 -15.868640221171939 C60.66765423393223 -15.803507380948965, 61.07052388091236 -15.73837454072599, 61.27728805922195 -15.704946511857047 M61.27728805922195 -15.704946511857047 C61.6697922645147 -15.615359988328287, 62.06229646980744 -15.525773464799524, 62.27722334255211 -15.476717808624471 M61.27728805922195 -15.704946511857047 C61.573410162200624 -15.637358574229477, 61.869532265179295 -15.569770636601907, 62.27722334255211 -15.476717808624471 M62.27722334255211 -15.476717808624471 C62.57846175287539 -15.387311829673205, 62.87970016319867 -15.297905850721941, 63.260481488377934 -15.184891952170698 M62.27722334255211 -15.476717808624471 C62.589395943438014 -15.384066619308957, 62.901568544323915 -15.29141542999344, 63.260481488377934 -15.184891952170698 M63.260481488377934 -15.184891952170698 C63.592118317201304 -15.062846533546457, 63.92375514602468 -14.940801114922216, 64.22302207806999 -14.830668117536348 M63.260481488377934 -15.184891952170698 C63.55727472283732 -15.075669298363058, 63.854067957296714 -14.966446644555418, 64.22302207806999 -14.830668117536348 M64.22302207806999 -14.830668117536348 C64.58849429289636 -14.668884409380777, 64.95396650772271 -14.507100701225205, 65.16088982588093 -14.415501886438706 M64.22302207806999 -14.830668117536348 C64.46851182227498 -14.721997089971325, 64.71400156647996 -14.613326062406301, 65.16088982588093 -14.415501886438706 M65.16088982588093 -14.415501886438706 C65.39493639017194 -14.293399943762072, 65.62898295446293 -14.171298001085436, 66.070230832063 -13.941099265974232 M65.16088982588093 -14.415501886438706 C65.40755830254196 -14.286815100163345, 65.654226779203 -14.158128313887984, 66.070230832063 -13.941099265974232 M66.070230832063 -13.941099265974232 C66.3374703865161 -13.779097077590823, 66.6047099409692 -13.617094889207413, 66.94730841936878 -13.409409678269451 M66.070230832063 -13.941099265974232 C66.26853671190496 -13.820885076239337, 66.46684259174691 -13.700670886504442, 66.94730841936878 -13.409409678269451 M66.94730841936878 -13.409409678269451 C67.2630840668619 -13.189138256285716, 67.578859714355 -12.968866834301982, 67.78851848785945 -12.822617949887306 M66.94730841936878 -13.409409678269451 C67.17603257059142 -13.249861611685462, 67.40475672181405 -13.090313545101475, 67.78851848785945 -12.822617949887306 M67.78851848785945 -12.822617949887306 C67.99292351061885 -12.65961038368278, 68.19732853337825 -12.496602817478253, 68.5904043249246 -12.183135333906153 M67.78851848785945 -12.822617949887306 C68.01141462245046 -12.644864214066223, 68.23431075704147 -12.467110478245138, 68.5904043249246 -12.183135333906153 M68.5904043249246 -12.183135333906153 C68.82254654011737 -11.97230991621452, 69.05468875531012 -11.76148449852289, 69.34967080965578 -11.493589601563642 M68.5904043249246 -12.183135333906153 C68.86378799959652 -11.934855513904775, 69.13717167426844 -11.686575693903398, 69.34967080965578 -11.493589601563642 M69.34967080965578 -11.493589601563642 C69.51539555948749 -11.322465191107394, 69.68112030931921 -11.151340780651145, 70.06319795320505 -10.756814244181072 M69.34967080965578 -11.493589601563642 C69.61450386113981 -11.220127732708487, 69.87933691262384 -10.946665863853333, 70.06319795320505 -10.756814244181072 M70.06319795320505 -10.756814244181072 C70.28780611848984 -10.492976712670893, 70.51241428377463 -10.229139181160715, 70.72805371948847 -9.975836829739738 M70.06319795320505 -10.756814244181072 C70.21470647860505 -10.578843709166902, 70.36621500400506 -10.40087317415273, 70.72805371948847 -9.975836829739738 M70.72805371948847 -9.975836829739738 C70.87168197739103 -9.783388048953785, 71.01531023529358 -9.590939268167832, 71.34150607355129 -9.153866561954718 M70.72805371948847 -9.975836829739738 C70.88948202445312 -9.759537607508243, 71.05091032941775 -9.543238385276748, 71.34150607355129 -9.153866561954718 M71.34150607355129 -9.153866561954718 C71.5407389009826 -8.847791437515138, 71.73997172841392 -8.541716313075558, 71.90103420808553 -8.294281092968403 M71.34150607355129 -9.153866561954718 C71.56190452574864 -8.815275354108437, 71.78230297794602 -8.476684146262157, 71.90103420808553 -8.294281092968403 M71.90103420808553 -8.294281092968403 C72.04381180036202 -8.04076502008254, 72.1865893926385 -7.787248947196678, 72.404338901968 -7.400612643853364 M71.90103420808553 -8.294281092968403 C72.08414084894383 -7.969156710566536, 72.26724748980213 -7.64403232816467, 72.404338901968 -7.400612643853364 M72.404338901968 -7.400612643853364 C72.57071510515668 -7.055128898051626, 72.73709130834534 -6.7096451522498874, 72.849351968253 -6.476533489958305 M72.404338901968 -7.400612643853364 C72.494103614273 -7.214214298094872, 72.583868326578 -7.02781595233638, 72.849351968253 -6.476533489958305 M72.849351968253 -6.476533489958305 C72.98525441058992 -6.140851829891159, 73.12115685292682 -5.805170169824013, 73.23424475279616 -5.52584087074093 M72.849351968253 -6.476533489958305 C72.93092279004127 -6.275051983076734, 73.01249361182953 -6.0735704761951625, 73.23424475279616 -5.52584087074093 M73.23424475279616 -5.52584087074093 C73.34506973193007 -5.192053691152074, 73.45589471106398 -4.858266511563218, 73.55743564858656 -4.552441386096524 M73.23424475279616 -5.52584087074093 C73.33003823588922 -5.237326162283472, 73.42583171898227 -4.948811453826015, 73.55743564858656 -4.552441386096524 M73.55743564858656 -4.552441386096524 C73.6210462009532 -4.309866780934754, 73.68465675331984 -4.067292175772985, 73.81759659490918 -3.560334943301032 M73.55743564858656 -4.552441386096524 C73.61135912824466 -4.346807787576266, 73.66528260790277 -4.1411741890560085, 73.81759659490918 -3.560334943301032 M73.81759659490918 -3.560334943301032 C73.87765304853023 -3.251957746892845, 73.93770950215131 -2.9435805504846577, 74.0136585346312 -2.5535983205340735 M73.81759659490918 -3.560334943301032 C73.88254003403843 -3.2268641091730665, 73.94748347316768 -2.893393275045101, 74.0136585346312 -2.5535983205340735 M74.0136585346312 -2.5535983205340735 C74.06259315858786 -2.1740710403607473, 74.11152778254451 -1.794543760187421, 74.14481580718717 -1.536368414522911 M74.0136585346312 -2.5535983205340735 C74.05129602781896 -2.2616893557334845, 74.08893352100672 -1.969780390932895, 74.14481580718717 -1.536368414522911 M74.14481580718717 -1.536368414522911 C74.16310366195509 -1.2515203148219016, 74.18139151672301 -0.9666722151208921, 74.210529459211 -0.5128252411464826 M74.14481580718717 -1.536368414522911 C74.16389221705849 -1.2392379325762573, 74.1829686269298 -0.9421074506296033, 74.210529459211 -0.5128252411464826 M74.210529459211 -0.5128252411464826 C74.210529459211 -0.2395317649188613, 74.210529459211 0.033761711308760045, 74.210529459211 0.5128252411464788 M74.210529459211 -0.5128252411464826 C74.210529459211 -0.2977218707380903, 74.210529459211 -0.08261850032969803, 74.210529459211 0.5128252411464788 M74.210529459211 0.5128252411464788 C74.19163197932193 0.8071687441899786, 74.17273449943286 1.1015122472334784, 74.14481580718717 1.5363684145229002 M74.210529459211 0.5128252411464788 C74.19679571831946 0.7267393412082528, 74.18306197742794 0.9406534412700269, 74.14481580718717 1.5363684145229002 M74.14481580718717 1.5363684145229002 C74.10845469244343 1.8183780401610985, 74.07209357769969 2.100387665799297, 74.0136585346312 2.5535983205340624 M74.14481580718717 1.5363684145229002 C74.11020868880516 1.8047743907452651, 74.07560157042316 2.0731803669676303, 74.0136585346312 2.5535983205340624 M74.0136585346312 2.5535983205340624 C73.95710091740621 2.8440097315277435, 73.90054330018123 3.1344211425214246, 73.81759659490918 3.5603349433010285 M74.0136585346312 2.5535983205340624 C73.95623425864613 2.8484598410923385, 73.89880998266108 3.1433213616506146, 73.81759659490918 3.5603349433010285 M73.81759659490918 3.5603349433010285 C73.71668093813803 3.94517007969177, 73.61576528136686 4.330005216082512, 73.55743564858658 4.552441386096513 M73.81759659490918 3.5603349433010285 C73.75758600143115 3.789181344988504, 73.69757540795311 4.01802774667598, 73.55743564858658 4.552441386096513 M73.55743564858658 4.552441386096513 C73.45046121810897 4.874631326634211, 73.34348678763135 5.19682126717191, 73.23424475279617 5.525840870740919 M73.55743564858658 4.552441386096513 C73.4741081353927 4.8034105794002135, 73.39078062219883 5.054379772703914, 73.23424475279617 5.525840870740919 M73.23424475279617 5.525840870740919 C73.11267086244565 5.82613073037796, 72.99109697209514 6.126420590015001, 72.849351968253 6.4765334899583005 M73.23424475279617 5.525840870740919 C73.15098021362418 5.731505892306081, 73.06771567445219 5.937170913871244, 72.849351968253 6.4765334899583005 M72.849351968253 6.4765334899583005 C72.68729561087515 6.813046983503983, 72.5252392534973 7.149560477049667, 72.404338901968 7.400612643853361 M72.849351968253 6.4765334899583005 C72.7126411832107 6.76041636024083, 72.57593039816841 7.044299230523359, 72.404338901968 7.400612643853361 M72.404338901968 7.400612643853361 C72.29401543472855 7.596503131399466, 72.18369196748908 7.792393618945572, 71.90103420808553 8.294281092968399 M72.404338901968 7.400612643853361 C72.21277894231491 7.740746749766738, 72.02121898266182 8.080880855680116, 71.90103420808553 8.294281092968399 M71.90103420808553 8.294281092968399 C71.77783557253682 8.48354728063699, 71.65463693698811 8.672813468305584, 71.3415060735513 9.15386656195471 M71.90103420808553 8.294281092968399 C71.73809416372309 8.544600756637386, 71.57515411936063 8.794920420306374, 71.3415060735513 9.15386656195471 M71.3415060735513 9.15386656195471 C71.10399632156926 9.472107992027125, 70.8664865695872 9.790349422099542, 70.72805371948849 9.975836829739734 M71.3415060735513 9.15386656195471 C71.1720112035791 9.380974246417136, 71.00251633360692 9.608081930879562, 70.72805371948849 9.975836829739734 M70.72805371948849 9.975836829739734 C70.48526174971387 10.261034092691443, 70.24246977993926 10.546231355643153, 70.06319795320505 10.756814244181063 M70.72805371948849 9.975836829739734 C70.59396715210909 10.133342541525403, 70.45988058472967 10.290848253311074, 70.06319795320505 10.756814244181063 M70.06319795320505 10.756814244181063 C69.90239028236292 10.922861366880879, 69.74158261152078 11.088908489580694, 69.34967080965579 11.493589601563638 M70.06319795320505 10.756814244181063 C69.84078934803183 10.986469389108482, 69.61838074285863 11.216124534035902, 69.34967080965579 11.493589601563638 M69.34967080965579 11.493589601563638 C69.14557240456155 11.678946372922349, 68.9414739994673 11.86430314428106, 68.59040432492462 12.183135333906142 M69.34967080965579 11.493589601563638 C69.18201749432592 11.645847906682587, 69.01436417899603 11.798106211801535, 68.59040432492462 12.183135333906142 M68.59040432492462 12.183135333906142 C68.32749816513352 12.392796000112815, 68.06459200534242 12.602456666319489, 67.78851848785946 12.822617949887304 M68.59040432492462 12.183135333906142 C68.35697388886733 12.36928989481705, 68.12354345281003 12.555444455727962, 67.78851848785946 12.822617949887304 M67.78851848785946 12.822617949887304 C67.5789442513286 12.96880786496876, 67.36937001479772 13.114997780050215, 66.94730841936878 13.409409678269446 M67.78851848785946 12.822617949887304 C67.48841024533895 13.031960468393178, 67.18830200281845 13.241302986899052, 66.94730841936878 13.409409678269446 M66.94730841936878 13.409409678269446 C66.62492397934888 13.604841020350774, 66.30253953932898 13.800272362432102, 66.070230832063 13.94109926597423 M66.94730841936878 13.409409678269446 C66.6679855114736 13.578736866519112, 66.38866260357842 13.748064054768777, 66.070230832063 13.94109926597423 M66.070230832063 13.94109926597423 C65.82328066691035 14.069933008955243, 65.57633050175768 14.198766751936256, 65.16088982588093 14.415501886438705 M66.070230832063 13.94109926597423 C65.76862096396988 14.098448940968073, 65.46701109587676 14.255798615961915, 65.16088982588093 14.415501886438705 M65.16088982588093 14.415501886438705 C64.8674195132865 14.54541248833674, 64.57394920069207 14.675323090234778, 64.22302207806999 14.830668117536346 M65.16088982588093 14.415501886438705 C64.95854876802932 14.505072270515392, 64.7562077101777 14.594642654592079, 64.22302207806999 14.830668117536346 M64.22302207806999 14.830668117536346 C63.907693165877966 14.946712072091522, 63.59236425368594 15.062756026646698, 63.26048148837794 15.184891952170695 M64.22302207806999 14.830668117536346 C63.92837797119333 14.939099872527224, 63.63373386431667 15.047531627518104, 63.26048148837794 15.184891952170695 M63.26048148837794 15.184891952170695 C63.0394429602555 15.250495027062525, 62.81840443213306 15.316098101954356, 62.27722334255213 15.476717808624468 M63.26048148837794 15.184891952170695 C62.86837449048242 15.301267250934455, 62.47626749258689 15.417642549698215, 62.27722334255213 15.476717808624468 M62.27722334255213 15.476717808624468 C62.02537218767931 15.534201191241813, 61.77352103280649 15.591684573859157, 61.27728805922196 15.704946511857045 M62.27722334255213 15.476717808624468 C61.92854404608122 15.556301582698902, 61.579864749610316 15.635885356773334, 61.27728805922196 15.704946511857045 M61.27728805922196 15.704946511857045 C60.99563412548072 15.75048213560545, 60.71398019173947 15.796017759353857, 60.2647845869521 15.868640221171937 M61.27728805922196 15.704946511857045 C60.967469692593454 15.755035542696225, 60.65765132596495 15.805124573535405, 60.2647845869521 15.868640221171937 M60.2647845869521 15.868640221171937 C60.02239293443306 15.892023452371836, 59.78000128191401 15.915406683571737, 59.243873519691405 15.967126284005381 M60.2647845869521 15.868640221171937 C59.90923816040286 15.902939357334004, 59.55369173385361 15.937238493496071, 59.243873519691405 15.967126284005381 M59.243873519691405 15.967126284005381 C59.011683941342305 15.97457215185344, 58.779494362993205 15.982018019701497, 58.21875 16 M59.243873519691405 15.967126284005381 C58.978386624492835 15.975639931995508, 58.71289972929426 15.984153579985632, 58.21875 16 M58.21875 16 C58.21875 16, 58.21875 16, 58.21875 16 M58.21875 16 C58.21875 16, 58.21875 16, 58.21875 16 M58.21875 16 C30.062535399509418 16, 1.906320799018836 16, -58.21875 16 M58.21875 16 C25.704017976733432 16, -6.8107140465331355 16, -58.21875 16 M-58.21875 16 C-58.45006573901228 15.992582154478649, -58.68138147802457 15.985164308957296, -59.2438735196914 15.967126284005381 M-58.21875 16 C-58.547040283115024 15.989472369598772, -58.87533056623005 15.978944739197546, -59.2438735196914 15.967126284005381 M-59.2438735196914 15.967126284005381 C-59.45368843741321 15.946885691232115, -59.66350335513503 15.926645098458849, -60.264784586952096 15.868640221171937 M-59.2438735196914 15.967126284005381 C-59.49985331665093 15.942432220853442, -59.755833113610464 15.917738157701503, -60.264784586952096 15.868640221171937 M-60.264784586952096 15.868640221171937 C-60.593436023505504 15.815506405639939, -60.922087460058904 15.76237259010794, -61.27728805922196 15.704946511857045 M-60.264784586952096 15.868640221171937 C-60.5774418594066 15.818092218054854, -60.8900991318611 15.767544214937772, -61.27728805922196 15.704946511857045 M-61.27728805922196 15.704946511857045 C-61.496115123001 15.655000662529524, -61.71494218678003 15.605054813202, -62.27722334255211 15.476717808624471 M-61.27728805922196 15.704946511857045 C-61.49445146256289 15.65538038216812, -61.711614865903826 15.605814252479197, -62.27722334255211 15.476717808624471 M-62.27722334255211 15.476717808624471 C-62.510381293264565 15.407517752724074, -62.743539243977025 15.338317696823674, -63.26048148837792 15.184891952170702 M-62.27722334255211 15.476717808624471 C-62.64980246490916 15.366138280816623, -63.0223815872662 15.255558753008772, -63.26048148837792 15.184891952170702 M-63.26048148837792 15.184891952170702 C-63.600992625491116 15.059580706062599, -63.94150376260431 14.934269459954496, -64.22302207806999 14.830668117536348 M-63.26048148837792 15.184891952170702 C-63.59628151057049 15.061314439902459, -63.93208153276306 14.937736927634216, -64.22302207806999 14.830668117536348 M-64.22302207806999 14.830668117536348 C-64.58381827922682 14.67095434192326, -64.94461448038366 14.511240566310171, -65.16088982588093 14.415501886438708 M-64.22302207806999 14.830668117536348 C-64.56708076047899 14.678363544972072, -64.91113944288799 14.526058972407798, -65.16088982588093 14.415501886438708 M-65.16088982588093 14.415501886438708 C-65.51797951546244 14.229208424110896, -65.87506920504396 14.042914961783083, -66.070230832063 13.941099265974234 M-65.16088982588093 14.415501886438708 C-65.43705938472695 14.271424404483783, -65.71322894357297 14.12734692252886, -66.070230832063 13.941099265974234 M-66.070230832063 13.941099265974234 C-66.34923983428676 13.771962369187294, -66.62824883651052 13.602825472400355, -66.94730841936877 13.409409678269457 M-66.070230832063 13.941099265974234 C-66.40431542295185 13.738575223678435, -66.7384000138407 13.536051181382636, -66.94730841936877 13.409409678269457 M-66.94730841936877 13.409409678269457 C-67.207788777929 13.227709856150828, -67.46826913648923 13.046010034032197, -67.78851848785945 12.822617949887308 M-66.94730841936877 13.409409678269457 C-67.11684114524367 13.291150987652543, -67.28637387111858 13.172892297035627, -67.78851848785945 12.822617949887308 M-67.78851848785945 12.822617949887308 C-68.0267493700987 12.632635160891525, -68.26498025233796 12.442652371895742, -68.5904043249246 12.183135333906154 M-67.78851848785945 12.822617949887308 C-68.10795247074131 12.567877849034309, -68.42738645362316 12.31313774818131, -68.5904043249246 12.183135333906154 M-68.5904043249246 12.183135333906154 C-68.74905346013895 12.039054386930577, -68.9077025953533 11.894973439955, -69.34967080965578 11.493589601563649 M-68.5904043249246 12.183135333906154 C-68.75454254755475 12.034069342972845, -68.9186807701849 11.885003352039536, -69.34967080965578 11.493589601563649 M-69.34967080965578 11.493589601563649 C-69.58186048051239 11.253834703277693, -69.814050151369 11.014079804991738, -70.06319795320505 10.756814244181069 M-69.34967080965578 11.493589601563649 C-69.61758067758521 11.216950667117286, -69.88549054551464 10.940311732670924, -70.06319795320505 10.756814244181069 M-70.06319795320505 10.756814244181069 C-70.25536737075704 10.531081111574865, -70.44753678830904 10.305347978968664, -70.72805371948847 9.97583682973974 M-70.06319795320505 10.756814244181069 C-70.27087730365265 10.5128622618555, -70.47855665410026 10.26891027952993, -70.72805371948847 9.97583682973974 M-70.72805371948847 9.97583682973974 C-70.94967371794566 9.678886221804321, -71.17129371640284 9.381935613868903, -71.34150607355129 9.15386656195472 M-70.72805371948847 9.97583682973974 C-70.93727996969747 9.69549271536319, -71.14650621990647 9.415148600986642, -71.34150607355129 9.15386656195472 M-71.34150607355129 9.15386656195472 C-71.52319007367412 8.87475114878093, -71.70487407379693 8.59563573560714, -71.90103420808553 8.29428109296841 M-71.34150607355129 9.15386656195472 C-71.5059693999784 8.901206727975914, -71.67043272640551 8.648546893997107, -71.90103420808553 8.29428109296841 M-71.90103420808553 8.29428109296841 C-72.05631609121937 8.018562385468574, -72.2115979743532 7.742843677968738, -72.404338901968 7.400612643853366 M-71.90103420808553 8.29428109296841 C-72.06904287077606 7.995964699639503, -72.23705153346657 7.697648306310596, -72.404338901968 7.400612643853366 M-72.404338901968 7.400612643853366 C-72.55198752084141 7.094017127588403, -72.6996361397148 6.78742161132344, -72.849351968253 6.476533489958307 M-72.404338901968 7.400612643853366 C-72.54488093178229 7.10877411182631, -72.68542296159656 6.816935579799256, -72.849351968253 6.476533489958307 M-72.849351968253 6.476533489958307 C-72.98200673559458 6.148873649919149, -73.11466150293616 5.821213809879991, -73.23424475279616 5.525840870740931 M-72.849351968253 6.476533489958307 C-72.9865229957568 6.137718400002508, -73.1236940232606 5.79890331004671, -73.23424475279616 5.525840870740931 M-73.23424475279616 5.525840870740931 C-73.3078636366563 5.3041125221304295, -73.38148252051643 5.082384173519928, -73.55743564858656 4.552441386096519 M-73.23424475279616 5.525840870740931 C-73.32386727108172 5.255912125073892, -73.4134897893673 4.985983379406852, -73.55743564858656 4.552441386096519 M-73.55743564858656 4.552441386096519 C-73.63243615896134 4.266431934610691, -73.70743666933612 3.980422483124863, -73.81759659490918 3.5603349433010343 M-73.55743564858656 4.552441386096519 C-73.62268711860504 4.303609250750047, -73.68793858862354 4.054777115403574, -73.81759659490918 3.5603349433010343 M-73.81759659490918 3.5603349433010343 C-73.88720652823673 3.2029026477286795, -73.95681646156429 2.8454703521563243, -74.0136585346312 2.5535983205340753 M-73.81759659490918 3.5603349433010343 C-73.86207396445279 3.331953050989963, -73.9065513339964 3.1035711586788914, -74.0136585346312 2.5535983205340753 M-74.0136585346312 2.5535983205340753 C-74.06318054414915 2.169515393939808, -74.11270255366709 1.7854324673455402, -74.14481580718717 1.5363684145229202 M-74.0136585346312 2.5535983205340753 C-74.04934644114734 2.276809964969191, -74.08503434766347 2.0000216094043064, -74.14481580718717 1.5363684145229202 M-74.14481580718717 1.5363684145229202 C-74.16113606153918 1.2821672795182244, -74.17745631589118 1.0279661445135286, -74.210529459211 0.5128252411464846 M-74.14481580718717 1.5363684145229202 C-74.15811008186886 1.3292993554103423, -74.17140435655054 1.1222302962977642, -74.210529459211 0.5128252411464846 M-74.210529459211 0.5128252411464846 C-74.210529459211 0.20909895583902893, -74.210529459211 -0.09462732946842678, -74.210529459211 -0.5128252411464769 M-74.210529459211 0.5128252411464846 C-74.210529459211 0.16204244774202448, -74.210529459211 -0.1887403456624357, -74.210529459211 -0.5128252411464769 M-74.210529459211 -0.5128252411464769 C-74.19606469718592 -0.7381255854328929, -74.18159993516083 -0.9634259297193088, -74.14481580718717 -1.5363684145228982 M-74.210529459211 -0.5128252411464769 C-74.1842972179637 -0.9214135728571434, -74.15806497671642 -1.33000190456781, -74.14481580718717 -1.5363684145228982 M-74.14481580718717 -1.5363684145228982 C-74.11104399998167 -1.798295882211049, -74.07727219277619 -2.0602233498992, -74.0136585346312 -2.5535983205340678 M-74.14481580718717 -1.5363684145228982 C-74.11038444213975 -1.8034112825887139, -74.07595307709231 -2.0704541506545295, -74.0136585346312 -2.5535983205340678 M-74.0136585346312 -2.5535983205340678 C-73.96807231964392 -2.7876738998438384, -73.92248610465663 -3.0217494791536086, -73.81759659490918 -3.5603349433010267 M-74.0136585346312 -2.5535983205340678 C-73.97199844656065 -2.7675140679136576, -73.93033835849009 -2.981429815293248, -73.81759659490918 -3.5603349433010267 M-73.81759659490918 -3.5603349433010267 C-73.75203410903127 -3.8103531169146145, -73.68647162315337 -4.060371290528202, -73.55743564858658 -4.552441386096511 M-73.81759659490918 -3.5603349433010267 C-73.73449993444743 -3.8772185239621577, -73.65140327398566 -4.194102104623289, -73.55743564858658 -4.552441386096511 M-73.55743564858658 -4.552441386096511 C-73.43709939964201 -4.914874994940027, -73.31676315069744 -5.277308603783545, -73.23424475279617 -5.525840870740911 M-73.55743564858658 -4.552441386096511 C-73.45495182182523 -4.861106343721367, -73.35246799506388 -5.169771301346223, -73.23424475279617 -5.525840870740911 M-73.23424475279617 -5.525840870740911 C-73.13628120765864 -5.767812721226925, -73.0383176625211 -6.009784571712939, -72.849351968253 -6.476533489958299 M-73.23424475279617 -5.525840870740911 C-73.1548449078923 -5.721960022745052, -73.07544506298842 -5.918079174749193, -72.849351968253 -6.476533489958299 M-72.849351968253 -6.476533489958299 C-72.67674033237535 -6.834965245155592, -72.5041286964977 -7.193397000352885, -72.404338901968 -7.400612643853359 M-72.849351968253 -6.476533489958299 C-72.71357695643032 -6.7584732071279765, -72.57780194460763 -7.040412924297654, -72.404338901968 -7.400612643853359 M-72.404338901968 -7.400612643853359 C-72.24055887143155 -7.691420672597289, -72.07677884089509 -7.982228701341219, -71.90103420808553 -8.294281092968404 M-72.404338901968 -7.400612643853359 C-72.24381485494789 -7.685639344159963, -72.08329080792775 -7.970666044466567, -71.90103420808553 -8.294281092968404 M-71.90103420808553 -8.294281092968404 C-71.67821199481467 -8.636595848694572, -71.4553897815438 -8.978910604420742, -71.3415060735513 -9.153866561954715 M-71.90103420808553 -8.294281092968404 C-71.76574255609633 -8.502125401319192, -71.63045090410712 -8.709969709669979, -71.3415060735513 -9.153866561954715 M-71.3415060735513 -9.153866561954715 C-71.21044785868901 -9.329472630221197, -71.0793896438267 -9.505078698487678, -70.72805371948849 -9.975836829739734 M-71.3415060735513 -9.153866561954715 C-71.10028148706876 -9.477085531829408, -70.85905690058621 -9.800304501704103, -70.72805371948849 -9.975836829739734 M-70.72805371948849 -9.975836829739734 C-70.55496342539212 -10.179158538302072, -70.38187313129575 -10.382480246864409, -70.06319795320505 -10.756814244181063 M-70.72805371948849 -9.975836829739734 C-70.54579993662584 -10.189922493624215, -70.36354615376321 -10.404008157508695, -70.06319795320505 -10.756814244181063 M-70.06319795320505 -10.756814244181063 C-69.8238696564255 -11.003940359824536, -69.58454135964595 -11.25106647546801, -69.34967080965579 -11.493589601563633 M-70.06319795320505 -10.756814244181063 C-69.8271172595926 -11.000586942921336, -69.59103656598015 -11.244359641661609, -69.34967080965579 -11.493589601563633 M-69.34967080965579 -11.493589601563633 C-69.12948841050715 -11.69355343076339, -68.90930601135851 -11.893517259963147, -68.59040432492463 -12.18313533390614 M-69.34967080965579 -11.493589601563633 C-69.09685225011941 -11.723192728122047, -68.84403369058303 -11.952795854680462, -68.59040432492463 -12.18313533390614 M-68.59040432492463 -12.18313533390614 C-68.38084681557648 -12.350251871051775, -68.1712893062283 -12.51736840819741, -67.78851848785946 -12.822617949887302 M-68.59040432492463 -12.18313533390614 C-68.3694844153707 -12.35931308284971, -68.14856450581676 -12.535490831793279, -67.78851848785946 -12.822617949887302 M-67.78851848785946 -12.822617949887302 C-67.49978581074345 -13.024025366407288, -67.21105313362744 -13.225432782927276, -66.9473084193688 -13.409409678269444 M-67.78851848785946 -12.822617949887302 C-67.47977014832851 -13.037987426043886, -67.17102180879758 -13.253356902200471, -66.9473084193688 -13.409409678269444 M-66.9473084193688 -13.409409678269444 C-66.6673764752785 -13.579106067839678, -66.38744453118822 -13.748802457409912, -66.070230832063 -13.941099265974229 M-66.9473084193688 -13.409409678269444 C-66.7492054099985 -13.529500886732224, -66.5511024006282 -13.649592095195002, -66.070230832063 -13.941099265974229 M-66.070230832063 -13.941099265974229 C-65.87898053058797 -14.04087442575209, -65.68773022911293 -14.140649585529953, -65.16088982588093 -14.415501886438705 M-66.070230832063 -13.941099265974229 C-65.78784716879427 -14.088418642226154, -65.50546350552555 -14.235738018478079, -65.16088982588093 -14.415501886438705 M-65.16088982588093 -14.415501886438705 C-64.94236907501931 -14.512234540657378, -64.72384832415771 -14.60896719487605, -64.22302207806999 -14.830668117536344 M-65.16088982588093 -14.415501886438705 C-64.91249241827934 -14.52546005033663, -64.66409501067776 -14.635418214234557, -64.22302207806999 -14.830668117536344 M-64.22302207806999 -14.830668117536344 C-63.841240376222515 -14.971167312967578, -63.45945867437505 -15.111666508398814, -63.26048148837794 -15.184891952170695 M-64.22302207806999 -14.830668117536344 C-64.02640275709017 -14.903025845185997, -63.829783436110354 -14.97538357283565, -63.26048148837794 -15.184891952170695 M-63.26048148837794 -15.184891952170695 C-63.00028120576989 -15.262118030229612, -62.74008092316183 -15.339344108288527, -62.27722334255213 -15.476717808624466 M-63.26048148837794 -15.184891952170695 C-62.979623287583934 -15.268249191911575, -62.69876508678993 -15.351606431652456, -62.27722334255213 -15.476717808624466 M-62.27722334255213 -15.476717808624466 C-61.90996094968517 -15.560543053185262, -61.54269855681821 -15.644368297746057, -61.277288059221966 -15.704946511857043 M-62.27722334255213 -15.476717808624466 C-62.040815442912184 -15.530676369011566, -61.80440754327224 -15.584634929398664, -61.277288059221966 -15.704946511857043 M-61.277288059221966 -15.704946511857043 C-60.8954173461596 -15.766684407293358, -60.51354663309723 -15.828422302729674, -60.2647845869521 -15.868640221171937 M-61.277288059221966 -15.704946511857043 C-60.95695551998902 -15.756735392584282, -60.63662298075608 -15.808524273311521, -60.2647845869521 -15.868640221171937 M-60.2647845869521 -15.868640221171937 C-59.923453650205644 -15.901568006129356, -59.582122713459185 -15.934495791086777, -59.243873519691405 -15.967126284005381 M-60.2647845869521 -15.868640221171937 C-59.87886624587696 -15.905869299400745, -59.49294790480181 -15.943098377629555, -59.243873519691405 -15.967126284005381 M-59.243873519691405 -15.967126284005381 C-58.84719458690381 -15.979847005291177, -58.45051565411622 -15.992567726576972, -58.21875000000001 -16 M-59.243873519691405 -15.967126284005381 C-58.91281199924604 -15.977742782593907, -58.581750478800664 -15.988359281182431, -58.21875000000001 -16 M-58.21875000000001 -16 C-58.21875000000001 -16, -58.21875 -16, -58.21875 -16 M-58.21875000000001 -16 C-58.21875000000001 -16, -58.21875 -16, -58.21875 -16" stroke="#999" stroke-width="1.3" fill="none" stroke-dasharray="0 0" style=""/></g><g class="label" style="" transform="translate(0, -8.5)"><rect/><g><rect class="background" style="stroke: none"/><text y="-10.1" style=""><tspan class="text-outer-tspan row" x="0" y="-0.1em" dy="1.1em"><tspan font-style="normal" class="text-inner-tspan" font-weight="normal">ISBN</tspan><tspan font-style="normal" class="text-inner-tspan" font-weight="normal"> eingegeben</tspan></tspan></text></g></g></g><g class="node default" id="my-svg-flowchart-B-1" data-look="classic" transform="translate(205.6597671508789, 122.29999923706055)"><rect class="basic label-container" style="" x="-94.921875" y="-32.29999923706055" width="189.84375" height="64.5999984741211"/><g class="label" style="" transform="translate(0, -17.299999237060547)"><rect/><g><rect class="background" style="stroke: none"/><text y="-10.1" style=""><tspan class="text-outer-tspan row" x="0" y="-0.1em" dy="1.1em"><tspan font-style="normal" class="text-inner-tspan" font-weight="normal">Normalisieren</tspan><tspan font-style="normal" class="text-inner-tspan" font-weight="normal"> und</tspan></tspan><tspan class="text-outer-tspan row" x="0" y="1em" dy="1.1em"><tspan font-style="normal" class="text-inner-tspan" font-weight="normal">validieren</tspan></tspan></text></g></g></g><g class="node default" id="my-svg-flowchart-C-3" data-look="classic" transform="translate(205.6597671508789, 269.0992202758789)"><polygon points="64.49921798706055,0 128.9984359741211,-64.49921798706055 64.49921798706055,-128.9984359741211 0,-64.49921798706055" class="label-container" transform="translate(-63.99921798706055, 64.49921798706055)"/><g class="label" style="" transform="translate(0, -17.299999237060547)"><rect/><g><rect class="background" style="stroke: none"/><text y="-10.1" style=""><tspan class="text-outer-tspan row" x="0" y="-0.1em" dy="1.1em"><tspan font-style="normal" class="text-inner-tspan" font-weight="normal">Prüfziffer</tspan></tspan><tspan class="text-outer-tspan row" x="0" y="1em" dy="1.1em"><tspan font-style="normal" class="text-inner-tspan" font-weight="normal">gültig?</tspan></tspan></text></g></g></g><g class="node default" id="my-svg-flowchart-D-5" data-look="classic" transform="translate(287.4835968017578, 1017.7820434570312)"><rect class="basic label-container" style="fill:#ffebee !important;stroke:#c62828 !important" x="-128.140625" y="-23.5" width="256.28125" height="47"/><g class="label" style="" transform="translate(0, -8.5)"><rect/><g><rect class="background" style="stroke: none"/><text y="-10.1" style=""><tspan class="text-outer-tspan row" x="0" y="-0.1em" dy="1.1em"><tspan font-style="normal" class="text-inner-tspan" font-weight="normal">Validierungsfehler</tspan><tspan font-style="normal" class="text-inner-tspan" font-weight="normal"> anzeigen</tspan></tspan></text></g></g></g><g class="node default" id="my-svg-flowchart-E-7" data-look="classic" transform="translate(337.3371124267578, 1231.2765769958496)"><rect class="basic label-container" style="fill:#fff3e0 !important;stroke:#e65100 !important" x="-94.1015625" y="-32.29999923706055" width="188.203125" height="64.5999984741211"/><g class="label" style="" transform="translate(0, -17.299999237060547)"><rect/><g><rect class="background" style="stroke: none"/><text y="-10.1" style=""><tspan class="text-outer-tspan row" x="0" y="-0.1em" dy="1.1em"><tspan font-style="normal" class="text-inner-tspan" font-weight="normal">Manuelle</tspan><tspan font-style="normal" class="text-inner-tspan" font-weight="normal"> Eingabe</tspan></tspan><tspan class="text-outer-tspan row" x="0" y="1em" dy="1.1em"><tspan font-style="normal" class="text-inner-tspan" font-weight="normal">(immer</tspan><tspan font-style="normal" class="text-inner-tspan" font-weight="normal"> verfügbar)</tspan></tspan></text></g></g></g><g class="node default" id="my-svg-flowchart-F-9" data-look="classic" transform="translate(123.8359375, 428.0984420776367)"><rect class="basic label-container" style="" x="-110.0546875" y="-23.5" width="220.109375" height="47"/><g class="label" style="" transform="translate(0, -8.5)"><rect/><g><rect class="background" style="stroke: none"/><text y="-10.1" style=""><tspan class="text-outer-tspan row" x="0" y="-0.1em" dy="1.1em"><tspan font-style="normal" class="text-inner-tspan" font-weight="normal">Open</tspan><tspan font-style="normal" class="text-inner-tspan" font-weight="normal"> Library</tspan><tspan font-style="normal" class="text-inner-tspan" font-weight="normal"> abfragen</tspan></tspan></text></g></g></g><g class="node default" id="my-svg-flowchart-G-11" data-look="classic" transform="translate(123.8359375, 611.7929763793945)"><polygon points="110.19453048706055,0 220.3890609741211,-110.19453048706055 110.19453048706055,-220.3890609741211 0,-110.19453048706055" class="label-container" transform="translate(-109.69453048706055, 110.19453048706055)"/><g class="label" style="" transform="translate(0, -17.299999237060547)"><rect/><g><rect class="background" style="stroke: none"/><text y="-10.1" style=""><tspan class="text-outer-tspan row" x="0" y="-0.1em" dy="1.1em"><tspan font-style="normal" class="text-inner-tspan" font-weight="normal">Nützliche</tspan></tspan><tspan class="text-outer-tspan row" x="0" y="1em" dy="1.1em"><tspan font-style="normal" class="text-inner-tspan" font-weight="normal">Metadaten</tspan><tspan font-style="normal" class="text-inner-tspan" font-weight="normal"> gefunden?</tspan></tspan></text></g></g></g><g class="node default" id="my-svg-flowchart-H-13" data-look="classic" transform="translate(123.8359375, 825.2875099182129)"><rect class="basic label-container" style="fill:#e8f5e9 !important;stroke:#2e7d32 !important" x="-115.8359375" y="-32.29999923706055" width="231.671875" height="64.5999984741211"/><g class="label" style="" transform="translate(0, -17.299999237060547)"><rect/><g><rect class="background" style="stroke: none"/><text y="-10.1" style=""><tspan class="text-outer-tspan row" x="0" y="-0.1em" dy="1.1em"><tspan font-style="normal" class="text-inner-tspan" font-weight="normal">Metadaten</tspan><tspan font-style="normal" class="text-inner-tspan" font-weight="normal"> zurückgeben</tspan></tspan><tspan class="text-outer-tspan row" x="0" y="1em" dy="1.1em"><tspan font-style="normal" class="text-inner-tspan" font-weight="normal">Anbieter:</tspan><tspan font-style="normal" class="text-inner-tspan" font-weight="normal"> Open</tspan><tspan font-style="normal" class="text-inner-tspan" font-weight="normal"> Library</tspan></tspan></text></g></g></g><g class="node default" id="my-svg-flowchart-I-15" data-look="classic" transform="translate(611.4734420776367, 825.2875099182129)"><rect class="basic label-container" style="" x="-117.171875" y="-32.29999923706055" width="234.34375" height="64.5999984741211"/><g class="label" style="" transform="translate(0, -17.299999237060547)"><rect/><g><rect class="background" style="stroke: none"/><text y="-10.1" style=""><tspan class="text-outer-tspan row" x="0" y="-0.1em" dy="1.1em"><tspan font-style="normal" class="text-inner-tspan" font-weight="normal">Let</tspan><tspan font-style="normal" class="text-inner-tspan" font-weight="normal"> Books</tspan></tspan><tspan class="text-outer-tspan row" x="0" y="1em" dy="1.1em"><tspan font-style="normal" class="text-inner-tspan" font-weight="normal">Metadaten-API</tspan><tspan font-style="normal" class="text-inner-tspan" font-weight="normal"> abfragen</tspan></tspan></text></g></g></g><g class="node default" id="my-svg-flowchart-J-17" data-look="classic" transform="translate(611.4734420776367, 1017.7820434570312)"><polygon points="110.19453048706055,0 220.3890609741211,-110.19453048706055 110.19453048706055,-220.3890609741211 0,-110.19453048706055" class="label-container" transform="translate(-109.69453048706055, 110.19453048706055)"/><g class="label" style="" transform="translate(0, -17.299999237060547)"><rect/><g><rect class="background" style="stroke: none"/><text y="-10.1" style=""><tspan class="text-outer-tspan row" x="0" y="-0.1em" dy="1.1em"><tspan font-style="normal" class="text-inner-tspan" font-weight="normal">Nützliche</tspan></tspan><tspan class="text-outer-tspan row" x="0" y="1em" dy="1.1em"><tspan font-style="normal" class="text-inner-tspan" font-weight="normal">Metadaten</tspan><tspan font-style="normal" class="text-inner-tspan" font-weight="normal"> gefunden?</tspan></tspan></text></g></g></g><g class="node default" id="my-svg-flowchart-K-19" data-look="classic" transform="translate(666.5769577026367, 1231.2765769958496)"><rect class="basic label-container" style="fill:#e8f5e9 !important;stroke:#2e7d32 !important" x="-115.8359375" y="-32.29999923706055" width="231.671875" height="64.5999984741211"/><g class="label" style="" transform="translate(0, -17.299999237060547)"><rect/><g><rect class="background" style="stroke: none"/><text y="-10.1" style=""><tspan class="text-outer-tspan row" x="0" y="-0.1em" dy="1.1em"><tspan font-style="normal" class="text-inner-tspan" font-weight="normal">Metadaten</tspan><tspan font-style="normal" class="text-inner-tspan" font-weight="normal"> zurückgeben</tspan></tspan><tspan class="text-outer-tspan row" x="0" y="1em" dy="1.1em"><tspan font-style="normal" class="text-inner-tspan" font-weight="normal">Anbieter:</tspan><tspan font-style="normal" class="text-inner-tspan" font-weight="normal"> Let</tspan><tspan font-style="normal" class="text-inner-tspan" font-weight="normal"> Books</tspan><tspan font-style="normal" class="text-inner-tspan" font-weight="normal"> API</tspan></tspan></text></g></g></g></g></g></g><defs><filter id="my-svg-drop-shadow" height="130%" width="130%"><feDropShadow dx="4" dy="4" stdDeviation="0" flood-opacity="0.06" flood-color="#000000"/></filter></defs><defs><filter id="my-svg-drop-shadow-small" height="150%" width="150%"><feDropShadow dx="2" dy="2" stdDeviation="0" flood-opacity="0.06" flood-color="#000000"/></filter></defs><linearGradient id="my-svg-gradient" gradientUnits="objectBoundingBox" x1="0%" y1="0%" x2="100%" y2="0%"><stop offset="0%" stop-color="hsl(0, 0%, 83.3333333333%)" stop-opacity="1"/><stop offset="100%" stop-color="hsl(0, 0%, 88.9215686275%)" stop-opacity="1"/></linearGradient><text text-anchor="middle" x="395.2064514160156" y="-25" class="flowchartTitleText">ISBN-Metadaten-Suchkette</text></svg>