<svg id="my-svg" width="100%" xmlns="http://www.w3.org/2000/svg" xmlns:xlink="http://www.w3.org/1999/xlink" class="flowchart" style="max-width: 736.875px; background-color: transparent;" viewBox="0 -49 736.8746337890625 1321.1483154296875" role="graphics-document document" aria-roledescription="flowchart-v2"><style>#my-svg{font-family:"trebuchet ms",verdana,arial,sans-serif;font-size:16px;fill:#000000;}@keyframes edge-animation-frame{from{stroke-dashoffset:0;}}@keyframes dash{to{stroke-dashoffset:0;}}#my-svg .edge-animation-slow{stroke-dasharray:9,5!important;stroke-dashoffset:900;animation:dash 50s linear infinite;stroke-linecap:round;}#my-svg .edge-animation-fast{stroke-dasharray:9,5!important;stroke-dashoffset:900;animation:dash 20s linear infinite;stroke-linecap:round;}#my-svg .error-icon{fill:#552222;}#my-svg .error-text{fill:#552222;stroke:#552222;}#my-svg .edge-thickness-normal{stroke-width:1px;}#my-svg .edge-thickness-thick{stroke-width:3.5px;}#my-svg .edge-pattern-solid{stroke-dasharray:0;}#my-svg .edge-thickness-invisible{stroke-width:0;fill:none;}#my-svg .edge-pattern-dashed{stroke-dasharray:3;}#my-svg .edge-pattern-dotted{stroke-dasharray:2;}#my-svg .marker{fill:#666;stroke:#666;}#my-svg .marker.cross{stroke:#666;}#my-svg svg{font-family:"trebuchet ms",verdana,arial,sans-serif;font-size:16px;}#my-svg p{margin:0;}#my-svg .label{font-family:"trebuchet ms",verdana,arial,sans-serif;color:#000000;}#my-svg .cluster-label text{fill:#333;}#my-svg .cluster-label span{color:#333;}#my-svg .cluster-label span p{background-color:transparent;}#my-svg .label text,#my-svg span{fill:#000000;color:#000000;}#my-svg .node rect,#my-svg .node circle,#my-svg .node ellipse,#my-svg .node polygon,#my-svg .node path{fill:#eee;stroke:#999;stroke-width:1px;}#my-svg .rough-node .label text,#my-svg .node .label text,#my-svg .image-shape .label,#my-svg .icon-shape .label{text-anchor:middle;}#my-svg .node .katex path{fill:#000;stroke:#000;stroke-width:1px;}#my-svg .rough-node .label,#my-svg .node .label,#my-svg .image-shape .label,#my-svg .icon-shape .label{text-align:center;}#my-svg .node.clickable{cursor:pointer;}#my-svg .root .anchor path{fill:#666!important;stroke-width:0;stroke:#666;}#my-svg .arrowheadPath{fill:#333333;}#my-svg .edgePath .path{stroke:#666;stroke-width:1px;}#my-svg .flowchart-link{stroke:#666;fill:none;}#my-svg .edgeLabel{background-color:white;text-align:center;}#my-svg .edgeLabel p{background-color:white;}#my-svg .edgeLabel rect{opacity:0.5;background-color:white;fill:white;}#my-svg .labelBkg{background-color:rgba(255, 255, 255, 0.5);}#my-svg .cluster rect{fill:hsl(0, 0%, 98.9215686275%);stroke:#707070;stroke-width:1px;}#my-svg .cluster text{fill:#333;}#my-svg .cluster span{color:#333;}#my-svg div.mermaidTooltip{position:absolute;text-align:center;max-width:200px;padding:2px;font-family:"trebuchet ms",verdana,arial,sans-serif;font-size:12px;background:hsl(-160, 0%, 93.3333333333%);border:1px solid #707070;border-radius:2px;pointer-events:none;z-index:100;}#my-svg .flowchartTitleText{text-anchor:middle;font-size:18px;fill:#000000;}#my-svg rect.text{fill:none;stroke-width:0;}#my-svg .icon-shape,#my-svg .image-shape{background-color:white;text-align:center;}#my-svg .icon-shape p,#my-svg .image-shape p{background-color:white;padding:2px;}#my-svg .icon-shape .label rect,#my-svg .image-shape .label rect{opacity:0.5;background-color:white;fill:white;}#my-svg .label-icon{display:inline-block;height:1em;overflow:visible;vertical-align:-0.125em;}#my-svg .node .label-icon path{fill:currentColor;stroke:revert;stroke-width:revert;}#my-svg .node .neo-node{stroke:#999;}#my-svg [data-look="neo"].node rect,#my-svg [data-look="neo"].cluster rect,#my-svg [data-look="neo"].node polygon{stroke:url(#my-svg-gradient);filter:drop-shadow( 1px 2px 2px rgba(185,185,185,1));}#my-svg [data-look="neo"].node path{stroke:url(#my-svg-gradient);stroke-width:1px;}#my-svg [data-look="neo"].node .outer-path{filter:drop-shadow( 1px 2px 2px rgba(185,185,185,1));}#my-svg [data-look="neo"].node .neo-line path{stroke:#999;filter:none;}#my-svg [data-look="neo"].node circle{stroke:url(#my-svg-gradient);filter:drop-shadow( 1px 2px 2px rgba(185,185,185,1));}#my-svg [data-look="neo"].node circle .state-start{fill:#000000;}#my-svg [data-look="neo"].icon-shape .icon{fill:url(#my-svg-gradient);filter:drop-shadow( 1px 2px 2px rgba(185,185,185,1));}#my-svg [data-look="neo"].icon-shape .icon-neo path{stroke:url(#my-svg-gradient);filter:drop-shadow( 1px 2px 2px rgba(185,185,185,1));}#my-svg :root{--mermaid-font-family:"trebuchet ms",verdana,arial,sans-serif;}</style><g><marker id="my-svg_flowchart-v2-pointEnd" class="marker flowchart-v2" viewBox="0 0 10 10" refX="5" refY="5" markerUnits="userSpaceOnUse" markerWidth="8" markerHeight="8" orient="auto"><path d="M 0 0 L 10 5 L 0 10 z" class="arrowMarkerPath" style="stroke-width: 1; stroke-dasharray: 1, 0;"/></marker><marker id="my-svg_flowchart-v2-pointStart" class="marker flowchart-v2" viewBox="0 0 10 10" refX="4.5" refY="5" markerUnits="userSpaceOnUse" markerWidth="8" markerHeight="8" orient="auto"><path d="M 0 5 L 10 10 L 10 0 z" class="arrowMarkerPath" style="stroke-width: 1; stroke-dasharray: 1, 0;"/></marker><marker id="my-svg_flowchart-v2-pointEnd-margin" class="marker flowchart-v2" viewBox="0 0 11.5 14" refX="11.5" refY="7" markerUnits="userSpaceOnUse" markerWidth="10.5" markerHeight="14" orient="auto"><path d="M 0 0 L 11.5 7 L 0 14 z" class="arrowMarkerPath" style="stroke-width: 0; stroke-dasharray: 1, 0;"/></marker><marker id="my-svg_flowchart-v2-pointStart-margin" class="marker flowchart-v2" viewBox="0 0 11.5 14" refX="1" refY="7" markerUnits="userSpaceOnUse" markerWidth="11.5" markerHeight="14" orient="auto"><polygon points="0,7 11.5,14 11.5,0" class="arrowMarkerPath" style="stroke-width: 0; stroke-dasharray: 1, 0;"/></marker><marker id="my-svg_flowchart-v2-circleEnd" class="marker flowchart-v2" viewBox="0 0 10 10" refX="11" refY="5" markerUnits="userSpaceOnUse" markerWidth="11" markerHeight="11" orient="auto"><circle cx="5" cy="5" r="5" class="arrowMarkerPath" style="stroke-width: 1; stroke-dasharray: 1, 0;"/></marker><marker id="my-svg_flowchart-v2-circleStart" class="marker flowchart-v2" viewBox="0 0 10 10" refX="-1" refY="5" markerUnits="userSpaceOnUse" markerWidth="11" markerHeight="11" orient="auto"><circle cx="5" cy="5" r="5" class="arrowMarkerPath" style="stroke-width: 1; stroke-dasharray: 1, 0;"/></marker><marker id="my-svg_flowchart-v2-circleEnd-margin" class="marker flowchart-v2" viewBox="0 0 10 10" refY="5" refX="12.25" markerUnits="userSpaceOnUse" markerWidth="14" markerHeight="14" orient="auto"><circle cx="5" cy="5" r="5" class="arrowMarkerPath" style="stroke-width: 0; stroke-dasharray: 1, 0;"/></marker><marker id="my-svg_flowchart-v2-circleStart-margin" class="marker flowchart-v2" viewBox="0 0 10 10" refX="-2" refY="5" markerUnits="userSpaceOnUse" markerWidth="14" markerHeight="14" orient="auto"><circle cx="5" cy="5" r="5" class="arrowMarkerPath" style="stroke-width: 0; stroke-dasharray: 1, 0;"/></marker><marker id="my-svg_flowchart-v2-crossEnd" class="marker cross flowchart-v2" viewBox="0 0 11 11" refX="12" refY="5.2" markerUnits="userSpaceOnUse" markerWidth="11" markerHeight="11" orient="auto"><path d="M 1,1 l 9,9 M 10,1 l -9,9" class="arrowMarkerPath" style="stroke-width: 2; stroke-dasharray: 1, 0;"/></marker><marker id="my-svg_flowchart-v2-crossStart" class="marker cross flowchart-v2" viewBox="0 0 11 11" refX="-1" refY="5.2" markerUnits="userSpaceOnUse" markerWidth="11" markerHeight="11" orient="auto"><path d="M 1,1 l 9,9 M 10,1 l -9,9" class="arrowMarkerPath" style="stroke-width: 2; stroke-dasharray: 1, 0;"/></marker><marker id="my-svg_flowchart-v2-crossEnd-margin" class="marker cross flowchart-v2" viewBox="0 0 15 15" refX="17.7" refY="7.5" markerUnits="userSpaceOnUse" markerWidth="12" markerHeight="12" orient="auto"><path d="M 1,1 L 14,14 M 1,14 L 14,1" class="arrowMarkerPath" style="stroke-width: 2.5;"/></marker><marker id="my-svg_flowchart-v2-crossStart-margin" class="marker cross flowchart-v2" viewBox="0 0 15 15" refX="-3.5" refY="7.5" markerUnits="userSpaceOnUse" markerWidth="12" markerHeight="12" orient="auto"><path d="M 1,1 L 14,14 M 1,14 L 14,1" class="arrowMarkerPath" style="stroke-width: 2.5; stroke-dasharray: 1, 0;"/></marker><g class="root"><g class="clusters"/><g class="edgePaths"><path d="M193.742,40.5L193.659,44.583C193.576,48.667,193.409,56.833,193.326,64.417C193.242,72,193.242,79,193.242,82.5L193.242,86" id="my-svg-L_A_B_0" class="edge-thickness-normal edge-pattern-solid edge-thickness-normal edge-pattern-solid flowchart-link" style=";" data-edge="true" data-et="edge" data-id="L_A_B_0" data-points="W3sieCI6MTkzLjc0MjE4NzUsInkiOjQwLjUwMDAwMDAwMDAwMDAxNH0seyJ4IjoxOTMuMjQyMTg3NSwieSI6NjV9LHsieCI6MTkzLjI0MjE4NzUsInkiOjkwfV0=" data-look="classic" marker-end="url(#my-svg_flowchart-v2-pointEnd)"/><path d="M193.242,137L193.242,141.167C193.242,145.333,193.242,153.667,193.242,161.333C193.242,169,193.242,176,193.242,179.5L193.242,183" id="my-svg-L_B_C_0" class="edge-thickness-normal edge-pattern-solid edge-thickness-normal edge-pattern-solid flowchart-link" style=";" data-edge="true" data-et="edge" data-id="L_B_C_0" data-points="W3sieCI6MTkzLjI0MjE4NzUsInkiOjEzN30seyJ4IjoxOTMuMjQyMTg3NSwieSI6MTYyfSx7IngiOjE5My4yNDIxODc1LCJ5IjoxODYuOTk5OTk5OTk5OTk5OTd9XQ==" data-look="classic" marker-end="url(#my-svg_flowchart-v2-pointEnd)"/><path d="M229.405,362.304L235.614,374.248C241.822,386.192,254.239,410.079,260.448,431.857C266.656,453.634,266.656,473.301,266.656,491.217C266.656,509.134,266.656,525.301,266.656,553.237C266.656,581.174,266.656,620.881,266.656,662.337C266.656,703.794,266.656,747.001,266.656,779.904C266.656,812.808,266.656,835.408,266.656,856.258C266.656,877.108,266.656,896.208,266.656,921.028C266.656,945.848,266.656,976.388,266.656,991.658L266.656,1006.928" id="my-svg-L_C_D_0" class="edge-thickness-normal edge-pattern-solid edge-thickness-normal edge-pattern-solid flowchart-link" style=";" data-edge="true" data-et="edge" data-id="L_C_D_0" data-points="W3sieCI6MjI5LjQwNTMyMzk4NjEwMzIsInkiOjM2Mi4zMDQwNDE4NTg2MjM0fSx7IngiOjI2Ni42NTYyNSwieSI6NDMzLjk2NzE3ODM0NDcyNjU2fSx7IngiOjI2Ni42NTYyNSwieSI6NDkyLjk2NzE3ODM0NDcyNjU2fSx7IngiOjI2Ni42NTYyNSwieSI6NTQxLjQ2NzE3ODM0NDcyNjZ9LHsieCI6MjY2LjY1NjI1LCJ5Ijo2NjAuNTg3NDkzODk2NDg0NH0seyJ4IjoyNjYuNjU2MjUsInkiOjc5MC4yMDc4MDk0NDgyNDIyfSx7IngiOjI2Ni42NTYyNSwieSI6ODU4LjAwNzgwODY4NTMwMjd9LHsieCI6MjY2LjY1NjI1LCJ5Ijo5MTUuMzA3ODA3OTIyMzYzM30seyJ4IjoyNjYuNjU2MjUsInkiOjEwMTAuOTI4MTIzNDc0MTIxMX1d" data-look="classic" marker-end="url(#my-svg_flowchart-v2-pointEnd)"/><path d="M266.656,1057.928L266.656,1075.615C266.656,1093.302,266.656,1128.675,269.893,1151.708C273.129,1174.741,279.603,1185.434,282.839,1190.78L286.076,1196.127" id="my-svg-L_D_E_0" class="edge-thickness-normal edge-pattern-solid edge-thickness-normal edge-pattern-solid flowchart-link" style=";" data-edge="true" data-et="edge" data-id="L_D_E_0" data-points="W3sieCI6MjY2LjY1NjI1LCJ5IjoxMDU3LjkyODEyMzQ3NDEyMX0seyJ4IjoyNjYuNjU2MjUsInkiOjExNjQuMDQ4NDM5MDI1ODc5fSx7IngiOjI4OC4xNDczMjI5MDQ5OTgzNiwieSI6MTE5OS41NDg0MzkwMjU4Nzl9XQ==" data-look="classic" marker-end="url(#my-svg_flowchart-v2-pointEnd)"/><path d="M157.079,362.304L150.871,374.248C144.662,386.192,132.245,410.079,126.037,427.273C119.828,444.467,119.828,454.967,119.828,460.217L119.828,465.467" id="my-svg-L_C_F_0" class="edge-thickness-normal edge-pattern-solid edge-thickness-normal edge-pattern-solid flowchart-link" style=";" data-edge="true" data-et="edge" data-id="L_C_F_0" data-points="W3sieCI6MTU3LjA3OTA1MTAxMzg5Njg0LCJ5IjozNjIuMzA0MDQxODU4NjIzNH0seyJ4IjoxMTkuODI4MTI1LCJ5Ijo0MzMuOTY3MTc4MzQ0NzI2NTZ9LHsieCI6MTE5LjgyODEyNSwieSI6NDY5LjQ2NzE3ODM0NDcyNjU2fV0=" data-look="classic" marker-end="url(#my-svg_flowchart-v2-pointEnd)"/><path d="M119.828,516.467L119.828,520.634C119.828,524.801,119.828,533.134,119.828,540.801C119.828,548.467,119.828,555.467,119.828,558.967L119.828,562.467" id="my-svg-L_F_G_0" class="edge-thickness-normal edge-pattern-solid edge-thickness-normal edge-pattern-solid flowchart-link" style=";" data-edge="true" data-et="edge" data-id="L_F_G_0" data-points="W3sieCI6MTE5LjgyODEyNSwieSI6NTE2LjQ2NzE3ODM0NDcyNjZ9LHsieCI6MTE5LjgyODEyNSwieSI6NTQxLjQ2NzE3ODM0NDcyNjZ9LHsieCI6MTE5LjgyODEyNTAwMDAwMDAxLCJ5Ijo1NjYuNDY3MTc4MzQ0NzI2Nn1d" data-look="classic" marker-end="url(#my-svg_flowchart-v2-pointEnd)"/><path d="M119.828,754.708L119.828,760.624C119.828,766.541,119.828,778.374,119.828,789.541C119.828,800.708,119.828,811.208,119.828,816.458L119.828,821.708" id="my-svg-L_G_H_0" class="edge-thickness-normal edge-pattern-solid edge-thickness-normal edge-pattern-solid flowchart-link" style=";" data-edge="true" data-et="edge" data-id="L_G_H_0" data-points="W3sieCI6MTE5LjgyODEyNTAwMDAwMDAxLCJ5Ijo3NTQuNzA3ODA5NDQ4MjQyMn0seyJ4IjoxMTkuODI4MTI1LCJ5Ijo3OTAuMjA3ODA5NDQ4MjQyMn0seyJ4IjoxMTkuODI4MTI1LCJ5Ijo4MjUuNzA3ODA5NDQ4MjQyMn1d" data-look="classic" marker-end="url(#my-svg_flowchart-v2-pointEnd)"/><path d="M192.755,681.781L254.938,699.852C317.122,717.923,441.488,754.065,503.672,777.387C565.855,800.708,565.855,811.208,565.855,816.458L565.855,821.708" id="my-svg-L_G_I_0" class="edge-thickness-normal edge-pattern-solid edge-thickness-normal edge-pattern-solid flowchart-link" style=";" data-edge="true" data-et="edge" data-id="L_G_I_0" data-points="W3sieCI6MTkyLjc1NTA3MTU2ODQzMDAzLCJ5Ijo2ODEuNzgwODYyODc5ODEyMn0seyJ4Ijo1NjUuODU1MDc5NjUwODc4OSwieSI6NzkwLjIwNzgwOTQ0ODI0MjJ9LHsieCI6NTY1Ljg1NTA3OTY1MDg3ODksInkiOjgyNS43MDc4MDk0NDgyNDIyfV0=" data-look="classic" marker-end="url(#my-svg_flowchart-v2-pointEnd)"/><path d="M565.855,890.308L565.855,894.474C565.855,898.641,565.855,906.974,565.855,914.641C565.855,922.308,565.855,929.308,565.855,932.808L565.855,936.308" id="my-svg-L_I_J_0" class="edge-thickness-normal edge-pattern-solid edge-thickness-normal edge-pattern-solid flowchart-link" style=";" data-edge="true" data-et="edge" data-id="L_I_J_0" data-points="W3sieCI6NTY1Ljg1NTA3OTY1MDg3ODksInkiOjg5MC4zMDc4MDc5MjIzNjMzfSx7IngiOjU2NS44NTUwNzk2NTA4Nzg5LCJ5Ijo5MTUuMzA3ODA3OTIyMzYzM30seyJ4Ijo1NjUuODU1MDc5NjUwODc5NCwieSI6OTQwLjMwNzgwNzkyMjM2NH1d" data-look="classic" marker-end="url(#my-svg_flowchart-v2-pointEnd)"/><path d="M590.973,1103.431L594.651,1113.534C598.328,1123.637,605.683,1143.842,609.361,1159.195C613.039,1174.548,613.039,1185.048,613.039,1190.298L613.039,1195.548" id="my-svg-L_J_K_0" class="edge-thickness-normal edge-pattern-solid edge-thickness-normal edge-pattern-solid flowchart-link" style=";" data-edge="true" data-et="edge" data-id="L_J_K_0" data-points="W3sieCI6NTkwLjk3MjkzMzM4MDIxMjEsInkiOjExMDMuNDMwNTg1Mjk2NTQ1Nn0seyJ4Ijo2MTMuMDM4NjczNDAwODc4OSwieSI6MTE2NC4wNDg0MzkwMjU4Nzl9LHsieCI6NjEzLjAzODY3MzQwMDg3ODksInkiOjExOTkuNTQ4NDM5MDI1ODc5fV0=" data-look="classic" marker-end="url(#my-svg_flowchart-v2-pointEnd)"/><path d="M519.021,1081.715L505.43,1095.437C491.84,1109.159,464.658,1136.604,440.333,1155.934C416.008,1175.264,394.54,1186.48,383.806,1192.088L373.071,1197.696" id="my-svg-L_J_E_0" class="edge-thickness-normal edge-pattern-solid edge-thickness-normal edge-pattern-solid flowchart-link" style=";" data-edge="true" data-et="edge" data-id="L_J_E_0" data-points="W3sieCI6NTE5LjAyMTM2MDIyMzEzNTcsInkiOjEwODEuNzE0NzE5NTk4MTM1OH0seyJ4Ijo0MzcuNDc2MTczNDAwODc4OSwieSI6MTE2NC4wNDg0MzkwMjU4Nzl9LHsieCI6MzY5LjUyNjEzNDk2NDE0NjM3LCJ5IjoxMTk5LjU0ODQzOTAyNTg3OX1d" data-look="classic" marker-end="url(#my-svg_flowchart-v2-pointEnd)"/></g><g class="edgeLabels"><g class="edgeLabel"><g class="label" data-id="L_A_B_0" transform="translate(0, 0)"><text y="-10.1" text-anchor="middle"><tspan class="text-outer-tspan row" x="0" y="-0.1em" dy="1.1em" text-anchor="middle"/></text></g></g><g><rect class="background" style="stroke: none"/></g><g class="edgeLabel"><g class="label" data-id="L_B_C_0" transform="translate(0, 0)"><text y="-10.1" text-anchor="middle"><tspan class="text-outer-tspan row" x="0" y="-0.1em" dy="1.1em" text-anchor="middle"/></text></g></g><g><rect class="background" style="stroke: none"/></g><g class="edgeLabel" transform="translate(266.65625, 660.5874938964844)"><g class="label" data-id="L_C_D_0" transform="translate(-0.05078125, -10.5)"><g><rect class="background" style="" x="-12.2265625" y="0" width="24.5546875" height="21"/><text y="-10.1" text-anchor="middle" style=""><tspan class="text-outer-tspan row" x="0" y="-0.1em" dy="1.1em" text-anchor="middle"><tspan font-style="normal" class="text-inner-tspan" font-weight="normal">Ne</tspan></tspan></text></g></g></g><g class="edgeLabel"><g class="label" data-id="L_D_E_0" transform="translate(0, 0)"><text y="-10.1" text-anchor="middle"><tspan class="text-outer-tspan row" x="0" y="-0.1em" dy="1.1em" text-anchor="middle"/></text></g></g><g><rect class="background" style="stroke: none"/></g><g class="edgeLabel" transform="translate(119.828125, 433.96717834472656)"><g class="label" data-id="L_C_F_0" transform="translate(-0.05078125, -10.5)"><g><rect class="background" style="" x="-12.2265625" y="0" width="24.5546875" height="21"/><text y="-10.1" text-anchor="middle" style=""><tspan class="text-outer-tspan row" x="0" y="-0.1em" dy="1.1em" text-anchor="middle"><tspan font-style="normal" class="text-inner-tspan" font-weight="normal">Da</tspan></tspan></text></g></g></g><g class="edgeLabel"><g class="label" data-id="L_F_G_0" transform="translate(0, 0)"><text y="-10.1" text-anchor="middle"><tspan class="text-outer-tspan row" x="0" y="-0.1em" dy="1.1em" text-anchor="middle"/></text></g></g><g><rect class="background" style="stroke: none"/></g><g class="edgeLabel" transform="translate(119.828125, 790.2078094482422)"><g class="label" data-id="L_G_H_0" transform="translate(-0.05078125, -10.5)"><g><rect class="background" style="" x="-12.2265625" y="0" width="24.5546875" height="21"/><text y="-10.1" text-anchor="middle" style=""><tspan class="text-outer-tspan row" x="0" y="-0.1em" dy="1.1em" text-anchor="middle"><tspan font-style="normal" class="text-inner-tspan" font-weight="normal">Da</tspan></tspan></text></g></g></g><g class="edgeLabel" transform="translate(565.8550796508789, 790.2078094482422)"><g class="label" data-id="L_G_I_0" transform="translate(-0.05078125, -10.5)"><g><rect class="background" style="" x="-62.0390625" y="0" width="124.1796875" height="21"/><text y="-10.1" text-anchor="middle" style=""><tspan class="text-outer-tspan row" x="0" y="-0.1em" dy="1.1em" text-anchor="middle"><tspan font-style="normal" class="text-inner-tspan" font-weight="normal">Ne</tspan><tspan font-style="normal" class="text-inner-tspan" font-weight="normal"> /</tspan><tspan font-style="normal" class="text-inner-tspan" font-weight="normal"> Nedostupno</tspan></tspan></text></g></g></g><g class="edgeLabel"><g class="label" data-id="L_I_J_0" transform="translate(0, 0)"><text y="-10.1" text-anchor="middle"><tspan class="text-outer-tspan row" x="0" y="-0.1em" dy="1.1em" text-anchor="middle"/></text></g></g><g><rect class="background" style="stroke: none"/></g><g class="edgeLabel" transform="translate(613.0386734008789, 1164.048439025879)"><g class="label" data-id="L_J_K_0" transform="translate(-0.05078125, -10.5)"><g><rect class="background" style="" x="-12.2265625" y="0" width="24.5546875" height="21"/><text y="-10.1" text-anchor="middle" style=""><tspan class="text-outer-tspan row" x="0" y="-0.1em" dy="1.1em" text-anchor="middle"><tspan font-style="normal" class="text-inner-tspan" font-weight="normal">Da</tspan></tspan></text></g></g></g><g class="edgeLabel" transform="translate(451.27448, 1150.11671)"><g class="label" data-id="L_J_E_0" transform="translate(-0.05078125, -10.5)"><g><rect class="background" style="" x="-62.0390625" y="0" width="124.1796875" height="21"/><text y="-10.1" text-anchor="middle" style=""><tspan class="text-outer-tspan row" x="0" y="-0.1em" dy="1.1em" text-anchor="middle"><tspan font-style="normal" class="text-inner-tspan" font-weight="normal">Ne</tspan><tspan font-style="normal" class="text-inner-tspan" font-weight="normal"> /</tspan><tspan font-style="normal" class="text-inner-tspan" font-weight="normal"> Nedostupno</tspan></tspan></text></g></g></g></g><g class="nodes"><g class="node default" id="my-svg-flowchart-A-0" data-look="classic" transform="translate(193.2421875, 24)"><g class="basic label-container outer-path"><path d="M-35.078125 -16 C-15.988545176153313 -16, 3.101034647693375 -16, 35.078125 -16 C35.078125 -16, 35.078125 -16, 35.078125 -16 C35.30872701985762 -15.992605042062769, 35.53932903971524 -15.985210084125537, 36.103248519691405 -15.967126284005381 C36.354112841530956 -15.942925704586008, 36.60497716337051 -15.918725125166635, 37.124159586952096 -15.868640221171939 C37.403933878835076 -15.823408483342336, 37.68370817071806 -15.778176745512733, 38.13666305922195 -15.704946511857047 C38.40360391211805 -15.644019004135371, 38.67054476501414 -15.583091496413697, 39.13659834255211 -15.476717808624471 C39.35784076500745 -15.411054218964901, 39.57908318746279 -15.345390629305331, 40.119856488377934 -15.184891952170698 C40.39022859172557 -15.085392518846444, 40.6606006950732 -14.985893085522187, 41.08239707806999 -14.830668117536348 C41.298426608326245 -14.73503825278023, 41.5144561385825 -14.639408388024114, 42.02026482588093 -14.415501886438706 C42.31328279009895 -14.262634602193128, 42.606300754316976 -14.109767317947549, 42.929605832063004 -13.941099265974232 C43.19770467870221 -13.778576169617843, 43.465803525341414 -13.616053073261455, 43.80668341936878 -13.409409678269451 C44.12979435542244 -13.184021476525405, 44.45290529147609 -12.958633274781361, 44.647893487859456 -12.822617949887306 C44.96450686217977 -12.570127209302594, 45.28112023650008 -12.317636468717883, 45.44977932492461 -12.183135333906153 C45.72001946100126 -11.93771039248353, 45.9902595970779 -11.692285451060906, 46.209045809655784 -11.493589601563642 C46.45140892350643 -11.243329788131144, 46.69377203735708 -10.993069974698644, 46.92257295320505 -10.756814244181072 C47.17831355318544 -10.456406783391724, 47.43405415316583 -10.155999322602376, 47.58742871948848 -9.975836829739738 C47.71102770281484 -9.810225452181433, 47.834626686141206 -9.644614074623128, 48.20088107355129 -9.153866561954718 C48.34618630470467 -8.930638706985249, 48.49149153585806 -8.707410852015778, 48.760409208085534 -8.294281092968403 C48.882628091398054 -8.077269089643085, 49.004846974710574 -7.860257086317767, 49.263713901968 -7.400612643853364 C49.391148079376826 -7.135992847809347, 49.51858225678565 -6.871373051765329, 49.708726968252996 -6.476533489958305 C49.824428187730746 -6.190749240917363, 49.940129407208495 -5.904964991876421, 50.093619752796165 -5.52584087074093 C50.211656384266554 -5.1703333433353595, 50.32969301573694 -4.81482581592979, 50.41681064858657 -4.552441386096524 C50.470373684265034 -4.348182316688026, 50.5239367199435 -4.143923247279527, 50.676971594909176 -3.560334943301032 C50.748799718561926 -3.1915127092234936, 50.82062784221467 -2.822690475145955, 50.873033534631205 -2.5535983205340735 C50.921481938107576 -2.177842070390742, 50.96993034158394 -1.8020858202474104, 51.00419080718717 -1.536368414522911 C51.02395532296426 -1.2285201276647557, 51.043719838741346 -0.9206718408066003, 51.069904459211 -0.5128252411464826 C51.069904459211 -0.28534556840349323, 51.069904459211 -0.05786589566050382, 51.069904459211 0.5128252411464788 C51.05441853028516 0.7540310841833273, 51.03893260135932 0.995236927220176, 51.00419080718717 1.5363684145229002 C50.96185982115026 1.8646791830265106, 50.91952883511335 2.1929899515301208, 50.873033534631205 2.5535983205340624 C50.79716217307621 2.943181726701015, 50.721290811521214 3.3327651328679675, 50.676971594909176 3.5603349433010285 C50.597611781222035 3.862968307650925, 50.518251967534894 4.165601672000822, 50.41681064858657 4.552441386096513 C50.305551555232746 4.8875360485490456, 50.194292461878916 5.222630711001579, 50.093619752796165 5.525840870740919 C49.981480503424024 5.802826984755006, 49.86934125405188 6.079813098769093, 49.708726968253 6.4765334899583005 C49.55052413690183 6.805045054257344, 49.392321305550645 7.133556618556387, 49.263713901968 7.400612643853361 C49.12936879634837 7.63915598279812, 48.995023690728736 7.877699321742879, 48.76040920808554 8.294281092968399 C48.638366652544285 8.48177123129459, 48.51632409700302 8.669261369620784, 48.2008810735513 9.15386656195471 C48.069760404118135 9.329556313656424, 47.93863973468497 9.50524606535814, 47.58742871948848 9.975836829739734 C47.4302429059821 10.160476230410493, 47.27305709247572 10.345115631081251, 46.922572953205055 10.756814244181063 C46.77584544769487 10.908322440172563, 46.62911794218469 11.059830636164063, 46.209045809655784 11.493589601563638 C46.01793683637525 11.667149714630675, 45.826827863094714 11.840709827697713, 45.44977932492463 12.183135333906142 C45.26135294232076 12.3334003597961, 45.0729265597169 12.483665385686058, 44.64789348785946 12.822617949887304 C44.445388219305364 12.963876858918853, 44.24288295075127 13.105135767950403, 43.80668341936879 13.409409678269446 C43.61710732008679 13.524331823727014, 43.42753122080479 13.639253969184582, 42.929605832063004 13.94109926597423 C42.60566648386496 14.110098216436096, 42.281727135666905 14.279097166897962, 42.02026482588093 14.415501886438705 C41.71723886069646 14.54964249227999, 41.414212895511994 14.683783098121275, 41.082397078069995 14.830668117536346 C40.8869335040525 14.902600519620256, 40.691469930035 14.974532921704167, 40.11985648837794 15.184891952170695 C39.75206250665207 15.29405127535693, 39.384268524926185 15.403210598543165, 39.13659834255213 15.476717808624468 C38.78439407524957 15.557106134288642, 38.43218980794701 15.637494459952816, 38.13666305922196 15.704946511857045 C37.79222158071907 15.760633138917832, 37.44778010221618 15.81631976597862, 37.1241595869521 15.868640221171937 C36.87490687828865 15.89268533020646, 36.62565416962519 15.916730439240984, 36.103248519691405 15.967126284005381 C35.79385455068288 15.977047946392657, 35.484460581674355 15.986969608779933, 35.078125 16 C35.078125 16, 35.078125 16, 35.078125 16 C13.720231052134721 16, -7.637662895730557 16, -35.078125 16 C-35.449571775528156 15.9880884248861, -35.82101855105631 15.9761768497722, -36.1032485196914 15.967126284005381 C-36.468138884318805 15.931925749374644, -36.83302924894622 15.896725214743906, -37.124159586952096 15.868640221171937 C-37.3498240670068 15.832156538090873, -37.575488547061504 15.795672855009808, -38.13666305922196 15.704946511857045 C-38.48518757854975 15.625398064655514, -38.833712097877545 15.54584961745398, -39.13659834255211 15.476717808624471 C-39.52068675611668 15.362722383599731, -39.90477516968125 15.248726958574993, -40.11985648837792 15.184891952170702 C-40.33364011627887 15.106217600908959, -40.54742374417982 15.027543249647218, -41.08239707806999 14.830668117536348 C-41.42383213728617 14.679524945132517, -41.76526719650236 14.528381772728684, -42.02026482588093 14.415501886438708 C-42.347015834112874 14.245036094738111, -42.67376684234482 14.074570303037513, -42.929605832063 13.941099265974234 C-43.26639359759111 13.736936543326495, -43.603181363119226 13.532773820678756, -43.80668341936877 13.409409678269457 C-44.116605773743395 13.193221260180204, -44.42652812811803 12.977032842090951, -44.647893487859456 12.822617949887308 C-44.89851921599964 12.622750601126231, -45.149144944139834 12.422883252365157, -45.44977932492461 12.183135333906154 C-45.7411018626749 11.918563913093305, -46.03242440042519 11.653992492280455, -46.20904580965578 11.493589601563649 C-46.39628328040247 11.300251540535445, -46.58352075114917 11.106913479507242, -46.92257295320505 10.756814244181069 C-47.11626614496421 10.52929119968592, -47.309959336723374 10.301768155190773, -47.58742871948847 9.97583682973974 C-47.73956755049221 9.771984656327364, -47.89170638149595 9.568132482914987, -48.20088107355129 9.15386656195472 C-48.31364294802469 8.980634041960561, -48.4264048224981 8.807401521966401, -48.760409208085534 8.29428109296841 C-48.929047022306115 7.994847577389378, -49.097684836526696 7.695414061810347, -49.263713901968 7.400612643853366 C-49.41418140060079 7.0881636634536624, -49.564648899233575 6.775714683053958, -49.708726968252996 6.476533489958307 C-49.80687581000064 6.234103953262863, -49.905024651748285 5.991674416567419, -50.093619752796165 5.525840870740931 C-50.179606838072246 5.266861470070892, -50.26559392334833 5.007882069400853, -50.41681064858657 4.552441386096519 C-50.49640190397339 4.248925434238271, -50.575993159360216 3.945409482380023, -50.676971594909176 3.5603349433010343 C-50.742167550377204 3.2255674911427934, -50.80736350584523 2.890800038984552, -50.873033534631205 2.5535983205340753 C-50.92319538028388 2.16455295122876, -50.97335722593655 1.7755075819234443, -51.00419080718717 1.5363684145229202 C-51.01867615867977 1.3107473726604741, -51.03316151017236 1.0851263307980281, -51.069904459211 0.5128252411464846 C-51.069904459211 0.23331918811006336, -51.069904459211 -0.04618686492635793, -51.069904459211 -0.5128252411464769 C-51.053277027317826 -0.7718109143042304, -51.03664959542464 -1.030796587461984, -51.00419080718717 -1.5363684145228982 C-50.95751308797731 -1.8983915871563435, -50.91083536876745 -2.260414759789789, -50.873033534631205 -2.5535983205340678 C-50.7997897071929 -2.929689894341355, -50.72654587975459 -3.3057814681486417, -50.676971594909176 -3.5603349433010267 C-50.624806138290154 -3.759264438041279, -50.57264068167113 -3.9581939327815316, -50.416810648586576 -4.552441386096511 C-50.30382023223001 -4.892750517584444, -50.19082981587344 -5.233059649072376, -50.09361975279617 -5.525840870740911 C-49.9710745802076 -5.828529816284426, -49.848529407619026 -6.131218761827942, -49.708726968253 -6.476533489958299 C-49.53246734130425 -6.842540376669246, -49.35620771435549 -7.208547263380193, -49.263713901968 -7.400612643853359 C-49.10819842640185 -7.676746118370578, -48.9526829508357 -7.952879592887797, -48.760409208085534 -8.294281092968404 C-48.622293362460375 -8.50646412114619, -48.48417751683522 -8.718647149323976, -48.200881073551294 -9.153866561954715 C-47.95833402274417 -9.478857513545364, -47.71578697193705 -9.803848465136014, -47.58742871948848 -9.975836829739734 C-47.33781552880605 -10.269046686908236, -47.08820233812361 -10.562256544076739, -46.922572953205055 -10.756814244181063 C-46.6722489799602 -11.015294298536794, -46.42192500671534 -11.273774352892525, -46.20904580965579 -11.493589601563633 C-45.96703106400729 -11.713380990202328, -45.72501631835878 -11.933172378841022, -45.44977932492463 -12.18313533390614 C-45.231502631131555 -12.357205188619348, -45.01322593733848 -12.531275043332556, -44.64789348785946 -12.822617949887302 C-44.47833725102615 -12.94089304073103, -44.30878101419283 -13.059168131574756, -43.80668341936879 -13.409409678269444 C-43.47610948449094 -13.609805540260467, -43.1455355496131 -13.81020140225149, -42.929605832063004 -13.941099265974229 C-42.576997072152864 -14.125055030162661, -42.224388312242716 -14.309010794351096, -42.020264825880936 -14.415501886438705 C-41.78351156691388 -14.520305531147521, -41.546758307946824 -14.625109175856338, -41.082397078069995 -14.830668117536344 C-40.749783341146845 -14.953073047371744, -40.41716960422369 -15.075477977207145, -40.11985648837794 -15.184891952170695 C-39.870175900983746 -15.258995839909145, -39.620495313589544 -15.333099727647596, -39.13659834255213 -15.476717808624466 C-38.851676873740146 -15.541749274594459, -38.56675540492816 -15.606780740564451, -38.136663059221966 -15.704946511857043 C-37.927100872816965 -15.738826900975976, -37.71753868641196 -15.77270729009491, -37.1241595869521 -15.868640221171937 C-36.90493130440493 -15.889788909928678, -36.685703021857755 -15.91093759868542, -36.103248519691405 -15.967126284005381 C-35.806595361097926 -15.97663937340113, -35.509942202504455 -15.986152462796879, -35.07812500000001 -16 C-35.07812500000001 -16, -35.07812500000001 -16, -35.078125 -16" stroke="none" stroke-width="0" fill="#eee" style=""/><path d="M-35.078125 -16 C-10.814788212986915 -16, 13.44854857402617 -16, 35.078125 -16 M-35.078125 -16 C-9.074520839271784 -16, 16.92908332145643 -16, 35.078125 -16 M35.078125 -16 C35.078125 -16, 35.078125 -16, 35.078125 -16 M35.078125 -16 C35.078125 -16, 35.078125 -16, 35.078125 -16 M35.078125 -16 C35.336256601628335 -15.991722221958462, 35.59438820325668 -15.983444443916923, 36.103248519691405 -15.967126284005381 M35.078125 -16 C35.35863368119961 -15.991004632570954, 35.63914236239923 -15.982009265141908, 36.103248519691405 -15.967126284005381 M36.103248519691405 -15.967126284005381 C36.44223881678938 -15.93442429773982, 36.781229113887356 -15.90172231147426, 37.124159586952096 -15.868640221171939 M36.103248519691405 -15.967126284005381 C36.49749088042037 -15.929094197611667, 36.89173324114933 -15.891062111217954, 37.124159586952096 -15.868640221171939 M37.124159586952096 -15.868640221171939 C37.488344201771774 -15.809761676941761, 37.85252881659145 -15.750883132711586, 38.13666305922195 -15.704946511857047 M37.124159586952096 -15.868640221171939 C37.463507736950426 -15.813777043964416, 37.802855886948755 -15.758913866756894, 38.13666305922195 -15.704946511857047 M38.13666305922195 -15.704946511857047 C38.44145456500396 -15.635379839612757, 38.746246070785965 -15.565813167368464, 39.13659834255211 -15.476717808624471 M38.13666305922195 -15.704946511857047 C38.40546822109473 -15.643593487777197, 38.674273382967506 -15.582240463697348, 39.13659834255211 -15.476717808624471 M39.13659834255211 -15.476717808624471 C39.49982944583943 -15.368912723807766, 39.86306054912674 -15.26110763899106, 40.119856488377934 -15.184891952170698 M39.13659834255211 -15.476717808624471 C39.38220347343928 -15.4038234949848, 39.627808604326454 -15.330929181345128, 40.119856488377934 -15.184891952170698 M40.119856488377934 -15.184891952170698 C40.45876129569095 -15.060171850277813, 40.797666103003955 -14.935451748384928, 41.08239707806999 -14.830668117536348 M40.119856488377934 -15.184891952170698 C40.358308629184926 -15.097139360126299, 40.59676076999192 -15.009386768081898, 41.08239707806999 -14.830668117536348 M41.08239707806999 -14.830668117536348 C41.339523713409264 -14.716845783462285, 41.59665034874855 -14.603023449388223, 42.02026482588093 -14.415501886438706 M41.08239707806999 -14.830668117536348 C41.341970603178915 -14.715762617945666, 41.60154412828785 -14.600857118354986, 42.02026482588093 -14.415501886438706 M42.02026482588093 -14.415501886438706 C42.257390073075655 -14.291793796863187, 42.49451532027039 -14.168085707287668, 42.929605832063004 -13.941099265974232 M42.02026482588093 -14.415501886438706 C42.27506243373689 -14.282574137625907, 42.529860041592855 -14.149646388813109, 42.929605832063004 -13.941099265974232 M42.929605832063004 -13.941099265974232 C43.10675796405865 -13.833708602496985, 43.283910096054306 -13.726317939019738, 43.80668341936878 -13.409409678269451 M42.929605832063004 -13.941099265974232 C43.147287820694785 -13.809139165224286, 43.364969809326574 -13.67717906447434, 43.80668341936878 -13.409409678269451 M43.80668341936878 -13.409409678269451 C44.13988441331902 -13.176983088928317, 44.47308540726926 -12.944556499587183, 44.647893487859456 -12.822617949887306 M43.80668341936878 -13.409409678269451 C44.030918192214266 -13.252993207699308, 44.25515296505975 -13.096576737129164, 44.647893487859456 -12.822617949887306 M44.647893487859456 -12.822617949887306 C44.958053851847836 -12.57527331332049, 45.26821421583622 -12.327928676753677, 45.44977932492461 -12.183135333906153 M44.647893487859456 -12.822617949887306 C44.901891326329235 -12.620061432874005, 45.15588916479902 -12.417504915860704, 45.44977932492461 -12.183135333906153 M45.44977932492461 -12.183135333906153 C45.651999032372636 -11.999484746042125, 45.85421873982065 -11.815834158178095, 46.209045809655784 -11.493589601563642 M45.44977932492461 -12.183135333906153 C45.72178576920624 -11.936106278105715, 45.99379221348787 -11.689077222305276, 46.209045809655784 -11.493589601563642 M46.209045809655784 -11.493589601563642 C46.39461333314609 -11.30197589818288, 46.5801808566364 -11.110362194802118, 46.92257295320505 -10.756814244181072 M46.209045809655784 -11.493589601563642 C46.361066121523244 -11.336616148460767, 46.513086433390704 -11.179642695357892, 46.92257295320505 -10.756814244181072 M46.92257295320505 -10.756814244181072 C47.187135319425515 -10.446044234793408, 47.45169768564599 -10.135274225405746, 47.58742871948848 -9.975836829739738 M46.92257295320505 -10.756814244181072 C47.10030229560135 -10.548043245516299, 47.27803163799766 -10.339272246851525, 47.58742871948848 -9.975836829739738 M47.58742871948848 -9.975836829739738 C47.786335234269245 -9.709320220689781, 47.98524174905001 -9.442803611639826, 48.20088107355129 -9.153866561954718 M47.58742871948848 -9.975836829739738 C47.73565683682351 -9.77722465637008, 47.883884954158546 -9.578612483000423, 48.20088107355129 -9.153866561954718 M48.20088107355129 -9.153866561954718 C48.3133318268785 -8.981112007588836, 48.42578258020571 -8.808357453222955, 48.760409208085534 -8.294281092968403 M48.20088107355129 -9.153866561954718 C48.4013936541127 -8.84582539304547, 48.60190623467412 -8.537784224136223, 48.760409208085534 -8.294281092968403 M48.760409208085534 -8.294281092968403 C48.877043686296574 -8.087184766383096, 48.993678164507614 -7.88008843979779, 49.263713901968 -7.400612643853364 M48.760409208085534 -8.294281092968403 C48.88305138831305 -8.076517483107054, 49.00569356854056 -7.858753873245703, 49.263713901968 -7.400612643853364 M49.263713901968 -7.400612643853364 C49.40671658168451 -7.103664519654849, 49.54971926140102 -6.806716395456334, 49.708726968252996 -6.476533489958305 M49.263713901968 -7.400612643853364 C49.41239011469747 -7.09188330695928, 49.56106632742694 -6.783153970065196, 49.708726968252996 -6.476533489958305 M49.708726968252996 -6.476533489958305 C49.810530539906935 -6.225076699734925, 49.91233411156087 -5.9736199095115445, 50.093619752796165 -5.52584087074093 M49.708726968252996 -6.476533489958305 C49.8191263144802 -6.203844970350951, 49.92952566070741 -5.931156450743598, 50.093619752796165 -5.52584087074093 M50.093619752796165 -5.52584087074093 C50.16670894170842 -5.305707878918019, 50.23979813062068 -5.085574887095109, 50.41681064858657 -4.552441386096524 M50.093619752796165 -5.52584087074093 C50.176254511622304 -5.276958143217433, 50.25888927044844 -5.028075415693937, 50.41681064858657 -4.552441386096524 M50.41681064858657 -4.552441386096524 C50.50959557480171 -4.198612249196789, 50.60238050101685 -3.844783112297054, 50.676971594909176 -3.560334943301032 M50.41681064858657 -4.552441386096524 C50.48096905355866 -4.307777581509327, 50.54512745853075 -4.06311377692213, 50.676971594909176 -3.560334943301032 M50.676971594909176 -3.560334943301032 C50.72870985012169 -3.294669937668889, 50.7804481053342 -3.0290049320367465, 50.873033534631205 -2.5535983205340735 M50.676971594909176 -3.560334943301032 C50.71883085406593 -3.3453964944886683, 50.76069011322268 -3.130458045676304, 50.873033534631205 -2.5535983205340735 M50.873033534631205 -2.5535983205340735 C50.91742203162866 -2.209329903321944, 50.961810528626124 -1.8650614861098145, 51.00419080718717 -1.536368414522911 M50.873033534631205 -2.5535983205340735 C50.90212016916326 -2.3280081269090704, 50.931206803695325 -2.102417933284067, 51.00419080718717 -1.536368414522911 M51.00419080718717 -1.536368414522911 C51.02051796164023 -1.2820598048746392, 51.03684511609329 -1.0277511952263672, 51.069904459211 -0.5128252411464826 M51.00419080718717 -1.536368414522911 C51.02381047756961 -1.2307762116034546, 51.04343014795206 -0.9251840086839981, 51.069904459211 -0.5128252411464826 M51.069904459211 -0.5128252411464826 C51.069904459211 -0.2896608773515975, 51.069904459211 -0.06649651355671243, 51.069904459211 0.5128252411464788 M51.069904459211 -0.5128252411464826 C51.069904459211 -0.25763951515509104, 51.069904459211 -0.002453789163699427, 51.069904459211 0.5128252411464788 M51.069904459211 0.5128252411464788 C51.048517727545025 0.8459408499031991, 51.02713099587905 1.1790564586599195, 51.00419080718717 1.5363684145229002 M51.069904459211 0.5128252411464788 C51.050900679269574 0.8088244533093145, 51.031896899328146 1.1048236654721502, 51.00419080718717 1.5363684145229002 M51.00419080718717 1.5363684145229002 C50.977735288924784 1.7415521899330164, 50.951279770662396 1.9467359653431324, 50.873033534631205 2.5535983205340624 M51.00419080718717 1.5363684145229002 C50.956111249612356 1.9092639686906734, 50.90803169203753 2.282159522858447, 50.873033534631205 2.5535983205340624 M50.873033534631205 2.5535983205340624 C50.8099815582337 2.8773568932952895, 50.746929581836206 3.2011154660565166, 50.676971594909176 3.5603349433010285 M50.873033534631205 2.5535983205340624 C50.82641153354819 2.792992442531932, 50.77978953246517 3.0323865645298014, 50.676971594909176 3.5603349433010285 M50.676971594909176 3.5603349433010285 C50.59344413444248 3.878861351090899, 50.50991667397579 4.19738775888077, 50.41681064858657 4.552441386096513 M50.676971594909176 3.5603349433010285 C50.61509090975869 3.7963128150384184, 50.55321022460821 4.032290686775808, 50.41681064858657 4.552441386096513 M50.41681064858657 4.552441386096513 C50.31063736138296 4.872218410737776, 50.20446407417934 5.19199543537904, 50.093619752796165 5.525840870740919 M50.41681064858657 4.552441386096513 C50.295435628080625 4.918003609377122, 50.17406060757468 5.2835658326577315, 50.093619752796165 5.525840870740919 M50.093619752796165 5.525840870740919 C50.00562431831099 5.743191295195297, 49.91762888382581 5.960541719649674, 49.708726968253 6.4765334899583005 M50.093619752796165 5.525840870740919 C49.97629904114519 5.81562529676048, 49.85897832949422 6.10540972278004, 49.708726968253 6.4765334899583005 M49.708726968253 6.4765334899583005 C49.57925121115253 6.745392669914827, 49.449775454052066 7.014251849871354, 49.263713901968 7.400612643853361 M49.708726968253 6.4765334899583005 C49.61938772225665 6.662048345823366, 49.5300484762603 6.847563201688431, 49.263713901968 7.400612643853361 M49.263713901968 7.400612643853361 C49.087610915239026 7.713301329151745, 48.91150792851005 8.02599001445013, 48.76040920808554 8.294281092968399 M49.263713901968 7.400612643853361 C49.070910206748316 7.742955128207116, 48.87810651152862 8.085297612560872, 48.76040920808554 8.294281092968399 M48.76040920808554 8.294281092968399 C48.62758772438523 8.498330559494384, 48.49476624068491 8.702380026020371, 48.2008810735513 9.15386656195471 M48.76040920808554 8.294281092968399 C48.57885666826865 8.573194547810242, 48.397304128451765 8.852108002652088, 48.2008810735513 9.15386656195471 M48.2008810735513 9.15386656195471 C48.0743409124037 9.323418849846657, 47.9478007512561 9.492971137738603, 47.58742871948848 9.975836829739734 M48.2008810735513 9.15386656195471 C48.03768801024511 9.372530399591087, 47.874494946938924 9.591194237227464, 47.58742871948848 9.975836829739734 M47.58742871948848 9.975836829739734 C47.37014176053593 10.231074455703617, 47.15285480158339 10.4863120816675, 46.922572953205055 10.756814244181063 M47.58742871948848 9.975836829739734 C47.428013090726196 10.163095498290156, 47.26859746196392 10.350354166840578, 46.922572953205055 10.756814244181063 M46.922572953205055 10.756814244181063 C46.69173081846272 10.995177700794247, 46.4608886837204 11.233541157407434, 46.209045809655784 11.493589601563638 M46.922572953205055 10.756814244181063 C46.67246082108974 11.01507555517806, 46.42234868897443 11.273336866175057, 46.209045809655784 11.493589601563638 M46.209045809655784 11.493589601563638 C45.98677761596427 11.695447694180128, 45.76450942227276 11.897305786796617, 45.44977932492463 12.183135333906142 M46.209045809655784 11.493589601563638 C45.96208544060798 11.717872474519558, 45.715125071560166 11.942155347475476, 45.44977932492463 12.183135333906142 M45.44977932492463 12.183135333906142 C45.15520416100262 12.418051188159616, 44.86062899708061 12.652967042413088, 44.64789348785946 12.822617949887304 M45.44977932492463 12.183135333906142 C45.266091771032826 12.329621270003754, 45.08240421714103 12.476107206101364, 44.64789348785946 12.822617949887304 M44.64789348785946 12.822617949887304 C44.38113179425189 13.008699359420348, 44.11437010064432 13.194780768953391, 43.80668341936879 13.409409678269446 M44.64789348785946 12.822617949887304 C44.43202146678515 12.973200926839564, 44.21614944571084 13.123783903791825, 43.80668341936879 13.409409678269446 M43.80668341936879 13.409409678269446 C43.526985133476174 13.578964422867124, 43.24728684758356 13.748519167464801, 42.929605832063004 13.94109926597423 M43.80668341936879 13.409409678269446 C43.466074192034135 13.615888993521711, 43.12546496469948 13.822368308773978, 42.929605832063004 13.94109926597423 M42.929605832063004 13.94109926597423 C42.71166510206884 14.054798805214485, 42.493724372074674 14.168498344454742, 42.02026482588093 14.415501886438705 M42.929605832063004 13.94109926597423 C42.57081465107261 14.1282803952802, 42.21202347008221 14.31546152458617, 42.02026482588093 14.415501886438705 M42.02026482588093 14.415501886438705 C41.70671803842298 14.554299748211356, 41.39317125096503 14.693097609984008, 41.082397078069995 14.830668117536346 M42.02026482588093 14.415501886438705 C41.7422147900691 14.538586389231343, 41.464164754257276 14.661670892023983, 41.082397078069995 14.830668117536346 M41.082397078069995 14.830668117536346 C40.86429343626494 14.91093227384857, 40.646189794459886 14.991196430160793, 40.11985648837794 15.184891952170695 M41.082397078069995 14.830668117536346 C40.81452656438032 14.92924694274203, 40.54665605069065 15.027825767947713, 40.11985648837794 15.184891952170695 M40.11985648837794 15.184891952170695 C39.83459596395826 15.269555778455409, 39.549335439538574 15.354219604740123, 39.13659834255213 15.476717808624468 M40.11985648837794 15.184891952170695 C39.846144017376595 15.266128376817816, 39.57243154637525 15.347364801464938, 39.13659834255213 15.476717808624468 M39.13659834255213 15.476717808624468 C38.82884295821012 15.546960966808966, 38.521087573868094 15.617204124993464, 38.13666305922196 15.704946511857045 M39.13659834255213 15.476717808624468 C38.91824816457175 15.526554811880418, 38.699897986591374 15.576391815136367, 38.13666305922196 15.704946511857045 M38.13666305922196 15.704946511857045 C37.907126239832465 15.742056244731318, 37.67758942044297 15.779165977605592, 37.1241595869521 15.868640221171937 M38.13666305922196 15.704946511857045 C37.85830324992923 15.749949567110933, 37.5799434406365 15.79495262236482, 37.1241595869521 15.868640221171937 M37.1241595869521 15.868640221171937 C36.91292891539457 15.889017390015042, 36.70169824383704 15.909394558858146, 36.103248519691405 15.967126284005381 M37.1241595869521 15.868640221171937 C36.79166209619628 15.900715854218413, 36.45916460544046 15.93279148726489, 36.103248519691405 15.967126284005381 M36.103248519691405 15.967126284005381 C35.819595519090576 15.976222483637578, 35.53594251848974 15.985318683269774, 35.078125 16 M36.103248519691405 15.967126284005381 C35.785895966470015 15.97730316269792, 35.46854341324862 15.987480041390457, 35.078125 16 M35.078125 16 C35.078125 16, 35.078125 16, 35.078125 16 M35.078125 16 C35.078125 16, 35.078125 16, 35.078125 16 M35.078125 16 C13.520219036738702 16, -8.037686926522596 16, -35.078125 16 M35.078125 16 C7.47230437221339 16, -20.13351625557322 16, -35.078125 16 M-35.078125 16 C-35.434610764559295 15.98856819538803, -35.79109652911858 15.97713639077606, -36.1032485196914 15.967126284005381 M-35.078125 16 C-35.34349778238871 15.99149001138558, -35.60887056477742 15.98298002277116, -36.1032485196914 15.967126284005381 M-36.1032485196914 15.967126284005381 C-36.34839714683598 15.943477090779103, -36.59354577398055 15.919827897552826, -37.124159586952096 15.868640221171937 M-36.1032485196914 15.967126284005381 C-36.42322392656869 15.936258641330658, -36.74319933344598 15.905390998655934, -37.124159586952096 15.868640221171937 M-37.124159586952096 15.868640221171937 C-37.52372573454249 15.804041465111277, -37.92329188213287 15.739442709050616, -38.13666305922196 15.704946511857045 M-37.124159586952096 15.868640221171937 C-37.50858120489592 15.806489915216952, -37.89300282283974 15.744339609261967, -38.13666305922196 15.704946511857045 M-38.13666305922196 15.704946511857045 C-38.50518201917633 15.620834464058415, -38.8737009791307 15.536722416259783, -39.13659834255211 15.476717808624471 M-38.13666305922196 15.704946511857045 C-38.51258677506753 15.619144376846796, -38.888510490913106 15.533342241836547, -39.13659834255211 15.476717808624471 M-39.13659834255211 15.476717808624471 C-39.39690023400439 15.399461573593946, -39.657202125456664 15.322205338563421, -40.11985648837792 15.184891952170702 M-39.13659834255211 15.476717808624471 C-39.481516600491275 15.37434788018101, -39.826434858430446 15.271977951737547, -40.11985648837792 15.184891952170702 M-40.11985648837792 15.184891952170702 C-40.43355496645224 15.06944801244241, -40.747253444526564 14.954004072714115, -41.08239707806999 14.830668117536348 M-40.11985648837792 15.184891952170702 C-40.43892056794169 15.067473421495215, -40.75798464750546 14.950054890819727, -41.08239707806999 14.830668117536348 M-41.08239707806999 14.830668117536348 C-41.3346585985864 14.718999425475864, -41.58692011910282 14.60733073341538, -42.02026482588093 14.415501886438708 M-41.08239707806999 14.830668117536348 C-41.39990690919704 14.6901159338909, -41.7174167403241 14.54956375024545, -42.02026482588093 14.415501886438708 M-42.02026482588093 14.415501886438708 C-42.335182325185926 14.251209628765574, -42.65009982449093 14.086917371092442, -42.929605832063 13.941099265974234 M-42.02026482588093 14.415501886438708 C-42.25973725752274 14.290569272240589, -42.499209689164545 14.165636658042471, -42.929605832063 13.941099265974234 M-42.929605832063 13.941099265974234 C-43.18316073471999 13.787392793929563, -43.436715637376984 13.633686321884891, -43.80668341936877 13.409409678269457 M-42.929605832063 13.941099265974234 C-43.236861199932946 13.754839256338505, -43.5441165678029 13.568579246702775, -43.80668341936877 13.409409678269457 M-43.80668341936877 13.409409678269457 C-44.05127802506491 13.238791069665652, -44.29587263076106 13.068172461061849, -44.647893487859456 12.822617949887308 M-43.80668341936877 13.409409678269457 C-44.00422841430613 13.27161084138616, -44.201773409243486 13.133812004502861, -44.647893487859456 12.822617949887308 M-44.647893487859456 12.822617949887308 C-44.88433561278843 12.634061647245638, -45.12077773771742 12.445505344603967, -45.44977932492461 12.183135333906154 M-44.647893487859456 12.822617949887308 C-44.93607665764154 12.59279954086231, -45.22425982742364 12.362981131837316, -45.44977932492461 12.183135333906154 M-45.44977932492461 12.183135333906154 C-45.67048026250192 11.98270058182526, -45.89118120007923 11.782265829744366, -46.20904580965578 11.493589601563649 M-45.44977932492461 12.183135333906154 C-45.63556644744935 12.014408384887084, -45.82135356997408 11.845681435868011, -46.20904580965578 11.493589601563649 M-46.20904580965578 11.493589601563649 C-46.47131617207447 11.222773919569144, -46.73358653449315 10.95195823757464, -46.92257295320505 10.756814244181069 M-46.20904580965578 11.493589601563649 C-46.35583151398985 11.342021310508272, -46.50261721832391 11.190453019452896, -46.92257295320505 10.756814244181069 M-46.92257295320505 10.756814244181069 C-47.10720155105162 10.53993898748566, -47.29183014889818 10.323063730790253, -47.58742871948847 9.97583682973974 M-46.92257295320505 10.756814244181069 C-47.07432285452499 10.578560175276664, -47.22607275584493 10.400306106372259, -47.58742871948847 9.97583682973974 M-47.58742871948847 9.97583682973974 C-47.76268579289935 9.741008317617013, -47.937942866310216 9.506179805494288, -48.20088107355129 9.15386656195472 M-47.58742871948847 9.97583682973974 C-47.74205610371065 9.768650221726515, -47.89668348793283 9.561463613713292, -48.20088107355129 9.15386656195472 M-48.20088107355129 9.15386656195472 C-48.31816052497875 8.973693830619865, -48.43543997640621 8.79352109928501, -48.760409208085534 8.29428109296841 M-48.20088107355129 9.15386656195472 C-48.40669482826054 8.837681365989814, -48.6125085829698 8.521496170024907, -48.760409208085534 8.29428109296841 M-48.760409208085534 8.29428109296841 C-48.88184529840851 8.078659017862412, -49.00328138873148 7.863036942756416, -49.263713901968 7.400612643853366 M-48.760409208085534 8.29428109296841 C-48.93956149786812 7.9761780613229325, -49.118713787650705 7.658075029677455, -49.263713901968 7.400612643853366 M-49.263713901968 7.400612643853366 C-49.419493775161115 7.077132404012535, -49.575273648354234 6.753652164171704, -49.708726968252996 6.476533489958307 M-49.263713901968 7.400612643853366 C-49.38289849918268 7.153123277595232, -49.50208309639736 6.905633911337098, -49.708726968252996 6.476533489958307 M-49.708726968252996 6.476533489958307 C-49.853374177106986 6.119252087525424, -49.998021385960975 5.76197068509254, -50.093619752796165 5.525840870740931 M-49.708726968252996 6.476533489958307 C-49.851149079655194 6.124748121250676, -49.99357119105739 5.7729627525430445, -50.093619752796165 5.525840870740931 M-50.093619752796165 5.525840870740931 C-50.216295669229694 5.156360556196053, -50.338971585663224 4.786880241651174, -50.41681064858657 4.552441386096519 M-50.093619752796165 5.525840870740931 C-50.205565351230156 5.188678564366669, -50.31751094966415 4.851516257992407, -50.41681064858657 4.552441386096519 M-50.41681064858657 4.552441386096519 C-50.51662570579768 4.1718033128311225, -50.61644076300878 3.791165239565726, -50.676971594909176 3.5603349433010343 M-50.41681064858657 4.552441386096519 C-50.509973384783116 4.197171495993817, -50.603136120979656 3.8419016058911137, -50.676971594909176 3.5603349433010343 M-50.676971594909176 3.5603349433010343 C-50.74663091829334 3.2026490402265653, -50.81629024167751 2.8449631371520967, -50.873033534631205 2.5535983205340753 M-50.676971594909176 3.5603349433010343 C-50.73327286745656 3.2712398080483718, -50.78957414000395 2.9821446727957093, -50.873033534631205 2.5535983205340753 M-50.873033534631205 2.5535983205340753 C-50.92396197720374 2.158607376899978, -50.97489041977628 1.76361643326588, -51.00419080718717 1.5363684145229202 M-50.873033534631205 2.5535983205340753 C-50.899852167249485 2.3455983018847215, -50.926670799867765 2.137598283235368, -51.00419080718717 1.5363684145229202 M-51.00419080718717 1.5363684145229202 C-51.018650959840706 1.3111398649190065, -51.03311111249423 1.0859113153150926, -51.069904459211 0.5128252411464846 M-51.00419080718717 1.5363684145229202 C-51.02640364165675 1.190385587782011, -51.04861647612632 0.8444027610411021, -51.069904459211 0.5128252411464846 M-51.069904459211 0.5128252411464846 C-51.069904459211 0.18754767674450074, -51.069904459211 -0.13772988765748317, -51.069904459211 -0.5128252411464769 M-51.069904459211 0.5128252411464846 C-51.069904459211 0.27763327418001515, -51.069904459211 0.04244130721354572, -51.069904459211 -0.5128252411464769 M-51.069904459211 -0.5128252411464769 C-51.04532920794362 -0.8956046164218476, -51.020753956676224 -1.2783839916972184, -51.00419080718717 -1.5363684145228982 M-51.069904459211 -0.5128252411464769 C-51.04596263577502 -0.8857384666539697, -51.022020812339036 -1.2586516921614626, -51.00419080718717 -1.5363684145228982 M-51.00419080718717 -1.5363684145228982 C-50.957379134126086 -1.899430506774296, -50.91056746106499 -2.262492599025694, -50.873033534631205 -2.5535983205340678 M-51.00419080718717 -1.5363684145228982 C-50.97573777837465 -1.7570444873067423, -50.94728474956214 -1.9777205600905863, -50.873033534631205 -2.5535983205340678 M-50.873033534631205 -2.5535983205340678 C-50.83067523121682 -2.7710992561363326, -50.788316927802434 -2.9886001917385974, -50.676971594909176 -3.5603349433010267 M-50.873033534631205 -2.5535983205340678 C-50.81765407562963 -2.8379601380543096, -50.76227461662807 -3.1223219555745514, -50.676971594909176 -3.5603349433010267 M-50.676971594909176 -3.5603349433010267 C-50.57562552187188 -3.946811443458152, -50.47427944883458 -4.333287943615277, -50.416810648586576 -4.552441386096511 M-50.676971594909176 -3.5603349433010267 C-50.60998631516517 -3.81577884656879, -50.54300103542118 -4.071222749836554, -50.416810648586576 -4.552441386096511 M-50.416810648586576 -4.552441386096511 C-50.34752219623085 -4.761127164976295, -50.27823374387512 -4.969812943856079, -50.09361975279617 -5.525840870740911 M-50.416810648586576 -4.552441386096511 C-50.30272290165659 -4.896055502435698, -50.188635154726605 -5.239669618774886, -50.09361975279617 -5.525840870740911 M-50.09361975279617 -5.525840870740911 C-49.99099514860313 -5.779325627209469, -49.88837054441009 -6.032810383678028, -49.708726968253 -6.476533489958299 M-50.09361975279617 -5.525840870740911 C-49.969768448353754 -5.83175598721576, -49.845917143911336 -6.137671103690609, -49.708726968253 -6.476533489958299 M-49.708726968253 -6.476533489958299 C-49.58048316180969 -6.742834498015717, -49.45223935536638 -7.009135506073135, -49.263713901968 -7.400612643853359 M-49.708726968253 -6.476533489958299 C-49.56600875999969 -6.772890903076767, -49.423290551746376 -7.069248316195236, -49.263713901968 -7.400612643853359 M-49.263713901968 -7.400612643853359 C-49.06922486322072 -7.745947626299893, -48.87473582447344 -8.091282608746427, -48.760409208085534 -8.294281092968404 M-49.263713901968 -7.400612643853359 C-49.11794567765494 -7.6594388867545105, -48.972177453341864 -7.918265129655662, -48.760409208085534 -8.294281092968404 M-48.760409208085534 -8.294281092968404 C-48.62393846220172 -8.503936806172343, -48.487467716317916 -8.713592519376283, -48.200881073551294 -9.153866561954715 M-48.760409208085534 -8.294281092968404 C-48.62354981285822 -8.50453387593092, -48.48669041763092 -8.714786658893434, -48.200881073551294 -9.153866561954715 M-48.200881073551294 -9.153866561954715 C-48.02174295729195 -9.39389531792412, -47.842604841032596 -9.633924073893523, -47.58742871948848 -9.975836829739734 M-48.200881073551294 -9.153866561954715 C-48.00539432634574 -9.415800994001122, -47.80990757914018 -9.67773542604753, -47.58742871948848 -9.975836829739734 M-47.58742871948848 -9.975836829739734 C-47.32358207634958 -10.285766110069988, -47.05973543321068 -10.595695390400241, -46.922572953205055 -10.756814244181063 M-47.58742871948848 -9.975836829739734 C-47.42496689172929 -10.166673736965556, -47.2625050639701 -10.357510644191377, -46.922572953205055 -10.756814244181063 M-46.922572953205055 -10.756814244181063 C-46.729530328927176 -10.956146602842178, -46.536487704649296 -11.155478961503293, -46.20904580965579 -11.493589601563633 M-46.922572953205055 -10.756814244181063 C-46.741915652100865 -10.9433577398114, -46.56125835099668 -11.129901235441737, -46.20904580965579 -11.493589601563633 M-46.20904580965579 -11.493589601563633 C-45.9211454487893 -11.755053091876455, -45.63324508792281 -12.016516582189277, -45.44977932492463 -12.18313533390614 M-46.20904580965579 -11.493589601563633 C-45.9337847031268 -11.743574455503481, -45.65852359659781 -11.993559309443329, -45.44977932492463 -12.18313533390614 M-45.44977932492463 -12.18313533390614 C-45.22901868596605 -12.359186068788288, -45.00825804700746 -12.535236803670434, -44.64789348785946 -12.822617949887302 M-45.44977932492463 -12.18313533390614 C-45.197203360578285 -12.384557944143657, -44.94462739623195 -12.585980554381173, -44.64789348785946 -12.822617949887302 M-44.64789348785946 -12.822617949887302 C-44.338294318787575 -13.038580927899828, -44.02869514971569 -13.254543905912355, -43.80668341936879 -13.409409678269444 M-44.64789348785946 -12.822617949887302 C-44.46173514645157 -12.952473950188727, -44.27557680504369 -13.082329950490152, -43.80668341936879 -13.409409678269444 M-43.80668341936879 -13.409409678269444 C-43.61060434814968 -13.52827396353099, -43.414525276930576 -13.647138248792539, -42.929605832063004 -13.941099265974229 M-43.80668341936879 -13.409409678269444 C-43.573608926294305 -13.550700805668951, -43.34053443321982 -13.691991933068456, -42.929605832063004 -13.941099265974229 M-42.929605832063004 -13.941099265974229 C-42.6964249966533 -14.062749558448019, -42.463244161243594 -14.184399850921809, -42.020264825880936 -14.415501886438705 M-42.929605832063004 -13.941099265974229 C-42.72072000959649 -14.050074865757255, -42.51183418712998 -14.15905046554028, -42.020264825880936 -14.415501886438705 M-42.020264825880936 -14.415501886438705 C-41.72022755231824 -14.548319487155416, -41.42019027875555 -14.681137087872129, -41.082397078069995 -14.830668117536344 M-42.020264825880936 -14.415501886438705 C-41.76027720780516 -14.530590692702178, -41.50028958972938 -14.645679498965652, -41.082397078069995 -14.830668117536344 M-41.082397078069995 -14.830668117536344 C-40.880993748548875 -14.904786404552086, -40.679590419027754 -14.978904691567827, -40.11985648837794 -15.184891952170695 M-41.082397078069995 -14.830668117536344 C-40.77821883090466 -14.942608524286081, -40.47404058373933 -15.054548931035818, -40.11985648837794 -15.184891952170695 M-40.11985648837794 -15.184891952170695 C-39.84759096391904 -15.265698930679195, -39.57532543946014 -15.346505909187696, -39.13659834255213 -15.476717808624466 M-40.11985648837794 -15.184891952170695 C-39.87652529058581 -15.257111374403879, -39.63319409279367 -15.329330796637063, -39.13659834255213 -15.476717808624466 M-39.13659834255213 -15.476717808624466 C-38.81040009164437 -15.551170430751645, -38.4842018407366 -15.625623052878824, -38.136663059221966 -15.704946511857043 M-39.13659834255213 -15.476717808624466 C-38.74364692793295 -15.566406404763672, -38.350695513313774 -15.65609500090288, -38.136663059221966 -15.704946511857043 M-38.136663059221966 -15.704946511857043 C-37.84540875292763 -15.752034249387833, -37.55415444663329 -15.799121986918623, -37.1241595869521 -15.868640221171937 M-38.136663059221966 -15.704946511857043 C-37.7953115397228 -15.760133578309098, -37.45396002022364 -15.815320644761153, -37.1241595869521 -15.868640221171937 M-37.1241595869521 -15.868640221171937 C-36.75813217780383 -15.903950445120106, -36.39210476865555 -15.939260669068275, -36.103248519691405 -15.967126284005381 M-37.1241595869521 -15.868640221171937 C-36.81538545008509 -15.898427290800267, -36.50661131321807 -15.928214360428598, -36.103248519691405 -15.967126284005381 M-36.103248519691405 -15.967126284005381 C-35.75754115609519 -15.97821244627735, -35.41183379249899 -15.989298608549317, -35.07812500000001 -16 M-36.103248519691405 -15.967126284005381 C-35.73124976990542 -15.979055559859377, -35.35925102011944 -15.990984835713373, -35.07812500000001 -16 M-35.07812500000001 -16 C-35.07812500000001 -16, -35.078125 -16, -35.078125 -16 M-35.07812500000001 -16 C-35.07812500000001 -16, -35.078125 -16, -35.078125 -16" stroke="#999" stroke-width="1.3" fill="none" stroke-dasharray="0 0" style=""/></g><g class="label" style="" transform="translate(0, -8.5)"><rect/><g><rect class="background" style="stroke: none"/><text y="-10.1" style=""><tspan class="text-outer-tspan row" x="0" y="-0.1em" dy="1.1em"><tspan font-style="normal" class="text-inner-tspan" font-weight="normal">Unos</tspan><tspan font-style="normal" class="text-inner-tspan" font-weight="normal"> ISBN</tspan></tspan></text></g></g></g><g class="node default" id="my-svg-flowchart-B-1" data-look="classic" transform="translate(193.2421875, 113.5)"><rect class="basic label-container" style="" x="-102.4609375" y="-23.5" width="204.921875" height="47"/><g class="label" style="" transform="translate(0, -8.5)"><rect/><g><rect class="background" style="stroke: none"/><text y="-10.1" style=""><tspan class="text-outer-tspan row" x="0" y="-0.1em" dy="1.1em"><tspan font-style="normal" class="text-inner-tspan" font-weight="normal">Normaliziraj</tspan><tspan font-style="normal" class="text-inner-tspan" font-weight="normal"> i</tspan><tspan font-style="normal" class="text-inner-tspan" font-weight="normal"> potvrdi</tspan></tspan></text></g></g></g><g class="node default" id="my-svg-flowchart-C-3" data-look="classic" transform="translate(193.2421875, 292.7335891723633)"><polygon points="105.73359298706055,0 211.4671859741211,-105.73359298706055 105.73359298706055,-211.4671859741211 0,-105.73359298706055" class="label-container" transform="translate(-105.23359298706055, 105.73359298706055)"/><g class="label" style="" transform="translate(0, -17.299999237060547)"><rect/><g><rect class="background" style="stroke: none"/><text y="-10.1" style=""><tspan class="text-outer-tspan row" x="0" y="-0.1em" dy="1.1em"><tspan font-style="normal" class="text-inner-tspan" font-weight="normal">Kontrolna</tspan><tspan font-style="normal" class="text-inner-tspan" font-weight="normal"> znamenka</tspan></tspan><tspan class="text-outer-tspan row" x="0" y="1em" dy="1.1em"><tspan font-style="normal" class="text-inner-tspan" font-weight="normal">ispravna?</tspan></tspan></text></g></g></g><g class="node default" id="my-svg-flowchart-D-5" data-look="classic" transform="translate(266.65625, 1034.428123474121)"><rect class="basic label-container" style="fill:#ffebee !important;stroke:#c62828 !important" x="-115.4296875" y="-23.5" width="230.859375" height="47"/><g class="label" style="" transform="translate(0, -8.5)"><rect/><g><rect class="background" style="stroke: none"/><text y="-10.1" style=""><tspan class="text-outer-tspan row" x="0" y="-0.1em" dy="1.1em"><tspan font-style="normal" class="text-inner-tspan" font-weight="normal">Pokaži</tspan><tspan font-style="normal" class="text-inner-tspan" font-weight="normal"> grešku</tspan><tspan font-style="normal" class="text-inner-tspan" font-weight="normal"> validacije</tspan></tspan></text></g></g></g><g class="node default" id="my-svg-flowchart-E-7" data-look="classic" transform="translate(307.701171875, 1231.8484382629395)"><rect class="basic label-container" style="fill:#fff3e0 !important;stroke:#e65100 !important" x="-90.921875" y="-32.29999923706055" width="181.84375" height="64.5999984741211"/><g class="label" style="" transform="translate(0, -17.299999237060547)"><rect/><g><rect class="background" style="stroke: none"/><text y="-10.1" style=""><tspan class="text-outer-tspan row" x="0" y="-0.1em" dy="1.1em"><tspan font-style="normal" class="text-inner-tspan" font-weight="normal">Ručni</tspan><tspan font-style="normal" class="text-inner-tspan" font-weight="normal"> unos</tspan></tspan><tspan class="text-outer-tspan row" x="0" y="1em" dy="1.1em"><tspan font-style="normal" class="text-inner-tspan" font-weight="normal">(uvijek</tspan><tspan font-style="normal" class="text-inner-tspan" font-weight="normal"> dostupan)</tspan></tspan></text></g></g></g><g class="node default" id="my-svg-flowchart-F-9" data-look="classic" transform="translate(119.828125, 492.96717834472656)"><rect class="basic label-container" style="" x="-98.9296875" y="-23.5" width="197.859375" height="47"/><g class="label" style="" transform="translate(0, -8.5)"><rect/><g><rect class="background" style="stroke: none"/><text y="-10.1" style=""><tspan class="text-outer-tspan row" x="0" y="-0.1em" dy="1.1em"><tspan font-style="normal" class="text-inner-tspan" font-weight="normal">Upitaj</tspan><tspan font-style="normal" class="text-inner-tspan" font-weight="normal"> Open</tspan><tspan font-style="normal" class="text-inner-tspan" font-weight="normal"> Library</tspan></tspan></text></g></g></g><g class="node default" id="my-svg-flowchart-G-11" data-look="classic" transform="translate(119.828125, 660.5874938964844)"><polygon points="94.12031173706055,0 188.2406234741211,-94.12031173706055 94.12031173706055,-188.2406234741211 0,-94.12031173706055" class="label-container" transform="translate(-93.62031173706055, 94.12031173706055)"/><g class="label" style="" transform="translate(0, -17.299999237060547)"><rect/><g><rect class="background" style="stroke: none"/><text y="-10.1" style=""><tspan class="text-outer-tspan row" x="0" y="-0.1em" dy="1.1em"><tspan font-style="normal" class="text-inner-tspan" font-weight="normal">Pronađeni</tspan><tspan font-style="normal" class="text-inner-tspan" font-weight="normal"> korisni</tspan></tspan><tspan class="text-outer-tspan row" x="0" y="1em" dy="1.1em"><tspan font-style="normal" class="text-inner-tspan" font-weight="normal">metapodaci?</tspan></tspan></text></g></g></g><g class="node default" id="my-svg-flowchart-H-13" data-look="classic" transform="translate(119.828125, 858.0078086853027)"><rect class="basic label-container" style="fill:#e8f5e9 !important;stroke:#2e7d32 !important" x="-111.828125" y="-32.29999923706055" width="223.65625" height="64.5999984741211"/><g class="label" style="" transform="translate(0, -17.299999237060547)"><rect/><g><rect class="background" style="stroke: none"/><text y="-10.1" style=""><tspan class="text-outer-tspan row" x="0" y="-0.1em" dy="1.1em"><tspan font-style="normal" class="text-inner-tspan" font-weight="normal">Vrati</tspan><tspan font-style="normal" class="text-inner-tspan" font-weight="normal"> metapodatke</tspan></tspan><tspan class="text-outer-tspan row" x="0" y="1em" dy="1.1em"><tspan font-style="normal" class="text-inner-tspan" font-weight="normal">Pružatelj:</tspan><tspan font-style="normal" class="text-inner-tspan" font-weight="normal"> Open</tspan><tspan font-style="normal" class="text-inner-tspan" font-weight="normal"> Library</tspan></tspan></text></g></g></g><g class="node default" id="my-svg-flowchart-I-15" data-look="classic" transform="translate(565.8550796508789, 858.0078086853027)"><rect class="basic label-container" style="" x="-101.1640625" y="-32.29999923706055" width="202.328125" height="64.5999984741211"/><g class="label" style="" transform="translate(0, -17.299999237060547)"><rect/><g><rect class="background" style="stroke: none"/><text y="-10.1" style=""><tspan class="text-outer-tspan row" x="0" y="-0.1em" dy="1.1em"><tspan font-style="normal" class="text-inner-tspan" font-weight="normal">Upitaj</tspan><tspan font-style="normal" class="text-inner-tspan" font-weight="normal"> Let</tspan><tspan font-style="normal" class="text-inner-tspan" font-weight="normal"> Books</tspan></tspan><tspan class="text-outer-tspan row" x="0" y="1em" dy="1.1em"><tspan font-style="normal" class="text-inner-tspan" font-weight="normal">metapodatkovni</tspan><tspan font-style="normal" class="text-inner-tspan" font-weight="normal"> API</tspan></tspan></text></g></g></g><g class="node default" id="my-svg-flowchart-J-17" data-look="classic" transform="translate(565.8550796508789, 1034.428123474121)"><polygon points="94.12031173706055,0 188.2406234741211,-94.12031173706055 94.12031173706055,-188.2406234741211 0,-94.12031173706055" class="label-container" transform="translate(-93.62031173706055, 94.12031173706055)"/><g class="label" style="" transform="translate(0, -17.299999237060547)"><rect/><g><rect class="background" style="stroke: none"/><text y="-10.1" style=""><tspan class="text-outer-tspan row" x="0" y="-0.1em" dy="1.1em"><tspan font-style="normal" class="text-inner-tspan" font-weight="normal">Pronađeni</tspan><tspan font-style="normal" class="text-inner-tspan" font-weight="normal"> korisni</tspan></tspan><tspan class="text-outer-tspan row" x="0" y="1em" dy="1.1em"><tspan font-style="normal" class="text-inner-tspan" font-weight="normal">metapodaci?</tspan></tspan></text></g></g></g><g class="node default" id="my-svg-flowchart-K-19" data-look="classic" transform="translate(613.0386734008789, 1231.8484382629395)"><rect class="basic label-container" style="fill:#e8f5e9 !important;stroke:#2e7d32 !important" x="-115.8359375" y="-32.29999923706055" width="231.671875" height="64.5999984741211"/><g class="label" style="" transform="translate(0, -17.299999237060547)"><rect/><g><rect class="background" style="stroke: none"/><text y="-10.1" style=""><tspan class="text-outer-tspan row" x="0" y="-0.1em" dy="1.1em"><tspan font-style="normal" class="text-inner-tspan" font-weight="normal">Vrati</tspan><tspan font-style="normal" class="text-inner-tspan" font-weight="normal"> metapodatke</tspan></tspan><tspan class="text-outer-tspan row" x="0" y="1em" dy="1.1em"><tspan font-style="normal" class="text-inner-tspan" font-weight="normal">Pružatelj:</tspan><tspan font-style="normal" class="text-inner-tspan" font-weight="normal"> Let</tspan><tspan font-style="normal" class="text-inner-tspan" font-weight="normal"> Books</tspan><tspan font-style="normal" class="text-inner-tspan" font-weight="normal"> API</tspan></tspan></text></g></g></g></g></g></g><defs><filter id="my-svg-drop-shadow" height="130%" width="130%"><feDropShadow dx="4" dy="4" stdDeviation="0" flood-opacity="0.06" flood-color="#000000"/></filter></defs><defs><filter id="my-svg-drop-shadow-small" height="150%" width="150%"><feDropShadow dx="2" dy="2" stdDeviation="0" flood-opacity="0.06" flood-color="#000000"/></filter></defs><linearGradient id="my-svg-gradient" gradientUnits="objectBoundingBox" x1="0%" y1="0%" x2="100%" y2="0%"><stop offset="0%" stop-color="hsl(0, 0%, 83.3333333333%)" stop-opacity="1"/><stop offset="100%" stop-color="hsl(0, 0%, 88.9215686275%)" stop-opacity="1"/></linearGradient><text text-anchor="middle" x="368.43731689453125" y="-25" class="flowchartTitleText">Lanac pretraživanja metapodataka ISBN</text></svg>